<svg xmlns="http://www.w3.org/2000/svg" width="653" height="388" viewBox="0 0 653 388">
  <rect id="Rectangle_4754" data-name="Rectangle 4754" width="653" height="70" fill="#fff"/>
  <rect id="Rectangle_4759" data-name="Rectangle 4759" width="80" height="70" fill="#47a1ad"/>
  <rect id="Rectangle_4755" data-name="Rectangle 4755" width="653" height="70" transform="translate(0 79)" fill="#fff"/>
  <rect id="Rectangle_4760" data-name="Rectangle 4760" width="80" height="70" transform="translate(0 79)" fill="#003d4f"/>
  <rect id="Rectangle_4756" data-name="Rectangle 4756" width="653" height="70" transform="translate(0 159)" fill="#fff"/>
  <rect id="Rectangle_4761" data-name="Rectangle 4761" width="80" height="70" transform="translate(0 159)" fill="#47a1ad"/>
  <rect id="Rectangle_4757" data-name="Rectangle 4757" width="653" height="70" transform="translate(0 238)" fill="#fff"/>
  <rect id="Rectangle_4762" data-name="Rectangle 4762" width="80" height="70" transform="translate(0 238)" fill="#003d4f"/>
  <rect id="Rectangle_4758" data-name="Rectangle 4758" width="653" height="70" transform="translate(0 318)" fill="#fff"/>
  <rect id="Rectangle_4763" data-name="Rectangle 4763" width="80" height="70" transform="translate(0 318)" fill="#47a1ad"/>
  <text id="We_have_had_8_Financial_inbounds_due_to_NPCI_connects" data-name="We have had 8 Financial inbounds due to NPCI connects" transform="translate(96.282 26.978)" font-size="14" font-family="Helvetica"><tspan x="0" y="11">We have had </tspan><tspan y="11" font-family="Helvetica-Bold, Helvetica" font-weight="700">8 Financial inbounds</tspan><tspan y="11" xml:space="preserve"> due to </tspan><tspan y="11" font-family="Helvetica-Bold, Helvetica" font-weight="700">NPCI connects</tspan></text>
  <text id="Bahmni_and_Cloud_Carbon_Footprint_CCF_are_DPGs._We_are_the_only_IT_services_company_with_DPG_membership" data-name="Bahmni  and Cloud Carbon Footprint (CCF) are DPGs. We are the only IT services company with DPG membership" transform="translate(96.282 96.674)" font-size="14" font-family="Helvetica"><tspan x="0" y="11" xml:space="preserve">Bahmni  and Cloud Carbon Footprint (CCF) are DPGs.</tspan><tspan y="11" xml:space="preserve" font-family="Helvetica-Bold, Helvetica" font-weight="700"> We are the only IT services </tspan><tspan x="0" y="29" font-family="Helvetica-Bold, Helvetica" font-weight="700">company with DPG membership</tspan></text>
  <text id="At_least_14_tech_companies_in_India_including_Amazon_Flipkart_Dell_Microsoft_and_a_number_of_startups_are_evaluating_Vakyansh_and_reached_out_to_our_Data_Scientists_in_the_last_3_months." data-name="At least 14 tech companies in India including Amazon, Flipkart, Dell, Microsoft and a number of startups are evaluating Vakyansh and reached out to our Data Scientists in the last 3 months." transform="translate(96.282 167.083)" font-size="14" font-family="Helvetica-Bold, Helvetica" font-weight="700"><tspan x="0" y="11">At least 14 tech companies</tspan><tspan y="11" xml:space="preserve" font-family="Helvetica" font-weight="400"> in India including </tspan><tspan y="11">Amazon, Flipkart, Dell, Microsoft </tspan><tspan y="11" font-family="Helvetica" font-weight="400">and </tspan><tspan x="0" y="29" font-family="Helvetica" font-weight="400">a number of startups are evaluating </tspan><tspan y="29">Vakyansh</tspan><tspan y="29" xml:space="preserve" font-family="Helvetica" font-weight="400"> and reached out to our Data Scientists </tspan><tspan x="0" y="47" font-family="Helvetica" font-weight="400">in the last 3 months.</tspan></text>
  <text id="Our_engagement_with_ONDC_has_already_created_talking_points_with_all_businesses_in_India_and_outside._We_need_to_penetrate_deeper_here." data-name="Our engagement with ONDC has already created talking points with all businesses in India and outside. We need to penetrate deeper here." transform="translate(96.282 254.946)" font-size="14" font-family="Helvetica"><tspan x="0" y="11">Our engagement with </tspan><tspan y="11" font-family="Helvetica-Bold, Helvetica" font-weight="700">ONDC </tspan><tspan y="11">has already created talking points with all businesses in </tspan><tspan x="0" y="29" font-family="Helvetica-Bold, Helvetica" font-weight="700">India </tspan><tspan y="29">and </tspan><tspan y="29" font-family="Helvetica-Bold, Helvetica" font-weight="700">outside</tspan><tspan y="29">. We need to penetrate deeper here.</tspan></text>
  <text id="Our_DPG_Alliance_membership_is_sending_RFPs_from_International_Organisations_such_at_ITU_UN_s_IT_arm_our_way._We_are_also_invited_to_committees_that_will_define_and_set_standards_for_DPGs." data-name="Our DPG Alliance membership is sending RFPs from International Organisations such at ITU (UN’s IT arm) our way. We are also invited to committees that will define and set standards for DPGs." transform="translate(96.282 326.493)" font-size="14" font-family="Helvetica"><tspan x="0" y="11">Our </tspan><tspan y="11" font-family="Helvetica-Bold, Helvetica" font-weight="700">DPG Alliance membership</tspan><tspan y="11" xml:space="preserve"> is sending RFPs from International Organisations </tspan><tspan x="0" y="29">such at ITU (UN’s IT arm) our way. We are also invited to committees that will </tspan><tspan y="29" font-family="Helvetica-Bold, Helvetica" font-weight="700">define </tspan><tspan x="0" y="47" font-family="Helvetica-Bold, Helvetica" font-weight="700">and set standards</tspan><tspan y="47" xml:space="preserve"> for DPGs.</tspan></text>
  <g id="_9ZoMnp.tif" data-name="9ZoMnp.tif" transform="translate(-5862.632 -2338.599)">
    <g id="Group_12442" data-name="Group 12442" transform="translate(5880.632 2354.608)">
      <path id="Path_16486" data-name="Path 16486" d="M5924.632,2378.055h-1.464v-.656q0-9.49,0-18.98a2.212,2.212,0,0,0-1.865-2.318,2.168,2.168,0,0,0-.33,0v21.928h-1.462V2356.1h-33.683v29.264h14.581v1.485h-.5q-7.667,0-15.334,0a3.67,3.67,0,0,1-3.923-3.916q0-10.607,0-21.214v-.488h1.464v.571q0,10.607,0,21.214a2.2,2.2,0,0,0,1.593,2.275,5.128,5.128,0,0,0,.58.1v-29.261a2.1,2.1,0,0,0-2.167,2.049c-.021.5,0,1,0,1.534h-1.434c-.134-1.6-.1-3.164,1.316-4.248a9.616,9.616,0,0,1,1.743-.856h37.8c.159.053.316.108.475.158a3.619,3.619,0,0,1,2.449,2.417c.058.172.112.344.168.516Z" transform="translate(-5880.632 -2354.608)" fill="#fff"/>
      <path id="Path_16487" data-name="Path 16487" d="M6122.26,2615.1l1.181.8a9.48,9.48,0,0,0-1.015,8.585,9.2,9.2,0,0,0,4.371,5.1,9.541,9.541,0,1,0-2.118-15.177l-.979-1c2.642-2.993,9-4.745,14.07-1.115a11,11,0,1,1-15.512,2.814Z" transform="translate(-6099.738 -2588.247)" fill="#fff"/>
      <path id="Path_16488" data-name="Path 16488" d="M5982.868,2431.672v1.414h-24.86v-1.414Z" transform="translate(-5951.35 -2425.041)" fill="#fff"/>
      <path id="Path_16489" data-name="Path 16489" d="M5957.808,2518.092v-1.4h24.876v1.4Z" transform="translate(-5951.167 -2502.741)" fill="#fff"/>
      <path id="Path_16490" data-name="Path 16490" d="M6217.123,2658.759l-.862-1.148a6.625,6.625,0,0,0,2.614-5,6.481,6.481,0,0,0-1.126-3.975,6.662,6.662,0,0,0-8.254-2.312l-.583-1.255a7.96,7.96,0,0,1,9.993,2.667A8.052,8.052,0,0,1,6217.123,2658.759Z" transform="translate(-6180.664 -2619.348)" fill="#fff"/>
      <path id="Path_16491" data-name="Path 16491" d="M6165.225,2675.684l.587,1.254a7.889,7.889,0,0,1-9.838-2.443,8.015,8.015,0,0,1,1.629-11.226l.863,1.14a6.6,6.6,0,0,0-2.621,4.875,6.369,6.369,0,0,0,1.092,4.067,6.46,6.46,0,0,0,3.7,2.695A6.585,6.585,0,0,0,6165.225,2675.684Z" transform="translate(-6130.821 -2636.711)" fill="#fff"/>
      <path id="Path_16492" data-name="Path 16492" d="M5978.066,2465.676v1.4h-20.1v-1.4Z" transform="translate(-5951.308 -2456.119)" fill="#fff"/>
      <path id="Path_16493" data-name="Path 16493" d="M5977.951,2550.782v1.405h-20.1v-1.405Z" transform="translate(-5951.207 -2533.902)" fill="#fff"/>
      <path id="Path_16494" data-name="Path 16494" d="M5957.905,2627.39h5.062v1.412h-5.062Z" transform="translate(-5951.256 -2603.918)" fill="#fff"/>
      <path id="Path_16495" data-name="Path 16495" d="M5996.282,2661.432v1.412h-4.342v-1.412Z" transform="translate(-5982.363 -2635.031)" fill="#fff"/>
      <path id="Path_16496" data-name="Path 16496" d="M5959.41,2390.422h-1.4V2389h1.4Z" transform="translate(-5951.354 -2386.042)" fill="#fff"/>
      <path id="Path_16497" data-name="Path 16497" d="M5993.353,2388.9v1.409h-1.417V2388.9Z" transform="translate(-5982.359 -2385.95)" fill="#fff"/>
      <path id="Path_16498" data-name="Path 16498" d="M6025.99,2388.872h1.41v1.408h-1.41Z" transform="translate(-6013.483 -2385.924)" fill="#fff"/>
      <path id="Path_16499" data-name="Path 16499" d="M5957.833,2662.948v-1.407h1.414v1.407Z" transform="translate(-5951.19 -2635.131)" fill="#fff"/>
    </g>
  </g>
  <g id="Group_12444" data-name="Group 12444" transform="translate(-4960.062 -2194.874)">
    <g id="oZZXzc.tif" transform="translate(4977.269 2288.327)">
      <g id="Group_12443" data-name="Group 12443" transform="translate(0 0)">
        <path id="Path_16500" data-name="Path 16500" d="M5017.688,2330.129a5.689,5.689,0,0,1-3.108-1.958c-1.491-1.539-3.024-3.037-4.538-4.554-.564-.566-.581-.929-.051-1.591-.588-.589-1.178-1.185-1.778-1.77a.311.311,0,0,0-.264-.033c-.274.092-.542.208-.835.325q0,1.882,0,3.76a2.7,2.7,0,0,1-2.958,2.956q-11.962,0-23.924,0a2.71,2.71,0,0,1-2.962-2.958q0-16.508,0-33.017a2.728,2.728,0,0,1,2.969-2.962h23.924a2.712,2.712,0,0,1,2.951,2.929c0,.918,0,1.837,0,2.755a.879.879,0,1,1-1.745,0c-.009-.933,0-1.866,0-2.8,0-.776-.351-1.135-1.112-1.135q-12.049,0-24.1,0a.989.989,0,0,0-1.132,1.121q0,16.6,0,33.192c0,.777.342,1.122,1.122,1.122q12.05,0,24.1,0c.785,0,1.119-.336,1.122-1.117,0-1.02,0-2.041,0-3.061,0-.127-.015-.254-.023-.381a8.452,8.452,0,1,1,.025-16.833c0-.728,0-1.453,0-2.177a.9.9,0,0,1,.512-.892.854.854,0,0,1,1.23.789c.02.772.018,1.545,0,2.317a.445.445,0,0,0,.333.511,8.353,8.353,0,0,1,4.8,11.18.457.457,0,0,0,.122.6c.534.517,1.047,1.054,1.563,1.577.871-.515,1.048-.492,1.75.208,1.5,1.494,2.974,3.005,4.491,4.477a5.693,5.693,0,0,1,1.891,2.957v1.137c-.035.108-.073.214-.1.323A3.849,3.849,0,0,1,5019.1,2330l-.451.125Zm-13.136-24.222a6.634,6.634,0,1,0,6.64,6.6A6.6,6.6,0,0,0,5004.552,2305.907Zm7.222,16.93c1.647,1.657,3.3,3.337,4.978,5a1.93,1.93,0,0,0,1.738.511,2.14,2.14,0,0,0,1.169-3.649q-2.384-2.4-4.786-4.788a.42.42,0,0,0-.088-.065Zm-1.939-3.6,1.428,1.437,1.387-1.389-1.453-1.45Z" transform="translate(-4977.269 -2288.327)" fill="#fff"/>
        <path id="Path_16501" data-name="Path 16501" d="M5034.4,2585.441c.772,0,1.545-.005,2.317,0a.882.882,0,0,1,.99,1q.009,2.317,0,4.634a.9.9,0,0,1-1.033,1.013q-2.3.006-4.591,0a.893.893,0,0,1-1.026-1.012q-.007-2.317,0-4.634c0-.7.316-1,1.025-1C5032.852,2585.438,5033.625,2585.441,5034.4,2585.441Zm1.533,4.879v-3.1h-3.092v3.1Z" transform="translate(-5026.336 -2559.396)" fill="#fff"/>
        <path id="Path_16502" data-name="Path 16502" d="M5034.355,2472.618c.772,0,1.545,0,2.317,0,.7,0,1.026.317,1.028,1.006q.007,2.317,0,4.634a.9.9,0,0,1-1,1.009q-2.339.012-4.678,0a.88.88,0,0,1-.976-.976q-.009-2.361,0-4.721a.848.848,0,0,1,.943-.95C5032.781,2472.612,5033.568,2472.618,5034.355,2472.618Zm-1.533,4.872h3.1v-3.1h-3.1Z" transform="translate(-5026.333 -2456.462)" fill="#fff"/>
        <path id="Path_16503" data-name="Path 16503" d="M5031.062,2363.044c0-.772,0-1.544,0-2.317,0-.713.3-1.03,1-1.033q2.317-.013,4.634,0a.889.889,0,0,1,1.02,1.018q.007,2.3,0,4.59a.919.919,0,0,1-1.047,1.049q-2.273.011-4.547,0c-.744,0-1.055-.327-1.058-1.076S5031.062,2363.787,5031.062,2363.044Zm4.878,1.533v-3.1h-3.092v3.1Z" transform="translate(-5026.346 -2353.432)" fill="#fff"/>
        <path id="Path_16504" data-name="Path 16504" d="M5148.6,2359.707c1.4,0,2.8,0,4.195,0a.921.921,0,0,1,.916.467.851.851,0,0,1-.516,1.227,2.156,2.156,0,0,1-.562.054q-4.063,0-8.127,0c-.1,0-.2,0-.306,0a.886.886,0,0,1-.891-.89.864.864,0,0,1,.921-.849c1.456-.011,2.913,0,4.37,0Z" transform="translate(-5128.753 -2353.448)" fill="#fff"/>
        <path id="Path_16505" data-name="Path 16505" d="M5147.2,2403.877c-.961,0-1.923,0-2.884,0a.883.883,0,1,1,.006-1.746q2.884-.008,5.769,0c.629,0,1.037.36,1.035.882s-.4.862-1.042.865C5149.124,2403.881,5148.163,2403.877,5147.2,2403.877Z" transform="translate(-5128.75 -2392.151)" fill="#fff"/>
        <path id="Path_16506" data-name="Path 16506" d="M5145.992,2474.6c-.583,0-1.166.009-1.749,0a.873.873,0,1,1,.008-1.742q1.77-.015,3.542,0a.872.872,0,1,1-.008,1.742C5147.188,2474.608,5146.59,2474.6,5145.992,2474.6Z" transform="translate(-5128.765 -2456.673)" fill="#fff"/>
        <path id="Path_16507" data-name="Path 16507" d="M5146.039,2627.9c.568,0,1.137-.01,1.7,0a.881.881,0,0,1,.967.85.867.867,0,0,1-.967.891q-1.726.019-3.453,0a.876.876,0,1,1,0-1.741C5144.873,2627.893,5145.456,2627.9,5146.039,2627.9Z" transform="translate(-5128.764 -2598.133)" fill="#fff"/>
        <path id="Path_16508" data-name="Path 16508" d="M5144.633,2515.556c.145,0,.291-.009.436,0a.859.859,0,0,1,.828.8.845.845,0,0,1-.712.905,4.793,4.793,0,0,1-1.042.022.867.867,0,0,1-.831-.9.878.878,0,0,1,.886-.838c.145-.007.291,0,.436,0Z" transform="translate(-5128.756 -2495.633)" fill="#fff"/>
        <path id="Path_16509" data-name="Path 16509" d="M5144.628,2585.463c.145,0,.291-.007.436,0a.863.863,0,0,1,.848.829.853.853,0,0,1-.736.888,4.737,4.737,0,0,1-1.086.005.854.854,0,0,1-.761-.91.871.871,0,0,1,.864-.813C5144.337,2585.456,5144.483,2585.462,5144.628,2585.463Z" transform="translate(-5128.77 -2559.414)" fill="#fff"/>
        <path id="Path_16510" data-name="Path 16510" d="M5242.747,2537.369c.4-.416.735-.777,1.082-1.126.842-.848,1.685-1.7,2.537-2.532a.873.873,0,0,1,1.253-.057.861.861,0,0,1-.019,1.284q-2.092,2.112-4.206,4.2a.853.853,0,0,1-1.283-.009q-1.017-.991-2.01-2.008a.861.861,0,0,1-.041-1.282.885.885,0,0,1,1.286.067C5241.807,2536.368,5242.249,2536.848,5242.747,2537.369Z" transform="translate(-5216.781 -2511.932)" fill="#fff"/>
      </g>
    </g>
    <rect id="Rectangle_4764" data-name="Rectangle 4764" width="1.751" height="2.323" transform="translate(5005.366 2293.666)" fill="#fff"/>
    <rect id="Rectangle_4765" data-name="Rectangle 4765" width="1.751" height="2.323" transform="translate(5005.366 2297.188)" fill="#fff"/>
    <rect id="Rectangle_4766" data-name="Rectangle 4766" width="1.751" height="2.323" transform="translate(5005.366 2300.709)" fill="#fff"/>
  </g>
  <g id="Group_12448" data-name="Group 12448" transform="translate(1564.846 -3908.34)">
    <g id="aRy7wt.tif" transform="translate(-1547.639 4107.689)">
      <g id="Group_12446" data-name="Group 12446" transform="translate(0 0)">
        <path id="Path_16511" data-name="Path 16511" d="M-1532.487,4593.973a3.583,3.583,0,0,1,3.316-1.574,4.4,4.4,0,0,0,.611,0,1.892,1.892,0,0,1,1.529.521,2.7,2.7,0,0,0,3.714-.106,1.338,1.338,0,0,1,1.094-.413c.171.014.345,0,.517,0,2.026,0,2.287.1,3.713,1.508.081-.092.163-.183.242-.274a3.376,3.376,0,0,1,2.59-1.232c.266-.005.534.016.8-.005a2.434,2.434,0,0,1,1.925.607,2.661,2.661,0,0,0,3.6-.2,1.335,1.335,0,0,1,1.047-.412c.407.02.815.014,1.223,0a3.655,3.655,0,0,1,3.706,3.644c.028.924.01,1.85.01,2.775,0,.809-.189,1-.988,1q-3.786,0-7.572,0h-35.039c-.188,0-.377,0-.564-.014a.6.6,0,0,1-.609-.6,28.151,28.151,0,0,1,.093-3.753,3.484,3.484,0,0,1,3.6-3.053c.219,0,.44.014.658,0a2.382,2.382,0,0,1,1.881.6,2.658,2.658,0,0,0,3.6-.176,1.336,1.336,0,0,1,1.092-.419,3.517,3.517,0,0,0,.517,0A3.754,3.754,0,0,1-1532.487,4593.973Zm13.735,4.463a26.241,26.241,0,0,0-.019-2.725,2.151,2.151,0,0,0-2.272-1.934,4.567,4.567,0,0,0-.8.01,1.885,1.885,0,0,0-.8.28,4.1,4.1,0,0,1-4.906.182,2.284,2.284,0,0,0-1.64-.473c-.093.01-.188,0-.282,0a2.113,2.113,0,0,0-2.132,1.453,11.4,11.4,0,0,0-.214,3.205Zm-27.45-.008h13.015c0-.849.049-1.678-.012-2.5a2.234,2.234,0,0,0-2.468-2.153,4.588,4.588,0,0,0-.609.01,2.2,2.2,0,0,0-.84.288,4.108,4.108,0,0,1-4.945.146,2.087,2.087,0,0,0-1.507-.443c-.109.01-.219,0-.329,0a2.135,2.135,0,0,0-2.281,1.866A21.863,21.863,0,0,0-1546.2,4598.427Zm28.958,0h12.946a20.345,20.345,0,0,0-.026-2.827,2.111,2.111,0,0,0-2.264-1.824c-.251,0-.5.015-.752,0a1.143,1.143,0,0,0-.851.286,4.049,4.049,0,0,1-4.933.156,2.094,2.094,0,0,0-1.506-.44c-.109.01-.219,0-.329,0a2.108,2.108,0,0,0-2.261,1.825A22.011,22.011,0,0,0-1517.245,4598.428Z" transform="translate(1547.639 -4575.282)" fill="#fff"/>
        <path id="Path_16512" data-name="Path 16512" d="M-1352.345,4491.769a4.42,4.42,0,0,1,4.411,4.384,4.428,4.428,0,0,1-4.39,4.409,4.43,4.43,0,0,1-4.411-4.388A4.421,4.421,0,0,1-1352.345,4491.769Zm.014,7.4a3,3,0,0,0,3.01-3.013,3.022,3.022,0,0,0-3.017-3.016,3.021,3.021,0,0,0-3.01,3.022A3,3,0,0,0-1352.331,4499.171Z" transform="translate(1374.729 -4484.152)" fill="#fff"/>
        <path id="Path_16513" data-name="Path 16513" d="M-1194.38,4496.28a4.408,4.408,0,0,1-4.593,4.284,4.42,4.42,0,0,1-4.189-4.6,4.412,4.412,0,0,1,4.5-4.187A4.4,4.4,0,0,1-1194.38,4496.28Zm-4.4,2.9a3.012,3.012,0,0,0,3.036-2.993,3.035,3.035,0,0,0-3-3.035,3.008,3.008,0,0,0-3.025,3A2.992,2.992,0,0,0-1198.784,4499.179Z" transform="translate(1235.635 -4484.159)" fill="#fff"/>
        <path id="Path_16514" data-name="Path 16514" d="M-1505.915,4491.773a4.411,4.411,0,0,1,4.495,4.194,4.42,4.42,0,0,1-4.243,4.591,4.411,4.411,0,0,1-4.541-4.292A4.4,4.4,0,0,1-1505.915,4491.773Zm3.111,4.382a3.01,3.01,0,0,0-3.017-3.011,3.036,3.036,0,0,0-3.012,3.027,3.014,3.014,0,0,0,3.028,3A2.99,2.99,0,0,0-1502.8,4496.155Z" transform="translate(1513.735 -4484.153)" fill="#fff"/>
        <path id="Path_16515" data-name="Path 16515" d="M-1329.978,4415.112c0-1.142,0-2.206,0-3.271,0-.184-.014-.436.092-.534a1.138,1.138,0,0,1,.7-.347.6.6,0,0,1,.566.684q0,1.481,0,2.961v.5c.15-.079.24-.132.335-.175a.577.577,0,0,1,.819.21.93.93,0,0,1-.005.8,11.891,11.891,0,0,1-1.416,1.436.643.643,0,0,1-.932-.078q-.623-.607-1.232-1.228a.663.663,0,0,1-.109-.931.65.65,0,0,1,.955-.152C-1330.151,4415.025-1330.1,4415.05-1329.978,4415.112Z" transform="translate(1351.692 -4410.96)" fill="#fff"/>
        <path id="Path_16516" data-name="Path 16516" d="M-1448.317,4417.415l1.214-1.985c.09-.147.177-.295.268-.441.308-.493.661-.631,1.037-.407s.435.619.146,1.1c-.4.672-.812,1.338-1.216,2.008-.08.132-.152.268-.239.423.122.026.247.015.3.071a1.878,1.878,0,0,1,.488.66c.082.319-.156.566-.476.654-.558.153-1.118.3-1.685.413a.636.636,0,0,1-.788-.5c-.155-.558-.3-1.119-.417-1.685a.631.631,0,0,1,.418-.755C-1448.85,4416.806-1448.562,4417.022-1448.317,4417.415Z" transform="translate(1458.938 -4414.146)" fill="#fff"/>
        <path id="Path_16517" data-name="Path 16517" d="M-1213.262,4418.1c-.508-.839-1.02-1.642-1.48-2.475a1.039,1.039,0,0,1-.081-.781c.2-.518.87-.5,1.2.013.438.686.848,1.389,1.272,2.083.088.145.184.284.291.449.255-.391.558-.62.992-.405s.437.592.318,1.009c-.124.436-.2.884-.325,1.321a.7.7,0,0,1-.96.559c-.411-.1-.817-.219-1.23-.3-.429-.087-.808-.22-.809-.743C-1214.076,4418.335-1213.718,4418.181-1213.262,4418.1Z" transform="translate(1246.232 -4414.136)" fill="#fff"/>
      </g>
    </g>
    <g id="XOmU18.tif" transform="translate(-1540.083 4076.13)">
      <g id="Group_12447" data-name="Group 12447" transform="translate(0 0)">
        <path id="Path_16518" data-name="Path 16518" d="M-1453.942,4076.13h12.214a1.073,1.073,0,0,1,.451,1.05q-.01,13.241-.005,26.482v.626c.2.009.356.021.508.021.689,0,1.377,0,2.066,0a.665.665,0,0,1,.724.637.684.684,0,0,1-.7.672c-.078.006-.156,0-.235,0q-13.8,0-27.609.007a1.01,1.01,0,0,1-.944-.47v-.375a.9.9,0,0,1,.927-.485c.777.028,1.557.008,2.385.008v-.651q0-9.277,0-18.553c0-.807.185-.989,1-.99h8.778v-.546c0-2.145.006-4.29-.006-6.435A1.043,1.043,0,0,1-1453.942,4076.13Zm3.079,28.152v-.531q0-2.794,0-5.588c0-.752.169-.929.9-.932q2.137-.007,4.274,0c.7,0,.884.188.885.9q0,2.818,0,5.635v.516h2.166v-26.795h-10.4v26.793Zm-11.939-18.825v18.82h8.394v-18.82Zm13.3,13.116v5.7h3.353v-5.7Z" transform="translate(1467.472 -4076.13)" fill="#fff"/>
        <path id="Path_16519" data-name="Path 16519" d="M-1294.347,4205.523c.94,0,1.879,0,2.819,0,.6,0,.813.225.818.826,0,.626.008,1.252,0,1.879-.008.506-.241.761-.749.764q-2.912.017-5.825,0c-.506,0-.74-.259-.747-.767-.01-.657-.011-1.315,0-1.973a.65.65,0,0,1,.726-.727C-1296.32,4205.516-1295.333,4205.523-1294.347,4205.523Zm2.3,1.346h-4.65v.783h4.65Z" transform="translate(1314.011 -4193.325)" fill="#fff"/>
        <path id="Path_16520" data-name="Path 16520" d="M-1294.326,4158.66c-.955,0-1.91,0-2.865,0-.606,0-.827-.219-.832-.812-.006-.626-.008-1.252,0-1.878.007-.513.233-.768.739-.771q2.935-.017,5.87,0c.482,0,.7.259.712.748q.015.986,0,1.973c-.008.506-.241.732-.761.737C-1292.416,4158.666-1293.371,4158.66-1294.326,4158.66Zm2.278-1.338v-.789h-4.625v.789Z" transform="translate(1313.998 -4147.738)" fill="#fff"/>
        <path id="Path_16521" data-name="Path 16521" d="M-1294.373,4108.5c-.939,0-1.879,0-2.819,0-.591,0-.82-.234-.825-.827q-.008-.916,0-1.833c.006-.566.237-.812.792-.813q2.865-.009,5.731,0c.561,0,.794.242.8.8q.01.94,0,1.879c-.007.555-.245.786-.814.789C-1292.462,4108.5-1293.418,4108.5-1294.373,4108.5Zm-2.311-1.354h4.651v-.778h-4.651Z" transform="translate(1313.992 -4102.294)" fill="#fff"/>
        <path id="Path_16522" data-name="Path 16522" d="M-1404.224,4193.229c-.781,0-1.562,0-2.344,0-.628,0-.859-.222-.868-.835s-.01-1.218,0-1.828c.01-.589.241-.81.841-.811q2.367-.005,4.734,0c.573,0,.8.222.809.784.009.641.01,1.281,0,1.922-.009.535-.24.761-.782.766C-1402.63,4193.236-1403.427,4193.229-1404.224,4193.229Zm-1.875-1.342h3.7v-.792h-3.7Z" transform="translate(1413.1 -4179.042)" fill="#fff"/>
        <path id="Path_16523" data-name="Path 16523" d="M-1404.272,4291.939c-.8,0-1.594,0-2.39,0-.541,0-.78-.228-.792-.763-.015-.656-.016-1.312,0-1.968.014-.5.259-.735.772-.737q2.437-.01,4.875,0a.647.647,0,0,1,.732.718c.013.688.014,1.375,0,2.063a.632.632,0,0,1-.711.686C-1402.616,4291.947-1403.444,4291.939-1404.272,4291.939Zm-1.831-2.143v.8h3.68v-.8Z" transform="translate(1413.122 -4268.451)" fill="#fff"/>
        <path id="Path_16524" data-name="Path 16524" d="M-1404.245,4239.155c.767,0,1.534,0,2.3,0,.684,0,.872.191.877.86,0,.61.008,1.221,0,1.832-.008.534-.209.77-.728.774q-2.466.022-4.931,0c-.486,0-.71-.251-.722-.743q-.024-.986,0-1.972c.012-.513.243-.738.762-.747C-1405.873,4239.146-1405.059,4239.156-1404.245,4239.155Zm1.838,1.352h-3.7v.782h3.7Z" transform="translate(1413.118 -4223.787)" fill="#fff"/>
      </g>
    </g>
  </g>
  <g id="JDEUUo.tif" transform="translate(204.998 -3995.125)">
    <g id="Group_12449" data-name="Group 12449" transform="translate(-191.863 4245.288)">
      <path id="Path_16525" data-name="Path 16525" d="M-183.945,4353.037c-.55-.51-1.033-1-1.57-1.429a.874.874,0,0,0-.7-.071,6.674,6.674,0,0,0-.947.5,2.111,2.111,0,0,1-.6.258c-1.442.226-1.641-1.039-2.159-1.874a1.31,1.31,0,0,1,.3-1.844c.085-.068.184-.121.276-.181.453-.3,1.244-.555,1.288-.905a5.5,5.5,0,0,0-.448-2.063c-.04-.135-.264-.233-.422-.311a.858.858,0,0,0-.327-.015c-2.36-.061-2.867-.682-2.484-3.042a1.4,1.4,0,0,1,1.458-1.194c1.677-.092,1.642-.1,2.171-1.707.2-.614.05-.917-.493-1.15a5.84,5.84,0,0,1-.79-.446,1.515,1.515,0,0,1-.448-.357c-.832-1.19.165-2.009.654-2.9a1.284,1.284,0,0,1,1.8-.483c.565.249,1.173.755,1.683.67.488-.081.85-.806,1.312-1.193.383-.32.341-.585.123-.984-1.156-2.118-.989-2.583,1.223-3.613a1.37,1.37,0,0,1,1.922.548c1.038,1.59,1.043,1.6,2.841.959a.935.935,0,0,0,.441-.647c.082-.483.011-.992.082-1.479a1.245,1.245,0,0,1,1.3-1.137c2.563-.157,2.714-.012,2.9,2.556.018.261.355.5.553.744.026.032.106.015.159.028.558.136,1.207.514,1.646.344s.65-.889.963-1.366a1.362,1.362,0,0,1,1.922-.543c.124.058.24.135.362.2,1.47.765,2.3,1.2.943,3.254-.358.542-.347.942.212,1.3a.847.847,0,0,1,.123.111c1.12,1.06,1.12,1.06,2.535.34a1.421,1.421,0,0,1,2.1.582c.071.117.133.241.2.36,1,1.766.922,2.142-.841,3.1-.584.317-.76.61-.545,1.281.5,1.562.461,1.575,2.05,1.63a1.42,1.42,0,0,1,1.566,1.526c.015.275.005.551,0,.827-.008,1.464-.416,1.863-1.854,1.89-.45.008-1.168-.032-1.294.2a7.535,7.535,0,0,0-.6,2.123c-.023.115.246.328.418.436,2.1,1.323,2.17,1.6.867,3.659a1.372,1.372,0,0,1-2.033.576c-1.467-.734-1.434-.7-2.679.379a.911.911,0,0,0-.184,1.442,4.252,4.252,0,0,1,.554,1.012c.3.848-.124,1.381-1.729,2.243-.871.467-1.467.389-1.981-.263-.034-.043-.065-.089-.1-.135-.333-.492-.571-1.239-1.024-1.408-.47-.175-1.145.223-1.735.347-.447.094-.682.324-.62.8,0,.027,0,.056,0,.083.3,2.773-1.03,2.541-3.24,2.363-.7-.056-.931-.7-.983-1.351-.045-.57.132-1.348-.173-1.66a3.353,3.353,0,0,0-1.767-.561c-.239-.04-.526.2-.79.314-.019.008-.024.048-.038.072-1.262,2.076-1.517,2.137-3.59.866a1.406,1.406,0,0,1-.6-2.1C-184.54,4354.084-184.276,4353.634-183.945,4353.037Zm-6.465-11.024c-.27,1.945-.27,1.945,1.5,1.965.055,0,.11,0,.165,0a1.281,1.281,0,0,1,1.418,1.1c.146.615.321,1.223.494,1.831a1.328,1.328,0,0,1-.729,1.854c-.458.279-.917.555-1.414.855l.921,1.569c.6-.322,1.141-.631,1.7-.909a1.358,1.358,0,0,1,1.751.469c.425.468.917.875,1.343,1.342,1.189,1.3-.3,2.179-.573,3.338l1.534.879c.183-.285.308-.464.418-.652,1.043-1.795,1.07-1.806,3.062-1.231,2.064.6,2.055.6,2.2,2.83.014.213.189.549.355.6,1.148.328,1.529.019,1.532-1.167,0-.192,0-.386,0-.579a1.323,1.323,0,0,1,1.113-1.422c.639-.161,1.275-.337,1.908-.523a1.358,1.358,0,0,1,1.745.686c.266.474.552.937.868,1.47l1.572-.9c-.289-1.149-1.68-2.021-.6-3.24a5.735,5.735,0,0,1,2.285-1.917c.728-.2,1.7.479,2.637.794.112-.183.274-.434.421-.692.133-.234.249-.477.382-.732a2.555,2.555,0,0,0-.272-.247c-2.029-1.329-2.03-1.328-1.462-3.68.406-1.683.493-1.785,2.309-1.745.773.017,1.059-.175,1.043-1-.014-.748-.2-1.076-.976-.975a6.558,6.558,0,0,1-.908,0,1.262,1.262,0,0,1-1.3-1.04c-.173-.636-.316-1.282-.514-1.911a1.393,1.393,0,0,1,.718-1.807c.469-.27.931-.549,1.451-.856l-.844-1.446c-.97.314-1.915.948-2.684.779-.793-.173-1.438-1.1-2.106-1.745-1.332-1.278.165-2.227.451-3.413l-1.553-.876c-.15.22-.265.371-.361.533-1.134,1.908-1.133,1.908-3.236,1.333-2.03-.556-2.041-.556-2.063-2.66,0-.476-.055-.77-.65-.786-1.227-.033-1.25-.042-1.253,1.173,0,.221,0,.441,0,.662a1.353,1.353,0,0,1-1.074,1.384q-.99.281-1.989.533a1.381,1.381,0,0,1-1.737-.729c-.253-.476-.547-.93-.848-1.438l-1.427.837c.3.988.911,1.935.738,2.707-.179.794-1.092,1.444-1.734,2.108-1.282,1.325-2.224-.194-3.308-.451-1.156,1.342-1.145,1.424.276,2.253.071.042.145.08.215.124a1.4,1.4,0,0,1,.686,1.822,17.521,17.521,0,0,0-.5,1.829,1.276,1.276,0,0,1-1.331,1.108C-189.228,4342.025-189.8,4342.013-190.411,4342.013Z" transform="translate(191.863 -4313.387)" fill="#fff"/>
      <path id="Path_16526" data-name="Path 16526" d="M2.684,4404.087c-.362.4-.863.946-1.361,1.5a.714.714,0,0,1-1.2.029c-.556-.573-1.127-1.133-1.695-1.7a.7.7,0,0,1-.016-1.14A5.7,5.7,0,0,1-1,4402.2a1.585,1.585,0,0,0,.535-2.41c-.305-.528-.525-.823-1.143-.768-.465.042-.937-.012-1.4.01-.646.03-.886-.271-.862-.9.029-.743.021-1.488,0-2.232-.015-.581.2-.894.819-.848.192.014.39-.025.578.007a1.707,1.707,0,0,0,2.279-1.414c.127-.521.194-.842-.241-1.2-.4-.333-.74-.74-1.118-1.1A.7.7,0,0,1-1.6,4390.2c.6-.6,1.214-1.2,1.809-1.815a.618.618,0,0,1,1,0,5.78,5.78,0,0,1,.7.7,1.535,1.535,0,0,0,2.268.529,1.2,1.2,0,0,0,.82-1.277c-.043-2.557-.139-2.179,2.214-2.2,1.907-.019,1.807-.1,1.8,1.784,0,.434-.113,1.069.118,1.261a5.8,5.8,0,0,0,1.772.827c.131.047.387-.137.533-.272.445-.411.868-.846,1.292-1.28a.7.7,0,0,1,1.138-.013c.579.589,1.166,1.172,1.753,1.754a.666.666,0,0,1,.008,1.073,5.773,5.773,0,0,1-.646.639,1.563,1.563,0,0,0-.526,2.336c.3.549.513.9,1.19.813.433-.058.882.013,1.321-.017.663-.044.976.226.958.9-.019.744-.012,1.488,0,2.232a.726.726,0,0,1-.859.842,4.469,4.469,0,0,1-.578,0,1.722,1.722,0,0,0-2.279,1.421,1.017,1.017,0,0,0,.245,1.195c1.7,1.694,1.69,1.705.011,3.393-.117.117-.233.235-.35.352-.754.747-.861.748-1.6.016l-.292-.292c-1.228-1.227-1.432-1.264-2.9-.381a.825.825,0,0,0-.293.587c-.039.6-.027,1.212-.013,1.818.013.563-.255.8-.8.789-.8-.012-1.6-.021-2.4,0-.567.017-.806-.255-.823-.786a1.214,1.214,0,0,1,0-.248C5.271,4405.283,4.753,4404.232,2.684,4404.087Zm-5.377-6.191c.7,0,1.359.026,2.012-.007a.943.943,0,0,1,1.069.786,12.307,12.307,0,0,0,.811,1.97.846.846,0,0,1-.165,1.167c-.512.482-1,1-1.41,1.416l1.237,1.325c.43-.486.858-.952,1.264-1.436a.931.931,0,0,1,1.366-.21,7.337,7.337,0,0,0,1.82.745.973.973,0,0,1,.84,1.115c-.016.651,0,1.3,0,1.929,1.721.3,1.728.29,1.729-1.247a2.713,2.713,0,0,1,.023-.9,1.567,1.567,0,0,1,.6-.817,11.364,11.364,0,0,1,2.125-.858,1.335,1.335,0,0,1,1.069.145,13.328,13.328,0,0,1,1.368,1.526l1.446-1.314c-.539-.49-1.039-.957-1.553-1.407a.808.808,0,0,1-.183-1.152,9.659,9.659,0,0,0,.817-1.968.962.962,0,0,1,1.131-.812c.647.032,1.3.007,1.919.007v-1.723c-.764,0-1.448-.015-2.132.005a.786.786,0,0,1-.877-.666,11.923,11.923,0,0,0-.843-2.048.833.833,0,0,1,.147-1.163c.51-.485.992-1,1.422-1.436l-1.2-1.446a7.455,7.455,0,0,1-.613.86c-1.2,1.225-1.153,1.021-2.8.583-1.661-.442-2.146-1.3-1.877-2.852.12-.693-.352-.726-.871-.733s-.925.045-.859.741a14.355,14.355,0,0,1,0,1.487.859.859,0,0,1-.744.92,9.954,9.954,0,0,0-1.972.813.86.86,0,0,1-1.233-.192c-.432-.529-.856-1.065-1.284-1.6l-.2.276L-.6,4390.848a17.767,17.767,0,0,1,1.669,1.531,1.223,1.223,0,0,1,.136.995c-.223.729-.589,1.414-.843,2.135-.158.449-.378.693-.884.673-.706-.028-1.414-.007-2.166-.007Z" transform="translate(35.015 -4362.801)" fill="#fff"/>
      <path id="Path_16527" data-name="Path 16527" d="M-43.484,4251.962c-.54-.481-1.135-1.012-1.731-1.541a.632.632,0,0,1-.01-1.057c.608-.6,1.215-1.2,1.811-1.813a.652.652,0,0,1,1.066.024,5.214,5.214,0,0,1,.58.587,1.592,1.592,0,0,0,2.4.567c.567-.317.8-.554.794-1.2-.02-2.542-.328-2.219,2.232-2.231,1.731-.008,1.731,0,1.728,1.681a1.92,1.92,0,0,0,1.9,2.178.84.84,0,0,0,.539-.268c.446-.41.872-.843,1.294-1.278a.693.693,0,0,1,1.136-.018c.58.59,1.166,1.172,1.753,1.755a.668.668,0,0,1,.006,1.075,4.784,4.784,0,0,1-.528.523,1.67,1.67,0,0,0-.6,2.535c.291.485.482.741,1.074.739,2.307-.008,2.307.012,2.312,2.313,0,1.645,0,1.638-1.683,1.645-.462,0-1.127-.117-1.342.13a5.37,5.37,0,0,0-.811,1.779c-.047.134.133.39.268.537.41.446.84.875,1.28,1.292a.683.683,0,0,1,0,1.129c-.589.58-1.171,1.168-1.752,1.756a.654.654,0,0,1-1.068.005,6.681,6.681,0,0,1-.637-.647,1.589,1.589,0,0,0-2.338-.534,1.207,1.207,0,0,0-.814,1.285c.031,2.511.206,2.146-2.144,2.165-1.967.015-1.82.149-1.826-1.833,0-.427.076-1.052-.16-1.24a6.169,6.169,0,0,0-1.788-.806c-.111-.04-.335.142-.465.265-.46.436-.906.887-1.35,1.339a.655.655,0,0,1-1.068,0c-.58-.589-1.163-1.176-1.757-1.751a.674.674,0,0,1-.012-1.125c.162-.15.313-.311.469-.467,1.261-1.259,1.276-1.266.482-2.873a.974.974,0,0,0-.694-.4c-.6-.058-1.211-.023-1.817-.021-.507,0-.76-.224-.75-.752.015-.8.016-1.6,0-2.4-.013-.614.294-.833.868-.817.551.017,1.1-.017,1.653.009a.7.7,0,0,0,.821-.6A15.475,15.475,0,0,1-43.484,4251.962Zm12.979,11.786.142-.239,1.27-1.2c-.515-.448-1.03-.9-1.548-1.347a.843.843,0,0,1-.171-1.171,11.345,11.345,0,0,0,.811-1.973.919.919,0,0,1,1.068-.773c.673.031,1.349.007,2.035.007.024-.334.023-.526.053-.713.127-.784-.172-1.117-.983-1.013-.407.052-.827-.014-1.238.012-.542.035-.769-.231-.925-.725a12.088,12.088,0,0,0-.805-1.975.878.878,0,0,1,.188-1.236c.511-.446,1.006-.911,1.526-1.385-.31-.337-.469-.524-.644-.694s-.393-.355-.785-.7c-.223.327-.39.617-.6.87a2.68,2.68,0,0,1-.765.742,2.193,2.193,0,0,1-1.093.159c-.251-.021-.474-.318-.73-.356-1.8-.269-2.4-1.32-2.082-3.039a.644.644,0,0,0-.324-.531c-.963-.308-1.371.006-1.373.994,0,.386-.021.773.006,1.157.041.573-.219.817-.766.969a9.419,9.419,0,0,0-1.9.779.929.929,0,0,1-1.311-.2c-.43-.492-.878-.967-1.339-1.473l-1.357,1.308c.544.5,1.022.947,1.511,1.382a.9.9,0,0,1,.212,1.242,14.258,14.258,0,0,0-.832,2.054.8.8,0,0,1-.885.667c-.578-.021-1.157,0-1.735,0-.7,0-.492.532-.5.9s-.144.828.5.816c.551-.01,1.1.02,1.653,0a.862.862,0,0,1,.992.75,8.992,8.992,0,0,0,.774,1.9.981.981,0,0,1-.218,1.381c-.478.437-.917.918-1.412,1.419l1.21,1.146a3.53,3.53,0,0,0,.427-.4c.9-1.228,1.816-1.654,3.353-.75,1.5.881,1.645.692,1.6,2.512-.017.751.192,1.085.963.962.234-.037.473-.046.771-.073,0-.754.017-1.439-.006-2.124a.853.853,0,0,1,.717-.942,11.431,11.431,0,0,0,1.977-.8.912.912,0,0,1,1.3.218Q-31.14,4263-30.5,4263.748Z" transform="translate(71.421 -4245.288)" fill="#fff"/>
      <path id="Path_16528" data-name="Path 16528" d="M-134.414,4375.979a7.975,7.975,0,0,1,8,7.958,8.052,8.052,0,0,1-8,7.992,7.992,7.992,0,0,1-7.972-8.075A7.94,7.94,0,0,1-134.414,4375.979Zm6.809,7.917a6.839,6.839,0,0,0-6.878-6.789,6.906,6.906,0,0,0-6.78,6.833,6.835,6.835,0,0,0,6.947,6.8A6.776,6.776,0,0,0-127.6,4383.9Z" transform="translate(150.586 -4354.329)" fill="#fff"/>
      <path id="Path_16529" data-name="Path 16529" d="M37.366,4432.636a4.778,4.778,0,1,1,4.847-4.8A4.786,4.786,0,0,1,37.366,4432.636Zm.028-1.116a3.667,3.667,0,1,0-3.644-3.685A3.674,3.674,0,0,0,37.394,4431.521Z" transform="translate(4.59 -4393.627)" fill="#fff"/>
      <path id="Path_16530" data-name="Path 16530" d="M-1.025,4287.039a4.724,4.724,0,0,1-4.794,4.735,4.768,4.768,0,0,1-4.769-4.866,4.761,4.761,0,0,1,4.856-4.69A4.714,4.714,0,0,1-1.025,4287.039Zm-1.121,0a3.65,3.65,0,0,0-3.626-3.708,3.761,3.761,0,0,0-3.7,3.676,3.713,3.713,0,0,0,3.618,3.661A3.667,3.667,0,0,0-2.146,4287.036Z" transform="translate(40.617 -4276.101)" fill="#fff"/>
    </g>
  </g>
  <g id="pJ8rue" transform="translate(-202.543 -3703.118)">
    <g id="Group_12450" data-name="Group 12450" transform="translate(222.543 4032.802)">
      <path id="Path_16531" data-name="Path 16531" d="M225.915,4038.8a3.391,3.391,0,0,1,2.04-2.854,3.846,3.846,0,0,1,1.476-.313c4.564-.029,9.128-.026,13.693-.032,1.983,0,3.966,0,5.949-.009a.89.89,0,0,1,.936.542.845.845,0,0,1-.651,1.156,3.239,3.239,0,0,1-.5.023l-19.376.029a1.7,1.7,0,0,0-1.794,1.479h.42l18.545-.02h.465c.61,0,1.007.345,1,.863s-.4.86-1.012.861q-5.45.009-10.9.013l-9.173.008c-.349,0-.7-.017-1.046,0a1.729,1.729,0,0,0-1.725,1.846q0,5.184.01,10.369.01,8.541.02,17.083.005,4.886.009,9.771a1.778,1.778,0,0,0,1.971,1.94q10.386-.015,20.772-.023l6.713-.007a1.774,1.774,0,0,0,1.948-1.964q-.012-8.009-.023-16.019a1.575,1.575,0,0,1,.071-.521.848.848,0,0,1,.909-.522.834.834,0,0,1,.731.785c.019.442.011.886.012,1.329q.012,6.647.023,13.294c0,.119,0,.238,0,.354a1.636,1.636,0,0,0,1.622-1.4,7.363,7.363,0,0,0,.038-.994q0-5.218-.01-10.435a.9.9,0,0,1,.448-.865.857.857,0,0,1,1.262.632,2.011,2.011,0,0,1,.011.265q.006,5.467.01,10.934a3.466,3.466,0,0,1-3.167,3.633.357.357,0,0,0-.241.223,3.471,3.471,0,0,1-3.621,2.993q-13.792.018-27.585.031a3.461,3.461,0,0,1-3.613-3.623q-.007-5-.013-10-.015-13.576-.029-27.153a3.456,3.456,0,0,1,3.225-3.67C225.81,4038.827,225.853,4038.815,225.915,4038.8Z" transform="translate(-222.543 -4035.408)" fill="#fff"/>
      <path id="Path_16532" data-name="Path 16532" d="M621.829,4053.058c0-2.093,0-4.187-.007-6.279a1.467,1.467,0,0,0-.153-.52,7.214,7.214,0,0,0-1.55-2.185,2.966,2.966,0,0,1-.595-2.84,2.567,2.567,0,0,0,.008-1.1,3.175,3.175,0,0,1,1.095-3.4,2.214,2.214,0,0,0,.676-.92,3.093,3.093,0,0,1,2.842-2.1,2.489,2.489,0,0,0,1.175-.386,3.086,3.086,0,0,1,3.5.033,2.144,2.144,0,0,0,1.052.349,3.178,3.178,0,0,1,2.944,2.162,2.092,2.092,0,0,0,.6.8,3.307,3.307,0,0,1,1.135,3.456,2.339,2.339,0,0,0,0,1.069,3.178,3.178,0,0,1-1.108,3.423,1.937,1.937,0,0,0-.666.926,1.244,1.244,0,0,1-.211.448,1.714,1.714,0,0,0-.316,1.243c.007,3.987-.015,7.974.019,11.961a.936.936,0,0,1-1.471.887c-1.138-.662-2.323-1.241-3.482-1.866a.506.506,0,0,0-.548,0c-1.188.641-2.384,1.269-3.58,1.9a.865.865,0,0,1-1.358-.823Q621.826,4056.18,621.829,4053.058Zm8.683-5.455c-.944.086-1.031-.034-1.8.446a2.946,2.946,0,0,1-3.328-.007,3.7,3.7,0,0,0-1.81-.456v10.367c.124-.057.224-.1.318-.147.676-.356,1.345-.724,2.028-1.066a.437.437,0,0,0,.268-.468q-.018-.864,0-1.728a.858.858,0,1,1,1.714,0c.009.565.017,1.13,0,1.694a.474.474,0,0,0,.3.516c.674.335,1.332.7,2,1.052.095.05.2.088.322.144Zm2.433-8.266a1.482,1.482,0,0,0-.6-1.295,3.261,3.261,0,0,1-1.145-1.553,1.46,1.46,0,0,0-1.48-1.063,3.218,3.218,0,0,1-1.746-.559,1.459,1.459,0,0,0-1.847-.007,3.214,3.214,0,0,1-1.743.565,1.465,1.465,0,0,0-1.5,1.085,3.279,3.279,0,0,1-1.077,1.486,1.457,1.457,0,0,0-.576,1.755,3.333,3.333,0,0,1-.006,1.867,1.441,1.441,0,0,0,.549,1.706,3.344,3.344,0,0,1,1.129,1.566,1.447,1.447,0,0,0,1.434,1.026,3.092,3.092,0,0,1,1.749.549,1.511,1.511,0,0,0,1.906.006,3.064,3.064,0,0,1,1.681-.552,1.477,1.477,0,0,0,1.541-1.115,3.221,3.221,0,0,1,1.066-1.453,1.468,1.468,0,0,0,.576-1.757,3.256,3.256,0,0,1,0-1.834C632.9,4039.592,632.927,4039.417,632.945,4039.336Z" transform="translate(-593.028 -4032.802)" fill="#fff"/>
      <path id="Path_16533" data-name="Path 16533" d="M284.8,4601.426H308.21c.008-.156.02-.283.019-.409,0-1.03-.01-2.06,0-3.09a.849.849,0,0,1,1.171-.848.794.794,0,0,1,.539.767c.011,1.484.019,2.968.007,4.452a.832.832,0,0,1-.917.841c-1.1.008-2.193.005-3.289.007l-21.494.034c-.891,0-1.161-.276-1.162-1.175,0-1.34-.009-2.68-.006-4.02a.867.867,0,0,1,.9-.936.85.85,0,0,1,.824.9c.006,1.008,0,2.016,0,3.023Z" transform="translate(-279.052 -4559.508)" fill="#fff"/>
      <path id="Path_16534" data-name="Path 16534" d="M339.77,4519.768h-3.089a.874.874,0,0,1-1.006-.987q-.006-3.106-.007-6.212c0-.711.3-1.02,1-1.022q3.139-.01,6.278-.007a.848.848,0,0,1,.941.922q.016,3.206.008,6.412a.838.838,0,0,1-.907.885c-1.074.006-2.148,0-3.222,0Zm2.38-1.747v-4.742h-4.738v4.742Z" transform="translate(-328.148 -4479.717)" fill="#fff"/>
      <path id="Path_16535" data-name="Path 16535" d="M335.5,4360.649c0-1.03,0-2.06,0-3.089a.851.851,0,0,1,.973-.978q3.139-.015,6.278-.017a.863.863,0,0,1,.968.962q.009,3.172.006,6.344a.837.837,0,0,1-.909.914q-3.172.012-6.344.013c-.654,0-.964-.326-.967-.993,0-.532,0-1.063,0-1.595s0-1.041,0-1.561Zm1.741-2.348v4.744h4.742V4358.3Z" transform="translate(-327.988 -4335.045)" fill="#fff"/>
      <path id="Path_16536" data-name="Path 16536" d="M339.307,4209.875c-1.03,0-2.059,0-3.089,0-.723,0-1.02-.31-1.022-1.04q-.008-3.056-.015-6.111c0-.772.293-1.069,1.058-1.07q3.056-.007,6.111-.012c.768,0,1.054.294,1.056,1.07q.006,3.039.01,6.078c0,.781-.284,1.069-1.053,1.07h-3.056Zm2.366-6.479h-4.755c-.006.14-.015.249-.015.358,0,1.351.011,2.7,0,4.052,0,.275.073.358.351.355,1.395-.015,2.79-.01,4.185-.013.074,0,.148-.012.235-.019Z" transform="translate(-327.694 -4190.418)" fill="#fff"/>
      <path id="Path_16537" data-name="Path 16537" d="M284.27,4148.855c0,.9,0,1.75,0,2.6,0,.31.006.62,0,.93a.866.866,0,0,1-.856.879.853.853,0,0,1-.86-.87q-.016-2.194,0-4.387a.84.84,0,0,1,.919-.875c.753-.011,1.507-.007,2.26-.008l16.717-.019c.619,0,1.005.328,1.009.852a.847.847,0,0,1-.921.87q-2.758.009-5.517.009l-12.3.016Z" transform="translate(-278.554 -4139.511)" fill="#fff"/>
      <path id="Path_16538" data-name="Path 16538" d="M490.515,4273.733c1.329,0,2.658-.006,3.987,0a.839.839,0,0,1,.874.849.852.852,0,0,1-.832.861c-.088.007-.177.006-.266.007l-6.214.011c-.476,0-.953,0-1.429,0a.87.87,0,0,1-.972-.859.859.859,0,0,1,.963-.863c1.3,0,2.592,0,3.888,0Z" transform="translate(-468.174 -4257.716)" fill="#fff"/>
      <path id="Path_16539" data-name="Path 16539" d="M490.262,4228.442c-1.3,0-2.592.017-3.888-.014a1.324,1.324,0,0,1-.762-.308.732.732,0,0,1-.136-.892.79.79,0,0,1,.755-.5c.7-.008,1.4-.006,2.093-.007q2.941,0,5.882-.007a.857.857,0,0,1,.9.687.837.837,0,0,1-.47.935,1.484,1.484,0,0,1-.549.092c-1.274.007-2.547,0-3.821,0Z" transform="translate(-467.916 -4213.821)" fill="#fff"/>
      <path id="Path_16540" data-name="Path 16540" d="M490.62,4428.68c1.306,0,2.613,0,3.919,0a.856.856,0,1,1,.084,1.709c-.642.02-1.285.01-1.927.012q-2.991.006-5.982.012a.905.905,0,0,1-.807-.374.837.837,0,0,1,.663-1.329c1.35-.023,2.7-.007,4.051-.007Z" transform="translate(-468.252 -4402.364)" fill="#fff"/>
      <path id="Path_16541" data-name="Path 16541" d="M490.582,4381.608c1.271,0,2.541,0,3.812,0a1.588,1.588,0,0,1,.551.079.833.833,0,0,1,.494.95.887.887,0,0,1-.863.687c-1.083.01-2.166.011-3.249.013-1.5,0-3.007.007-4.51,0a1.593,1.593,0,0,1-.611-.106.825.825,0,0,1-.446-.943.836.836,0,0,1,.84-.665c1.327-.006,2.655,0,3.982,0Z" transform="translate(-468.243 -4358.422)" fill="#fff"/>
      <path id="Path_16542" data-name="Path 16542" d="M490.8,4583.644c1.329,0,2.658,0,3.987,0a.85.85,0,0,1,.505,1.562,1.121,1.121,0,0,1-.532.147q-3.937.021-7.874.018a.862.862,0,1,1,.027-1.716q1.944,0,3.887,0Z" transform="translate(-468.444 -4547.027)" fill="#fff"/>
      <path id="Path_16543" data-name="Path 16543" d="M490.755,4536.565c1.3,0,2.591,0,3.887,0,.6,0,.98.33.987.838.007.528-.368.864-.983.879-.055,0-.111,0-.166,0l-5.648.006c-.664,0-1.329.019-1.993.006a.86.86,0,0,1-.866-1.169.848.848,0,0,1,.862-.548c1.307,0,2.614,0,3.92,0Z" transform="translate(-468.406 -4503.079)" fill="#fff"/>
      <path id="Path_16544" data-name="Path 16544" d="M722.765,4286.336c0,.21.011.421,0,.63a.851.851,0,0,1-.814.812.83.83,0,0,1-.88-.735,9.137,9.137,0,0,1,0-1.457.8.8,0,0,1,.881-.722.829.829,0,0,1,.808.808C722.775,4285.893,722.765,4286.115,722.765,4286.336Z" transform="translate(-687.906 -4268.108)" fill="#fff"/>
      <path id="Path_16545" data-name="Path 16545" d="M671.224,4092.864a4.479,4.479,0,1,1,4.574-4.319A4.489,4.489,0,0,1,671.224,4092.864Zm.089-7.231a2.756,2.756,0,1,0,2.762,2.763A2.756,2.756,0,0,0,671.313,4085.632Z" transform="translate(-637.304 -4080.512)" fill="#fff"/>
      <path id="Path_16546" data-name="Path 16546" d="M372.3,4550c.155-.194.3-.387.458-.571a.858.858,0,1,1,1.352,1.058q-.558.743-1.143,1.467a.863.863,0,0,1-1.419-.042c-.159-.213-.3-.436-.452-.656a.863.863,0,0,1,1.067-1.311Z" transform="translate(-361.038 -4514.771)" fill="#fff"/>
      <path id="Path_16547" data-name="Path 16547" d="M372.122,4395.063c.186-.223.351-.444.541-.642a.833.833,0,0,1,1.163-.06.843.843,0,0,1,.125,1.16c-.38.5-.763,1-1.158,1.489a.851.851,0,0,1-1.409-.024c-.141-.184-.268-.379-.4-.569a.909.909,0,0,1-.064-1.185C371.19,4394.9,371.582,4394.835,372.122,4395.063Z" transform="translate(-360.879 -4370.134)" fill="#fff"/>
      <path id="Path_16548" data-name="Path 16548" d="M371.944,4240.108c.167-.21.313-.405.471-.59a.855.855,0,0,1,1.191-.146.837.837,0,0,1,.171,1.184c-.388.525-.789,1.043-1.208,1.544a.843.843,0,0,1-1.349-.045c-.175-.228-.334-.47-.493-.709a.881.881,0,0,1,.015-1.079.864.864,0,0,1,1.055-.218Z" transform="translate(-360.711 -4225.475)" fill="#fff"/>
    </g>
  </g>
</svg>
