<svg xmlns="http://www.w3.org/2000/svg" width="44.132" height="43.677" viewBox="0 0 44.132 43.677">
  <g id="FEhKg2.tif" transform="translate(-3162.834 -7490.392)">
    <g id="Group_12733" data-name="Group 12733" transform="translate(3162.834 7490.392)">
      <path id="Path_17383" data-name="Path 17383" d="M3498.338,7668.874v-5.016h2.15v-.584c0-1.3,0-2.6,0-3.9a.783.783,0,0,0-.094-.449c-1.484-1.891-2.09-4.187-2.9-6.382a9.691,9.691,0,0,1-.524-2.258,1.955,1.955,0,0,1,1.328-2.056,1.993,1.993,0,0,1,2.339.7c.428.594.787,1.239,1.272,1.865v-1.212c0-1.008,0-1.008-.94-1.389-.465-.188-.937-.364-1.394-.57a1.978,1.978,0,0,1,1.236-3.745c.109.023.22.039.29.051a18.406,18.406,0,0,1-.552-1.8,2.069,2.069,0,0,1,1.78-2.612,2,2,0,0,1,2.036,1.166c.6,1.18,1.231,2.354,1.728,3.58a12.86,12.86,0,0,1,.518,2.314q.472,2.355.924,4.714a4.164,4.164,0,0,1,.069.774c0,2.9.029,5.811-.036,8.713a19.777,19.777,0,0,1-.457,2.813c-.012.07-.024.141-.042.244h1.965v5.038Zm3.563-5.028c1.206,0,2.34,0,3.474-.008.085,0,.232-.092.245-.162a18.969,18.969,0,0,0,.535-3.062c.073-2.859.027-5.722.023-8.583a2.969,2.969,0,0,0-.06-.557q-.4-2.061-.808-4.12a14.922,14.922,0,0,0-.547-2.578c-.479-1.216-1.134-2.362-1.727-3.532a.544.544,0,0,0-.7-.273.566.566,0,0,0-.411.636,2.764,2.764,0,0,0,.166.842c.341.778.73,1.535,1.084,2.308a1.562,1.562,0,0,1,.153.614c.012,1.82.007,3.642.005,5.462a.825.825,0,0,1-.034.341c-.424.877-.86,1.747-1.324,2.683-.121-.188-.208-.314-.285-.445q-1.033-1.726-2.062-3.453c-.187-.314-.436-.517-.815-.39a.68.68,0,0,0-.449.832,3.8,3.8,0,0,0,.145.763c.539,1.507,1.083,3.011,1.651,4.507a4.107,4.107,0,0,0,.623,1.221,4.648,4.648,0,0,1,1.125,3.793,7.787,7.787,0,0,0-.006,1Zm-2.1,3.539h7.766v-2.065H3499.8Zm2.1-20.355c0-.406.008-.751-.007-1.095a.3.3,0,0,0-.134-.23c-.445-.158-.893-.316-1.35-.432a.476.476,0,0,0-.6.371.5.5,0,0,0,.287.65C3500.676,7646.546,3501.263,7646.771,3501.9,7647.029Z" transform="translate(-3464.895 -7625.197)" fill="#939393"/>
      <path id="Path_17384" data-name="Path 17384" d="M3162.834,7663.854h1.977c-.158-.822-.315-1.61-.456-2.4a4.907,4.907,0,0,1-.088-.858c0-2.153.053-4.309-.006-6.461a21.846,21.846,0,0,1,.579-5.449c.3-1.336.548-2.687.833-4.026a3.748,3.748,0,0,1,.285-.854q.742-1.54,1.521-3.061a2.016,2.016,0,0,1,2.091-1.21,1.931,1.931,0,0,1,1.742,1.608,4.391,4.391,0,0,1-.1,1.493,7.926,7.926,0,0,1-.452,1.222,6.453,6.453,0,0,1,1.139.012,1.976,1.976,0,0,1,.408,3.761c-.643.283-1.3.551-1.957.787a.519.519,0,0,0-.395.6,14.6,14.6,0,0,0,.109,1.8q.455-.763.91-1.526a2.191,2.191,0,0,1,1.749-1.174,1.988,1.988,0,0,1,2.163,1.822,7.017,7.017,0,0,1-.356,2.2c-.525,1.57-1.113,3.125-1.756,4.651a19.686,19.686,0,0,1-1.152,1.922,1.748,1.748,0,0,0-.236.794c-.023,1.43-.011,2.858-.011,4.327h2.151v5.049h-10.688Zm7.06-9.97c-.433-.872-.831-1.652-1.206-2.444a1.633,1.633,0,0,1-.155-.656c-.015-1.156.061-2.317-.024-3.467a6.8,6.8,0,0,1,.99-4.241,4.491,4.491,0,0,0,.41-1.261.613.613,0,0,0-.4-.835c-.415-.127-.634.137-.8.477-.464.944-.944,1.881-1.395,2.832a4.645,4.645,0,0,0-.342,1.015c-.259,1.214-.467,2.438-.74,3.647a21.163,21.163,0,0,0-.566,5.318c.061,2.036-.046,4.077.037,6.111a31.3,31.3,0,0,0,.506,3.443h3.75v-.5c0-1.416-.013-2.832.012-4.248a1.816,1.816,0,0,1,.255-.835,21.337,21.337,0,0,0,1.3-2.135c.625-1.455,1.139-2.959,1.673-4.451a7.563,7.563,0,0,0,.3-1.3.641.641,0,0,0-.425-.764.626.626,0,0,0-.8.323c-.115.183-.223.37-.333.556Zm-5.6,11.439v2.077h7.749v-2.077Zm5.667-18.284,1.707-.689a.557.557,0,1,0-.37-1.048,11.983,11.983,0,0,0-1.139.391.387.387,0,0,0-.189.279C3169.945,7646.3,3169.96,7646.632,3169.96,7647.04Z" transform="translate(-3162.834 -7625.208)" fill="#939393"/>
      <path id="Path_17385" data-name="Path 17385" d="M3287.353,7509.142l-.883,1.09-3.071-3.088c.282-.286.611-.6.913-.939a.472.472,0,0,0,.111-.39c-.347-.834-.721-1.656-1.119-2.552h-1.551v-4.3h1.549c.4-.895.773-1.717,1.122-2.55a.46.46,0,0,0-.108-.39c-.3-.324-.638-.619-.928-.895l3.067-3.087c.273.287.579.63.913.941a.445.445,0,0,0,.391.082c.816-.345,1.622-.714,2.5-1.107v-1.561h4.292c0,.447.012.891,0,1.332a.373.373,0,0,0,.3.43q1.085.4,2.139.888a.365.365,0,0,0,.515-.089c.284-.324.586-.633.845-.91l3.1,3.133c-.26.228-.589.524-.927.81a.366.366,0,0,0-.1.517c.321.705.614,1.425.884,2.151.085.23.181.316.422.306.429-.02.859-.006,1.325-.006v4.29h-1.527c-.41.916-.8,1.761-1.161,2.616a.393.393,0,0,0,.113.321c.322.326.662.634.97.923l-3.086,3.107-.784-1.041-.148.1a2.079,2.079,0,0,1-.763,1.525c-.057.043-.042.211-.027.314a1.757,1.757,0,0,1-1.829,2.166q-2.39.026-4.781,0a1.764,1.764,0,0,1-1.824-2.208.409.409,0,0,0-.026-.271,6.624,6.624,0,0,1-.554-.7A5.122,5.122,0,0,1,3287.353,7509.142Zm1.481-1.584a1.474,1.474,0,0,0-.582-1.606,5.955,5.955,0,0,1-2.2-4.178,6.379,6.379,0,0,1,7.434-6.994,6.037,6.037,0,0,1,5.086,4.639,6.161,6.161,0,0,1-2.08,6.625c-.374.326-.614.619-.515,1.114a.865.865,0,0,0,.171.467.486.486,0,0,0,.689-.025,7.336,7.336,0,0,1,.669-.468l.888.985,1.067-1.006-1.026-.96a8.605,8.605,0,0,0,1.755-4.112c.012-.087.214-.2.334-.21.365-.027.733-.01,1.093-.01V7500.4c-.375,0-.718-.018-1.06,0-.277.018-.36-.1-.407-.36a6.632,6.632,0,0,0-.361-1.467c-.373-.868-.826-1.7-1.313-2.687.267-.217.632-.513.972-.786l-1.026-1.069c-.311.351-.614.694-.884,1a.934.934,0,0,1-.181-.054,8.645,8.645,0,0,0-4-1.7c-.1-.014-.227-.2-.236-.312-.03-.37-.012-.743-.012-1.124h-1.407c0,.384-.013.73,0,1.075.013.253-.079.344-.329.393a7.746,7.746,0,0,0-1.578.406c-.837.361-1.636.813-2.606,1.3l-.778-.935-1.023,1.017.965.853a20.169,20.169,0,0,0-1.117,2.053c-.279.688-.4,1.439-.616,2.153a.437.437,0,0,1-.324.227c-.366.029-.736.012-1.113.012v1.416c.353,0,.681.018,1.006-.006.3-.021.392.08.476.386a23.966,23.966,0,0,0,.858,2.617,10.266,10.266,0,0,0,.879,1.444l-.974.871,1,1.08.938-1.012C3287.865,7507.4,3288.2,7508.084,3288.834,7507.558Zm5.727-.031a7.582,7.582,0,0,0-.007-.96,1.306,1.306,0,0,1,.7-1.383,4.971,4.971,0,1,0-6.727-7.169,4.972,4.972,0,0,0,1.4,7.417.636.636,0,0,1,.357.651c-.027.472-.007.946-.007,1.434h1.436c0-1.415.006-2.8-.012-4.184,0-.11-.148-.254-.262-.32a2.142,2.142,0,1,1,3.033-2.471,2.086,2.086,0,0,1-1.07,2.45.479.479,0,0,0-.281.508c.007,1.142,0,2.283,0,3.425v.6Zm-2.1,1.469q-1.527,0-3.054,0c-.261,0-.524.021-.519.36s.274.348.531.348q3.011,0,6.022,0c.26,0,.521-.019.517-.361s-.276-.347-.53-.347Q3293.941,7509,3292.457,7509Zm-.047,2.863h2.323c.262,0,.519-.037.516-.371,0-.314-.25-.342-.494-.342q-2.323,0-4.646,0c-.261,0-.529.029-.518.362s.278.354.54.353C3290.89,7511.856,3291.65,7511.858,3292.41,7511.858Zm-.006-11.448a.7.7,0,0,0,.035,1.4.7.7,0,0,0-.035-1.4Z" transform="translate(-3270.345 -7490.393)" fill="#939393"/>
      <path id="Path_17386" data-name="Path 17386" d="M3387.12,7835.282h-1.356V7833.9h1.356Z" transform="translate(-3364.376 -7800.948)" fill="#939393"/>
      <path id="Path_17387" data-name="Path 17387" d="M3385.874,7744.167h1.343v1.37h-1.343Z" transform="translate(-3364.476 -7719.82)" fill="#939393"/>
      <path id="Path_17388" data-name="Path 17388" d="M3387.188,7774.216v1.355h-1.358v-1.355Z" transform="translate(-3364.436 -7746.986)" fill="#939393"/>
      <path id="Path_17389" data-name="Path 17389" d="M3387.142,7805.4H3385.8v-1.375h1.345Z" transform="translate(-3364.406 -7773.938)" fill="#939393"/>
    </g>
  </g>
</svg>
