<svg xmlns="http://www.w3.org/2000/svg" width="47.651" height="46.476" viewBox="0 0 47.651 46.476">
  <g id="EoGV8l" transform="translate(-2583.854 -7051.202)">
    <g id="Group_12735" data-name="Group 12735" transform="translate(2583.854 7051.202)">
      <path id="Path_17395" data-name="Path 17395" d="M2670.748,7056.511c0-.917.012-1.833,0-2.75a.981.981,0,0,1,.784-1.065q2.488-.722,4.978-1.441a.967.967,0,0,1,1.231.608c.653,1.238,1.358,2.449,2.014,3.687a1.024,1.024,0,0,0,.88.544,1.937,1.937,0,0,0,2.238-1.187c.55-.972,1.257-1.854,1.859-2.8a1.016,1.016,0,0,1,1.341-.525q2.4.87,4.8,1.726a1.041,1.041,0,0,1,.713,1.321c-.2,1.334-.34,2.678-.541,4.013a1.064,1.064,0,0,0,.416,1.027,1.9,1.9,0,0,0,2.437.369c1.084-.5,2.246-.819,3.364-1.244a.865.865,0,0,1,1.144.3q1.537,2.227,3.046,4.474a.9.9,0,0,1-.187,1.234c-.99,1.026-1.983,2.053-2.927,3.121a1.4,1.4,0,0,0-.212.919c.058,1.1.724,1.577,1.772,1.785,1.145.229,2.253.631,3.383.938a.927.927,0,0,1,.806.963q-.07,2.706-.178,5.41c-.02.509-.342.741-.837.828-1.379.241-2.751.528-4.131.761a1.118,1.118,0,0,0-.908.746,1.855,1.855,0,0,0,.417,2.358c.794.855,1.447,1.842,2.19,2.747a.985.985,0,0,1,.071,1.376q-1.563,2.021-3.128,4.04a1.041,1.041,0,0,1-1.478.261c-1.227-.618-2.486-1.172-3.719-1.779a.994.994,0,0,0-1.035.065,1.908,1.908,0,0,0-1.122,2.2c.145,1.159.095,2.34.16,3.51a.947.947,0,0,1-.711,1.1q-2.56.749-5.125,1.48a.9.9,0,0,1-1.114-.562c-.676-1.256-1.39-2.491-2.05-3.754a.991.991,0,0,0-.892-.532,1.9,1.9,0,0,0-2.2,1.133c-.564,1.021-1.3,1.944-1.943,2.926a.951.951,0,0,1-1.231.463q-2.44-.872-4.877-1.75a1,1,0,0,1-.688-1.258c.212-1.461.34-2.935.569-4.394a4.141,4.141,0,0,1,.555-1.467c.819-1.35,1.7-2.664,2.551-3.991.6-.929.75-.964,1.709-.413a11.147,11.147,0,1,0,.662-19.576c-1.58.791-1.579.79-2.5-.71-.666-1.085-1.307-2.187-2.012-3.246a2.9,2.9,0,0,1-.52-2.008,19.2,19.2,0,0,0,.014-1.984Zm3.812,6.727a12.882,12.882,0,0,1,16.16,3.646,12.662,12.662,0,0,1,.2,14.863,12.322,12.322,0,0,1-6.278,4.653,12.747,12.747,0,0,1-10.273-.931c-.875,1.357-1.719,2.659-2.55,3.97a1.446,1.446,0,0,0-.2.569c-.169,1.263-.344,2.525-.459,3.793a.828.828,0,0,0,.374.672c1.057.435,2.135.831,3.228,1.165a.927.927,0,0,0,.778-.323,23.393,23.393,0,0,0,1.841-2.718,2.118,2.118,0,0,1,2.565-1.321,3.3,3.3,0,0,0,1.143.01,1.192,1.192,0,0,1,1.323.78c.609,1.176,1.285,2.316,1.9,3.489.212.405.458.563.9.427q1.57-.475,3.15-.92a.6.6,0,0,0,.492-.712c-.071-1.247-.041-2.5-.165-3.742a1.714,1.714,0,0,1,1.083-2,4.17,4.17,0,0,0,1.123-.786,1.234,1.234,0,0,1,1.593-.154c1.358.68,2.747,1.3,4.208,1.985.787-1.032,1.527-2.033,2.3-3.006.3-.379.229-.639-.054-.985-.807-.985-1.54-2.034-2.378-2.991a1.576,1.576,0,0,1-.269-2,7.968,7.968,0,0,0,.544-1.585,1.052,1.052,0,0,1,.933-.86c1.381-.23,2.753-.519,4.133-.759.412-.071.63-.23.636-.677.015-1.1.045-2.19.1-3.283.022-.447-.175-.62-.579-.729-1.375-.373-2.739-.791-4.115-1.164a1.106,1.106,0,0,1-.891-.911,16.892,16.892,0,0,0-.616-2.046,1.061,1.061,0,0,1,.262-1.241c.978-1,1.921-2.042,2.9-3.048.272-.28.355-.513.115-.855-.643-.917-1.277-1.84-1.89-2.777-.25-.383-.515-.373-.9-.225-1.26.48-2.544.9-3.8,1.392a1.313,1.313,0,0,1-1.591-.267,9.391,9.391,0,0,0-1.518-1.153,1.111,1.111,0,0,1-.557-1.219c.189-1.362.313-2.734.53-4.092a.644.644,0,0,0-.5-.847q-1.513-.527-3.016-1.084a.691.691,0,0,0-.944.343c-.7,1.091-1.479,2.138-2.162,3.242a1.414,1.414,0,0,1-1.552.8,10.233,10.233,0,0,0-1.907-.034,1.06,1.06,0,0,1-1.1-.634c-.659-1.236-1.365-2.447-2.014-3.688a.625.625,0,0,0-.846-.383c-1.073.321-2.159.6-3.215.966a.951.951,0,0,0-.5.692c-.092,1.4-.121,2.8-.155,4.2a1.271,1.271,0,0,0,.128.653C2672.981,7060.69,2673.776,7061.964,2674.56,7063.237Z" transform="translate(-2656.435 -7051.202)" fill="#939393"/>
      <path id="Path_17396" data-name="Path 17396" d="M2587.722,7260.886a3.688,3.688,0,0,1,3.748,3.7,3.748,3.748,0,1,1-3.748-3.7Zm-.014,5.839a2.171,2.171,0,1,0-2.221-2.15A2.2,2.2,0,0,0,2587.707,7266.726Z" transform="translate(-2583.957 -7228.82)" fill="#939393"/>
      <path id="Path_17397" data-name="Path 17397" d="M2717.966,7184.543a3.674,3.674,0,1,1,3.752-3.622A3.722,3.722,0,0,1,2717.966,7184.543Zm.025-1.509a2.166,2.166,0,1,0-2.261-2.189A2.2,2.2,0,0,0,2717.991,7183.034Z" transform="translate(-2694.285 -7157.929)" fill="#939393"/>
      <path id="Path_17398" data-name="Path 17398" d="M2587.693,7099.759a3.693,3.693,0,0,1-3.718-3.659,3.748,3.748,0,0,1,7.495-.013A3.688,3.688,0,0,1,2587.693,7099.759Zm2.266-3.644a2.237,2.237,0,1,0-2.217,2.158A2.2,2.2,0,0,0,2589.958,7096.115Z" transform="translate(-2583.957 -7086.107)" fill="#939393"/>
      <path id="Path_17399" data-name="Path 17399" d="M2587.626,7177.182a3.676,3.676,0,1,1-3.772,3.688A3.713,3.713,0,0,1,2587.626,7177.182Zm-.042,5.837a2.165,2.165,0,1,0-2.218-2.216A2.186,2.186,0,0,0,2587.584,7183.02Z" transform="translate(-2583.854 -7157.917)" fill="#939393"/>
      <path id="Path_17400" data-name="Path 17400" d="M2651.438,7228.732a3.681,3.681,0,0,1-3.708-3.663,3.749,3.749,0,1,1,3.708,3.663Zm2.276-3.679a2.224,2.224,0,0,0-2.291-2.165,2.178,2.178,0,1,0,2.291,2.165Z" transform="translate(-2637.962 -7195.353)" fill="#939393"/>
      <path id="Path_17401" data-name="Path 17401" d="M2647.737,7140.424a3.749,3.749,0,0,1,7.5.1,3.748,3.748,0,0,1-7.5-.1Zm3.771-2.132a2.178,2.178,0,1,0-.058,4.355,2.179,2.179,0,1,0,.058-4.355Z" transform="translate(-2637.967 -7123.713)" fill="#939393"/>
      <path id="Path_17402" data-name="Path 17402" d="M2640.8,7196.257c1.6,0,3.208,0,4.812,0,.53,0,1.019.09,1.033.734.015.7-.5.782-1.057.781q-4.774-.009-9.547,0c-.534,0-1.024-.1-1.038-.73-.014-.684.5-.788,1.062-.785C2637.644,7196.263,2639.222,7196.257,2640.8,7196.257Z" transform="translate(-2627.181 -7174.073)" fill="#939393"/>
      <path id="Path_17403" data-name="Path 17403" d="M2702.151,7230.084c-.56,0-1.119,0-1.679,0-.5-.006-.853-.236-.842-.77s.369-.739.873-.737c.865,0,1.731-.029,2.594.011a.956.956,0,0,0,.979-.538c.267-.461.576-.9.885-1.334a.7.7,0,0,1,1.049-.264.726.726,0,0,1,.175,1.126,17.843,17.843,0,0,1-1.292,1.884,2.135,2.135,0,0,1-1.143.6A8.251,8.251,0,0,1,2702.151,7230.084Z" transform="translate(-2681.925 -7199.53)" fill="#939393"/>
      <path id="Path_17404" data-name="Path 17404" d="M2638.8,7276.313h-1.678c-.511,0-.861-.242-.856-.758s.365-.75.871-.75c.89,0,1.782.036,2.668-.023a1.392,1.392,0,0,0,.847-.447,11.371,11.371,0,0,0,.9-1.317c.275-.414.644-.618,1.1-.334a.727.727,0,0,1,.175,1.127,18.2,18.2,0,0,1-1.328,1.95,1.962,1.962,0,0,1-1.1.532A9.571,9.571,0,0,1,2638.8,7276.313Z" transform="translate(-2628.251 -7238.701)" fill="#939393"/>
      <path id="Path_17405" data-name="Path 17405" d="M2702.1,7150.364c1.889-.5,2.977.458,3.755,2.03.26.526.895,1.063.142,1.569s-1.134-.2-1.379-.73a2.191,2.191,0,0,0-2.6-1.372,9.292,9.292,0,0,1-1.6.008c-.506-.013-.841-.265-.818-.794.021-.485.346-.708.822-.71C2700.984,7150.362,2701.543,7150.364,2702.1,7150.364Z" transform="translate(-2681.901 -7135.086)" fill="#939393"/>
      <path id="Path_17406" data-name="Path 17406" d="M2638.806,7110.081c1.858-.5,2.938.436,3.7,1.983.122.249.4.467.418.709a1.142,1.142,0,0,1-.286.9.958.958,0,0,1-.913-.146c-.416-.433-.67-1.018-1.063-1.478a1.374,1.374,0,0,0-.844-.457c-.859-.06-1.726-.028-2.589-.02-.522.005-.946-.165-.953-.737s.4-.764.932-.755S2638.273,7110.081,2638.806,7110.081Z" transform="translate(-2628.258 -7100.961)" fill="#939393"/>
    </g>
  </g>
</svg>
