<svg xmlns="http://www.w3.org/2000/svg" width="48.473" height="36.709" viewBox="0 0 48.473 36.709">
  <g id="Group_12732" data-name="Group 12732" transform="translate(-181.582 -7658.498)">
    <path id="Path_17350" data-name="Path 17350" d="M723.3,7892.382a1.024,1.024,0,0,1-1.636.348c-.094-.087-.276-.195-.14-.34.1-.108.274-.226.434-.012a.5.5,0,0,0,.419.184c.2,0,.375-.053.431-.275s-.086-.32-.245-.4c-.216-.111-.449-.191-.656-.315a.7.7,0,0,1-.319-.819.727.727,0,0,1,.625-.575.934.934,0,0,1,.857.291c.065.065.1.147-.005.209s-.2.188-.338.071a.487.487,0,0,0-.311-.125c-.167-.007-.323.026-.384.2a.314.314,0,0,0,.171.4,2.113,2.113,0,0,0,.348.166,1.248,1.248,0,0,1,.751.649Z" transform="translate(-493.245 -211.646)" fill="#939393"/>
    <path id="Path_17351" data-name="Path 17351" d="M188.416,7779.5q-3.325-2.139-6.653-4.274c-.228-.146-.175-.338-.176-.528q0-6.436,0-12.872,0-5.209,0-10.418c0-.171.012-.343.019-.515.188-.106.337.011.476.1,2.079,1.333,4.167,2.65,6.229,4.01a.625.625,0,0,1,.305.577c0,.158,0,.316,0,.474q0,4.758,0,9.515c0,4.42.022,8.841,0,13.261C188.62,7779.053,188.749,7779.354,188.416,7779.5Z" transform="translate(0 -84.37)" fill="#939393"/>
    <path id="Path_17352" data-name="Path 17352" d="M385.847,7658.569a12.4,12.4,0,0,1,1.711,1.052c1.655,1.059,3.294,2.142,4.948,3.2a.606.606,0,0,1,.317.588q-.014,8.01-.008,16.021a1.9,1.9,0,0,1-.933.58c-1.807.841-3.629,1.651-5.431,2.5a1.709,1.709,0,0,1-.363.133c-.159.034-.286.007-.338-.172a2.3,2.3,0,0,1-.042-.6q0-7.73,0-15.46c0-.172.018-.344.011-.516-.02-2.282-.007-4.563-.007-6.845A.688.688,0,0,1,385.847,7658.569Z" transform="translate(-186.487 -0.065)" fill="#939393"/>
    <path id="Path_17353" data-name="Path 17353" d="M199.6,7658.5q0,3.669-.006,7.341a.707.707,0,0,1-.32.277c-2.458,1.147-4.9,2.328-7.356,3.483-.844.4-1.681.812-2.529,1.2a.684.684,0,0,0-.447.7q.009,7.686,0,15.371c0,.33.079.467.417.317a.309.309,0,0,1,.252-.008.426.426,0,0,1-.069.585.931.931,0,0,0-.253.7c0,1.839,0,3.677,0,5.515,0,.469.008.405.421.284.48-.141.836-.5,1.352-.6a3.013,3.013,0,0,0,1.066-.479c.338-.237.553-.2.843.126q-2.009.916-4.018,1.831c-.109.05-.212.1-.3-.028.137-.129.081-.3.081-.448q0-11.7.007-23.39a.661.661,0,0,0-.383-.632c-2.111-1.347-4.214-2.706-6.321-4.06a1.009,1.009,0,0,0-.2-.077c.035-.135.163-.143.262-.187l17.212-7.745C199.41,7658.546,199.493,7658.477,199.6,7658.5Z" transform="translate(-0.242)" fill="#939393"/>
    <path id="Path_17354" data-name="Path 17354" d="M270.384,7947.878c-.345-.172-.692-.376-.9.174-.03.079-.121.038-.191.019a.4.4,0,0,0-.552.257c-.061.179-.171.073-.274.077-.276.009-.6-.041-.682.345-.033.148-.117.125-.225.095a.4.4,0,0,0-.533.226c-.044.1-.076.187-.211.127-.1-.045-.231-.055-.233-.209,0-.1,0-.2,0-.3q0-2.878,0-5.757c0-.265-.009-.505.282-.652.2-.1.148-.321.152-.5.05-.217.248-.269.411-.342,2.655-1.194,5.287-2.436,7.939-3.636.4-.183.8-.4,1.212-.557a.7.7,0,0,1,.409-.1,1.24,1.24,0,0,1,.5.237c2.015,1.348,4.036,2.688,6.05,4.037.154.1.389.157.373.42q-5.286,2.377-10.573,4.754C272.351,7947.022,271.366,7947.447,270.384,7947.878Z" transform="translate(-77.649 -254.556)" fill="#939393"/>
    <path id="Path_17355" data-name="Path 17355" d="M403.885,7912.932a2.768,2.768,0,0,0-.6-.437q-2.692-1.811-5.39-3.613l.009-.047a23.535,23.535,0,0,0,2.2-.977c1.285-.585,2.561-1.191,3.841-1.787q0,3.3.006,6.592C403.957,7912.755,403.993,7912.864,403.885,7912.932Z" transform="translate(-197.626 -226.182)" fill="#939393"/>
    <path id="Path_17356" data-name="Path 17356" d="M548.022,7876.494c.244,0,.489.013.731,0s.328.06.309.315a2.109,2.109,0,1,1-.444-1.454c.07.1.25.2.04.347-.173.121-.272.1-.42-.075a1.609,1.609,0,0,0-1.894-.505,1.644,1.644,0,1,0,2.141,2.153c.087-.22.124-.378-.219-.353s-.717,0-1.076.007c-.142,0-.244,0-.245-.2s.081-.243.258-.236C547.476,7876.5,547.749,7876.494,548.022,7876.494Z" transform="translate(-331.899 -197.381)" fill="#939393"/>
    <path id="Path_17357" data-name="Path 17357" d="M690.709,7830.958a1.364,1.364,0,0,1,1.184.662c.056.091.214.224.041.319a.308.308,0,0,1-.393-.059,2.269,2.269,0,0,0-.169-.195.947.947,0,0,0-1.383.024.972.972,0,1,0,1.407,1.342c.05-.05.091-.111.136-.167a.314.314,0,0,1,.426-.056c.129.094-.019.233-.081.332a1.418,1.418,0,0,1-2.567-1.1A1.389,1.389,0,0,1,690.709,7830.958Z" transform="translate(-463.829 -157.56)" fill="#939393"/>
    <path id="Path_17358" data-name="Path 17358" d="M581.75,7832.576c0-.258,0-.516,0-.774,0-.158.006-.276.22-.277s.232.1.229.265c-.007.459-.006.918,0,1.377,0,.416.207.677.536.705.349.03.613-.214.641-.653.029-.458.011-.917.014-1.376,0-.155-.037-.323.221-.315s.21.18.21.332c0,.473.016.947,0,1.42a.99.99,0,0,1-1.065,1.041.969.969,0,0,1-1-1.054c-.008-.229,0-.459,0-.688Z" transform="translate(-365.591 -158.077)" fill="#939393"/>
    <path id="Path_17359" data-name="Path 17359" d="M665.014,7757.755c0-.2-.005-.4,0-.6.006-.173,0-.321-.237-.294-.176.021-.214-.08-.213-.235s.067-.214.207-.2c.234.027.251-.108.243-.288-.01-.214,0-.43,0-.644-.005-.15.022-.235.206-.236s.262.056.244.244c-.012.128.011.259,0,.386-.045.366.013.625.479.539.147-.027.242.027.247.205.005.205-.107.255-.27.226-.4-.07-.495.114-.459.477a7.264,7.264,0,0,1,0,.9c-.009.342.121.552.488.561.115,0,.232-.015.236.163s-.091.221-.231.251a.8.8,0,0,1-.93-.727c-.021-.242,0-.486,0-.729Z" transform="translate(-441.253 -88.402)" fill="#939393"/>
    <path id="Path_17360" data-name="Path 17360" d="M658.045,7807.638c0,.731,0,1.462,0,2.193,0,.171,0,.3-.238.294-.224-.007-.209-.134-.209-.281q0-2.236,0-4.473c0-.157,0-.265.219-.271.255-.008.229.14.229.3C658.043,7806.146,658.045,7806.892,658.045,7807.638Z" transform="translate(-434.887 -133.935)" fill="#939393"/>
    <path id="Path_17361" data-name="Path 17361" d="M729.2,7744.947c0,.731,0,1.463,0,2.2,0,.143.064.323-.205.325-.252,0-.227-.152-.227-.313q0-2.2,0-4.39c0-.167-.01-.312.236-.307s.2.158.2.294C729.2,7743.483,729.2,7744.215,729.2,7744.947Z" transform="translate(-499.905 -76.705)" fill="#939393"/>
    <path id="Path_17362" data-name="Path 17362" d="M592.8,7770.109c0,.37,0,.741,0,1.112,0,.142-.013.245-.2.25s-.239-.086-.237-.258c.005-.742,0-1.483,0-2.226,0-.144.018-.248.2-.254s.241.088.238.262C592.8,7769.367,592.8,7769.738,592.8,7770.109Z" transform="translate(-375.292 -100.712)" fill="#939393"/>
    <path id="Path_17363" data-name="Path 17363" d="M674.989,7832.935c0,.372,0,.743,0,1.114,0,.145-.012.242-.2.242s-.251-.051-.249-.242c.008-.757.007-1.514,0-2.271,0-.167.064-.224.227-.225s.227.058.223.225C674.983,7832.164,674.989,7832.549,674.989,7832.935Z" transform="translate(-450.366 -158.103)" fill="#939393"/>
    <path id="Path_17364" data-name="Path 17364" d="M652.193,7770.107c0,.373-.005.746,0,1.119,0,.158-.037.231-.214.231s-.224-.055-.222-.223q.01-1.141,0-2.281c0-.157.037-.237.214-.235s.226.062.222.228C652.187,7769.332,652.193,7769.72,652.193,7770.107Z" transform="translate(-429.553 -100.697)" fill="#939393"/>
    <path id="Path_17365" data-name="Path 17365" d="M622.861,7948.844c0-.523,0-1.016,0-1.508,0-.032.041-.063.063-.094.252.227.456-.118.7-.057.2.049.366.13.409.328a5.308,5.308,0,0,1,.035,1.2.089.089,0,0,1-.108.1c-.07-.01-.084-.07-.085-.126,0-.272,0-.544,0-.816,0-.227-.033-.443-.32-.472a.423.423,0,0,0-.492.423c-.033.283-.014.572-.02.858C623.045,7948.732,623.035,7948.789,622.861,7948.844Z" transform="translate(-403.152 -263.738)" fill="#939393"/>
    <path id="Path_17366" data-name="Path 17366" d="M642.607,7947.593c-.372-.145-.726-.258-1.021.108a.607.607,0,0,0-.01.8c.293.371.66.307,1.09,0a.568.568,0,0,1-.71.444.782.782,0,0,1-.719-.775.792.792,0,0,1,.564-.857C642.124,7947.226,642.437,7947.229,642.607,7947.593Z" transform="translate(-419.938 -263.816)" fill="#939393"/>
    <path id="Path_17367" data-name="Path 17367" d="M574.635,7936.378c0,.373,0,.746,0,1.119,0,.07.01.163-.082.172-.125.012-.119-.1-.119-.178q0-1.162,0-2.324c0-.068-.009-.159.085-.169.136-.016.114.1.115.175C574.636,7935.575,574.635,7935.977,574.635,7936.378Z" transform="translate(-358.907 -252.61)" fill="#939393"/>
    <path id="Path_17368" data-name="Path 17368" d="M582.721,7936.378c0,.373,0,.746,0,1.119,0,.07.01.163-.082.172-.125.012-.119-.1-.119-.178q0-1.162,0-2.324c0-.068-.009-.159.085-.169.136-.016.114.1.115.175C582.722,7935.575,582.721,7935.977,582.721,7936.378Z" transform="translate(-366.294 -252.61)" fill="#939393"/>
    <path id="Path_17369" data-name="Path 17369" d="M651.143,7756.293a.281.281,0,0,1,.276.3.274.274,0,0,1-.293.3.284.284,0,0,1-.308-.325C650.827,7756.375,650.957,7756.3,651.143,7756.293Z" transform="translate(-428.692 -89.346)" fill="#939393"/>
    <path id="Path_17370" data-name="Path 17370" d="M673.909,7819.116a.277.277,0,0,1,.306.292.272.272,0,0,1-.3.3.274.274,0,0,1-.3-.295A.27.27,0,0,1,673.909,7819.116Z" transform="translate(-449.523 -146.741)" fill="#939393"/>
    <path id="Path_17371" data-name="Path 17371" d="M591.838,7756.315a.3.3,0,0,1-.048.595.275.275,0,0,1-.271-.319C591.532,7756.4,591.648,7756.315,591.838,7756.315Z" transform="translate(-374.518 -89.366)" fill="#939393"/>
    <path id="Path_17372" data-name="Path 17372" d="M592.561,7947.926v1.565l-.085,0v-1.566Z" transform="translate(-375.392 -264.421)" fill="#939393"/>
    <path id="Path_17373" data-name="Path 17373" d="M610.518,7774.52a1.418,1.418,0,0,0-1.415-.853,1.906,1.906,0,0,0-.867.336c0-.361.015-.673,0-.983-.016-.264.041-.369.343-.374a1.306,1.306,0,0,0,1.29-1.207c.039-.975.018-1.951.024-2.928,0-.33-.36-.246-.375-.2-.134.435-.329.1-.469.042a1.464,1.464,0,0,0-1.709.433,1.424,1.424,0,0,0,1.759,2.146c.108-.051.188-.18.346-.142,0,.174.01.347,0,.518a1,1,0,0,1-.712.88.953.953,0,0,1-1.036-.353,1.722,1.722,0,0,1-.115-.181c-.112-.18-.22-.025-.325.007-.143.043-.115.144-.053.233a1.354,1.354,0,0,0,.314.4.645.645,0,0,1,.283.655c-.011,1.062-.007,2.125,0,3.186,0,.1-.068.249.089.294.106.03.305.053.319-.028.074-.421.256-.1.358-.052a1.419,1.419,0,0,0,1.633-.254A1.4,1.4,0,0,0,610.518,7774.52Zm-2.051-3.874a.983.983,0,0,1-.028-1.965.983.983,0,1,1,.028,1.965Zm.76,5.422a1.007,1.007,0,0,1-.991-.981.969.969,0,0,1,.977-.98,1.013,1.013,0,0,1,.983.989A1.028,1.028,0,0,1,609.228,7776.068Z" transform="translate(-388.7 -100.264)" fill="#939393"/>
    <path id="Path_17374" data-name="Path 17374" d="M548.959,7754.956a2.065,2.065,0,0,0-2.338-1.827c-.186,0-.373.009-.559,0s-.254.045-.253.239c.007,1.2.005,2.406,0,3.609,0,.154.032.241.211.234a11.751,11.751,0,0,0,1.287-.036A2.014,2.014,0,0,0,548.959,7754.956Zm-2.569,1.809c-.177-.049-.127-.164-.129-.265-.005-.445,0-.89,0-1.334s.015-.862-.006-1.292c-.012-.253.08-.3.316-.305,1.185-.017,1.936.585,1.945,1.584A1.7,1.7,0,0,1,546.39,7756.765Z" transform="translate(-332.758 -86.451)" fill="#939393"/>
    <path id="Path_17375" data-name="Path 17375" d="M682.971,7869.527c0-1.462,0-2.924,0-4.386,0-.17,0-.3-.232-.309-.288-.01-.2.191-.2.322-.008.716,0,1.432,0,2.188-.7-.355-1.031-.4-1.483-.23a1.428,1.428,0,1,0,1.178,2.6c.073-.034.194-.3.3-.041.072.183.2.138.314.128C683.024,7869.781,682.971,7869.63,682.971,7869.527Zm-1.39-.112a.975.975,0,0,1-.988-.967.974.974,0,1,1,.988.967Z" transform="translate(-455.491 -188.507)" fill="#939393"/>
    <path id="Path_17376" data-name="Path 17376" d="M692.574,7770.7c-.335-.024-.316-.268-.314-.5,0-.258.006-.516,0-.774a1.093,1.093,0,0,0-1.183-1.136,1.142,1.142,0,0,0-1.186.8c-.023.1-.077.215.053.257.115.038.259.079.348-.063.037-.06.044-.138.08-.2a.758.758,0,0,1,.815-.35.668.668,0,0,1,.616.518c.054.214.016.354-.265.334a6.637,6.637,0,0,0-.9,0,.755.755,0,0,0-.773.757.74.74,0,0,0,.715.767,1.271,1.271,0,0,0,.876-.135c.247-.153.441-.328.662.035.067.11.252.122.4.111.12-.009.186-.07.176-.193C692.682,7770.838,692.736,7770.713,692.574,7770.7Zm-1.131-.131a.982.982,0,0,1-.737.136.36.36,0,0,1-.354-.358c-.006-.2.122-.3.3-.362a1.982,1.982,0,0,1,.57-.046.447.447,0,0,1,.065,0c.171.033.44-.1.5.091C691.85,7770.258,691.636,7770.436,691.443,7770.57Z" transform="translate(-464.36 -100.305)" fill="#939393"/>
    <path id="Path_17377" data-name="Path 17377" d="M547.268,7815.92c-.388-.012-.777.013-1.163-.008-.259-.015-.352.055-.341.33.022.559.007,1.119.007,1.679,0,.618,0,1.235,0,1.853,0,.164.053.227.222.227s.238-.041.228-.218c-.012-.214,0-.43,0-.646,0-.936,0-.936.916-.951.057,0,.115,0,.172,0a1.131,1.131,0,0,0-.036-2.261Zm-.39,1.821c-.663,0-.663,0-.663-.719,0-.677,0-.677.666-.675q1.065.006,1.043.728C547.909,7817.535,547.586,7817.741,546.878,7817.741Z" transform="translate(-332.714 -143.812)" fill="#939393"/>
    <path id="Path_17378" data-name="Path 17378" d="M602.17,7890.118a1.419,1.419,0,0,0-1.426,1.421,1.422,1.422,0,0,0,2.845.011A1.44,1.44,0,0,0,602.17,7890.118Zm-.062,2.4a.969.969,0,1,1,1.039-.927A1,1,0,0,1,602.108,7892.516Z" transform="translate(-382.945 -211.608)" fill="#939393"/>
    <path id="Path_17379" data-name="Path 17379" d="M641.923,7890.113a1.41,1.41,0,0,0-1.388,1.449,1.415,1.415,0,1,0,2.829-.047A1.427,1.427,0,0,0,641.923,7890.113Zm.015,2.4a.965.965,0,0,1-.961-.989.95.95,0,0,1,.956-.946.963.963,0,0,1,.991.962A.982.982,0,0,1,641.938,7892.511Z" transform="translate(-419.299 -211.603)" fill="#939393"/>
    <path id="Path_17380" data-name="Path 17380" d="M548.6,7939.032c-.322-.758-.644-1.517-1-2.365-.341.807-.644,1.514-.937,2.225-.04.1-.21.244-.014.313.163.057.186-.146.216-.257a.653.653,0,0,1,.753-.551c.409,0,.6.141.693.5a1.543,1.543,0,0,0,.1.235.134.134,0,0,0,.178.075C548.676,7939.172,548.626,7939.1,548.6,7939.032Zm-.781-.813c-.2,0-.393,0-.647,0l.417-1.021c.139.32.255.579.364.84C548.006,7938.165,547.952,7938.221,547.817,7938.219Z" transform="translate(-333.436 -254.135)" fill="#939393"/>
    <path id="Path_17381" data-name="Path 17381" d="M600.415,7948.174c0-.1,0-.2,0-.3,0-.289,0-.284-.243-.3-.048,0-.09-.063-.139-.092a.747.747,0,0,0-.971.115.961.961,0,0,0-.022,1.155.728.728,0,0,0,.963.167c.067-.036.105-.133.2-.1.2.068.205.069.208-.128C600.417,7948.517,600.415,7948.345,600.415,7948.174Zm-.784.665a.635.635,0,0,1-.563-.64.594.594,0,0,1,.589-.646.617.617,0,0,1,.568.628A.64.64,0,0,1,599.63,7948.839Z" transform="translate(-381.222 -263.899)" fill="#939393"/>
    <path id="Path_17382" data-name="Path 17382" d="M661.23,7948.183c.272.016.546-.005.818.006.2.009.239-.078.213-.26a.715.715,0,0,0-.773-.648.86.86,0,0,0-.236,1.628.755.755,0,0,0,.864-.2c.054-.057.155-.114.059-.208s-.14.024-.2.068c-.376.278-.735.248-.918-.083C660.955,7948.3,660.938,7948.166,661.23,7948.183Zm.293-.714c.274,0,.521.148.493.412-.031.3-.341-.005-.467.157-.188-.119-.491.111-.523-.16S661.258,7947.474,661.523,7947.469Z" transform="translate(-437.776 -263.831)" fill="#939393"/>
  </g>
</svg>
