<svg xmlns="http://www.w3.org/2000/svg" width="41.588" height="41.978" viewBox="0 0 41.588 41.978">
  <g id="UUwjhB.tif" transform="translate(-2377.553 -7719.097)">
    <g id="Group_12734" data-name="Group 12734" transform="translate(2377.553 7719.097)">
      <path id="Path_17390" data-name="Path 17390" d="M2384.986,7719.1H2409.3a1.087,1.087,0,0,1,.445,1.014c-.021,1.442,0,2.885-.015,4.328a.762.762,0,0,0,.328.693,11.861,11.861,0,0,1,1.61,17.19c-.394.441-.831.844-1.251,1.268l1.834,3.168c.178-.1.317-.172.455-.249.556-.312.873-.23,1.2.315.2.338.393.681.589,1.021q2.051,3.556,4.1,7.112a3.418,3.418,0,0,1-.03,3.763,3.472,3.472,0,0,1-5.891-.059c-.924-1.5-1.772-3.044-2.655-4.568-.069-.119-.144-.233-.281-.455v.549q0,2.995,0,5.989c0,.657-.24.9-.9.9h-30.383c-.674,0-.9-.238-.9-.933q0-16.569.014-33.138a1.364,1.364,0,0,1,.345-.839c.712-.77,1.47-1.5,2.214-2.236Q2382.555,7721.511,2384.986,7719.1Zm21.815,26.628c-.059-.013-.075-.022-.087-.019-.125.038-.249.079-.374.117a11.637,11.637,0,0,1-10.553-1.7,11.791,11.791,0,0,1-4.5-12.812c.038-.137.064-.363-.01-.431-.418-.382-.736-1.053-1.5-.624a.332.332,0,0,1-.214.025c-.425-.094-.645.127-.788.488a2.168,2.168,0,0,1-.149.267l-3.188,5.569c.074.114.14.209.2.308a2.09,2.09,0,0,1-2.712,2.953,2.108,2.108,0,0,1-1.152-2.208,2.017,2.017,0,0,1,1.863-1.738.973.973,0,0,0,.945-.62c1.073-1.918,2.176-3.819,3.265-5.722-.1-.167-.2-.312-.274-.466a2.092,2.092,0,0,1,2.858-2.778,2,2,0,0,1,1.064,2.2c-.143.513.056.743.442.98a11.911,11.911,0,0,1,16.365-5.54v-3.439h-22.357c0,2.032,0,4.028,0,6.024,0,.711-.228.936-.945.936q-2.777,0-5.553,0h-.467v32.147h29.353c0-2.324-.009-4.612,0-6.9a3.769,3.769,0,0,0-.567-2.571c-.269-.342-.112-.721.269-.968.179-.116.367-.216.571-.335Zm6.437-11.2a10.528,10.528,0,1,0-10.5,10.519A10.52,10.52,0,0,0,2413.238,7734.53Zm-3.92,15.549c.451.786.877,1.529,1.306,2.271,1.04,1.8,2.075,3.6,3.122,5.4a2.1,2.1,0,1,0,3.658-2.045c-1.418-2.488-2.858-4.964-4.291-7.444-.05-.086-.116-.162-.188-.26Zm-24.788-28.341-4.329,4.33h4.329Zm23.549,23.4,1.751,3.032,1.207-.7-1.755-3.039Zm-18.667-16.248a.7.7,0,1,0-.663-.72A.705.705,0,0,0,2389.413,7728.889Zm-6.26,9.064a.7.7,0,1,0,.719-.663A.706.706,0,0,0,2383.152,7737.953Z" transform="translate(-2377.553 -7719.097)" fill="#939393"/>
      <path id="Path_17391" data-name="Path 17391" d="M2426.888,8048.214c0-1.132,0-2.208,0-3.285,0-.683.232-.911.922-.913.816,0,1.632,0,2.448,0,.569,0,.823.259.826.832.005,1.1,0,2.209,0,3.338h1.4v-.445q0-2.8,0-5.595c0-.709.227-.93.948-.931.8,0,1.6,0,2.4,0,.595,0,.844.254.844.858,0,2.024,0,4.048,0,6.1h1.4v-.462q0-4.131,0-8.261c0-.856.187-1.039,1.058-1.039.758,0,1.515,0,2.273,0,.622,0,.865.249.865.882q0,4.2,0,8.392v.5h1.4v-.449q0-2.775,0-5.551c0-.751.215-.971.951-.972q1.158,0,2.316,0c.707,0,.929.229.93.949q0,2.754,0,5.507v.541c.247,0,.474-.012.7,0a.7.7,0,1,1,0,1.392c-.116.009-.233,0-.35,0h-21.679c-.719,0-1.048-.217-1.054-.692s.322-.7,1.037-.708Zm12.623-8.375v8.34h1.348v-8.34Zm-4.257,8.354v-5.542h-1.347v5.542Zm11.206-5.553H2445.1v5.543h1.355Zm-16.793,2.8h-1.346v2.747h1.346Z" transform="translate(-2421.291 -8010.435)" fill="#939393"/>
      <path id="Path_17392" data-name="Path 17392" d="M2422.4,7990.526q2.011,0,4.022,0c.552,0,.871.263.871.7s-.322.7-.872.7q-4.022,0-8.044,0c-.551,0-.871-.263-.871-.7s.319-.7.871-.7Q2420.393,7990.523,2422.4,7990.526Z" transform="translate(-2414.008 -7966.739)" fill="#939393"/>
      <path id="Path_17393" data-name="Path 17393" d="M2422.373,8023.86q-1.989,0-3.979,0c-.558,0-.877-.25-.887-.684-.01-.45.318-.714.9-.714q4,0,8,0c.559,0,.877.25.887.683s-.32.714-.9.715Q2424.384,8023.863,2422.373,8023.86Z" transform="translate(-2414.006 -7995.875)" fill="#939393"/>
      <path id="Path_17394" data-name="Path 17394" d="M2561.189,7800a9.094,9.094,0,1,1,9.018,9.168A9.1,9.1,0,0,1,2561.189,7800Zm1.427-.015a7.685,7.685,0,1,0,15.187-1.553,7.691,7.691,0,0,0-14.893-.536.513.513,0,0,0,.159.606q1.609,1.479,3.2,2.981a.489.489,0,0,0,.533.128,3.077,3.077,0,0,1,1.111-.071.525.525,0,0,0,.579-.226c.835-1.085,1.675-2.167,2.533-3.233a.647.647,0,0,0,.119-.768,2.027,2.027,0,0,1,.722-2.439,2.1,2.1,0,0,1,3.117,2.588,2.056,2.056,0,0,1-2.269,1.165.463.463,0,0,0-.535.235c-.83,1.07-1.658,2.143-2.509,3.2-.247.306-.4.571-.182.958a1.086,1.086,0,0,1,.088.511,2.016,2.016,0,0,1-1.142,1.918,1.963,1.963,0,0,1-2.252-.226,2.009,2.009,0,0,1-.731-2.147c.031-.139.065-.356-.009-.428C2564.532,7801.766,2563.6,7800.908,2562.616,7799.983Zm10.476-2.71a.7.7,0,1,0-.708-.675A.7.7,0,0,0,2573.092,7797.273Zm-5.611,7a.7.7,0,1,0-.694-.688A.7.7,0,0,0,2567.48,7804.27Z" transform="translate(-2545.096 -7784.683)" fill="#939393"/>
    </g>
  </g>
</svg>
