<svg xmlns="http://www.w3.org/2000/svg" xmlns:xlink="http://www.w3.org/1999/xlink" width="51.43" height="51.406" viewBox="0 0 51.43 51.406">
  <defs>
    <clipPath id="clip-path">
      <rect id="Rectangle_2802" data-name="Rectangle 2802" width="0.786" height="0.428" fill="none" stroke="#fff" stroke-width="1"/>
    </clipPath>
  </defs>
  <g id="Group_11863" data-name="Group 11863" transform="translate(-13.864 -163.231)">
    <g id="Group_11861" data-name="Group 11861" transform="translate(-12701.535 381.37)">
      <path id="Path_12304" data-name="Path 12304" d="M209.753,203.93a10.8,10.8,0,1,1-10.8-10.8,10.8,10.8,0,0,1,10.8,10.8" transform="translate(12542.166 -396.374)" fill="#edf1f3"/>
      <path id="Path_12327" data-name="Path 12327" d="M15.047,417.93l-.475-.417-.124.62Z" transform="translate(12702.181 -602.769)" fill="#fff"/>
      <path id="Path_12337" data-name="Path 12337" d="M96.214,247.661a.169.169,0,1,1-.213.109.169.169,0,0,1,.213-.109" transform="translate(12627.563 -447.342)" fill="#fff"/>
      <path id="Path_12338" data-name="Path 12338" d="M105.677,250.736a.169.169,0,1,1-.213.109.169.169,0,0,1,.213-.109" transform="translate(12618.903 -450.155)" fill="#fff"/>
      <path id="Path_12341" data-name="Path 12341" d="M86.751,244.587a.169.169,0,1,1-.213.109.169.169,0,0,1,.213-.109" transform="translate(12636.222 -444.528)" fill="#fff"/>
      <path id="Path_12347" data-name="Path 12347" d="M447.6,503.355a.169.169,0,1,1,.236.037.169.169,0,0,1-.236-.037" transform="translate(12305.863 -681.072)" fill="#fff"/>
      <path id="Path_12348" data-name="Path 12348" d="M441.751,495.306a.169.169,0,1,1,.236.037.169.169,0,0,1-.236-.037" transform="translate(12311.215 -673.706)" fill="#fff"/>
      <path id="Path_12351" data-name="Path 12351" d="M453.447,511.405a.169.169,0,1,1,.236.038.169.169,0,0,1-.236-.038" transform="translate(12300.513 -688.437)" fill="#fff"/>
      <path id="Path_14293" data-name="Path 14293" d="M54.509,17.912V30.427a13.222,13.222,0,0,0-11.176,8.117L31.428,34.675A25.724,25.724,0,0,1,54.509,17.912" transform="translate(12685.57 -236.045)" fill="#eef1f3"/>
      <path id="Path_14294" data-name="Path 14294" d="M13.579,238.419l11.9,3.867a13.222,13.222,0,0,0,4.266,13.137l-7.358,10.127a25.724,25.724,0,0,1-8.81-27.132" transform="translate(12702.785 -437.815)" fill="#eef1f3"/>
      <path id="Path_14291" data-name="Path 14291" d="M147.429,462.975l7.356-10.124a13.223,13.223,0,0,0,13.812,0l7.358,10.127a25.724,25.724,0,0,1-28.526-.005" transform="translate(12579.427 -634.027)" fill="#eef1f3"/>
      <path id="Path_12309" data-name="Path 12309" d="M350.54,34.607l-11.9,3.867a13.222,13.222,0,0,0-11.173-8.121V17.835A25.724,25.724,0,0,1,350.54,34.607" transform="translate(12414.688 -235.974)" fill="#eef1f3"/>
      <path id="Path_14292" data-name="Path 14292" d="M423.628,265.523,416.272,255.4a13.222,13.222,0,0,0,4.27-13.136l11.906-3.868a25.724,25.724,0,0,1-8.82,27.128" transform="translate(12333.429 -437.793)" fill="#cc8519"/>
    </g>
    <g id="Group_11862" data-name="Group 11862" transform="translate(36.367 193.022) rotate(180)">
      <g id="Group_9" data-name="Group 9" transform="translate(-6 -1)">
        <path id="Path_174" data-name="Path 174" d="M4.779,14.257a.279.279,0,0,1-.2-.476l4.4-4.4-4.4-4.4a.279.279,0,0,1,.394-.394l4.6,4.6a.279.279,0,0,1,0,.394l-4.6,4.6a.278.278,0,0,1-.2.082" transform="translate(-4.291 -4.291)" fill="#003d4f"/>
        <path id="Path_175" data-name="Path 175" d="M.488,10.176a.488.488,0,0,1-.345-.833L4.4,5.088.143.834a.488.488,0,0,1,0-.69.488.488,0,0,1,.69,0l4.6,4.6a.488.488,0,0,1,0,.69l-4.6,4.6a.484.484,0,0,1-.345.143m0-9.757A.07.07,0,0,0,.439.538l4.55,4.55L.439,9.639a.07.07,0,1,0,.1.1l4.6-4.6a.07.07,0,0,0,0-.1L.537.439A.07.07,0,0,0,.488.419" transform="translate(0 -0.001)" fill="#003d4f"/>
      </g>
    </g>
  </g>
</svg>
