<svg xmlns="http://www.w3.org/2000/svg" width="627.002" height="626.965" viewBox="0 0 627.002 626.965">
  <path id="Path_19023" data-name="Path 19023" d="M437.494,317.8A124.672,124.672,0,1,1,312.823,193.129,124.671,124.671,0,0,1,437.494,317.8" transform="translate(0.504 -4.35)" fill="#eef1f3"/>
  <g id="Group_12833" data-name="Group 12833">
    <path id="Path_17055" data-name="Path 17055" d="M2405.668,929.051l-173.085,56.244a131.608,131.608,0,0,0-120.637-87.607V715.74a311.983,311.983,0,0,1,178.07,57.817c1.863,1.343,3.722,2.686,5.544,4.048A314.093,314.093,0,0,1,2405.668,929.051Z" transform="translate(-1795.008 -715.74)" fill="#eef1f3"/>
    <path id="Path_17056" data-name="Path 17056" d="M2385.31,923.97a313.878,313.878,0,0,1-14.214,93.65c-.691,2.168-1.382,4.354-2.13,6.522a314.029,314.029,0,0,1-110.109,151.426l-106.942-147.187a131.774,131.774,0,0,0,46.1-141.8L2371.1,830.34A313.846,313.846,0,0,1,2385.31,923.97Z" transform="translate(-1758.306 -610.507)" fill="#cc850a"/>
    <path id="Path_17057" data-name="Path 17057" d="M2378.538,1082.9a312,312,0,0,1-178.07,57.834c-1.134.019-2.283.019-3.436.019-1.132,0-2.283,0-3.415-.019a311.859,311.859,0,0,1-178.072-57.834L2122.507,935.67a131.53,131.53,0,0,0,149.087.019Z" transform="translate(-1883.53 -513.786)" fill="#eef1f3"/>
    <path id="Path_17058" data-name="Path 17058" d="M2180.159,1028.362,2073.2,1175.568a314.028,314.028,0,0,1-110.106-151.426c-.75-2.168-1.439-4.354-2.131-6.522a315.133,315.133,0,0,1,0-187.28l173.124,56.243a131.771,131.771,0,0,0,46.076,141.779Z" transform="translate(-1946.725 -610.507)" fill="#eef1f3"/>
    <path id="Path_17059" data-name="Path 17059" d="M2248.979,715.74V897.687a131.6,131.6,0,0,0-120.6,87.607l-173.123-56.244A314.1,314.1,0,0,1,2065.362,777.6c1.822-1.362,3.683-2.7,5.544-4.048A311.842,311.842,0,0,1,2248.979,715.74Z" transform="translate(-1938.891 -715.74)" fill="#eef1f3"/>
  </g>
  <g id="Group_12834" data-name="Group 12834" transform="translate(346.723 384.381) rotate(180)">
    <g id="Group_9" data-name="Group 9" transform="translate(-6 -1)">
      <path id="Path_174" data-name="Path 174" d="M8.44,142.389a3.94,3.94,0,0,1-2.785-6.726L67.873,73.445,5.654,11.226a3.94,3.94,0,0,1,5.571-5.572l65,65a3.939,3.939,0,0,1,0,5.572l-65,65a3.928,3.928,0,0,1-2.785,1.154" transform="translate(-1.545 -1.546)" fill="#003d4f"/>
      <path id="Path_175" data-name="Path 175" d="M6.894,143.8a6.894,6.894,0,0,1-4.875-11.77L62.148,71.9,2.02,11.769a6.892,6.892,0,0,1,0-9.749,6.894,6.894,0,0,1,9.75,0l65,65a6.893,6.893,0,0,1,0,9.75l-65,65a6.844,6.844,0,0,1-4.875,2.02m0-137.889a.985.985,0,0,0-.7,1.681L70.506,71.9,6.2,136.207A.985.985,0,1,0,7.59,137.6L72.6,72.6a.985.985,0,0,0,0-1.393L7.591,6.2a.983.983,0,0,0-.7-.288" transform="translate(0 -0.001)" fill="#003d4f"/>
    </g>
  </g>
</svg>
