<svg xmlns="http://www.w3.org/2000/svg" xmlns:xlink="http://www.w3.org/1999/xlink" width="653" height="261.804" viewBox="0 0 653 261.804">
  <defs>
    <clipPath id="clip-path">
      <rect id="Rectangle_4276" data-name="Rectangle 4276" width="29.414" height="29.312" transform="translate(0 0)" fill="#003d4f"/>
    </clipPath>
  </defs>
  <rect id="Rectangle_4342" data-name="Rectangle 4342" width="653" height="261.804" fill="#fff"/>
  <text id="Retail" transform="translate(57 17.498)" fill="#cc850a" font-size="16" font-family="Helvetica-Bold, Helvetica" font-weight="700"><tspan x="0" y="12">Retail</tspan></text>
  <text id="Client_examples:_" data-name="Client examples:  " transform="translate(13.078 58.756)" font-size="16" font-family="Helvetica"><tspan x="0" y="12" xml:space="preserve">Client examples:  </tspan></text>
  <text id="Domain_and_service_lines" data-name="Domain and service lines" transform="translate(13.078 119.148)" font-size="16" font-family="Helvetica"><tspan x="0" y="12">Domain and service lines</tspan></text>
  <text id="Falabella_Gap_Tesco_Kroger_Tata_Cliq_" data-name="Falabella, Gap, Tesco, Kroger, Tata Cliq " transform="translate(13.078 84.756)" font-size="16" font-family="Helvetica"><tspan x="0" y="12">Falabella, Gap, Tesco, Kroger, Tata Cliq </tspan></text>
  <text id="Partner_with_office_support_structures_to_enhance_Thought_Leadership_Capability_and_Innovation_Marketing_as_a_demand_engine._Lead_generation_via_Marketing" data-name="Partner with office &amp; support structures to enhance Thought Leadership, Capability and Innovation
Marketing as a demand engine. Lead generation via Marketing" transform="translate(13.078 145.148)" font-size="16" font-family="Helvetica"><tspan x="0" y="12">Partner with office &amp; support structures to enhance Thought Leadership, </tspan><tspan x="0" y="32">Capability and Innovation</tspan><tspan x="0" y="52">Marketing as a demand engine. Lead generation via Marketing</tspan></text>
  <g id="Group_12075" data-name="Group 12075" transform="translate(13.077 222.856)">
    <text id="Learn_more" data-name="Learn more" transform="translate(0 0.453)" fill="#cc850a" font-size="14" font-family="Helvetica-Bold, Helvetica" font-weight="700"><tspan x="0" y="11">Learn more</tspan></text>
    <g id="Group_8" data-name="Group 8" transform="translate(85.103 3.339)">
      <g id="Group_9" data-name="Group 9" transform="translate(0)">
        <path id="Path_174" data-name="Path 174" d="M4.872,17.524a.372.372,0,0,1-.263-.635l5.877-5.877L4.609,5.136a.372.372,0,0,1,.526-.526l6.14,6.14a.372.372,0,0,1,0,.526l-6.14,6.14a.371.371,0,0,1-.263.109" transform="translate(-4.221 -4.221)" fill="#cc850a"/>
        <path id="Path_175" data-name="Path 175" d="M.651,13.583a.651.651,0,0,1-.46-1.112L5.87,6.792.191,1.113a.651.651,0,0,1,0-.921.651.651,0,0,1,.921,0l6.14,6.14a.651.651,0,0,1,0,.921l-6.14,6.14a.646.646,0,0,1-.46.191M.651.559A.093.093,0,0,0,.585.718L6.659,6.792.585,12.866A.093.093,0,1,0,.717,13l6.14-6.14a.093.093,0,0,0,0-.132L.717.586A.093.093,0,0,0,.651.559" transform="translate(0 -0.001)" fill="#cc850a"/>
      </g>
    </g>
  </g>
  <g id="Group_12076" data-name="Group 12076" transform="translate(13.078 12.952)">
    <g id="Group_11969" data-name="Group 11969" clip-path="url(#clip-path)">
      <path id="Path_14556" data-name="Path 14556" d="M3.231,28.8h0a1.979,1.979,0,0,1-1.712-.689,2.315,2.315,0,0,1,0-3.447l7.873-7.928c.342-.345.684-.345.855,0l2.567,2.412a.638.638,0,0,1,.171.518c0,.172,0,.172-.171.517L4.942,28.109a2.441,2.441,0,0,1-1.711.689M9.9,17.94,2.2,25.524a1.575,1.575,0,0,0,0,1.723,2.413,2.413,0,0,0,1.027.345,1.288,1.288,0,0,0,.684-.345l7.7-7.583Z" fill="#003d4f" fill-rule="evenodd"/>
      <path id="Path_14557" data-name="Path 14557" d="M13.747,21.524l-.347-.171L8.2,16.218c-.347-.342-.347-.685,0-.856a.783.783,0,0,1,.867,0L14.094,20.5a.482.482,0,0,1,0,.856.61.61,0,0,1-.347.171" fill="#003d4f" fill-rule="evenodd"/>
      <path id="Path_14558" data-name="Path 14558" d="M11.616,18.785l-1.027-.856L23.853,4.835l.685.856Z" fill="#003d4f" fill-rule="evenodd"/>
      <path id="Path_14559" data-name="Path 14559" d="M25.6,7.4a.6.6,0,0,1-.346-.173L22.143,4.112c0-.173-.173-.346-.173-.519.173-.173.173-.346.346-.346L26.644.13a.528.528,0,0,1,.693,0l1.9,1.9c.173.174.173.693.173.866L26.125,7.056c0,.173-.346.346-.52.346M23.528,3.766,25.6,5.844l2.424-3.29L26.817,1.515Z" fill="#003d4f" fill-rule="evenodd"/>
      <path id="Path_14560" data-name="Path 14560" d="M11.664,15.19,7.338,10.863a5.416,5.416,0,0,1-5.71-1.384A5.535,5.535,0,0,1,.417,3.421a1.743,1.743,0,0,1,.519-.173c.173-.173.346,0,.519,0L3.7,5.5H5.435V3.941L3.185,1.518c0-.173-.173-.347,0-.52,0-.346,0-.346.173-.519A5.532,5.532,0,0,1,9.415,1.691,5.419,5.419,0,0,1,10.8,7.4l4.326,4.327-1.039.692-4.5-4.5a1.04,1.04,0,0,1-.173-.692,4.253,4.253,0,0,0-.866-4.673A4.457,4.457,0,0,0,4.743,1.345l1.73,1.9c0,.173.173.173.173.519V6.19a.772.772,0,0,1-.692.52H3.531c-.173,0-.346,0-.346-.173l-1.9-1.558A4.122,4.122,0,0,0,2.493,8.613a3.969,3.969,0,0,0,4.672.866c.346,0,.519,0,.692.173l4.5,4.673Z" fill="#003d4f" fill-rule="evenodd"/>
      <path id="Path_14561" data-name="Path 14561" d="M23.735,29.312a5.932,5.932,0,0,1-3.958-1.721,5.381,5.381,0,0,1-1.2-5.509L14.1,17.607l1.033-.689L19.6,21.394c.172.344.344.516.172.688a4.574,4.574,0,0,0,.86,4.82,4.333,4.333,0,0,0,3.786,1.033L22.7,26.213c0-.172-.172-.344-.172-.516v-2.41a.769.769,0,0,1,.517-.688h2.581c.172,0,.172,0,.344.172l1.893,1.893a4.164,4.164,0,0,0-1.2-3.959,4.229,4.229,0,0,0-4.646-.861,1.034,1.034,0,0,1-.688-.172L16.852,15.2l.86-1.033,4.13,4.475a5.434,5.434,0,0,1,6.883,7.23c0,.344-.172.344-.344.344-.344.173-.516,0-.516,0l-2.581-2.237H23.735v1.377l2.409,2.582s.172.172,0,.516c0,.172,0,.345-.344.345a4.584,4.584,0,0,1-2.065.516" fill="#003d4f" fill-rule="evenodd"/>
    </g>
  </g>
  <rect id="Rectangle_4343" data-name="Rectangle 4343" width="89" height="261.804" transform="translate(564)" fill="#003d4f"/>
</svg>
