<svg xmlns="http://www.w3.org/2000/svg" xmlns:xlink="http://www.w3.org/1999/xlink" width="39.57" height="39.574" viewBox="0 0 39.57 39.574">
  <defs>
    <clipPath id="clip-path">
      <rect id="Rectangle_4231" data-name="Rectangle 4231" width="39.57" height="39.574" fill="#939393"/>
    </clipPath>
  </defs>
  <g id="Group_11889" data-name="Group 11889" transform="translate(0 0)">
    <rect id="Rectangle_4224" data-name="Rectangle 4224" width="10.549" height="1.312" transform="translate(14.524 9.239)" fill="#939393"/>
    <rect id="Rectangle_4225" data-name="Rectangle 4225" width="2.625" height="1.337" transform="translate(8.579 31.648)" fill="#939393"/>
    <rect id="Rectangle_4226" data-name="Rectangle 4226" width="2.625" height="1.312" transform="translate(28.366 34.299)" fill="#939393"/>
    <rect id="Rectangle_4227" data-name="Rectangle 4227" width="18.475" height="1.312" transform="translate(8.579 34.299)" fill="#939393"/>
    <g id="Group_11888" data-name="Group 11888" transform="translate(0 0)">
      <g id="Group_11887" data-name="Group 11887" clip-path="url(#clip-path)">
        <path id="Path_14414" data-name="Path 14414" d="M14.347,11.9a1.989,1.989,0,0,1,1.391,3.4,1.944,1.944,0,0,1-1.38.568,2.007,2.007,0,0,1-.781-.158,1.961,1.961,0,0,1-1.209-1.827,1.981,1.981,0,0,1,1.98-1.98m-.007-1.309a3.214,3.214,0,0,0-1.253.254,3.3,3.3,0,0,0-2.056,3.034,3.3,3.3,0,0,0,6.354,1.261,3.306,3.306,0,0,0-3.045-4.549" transform="translate(5.449 5.234)" fill="#939393" fill-rule="evenodd"/>
        <path id="Path_14415" data-name="Path 14415" d="M16.865,9.277c.128,0,.49.439.644.644a2.941,2.941,0,0,0,1.107,1,2.852,2.852,0,0,0,.95.164,3.123,3.123,0,0,0,.595-.06,1.963,1.963,0,0,1,.493-.061A2.544,2.544,0,0,1,21.06,11a2.132,2.132,0,0,1-.027.9,3.176,3.176,0,0,0,.1,1.543,2.967,2.967,0,0,0,1,1.107c.206.154.644.515.644.642,0,.155-.438.49-.644.669a3.28,3.28,0,0,0-1.029,1.106,3.158,3.158,0,0,0-.078,1.545,2.015,2.015,0,0,1,.027.876,2.938,2.938,0,0,1-.451.039,2.884,2.884,0,0,1-.448-.039,3.118,3.118,0,0,0-.62-.063,3.151,3.151,0,0,0-.925.14,3.152,3.152,0,0,0-1.107,1c-.154.232-.515.668-.644.668-.154,0-.489-.436-.668-.668a3.169,3.169,0,0,0-1.109-1,2.033,2.033,0,0,0-.8-.13,7.461,7.461,0,0,0-.746.052,2.925,2.925,0,0,1-.518.043c-.127,0-.254-.007-.382-.019a2.619,2.619,0,0,1,.025-.9,3.105,3.105,0,0,0-.078-1.545,3.438,3.438,0,0,0-1-1.106c-.232-.179-.668-.514-.668-.669,0-.127.436-.489.668-.642a3.178,3.178,0,0,0,1-1.107,3.114,3.114,0,0,0,.078-1.543,3.567,3.567,0,0,1-.025-.9,2.7,2.7,0,0,1,.46-.039,2.36,2.36,0,0,1,.441.039,3.253,3.253,0,0,0,.625.061,3,3,0,0,0,.917-.139,2.956,2.956,0,0,0,1.109-1c.179-.2.514-.644.668-.644M11.128,17.2a.637.637,0,0,1,.232.284,2.534,2.534,0,0,1,0,.876,2.338,2.338,0,0,0,.362,1.98,1.69,1.69,0,0,0,1.23.417,6.464,6.464,0,0,0,.75-.055,2.781,2.781,0,0,1,.512-.043c.124,0,.245.006.363.016a1.419,1.419,0,0,1,.284.258l-3.088,3.088-.335-2.831a.66.66,0,0,0-.568-.592L8.04,20.29Zm11.45,0,3.114,3.088-2.855.335a.608.608,0,0,0-.566.566l-.309,2.831-3.114-3.088a.791.791,0,0,1,.284-.232,2.469,2.469,0,0,1,.873,0,6.877,6.877,0,0,0,.76.055,1.674,1.674,0,0,0,1.222-.417,2.338,2.338,0,0,0,.36-1.98,2.463,2.463,0,0,1,0-.876.8.8,0,0,1,.232-.284M16.865,7.94a2.308,2.308,0,0,0-1.7,1.156,2.731,2.731,0,0,1-.592.62,2.676,2.676,0,0,1-.438.036,2.649,2.649,0,0,1-.438-.036,6.507,6.507,0,0,0-.789-.064,1.591,1.591,0,0,0-1.191.423,2.271,2.271,0,0,0-.362,1.956,2.681,2.681,0,0,1,0,.9,2.592,2.592,0,0,1-.593.592A2.266,2.266,0,0,0,9.61,15.2a1.563,1.563,0,0,0,.515,1.134L6.135,20.34a.654.654,0,0,0,.387,1.109l3.68.412.385,3.678a.706.706,0,0,0,.438.565c.076,0,.154.027.232.027a.65.65,0,0,0,.465-.206l3.988-3.989a1.52,1.52,0,0,0,1.156.515A1.473,1.473,0,0,0,18,21.936l3.988,3.989a.643.643,0,0,0,.462.206c.078,0,.155-.027.232-.027a.71.71,0,0,0,.439-.565l.412-3.678,3.651-.388a.673.673,0,0,0,.568-.436.684.684,0,0,0-.155-.7l-4.013-3.988a1.679,1.679,0,0,0,.539-1.158,2.268,2.268,0,0,0-1.158-1.672,2.3,2.3,0,0,1-.617-.592,2.605,2.605,0,0,1,0-.9,2.2,2.2,0,0,0-.36-1.956,1.576,1.576,0,0,0-1.18-.423,6.91,6.91,0,0,0-.8.064,2.672,2.672,0,0,1-.873,0,3.38,3.38,0,0,1-.593-.62A2.266,2.266,0,0,0,16.865,7.94" transform="translate(2.932 3.922)" fill="#939393" fill-rule="evenodd"/>
        <path id="Path_14416" data-name="Path 14416" d="M5.93,5.942v5.277H2.017l1.8-2.24a.7.7,0,0,0,0-.822l-1.8-2.216Zm31.621,0L35.776,8.157a.627.627,0,0,0,0,.822l1.775,2.24h-3.91V5.942ZM32.33,38.262H7.242V1.313H32.33ZM6.6,0A.657.657,0,0,0,5.93.642V4.6H.653a.652.652,0,0,0-.592.387.679.679,0,0,0,.078.695L2.453,8.567.139,11.45a.685.685,0,0,0-.078.695.653.653,0,0,0,.592.385H5.93V38.906a.662.662,0,0,0,.668.668H32.97a.648.648,0,0,0,.671-.668V12.53h5.274a.65.65,0,0,0,.593-.385.691.691,0,0,0-.078-.695L37.115,8.567l2.316-2.881a.686.686,0,0,0,.078-.695.649.649,0,0,0-.593-.387H33.641V.642A.643.643,0,0,0,32.97,0Z" transform="translate(0 0)" fill="#939393" fill-rule="evenodd"/>
        <rect id="Rectangle_4228" data-name="Rectangle 4228" width="2.649" height="1.337" transform="translate(24.405 4.605)" fill="#939393"/>
        <rect id="Rectangle_4229" data-name="Rectangle 4229" width="2.625" height="1.337" transform="translate(12.542 4.605)" fill="#939393"/>
        <rect id="Rectangle_4230" data-name="Rectangle 4230" width="18.448" height="1.337" transform="translate(12.542 31.648)" fill="#939393"/>
        <path id="Path_14417" data-name="Path 14417" d="M15.66,3.094a.66.66,0,0,1,.671.644V5.075a.661.661,0,0,1-.671.644H13.011a.637.637,0,0,1-.644-.644V3.738a.636.636,0,0,1,.644-.644ZM13.011,1.757A2,2,0,0,0,11.03,3.738V5.075a1.976,1.976,0,0,0,1.981,1.956H15.66a1.978,1.978,0,0,0,1.983-1.956V3.738A2,2,0,0,0,15.66,1.757Z" transform="translate(5.449 0.868)" fill="#939393" fill-rule="evenodd"/>
      </g>
    </g>
  </g>
</svg>
