<svg xmlns="http://www.w3.org/2000/svg" xmlns:xlink="http://www.w3.org/1999/xlink" width="36.582" height="35.396" viewBox="0 0 36.582 35.396">
  <defs>
    <clipPath id="clip-path">
      <rect id="Rectangle_4253" data-name="Rectangle 4253" width="36.582" height="35.396" fill="#939393"/>
    </clipPath>
  </defs>
  <g id="Group_11895" data-name="Group 11895" transform="translate(0 0)">
    <g id="Group_11894" data-name="Group 11894" transform="translate(0 0)" clip-path="url(#clip-path)">
      <path id="Path_14428" data-name="Path 14428" d="M2.963,0A2.946,2.946,0,0,0,0,2.963V28.919a3,3,0,0,0,2.963,2.965H18.292V30.7H2.963a1.788,1.788,0,0,1-1.778-1.778V2.963A1.789,1.789,0,0,1,2.963,1.186H28.919A1.789,1.789,0,0,1,30.7,2.963V16.513h1.186V2.963A2.972,2.972,0,0,0,28.919,0Z" transform="translate(0 0)" fill="#939393" fill-rule="evenodd"/>
      <rect id="Rectangle_4238" data-name="Rectangle 4238" width="1.186" height="1.186" transform="translate(2.37 2.37)" fill="#939393"/>
      <rect id="Rectangle_4239" data-name="Rectangle 4239" width="1.186" height="1.186" transform="translate(4.741 2.37)" fill="#939393"/>
      <rect id="Rectangle_4240" data-name="Rectangle 4240" width="1.186" height="1.186" transform="translate(7.071 2.37)" fill="#939393"/>
      <rect id="Rectangle_4241" data-name="Rectangle 4241" width="27.141" height="1.143" transform="translate(2.37 4.743)" fill="#939393"/>
      <path id="Path_14429" data-name="Path 14429" d="M4.639,7.314a1.385,1.385,0,0,1,.721.17L4.217,8.669l.8.846L6.206,8.331a1.652,1.652,0,0,1,.171.761,1.753,1.753,0,0,1-1.738,1.778,1.778,1.778,0,1,1,0-3.556m3.091-2.2L6.248,6.635a2.947,2.947,0,0,0-3.727,4.53,2.906,2.906,0,0,0,2.1.888A2.969,2.969,0,0,0,6.5,11.379a3.046,3.046,0,0,0,.592-3.938L8.576,5.96Z" transform="translate(0.694 2.129)" fill="#939393" fill-rule="evenodd"/>
      <rect id="Rectangle_4242" data-name="Rectangle 4242" width="10.035" height="1.186" transform="translate(10.035 9.441)" fill="#939393"/>
      <rect id="Rectangle_4243" data-name="Rectangle 4243" width="4.148" height="1.186" transform="translate(10.035 11.811)" fill="#939393"/>
      <rect id="Rectangle_4244" data-name="Rectangle 4244" width="8.297" height="1.186" transform="translate(15.328 11.811)" fill="#939393"/>
      <rect id="Rectangle_4245" data-name="Rectangle 4245" width="5.886" height="1.186" transform="translate(21.254 9.441)" fill="#939393"/>
      <path id="Path_14430" data-name="Path 14430" d="M4.639,12.293a2.038,2.038,0,0,1,.721.167L4.217,13.646l.8.849L6.206,13.31a1.652,1.652,0,0,1,.171.761,1.754,1.754,0,0,1-1.738,1.778,1.778,1.778,0,1,1,0-3.556m3.091-2.16L6.248,11.615a2.957,2.957,0,0,0-3.937.592,3.034,3.034,0,0,0,.21,3.98,2.942,2.942,0,0,0,2.078.849A2.957,2.957,0,0,0,7.094,12.46l1.482-1.524Z" transform="translate(0.694 4.22)" fill="#939393" fill-rule="evenodd"/>
      <rect id="Rectangle_4246" data-name="Rectangle 4246" width="10.035" height="1.186" transform="translate(10.035 16.513)" fill="#939393"/>
      <rect id="Rectangle_4247" data-name="Rectangle 4247" width="4.148" height="1.186" transform="translate(10.035 18.882)" fill="#939393"/>
      <rect id="Rectangle_4248" data-name="Rectangle 4248" width="4.741" height="1.186" transform="translate(15.328 18.882)" fill="#939393"/>
      <rect id="Rectangle_4249" data-name="Rectangle 4249" width="2.37" height="1.186" transform="translate(21.254 16.513)" fill="#939393"/>
      <path id="Path_14431" data-name="Path 14431" d="M4.639,17.285a1.417,1.417,0,0,1,.721.21L4.217,18.638l.8.849L6.206,18.3a1.671,1.671,0,0,1,.171.764,1.754,1.754,0,0,1-1.738,1.778,1.778,1.778,0,1,1,0-3.556m3.091-2.16L6.248,16.607a2.957,2.957,0,0,0-3.937.592,3.034,3.034,0,0,0,.21,3.98,2.966,2.966,0,0,0,2.1.854A3.014,3.014,0,0,0,6.5,21.39a3.046,3.046,0,0,0,.592-3.938l1.482-1.524Z" transform="translate(0.694 6.3)" fill="#939393" fill-rule="evenodd"/>
      <rect id="Rectangle_4250" data-name="Rectangle 4250" width="7.663" height="1.186" transform="translate(10.035 23.584)" fill="#939393"/>
      <rect id="Rectangle_4251" data-name="Rectangle 4251" width="4.148" height="1.186" transform="translate(10.035 25.954)" fill="#939393"/>
      <rect id="Rectangle_4252" data-name="Rectangle 4252" width="2.37" height="1.186" transform="translate(15.328 25.954)" fill="#939393"/>
      <path id="Path_14432" data-name="Path 14432" d="M22.18,13.68a7.663,7.663,0,1,1-7.663,7.663A7.661,7.661,0,0,1,22.18,13.68m0-1.186a8.849,8.849,0,1,0,8.849,8.849,8.873,8.873,0,0,0-8.849-8.849" transform="translate(5.553 5.204)" fill="#939393" fill-rule="evenodd"/>
      <path id="Path_14433" data-name="Path 14433" d="M24.674,15.543l-6.522,6.479-.8-1.611-1.06.507,1.184,2.371a.673.673,0,0,0,.425.339h.085a.631.631,0,0,0,.422-.169l7.071-7.114Z" transform="translate(6.785 6.474)" fill="#939393" fill-rule="evenodd"/>
    </g>
  </g>
</svg>
