<svg xmlns="http://www.w3.org/2000/svg" xmlns:xlink="http://www.w3.org/1999/xlink" width="37.983" height="37.973" viewBox="0 0 37.983 37.973">
  <defs>
    <clipPath id="clip-path">
      <rect id="Rectangle_4237" data-name="Rectangle 4237" width="37.983" height="37.973" fill="#939393"/>
    </clipPath>
  </defs>
  <g id="Group_11893" data-name="Group 11893" transform="translate(0 0)">
    <g id="Group_11892" data-name="Group 11892" transform="translate(0 0)" clip-path="url(#clip-path)">
      <path id="Path_14422" data-name="Path 14422" d="M14.233,0c.26,0,.522.007.782.025a41,41,0,0,1,6.131.882,11.418,11.418,0,0,1,6.344,3.052A12.136,12.136,0,0,1,30.02,8.11a14.564,14.564,0,0,1,.62,2.289,7.932,7.932,0,0,0,.55,1.431c.118.287.262.572.357.884a2,2,0,0,1,.19,1.05,2.506,2.506,0,0,1-.929,1.406c-.31.288-.525.5-.525.668a1.332,1.332,0,0,0,.118.287,22.96,22.96,0,0,0,2.767,4.484A2.707,2.707,0,0,1,34,22.469a2.019,2.019,0,0,1-.929,1.191,4.132,4.132,0,0,1-.645.382c-.287.144-.738.382-.763.55a.914.914,0,0,0,.072.619,5.563,5.563,0,0,0,.287.55c.215.4.619,1.072.024,1.548a6.915,6.915,0,0,1-.6.478,1.591,1.591,0,0,1,.213.931.87.87,0,0,1-.381.62,2.709,2.709,0,0,1-.429.262c-.382.215-.525.31-.572.5a2.21,2.21,0,0,0,.071.788,2.924,2.924,0,0,1,.1.476,3.518,3.518,0,0,1-.215,1.716A2.351,2.351,0,0,1,27.992,34.8a1.982,1.982,0,0,1-.525-.047,46.947,46.947,0,0,1-5.318-1.6c-1.431.834-2.338,3.386-2.577,4.34a.618.618,0,0,1-.619.478L3.066,37.925a.627.627,0,0,1-.5-.262.645.645,0,0,1-.1-.55A5.885,5.885,0,0,1,3.116,35.9a6.524,6.524,0,0,0,.4-.668,13.063,13.063,0,0,0,.715-1.813A22.038,22.038,0,0,0,5,29.672a10.838,10.838,0,0,0-.835-5.558,14.416,14.416,0,0,0-1.719-2.72c-.381-.5-.787-1.048-1.144-1.6A9.715,9.715,0,0,1,.014,16.72a.662.662,0,0,1,.476-.763.6.6,0,0,1,.13-.014.624.624,0,0,1,.609.49,9.254,9.254,0,0,0,1.147,2.7c.332.5.715,1.026,1.072,1.526a14.715,14.715,0,0,1,1.86,2.958,11.807,11.807,0,0,1,.931,6.2A22.177,22.177,0,0,1,5.451,33.8a15.587,15.587,0,0,1-.787,1.978,5.63,5.63,0,0,1-.5.812l-.025.073,14.335.047a10.273,10.273,0,0,1,2.244-4.056l-.575-.19c-.427-.143-.74-.262-.9-.31-2.72-.859-4.079-2.1-4.032-3.674a.648.648,0,0,1,.19-.451.76.76,0,0,1,.454-.168.653.653,0,0,1,.62.644c-.025.668.525,1.6,3.147,2.433.168.071.5.19.932.334.476.166,1.072.381,1.741.6a54.793,54.793,0,0,0,5.439,1.647,1.173,1.173,0,0,0,.219.022,1.135,1.135,0,0,0,1.093-.857,2.548,2.548,0,0,0,.143-1.122c-.024-.143-.048-.262-.071-.4a2.62,2.62,0,0,1-.072-1.361A2.148,2.148,0,0,1,30.211,28.5l.143-.072a3.421,3.421,0,0,0-.238-.4.554.554,0,0,1-.143-.478.572.572,0,0,1,.263-.4c.143-.12.5-.382.762-.6a.371.371,0,0,0-.1-.168c-.094-.19-.215-.382-.309-.619a2.217,2.217,0,0,1-.168-1.408c.143-.787.882-1.169,1.431-1.432a3.361,3.361,0,0,0,.5-.309,2.324,2.324,0,0,0,.382-.31c0-.1-.1-.335-.572-.907a25.755,25.755,0,0,1-2.91-4.7,2.215,2.215,0,0,1-.238-.86,2.273,2.273,0,0,1,.929-1.6c.263-.24.5-.454.525-.644a.868.868,0,0,0-.094-.429,8.221,8.221,0,0,0-.335-.812,8.735,8.735,0,0,1-.644-1.716,15.808,15.808,0,0,0-.572-2.1,10.548,10.548,0,0,0-2.266-3.7,10.408,10.408,0,0,0-5.678-2.7,41.543,41.543,0,0,0-5.937-.856c-.238-.018-.474-.025-.712-.025a11.9,11.9,0,0,0-1.292.072.651.651,0,0,1-.573-.287A.582.582,0,0,1,12.3.429a.567.567,0,0,1,.525-.357A13.9,13.9,0,0,1,14.233,0" transform="translate(3.968 0.001)" fill="#939393" fill-rule="evenodd"/>
      <path id="Path_14423" data-name="Path 14423" d="M4.851,2.436a.565.565,0,0,1,.129.014A9.1,9.1,0,0,1,9.99,4.763a9.645,9.645,0,0,1,2.026,3.292,16.015,16.015,0,0,1,.5,1.931l-1.216.263c-.143-.6-.287-1.192-.476-1.764A8.318,8.318,0,0,0,9.083,5.645a8.023,8.023,0,0,0-4.34-1.957.653.653,0,0,1-.5-.762.627.627,0,0,1,.611-.49" transform="translate(19.61 0.938)" fill="#939393" fill-rule="evenodd"/>
      <path id="Path_14424" data-name="Path 14424" d="M16.936,5.725h0a2.518,2.518,0,0,0-.787,4.746l.976-.19a8.233,8.233,0,0,1,.429-1.051L16.483,7.609a1.233,1.233,0,0,1,.166-1.575V6.011Zm-.047-4.461-.357,1.717a.658.658,0,0,1-.454.478,4.764,4.764,0,0,0-1.145.476.567.567,0,0,1-.317.1.666.666,0,0,1-.374-.12l-1.432-.954-.715.692L13.072,5.1a.621.621,0,0,1,.025.669,5.041,5.041,0,0,0-.5,1.169.614.614,0,0,1-.476.453L10.4,7.728v1l1.717.334a.582.582,0,0,1,.476.453,5.608,5.608,0,0,0,.5,1.169.674.674,0,0,1-.025.668l-.978,1.456.715.691,1.407-.953V11.9a1.239,1.239,0,0,1,.429-.954A3.837,3.837,0,0,1,13.763,6.8a3.788,3.788,0,0,1,3.473-2.361h.057a3.553,3.553,0,0,1,1.122.168,1.2,1.2,0,0,1,.186-.015,1.175,1.175,0,0,1,.7.23l1.6,1.05a9.9,9.9,0,0,1,1.073-.429l.382-1.885a.327.327,0,0,1,.047-.166l-.454-.431-1.454.954a.561.561,0,0,1-.342.111.682.682,0,0,1-.327-.086,4.1,4.1,0,0,0-1.169-.476.69.69,0,0,1-.451-.5l-.335-1.692Zm6.7,2.527-.453,2.266a.616.616,0,0,1-.454.476,7.007,7.007,0,0,0-1.5.622.583.583,0,0,1-.327.1.67.67,0,0,1-.342-.1L18.6,5.868,17.532,6.916l1.287,1.908a.658.658,0,0,1,.025.692A6.173,6.173,0,0,0,18.223,11a.617.617,0,0,1-.476.451l-2.266.454v1.5l2.266.454a.623.623,0,0,1,.476.453,6.846,6.846,0,0,0,.62,1.5.614.614,0,0,1-.025.666l-1.264,1.908,1.05,1.075,1.908-1.289a.635.635,0,0,1,.349-.109.658.658,0,0,1,.32.087,6.86,6.86,0,0,0,1.5.619.585.585,0,0,1,.454.478l.453,2.266h1.5l.453-2.266A.585.585,0,0,1,26,18.771a6.274,6.274,0,0,0,1.479-.619.672.672,0,0,1,.327-.087.574.574,0,0,1,.341.109l1.931,1.264,1.051-1.05-1.289-1.908a.668.668,0,0,1-.024-.666,5.136,5.136,0,0,0,.62-1.5.651.651,0,0,1,.5-.453L33.2,13.4V11.9l-2.266-.454a.645.645,0,0,1-.5-.451,5.9,5.9,0,0,0-.62-1.5.671.671,0,0,1,.024-.668l1.289-1.908L30.077,5.868,28.146,7.131a.566.566,0,0,1-.341.111.67.67,0,0,1-.327-.086A6.4,6.4,0,0,0,26,6.534a.582.582,0,0,1-.454-.476l-.453-2.266ZM17.962,0a1.128,1.128,0,0,1,1.119.907l.288,1.454a3.9,3.9,0,0,1,.738.287l1.242-.812a1.191,1.191,0,0,1,.633-.184,1.117,1.117,0,0,1,.8.328l.548.572a.943.943,0,0,1,.263-.025h1.5a1.276,1.276,0,0,1,1.24,1l.382,1.908a8.062,8.062,0,0,1,1.05.429l1.62-1.075a1.341,1.341,0,0,1,.694-.2,1.243,1.243,0,0,1,.882.367l1.05,1.05a1.3,1.3,0,0,1,.166,1.623L31.1,9.231a5.719,5.719,0,0,1,.453,1.051l1.885.379A1.273,1.273,0,0,1,34.466,11.9v1.5a1.275,1.275,0,0,1-1.025,1.242l-1.885.382A6.815,6.815,0,0,1,31.1,16.1l1.073,1.6a1.293,1.293,0,0,1-.144,1.6l-1.048,1.05a1.3,1.3,0,0,1-.918.375,1.257,1.257,0,0,1-.7-.209l-1.6-1.073a8.061,8.061,0,0,1-1.05.429l-.382,1.908a1.277,1.277,0,0,1-1.24,1h-1.5a1.274,1.274,0,0,1-1.24-1l-.382-1.908a9.9,9.9,0,0,1-1.073-.429l-1.6,1.073a1.237,1.237,0,0,1-.691.209,1.272,1.272,0,0,1-.9-.375L16.649,19.3a1.268,1.268,0,0,1-.166-1.6l1.072-1.6a10.482,10.482,0,0,1-.429-1.072l-1.908-.382a1.174,1.174,0,0,1-.857-.668l-.954.643a1.187,1.187,0,0,1-.622.191,1.066,1.066,0,0,1-.809-.357l-.835-.835A1.122,1.122,0,0,1,11,12.187l.812-1.216c-.119-.238-.215-.5-.31-.74l-1.431-.285a1.144,1.144,0,0,1-.929-1.122V7.634a1.125,1.125,0,0,1,.929-1.122L11.5,6.225a6.961,6.961,0,0,1,.31-.74l-.834-1.24a1.117,1.117,0,0,1,.166-1.408l.835-.857a1.12,1.12,0,0,1,.8-.328,1.191,1.191,0,0,1,.633.184l1.24.812c.24-.12.478-.215.716-.31L15.646.907A1.171,1.171,0,0,1,16.768,0Z" transform="translate(-9.137 0.001)" fill="#939393" fill-rule="evenodd"/>
      <path id="Path_14425" data-name="Path 14425" d="M17.689,7.205a3.16,3.16,0,1,0,3.173,3.171,3.151,3.151,0,0,0-3.173-3.171m0-1.264a4.425,4.425,0,1,1-4.436,4.436,4.427,4.427,0,0,1,4.436-4.436" transform="translate(-2.496 2.287)" fill="#939393" fill-rule="evenodd"/>
      <path id="Path_14426" data-name="Path 14426" d="M16.61,8.681a.632.632,0,1,1,0,1.264.632.632,0,0,1,0-1.264" transform="translate(-1.417 3.342)" fill="#939393" fill-rule="evenodd"/>
      <path id="Path_14427" data-name="Path 14427" d="M4.3,9.145a.616.616,0,0,1,.619.622.632.632,0,1,1-1.263,0A.621.621,0,0,1,4.3,9.145" transform="translate(27.991 3.521)" fill="#939393" fill-rule="evenodd"/>
    </g>
  </g>
</svg>
