<svg xmlns="http://www.w3.org/2000/svg" xmlns:xlink="http://www.w3.org/1999/xlink" width="35.473" height="35.037" viewBox="0 0 35.473 35.037">
  <defs>
    <clipPath id="clip-path">
      <rect id="Rectangle_4254" data-name="Rectangle 4254" width="35.473" height="35.037" fill="#939393"/>
    </clipPath>
  </defs>
  <g id="Group_11897" data-name="Group 11897" transform="translate(0 0)">
    <g id="Group_11896" data-name="Group 11896" transform="translate(0 0)" clip-path="url(#clip-path)">
      <path id="Path_14434" data-name="Path 14434" d="M19.99,1.385a1.8,1.8,0,1,1,.266,3.595c-.095.007-.192.009-.288.009-.192,0-.384-.009-.575-.009H3.329a1.794,1.794,0,0,1-.308-3.574,1.792,1.792,0,0,1,.348-.021Zm8.176,4.994a1.8,1.8,0,1,1,.268,3.595c-.089.007-.181.008-.273.008-.182,0-.372-.008-.549-.008H11.5A1.8,1.8,0,0,1,11.2,6.379ZM15.408,11.355q4.19,0,8.383.015c.2,0,.389.041.637.063-.987.1-1.891.143-2.816.266a10.8,10.8,0,0,0-4.663,1.951c-.493.349-.924.761-1.4,1.131a.859.859,0,0,1-.43.162c-2.713.021-5.424.021-8.134.021a1.778,1.778,0,0,1-1.81-1.458,1.719,1.719,0,0,1,.988-1.951,2.107,2.107,0,0,1,.862-.185q4.19-.014,8.382-.015m-1.316,4.987c-.43.8-.842,1.561-1.231,2.342a8.973,8.973,0,0,0-.392,1.047.274.274,0,0,1-.308.226c-.872-.009-1.746-.009-2.619-.009s-1.748,0-2.62-.011a1.788,1.788,0,0,1-.063-3.575c2.406-.02,4.828-.02,7.231-.02m-2.115,4.992v3.575a1.132,1.132,0,0,1-.164.02c-1.082,0-2.174.009-3.267.009q-.821,0-1.644-.009A1.78,1.78,0,0,1,5.4,22.2a1.643,1.643,0,0,1,1.4-.842c1.725-.021,3.47-.021,5.176-.021M8.63,26.317c1.164,0,2.327.008,3.491.008a.328.328,0,0,1,.246.185,12.493,12.493,0,0,0,1.6,3.391,1.413,1.413,0,0,1-.266.021H7A1.8,1.8,0,0,1,5.217,27.6a1.722,1.722,0,0,1,1.665-1.276q.871-.008,1.748-.008m15-13.427h.073a10.385,10.385,0,0,1,0,20.769h-.037a10.385,10.385,0,0,1-.032-20.771M18.428,0c-1.095,0-2.191.008-3.287.008H3.369A3.138,3.138,0,0,0,.329,1.837,5.214,5.214,0,0,0,0,2.844v.7a8.064,8.064,0,0,0,.637,1.5A3.035,3.035,0,0,0,3.307,6.379h5.4a3.262,3.262,0,0,0,.02,3.595h-1.7a3.2,3.2,0,0,0-2.343,5.444,2.537,2.537,0,0,1,.248.246,3.178,3.178,0,0,0-1.192,2.485,3.242,3.242,0,0,0,1.192,2.485,3.214,3.214,0,0,0-1.192,2.487,3.173,3.173,0,0,0,1.129,2.444A10.955,10.955,0,0,0,4.046,26.8a3.164,3.164,0,0,0,3,4.5c1.285.012,2.564.017,3.843.017s2.557-.005,3.843-.017a.792.792,0,0,1,.615.248,11.388,11.388,0,0,0,5.711,3.185,16.822,16.822,0,0,0,2.013.308h1.315c.843-.145,1.706-.246,2.549-.472a11.238,11.238,0,0,0,5.135-3.042,11.705,11.705,0,0,0,1.87-14.011,11.532,11.532,0,0,0-6.8-5.486c-.349-.1-.432-.349-.6-.678.4,0,.775.011,1.143.011.182,0,.364,0,.542-.011a3.117,3.117,0,0,0,2.958-1.807,3.168,3.168,0,0,0-2.363-4.5C28.536,5,28.249,5,27.96,4.98H22.824c.145-.329.288-.6.39-.9A3.184,3.184,0,0,0,20.071.008C19.525,0,18.976,0,18.428,0" transform="translate(0 0)" fill="#939393" fill-rule="evenodd"/>
      <path id="Path_14435" data-name="Path 14435" d="M20.65,11.326a.693.693,0,0,0-.593.372.679.679,0,0,0,.288.926,2.287,2.287,0,0,0,.308.162,7.573,7.573,0,0,1,3.884,8.034,14.988,14.988,0,0,1-.741,2.239.711.711,0,0,0,.329.964.6.6,0,0,0,.293.077.758.758,0,0,0,.653-.466,9.638,9.638,0,0,0,.986-4.541,8.559,8.559,0,0,0-3.082-6.348A14.189,14.189,0,0,0,21,11.431a.67.67,0,0,0-.352-.105" transform="translate(6.63 3.76)" fill="#939393" fill-rule="evenodd"/>
      <path id="Path_14436" data-name="Path 14436" d="M12.548,14.042h-.043a1.926,1.926,0,0,0-.452.412,8.307,8.307,0,0,0-.944,3.04,8.82,8.82,0,0,0,2.011,6.884,8.623,8.623,0,0,0,2.958,2.32.841.841,0,0,0,.372.1.625.625,0,0,0,.432-.181.561.561,0,0,0,.184-.719,1.147,1.147,0,0,0-.493-.494,7.6,7.6,0,0,1-3.739-9.224c.144-.432.349-.843.493-1.273.161-.442-.169-.864-.779-.864" transform="translate(3.663 4.662)" fill="#939393" fill-rule="evenodd"/>
      <path id="Path_14437" data-name="Path 14437" d="M18.765,10.711a.725.725,0,0,0-.719.7.717.717,0,0,0,.7.678h.036a.68.68,0,0,0,.683-.679.706.706,0,0,0-.7-.7" transform="translate(5.99 3.556)" fill="#939393" fill-rule="evenodd"/>
      <path id="Path_14438" data-name="Path 14438" d="M17.156,23.189a.732.732,0,0,0-.7.678.7.7,0,0,0,.7.7h.035a.7.7,0,0,0,.685-.679.724.724,0,0,0-.719-.7" transform="translate(5.463 7.698)" fill="#939393" fill-rule="evenodd"/>
    </g>
  </g>
</svg>
