<svg xmlns="http://www.w3.org/2000/svg" xmlns:xlink="http://www.w3.org/1999/xlink" width="45.691" height="38.087" viewBox="0 0 45.691 38.087">
  <defs>
    <clipPath id="clip-path">
      <rect id="Rectangle_2846" data-name="Rectangle 2846" width="45.691" height="38.087" fill="#939393"/>
    </clipPath>
  </defs>
  <g id="Group_7841" data-name="Group 7841" transform="translate(0)">
    <g id="Group_7824" data-name="Group 7824" transform="translate(0 0)" clip-path="url(#clip-path)">
      <path id="Path_12851" data-name="Path 12851" d="M4.183,11.373h.041a2.671,2.671,0,1,1-.041,0m18.661,0a2.688,2.688,0,0,1,2.694,2.693,2.721,2.721,0,0,1-2.694,2.645,2.669,2.669,0,0,1,0-5.338m18.691,0h.041a2.674,2.674,0,0,1,2.6,2.714A2.706,2.706,0,0,1,41.5,16.714a.178.178,0,0,1-.041,0,2.669,2.669,0,0,1,.072-5.338m-.01-1.535a4.174,4.174,0,0,0-4.065,3.138,5.253,5.253,0,0,0-.156.644H27.071a1.837,1.837,0,0,1-.088-.333,4.184,4.184,0,0,0-8.234-.023c-.065.289-.154.4-.467.4-1.4-.023-2.8-.023-4.182-.023a3.3,3.3,0,0,1-.4-.042V12.153H12.188v1.488H8.406c-.023-.133-.065-.244-.088-.354A4.14,4.14,0,0,0,4.16,9.851q-.146,0-.293.01a4.205,4.205,0,0,0-3.849,3.78,4.252,4.252,0,0,0,3.226,4.5,4.147,4.147,0,0,0,.94.107,4.237,4.237,0,0,0,3.933-2.712c.112-.311.265-.356.556-.356h9.72a.493.493,0,0,1,.558.356,4.163,4.163,0,0,0,7.808,0,.459.459,0,0,1,.512-.356h4.34a2.2,2.2,0,0,1,.356.046c.023.223.023.445.042.667H33.5c0-.244.023-.444.046-.712.785,0,1.551.011,2.317.011.384,0,.766,0,1.153-.011a.552.552,0,0,1,.6.4A4,4,0,0,0,41.108,18.2a4.79,4.79,0,0,0,.522.029,3.876,3.876,0,0,0,3.283-1.787,9.268,9.268,0,0,0,.78-1.87V13.42c-.023-.111-.068-.223-.089-.333a4.223,4.223,0,0,0-4.027-3.249Z" transform="translate(0 6.157)" fill="#939393" fill-rule="evenodd"/>
      <path id="Path_12852" data-name="Path 12852" d="M29.141,25.08H17.019V20.565H29.141Zm-6.808-6.785c-.021.246-.021.467-.042.735h-5.9c-.667,0-.933.244-.933.911V25.7c0,.689.267.935.956.935H29.764c.67,0,.912-.268.912-.958.023-1.912.023-3.8,0-5.717,0-.689-.242-.933-.977-.933H23.87c-.023-.291-.046-.489-.068-.735Z" transform="translate(9.677 11.45)" fill="#939393" fill-rule="evenodd"/>
      <path id="Path_12853" data-name="Path 12853" d="M16.963,6.073H4.841V1.558H16.963ZM4.285,0c-.758,0-1,.246-1,.979V6.608c0,.777.244,1,1.023,1H17.5c.754,0,1-.223,1-.977V1.024C18.5.246,18.276,0,17.5,0Z" transform="translate(2.055 -0.001)" fill="#939393" fill-rule="evenodd"/>
      <rect id="Rectangle_2839" data-name="Rectangle 2839" width="1.445" height="1.447" transform="translate(12.233 9.186)" fill="#939393"/>
      <rect id="Rectangle_2840" data-name="Rectangle 2840" width="1.491" height="1.467" transform="translate(12.211 12.214)" fill="#939393"/>
      <path id="Path_12854" data-name="Path 12854" d="M8.15,9.367c-.138,0-.275,0-.408.01-.088,0-.223.156-.223.244-.023.4-.023.823-.023,1.224H8.989V9.377c-.281,0-.564-.01-.839-.01" transform="translate(4.692 5.862)" fill="#939393" fill-rule="evenodd"/>
      <rect id="Rectangle_2841" data-name="Rectangle 2841" width="1.468" height="1.468" transform="translate(32.011 23.649)" fill="#939393"/>
      <path id="Path_12855" data-name="Path 12855" d="M20.332,16.389c-.208,0-.419.007-.644.007v1.489H21.2c0-.421,0-.823-.023-1.2,0-.088-.133-.265-.221-.265a5.8,5.8,0,0,0-.626-.029" transform="translate(12.323 10.257)" fill="#939393" fill-rule="evenodd"/>
      <rect id="Rectangle_2842" data-name="Rectangle 2842" width="6.008" height="1.491" transform="translate(28.229 33.526)" fill="#939393"/>
      <rect id="Rectangle_2843" data-name="Rectangle 2843" width="1.447" height="1.47" transform="translate(35.838 33.525)" fill="#939393"/>
      <rect id="Rectangle_2844" data-name="Rectangle 2844" width="6.027" height="1.47" transform="translate(11.456 3.068)" fill="#939393"/>
      <rect id="Rectangle_2845" data-name="Rectangle 2845" width="1.447" height="1.468" transform="translate(8.43 3.092)" fill="#939393"/>
    </g>
  </g>
</svg>
