<svg xmlns="http://www.w3.org/2000/svg" width="36.238" height="36.671" viewBox="0 0 36.238 36.671">
  <g id="gOZpRC.tif" transform="translate(-5109.486 -1543.299)">
    <g id="Group_12832" data-name="Group 12832" transform="translate(5109.486 1543.299)">
      <path id="Path_19021" data-name="Path 19021" d="M5136.665,1567.652l-18.425-4.1a4.546,4.546,0,0,1-8.628-2.786c.547-2.3,2.522-3.572,5.326-3.393l2.036-5.225a4.559,4.559,0,0,1-2.183-3.45,4.381,4.381,0,0,1,.751-2.974,4.537,4.537,0,0,1,8.024,4.092c.428.247.862.5,1.3.746,2.163,1.236,4.329,2.467,6.487,3.711.217.125.337.139.521-.064a4.308,4.308,0,0,1,2.226-1.295c.093-.023.184-.056.29-.088V1543.3l11.037,5.016c-.159.07-.258.121-.362.159-2.882,1.047-5.761,2.1-8.649,3.129-.382.136-.541.3-.515.723.022.356.064.536.474.647a4.5,4.5,0,0,1,3.236,5.169,4.528,4.528,0,1,1-8.8-2.081c.027-.094.052-.188.087-.315l-8.15-4.658a1.477,1.477,0,0,1-.183.295,4.487,4.487,0,0,1-3.92,1.355c-.1-.012-.282.051-.312.125-.67,1.685-1.325,3.377-1.989,5.082a4.613,4.613,0,0,1,2.208,4.128l18.442,4.105a4.57,4.57,0,0,1,2.64-2.543,4.394,4.394,0,0,1,2.821-.1,4.532,4.532,0,1,1-5.375,6.277l-18.544,5.151a4.55,4.55,0,0,1-1.374,3.722,4.465,4.465,0,0,1-2.9,1.276,4.533,4.533,0,1,1,3.876-6.458c.757-.208,1.523-.417,2.288-.629,5.294-1.47,10.585-2.948,15.885-4.4C5136.841,1568.326,5136.618,1567.982,5136.665,1567.652Zm7.536.241a3.016,3.016,0,1,0-6.032,0,3.016,3.016,0,0,0,6.032,0Zm-33.2-6.06a3.017,3.017,0,1,0,3.03-3.01A3.015,3.015,0,0,0,5111,1561.832Zm2.986,16.612A3.017,3.017,0,1,0,5111,1575.4,3.022,3.022,0,0,0,5113.986,1578.444Zm8.32-30.172a3.016,3.016,0,1,0-6.032-.023,3.016,3.016,0,0,0,6.032.023Zm12.079,6.173a2.921,2.921,0,0,0-2.235,3.133,3.011,3.011,0,0,0,6.01-.223,2.875,2.875,0,0,0-2.264-2.893v2.815h-1.511Zm1.548-4.262,5.526-2.01-5.526-2.512Z" transform="translate(-5109.486 -1543.299)" fill="#bababa"/>
    </g>
  </g>
</svg>
