<svg id="Group_11899" data-name="Group 11899" xmlns="http://www.w3.org/2000/svg" xmlns:xlink="http://www.w3.org/1999/xlink" width="45.589" height="36.566" viewBox="0 0 45.589 36.566">
  <defs>
    <clipPath id="clip-path">
      <rect id="Rectangle_4255" data-name="Rectangle 4255" width="45.589" height="36.566" fill="#939393"/>
    </clipPath>
  </defs>
  <g id="Group_11898" data-name="Group 11898" transform="translate(0 0)" clip-path="url(#clip-path)">
    <path id="Path_14439" data-name="Path 14439" d="M15.966,2.735c-.031.019-.065.034-.1.056A15.252,15.252,0,0,1,24.55,0a15.744,15.744,0,0,1,3.268.35A15.539,15.539,0,0,1,37.964,7.671c.572-.616,1.092-1.185,1.618-1.754.3-.306.591-.616.888-.922a1.575,1.575,0,0,0,.681-1.754A2.088,2.088,0,0,1,42.494.969,2.046,2.046,0,0,1,43.361.78a2.2,2.2,0,0,1,1.68.8,2.356,2.356,0,0,1,.229,2.7,2.179,2.179,0,0,1-1.891,1.163,2.079,2.079,0,0,1-.545-.074.99.99,0,0,0-.294-.05.729.729,0,0,0-.548.288c-.978,1.04-1.977,2.082-2.98,3.1a.553.553,0,0,0-.114.777c4.072,9.286-.749,20.039-10.239,22.62a16.121,16.121,0,0,1-4.218.579,15.093,15.093,0,0,1-10.276-4.224c-.114-.1-.2-.189-.365-.306a1.134,1.134,0,0,0-.408,1.064,2.152,2.152,0,0,1-.888,2.225,2.127,2.127,0,0,1-1.281.446,2.473,2.473,0,0,1-1.061-.257.986.986,0,0,0-.4-.084.615.615,0,0,0-.288.062c-1.547.712-3.094,1.445-4.642,2.154a.548.548,0,0,0-.387.594,2.279,2.279,0,0,1-1.73,2.154A2.225,2.225,0,0,1,.238,35.285a2.389,2.389,0,0,1,.526-2.794,2.086,2.086,0,0,1,1.445-.579,2.369,2.369,0,0,1,1.284.39.99.99,0,0,0,.439.155.317.317,0,0,0,.084-.012Q6.509,31.307,9,30.1c-.164-1.717.77-2.8,2.157-2.8a3.314,3.314,0,0,1,1.142.223c.365-.309.455-.569.09-1.018A16.89,16.89,0,0,1,12,6.7c-.124.176-.232.362-.35.542a16.933,16.933,0,0,1,4.314-4.5m-13,31.51a.765.765,0,0,0-.736-.786l-.037,0a.784.784,0,0,0-.706.783A.77.77,0,0,0,2.243,35a.766.766,0,0,0,.727-.758m8.986-4.669a.779.779,0,0,0-.736-.78h-.034a.764.764,0,0,0-.727.758.779.779,0,0,0,.7.78l.04,0a.791.791,0,0,0,.755-.761M42.63,3.1a.7.7,0,0,0,.681.783h.04a.764.764,0,0,0,.736-.712.78.78,0,0,0-.684-.829l-.074,0a.738.738,0,0,0-.7.761m-5.118,7.176c-.275.285-.526.594-.82.854a.59.59,0,0,0-.183.687,2.317,2.317,0,0,1-1.092,2.7,2.131,2.131,0,0,1-2.8-.665.556.556,0,0,0-.48-.275,1.041,1.041,0,0,0-.158.015c-1.247.214-2.525.4-3.775.545-.433.071-.591.214-.659.641a3.743,3.743,0,0,1-3.119,3.079,3.138,3.138,0,0,1-.507.037,4.14,4.14,0,0,1-2.086-.631c-.82.854-1.637,1.708-2.435,2.559a.565.565,0,0,0-.068.473,2.339,2.339,0,0,1-2.16,3.054.727.727,0,0,0-.5.285c-.684,1.018-1.343,2.086-2.027,3.128a13.728,13.728,0,0,0,18.909,1.089,14.972,14.972,0,0,0,3.961-17.576M17.17,21.787a.788.788,0,0,0,.752-.758.777.777,0,0,0-.709-.808h-.037a.786.786,0,0,0-.006,1.566M23.9,16.338a2.335,2.335,0,1,0-2.228-2.37,2.276,2.276,0,0,0,2.228,2.37m10.468-3.1a.747.747,0,0,0,.727-.758.738.738,0,0,0-.684-.8h-.037a.783.783,0,0,0-.006,1.563M23.244,1.677c-5.619.591-9.648,3.766-11.765,9.212-2,5.236-1.136,10.162,2.095,14.735.684-1.068,1.318-2.039,1.934-3.036a1.073,1.073,0,0,0-.114-.164,2.422,2.422,0,0,1-.043-2.773A2.092,2.092,0,0,1,17.17,18.7a3.427,3.427,0,0,1,.706.08.355.355,0,0,0,.1.012.6.6,0,0,0,.442-.2c.684-.662,1.321-1.374,2-2.036a.591.591,0,0,0,.136-.851,3.766,3.766,0,0,1-.183-2.94,3.681,3.681,0,0,1,3.37-2.63c.068,0,.133,0,.2,0a3.587,3.587,0,0,1,3.283,2.113c.087.158.3.4.436.4h.019c1.411-.192,2.819-.4,4.233-.641.136-.022.272-.189.34-.331a2.229,2.229,0,0,1,2.1-1.535,2.99,2.99,0,0,1,.7.09.753.753,0,0,0,.118.009.577.577,0,0,0,.362-.105c.455-.424.888-.851,1.365-1.349C33.914,4.112,29.94,1.594,24.881,1.594c-.532,0-1.077.028-1.637.084" transform="translate(0 0)" fill="#939393" fill-rule="evenodd"/>
  </g>
</svg>
