<svg xmlns="http://www.w3.org/2000/svg" xmlns:xlink="http://www.w3.org/1999/xlink" width="34.571" height="24.742" viewBox="0 0 34.571 24.742">
  <defs>
    <clipPath id="clip-path">
      <rect id="Rectangle_4286" data-name="Rectangle 4286" width="34.571" height="24.742" fill="#003d4f"/>
    </clipPath>
  </defs>
  <g id="Group_11988" data-name="Group 11988" transform="translate(0 0)">
    <g id="Group_11987" data-name="Group 11987" transform="translate(0 0)" clip-path="url(#clip-path)">
      <path id="Path_14582" data-name="Path 14582" d="M13.756,24.694a.627.627,0,0,1-.481-.239c-.24-.238-.361-.477-.24-.716l3.727-10.022L7.5,17.416a.747.747,0,0,1-.842-.119L.171,10.854c-.12-.119-.24-.477-.12-.6a.656.656,0,0,1,.36-.6L5.46,7.513c.241-.119.482,0,.6,0L10.15,9.542,29.506,1.19A3.676,3.676,0,0,1,34.315,3.1a3.551,3.551,0,0,1-2.043,4.653l-6.493,2.386L20.128,21.353c-.12.238-.24.238-.36.357L14,24.574c-.12,0-.12.12-.24.12m4.328-12.886a.609.609,0,0,1,.6.955l-3.606,9.664,3.848-1.91L24.576,9.3a1.66,1.66,0,0,1,.482-.358L31.79,6.44A2.048,2.048,0,0,0,32.872,3.7,2,2,0,0,0,30.107,2.5L10.39,10.974a.551.551,0,0,1-.6,0L5.7,8.945l-3.728,1.67,5.411,5.368,10.34-4.175Z" transform="translate(0 0.048)" fill="#003d4f" fill-rule="evenodd"/>
      <path id="Path_14583" data-name="Path 14583" d="M17.684,7.644a.37.37,0,0,1-.239-.119L7.761,3.583a.806.806,0,0,1-.478-.717.8.8,0,0,1,.478-.6L13.141,0h.477l9.564,3.941c.358.239.6.6.358.955a.66.66,0,0,1-.956.358L13.38,1.433,9.913,2.867,18.042,6.21a.752.752,0,0,1,.359.956.81.81,0,0,1-.718.477" transform="translate(0.392 0)" fill="#003d4f" fill-rule="evenodd"/>
    </g>
  </g>
</svg>
