<svg xmlns="http://www.w3.org/2000/svg" width="31.49" height="31.532" viewBox="0 0 31.49 31.532">
  <path id="Path_14858" data-name="Path 14858" d="M339.314,841.347v.981a.794.794,0,0,0-.206.018,5.763,5.763,0,0,1-.776.035,2.873,2.873,0,0,1-1.7-.689A15.827,15.827,0,0,1,339.314,841.347Zm4.409.516a14.758,14.758,0,0,1,7.922,5.443,26.552,26.552,0,0,1-3.995,1.1A14.1,14.1,0,0,0,343.723,841.863Zm-3.342-.516a.106.106,0,0,1,.07.017h.035c2.617.483,4.857,3.307,6.114,7.25a42.029,42.029,0,0,1-6.235.552v-7.819Zm6.528,8.284a24.712,24.712,0,0,1,.793,5.839h-7.337V850.2A41.834,41.834,0,0,0,346.909,849.631Zm5.34-1.446a14.509,14.509,0,0,1,2.273,7.267l-5.77.018a25.45,25.45,0,0,0-.81-6.046A26.652,26.652,0,0,0,352.249,848.185Zm-13.686,5.7a1.69,1.69,0,0,1,.6.19c.051.018.1.052.154.068v2.1l-.138-.1c-.741-.551-1.239-.965-1.239-1.568a.69.69,0,0,1,.447-.654A.483.483,0,0,1,338.563,853.884ZM335.474,842a3.842,3.842,0,0,0,2.808,1.428h.189a4.577,4.577,0,0,0,.723-.052h.12v9.628a1.626,1.626,0,0,0-.728-.172,1.714,1.714,0,0,0-.58.1,1.755,1.755,0,0,0-1.12,1.636,3.135,3.135,0,0,0,1.67,2.412c.086.068.189.137.276.207a3.5,3.5,0,0,1,.482.534v.723c-1.068-.259-2.152-.534-3.238-.793-.878-.224-1.791-.482-2.152-1.137a3.094,3.094,0,0,1-.276-.946,3.747,3.747,0,0,0-.534-1.465,3.637,3.637,0,0,0-2.084-1.136l-.086-.017c-.5-.155-1.172-.414-1.361-.9a2.133,2.133,0,0,1,.224-1.412,3.284,3.284,0,0,0,.276-1.981,1.719,1.719,0,0,0-.93-1.188,2.071,2.071,0,0,0-.9-.2c-.073,0-.146,0-.218.009A14.6,14.6,0,0,1,335.474,842ZM347.7,856.519a25.633,25.633,0,0,1-.775,5.822,41.778,41.778,0,0,0-6.562-.568v-5.254Zm6.82,0A14.735,14.735,0,0,1,352.3,863.8a25.918,25.918,0,0,0-4.358-1.257,26.386,26.386,0,0,0,.81-6.028Zm-6.872,7.027A25.238,25.238,0,0,1,351.7,864.7a15,15,0,0,1-1.98,2.2,14.676,14.676,0,0,1-6.183,3.342A14.1,14.1,0,0,0,347.65,863.546Zm-19.409-15.224a1.291,1.291,0,0,1,.447.086.691.691,0,0,1,.379.516,2.335,2.335,0,0,1-.258,1.362,2.994,2.994,0,0,0-.207,2.152,2.919,2.919,0,0,0,2.049,1.515l.086.036a2.7,2.7,0,0,1,1.533.757,3.057,3.057,0,0,1,.345,1.034,3.613,3.613,0,0,0,.4,1.239,4.088,4.088,0,0,0,2.825,1.654c1.136.276,2.29.568,3.427.86h.051v1.4a2,2,0,0,0-.534.379,4.34,4.34,0,0,0-.758,1.308c-.1.207-.189.414-.292.586a2.8,2.8,0,0,1-.758.913,1.523,1.523,0,0,1-.431.241,2.614,2.614,0,0,0-.844.568,2.361,2.361,0,0,0-.516,1.137,3.064,3.064,0,0,1-.173.568,2.747,2.747,0,0,0-.413,1.361,2.627,2.627,0,0,0,1.223,2.049c.1.069.224.155.344.224A14.67,14.67,0,0,1,325.14,856.02a14.849,14.849,0,0,1,1.378-6.2l.035-.087a2.962,2.962,0,0,1,.636-1.015.876.876,0,0,1,.327-.226A1.812,1.812,0,0,1,328.241,848.322Zm12.124,14.485a42.613,42.613,0,0,1,6.269.55c-1.291,4.047-3.6,6.855-6.269,7.268Zm-1.051-.449v8.353l-.792-.051a5.166,5.166,0,0,0-1.395-1.034c-.241-.155-.483-.292-.689-.447a1.648,1.648,0,0,1-.792-1.189,1.767,1.767,0,0,1,.293-.878,3.27,3.27,0,0,0,.258-.793,1.485,1.485,0,0,1,.276-.688,2,2,0,0,1,.516-.328,2.251,2.251,0,0,0,.62-.361,4.1,4.1,0,0,0,1.033-1.206c.121-.224.224-.465.327-.689C339.073,862.807,339.194,862.582,339.314,862.358Zm.356-22.112a5.566,5.566,0,0,0-.872.068,15.7,15.7,0,0,0-12.5,7.7.352.352,0,0,0-.07.189,4.842,4.842,0,0,0-.619,1.086l-.036.085a15.747,15.747,0,0,0,12.607,22.3,13.3,13.3,0,0,0,1.654.1h.016a15.71,15.71,0,0,0,13.039-6.957.407.407,0,0,0,.1-.155,15.852,15.852,0,0,0,2.6-8.646v-.034a15.79,15.79,0,0,0-15.138-15.69A6.39,6.39,0,0,0,339.67,840.246Z" transform="translate(-324.099 -840.246)" fill="#003d4f" fill-rule="evenodd"/>
</svg>
