<svg xmlns="http://www.w3.org/2000/svg" width="34.186" height="34.526" viewBox="0 0 34.186 34.526">
  <g id="Group_12191" data-name="Group 12191" transform="translate(-90.198 -26.785)">
    <path id="Path_14926" data-name="Path 14926" d="M129.752,26.788a.788.788,0,0,0-.863.785v5.181a48.307,48.307,0,0,1-9.7.971,48.359,48.359,0,0,1-9.7-.971V27.574h0a.788.788,0,0,0-.863-.785c-1.709.162-5.684.776-5.684,2.99V46.354c0,1.966,2.008,3.683,5.972,5.1a33.308,33.308,0,0,0,20.565,0c3.961-1.421,5.972-3.139,5.972-5.1V29.779c0-2.214-3.978-2.829-5.687-2.99Zm4.821,2.99c0,.986-1.8,2.02-4.821,2.772V27.658C131.992,27.879,134.572,28.564,134.572,29.779Zm-25.957-2.123v4.893c-3.022-.753-4.821-1.787-4.821-2.772C103.8,28.564,106.376,27.879,108.615,27.656ZM103.794,31.4a11.931,11.931,0,0,0,4.821,2.043v8.408a9.591,9.591,0,0,0-3.261,1.408h0a8.213,8.213,0,0,0-1.559,1.264Zm25.381,19.241a32.446,32.446,0,0,1-19.982,0c-3.531-1.266-5.4-2.751-5.4-4.291,0-.675.738-1.537,2.026-2.366a8.564,8.564,0,0,1,2.933-1.28h0a.791.791,0,0,0,.724-.786V33.641a49.858,49.858,0,0,0,9.7.945,49.859,49.859,0,0,0,9.7-.945v8.281a.791.791,0,0,0,.724.786,8.564,8.564,0,0,1,2.933,1.28c1.288.829,2.026,1.691,2.026,2.366,0,1.541-1.867,3.025-5.4,4.292Zm3.839-7.383a9.59,9.59,0,0,0-3.261-1.408V33.447a11.959,11.959,0,0,0,4.821-2.043V44.526a8.2,8.2,0,0,0-1.56-1.264Z" transform="translate(-11.894 0)" fill="#003d4f"/>
    <path id="Path_14927" data-name="Path 14927" d="M234.242,58.056a12.524,12.524,0,0,0-15.915,0c-.342.324-.791,1.1-.751,4.135.021,1.6.17,3.045.176,3.106h0a.433.433,0,0,0,.078.2.9.9,0,0,1,.2-.791.667.667,0,0,1,.184-.184.706.706,0,0,1,.309-.163l.018,0c-.042-.57-.089-1.367-.1-2.188-.036-2.781.36-3.375.482-3.491a11.676,11.676,0,0,1,14.728,0c.122.116.518.71.481,3.491-.011.83-.059,1.631-.1,2.2h0a.671.671,0,0,1,.065.058c.013.012.024.026.037.039a.72.72,0,0,1,.226.144.774.774,0,0,1,.47.592c.034-.348.149-1.625.168-3.014.04-3.033-.409-3.814-.751-4.137Z" transform="translate(-118.996 -26.549)" fill="#003d4f"/>
    <path id="Path_14928" data-name="Path 14928" d="M412.152,339.041a.837.837,0,0,1-.552-.188c-.569-.479-.21-1.538.135-1.947a1.151,1.151,0,1,1,1.76,1.479,2.008,2.008,0,0,1-1.342.656Zm.463-1.682a.288.288,0,0,0-.219.1.408.408,0,1,0,.439.371.29.29,0,0,0-.219-.474Z" transform="translate(-299.979 -289.29)" fill="#003d4f"/>
    <path id="Path_14929" data-name="Path 14929" d="M414.877,362.769a2.1,2.1,0,0,1-.27-.018,1.3,1.3,0,0,1-1.057-.7h0a.432.432,0,0,1,.778-.376.465.465,0,0,0,.393.222,1.319,1.319,0,0,0,.991-.271h0a.432.432,0,1,1,.652.566,2.064,2.064,0,0,1-1.488.579Z" transform="translate(-302.039 -312.629)" fill="#003d4f"/>
    <path id="Path_14930" data-name="Path 14930" d="M124.19,183.517a.739.739,0,0,0-.381-.459,1.206,1.206,0,0,0-.93-.064,1.519,1.519,0,0,0-.9,1,3.68,3.68,0,0,0-2.458-1.9,3.749,3.749,0,0,0-3.03,1.231c-.233-.121-.471-.233-.712-.334-.443-.186-.884-.327-1.311-.464a4.8,4.8,0,0,1-2.978-1.871,4.919,4.919,0,0,1-.675-2.069h0a7.637,7.637,0,0,0,.776-.7,5.136,5.136,0,0,0,1.336-3.368c2.939-.528,3.085-3.358,3.175-5.092h0a2.348,2.348,0,0,0-1.949-2.432,48.434,48.434,0,0,0-13.724,0h0a2.348,2.348,0,0,0-1.949,2.432c.089,1.736.235,4.568,3.18,5.094a5.126,5.126,0,0,0,1.337,3.366,7.656,7.656,0,0,0,.776.7,4.927,4.927,0,0,1-.675,2.069,4.8,4.8,0,0,1-2.978,1.871c-.427.137-.868.278-1.311.464q-.36.151-.71.333a3.753,3.753,0,0,0-3.029-1.233,3.672,3.672,0,0,0-2.459,1.905,1.518,1.518,0,0,0-.9-1h0a1.2,1.2,0,0,0-.931.065.74.74,0,0,0-.381.458c-.337,1.291-.149,5.583-.053,7.369a1.008,1.008,0,0,0,1.007.953h31.893a1.008,1.008,0,0,0,1.007-.953c.1-1.783.282-6.075-.055-7.366Zm-23.619-15.674a47.65,47.65,0,0,1,13.432,0h0a1.485,1.485,0,0,1,.818.432,88.637,88.637,0,0,0-15.067,0,1.489,1.489,0,0,1,.817-.432Zm-1.232,1.538a1.471,1.471,0,0,1,.005-.2,87.666,87.666,0,0,1,15.887,0,1.426,1.426,0,0,1,0,.2c-.117,2.286-.422,4.188-2.981,4.35a8.923,8.923,0,0,1-3.016-.318,7.1,7.1,0,0,0-3.9,0,8.913,8.913,0,0,1-3.015.318c-2.564-.163-2.869-2.064-2.986-4.348Zm4.3,7.881a4.237,4.237,0,0,1-1.085-2.657c.117,0,.234.006.351.006a9.7,9.7,0,0,0,2.662-.37,6.24,6.24,0,0,1,3.425,0,9.743,9.743,0,0,0,3.022.36,4.236,4.236,0,0,1-1.084,2.658,6.046,6.046,0,0,1-3.647,1.909,6.032,6.032,0,0,1-3.644-1.906Zm6.507,2.455a6.417,6.417,0,0,1-5.674-.189c.033-.136.06-.266.082-.389a4.473,4.473,0,0,0,5.464,0c.03.178.073.373.128.577ZM96.06,190.975H91.343a.144.144,0,0,1-.144-.136,49.28,49.28,0,0,1-.017-6.9h0a.172.172,0,0,1,.206-.14.143.143,0,0,1,.036.009c.353.122.52.842.531,1.529a7.523,7.523,0,0,0-.317,1.109.432.432,0,0,0,.353.512.443.443,0,0,0,.5-.356,6.609,6.609,0,0,1,.3-1.014.3.3,0,0,0,.012-.032c.5-1.305,1.4-2.492,2.375-2.61a3.309,3.309,0,0,1,3.041,2.074c.526,1.322-.583,3.222-1.474,4.749-.253.427-.491.836-.678,1.205Zm.979,0c.135-.243.288-.5.443-.77.986-1.689,2.212-3.79,1.534-5.5a3.868,3.868,0,0,0-.36-.69c.161-.08.325-.155.49-.225.409-.171.831-.307,1.24-.437a5.618,5.618,0,0,0,3.438-2.22h0a4.474,4.474,0,0,0,.4-.77,7.871,7.871,0,0,0,3.368.788,6.89,6.89,0,0,0,2.86-.612,4.379,4.379,0,0,0,.323.594,5.619,5.619,0,0,0,3.438,2.22c.409.131.831.266,1.24.437.166.072.329.144.491.225h0a3.822,3.822,0,0,0-.36.69c-.682,1.714.545,3.814,1.531,5.5.156.268.307.527.442.771Zm26.343-.136h0a.144.144,0,0,1-.144.136h-4.717c-.186-.369-.425-.778-.675-1.206-.891-1.526-2-3.426-1.474-4.749a3.307,3.307,0,0,1,3.04-2.074c.969.117,1.871,1.305,2.375,2.61,0,.011.244.723.313,1.062h0a.432.432,0,0,0,.518.335.443.443,0,0,0,.324-.525,7.518,7.518,0,0,0-.313-1.09c.012-.687.178-1.408.532-1.529a.347.347,0,0,1,.079-.016.144.144,0,0,1,.155.117,48.9,48.9,0,0,1-.012,6.929Z" transform="translate(0 -130.524)" fill="#003d4f"/>
  </g>
</svg>
