<svg xmlns="http://www.w3.org/2000/svg" width="32.215" height="32.214" viewBox="0 0 32.215 32.214">
  <path id="Path_16305" data-name="Path 16305" d="M28.049,664.687l.328,1.71.329.073a7.236,7.236,0,0,1,2.255.946l.292.184,1.454-.985,1.676,1.676-.62,1.383a3.542,3.542,0,0,0-1.09.728c0,.037-.037.037-.037.073a6.785,6.785,0,0,0-11.5.034,3.281,3.281,0,0,0-1.129-.835l-.583-1.383,1.676-1.676,1.455.985.255-.184a8.041,8.041,0,0,1,2.258-.946l.326-.073.364-1.71Zm-1.163,3.64a5.725,5.725,0,0,1,5.058,3.057,4.146,4.146,0,0,0-.363,1.639v1.018a3.58,3.58,0,0,0,1.565,2.986v.255l-2.074.51-2.112-.51v-.255a3.583,3.583,0,0,0,1.565-2.986v-.911a3.7,3.7,0,0,0-3.532-3.747c-.044,0-.088,0-.135,0a3.5,3.5,0,0,0-2.486,1.022,3.552,3.552,0,0,0-1.129,2.621v1.018a3.676,3.676,0,0,0,1.567,2.986v.255l-2.078.51-2.074-.51v-.255a3.674,3.674,0,0,0,1.565-2.986v-.911a4.069,4.069,0,0,0-.4-1.71A5.65,5.65,0,0,1,26.886,668.327ZM18.658,670.4a2.71,2.71,0,0,1,2.51,2.728v.911a2.613,2.613,0,0,1-1.31,2.257l-.255.146v1.639l1.785.473a2.624,2.624,0,0,0-.729,1.783v.4l-1.637.365h0l.034-.145.038-.947-2.729-1.6,1.163-.325v-1.639l-.255-.146a2.616,2.616,0,0,1-1.31-2.257v-1.018a2.5,2.5,0,0,1,.8-1.857A2.672,2.672,0,0,1,18.658,670.4Zm16.635,0A2.712,2.712,0,0,1,37.8,673.13v.911a2.539,2.539,0,0,1-1.31,2.257l-.255.146v1.639l2.621.654-5.715,3.023v-1.421a2.508,2.508,0,0,0-.764-1.783l1.783-.473v-1.639l-.255-.146a2.613,2.613,0,0,1-1.31-2.257v-1.018a2.5,2.5,0,0,1,.8-1.857A2.667,2.667,0,0,1,35.294,670.4Zm-8.337,0a2.717,2.717,0,0,1,2.55,2.728v.911A2.616,2.616,0,0,1,28.2,676.3l-.256.146v1.639l2.984.764a1.552,1.552,0,0,1,1.167,1.492V682.3l-.111.074h-.329l-3.2-.91a2.762,2.762,0,0,0-.765-.11l-2.366-.765a6.7,6.7,0,0,0-1.955-.3,5.868,5.868,0,0,0-1.359.155l-.328.071v-.181a1.588,1.588,0,0,1,1.2-1.492l2.984-.764v-1.639l-.255-.146a2.618,2.618,0,0,1-1.31-2.257v-1.018a2.5,2.5,0,0,1,.8-1.857A2.593,2.593,0,0,1,26.957,670.4Zm-14.777,6.77,3.747,2.185-1.891,7.533-2.221-.727v-8.991Zm4.695,2.73,1.164.69v.145l-1.928,6.844h-.037l-1.019-.363Zm25.08-1.638v5.861l-8.737,4.367c-.034,0-.072-.036-.108-.073l-4.367-3.969a2.16,2.16,0,0,0-2.476-.218L24.3,685.4a.6.6,0,0,1-.326.107.729.729,0,0,1-.729-.727v-.111a.67.67,0,0,1,.4-.617l2.912-1.457a2.455,2.455,0,0,1,1.014-.22,2.29,2.29,0,0,1,.587.076l3.275.945h.8ZM21.1,687.582a.575.575,0,0,1,.581.582.547.547,0,0,1-.145.4l-.911.908a.593.593,0,0,1-1.019-.4.667.667,0,0,1,.184-.438l.908-.91A.55.55,0,0,1,21.1,687.582Zm1.565,1.565a.574.574,0,0,1,.581.583.541.541,0,0,1-.145.4l-.908.91a.671.671,0,0,1-.438.18.6.6,0,0,1-.583-.58.6.6,0,0,1,.184-.438l.908-.908A.545.545,0,0,1,22.663,689.147Zm1.565,1.531a.591.591,0,0,1,.4,1.019l-.908.908a.551.551,0,0,1-.4.147.577.577,0,0,1-.583-.583.586.586,0,0,1,.184-.4l.908-.909A.583.583,0,0,1,24.227,690.678Zm-.8-9.352a4.97,4.97,0,0,1,1.57.25l.764.255-2.584,1.31a1.7,1.7,0,0,0-.947,1.528v.111a1.725,1.725,0,0,0,1.749,1.746,1.508,1.508,0,0,0,.872-.255l1.93-1.164a1.138,1.138,0,0,1,.539-.136,1.092,1.092,0,0,1,.734.281l4.37,3.931a.494.494,0,0,1,.181.438.536.536,0,0,1-.547.544H31.98a.538.538,0,0,1-.363-.108l-2.841-2.366-.654.8,2.729,2.292a.461.461,0,0,1,.22.4.561.561,0,0,1-.547.547h-.11a.461.461,0,0,1-.363-.147l-2.841-2.33-.654.8,2.729,2.255a.524.524,0,0,1,.22.44.56.56,0,0,1-.547.546.732.732,0,0,1-.546-.22l-1.167-.945a1.555,1.555,0,0,0-1.383-.912,1.655,1.655,0,0,0-1.565-1.565,1.655,1.655,0,0,0-1.566-1.565,1.639,1.639,0,0,0-1.636-1.565,1.665,1.665,0,0,0-1.129.475l-.912.909a.728.728,0,0,0-.144.181l-1.6-.945,1.385-4.914,3.529-.765A5.087,5.087,0,0,1,23.422,681.326Zm2.371,10.917a.574.574,0,0,1,.582.581.672.672,0,0,1-.184.438l-.908.908a.544.544,0,0,1-.4.147.575.575,0,0,1-.582-.583.587.587,0,0,1,.183-.4l.91-.908A.578.578,0,0,1,25.794,692.243Zm1.491,1.237.436.4a.517.517,0,0,1,.22.438.559.559,0,0,1-.546.546h-.111a.767.767,0,0,1-.364-.146l-.363-.363.4-.365C27.066,693.843,27.175,693.661,27.284,693.48Zm-2.366-29.811-.4,1.89a7.773,7.773,0,0,0-1.967.8l-1.6-1.056-2.766,2.731.583,1.347h-.073c-.046,0-.094,0-.14,0a3.579,3.579,0,0,0-2.517,1.022,3.656,3.656,0,0,0-1.092,2.621v1.018a3.583,3.583,0,0,0,1.565,2.986v.255l-1.455.363-2.584-1.528H10.8V686.89l5.1,1.71h.982l.145-.436,1.565.949a1.6,1.6,0,0,0,1.565,1.565,1.605,1.605,0,0,0,1.566,1.565,1.6,1.6,0,0,0,1.528,1.565,1.644,1.644,0,0,0,1.638,1.566,1.6,1.6,0,0,0,.912-.292l.473.4a1.493,1.493,0,0,0,1.018.4h.111a1.555,1.555,0,0,0,1.565-1.565,1.555,1.555,0,0,0,1.565-1.565,1.55,1.55,0,0,0,1.566-1.532,1.607,1.607,0,0,0,1.565-1.6v-.184l9.354-4.658v-7.608H41.846l-1.749.911a2.883,2.883,0,0,0-.616-.255l-2.185-.547v-.255a3.587,3.587,0,0,0,1.565-2.986v-.911a3.728,3.728,0,0,0-3.533-3.747h-.289l.544-1.347L32.854,665.3l-1.639,1.056a8.119,8.119,0,0,0-1.929-.8l-.4-1.89Z" transform="translate(-10.795 -663.669)" fill="#003d4f" fill-rule="evenodd"/>
</svg>
