<svg xmlns="http://www.w3.org/2000/svg" width="39.446" height="30.194" viewBox="0 0 39.446 30.194">
  <g id="Group_12190" data-name="Group 12190" transform="translate(-104.975 49.882)">
    <path id="Path_14921" data-name="Path 14921" d="M114.369-47.194v25.283H106.39V-47.194Zm9.415,0v25.283h-7.979V-47.194ZM105.67-48.609a.707.707,0,0,0-.695.7v26.715a.707.707,0,0,0,.695.7h18.814a.713.713,0,0,0,.716-.7V-47.91a.713.713,0,0,0-.716-.7Z" transform="translate(0 0.807)" fill="#003d4f" fill-rule="evenodd"/>
    <path id="Path_14922" data-name="Path 14922" d="M126.5-48.274l8.433,23.851-7.506,2.659-8.454-23.85Zm.441-1.608a.664.664,0,0,0-.235.042l-8.866,3.131a.658.658,0,0,0-.4.361.73.73,0,0,0-.038.528l8.9,25.188a.733.733,0,0,0,.678.471.816.816,0,0,0,.227-.038l8.871-3.131a.835.835,0,0,0,.4-.356.684.684,0,0,0,.016-.549L127.6-49.406A.677.677,0,0,0,126.945-49.882Z" transform="translate(7.867 0)" fill="#003d4f" fill-rule="evenodd"/>
    <path id="Path_14923" data-name="Path 14923" d="M116.748-44.157v4.4H113.6v-4.4ZM112.9-45.572a.7.7,0,0,0-.7.716v5.79a.7.7,0,0,0,.7.721h4.547a.715.715,0,0,0,.716-.721v-5.79a.715.715,0,0,0-.716-.716Z" transform="translate(4.584 2.734)" fill="#003d4f" fill-rule="evenodd"/>
    <path id="Path_14924" data-name="Path 14924" d="M111-44.157v4.4h-3.131v-4.4Zm-3.831-1.415a.715.715,0,0,0-.716.716v5.79a.715.715,0,0,0,.716.721h4.547a.715.715,0,0,0,.7-.721v-5.79a.714.714,0,0,0-.7-.716Z" transform="translate(0.938 2.734)" fill="#003d4f" fill-rule="evenodd"/>
    <path id="Path_14925" data-name="Path 14925" d="M124.423-44.675l1.437,4.153L122.879-39.5l-1.415-4.153Zm.446-1.6a.866.866,0,0,0-.237.038l-4.3,1.473a.7.7,0,0,0-.433.909l1.883,5.491a.691.691,0,0,0,.36.394.606.606,0,0,0,.3.077,1.063,1.063,0,0,0,.227-.038l4.3-1.494a.679.679,0,0,0,.433-.887l-1.888-5.491a.719.719,0,0,0-.338-.394A.66.66,0,0,0,124.869-46.278Z" transform="translate(9.439 2.286)" fill="#003d4f" fill-rule="evenodd"/>
  </g>
</svg>
