<svg xmlns="http://www.w3.org/2000/svg" xmlns:xlink="http://www.w3.org/1999/xlink" width="34.711" height="27.525" viewBox="0 0 34.711 27.525">
  <defs>
    <clipPath id="clip-path">
      <rect id="Rectangle_4285" data-name="Rectangle 4285" width="34.711" height="27.525" fill="#003d4f"/>
    </clipPath>
  </defs>
  <g id="Group_11986" data-name="Group 11986" transform="translate(0 0)">
    <g id="Group_11985" data-name="Group 11985" transform="translate(0 0)" clip-path="url(#clip-path)">
      <path id="Path_14577" data-name="Path 14577" d="M23.419,21.818H17.662a.691.691,0,0,1-.719-.721.773.773,0,0,1,.719-.721h5.757a1.387,1.387,0,0,0,1.439-1.442,1.46,1.46,0,0,0-1.439-1.441H14.064a.692.692,0,0,1-.719-.721.774.774,0,0,1,.719-.721h9.355a2.884,2.884,0,0,1,0,5.768" transform="translate(1.127 1.355)" fill="#003d4f" fill-rule="evenodd"/>
      <path id="Path_14578" data-name="Path 14578" d="M18.807,27.187H7.957A7.954,7.954,0,0,1,0,19.22V14.392C0,4.5,7.836,4.012,9.4,4.012h4.341c1.808,0,3.617.966,3.617,2.9v.723c0,1.931-1.809,2.9-3.617,2.9H11.453C10.971,11.978,9.4,15.6,6.51,15.6a.7.7,0,0,1-.723-.724.779.779,0,0,1,.723-.723c1.929,0,3.255-3.259,3.617-4.466a.893.893,0,0,1,.724-.6h2.893c.723,0,2.17-.242,2.17-1.449V6.91c0-1.087-1.326-1.449-2.17-1.449H9.4c-1.808,0-7.957.724-7.957,8.931V19.22a6.487,6.487,0,0,0,6.51,6.517H18.807a.7.7,0,0,1,.723.724.64.64,0,0,1-.723.724" transform="translate(0 0.339)" fill="#003d4f" fill-rule="evenodd"/>
      <path id="Path_14579" data-name="Path 14579" d="M17.656,25.831H15.5a.691.691,0,0,1-.718-.721.774.774,0,0,1,.718-.721h2.156a1.386,1.386,0,0,0,1.437-1.442,1.459,1.459,0,0,0-1.437-1.441H14.063a.691.691,0,0,1-.718-.721.773.773,0,0,1,.718-.721h3.593a2.884,2.884,0,0,1,0,5.768" transform="translate(1.127 1.694)" fill="#003d4f" fill-rule="evenodd"/>
      <path id="Path_14580" data-name="Path 14580" d="M31.257,18.823H9.606a2.931,2.931,0,0,1-2.887-2.9V14.72A.777.777,0,0,1,7.441,14a.694.694,0,0,1,.721.723v1.207a1.465,1.465,0,0,0,1.443,1.448H31.257A1.392,1.392,0,0,0,32.7,15.927V2.9a1.466,1.466,0,0,0-1.443-1.448H9.606A1.555,1.555,0,0,0,8.162,2.9V5.068a.639.639,0,0,1-.721.724.7.7,0,0,1-.722-.724V2.9A2.931,2.931,0,0,1,9.606,0H31.257a2.931,2.931,0,0,1,2.887,2.9V15.927a2.931,2.931,0,0,1-2.887,2.9" transform="translate(0.567 0)" fill="#003d4f" fill-rule="evenodd"/>
      <path id="Path_14581" data-name="Path 14581" d="M29.029,9.442H24.7a.686.686,0,0,1-.72-.708.767.767,0,0,1,.72-.708h4.326a.686.686,0,0,1,.722.708.632.632,0,0,1-.722.708" transform="translate(2.025 0.678)" fill="#003d4f" fill-rule="evenodd"/>
    </g>
  </g>
</svg>
