<svg xmlns="http://www.w3.org/2000/svg" xmlns:xlink="http://www.w3.org/1999/xlink" width="33.24" height="33.184" viewBox="0 0 33.24 33.184">
  <defs>
    <clipPath id="clip-path">
      <rect id="Rectangle_4293" data-name="Rectangle 4293" width="33.24" height="33.184" transform="translate(0 0.001)" fill="#003d4f"/>
    </clipPath>
  </defs>
  <g id="Group_11991" data-name="Group 11991" transform="translate(0 0)">
    <rect id="Rectangle_4287" data-name="Rectangle 4287" width="1.35" height="11.002" transform="translate(2.826 15.903)" fill="#003d4f"/>
    <g id="Group_11990" data-name="Group 11990">
      <g id="Group_11989" data-name="Group 11989" clip-path="url(#clip-path)">
        <path id="Path_14584" data-name="Path 14584" d="M9.086,27.585H2.167a.676.676,0,1,1,0-1.352H9.086a.676.676,0,1,1,0,1.352" fill="#003d4f" fill-rule="evenodd"/>
        <path id="Path_14585" data-name="Path 14585" d="M32.548,33.185H.719a.725.725,0,0,1,0-1.448H32.548a.725.725,0,0,1,0,1.448" fill="#003d4f" fill-rule="evenodd"/>
        <path id="Path_14586" data-name="Path 14586" d="M32.548,30.385H.719a.676.676,0,1,1,0-1.352H32.548a.676.676,0,1,1,0,1.352" fill="#003d4f" fill-rule="evenodd"/>
        <path id="Path_14587" data-name="Path 14587" d="M9.086,16.578H2.167a.725.725,0,0,1,0-1.448H9.086a.725.725,0,0,1,0,1.448" fill="#003d4f" fill-rule="evenodd"/>
        <path id="Path_14588" data-name="Path 14588" d="M20.093,27.585H13.174a.676.676,0,1,1,0-1.352h6.919a.676.676,0,1,1,0,1.352" fill="#003d4f" fill-rule="evenodd"/>
        <path id="Path_14589" data-name="Path 14589" d="M20.093,16.578H13.174a.725.725,0,0,1,0-1.448h6.919a.725.725,0,0,1,0,1.448" fill="#003d4f" fill-rule="evenodd"/>
        <rect id="Rectangle_4288" data-name="Rectangle 4288" width="1.35" height="11.002" transform="translate(6.978 15.903)" fill="#003d4f"/>
        <rect id="Rectangle_4289" data-name="Rectangle 4289" width="1.35" height="11.002" transform="translate(13.93 15.903)" fill="#003d4f"/>
        <rect id="Rectangle_4290" data-name="Rectangle 4290" width="1.441" height="11.002" transform="translate(17.985 15.903)" fill="#003d4f"/>
        <path id="Path_14590" data-name="Path 14590" d="M31.2,27.585H24.277a.676.676,0,1,1,0-1.352H31.2a.676.676,0,1,1,0,1.352" fill="#003d4f" fill-rule="evenodd"/>
        <path id="Path_14591" data-name="Path 14591" d="M31.2,16.578H24.277a.725.725,0,0,1,0-1.448H31.2a.725.725,0,0,1,0,1.448" fill="#003d4f" fill-rule="evenodd"/>
        <rect id="Rectangle_4291" data-name="Rectangle 4291" width="1.35" height="11.002" transform="translate(24.936 15.903)" fill="#003d4f"/>
        <rect id="Rectangle_4292" data-name="Rectangle 4292" width="1.35" height="11.002" transform="translate(29.088 15.903)" fill="#003d4f"/>
        <path id="Path_14592" data-name="Path 14592" d="M32.548,13.778H.737a.777.777,0,0,1-.692-.461.761.761,0,0,1,.231-.805L16.3.086a.985.985,0,0,1,.806,0L33.009,12.512a1.091,1.091,0,0,1,.231.805.948.948,0,0,1-.692.461M2.7,12.4H30.473L16.642,1.582Z" fill="#003d4f" fill-rule="evenodd"/>
      </g>
    </g>
  </g>
</svg>
