<svg xmlns="http://www.w3.org/2000/svg" width="34.522" height="34.527" viewBox="0 0 34.522 34.527">
  <g id="Group_12189" data-name="Group 12189" transform="translate(-847.159 -408.815)">
    <path id="Path_14906" data-name="Path 14906" d="M878.624,413.224a3.341,3.341,0,1,1-3.342,3.341A3.343,3.343,0,0,1,878.624,413.224Zm0-1.115a4.454,4.454,0,1,0,4.455,4.456A4.458,4.458,0,0,0,878.624,412.109Z" transform="translate(-4.171 -0.509)" fill="#003d4f" fill-rule="evenodd"/>
    <path id="Path_14907" data-name="Path 14907" d="M879.031,415.857a1.113,1.113,0,1,1-1.111,1.115A1.116,1.116,0,0,1,879.031,415.857Zm0-1.114a2.228,2.228,0,1,0,2.23,2.23A2.232,2.232,0,0,0,879.031,414.743Z" transform="translate(-4.578 -0.915)" fill="#003d4f" fill-rule="evenodd"/>
    <path id="Path_14908" data-name="Path 14908" d="M854.395,409.926a1.671,1.671,0,1,1-1.668,1.673A1.675,1.675,0,0,1,854.395,409.926Zm21.326,0,.271.775.256.084a6,6,0,0,1,.638.267l.244.118.741-.355,1.806,1.806-.355.745.118.24a5.434,5.434,0,0,1,.267.638l.088.256.771.271v2.554l-.775.276-.085.252a5.419,5.419,0,0,1-.267.641l-.118.241.355.744-1.806,1.8-.741-.355-.244.118a5.361,5.361,0,0,1-.638.267l-.256.088-.271.775h-2.554l-.276-.775-.252-.088a5.458,5.458,0,0,1-.641-.267l-.241-.118-.744.355-1.8-1.806.355-.741-.118-.244a4.908,4.908,0,0,1-.267-.638l-.088-.256-.775-.271v-2.554l.775-.271.088-.256a5.424,5.424,0,0,1,.267-.638l.118-.244-.355-.741,1.806-1.806.741.355.244-.118a5.478,5.478,0,0,1,.638-.267l.256-.088.271-.771Zm-.378,26.725a.379.379,0,0,1,.156.038l4.88,2.44a.343.343,0,0,1,0,.615l-4.88,2.439a.308.308,0,0,1-.143.034.357.357,0,0,1-.358-.339V437A.348.348,0,0,1,875.343,436.656Zm-22.617,0a2.785,2.785,0,1,1-2.784,2.787A2.79,2.79,0,0,1,852.726,436.656Zm1.668-27.841a2.789,2.789,0,0,0-2.726,2.226h-1.76a2.753,2.753,0,0,0-2.749,2.753v.053a2.76,2.76,0,0,0,2.749,2.764h9.416a12.26,12.26,0,0,0-7.156,11.135v3.669l-1.275-1.279-.791.791,2.624,2.62,2.62-2.623-.787-.787-1.275,1.279v-3.669a11.147,11.147,0,0,1,11.135-11.135,10.976,10.976,0,0,1,2.784.359v1.149l1.02.359c.034.088.068.172.107.26l-.466.973,2.922,2.921.973-.466c.088.038.176.076.264.111l.359,1.016h2.246a11.132,11.132,0,0,1-10.207,15.591h-7.839a3.9,3.9,0,1,0,0,1.115h17.306v1.882a1.463,1.463,0,0,0,1.459,1.459,1.445,1.445,0,0,0,.653-.156l4.88-2.44a1.458,1.458,0,0,0,0-2.608L876,435.7a1.5,1.5,0,0,0-.653-.152A1.46,1.46,0,0,0,873.884,437v1.882h-4.372a12.24,12.24,0,0,0,6.32-15.591h.676l.359-1.02c.088-.034.176-.068.264-.107l.974.466,2.921-2.921-.466-.973c.038-.088.073-.176.107-.264l1.016-.359v-4.128l-1.016-.358c-.034-.088-.072-.176-.11-.264l.466-.973-2.922-2.917-.97.465c-.088-.038-.176-.076-.264-.111l-.359-1.016h-4.128l-.359,1.016c-.088.035-.176.073-.264.111l-.973-.465-2.922,2.921.466.974c-.038.084-.073.172-.107.26l-1.02.358v1.829a12.368,12.368,0,0,0-2.784-.32h-14.51a1.648,1.648,0,0,1-1.638-1.65v-.053a1.64,1.64,0,0,1,1.638-1.638h1.76a2.785,2.785,0,0,0,5.456,0h6.82l-1.542,1.237.7.867,3.329-2.662-3.329-2.661-.7.871,1.542,1.233h-6.82A2.79,2.79,0,0,0,854.395,408.815Z" fill="#003d4f" fill-rule="evenodd"/>
    <path id="Path_14909" data-name="Path 14909" d="M853.44,444.189a.556.556,0,1,1-.557.557A.558.558,0,0,1,853.44,444.189Zm0-1.115a1.67,1.67,0,1,0,1.668,1.673A1.675,1.675,0,0,0,853.44,443.074Z" transform="translate(-0.712 -5.29)" fill="#003d4f" fill-rule="evenodd"/>
    <path id="Path_14910" data-name="Path 14910" d="M861.9,425.739v1.115h-1.115v-1.115Zm-2.23-1.111v3.341h3.342v-3.341Z" transform="translate(-1.933 -2.442)" fill="#003d4f" fill-rule="evenodd"/>
    <path id="Path_14911" data-name="Path 14911" d="M861.9,431.01v1.115h-1.115V431.01Zm-2.23-1.114v3.341h3.342V429.9Z" transform="translate(-1.933 -3.255)" fill="#003d4f" fill-rule="evenodd"/>
    <path id="Path_14912" data-name="Path 14912" d="M864.946,424.628v1.111h1.115v-1.111Z" transform="translate(-2.747 -2.442)" fill="#003d4f" fill-rule="evenodd"/>
    <path id="Path_14913" data-name="Path 14913" d="M867.58,424.628v1.111h4.455v-1.111Z" transform="translate(-3.154 -2.442)" fill="#003d4f" fill-rule="evenodd"/>
    <path id="Path_14914" data-name="Path 14914" d="M864.946,427.262v1.114h1.115v-1.114Z" transform="translate(-2.747 -2.849)" fill="#003d4f" fill-rule="evenodd"/>
    <path id="Path_14915" data-name="Path 14915" d="M867.58,427.262v1.114h4.455v-1.114Z" transform="translate(-3.154 -2.849)" fill="#003d4f" fill-rule="evenodd"/>
    <path id="Path_14916" data-name="Path 14916" d="M864.946,429.9v1.114h6.682V429.9Z" transform="translate(-2.747 -3.255)" fill="#003d4f" fill-rule="evenodd"/>
    <path id="Path_14917" data-name="Path 14917" d="M864.946,432.534v1.111h6.682v-1.111Z" transform="translate(-2.747 -3.663)" fill="#003d4f" fill-rule="evenodd"/>
    <path id="Path_14918" data-name="Path 14918" d="M861.9,436.283v1.111h-1.115v-1.111Zm-2.23-1.115v3.341h3.342v-3.341Z" transform="translate(-1.933 -4.07)" fill="#003d4f" fill-rule="evenodd"/>
    <path id="Path_14919" data-name="Path 14919" d="M864.946,435.168v1.115h6.682v-1.115Z" transform="translate(-2.747 -4.07)" fill="#003d4f" fill-rule="evenodd"/>
    <path id="Path_14920" data-name="Path 14920" d="M864.946,437.8v1.115h6.682V437.8Z" transform="translate(-2.747 -4.476)" fill="#003d4f" fill-rule="evenodd"/>
  </g>
</svg>
