<svg xmlns="http://www.w3.org/2000/svg" width="46.181" height="29.611" viewBox="0 0 46.181 29.611">
  <g id="Group_12301" data-name="Group 12301" transform="translate(-30.473 -947.673)">
    <path id="Path_15962" data-name="Path 15962" d="M51.219,949.115a4.375,4.375,0,0,1,4.357,4.358v.155c0,.028,0,.058-.031.058a11.069,11.069,0,0,1-2.187.231,6.225,6.225,0,0,1-4.532-1.609.7.7,0,0,0-.489-.207.619.619,0,0,0-.464.207.648.648,0,0,0,0,.949,7.617,7.617,0,0,0,5.513,1.992,13.493,13.493,0,0,0,1.482-.086v1.2a4.371,4.371,0,0,1-8.743,0v-.31a3.627,3.627,0,0,0,1.228-.8.65.65,0,0,0,.031-.95.7.7,0,0,0-.491-.2.586.586,0,0,0-.43.169,2.565,2.565,0,0,1-1.012.612h-.031v-1.41a4.374,4.374,0,0,1,4.354-4.358Zm1.472,12.519v.275A2.292,2.292,0,0,0,53,962.982l-2.483,2.486L48,962.982a2.249,2.249,0,0,0,.307-1.073v-.275a5.823,5.823,0,0,0,2.211.43A5.756,5.756,0,0,0,52.69,961.634ZM49.774,947.8a5.708,5.708,0,0,0-5.705,5.675v1.347a1.466,1.466,0,0,0,.553,1.139c.063.028.121.059.183.089v.31a5.731,5.731,0,0,0,2.149,4.477v1.073a.763.763,0,0,1-.461.673l-3.9,1.751a3.563,3.563,0,0,0-2.118,3.254v8.9a.675.675,0,0,0,1.351,0v-9.145l1.81,1.812a1.451,1.451,0,0,1,.43,1.043v6.29a.675.675,0,0,0,1.351,0v-6.29a2.822,2.822,0,0,0-.828-2l-2.15-2.145a2.06,2.06,0,0,1,.677-.493l3.867-1.719,2.85,2.854v9.788a.664.664,0,0,0,.677.675.654.654,0,0,0,.643-.675V966.7l2.855-2.854,3.865,1.719a2.073,2.073,0,0,1,.674.493L56.4,968.2a2.82,2.82,0,0,0-.826,2v6.29a.674.674,0,1,0,1.348,0v-6.29a1.462,1.462,0,0,1,.43-1.043l1.81-1.812v9.145a.675.675,0,0,0,1.351,0v-8.9a3.564,3.564,0,0,0-2.119-3.254l-3.9-1.751a.764.764,0,0,1-.46-.673v-1.073a5.731,5.731,0,0,0,2.149-4.477v-1.507a1.367,1.367,0,0,0,.736-1.224v-.155a5.707,5.707,0,0,0-5.705-5.675Z" transform="translate(3.066)" fill="#003d4f" stroke="#edf1f3" stroke-width="0.25" fill-rule="evenodd"/>
    <path id="Path_15963" data-name="Path 15963" d="M37.745,951.856a1.481,1.481,0,0,1,1.475,1.5v.245a5.08,5.08,0,0,0-2.916,0,.575.575,0,0,1-.031-.245A1.479,1.479,0,0,1,37.745,951.856Zm0,2.883a3.661,3.661,0,0,1,3.653,3.652v.245a4.415,4.415,0,0,1-1.306.2,4.236,4.236,0,0,1-3.234-1.581.64.64,0,0,0-.491-.244A.506.506,0,0,0,36.26,957a.518.518,0,0,0-.417.193,4.427,4.427,0,0,1-1.747,1.1A3.681,3.681,0,0,1,37.745,954.739Zm-1.472,3.869a6.254,6.254,0,0,0,1.228.917,5.576,5.576,0,0,0,2.576.643,5.121,5.121,0,0,0,1.321-.151h0a3.654,3.654,0,0,1-7.3-.186v-.152A5.238,5.238,0,0,0,36.273,958.608Zm2.947,5.981v.828a1.406,1.406,0,0,0,.09.523l-1.566,1.566-1.565-1.566a1.406,1.406,0,0,0,.093-.523v-.828a5.132,5.132,0,0,0,2.947,0Zm-1.475-14.053a2.814,2.814,0,0,0-2.82,2.824,2.547,2.547,0,0,0,.121.829,5,5,0,0,0-2.27,4.2v1.441a4.891,4.891,0,0,0,2.149,4.082v1.5a.736.736,0,0,1-.43.675l-2.331,1.166a2.834,2.834,0,0,0-1.566,2.517v5.86a.674.674,0,1,0,1.348,0V970.08l1.1,1.073a1.58,1.58,0,0,1,.43,1.073v3.408a.675.675,0,0,0,1.351,0v-3.408a2.789,2.789,0,0,0-.828-1.99L32.469,968.7a.03.03,0,0,0-.03-.031,1.973,1.973,0,0,1,.337-.216l2.331-1.166a2.019,2.019,0,0,0,.338-.214l1.626,1.655v6.906a.676.676,0,0,0,1.352,0v-6.906l1.654-1.655a1.989,1.989,0,0,0,.309.214l.643.337a1.068,1.068,0,0,0,.307.063.73.73,0,0,0,.612-.368.709.709,0,0,0-.307-.922L41,966.091a.793.793,0,0,1-.43-.675v-1.5a4.916,4.916,0,0,0,2.178-4.082v-1.441a5.017,5.017,0,0,0-2.3-4.2,2.563,2.563,0,0,0,.123-.829A2.817,2.817,0,0,0,37.745,950.535Z" transform="translate(0 0.849)" fill="#003d4f" stroke="#edf1f3" stroke-width="0.25" fill-rule="evenodd"/>
    <path id="Path_15964" data-name="Path 15964" d="M61.008,952.962a2.939,2.939,0,0,1,2.913,2.947v.736a9.977,9.977,0,0,1-4.725-1.321.715.715,0,0,0-.368-.093.67.67,0,0,0-.457.186,4.512,4.512,0,0,1-1.751,1.1v-.613a2.948,2.948,0,0,1,2.944-2.947Zm-2.087,3.772a11.935,11.935,0,0,0,4.265,1.2v.828a2.915,2.915,0,1,1-5.83,0v-1.073A5.9,5.9,0,0,0,58.921,956.735Zm2.824,6.046v.125a1.686,1.686,0,0,0,.093.55l-1.566,1.564-1.565-1.564a1.792,1.792,0,0,0,.09-.55v-.125a4.555,4.555,0,0,0,2.947,0Zm-2.18-11.167a4.284,4.284,0,0,0-4.265,4.3v1.411a.646.646,0,0,0,.677.673h.031v.767a4.171,4.171,0,0,0,1.441,3.192v.953a.782.782,0,0,1-.43.7.657.657,0,0,0-.307.887.672.672,0,0,0,.612.372,1.047,1.047,0,0,0,.307-.063,2.094,2.094,0,0,0,.341-.216l1.622,1.658V975.3a.676.676,0,0,0,1.352,0v-9.052L62.6,964.59a1.676,1.676,0,0,0,.307.216l3.648,1.81-1.1,1.1a2.933,2.933,0,0,0-.829,1.994V975.3a.676.676,0,0,0,1.352,0v-5.585a1.459,1.459,0,0,1,.43-1.042l1.042-1.046a1.524,1.524,0,0,1,.062.367V975.3a.676.676,0,0,0,1.352,0v-7.305a2.835,2.835,0,0,0-1.565-2.513l-3.776-1.871a.842.842,0,0,1-.43-.7v-.953a4.173,4.173,0,0,0,1.444-3.192v-.767H64.6a.661.661,0,0,0,.677-.673v-1.411a4.3,4.3,0,0,0-4.265-4.3Z" transform="translate(7.666 1.184)" fill="#003d4f" stroke="#edf1f3" stroke-width="0.25" fill-rule="evenodd"/>
  </g>
</svg>
