<svg xmlns="http://www.w3.org/2000/svg" width="28.999" height="28.999" viewBox="0 0 28.999 28.999">
  <g id="Group_12185" data-name="Group 12185" transform="translate(-165.602 -594.739)">
    <path id="Path_14848" data-name="Path 14848" d="M187.766,597.328v.983H177.225v-.983Zm-11.033-.946a.5.5,0,0,0-.491.491V598.8a.5.5,0,0,0,.491.455h11.524a.5.5,0,0,0,.49-.455v-1.927a.5.5,0,0,0-.49-.491Z" transform="translate(1.827 0.282)" fill="#003d4f" fill-rule="evenodd"/>
    <path id="Path_14849" data-name="Path 14849" d="M168.682,597.328a.5.5,0,0,1,.491.492.453.453,0,0,1-.316.455.488.488,0,0,1-.182.036.376.376,0,0,1-.308-.142.434.434,0,0,1-.107-.526A.5.5,0,0,1,168.682,597.328Zm.009-.946a1.447,1.447,0,0,0-1.025.422,1.463,1.463,0,0,0-.315,1.575,1.5,1.5,0,0,0,1.331.876,1.421,1.421,0,0,0,1.435-1.435,1.5,1.5,0,0,0-.876-1.331A1.448,1.448,0,0,0,168.692,596.382Z" transform="translate(0.282 0.282)" fill="#003d4f" fill-rule="evenodd"/>
    <path id="Path_14850" data-name="Path 14850" d="M171.55,597.328a.5.5,0,0,1,.491.492.5.5,0,0,1-.316.455.478.478,0,0,1-.523-.106.565.565,0,0,1-.107-.526A.6.6,0,0,1,171.55,597.328Zm0-.946a1.416,1.416,0,0,0-1.012.422,1.431,1.431,0,0,0,1.015,2.451,1.42,1.42,0,0,0,1.435-1.435,1.493,1.493,0,0,0-.874-1.331A1.574,1.574,0,0,0,171.548,596.382Z" transform="translate(0.775 0.282)" fill="#003d4f" fill-rule="evenodd"/>
    <path id="Path_14851" data-name="Path 14851" d="M174.422,597.328a.489.489,0,0,1,.175.947.5.5,0,0,1-.182.036.482.482,0,0,1-.448-.668A.5.5,0,0,1,174.422,597.328Zm0-.946a1.416,1.416,0,0,0-1.011.422,1.468,1.468,0,0,0-.316,1.575,1.441,1.441,0,0,0,2.768-.559,1.494,1.494,0,0,0-.875-1.331A1.59,1.59,0,0,0,174.417,596.382Z" transform="translate(1.268 0.282)" fill="#003d4f" fill-rule="evenodd"/>
    <path id="Path_14852" data-name="Path 14852" d="M169.381,602.123a.478.478,0,0,0-.49.49v3.815a.48.48,0,0,0,.49.493h6.688a.48.48,0,0,0,.49-.493.5.5,0,0,0-.49-.49h-6.233v-2.871H187.1v2.416a.5.5,0,0,0,.49.455.471.471,0,0,0,.491-.455v-2.871a.478.478,0,0,0-.491-.49Z" transform="translate(0.565 1.268)" fill="#003d4f" fill-rule="evenodd"/>
    <path id="Path_14853" data-name="Path 14853" d="M181.06,606.353a3.8,3.8,0,0,1,1.449.287,3.829,3.829,0,1,1-1.449-.287Zm-.023-.974a4.8,4.8,0,0,0-4.411,2.978,4.744,4.744,0,0,0,1.051,5.218,4.818,4.818,0,0,0,3.4,1.41,4.8,4.8,0,0,0-.045-9.606Z" transform="translate(1.83 1.827)" fill="#003d4f" fill-rule="evenodd"/>
    <path id="Path_14854" data-name="Path 14854" d="M191.028,595.72a.471.471,0,0,1,.49.455v4.344H166.583v-4.344a.463.463,0,0,1,.455-.455Zm-8.161,11.032A5.253,5.253,0,0,1,188.155,612a5.352,5.352,0,0,1-3.256,4.9,5.28,5.28,0,1,1-2.032-10.156Zm4.729,9.315.91.913-.664.664-.913-.91A4.124,4.124,0,0,0,187.6,616.066Zm3.922-14.6v15.8l-1.331-1.3a.428.428,0,0,0-.664,0l-.352.313-.981-.981a6.274,6.274,0,0,0-1.435-8.194,6.192,6.192,0,0,0-3.895-1.371,6.247,6.247,0,0,0-4.9,10.161,6.226,6.226,0,0,0,4.9,2.362,6.3,6.3,0,0,0,3.29-.927l.98.981-.313.352a.429.429,0,0,0,0,.664l.348.387H167.037a.5.5,0,0,1-.455-.491V601.462Zm-1.645,15.517L193.2,620.3a1.434,1.434,0,0,1,0,2.032,1.5,1.5,0,0,1-2.031,0l-3.325-3.325Zm-22.835-22.24a1.464,1.464,0,0,0-1.435,1.435v23.045a1.464,1.464,0,0,0,1.435,1.435h21.085L190.467,623a2.4,2.4,0,1,0,3.4-3.4l-1.4-1.4V596.174a1.441,1.441,0,0,0-1.435-1.435Z" fill="#003d4f" fill-rule="evenodd"/>
    <path id="Path_14855" data-name="Path 14855" d="M170.606,607.443a.478.478,0,0,0-.49.49.471.471,0,0,0,.49.455h3.817a.471.471,0,0,0,.491-.455.478.478,0,0,0-.491-.49Z" transform="translate(0.775 2.181)" fill="#003d4f" fill-rule="evenodd"/>
    <path id="Path_14856" data-name="Path 14856" d="M170.606,609.086a.471.471,0,0,0-.49.455.478.478,0,0,0,.49.491h3.817a.479.479,0,0,0,.491-.491.471.471,0,0,0-.491-.455Z" transform="translate(0.775 2.463)" fill="#003d4f" fill-rule="evenodd"/>
    <path id="Path_14857" data-name="Path 14857" d="M170.606,610.7a.5.5,0,0,0-.49.491.478.478,0,0,0,.49.49h3.817a.478.478,0,0,0,.491-.49.5.5,0,0,0-.491-.491Z" transform="translate(0.775 2.741)" fill="#003d4f" fill-rule="evenodd"/>
  </g>
</svg>
