<svg xmlns="http://www.w3.org/2000/svg" xmlns:xlink="http://www.w3.org/1999/xlink" width="30.037" height="29.95" viewBox="0 0 30.037 29.95">
  <defs>
    <clipPath id="clip-path">
      <rect id="Rectangle_4282" data-name="Rectangle 4282" width="30.037" height="29.95" transform="translate(0 0)" fill="#003d4f"/>
    </clipPath>
  </defs>
  <g id="Group_11982" data-name="Group 11982" transform="translate(0 0)">
    <g id="Group_11981" data-name="Group 11981" clip-path="url(#clip-path)">
      <path id="Path_14562" data-name="Path 14562" d="M16.9,18.773a.573.573,0,0,1-.626-.416L13.037,8.05l-1.773,4.164a.574.574,0,0,1-.521.313.464.464,0,0,1-.626-.209L8.135,9.3,6.154,12.318a.8.8,0,0,1-.522.209H.626A.6.6,0,0,1,0,11.9a.673.673,0,0,1,.626-.625H5.319l2.3-3.435a.7.7,0,0,1,1.043,0l1.877,2.811L12.62,6.072a.694.694,0,0,1,.521-.417c.313.1.522.209.626.521l3.025,9.578L19.4,3.053a1.064,1.064,0,0,1,.626-.521.661.661,0,0,1,.626.521l2.4,8.224h6.362a.673.673,0,0,1,.626.625.6.6,0,0,1-.626.625H22.528a.573.573,0,0,1-.626-.417L20.129,5.759l-2.607,12.6a.705.705,0,0,1-.626.416" fill="#003d4f" fill-rule="evenodd"/>
      <path id="Path_14563" data-name="Path 14563" d="M26.908,29.95H3.129A3.069,3.069,0,0,1,0,26.83V3.12A3.133,3.133,0,0,1,3.129,0H26.908a3.133,3.133,0,0,1,3.129,3.12V26.83a3.069,3.069,0,0,1-3.129,3.12M3.129,1.248A1.936,1.936,0,0,0,1.252,3.12V26.83A1.867,1.867,0,0,0,3.129,28.7H26.908a1.867,1.867,0,0,0,1.878-1.872V3.12a1.937,1.937,0,0,0-1.878-1.872Z" fill="#003d4f" fill-rule="evenodd"/>
      <path id="Path_14564" data-name="Path 14564" d="M25.031,24.973h0c-.209,0-.313,0-.417-.1l-2.086-2.086-.834.834c-.1.1-.209.1-.418.1H17.835l-1.148,1.148c-.1.1-.208.1-.417.1s-.313,0-.417-.1l-2.086-2.086-.834.834c-.1.1-.209.1-.417.1H9.074L7.927,24.869c-.105.1-.209.1-.418.1s-.312,0-.417-.1L5.006,22.783l-.834.834c-.1.1-.209.1-.417.1H.626A.6.6,0,0,1,0,23.1a.673.673,0,0,1,.626-.626h2.92l1.043-1.043a.634.634,0,0,1,.835,0l2.085,2.086.835-.835a.541.541,0,0,1,.417-.208h3.546l1.043-1.043a.633.633,0,0,1,.834,0l2.086,2.086.835-.835a.541.541,0,0,1,.417-.208h3.546l1.043-1.043a.633.633,0,0,1,.834,0l2.086,2.086.834-.835a.545.545,0,0,1,.418-.208h3.128a.673.673,0,0,1,.626.626.6.6,0,0,1-.626.625H26.595l-1.147,1.148c-.1.1-.208.1-.417.1" fill="#003d4f" fill-rule="evenodd"/>
    </g>
  </g>
</svg>
