<svg xmlns="http://www.w3.org/2000/svg" width="31.567" height="31.714" viewBox="0 0 31.567 31.714">
  <g id="Group_12188" data-name="Group 12188" transform="translate(2474.142 -531.931)">
    <path id="Path_14892" data-name="Path 14892" d="M-2446.754,571.216a.358.358,0,0,0,.368.295h2.578v1.1a.348.348,0,0,0,.368.368h.368v1.105a.348.348,0,0,0,.368.368.348.348,0,0,0,.368-.368v-1.105h1.1v7.367h-1.1v-5.157a.348.348,0,0,0-.368-.368.348.348,0,0,0-.368.368v5.157h-.368a.348.348,0,0,0-.368.368v.737h-1.1a.348.348,0,0,0-.368.368v1.105a.348.348,0,0,0,.368.368h18.049a.348.348,0,0,0,.368-.368v-1.105a.348.348,0,0,0-.368-.368h-1.1v-.737a.348.348,0,0,0-.368-.368h-.368v-7.367h.368a.348.348,0,0,0,.368-.368v-1.1h2.578a.359.359,0,0,0,.368-.295.334.334,0,0,0-.221-.405l-10.5-4.567a.408.408,0,0,0-.295,0l-10.5,4.567a.334.334,0,0,0-.221.405Zm6.262,1.768h1.473v2.578a.348.348,0,0,0,.368.368.348.348,0,0,0,.368-.368v-2.578h1.105v7.367h-1.105v-3.683a.348.348,0,0,0-.368-.368.348.348,0,0,0-.368.368v3.683h-1.473Zm5.157,0v4.052a.348.348,0,0,0,.368.368.348.348,0,0,0,.368-.368v-4.052h1.1v7.367h-1.1v-2.21a.348.348,0,0,0-.368-.368.348.348,0,0,0-.368.368v2.21h-1.105v-7.367Zm4.42,8.472a.348.348,0,0,0-.368.368.348.348,0,0,0,.368.368h3.683v.368h-17.312v-.368h3.683a.348.348,0,0,0,.368-.368.348.348,0,0,0-.368-.368h-2.21v-.368h14.365v.368Zm1.474-1.105h-1.105v-.737a.348.348,0,0,0-.368-.368.348.348,0,0,0-.368.368v.737h-1.473v-7.367h1.473v5.525a.348.348,0,0,0,.368.368.348.348,0,0,0,.368-.368v-5.525h1.105Zm.737-8.1h-14.366v-.737h14.366Zm-7.183-5.267,8.73,3.794h-17.459Z" transform="translate(-22.047 -27.609)" fill="#003d4f"/>
    <path id="Path_14893" data-name="Path 14893" d="M-2401.1,644.475h-5.525a.348.348,0,0,0-.368.368.348.348,0,0,0,.368.368h5.525a.348.348,0,0,0,.368-.368A.348.348,0,0,0-2401.1,644.475Z" transform="translate(-54.071 -90.627)" fill="#003d4f"/>
    <path id="Path_14894" data-name="Path 14894" d="M-2472.006,607.918h2.763l1.694-1.842h1.326a.348.348,0,0,0,.368-.368.348.348,0,0,0-.368-.368h-3.536a1.106,1.106,0,0,0-1.031-.773,1.108,1.108,0,0,0-1.1,1.1,1.108,1.108,0,0,0,1.1,1.105,1.128,1.128,0,0,0,1.031-.7h1.252l-1.031,1.105h-2.468a1.106,1.106,0,0,0-1.031-.774,1.108,1.108,0,0,0-1.1,1.105,1.108,1.108,0,0,0,1.1,1.1A1.168,1.168,0,0,0-2472.006,607.918Z" transform="translate(0 -58.49)" fill="#003d4f"/>
    <path id="Path_14895" data-name="Path 14895" d="M-2460.5,630.664a.348.348,0,0,0,.368-.368.348.348,0,0,0-.368-.368h-3.941a1.107,1.107,0,0,0-1.031-.773,1.108,1.108,0,0,0-1.1,1.105,1.108,1.108,0,0,0,1.1,1.1,1.128,1.128,0,0,0,1.031-.7Z" transform="translate(-6.092 -78.29)" fill="#003d4f"/>
    <path id="Path_14896" data-name="Path 14896" d="M-2413.673,545.417v2.468a.348.348,0,0,0,.368.368.348.348,0,0,0,.368-.368v-2.468a1.106,1.106,0,0,0,.773-1.031,1.108,1.108,0,0,0-1.1-1.105,1.108,1.108,0,0,0-1.105,1.105A1.169,1.169,0,0,0-2413.673,545.417Z" transform="translate(-48.13 -9.14)" fill="#003d4f"/>
    <path id="Path_14897" data-name="Path 14897" d="M-2447.72,536.112v2.763l1.842,1.694v2.063a.348.348,0,0,0,.368.368.348.348,0,0,0,.368-.368v-4.273a1.106,1.106,0,0,0,.774-1.031,1.108,1.108,0,0,0-1.105-1.1,1.108,1.108,0,0,0-1.1,1.1,1.128,1.128,0,0,0,.7,1.031v1.252l-1.1-1.031v-2.431a1.106,1.106,0,0,0,.773-1.031,1.108,1.108,0,0,0-1.1-1.105,1.108,1.108,0,0,0-1.1,1.105A1.161,1.161,0,0,0-2447.72,536.112Z" transform="translate(-20.713 -1.677)" fill="#003d4f"/>
    <path id="Path_14898" data-name="Path 14898" d="M-2353.144,538.17v4.31a.348.348,0,0,0,.368.368.348.348,0,0,0,.368-.368v-2.063l1.842-1.694V535.96a1.106,1.106,0,0,0,.774-1.031,1.108,1.108,0,0,0-1.1-1.105,1.108,1.108,0,0,0-1.105,1.105,1.128,1.128,0,0,0,.7,1.031v2.468l-1.105,1.031v-1.252a1.106,1.106,0,0,0,.773-1.031,1.108,1.108,0,0,0-1.1-1.1,1.108,1.108,0,0,0-1.105,1.1,1.161,1.161,0,0,0,.7.995Z" transform="translate(-96.872 -1.524)" fill="#003d4f"/>
    <path id="Path_14899" data-name="Path 14899" d="M-2381.515,534.067v4.678a.348.348,0,0,0,.368.368.348.348,0,0,0,.368-.368v-4.678a1.106,1.106,0,0,0,.774-1.031,1.108,1.108,0,0,0-1.1-1.105,1.108,1.108,0,0,0-1.105,1.105,1.168,1.168,0,0,0,.7,1.031Z" transform="translate(-74.025)" fill="#003d4f"/>
    <path id="Path_14900" data-name="Path 14900" d="M-2439.464,659.4v-3.205a.348.348,0,0,0-.368-.368.348.348,0,0,0-.368.368v1.694l-1.842,1.694v1.658a1.09,1.09,0,0,0-.7,1.031,1.108,1.108,0,0,0,1.105,1.1,1.108,1.108,0,0,0,1.1-1.1,1.106,1.106,0,0,0-.774-1.031v-1.326l1.105-1.031v.516a1.09,1.09,0,0,0-.7,1.031,1.108,1.108,0,0,0,1.105,1.105,1.108,1.108,0,0,0,1.1-1.105,1.107,1.107,0,0,0-.774-1.031Z" transform="translate(-25.285 -99.767)" fill="#003d4f"/>
    <path id="Path_14901" data-name="Path 14901" d="M-2358.13,661.24v-1.658l-1.842-1.694v-1.694a.348.348,0,0,0-.368-.368.348.348,0,0,0-.368.368v3.2a1.09,1.09,0,0,0-.7,1.031,1.108,1.108,0,0,0,1.105,1.105,1.108,1.108,0,0,0,1.1-1.105,1.106,1.106,0,0,0-.774-1.031v-.516l1.1,1.031v1.363a1.09,1.09,0,0,0-.7,1.031,1.108,1.108,0,0,0,1.105,1.105,1.108,1.108,0,0,0,1.1-1.1,1.118,1.118,0,0,0-.774-1.068Z" transform="translate(-90.781 -99.767)" fill="#003d4f"/>
    <path id="Path_14902" data-name="Path 14902" d="M-2382.975,660.552v-2.468a.348.348,0,0,0-.368-.368.348.348,0,0,0-.368.368v2.468a1.106,1.106,0,0,0-.773,1.031,1.108,1.108,0,0,0,1.1,1.1,1.108,1.108,0,0,0,1.1-1.1A1.169,1.169,0,0,0-2382.975,660.552Z" transform="translate(-72.197 -101.29)" fill="#003d4f"/>
    <path id="Path_14903" data-name="Path 14903" d="M-2409.149,661.842v-3.757a.348.348,0,0,0-.368-.368.348.348,0,0,0-.368.368v3.794a1.09,1.09,0,0,0-.7,1.031,1.108,1.108,0,0,0,1.105,1.1,1.108,1.108,0,0,0,1.1-1.1A1.117,1.117,0,0,0-2409.149,661.842Z" transform="translate(-51.179 -101.291)" fill="#003d4f"/>
    <path id="Path_14904" data-name="Path 14904" d="M-2341.285,621.2a1.105,1.105,0,0,0-1.068.81h-2.431l-.994-1.1h1.289a1.109,1.109,0,0,0,.994.626,1.108,1.108,0,0,0,1.1-1.105,1.108,1.108,0,0,0-1.1-1.1,1.1,1.1,0,0,0-1.068.81h-3.426a.348.348,0,0,0-.368.368.348.348,0,0,0,.368.368h1.179l1.695,1.842h2.8a1.109,1.109,0,0,0,.994.626" transform="translate(-101.29 -70.37)" fill="#003d4f"/>
    <path id="Path_14905" data-name="Path 14905" d="M-2347.988,601.858a.348.348,0,0,0-.368.368.348.348,0,0,0,.368.368h2.468a1.106,1.106,0,0,0,1.031.773,1.108,1.108,0,0,0,1.1-1.1,1.108,1.108,0,0,0-1.1-1.105,1.128,1.128,0,0,0-1.031.7Z" transform="translate(-101.291 -55.746)" fill="#003d4f"/>
  </g>
</svg>
