<svg xmlns="http://www.w3.org/2000/svg" xmlns:xlink="http://www.w3.org/1999/xlink" width="34.571" height="30.251" viewBox="0 0 34.571 30.251">
  <defs>
    <clipPath id="clip-path">
      <rect id="Rectangle_4297" data-name="Rectangle 4297" width="34.571" height="30.251" fill="#003d4f"/>
    </clipPath>
  </defs>
  <g id="Group_11998" data-name="Group 11998" transform="translate(0 0)">
    <g id="Group_11997" data-name="Group 11997" transform="translate(0 0)" clip-path="url(#clip-path)">
      <path id="Path_14593" data-name="Path 14593" d="M29.53,30.89H5.041A5.065,5.065,0,0,1,0,25.862V11.5A5.065,5.065,0,0,1,5.041,6.469H29.53A5.065,5.065,0,0,1,34.571,11.5V25.862A5.065,5.065,0,0,1,29.53,30.89M5.041,7.905A3.532,3.532,0,0,0,1.44,11.5V25.862a3.532,3.532,0,0,0,3.6,3.592H29.53a3.532,3.532,0,0,0,3.6-3.592V11.5a3.532,3.532,0,0,0-3.6-3.592Z" transform="translate(0 -0.64)" fill="#003d4f" fill-rule="evenodd"/>
      <path id="Path_14594" data-name="Path 14594" d="M23.55,7.236a.778.778,0,0,1-.723-.724V3.618A2.16,2.16,0,0,0,20.66,1.447H16.326A2.159,2.159,0,0,0,14.16,3.618V6.512a.723.723,0,1,1-1.445,0V3.618A3.55,3.55,0,0,1,16.326,0H20.66a3.551,3.551,0,0,1,3.613,3.618V6.512a.779.779,0,0,1-.723.724" transform="translate(-1.258 0)" fill="#003d4f" fill-rule="evenodd"/>
      <path id="Path_14595" data-name="Path 14595" d="M18.747,25.857A3.453,3.453,0,0,1,15.28,22.5a.69.69,0,0,1,.717-.72.635.635,0,0,1,.717.72,2.036,2.036,0,0,0,4.066,0,2.02,2.02,0,0,0-2.033-2.041,3.48,3.48,0,1,1,3.467-3.48.717.717,0,1,1-1.434,0,2.033,2.033,0,1,0-2.033,2.04,3.421,3.421,0,1,1,0,6.841" transform="translate(-1.512 -1.335)" fill="#003d4f" fill-rule="evenodd"/>
      <path id="Path_14596" data-name="Path 14596" d="M19.265,27.77l-.121.014c-.361.042-.644-.286-.7-.76l-.3-15.116c-.041-.356.293-.635.775-.692.362-.042.644.285.7.76l.3,15.116a.676.676,0,0,1-.654.678" transform="translate(-1.794 -1.109)" fill="#003d4f" fill-rule="evenodd"/>
    </g>
  </g>
</svg>
