<svg xmlns="http://www.w3.org/2000/svg" width="37.811" height="35.214" viewBox="0 0 37.811 35.214">
  <g id="yGUGDc" transform="translate(2426.092 6.08)">
    <g id="Group_12187" data-name="Group 12187" transform="translate(-2426.092 -6.08)">
      <path id="Path_14872" data-name="Path 14872" d="M-2118.039,78.25q0-4.361,0-8.721c0-.192-.049-.234-.236-.234q-4.231.01-8.462,0c-1.861,0-3.722,0-5.582-.005-.2,0-.232.056-.231.239.009,1.1.005,2.208,0,3.311a.57.57,0,0,1-.407.571.578.578,0,0,1-.635-.2.6.6,0,0,1-.115-.385c0-1.255.006-2.51,0-3.766,0-.5-.021-.993.02-1.487a3.64,3.64,0,0,1,1.718-2.847,3.587,3.587,0,0,1,2.015-.584q3.592-.007,7.185,0c.682,0,1.363-.007,2.044,0a3.732,3.732,0,0,1,3.105,1.516,3.508,3.508,0,0,1,.733,2.082c.019,1.183,0,2.366,0,3.548,0,1.01.009,2.02.01,3.029q0,4.091,0,8.182c0,1.688.01,3.376,0,5.064a7.949,7.949,0,0,1-.079,1.834,3.852,3.852,0,0,1-.946,1.779,3.809,3.809,0,0,1-2.948,1.193c-3.037-.005-6.074,0-9.111,0a3.582,3.582,0,0,1-2.264-.77,3.757,3.757,0,0,1-1.482-3.2c.012-.582,0-1.164-.009-1.746,0-.157.241-.451.4-.449a1.66,1.66,0,0,1,.486.056.466.466,0,0,1,.284.445c.019.163-.071.4.038.472.126.084.345.034.524.034q6.85,0,13.7,0c.191,0,.25-.04.249-.243Q-2118.045,82.61-2118.039,78.25Zm-7.232,10.106h-6.88c-.087,0-.174,0-.26,0-.106-.008-.131.037-.133.138a2.535,2.535,0,0,0,1.08,2.231,2.572,2.572,0,0,0,1.537.485l6.145-.005c1.132,0,2.265.013,3.4-.013a2.365,2.365,0,0,0,1.762-.908,2.483,2.483,0,0,0,.588-1.759c-.007-.148-.049-.17-.183-.169Q-2121.745,88.359-2125.272,88.356Zm-.03-20.2v0h5.192l1.9,0c.073,0,.154.028.162-.1a2.427,2.427,0,0,0-.331-1.442,2.526,2.526,0,0,0-2.287-1.3q-4.64,0-9.28-.005a2.643,2.643,0,0,0-.909.156,2.6,2.6,0,0,0-1.69,2.34c-.011.354-.011.354.361.354Z" transform="translate(2146.374 -61.099)" fill="#003d4f"/>
      <path id="Path_14873" data-name="Path 14873" d="M-2410.055,181.877c.007.237-.219.28-.351.366a1.669,1.669,0,0,1-.809.258,7.482,7.482,0,0,1-1.865-.2c-.276-.053-.554-.09-.83-.144a.34.34,0,0,0-.356.138c-.282.329-.5.705-.753,1.053a4.6,4.6,0,0,1-1.2,1.255,1.441,1.441,0,0,1-1.111.235,1.022,1.022,0,0,1-.785-.945,3.321,3.321,0,0,1,.262-1.5c.24-.626.542-1.225.827-1.83a.353.353,0,0,0,.008-.32c-.392-.937-.84-1.848-1.274-2.765-.08-.168-.169-.054-.24-.015-.542.3-1.079.608-1.622.906-.717.394-1.444.773-2.157,1.175-.577.325-1.162.632-1.768.9a1.54,1.54,0,0,1-1.618-.075,1.029,1.029,0,0,1-.336-1.192,3.59,3.59,0,0,1,.714-1.2,22.45,22.45,0,0,1,1.869-1.964c.744-.709,1.5-1.406,2.287-2.066.231-.193.456-.393.694-.577a.269.269,0,0,0,.106-.352c-.21-.55-.429-1.1-.617-1.656a12.92,12.92,0,0,1-.844-3.864,2.632,2.632,0,0,1,.216-1.135,1.461,1.461,0,0,1,2.156-.589,5.087,5.087,0,0,1,1.5,1.637,22.846,22.846,0,0,1,1.7,3.3,3.275,3.275,0,0,1,.219.537c.042.176.138.22.311.208,1.1-.078,2.2-.153,3.3-.177.93-.02,1.861-.037,2.79.034a6.1,6.1,0,0,1,1.9.38,1.066,1.066,0,0,1,.6,1.386,1.8,1.8,0,0,1-1.252,1.014c-.811.291-1.649.5-2.479.725-1.062.292-2.125.578-3.187.867a1.092,1.092,0,0,1-.146.039c-.2.025-.214.141-.157.305.315.895.627,1.791.942,2.686a.5.5,0,0,0,.33.308,17.886,17.886,0,0,1,2.116.866,3.039,3.039,0,0,1,.95.763,1.013,1.013,0,0,1,.023,1.213c-.009.013-.04.01-.06.015l0-.006Zm-1.475-.517c.086,0,.173,0,.259,0s.162-.02.186-.088-.061-.122-.116-.159a3.239,3.239,0,0,0-.443-.267q-1.043-.469-2.128-.83a.841.841,0,0,1-.571-.515c-.11-.3-.228-.591-.339-.887-.367-.985-.711-1.977-1-2.989a.572.572,0,0,1,.385-.769,13.783,13.783,0,0,1,1.406-.411c1.278-.349,2.555-.7,3.83-1.056a11.439,11.439,0,0,0,1.493-.486c.094-.041.264-.061.248-.166s-.188-.1-.3-.125a12.535,12.535,0,0,0-2.537-.208c-1.687-.005-3.369.129-5.051.234a.619.619,0,0,1-.66-.348c-.219-.578-.466-1.143-.718-1.707a15.675,15.675,0,0,0-1.771-3.149,2.8,2.8,0,0,0-.681-.656c-.282-.185-.5-.114-.584.208a2.924,2.924,0,0,0-.023.989,9.226,9.226,0,0,0,.377,1.812c.19.641.4,1.277.622,1.908.177.5.39.989.583,1.485a.556.556,0,0,1-.171.663c-.129.114-.276.209-.407.321-1.258,1.07-2.517,2.141-3.678,3.319a10.028,10.028,0,0,0-1.443,1.707c-.052.083-.184.188-.1.273.065.069.2-.018.3-.061.619-.285,1.226-.595,1.824-.923.814-.446,1.622-.9,2.436-1.349.638-.349,1.259-.729,1.922-1.031a.575.575,0,0,1,.738.164,2.859,2.859,0,0,1,.226.415c.574,1.113,1.085,2.254,1.586,3.4a.783.783,0,0,1,.011.652c-.146.32-.312.63-.458.95a7.356,7.356,0,0,0-.675,1.768c-.012.069-.061.153.011.2s.134-.031.19-.071a2.09,2.09,0,0,0,.45-.462c.38-.5.745-1.021,1.124-1.527a1.318,1.318,0,0,1,1.19-.576,7.15,7.15,0,0,1,.877.115A11.371,11.371,0,0,0-2411.53,181.36Z" transform="translate(2426.092 -158.097)" fill="#003d4f"/>
      <path id="Path_14874" data-name="Path 14874" d="M-1713.823,456.959a3.772,3.772,0,0,1,3.848,2.232,3.984,3.984,0,0,1,.2,2.083,8.278,8.278,0,0,1-1.483,3.571,9.915,9.915,0,0,1-1.392,1.665,2.577,2.577,0,0,1-.225.225.572.572,0,0,1-.818-.017,11.287,11.287,0,0,1-1.815-2.211,9.314,9.314,0,0,1-.94-1.889,5.558,5.558,0,0,1-.323-2.717,3.283,3.283,0,0,1,.662-1.529A3.352,3.352,0,0,1-1713.823,456.959Zm-1.845,3.581a5.186,5.186,0,0,0,.164,1.229,6.685,6.685,0,0,0,.791,1.858,10.027,10.027,0,0,0,1.274,1.707c.138.149.2.127.318,0a9.975,9.975,0,0,0,1.593-2.3,5.413,5.413,0,0,0,.635-2.724,2.2,2.2,0,0,0-.541-1.334,2.35,2.35,0,0,0-2.107-.852,2.275,2.275,0,0,0-1.525.766A2.193,2.193,0,0,0-1715.668,460.54Z" transform="translate(1747.537 -436.912)" fill="#003d4f"/>
      <path id="Path_14875" data-name="Path 14875" d="M-1897.776,213.966a.523.523,0,0,1,.413.157q1.346,1.345,2.688,2.694a.574.574,0,0,1,.093.729.576.576,0,0,1-.659.242.737.737,0,0,1-.313-.222q-1.31-1.305-2.614-2.616a.552.552,0,0,1-.118-.655A.548.548,0,0,1-1897.776,213.966Z" transform="translate(1921.195 -204.438)" fill="#003d4f"/>
      <path id="Path_14876" data-name="Path 14876" d="M-1837.619,209.687a.594.594,0,0,1,.312-.513.5.5,0,0,1,.587.033,8.37,8.37,0,0,1,1.036,1.036.553.553,0,0,1-.108.741.563.563,0,0,1-.732.016c-.332-.309-.647-.635-.964-.96A.562.562,0,0,1-1837.619,209.687Z" transform="translate(1863.097 -199.779)" fill="#003d4f"/>
      <path id="Path_14877" data-name="Path 14877" d="M-2113.09-2.3a.593.593,0,0,1-.6-.575.6.6,0,0,1,.595-.588.609.609,0,0,1,.615.594A.577.577,0,0,1-2113.09-2.3Z" transform="translate(2127.218 3.572)" fill="#003d4f"/>
      <path id="Path_14878" data-name="Path 14878" d="M-1653.256,704.269a.593.593,0,0,1,.573.563.623.623,0,0,1-.617.641.584.584,0,0,1-.555-.6A.61.61,0,0,1-1653.256,704.269Z" transform="translate(1687.289 -673.514)" fill="#003d4f"/>
      <path id="Path_14879" data-name="Path 14879" d="M-2065.575,16.367a.569.569,0,0,1-.584.561.627.627,0,0,1-.6-.609.573.573,0,0,1,.6-.567A.6.6,0,0,1-2065.575,16.367Z" transform="translate(2082.319 -14.805)" fill="#003d4f"/>
      <path id="Path_14880" data-name="Path 14880" d="M-1821.729,765.709a.558.558,0,0,1-.576.564.6.6,0,0,1-.608-.592.557.557,0,0,1,.569-.586A.617.617,0,0,1-1821.729,765.709Z" transform="translate(1849.027 -731.707)" fill="#003d4f"/>
      <path id="Path_14881" data-name="Path 14881" d="M-1858.544,731.186a.568.568,0,0,1-.57.576.633.633,0,0,1-.609-.608.589.589,0,0,1,.592-.586A.608.608,0,0,1-1858.544,731.186Z" transform="translate(1884.244 -698.674)" fill="#003d4f"/>
      <path id="Path_14882" data-name="Path 14882" d="M-1681.959,747.064a.615.615,0,0,1,.646-.6.587.587,0,0,1,.537.594.63.63,0,0,1-.617.6A.577.577,0,0,1-1681.959,747.064Z" transform="translate(1714.177 -713.88)" fill="#003d4f"/>
      <path id="Path_14883" data-name="Path 14883" d="M-1723.7,773.79a.567.567,0,0,1-.6.59.549.549,0,0,1-.585-.552.613.613,0,0,1,.611-.612A.573.573,0,0,1-1723.7,773.79Z" transform="translate(1755.24 -739.476)" fill="#003d4f"/>
      <path id="Path_14884" data-name="Path 14884" d="M-1773.682,780.969a.571.571,0,0,1-.6.573.571.571,0,0,1-.591-.6.574.574,0,0,1,.588-.563A.575.575,0,0,1-1773.682,780.969Z" transform="translate(1803.066 -746.328)" fill="#003d4f"/>
      <path id="Path_14885" data-name="Path 14885" d="M-2308.167,119.115a.571.571,0,0,1-.582-.565.593.593,0,0,1,.6-.623.578.578,0,0,1,.574.577A.6.6,0,0,1-2308.167,119.115Z" transform="translate(2313.83 -112.558)" fill="#003d4f"/>
      <path id="Path_14886" data-name="Path 14886" d="M-2212.406,7.639a.56.56,0,0,1-.578-.563.6.6,0,0,1,.623-.6.574.574,0,0,1,.565.58A.583.583,0,0,1-2212.406,7.639Z" transform="translate(2222.211 -5.929)" fill="#003d4f"/>
      <path id="Path_14887" data-name="Path 14887" d="M-2288.893,71.837a.622.622,0,0,1,.587-.622.592.592,0,0,1,.59.588.625.625,0,0,1-.6.607A.569.569,0,0,1-2288.893,71.837Z" transform="translate(2294.833 -67.869)" fill="#003d4f"/>
      <path id="Path_14888" data-name="Path 14888" d="M-2255.936,33.695a.611.611,0,0,1,.612-.593.572.572,0,0,1,.572.575.68.68,0,0,1-.628.605A.564.564,0,0,1-2255.936,33.695Z" transform="translate(2263.303 -31.405)" fill="#003d4f"/>
      <path id="Path_14889" data-name="Path 14889" d="M-2164.026-5.524a.569.569,0,0,1,.634-.556.555.555,0,0,1,.553.545.649.649,0,0,1-.7.638A.673.673,0,0,1-2164.026-5.524Z" transform="translate(2175.373 6.08)" fill="#003d4f"/>
      <path id="Path_14890" data-name="Path 14890" d="M-1976.062,111.73c-.353,0-.706,0-1.059,0a.566.566,0,0,1-.6-.563.57.57,0,0,1,.588-.586c.72-.009,1.44-.01,2.16-.007a.572.572,0,0,1,.591.583.564.564,0,0,1-.595.574c-.36,0-.721,0-1.081,0Z" transform="translate(1997.137 -105.522)" fill="#003d4f"/>
      <path id="Path_14891" data-name="Path 14891" d="M-1670.22,501.768A1.635,1.635,0,0,1-1672,503.4a1.667,1.667,0,0,1-1.554-1.7,1.685,1.685,0,0,1,1.8-1.639A1.672,1.672,0,0,1-1670.22,501.768Zm-1.668-.539a.486.486,0,0,0-.508.5.525.525,0,0,0,.489.533.55.55,0,0,0,.549-.523A.51.51,0,0,0-1671.888,501.229Z" transform="translate(1706.141 -478.145)" fill="#003d4f"/>
    </g>
  </g>
</svg>
