<svg xmlns="http://www.w3.org/2000/svg" xmlns:xlink="http://www.w3.org/1999/xlink" width="854" height="830" viewBox="0 0 854 830">
  <defs>
    <clipPath id="clip-path">
      <rect id="Rectangle_2753" data-name="Rectangle 2753" width="794.669" height="798.525" fill="#fff"/>
    </clipPath>
    <clipPath id="clip-Attributes_surrounding_Lenses">
      <rect width="854" height="830"/>
    </clipPath>
  </defs>
  <g id="Attributes_surrounding_Lenses" data-name="Attributes surrounding Lenses" clip-path="url(#clip-Attributes_surrounding_Lenses)">
    <g id="Group_7832" data-name="Group 7832" transform="translate(-301.5 -263.5)">
      <g id="Group_7642" data-name="Group 7642" transform="translate(331.166 279.238)" clip-path="url(#clip-path)">
        <path id="Path_12212" data-name="Path 12212" d="M20.766,722.353a3.063,3.063,0,0,0-3.065,2.895c-.3,2.323,1.291,4.075,4.414,4.473,3.211.409,5.1-.922,5.391-3.2a3.09,3.09,0,0,0-2.114-3.577l.423-3.209a6.253,6.253,0,0,1,4.492,7.195c-.512,4.017-3.705,6.634-8.6,6.01s-7.325-4.01-6.82-7.975c.443-3.475,2.771-5.845,6.291-5.821Z" transform="translate(-7.807 -378.903)" fill="#fff"/>
        <path id="Path_12213" data-name="Path 12213" d="M18.04,703.669l.518-3.159,12.338,2.021,1.049-6.405,2.6.426-1.567,9.565Z" transform="translate(-9.505 -366.776)" fill="#fff"/>
        <path id="Path_12214" data-name="Path 12214" d="M24.746,660.553l9.639,1.931c3.247.651,4.92,3.549,4.181,7.238s-3.4,5.719-6.647,5.069l-9.639-1.931.629-3.138,9.371,1.877a3.076,3.076,0,0,0,1.208-6.03l-9.372-1.878Z" transform="translate(-11.739 -348.033)" fill="#fff"/>
        <path id="Path_12215" data-name="Path 12215" d="M33.6,638.136c-.365,1.524.131,2.532,1.08,2.759,1.052.274,1.782-.683,2.383-1.892l.633-1.247c1.188-2.422,2.931-3.958,5.384-3.378,2.693.653,3.906,3.177,3.046,6.771-.855,3.573-3.047,5.457-6.25,4.774l.721-3.012c1.5.252,2.525-.734,2.912-2.351.378-1.582-.11-2.778-1.187-3.043-.994-.231-1.667.551-2.439,2.061l-.787,1.506c-1.191,2.345-2.8,3.579-4.971,3.052-2.677-.626-3.894-3.418-3.121-6.645.784-3.278,3.113-5,5.746-4.416l-.714,2.983c-1.185-.162-2.079.589-2.435,2.078" transform="translate(-16.215 -333.496)" fill="#fff"/>
        <rect id="Rectangle_2744" data-name="Rectangle 2744" width="3.2" height="15.135" transform="matrix(0.257, -0.967, 0.967, 0.257, 16.998, 296.026)" fill="#fff"/>
        <path id="Path_12216" data-name="Path 12216" d="M51.828,595.591l.039-.135-10.05-6.693.977-3.412,13.12,9.187L54.778,598.5l-16,.856.979-3.419Z" transform="translate(-20.434 -308.411)" fill="#fff"/>
        <rect id="Rectangle_2745" data-name="Rectangle 2745" width="3.202" height="15.143" transform="translate(23.149 274.867) rotate(-72.002)" fill="#fff"/>
        <path id="Path_12217" data-name="Path 12217" d="M52.512,556.722,56.652,545l2.489.879-1.544,4.37,11.787,4.163-1.054,2.984-11.787-4.163L55,557.6Z" transform="translate(-27.667 -287.149)" fill="#fff"/>
        <path id="Path_12218" data-name="Path 12218" d="M63.738,523.744l7.337-.805.054-.137-4.79-5.616,1.323-3.334,7.065,8.746,4.977,1.974-1.172,2.956-4.977-1.974-11.139,1.525Z" transform="translate(-32.886 -270.738)" fill="#fff"/>
        <path id="Path_12219" data-name="Path 12219" d="M227.941,274.7a3.064,3.064,0,0,0-4.17.63c-1.568,1.741-1.263,4.085,1.075,6.193,2.4,2.167,4.717,2.151,6.256.443a3.09,3.09,0,0,0,.3-4.144l2.178-2.394a6.253,6.253,0,0,1-.413,8.472c-2.711,3.009-6.828,3.338-10.5.034s-3.732-7.472-1.056-10.443c2.345-2.6,5.609-3.221,8.488-1.195Z" transform="translate(-115.78 -142.832)" fill="#fff"/>
        <path id="Path_12220" data-name="Path 12220" d="M255.921,259.705c-2.826,2.882-7,3.07-10.516-.381-3.538-3.467-3.417-7.624-.591-10.506,2.81-2.867,6.98-3.087,10.517.381s3.4,7.64.591,10.507m-9.086-8.906c-1.63,1.663-1.45,3.961.841,6.208s4.593,2.38,6.223.717,1.45-3.961-.841-6.207-4.6-2.375-6.223-.717" transform="translate(-127.885 -129.945)" fill="#fff"/>
        <path id="Path_12221" data-name="Path 12221" d="M271.439,218.506l6.73,7.17c2.267,2.415,1.947,5.748-.8,8.324s-6.09,2.684-8.357.269l-6.73-7.17,2.334-2.191,6.544,6.97a3.077,3.077,0,0,0,4.485-4.21l-6.543-6.97Z" transform="translate(-138.194 -115.126)" fill="#fff"/>
        <path id="Path_12222" data-name="Path 12222" d="M286.455,208.04l4.5-3.92c2.591-2.256,5.361-2.1,7.336.166a4.361,4.361,0,0,1,.812,5l6.287,2.325-2.664,2.319-5.685-2.162-1.76,1.533,3.523,4.046-2.413,2.1Zm8.777,1.9c1.382-1.2,1.561-2.359.576-3.49s-2.2-1.168-3.6.045l-1.627,1.417,3.009,3.455Z" transform="translate(-150.928 -106.695)" fill="#fff"/>
        <path id="Path_12223" data-name="Path 12223" d="M321.651,201.015l-5.445-15.067,3.21-2.592,13.575,8.5-2.67,2.156-3.043-1.981-4.252,3.433,1.295,3.393Zm3.43-10.419-5.05-3.288-.092.074,2.15,5.629Z" transform="translate(-166.603 -96.606)" fill="#fff"/>
        <path id="Path_12224" data-name="Path 12224" d="M344.061,166.076c-1.857,1.382-2.056,3.753-.174,6.28s4.179,3.074,6.107,1.639c1.708-1.272,2.023-2.991.937-4.524l-2.61,1.944-1.44-1.934,5.083-3.785,1.14,1.531c2.381,3.2,1.636,6.766-1.43,9.05-3.423,2.548-7.511,1.886-10.374-1.957-2.932-3.939-2.181-8.094,1.028-10.483,2.746-2.045,6.122-1.931,8.243.223L347.961,166a3.05,3.05,0,0,0-3.9.073" transform="translate(-178.857 -85.549)" fill="#fff"/>
        <path id="Path_12225" data-name="Path 12225" d="M361.986,147.512l8.443-5.728,1.482,2.184-5.794,3.931,2.026,2.986,5.359-3.636,1.482,2.184-5.36,3.636,2.03,2.992,5.818-3.947,1.482,2.184-8.468,5.745Z" transform="translate(-190.724 -74.703)" fill="#fff"/>
        <path id="Path_12226" data-name="Path 12226" d="M401.437,141.986c-3.405,2.168-7.509,1.406-10.157-2.754-2.66-4.179-1.6-8.2,1.8-10.368,3.387-2.155,7.5-1.425,10.157,2.754s1.582,8.213-1.805,10.368m-6.832-10.734c-1.964,1.25-2.31,3.53-.587,6.237s3.934,3.359,5.9,2.109,2.31-3.53.588-6.237-3.941-3.355-5.9-2.108" transform="translate(-205.37 -67.274)" fill="#fff"/>
        <path id="Path_12227" data-name="Path 12227" d="M425.642,106.119l4.933,8.5c1.662,2.864.6,6.037-2.657,7.925s-6.537,1.237-8.2-1.627l-4.933-8.5,2.768-1.606,4.8,8.267a3.076,3.076,0,0,0,5.319-3.086l-4.8-8.267Z" transform="translate(-218.543 -55.912)" fill="#fff"/>
        <path id="Path_12228" data-name="Path 12228" d="M451.163,98.4c-1.384.736-1.811,1.774-1.354,2.636.491.97,1.692.884,3,.535l1.353-.351c2.6-.713,4.907-.423,6.1,1.8,1.294,2.451.2,5.031-3.061,6.765-3.244,1.725-6.108,1.329-7.716-1.525l2.736-1.453c.8,1.289,2.22,1.407,3.689.626,1.436-.763,2.009-1.921,1.5-2.9-.485-.9-1.517-.885-3.16-.464l-1.649.408c-2.547.658-4.537.267-5.578-1.707-1.3-2.422-.017-5.182,2.915-6.739,2.976-1.581,5.809-.977,7.114,1.385l-2.709,1.439c-.662-1-1.818-1.169-3.169-.451" transform="translate(-235.255 -50.129)" fill="#fff"/>
        <rect id="Rectangle_2746" data-name="Rectangle 2746" width="3.2" height="15.132" transform="translate(369.45 1.185) rotate(-4.138)" fill="#fff"/>
        <path id="Path_12229" data-name="Path 12229" d="M807.193,15.406l-2.763.124L797.418,6.3l-.111,0,.429,9.523-3.2.144L793.856.846,796.664.72l6.96,9.221.133-.006L803.328.419l3.184-.143Z" transform="translate(-418.268 -0.145)" fill="#fff"/>
        <path id="Path_12230" data-name="Path 12230" d="M825.9.078,838.332,0l.017,2.639-4.634.03.079,12.5-3.164.02-.079-12.5-4.635.029Z" transform="translate(-435.152 0.001)" fill="#fff"/>
        <path id="Path_12231" data-name="Path 12231" d="M856.893.1,867.085.39l-.074,2.637-6.994-.2-.1,3.6,6.469.183-.074,2.637-6.47-.183-.1,3.612,7.024.2-.074,2.637-10.222-.288Z" transform="translate(-451.256 -0.054)" fill="#fff"/>
        <path id="Path_12232" data-name="Path 12232" d="M891.044,4.248c-2.309-.152-4,1.522-4.2,4.665s1.187,5.049,3.584,5.207c2.125.14,3.479-.964,3.646-2.834l-3.245-.213.158-2.4,6.321.416-.125,1.9c-.261,3.976-3.142,6.209-6.955,5.958-4.257-.28-6.938-3.435-6.624-8.214.322-4.9,3.587-7.573,7.578-7.311,3.415.225,5.91,2.5,6.127,5.515l-3.246-.213a3.05,3.05,0,0,0-3.016-2.473" transform="translate(-465.54 -0.738)" fill="#fff"/>
        <path id="Path_12233" data-name="Path 12233" d="M917.8,3.347l5.94.619c3.419.356,5.2,2.489,4.884,5.481a4.365,4.365,0,0,1-3.108,4.009l2.588,6.185-3.514-.366-2.3-5.635-2.323-.242-.556,5.337-3.183-.332Zm4.6,7.718c1.823.19,2.791-.467,2.947-1.96s-.648-2.409-2.486-2.6l-2.147-.224-.475,4.558Z" transform="translate(-482.748 -1.763)" fill="#fff"/>
        <rect id="Rectangle_2747" data-name="Rectangle 2747" width="15.135" height="3.2" transform="translate(446.973 18.12) rotate(-82.652)" fill="#fff"/>
        <path id="Path_12234" data-name="Path 12234" d="M959.9,8.05l12.3,1.831-.388,2.611-4.586-.683-1.842,12.366-3.13-.466L964.1,11.344l-4.585-.683Z" transform="translate(-505.55 -4.241)" fill="#fff"/>
        <path id="Path_12235" data-name="Path 12235" d="M993.317,13.242l2.153,7.059.145.028,4.628-5.749,3.522.68-7.281,8.566-1.015,5.256-3.122-.6,1.015-5.256L989.8,12.562Z" transform="translate(-521.505 -6.618)" fill="#fff"/>
        <path id="Path_12236" data-name="Path 12236" d="M1305.725,144.233l4.893,3.427c2.816,1.973,3.227,4.851,1.5,7.316s-4.586,3.017-7.438,1.018l-2.2-1.543-2.816,4.021-2.623-1.837Zm0,9.364a2.4,2.4,0,0,0,3.689-.512c.865-1.235.71-2.572-.8-3.633l-1.769-1.239-2.9,4.136Z" transform="translate(-683.386 -75.993)" fill="#fff"/>
        <path id="Path_12237" data-name="Path 12237" d="M1341.567,168.733l-5.936,7.841c-2,2.641-5.339,2.887-8.34.615s-3.671-5.553-1.671-8.194l5.937-7.842,2.552,1.933-5.771,7.624a3.078,3.078,0,0,0,4.905,3.713l5.772-7.623Z" transform="translate(-697.841 -84.909)" fill="#fff"/>
        <path id="Path_12238" data-name="Path 12238" d="M1355,181.231l4.622,3.781c2.66,2.176,2.974,4.934,1.069,7.262a4.363,4.363,0,0,1-4.8,1.642l-1.236,6.59-2.735-2.237,1.177-5.969-1.808-1.478-3.4,4.153-2.478-2.026Zm-.4,8.974c1.419,1.161,2.588,1.144,3.538-.018s.782-2.368-.649-3.538l-1.67-1.366-2.9,3.547Z" transform="translate(-708.876 -95.487)" fill="#fff"/>
        <path id="Path_12239" data-name="Path 12239" d="M1381.77,207.7c-1.177-1.035-2.3-1.067-2.944-.334-.734.8-.229,1.9.559,2.992l.807,1.142c1.586,2.182,2.13,4.441.471,6.339-1.836,2.077-4.635,1.969-7.411-.471-2.759-2.425-3.4-5.244-1.3-7.757l2.326,2.045c-.923,1.206-.531,2.575.718,3.672,1.222,1.074,2.508,1.2,3.246.372.668-.771.292-1.732-.683-3.12l-.965-1.4c-1.516-2.149-1.854-4.149-.375-5.821,1.8-2.076,4.841-1.847,7.334.344,2.532,2.225,2.968,5.089,1.22,7.145l-2.3-2.025c.7-.972.45-2.113-.7-3.124" transform="translate(-722.2 -107.444)" fill="#fff"/>
        <path id="Path_12240" data-name="Path 12240" d="M1410.76,228.461,1404,235.6c-2.278,2.4-5.624,2.28-8.356-.308s-3.036-5.922-.758-8.327l6.763-7.139,2.324,2.2-6.575,6.941a3.077,3.077,0,0,0,4.466,4.231l6.575-6.941Z" transform="translate(-734.135 -115.822)" fill="#fff"/>
        <rect id="Rectangle_2748" data-name="Rectangle 2748" width="15.145" height="3.202" transform="translate(667.981 125.448) rotate(-44.97)" fill="#fff"/>
        <path id="Path_12241" data-name="Path 12241" d="M1434.193,250.8l8.566,9.019-1.914,1.818-3.193-3.362-9.067,8.611-2.18-2.295,9.067-8.611-3.193-3.362Z" transform="translate(-751.547 -132.141)" fill="#fff"/>
        <path id="Path_12242" data-name="Path 12242" d="M1454.34,299.52c-2.629-3.065-2.455-7.236,1.289-10.447,3.76-3.226,7.893-2.745,10.521.319,2.614,3.048,2.472,7.222-1.289,10.447s-7.908,2.728-10.522-.319m9.661-8.284c-1.516-1.768-3.822-1.787-6.258.3s-2.769,4.371-1.252,6.139,3.823,1.788,6.258-.3,2.764-4.377,1.252-6.14" transform="translate(-765.329 -151.143)" fill="#fff"/>
        <path id="Path_12243" data-name="Path 12243" d="M1481.179,308.456l6.245,7.839-2.064,1.645-4.251-5.336-2.821,2.248,3.836,4.815-2.064,1.645-3.837-4.816-4.891,3.9-1.994-2.5Z" transform="translate(-774.168 -162.519)" fill="#fff"/>
        <path id="Path_12244" data-name="Path 12244" d="M1503.5,337.666l5.988,8.255-2.136,1.549-4.109-5.665-2.92,2.118,3.8,5.24-2.136,1.549-3.8-5.24-2.925,2.121,4.127,5.69-2.136,1.548-6.006-8.279Z" transform="translate(-785.713 -177.91)" fill="#fff"/>
        <path id="Path_12245" data-name="Path 12245" d="M1518.092,367.536l.066.1,5.995-.335,2.018,3-8.861.391-3.644,8.147-2.056-3.055,2.555-5.461-.066-.1-6.022.309-2.047-3.043,8.927-.294,3.686-8.085,2.027,3.012Z" transform="translate(-793.5 -189.208)" fill="#fff"/>
        <path id="Path_12246" data-name="Path 12246" d="M1539.6,399.894a3.065,3.065,0,0,0,.563-4.182c-1.233-1.994-3.57-2.358-6.25-.7-2.756,1.7-3.389,3.928-2.179,5.885a3.093,3.093,0,0,0,3.9,1.452l1.691,2.763a6.258,6.258,0,0,1-8.024-2.769c-2.131-3.448-1.295-7.5,2.908-10.093s8.224-1.493,10.328,1.91c1.843,2.982,1.524,6.292-1.23,8.49Z" transform="translate(-805.165 -205.911)" fill="#fff"/>
        <path id="Path_12247" data-name="Path 12247" d="M1553.67,414.929l5.039,8.869-2.295,1.3-3.458-6.086-3.136,1.782,3.2,5.63-2.295,1.3-3.2-5.63-3.142,1.786,3.473,6.112-2.295,1.3-5.054-8.895Z" transform="translate(-811.666 -218.618)" fill="#fff"/>
        <path id="Path_12248" data-name="Path 12248" d="M1567.008,439.127l1.49,2.831-11.056,5.819,3.022,5.741-2.335,1.229-4.512-8.573Z" transform="translate(-818.573 -231.368)" fill="#fff"/>
        <path id="Path_12249" data-name="Path 12249" d="M1578.67,461.943l1.4,2.878-11.237,5.473,2.842,5.835-2.372,1.156-4.243-8.712Z" transform="translate(-824.602 -243.389)" fill="#fff"/>
        <path id="Path_12250" data-name="Path 12250" d="M1589.643,485.1l4.177,9.31-2.409,1.081-2.867-6.389-3.292,1.478,2.651,5.91-2.409,1.081-2.651-5.91-3.3,1.48,2.878,6.416-2.408,1.081-4.19-9.337Z" transform="translate(-830.274 -255.588)" fill="#fff"/>
        <path id="Path_12251" data-name="Path 12251" d="M1591.437,527.99l-1.036-2.562,6.362-9.676-.042-.1-8.831,3.572-1.2-2.966,14.031-5.675,1.053,2.6-6.375,9.626.05.123,8.825-3.569,1.194,2.953Z" transform="translate(-835.999 -269.014)" fill="#fff"/>
        <path id="Path_12252" data-name="Path 12252" d="M1613.091,554.722a3.064,3.064,0,0,0,1.421-3.97c-.789-2.206-3-3.048-5.963-1.988-3.048,1.09-4.13,3.133-3.356,5.3a3.09,3.09,0,0,0,3.506,2.231l1.076,3.053a6.254,6.254,0,0,1-7.265-4.379c-1.364-3.814.3-7.595,4.946-9.258s8.349.256,9.7,4.021c1.18,3.3.178,6.467-2.972,8.041Z" transform="translate(-844.091 -287.205)" fill="#fff"/>
        <path id="Path_12253" data-name="Path 12253" d="M1623.957,573.6l3.076,9.726-2.516.8-2.111-6.674-3.439,1.088,1.953,6.174-2.516.8-1.953-6.174-3.446,1.09,2.12,6.7-2.516.8-3.085-9.755Z" transform="translate(-848.028 -302.218)" fill="#fff"/>
        <path id="Path_12254" data-name="Path 12254" d="M1659.461,901.958c.206-2.3-1.428-4.03-4.563-4.309s-5.073,1.067-5.286,3.459c-.19,2.12.882,3.5,2.747,3.71l.289-3.239,2.4.214-.563,6.307-1.9-.169c-3.966-.354-6.131-3.285-5.792-7.089.379-4.247,3.593-6.853,8.363-6.427,4.887.436,7.484,3.761,7.128,7.742-.3,3.408-2.636,5.847-5.653,5.994l.289-3.238a3.049,3.049,0,0,0,2.541-2.956" transform="translate(-867.648 -471.227)" fill="#fff"/>
        <path id="Path_12255" data-name="Path 12255" d="M1659.12,928.564l-.4,3.176-12.4-1.559-.809,6.44-2.619-.329,1.209-9.615Z" transform="translate(-865.609 -488.249)" fill="#fff"/>
        <path id="Path_12256" data-name="Path 12256" d="M1639.695,957.533c.642-3.985,3.937-6.546,8.805-5.762,4.889.787,7.192,4.25,6.55,8.235-.638,3.963-3.915,6.55-8.8,5.762s-7.188-4.272-6.55-8.235m12.56,2.023c.37-2.3-1.1-4.071-4.271-4.582s-5.123.71-5.494,3.009,1.1,4.071,4.271,4.581,5.125-.717,5.495-3.008" transform="translate(-863.87 -501.396)" fill="#fff"/>
        <path id="Path_12257" data-name="Path 12257" d="M1650.163,986.6l-1.2,5.939c-.66,3.275-2.573,4.608-4.8,4.159a3.232,3.232,0,0,1-2.646-3.323l-.145-.029a3.5,3.5,0,0,1-4.257,2.533c-2.361-.477-3.741-2.6-3.07-5.934l1.279-6.339Zm-13.419,3.218c-.354,1.753.225,2.661,1.34,2.886a2.2,2.2,0,0,0,2.586-2.019l.531-2.629-3.941-.8Zm6.11.991a2.015,2.015,0,0,0,1.432,2.618c1.072.216,1.949-.429,2.229-1.82l.481-2.383-3.672-.741Z" transform="translate(-860.862 -518.242)" fill="#fff"/>
        <path id="Path_12258" data-name="Path 12258" d="M1627.777,1010.117l13.484,8.639-.969,4.009-15.942,1.513.807-3.333,3.62-.281,1.285-5.309-3.092-1.9Zm3.618,10.351,6.005-.463.027-.116-5.129-3.157Z" transform="translate(-855.841 -532.212)" fill="#fff"/>
        <path id="Path_12259" data-name="Path 12259" d="M1635.032,1047.558l-.862,3.083-12.037-3.366-1.747,6.25-2.541-.71,2.609-9.332Z" transform="translate(-852.414 -549.792)" fill="#fff"/>
        <path id="Path_12260" data-name="Path 12260" d="M1627.008,1081.8l-3.242,9.487-2.5-.853,2.206-6.458-3.414-1.166-1.992,5.828-2.5-.853,1.991-5.828-5.92-2.022,1.035-3.03Z" transform="translate(-849.146 -567.398)" fill="#fff"/>
        <rect id="Rectangle_2749" data-name="Rectangle 2749" width="3.202" height="15.145" transform="translate(758.584 524.022) rotate(-70.639)" fill="#fff"/>
        <path id="Path_12261" data-name="Path 12261" d="M1611.037,1118.079l-2.125,5.585c-1.223,3.214-3.74,4.384-6.553,3.315a4.366,4.366,0,0,1-3.078-4.035l-6.645.914,1.256-3.3,6.038-.773.83-2.184-5.018-1.908,1.139-2.993Zm-8.644,2.465c-.652,1.714-.265,2.818,1.138,3.352s2.495-.009,3.152-1.736l.767-2.019-4.284-1.629Z" transform="translate(-839.131 -586.259)" fill="#fff"/>
        <path id="Path_12262" data-name="Path 12262" d="M1597.411,1150.59c.608-1.444.283-2.519-.616-2.9-.992-.442-1.87.383-2.66,1.478l-.828,1.127c-1.566,2.2-3.536,3.426-5.862,2.455-2.551-1.083-3.336-3.771-1.9-7.177,1.426-3.385,3.9-4.887,6.944-3.691l-1.2,2.854c-1.436-.493-2.61.312-3.255,1.844-.631,1.5-.344,2.758.675,3.2.942.389,1.734-.272,2.742-1.636l1.022-1.358c1.558-2.119,3.348-3.073,5.4-2.2,2.539,1.054,3.284,4.006,2,7.064-1.308,3.106-3.886,4.427-6.389,3.42l1.191-2.827c1.142.353,2.147-.242,2.741-1.652" transform="translate(-835.019 -601.423)" fill="#fff"/>
        <path id="Path_12263" data-name="Path 12263" d="M1590.786,1175.6l-5.228,11.275-2.392-1.109,1.948-4.2-11.337-5.256,1.33-2.869,11.336,5.255,1.949-4.2Z" transform="translate(-829.195 -618.265)" fill="#fff"/>
        <path id="Path_12264" data-name="Path 12264" d="M628.776,1633.952a3.063,3.063,0,0,0-2.472-3.416c-2.265-.6-4.208.75-5.009,3.8-.823,3.131.251,5.178,2.474,5.762a3.09,3.09,0,0,0,3.822-1.631l3.127.837a6.254,6.254,0,0,1-7.719,3.518c-3.916-1.03-6.1-4.537-4.841-9.311s4.929-6.743,8.8-5.726c3.388.89,5.436,3.507,4.954,7Z" transform="translate(-325.509 -857.509)" fill="#fff"/>
        <path id="Path_12265" data-name="Path 12265" d="M663.447,1635.526l-2.135,9.594c-.719,3.232-3.651,4.843-7.324,4.026s-5.644-3.519-4.925-6.751l2.134-9.6,3.123.695-2.075,9.328a3.076,3.076,0,0,0,6,1.335l2.075-9.328Z" transform="translate(-341.902 -860.293)" fill="#fff"/>
        <path id="Path_12266" data-name="Path 12266" d="M680.726,1639.371l3.145.592-2.309,12.284,6.378,1.2-.487,2.594-9.524-1.791Z" transform="translate(-357.189 -863.754)" fill="#fff"/>
        <path id="Path_12267" data-name="Path 12267" d="M701.743,1642.883l12.277,1.972-.419,2.605-4.576-.735-1.982,12.343-3.124-.5,1.983-12.342-4.577-.735Z" transform="translate(-369.515 -865.605)" fill="#fff"/>
        <rect id="Rectangle_2750" data-name="Rectangle 2750" width="15.145" height="3.202" transform="matrix(0.134, -0.991, 0.991, 0.134, 344.063, 794.431)" fill="#fff"/>
        <path id="Path_12268" data-name="Path 12268" d="M746.917,1661.043l.14.015,4.892-11.042,3.529.385-6.83,14.492-4.1-.447-3.558-15.623,3.536.385Z" transform="translate(-390.413 -868.734)" fill="#fff"/>
        <path id="Path_12269" data-name="Path 12269" d="M765.763,1667.4l6.361-14.7,4.114.313,4.055,15.494-3.421-.26-.858-3.528-5.448-.414-1.382,3.357Zm9.637-5.235-1.423-5.855-.118-.009-2.293,5.572Z" transform="translate(-403.467 -870.777)" fill="#fff"/>
        <path id="Path_12270" data-name="Path 12270" d="M796.217,1653.989l12.425.55-.117,2.637-4.631-.2-.552,12.491-3.162-.139.553-12.491-4.632-.206Z" transform="translate(-419.451 -871.456)" fill="#fff"/>
        <rect id="Rectangle_2751" data-name="Rectangle 2751" width="15.138" height="3.201" transform="translate(390.486 798.213) rotate(-88.899)" fill="#fff"/>
        <path id="Path_12271" data-name="Path 12271" d="M843.96,1670.465c-4.037.028-7.111-2.8-7.145-7.73-.034-4.954,3-7.8,7.037-7.827,4.015-.028,7.11,2.775,7.145,7.729s-3.022,7.8-7.038,7.828m-.087-12.725c-2.329.016-3.833,1.764-3.811,4.973s1.55,4.936,3.879,4.92,3.833-1.764,3.81-4.974-1.557-4.936-3.879-4.919" transform="translate(-440.903 -871.94)" fill="#fff"/>
        <path id="Path_12272" data-name="Path 12272" d="M883.474,1669l-2.762.128-7.021-9.213-.111.005.441,9.518-3.2.148-.7-15.123,2.806-.13,6.969,9.208.133-.006-.441-9.511,3.183-.147Z" transform="translate(-458.452 -871.396)" fill="#fff"/>
        <path id="Path_12273" data-name="Path 12273" d="M32.18,1083.682l16.016.285,1.276,3.922-12.783,9.649-1.062-3.261,2.936-2.138-1.691-5.2H33.242Zm8.51,6.919,4.872-3.545-.037-.112H39.5Z" transform="translate(-16.955 -570.972)" fill="#fff"/>
        <path id="Path_12274" data-name="Path 12274" d="M62.712,1117.688l-9.271,3.269c-3.123,1.1-6.043-.533-7.294-4.081s0-6.653,3.12-7.755l9.271-3.27,1.064,3.018-9.013,3.179a3.076,3.076,0,0,0,2.046,5.8l9.013-3.179Z" transform="translate(-24.06 -582.653)" fill="#fff"/>
        <path id="Path_12275" data-name="Path 12275" d="M68.922,1133.631l4.546,11.573-2.456.965-1.695-4.314-11.635,4.57-1.157-2.945,11.635-4.57-1.695-4.313Z" transform="translate(-29.782 -597.289)" fill="#fff"/>
        <path id="Path_12276" data-name="Path 12276" d="M68.194,1174.026c-1.611-3.7-.22-7.64,4.3-9.608,4.543-1.978,8.353-.3,9.965,3.4,1.6,3.683.24,7.631-4.3,9.609s-8.362.284-9.965-3.4m11.671-5.079c-.929-2.137-3.128-2.833-6.072-1.552s-3.932,3.364-3,5.5,3.128,2.833,6.072,1.551,3.928-3.372,3-5.5" transform="translate(-35.59 -613.068)" fill="#fff"/>
        <path id="Path_12277" data-name="Path 12277" d="M82.769,1207.594l-1.2-2.489,5.723-10.067-.048-.1-8.581,4.135-1.389-2.882,13.634-6.57,1.219,2.53-5.739,10.017.058.119,8.575-4.131,1.382,2.869Z" transform="translate(-40.714 -626.789)" fill="#fff"/>
        <path id="Path_12278" data-name="Path 12278" d="M96.655,1232.97c-1.894-3.562-.815-7.592,3.536-9.907,4.372-2.324,8.3-.954,10.19,2.608,1.884,3.543.835,7.582-3.537,9.906s-8.306.936-10.19-2.607m11.228-5.97c-1.093-2.055-3.337-2.578-6.169-1.072s-3.653,3.659-2.561,5.714,3.337,2.577,6.169,1.072,3.65-3.666,2.561-5.713" transform="translate(-50.454 -643.804)" fill="#fff"/>
        <path id="Path_12279" data-name="Path 12279" d="M122.351,1249.571l-6.646,8.758.09.153,10.881-1.573,2,3.4L115.636,1268l-1.576-2.675,8.49-5-.064-.109L112.07,1261.8,111,1259.98l6.468-8.361-.064-.108-8.522,5.022-1.576-2.675,13.043-7.687Z" transform="translate(-56.536 -656.584)" fill="#fff"/>
        <path id="Path_12280" data-name="Path 12280" d="M133.852,1296.009c-2.2-3.386-1.474-7.5,2.662-10.185,4.155-2.7,8.188-1.676,10.386,1.711,2.187,3.367,1.493,7.486-2.662,10.184s-8.2,1.657-10.387-1.711m10.674-6.931c-1.268-1.953-3.552-2.279-6.243-.531s-3.323,3.965-2.055,5.919,3.552,2.278,6.243.531,3.319-3.973,2.055-5.92" transform="translate(-69.884 -676.666)" fill="#fff"/>
        <path id="Path_12281" data-name="Path 12281" d="M168.282,1317.01l-8.028,5.68c-2.7,1.914-5.961,1.138-8.135-1.934s-1.821-6.4.883-8.316l8.028-5.68,1.849,2.614-7.805,5.522a3.078,3.078,0,0,0,3.553,5.022l7.805-5.522Z" transform="translate(-79.4 -688.508)" fill="#fff"/>
        <path id="Path_12282" data-name="Path 12282" d="M180.119,1339.654c-.95-1.248-2.044-1.5-2.821-.91-.878.642-.6,1.813-.043,3.043l.566,1.28c1.125,2.452,1.211,4.775-.79,6.308-2.21,1.674-4.933,1.016-7.173-1.925-2.227-2.923-2.3-5.814.256-7.863l1.877,2.465c-1.143,1-1.029,2.42-.021,3.742.986,1.294,2.222,1.672,3.108,1.005.807-.624.628-1.64-.053-3.194l-.67-1.562c-1.062-2.406-1-4.434.782-5.782,2.179-1.678,5.112-.854,7.123,1.787,2.043,2.681,1.9,5.575-.215,7.246l-1.859-2.44c.875-.816.859-1.984-.069-3.2" transform="translate(-88.618 -703.592)" fill="#fff"/>
        <path id="Path_12283" data-name="Path 12283" d="M202.737,1360.188l7.994,9.524-2.021,1.7-2.98-3.549-9.574,8.035-2.034-2.423,9.574-8.036-2.98-3.55Z" transform="translate(-102.279 -716.658)" fill="#fff"/>
        <path id="Path_12284" data-name="Path 12284" d="M218.709,1382.6l6.815,7.6-1.966,1.763-4.677-5.215-2.687,2.411,4.327,4.824-1.966,1.763-4.327-4.823-2.693,2.414,4.7,5.237-1.965,1.764-6.836-7.62Z" transform="translate(-109.292 -728.465)" fill="#fff"/>
        <path id="Path_12285" data-name="Path 12285" d="M224.084,1415.081l14.536-6.731,2.86,2.974-7.294,14.26-2.378-2.472,1.709-3.2-3.788-3.939-3.267,1.585Zm10.675,2.513,2.838-5.314-.082-.086-5.421,2.63Z" transform="translate(-118.066 -742.033)" fill="#fff"/>
        <path id="Path_12286" data-name="Path 12286" d="M261.213,1426.854l-4,10.239.128.122,10.036-4.485,2.857,2.724-10.446,10.958-2.247-2.143,6.8-7.132-.09-.086-9.584,4.375-1.53-1.458,3.938-9.809-.091-.087-6.825,7.159-2.247-2.142,10.446-10.958Z" transform="translate(-130.619 -750.347)" fill="#fff"/>
        <path id="Path_12287" data-name="Path 12287" d="M291.258,1458.216c-1.178-1.035-2.3-1.067-2.945-.334-.734.8-.228,1.9.56,2.992l.808,1.141c1.587,2.182,2.131,4.441.473,6.34-1.835,2.078-4.634,1.971-7.411-.469-2.761-2.425-3.4-5.243-1.3-7.758l2.327,2.045c-.923,1.207-.53,2.575.72,3.673,1.222,1.072,2.508,1.2,3.246.371.668-.772.291-1.732-.684-3.121l-.965-1.4c-1.517-2.148-1.856-4.149-.377-5.821,1.8-2.076,4.841-1.849,7.335.343,2.533,2.225,2.969,5.089,1.222,7.145l-2.305-2.025c.7-.973.45-2.114-.7-3.124" transform="translate(-147.63 -766.318)" fill="#fff"/>
        <path id="Path_12288" data-name="Path 12288" d="M1403.035,1426.127a3.063,3.063,0,0,0,4.2-.316c1.694-1.618,1.565-3.979-.609-6.256-2.235-2.341-4.542-2.5-6.2-.911a3.09,3.09,0,0,0-.612,4.11l-2.351,2.225a6.254,6.254,0,0,1,1.046-8.418c2.929-2.8,7.059-2.818,10.468.753s3.162,7.731.271,10.492c-2.534,2.419-5.835,2.792-8.554.556Z" transform="translate(-735.678 -745.296)" fill="#fff"/>
        <path id="Path_12289" data-name="Path 12289" d="M1380.287,1453.79l-6.495-7.384c-2.188-2.488-1.76-5.808,1.065-8.294s6.174-2.486,8.362,0l6.495,7.384-2.4,2.114-6.314-7.178a3.077,3.077,0,0,0-4.619,4.063l6.315,7.179Z" transform="translate(-723.094 -756.731)" fill="#fff"/>
        <path id="Path_12290" data-name="Path 12290" d="M1363.137,1464.426l-4.63,3.774c-2.664,2.172-5.429,1.927-7.33-.406a4.364,4.364,0,0,1-.648-5.031l-6.21-2.529,2.739-2.233,5.613,2.348,1.811-1.476-3.39-4.16,2.481-2.022Zm-8.714-2.185c-1.421,1.158-1.638,2.308-.69,3.471s2.165,1.24,3.6.072l1.673-1.363-2.9-3.552Z" transform="translate(-708.298 -765.397)" fill="#fff"/>
        <path id="Path_12291" data-name="Path 12291" d="M1326.732,1477.369c3.224-2.428,7.375-1.991,10.341,1.947,2.979,3.957,2.239,8.048-.985,10.477-3.206,2.415-7.361,2.009-10.341-1.948s-2.221-8.062.985-10.476m7.653,10.162c1.86-1.4,2.026-3.7.1-6.262s-4.186-3.04-6.046-1.639-2.025,3.7-.1,6.262,4.192,3.034,6.045,1.638" transform="translate(-697.525 -777.609)" fill="#fff"/>
        <path id="Path_12292" data-name="Path 12292" d="M1308.273,1506.439c1.289-.894,1.591-1.976,1.035-2.778-.6-.906-1.785-.68-3.041-.179l-1.3.507c-2.5,1.014-4.825,1-6.268-1.071-1.574-2.284-.794-4.975,2.244-7.082,3.02-2.094,5.912-2.038,7.846.608l-2.547,1.765c-.949-1.186-2.371-1.136-3.739-.188-1.337.927-1.77,2.145-1.144,3.062.587.834,1.61.7,3.193.089l1.591-.6c2.453-.954,4.476-.8,5.742,1.04,1.58,2.253.625,5.146-2.1,7.038-2.772,1.922-5.657,1.654-7.231-.539l2.522-1.748c.776.911,1.943.947,3.2.075" transform="translate(-683.842 -787.348)" fill="#fff"/>
        <rect id="Rectangle_2752" data-name="Rectangle 2752" width="3.201" height="15.139" transform="matrix(0.836, -0.549, 0.549, 0.836, 607.99, 714.87)" fill="#fff"/>
        <path id="Path_12293" data-name="Path 12293" d="M1282.241,1528.915l-10.56,6.568-1.394-2.241,3.937-2.448-6.6-10.617,2.687-1.671,6.6,10.617,3.936-2.448Z" transform="translate(-667.887 -800.072)" fill="#fff"/>
        <path id="Path_12294" data-name="Path 12294" d="M1253.429,1546.324l-6.234-3.948-.129.074.239,7.375-3.113,1.78-.063-11.24-2.656-4.647,2.76-1.577,2.657,4.647,9.652,5.758Z" transform="translate(-654.109 -808.309)" fill="#fff"/>
        <path id="Path_12295" data-name="Path 12295" d="M143.733,382.888l.568,9.645.567,9.645-8.636-4.331-8.637-4.331,8.069-5.314Z" transform="translate(-67.228 -201.736)" fill="#fff"/>
        <path id="Path_12296" data-name="Path 12296" d="M618.473,26.791,612.2,34.14,605.93,41.49,602.7,32.384l-3.229-9.106,9.5,1.757Z" transform="translate(-315.851 -12.264)" fill="#fff"/>
        <path id="Path_12297" data-name="Path 12297" d="M1167.907,67.785l-9.563,1.377-9.563,1.376,3.59-8.97,3.589-8.97,5.974,7.594Z" transform="translate(-605.271 -27.712)" fill="#fff"/>
        <path id="Path_12298" data-name="Path 12298" d="M1643.3,743.57l-5.384-8.022-5.385-8.023,9.64-.651,9.64-.652-4.256,8.674Z" transform="translate(-860.15 -382.632)" fill="#fff"/>
        <path id="Path_12299" data-name="Path 12299" d="M1496.028,1325.168l.723-9.635.722-9.635,7.983,5.443,7.982,5.443-8.7,4.192Z" transform="translate(-788.23 -688.054)" fill="#fff"/>
        <path id="Path_12300" data-name="Path 12300" d="M1066.393,1636.129l6.546-7.106,6.546-7.106,2.881,9.222,2.881,9.222-9.427-2.116Z" transform="translate(-561.863 -854.558)" fill="#fff"/>
        <path id="Path_12301" data-name="Path 12301" d="M410.638,1563.052l9.574-1.3,9.573-1.3-3.658,8.942-3.659,8.942-5.915-7.64Z" transform="translate(-216.358 -822.17)" fill="#fff"/>
        <path id="Path_12302" data-name="Path 12302" d="M9.662,917.86l4.831,8.367,4.831,8.368H0l4.831-8.368Z" transform="translate(0 -483.603)" fill="#fff"/>
      </g>
      <rect id="Rectangle_2743" data-name="Rectangle 2743" width="3.2" height="15.133" transform="matrix(0.059, -0.998, 0.998, 0.059, 335.336, 653.808)" fill="#fff"/>
      <path id="Path_12211" data-name="Path 12211" d="M26.734,753.547,26.5,756.3l-10.063,5.745-.01.111,9.5.82-.275,3.19-15.09-1.3.242-2.8,10.052-5.694.011-.133-9.49-.818.274-3.176Z" transform="translate(325.103 -117.207)" fill="#fff"/>
    </g>
  </g>
</svg>
