<svg xmlns="http://www.w3.org/2000/svg" xmlns:xlink="http://www.w3.org/1999/xlink" width="744" height="745" viewBox="0 0 744 745">
  <defs>
    <clipPath id="clip-Skeleton">
      <rect width="744" height="745"/>
    </clipPath>
  </defs>
  <g id="Skeleton" clip-path="url(#clip-Skeleton)">
    <g id="Group_7833" data-name="Group 7833" transform="translate(-1005.734 -215.806)">
      <path id="Path_12305" data-name="Path 12305" d="M337.045,507.609A164.822,164.822,0,0,1,244.4,479.3l-.486-.328.34-.478a5.156,5.156,0,0,0-8.335-6.07l-.352.464-.458-.358a165.834,165.834,0,0,1-57.277-176.2l.161-.564.561.176a5.154,5.154,0,0,0,3.185-9.8l-.56-.187.2-.554A165.682,165.682,0,0,1,331.3,176.51l.585-.02.008.585a5.15,5.15,0,0,0,10.3,0l.009-.585.584.02A165.679,165.679,0,0,1,492.708,285.391l.2.554-.558.187a5.154,5.154,0,0,0,3.184,9.8l.561-.176.161.564a165.841,165.841,0,0,1-57.276,176.21l-.461.359-.351-.465a5.154,5.154,0,0,0-8.335,6.062l.34.478-.485.328a164.834,164.834,0,0,1-92.644,28.313m-91.538-28.951a164.579,164.579,0,0,0,183.076,0,6.318,6.318,0,0,1,1.756-8.239,6.233,6.233,0,0,1,3.694-1.206,6.362,6.362,0,0,1,4.68,2.074,164.709,164.709,0,0,0,56.6-174.108,6.3,6.3,0,0,1-3.872-11.923A163.65,163.65,0,0,0,343.3,177.675a6.3,6.3,0,0,1-12.518,0A163.652,163.652,0,0,0,182.651,285.256,6.3,6.3,0,0,1,180.1,297.32a6.258,6.258,0,0,1-1.317-.141,164.689,164.689,0,0,0,56.6,174.1,6.3,6.3,0,0,1,10.129,7.379" transform="translate(1040.688 247.352)" fill="#fff"/>
      <path id="Path_12306" data-name="Path 12306" d="M363,730.977A360.588,360.588,0,0,1,154.291,665l-.474-.334.339-.47A5.157,5.157,0,0,0,153,657.012a5.1,5.1,0,0,0-3.021-.986,5.165,5.165,0,0,0-4.163,2.113l-.342.469-.465-.349A366.35,366.35,0,0,1,39.482,532.781,359.111,359.111,0,0,1,0,367.974,363.019,363.019,0,0,1,15.948,261.241l.2-.647.594.294a5.156,5.156,0,0,0,3.169-9.812l-.116-.043-.459-.22.165-.484A363.159,363.159,0,0,1,357.264,5.016l.578-.009,0,.578a5.157,5.157,0,0,0,10.314,0l0-.578.577.009A360.369,360.369,0,0,1,578.325,75.7,363.823,363.823,0,0,1,706.509,250.329l.162.474-.59.275v0a5.157,5.157,0,0,0,3.208,9.8l.606-.3.166.664a363.054,363.054,0,0,1,15.947,106.733,359.11,359.11,0,0,1-39.482,164.807A366.349,366.349,0,0,1,581,658.258l-.463.348-.343-.467a5.19,5.19,0,0,0-4.172-2.113,5.107,5.107,0,0,0-3.021.984,5.175,5.175,0,0,0-1.148,7.193l.34.47-.474.334A360.639,360.639,0,0,1,363,730.977m-207.6-66.6a361.991,361.991,0,0,0,415.2.008,6.329,6.329,0,0,1,1.72-8.305,6.25,6.25,0,0,1,3.7-1.2,6.34,6.34,0,0,1,4.73,2.129c91.6-69.1,144.11-174.417,144.11-289.035a361.945,361.945,0,0,0-15.734-105.865,6.236,6.236,0,0,1-7.425-4.183,6.31,6.31,0,0,1,3.542-7.755C655.889,106.729,520.99,8.759,369.276,6.171a6.3,6.3,0,0,1-12.545,0C205.017,8.759,70.117,106.728,20.764,250.17a6.3,6.3,0,0,1-3.886,11.942A361.963,361.963,0,0,0,1.147,367.974c0,114.618,52.514,219.931,144.108,289.034a6.327,6.327,0,0,1,4.724-2.128,6.3,6.3,0,0,1,5.424,9.5" transform="translate(1014.73 221.389)" fill="#fff"/>
      <path id="Path_12307" data-name="Path 12307" d="M316.1,184.053a6.3,6.3,0,1,1,6.3-6.3,6.31,6.31,0,0,1-6.3,6.3m0-11.46a5.157,5.157,0,1,0,5.157,5.157,5.163,5.163,0,0,0-5.157-5.157" transform="translate(1061.635 246.589)" fill="#fff"/>
      <rect id="Rectangle_2754" data-name="Rectangle 2754" width="1.146" height="186.014" transform="translate(1377.161 232.664)" fill="#fff"/>
      <path id="Path_12308" data-name="Path 12308" d="M316.1,12.606a6.3,6.3,0,1,1,6.3-6.3,6.309,6.309,0,0,1-6.3,6.3m0-11.46A5.157,5.157,0,1,0,321.255,6.3,5.163,5.163,0,0,0,316.1,1.146" transform="translate(1061.635 220.63)" fill="#fff"/>
      <path id="Path_12310" data-name="Path 12310" d="M179.79,283.088a6.306,6.306,0,1,1,5.992-4.357,6.294,6.294,0,0,1-5.992,4.357m0-11.463a5.162,5.162,0,1,0,1.595.253,5.143,5.143,0,0,0-1.595-.253" transform="translate(1040.997 261.583)" fill="#fff"/>
      <rect id="Rectangle_2755" data-name="Rectangle 2755" width="1.145" height="186.014" transform="translate(1038.315 479.68) rotate(-72)" fill="#fff"/>
      <path id="Path_12311" data-name="Path 12311" d="M16.734,230.108a6.3,6.3,0,1,1,5.993-4.357,6.274,6.274,0,0,1-5.993,4.357m0-11.463a5.16,5.16,0,1,0,1.595.253,5.143,5.143,0,0,0-1.595-.253" transform="translate(1016.309 253.561)" fill="#fff"/>
      <path id="Path_12313" data-name="Path 12313" d="M231.848,443.328a6.3,6.3,0,0,1-5.094-10.008,6.323,6.323,0,0,1,5.1-2.6,6.3,6.3,0,0,1,5.095,10.008,6.328,6.328,0,0,1-5.1,2.6m.009-11.46a5.157,5.157,0,0,0-3.036,9.329,5.12,5.12,0,0,0,3.027.986,5.179,5.179,0,0,0,4.177-2.125,5.157,5.157,0,0,0-4.168-8.189" transform="translate(1048.881 285.844)" fill="#fff"/>
      <rect id="Rectangle_2756" data-name="Rectangle 2756" width="186.014" height="1.145" transform="translate(1167.598 877.594) rotate(-53.994)" fill="#fff"/>
      <path id="Path_12314" data-name="Path 12314" d="M131.075,582.031a6.3,6.3,0,0,1-5.095-10.008,6.325,6.325,0,0,1,5.1-2.6,6.3,6.3,0,0,1,5.095,10.008,6.328,6.328,0,0,1-5.1,2.6m.009-11.461a5.157,5.157,0,0,0-3.036,9.329,5.121,5.121,0,0,0,3.027.987,5.158,5.158,0,0,0,3.036-9.331,5.119,5.119,0,0,0-3.027-.984" transform="translate(1033.622 306.845)" fill="#fff"/>
      <path id="Path_12316" data-name="Path 12316" d="M400.345,443.329a6.329,6.329,0,0,1-5.1-2.6,6.3,6.3,0,1,1,5.1,2.6m-.009-11.461a5.16,5.16,0,0,0-4.168,8.19,5.18,5.18,0,0,0,4.177,2.126,5.158,5.158,0,0,0-.009-10.315" transform="translate(1074.39 285.844)" fill="#fff"/>
      <rect id="Rectangle_2757" data-name="Rectangle 2757" width="1.146" height="186.015" transform="translate(1477.594 727.785) rotate(-36)" fill="#fff"/>
      <path id="Path_12317" data-name="Path 12317" d="M501.119,582.031a6.326,6.326,0,0,1-5.1-2.6,6.3,6.3,0,1,1,5.1,2.6m-.008-11.46a5.156,5.156,0,1,0,4.176,2.125,5.18,5.18,0,0,0-4.176-2.125" transform="translate(1089.647 306.845)" fill="#fff"/>
      <path id="Path_12319" data-name="Path 12319" d="M452.405,283.089a6.314,6.314,0,1,1,1.949-.311,6.287,6.287,0,0,1-1.949.311m0-11.463a5.159,5.159,0,1,0,4.9,3.565,5.165,5.165,0,0,0-4.9-3.565" transform="translate(1082.272 261.583)" fill="#fff"/>
      <rect id="Rectangle_2758" data-name="Rectangle 2758" width="186.013" height="1.145" transform="translate(1539.876 536.042) rotate(-17.98)" fill="#fff"/>
      <path id="Path_12320" data-name="Path 12320" d="M615.46,230.109a6.314,6.314,0,1,1,1.949-.311,6.286,6.286,0,0,1-1.949.311m0-11.463a5.159,5.159,0,1,0,4.9,3.565,5.173,5.173,0,0,0-4.9-3.565" transform="translate(1106.961 253.562)" fill="#fff"/>
      <path id="Path_12323" data-name="Path 12323" d="M492.874,65.827l8.534.788-3.584-7.786Z" transform="translate(1089.354 229.538)" fill="#fff"/>
      <path id="Path_12325" data-name="Path 12325" d="M127.985,73.463l3.385-7.874-8.511,1Z" transform="translate(1033.332 230.561)" fill="#fff"/>
      <path id="Path_12327" data-name="Path 12327" d="M22.566,423.166l-6.442-5.653-1.676,8.405Z" transform="translate(1016.918 283.845)" fill="#fff"/>
      <path id="Path_12329" data-name="Path 12329" d="M322.634,631.211l-7.367,4.379,7.476,4.192Z" transform="translate(1062.464 316.2)" fill="#fff"/>
      <path id="Path_12331" data-name="Path 12331" d="M612.992,410.253l1.888,8.36,6.3-5.815Z" transform="translate(1107.541 282.746)" fill="#fff"/>
      <path id="Path_12332" data-name="Path 12332" d="M317.863,92.079a2.292,2.292,0,1,1-2.292-2.292,2.293,2.293,0,0,1,2.292,2.292" transform="translate(1062.163 234.225)" fill="#fff"/>
      <path id="Path_12333" data-name="Path 12333" d="M317.863,102.029a2.292,2.292,0,1,1-2.292-2.292,2.293,2.293,0,0,1,2.292,2.292" transform="translate(1062.163 235.731)" fill="#fff"/>
      <path id="Path_12334" data-name="Path 12334" d="M318.727,177.323a3.056,3.056,0,1,1-3.056-3.056,3.056,3.056,0,0,1,3.056,3.056" transform="translate(1062.063 247.016)" fill="#fff"/>
      <path id="Path_12335" data-name="Path 12335" d="M318.727,5.876a3.056,3.056,0,1,1-3.056-3.056,3.056,3.056,0,0,1,3.056,3.056" transform="translate(1062.063 221.057)" fill="#fff"/>
      <path id="Path_12336" data-name="Path 12336" d="M317.863,82.129a2.292,2.292,0,1,1-2.292-2.292,2.293,2.293,0,0,1,2.292,2.292" transform="translate(1062.163 232.718)" fill="#fff"/>
      <path id="Path_12337" data-name="Path 12337" d="M98.994,247.766a2.292,2.292,0,1,1-2.888,1.472,2.29,2.29,0,0,1,2.888-1.472" transform="translate(1029.265 258.127)" fill="#fff"/>
      <path id="Path_12338" data-name="Path 12338" d="M108.457,250.84a2.292,2.292,0,1,1-2.888,1.471,2.294,2.294,0,0,1,2.888-1.471" transform="translate(1030.697 258.592)" fill="#fff"/>
      <path id="Path_12339" data-name="Path 12339" d="M180.305,273.451a3.056,3.056,0,1,1-3.85,1.961,3.056,3.056,0,0,1,3.85-1.961" transform="translate(1041.424 262.01)" fill="#fff"/>
      <path id="Path_12340" data-name="Path 12340" d="M17.25,220.47a3.056,3.056,0,1,1-3.85,1.962,3.057,3.057,0,0,1,3.85-1.962" transform="translate(1016.736 253.988)" fill="#fff"/>
      <path id="Path_12341" data-name="Path 12341" d="M89.531,244.691a2.292,2.292,0,1,1-2.888,1.473,2.294,2.294,0,0,1,2.888-1.473" transform="translate(1027.832 257.661)" fill="#fff"/>
      <path id="Path_12342" data-name="Path 12342" d="M179.426,504.031a2.292,2.292,0,1,1,.507,3.2,2.292,2.292,0,0,1-.507-3.2" transform="translate(1041.83 296.801)" fill="#fff"/>
      <path id="Path_12343" data-name="Path 12343" d="M185.275,495.981a2.292,2.292,0,1,1,.508,3.2,2.293,2.293,0,0,1-.508-3.2" transform="translate(1042.716 295.582)" fill="#fff"/>
      <path id="Path_12344" data-name="Path 12344" d="M228.954,434.8a3.056,3.056,0,1,1,.676,4.268,3.055,3.055,0,0,1-.676-4.268" transform="translate(1049.307 286.271)" fill="#fff"/>
      <path id="Path_12345" data-name="Path 12345" d="M128.18,573.5a3.056,3.056,0,1,1,.676,4.268,3.055,3.055,0,0,1-.676-4.268" transform="translate(1034.049 307.272)" fill="#fff"/>
      <path id="Path_12346" data-name="Path 12346" d="M173.578,512.081a2.292,2.292,0,1,1,.507,3.2,2.292,2.292,0,0,1-.507-3.2" transform="translate(1040.945 298.02)" fill="#fff"/>
      <path id="Path_12347" data-name="Path 12347" d="M448,506.727a2.292,2.292,0,1,1,3.2.507,2.293,2.293,0,0,1-3.2-.507" transform="translate(1082.495 296.801)" fill="#fff"/>
      <path id="Path_12348" data-name="Path 12348" d="M442.157,498.677a2.292,2.292,0,1,1,3.2.507,2.293,2.293,0,0,1-3.2-.507" transform="translate(1081.609 295.582)" fill="#fff"/>
      <path id="Path_12349" data-name="Path 12349" d="M397.441,438.394a3.056,3.056,0,1,1,4.269.676,3.056,3.056,0,0,1-4.269-.676" transform="translate(1074.817 286.271)" fill="#fff"/>
      <path id="Path_12350" data-name="Path 12350" d="M498.215,577.1a3.056,3.056,0,1,1,4.268.676,3.056,3.056,0,0,1-4.268-.676" transform="translate(1090.075 307.272)" fill="#fff"/>
      <path id="Path_12351" data-name="Path 12351" d="M453.853,514.776a2.292,2.292,0,1,1,3.2.508,2.292,2.292,0,0,1-3.2-.508" transform="translate(1083.38 298.02)" fill="#fff"/>
      <path id="Path_12352" data-name="Path 12352" d="M533.563,252.126a2.292,2.292,0,1,1,1.471-2.888,2.29,2.29,0,0,1-1.471,2.888" transform="translate(1095.061 258.127)" fill="#fff"/>
      <path id="Path_12353" data-name="Path 12353" d="M524.1,255.2a2.292,2.292,0,1,1,1.472-2.889A2.295,2.295,0,0,1,524.1,255.2" transform="translate(1093.628 258.592)" fill="#fff"/>
      <path id="Path_12354" data-name="Path 12354" d="M452.924,279.263a3.056,3.056,0,1,1,1.962-3.85,3.055,3.055,0,0,1-1.962,3.85" transform="translate(1082.7 262.01)" fill="#fff"/>
      <path id="Path_12355" data-name="Path 12355" d="M615.978,226.284a3.056,3.056,0,1,1,1.962-3.85,3.057,3.057,0,0,1-1.962,3.85" transform="translate(1107.387 253.988)" fill="#fff"/>
      <path id="Path_12356" data-name="Path 12356" d="M543.026,249.051a2.292,2.292,0,1,1,1.472-2.889,2.293,2.293,0,0,1-1.472,2.889" transform="translate(1096.493 257.661)" fill="#fff"/>
    </g>
  </g>
</svg>
