<svg id="Group_6820" data-name="Group 6820" xmlns="http://www.w3.org/2000/svg" width="40.817" height="40.817" viewBox="0 0 40.817 40.817">
  <circle id="Ellipse_77" data-name="Ellipse 77" cx="20.408" cy="20.408" r="20.408" transform="translate(0 0)" fill="#003d4f"/>
  <path id="Path_6447" data-name="Path 6447" d="M720.533,738.67a.534.534,0,0,1-.377-.911l17.6-17.6a.533.533,0,0,1,.754.754l-17.6,17.6a.533.533,0,0,1-.377.156" transform="translate(-709.071 -709.432)" fill="#f2617a" stroke="#fff" stroke-width="1"/>
  <path id="Path_6448" data-name="Path 6448" d="M738.136,738.67a.532.532,0,0,1-.377-.156l-17.6-17.6a.533.533,0,0,1,.754-.754l8.8,8.8,8.806,8.806a.534.534,0,0,1-.377.911" transform="translate(-709.071 -709.432)" fill="#fff" stroke="#fff" stroke-width="1"/>
</svg>
