<svg xmlns="http://www.w3.org/2000/svg" width="1244" height="653.862" viewBox="0 0 1244 653.862">
  <rect id="Rectangle_4851" data-name="Rectangle 4851" width="1244" height="653.862" fill="#fff"/>
  <text id="Our_India_Revenue_Growth" data-name="Our India Revenue Growth" transform="translate(105)" font-size="24" font-family="Bitter-Bold, Bitter" font-weight="700"><tspan x="0" y="23">Our India Revenue Growth</tspan></text>
  <text id="Net_Revenue" data-name="Net Revenue" transform="translate(105 130)" font-size="16" font-family="Helvetica-Bold, Helvetica" font-weight="700"><tspan x="0" y="12">Net Revenue</tspan></text>
  <text id="_124.7" data-name="$124.7" transform="translate(327.096 129.82)" font-size="16" font-family="Helvetica-Bold, Helvetica" font-weight="700"><tspan x="0" y="12">$124.7</tspan></text>
  <text id="_157.2" data-name="$157.2" transform="translate(482.707 129.82)" font-size="16" font-family="Helvetica-Bold, Helvetica" font-weight="700"><tspan x="0" y="12">$157.2</tspan></text>
  <text id="_223.1" data-name="$223.1" transform="translate(630.969 129.82)" font-size="16" font-family="Helvetica-Bold, Helvetica" font-weight="700"><tspan x="0" y="12">$223.1</tspan></text>
  <text id="CGM_" data-name="CGM %" transform="translate(105 182)" font-size="16" font-family="Helvetica-Bold, Helvetica" font-weight="700"><tspan x="0" y="12">CGM %</tspan></text>
  <text id="_175" data-name="$175" transform="translate(327.096 182.223)" font-size="16" font-family="Helvetica-Bold, Helvetica" font-weight="700"><tspan x="0" y="12">$175</tspan></text>
  <text id="_191" data-name="$191" transform="translate(482.707 182.223)" font-size="16" font-family="Helvetica-Bold, Helvetica" font-weight="700"><tspan x="0" y="12">$191</tspan></text>
  <text id="_216" data-name="$216" transform="translate(630.969 182.223)" font-size="16" font-family="Helvetica-Bold, Helvetica" font-weight="700"><tspan x="0" y="12">$216</tspan></text>
  <text id="Headcount" transform="translate(105 236)" font-size="16" font-family="Helvetica-Bold, Helvetica" font-weight="700"><tspan x="0" y="12">Headcount</tspan></text>
  <text id="_1390" data-name="1390" transform="translate(327.096 236.043)" font-size="16" font-family="Helvetica-Bold, Helvetica" font-weight="700"><tspan x="0" y="12">1390</tspan></text>
  <text id="_1786" data-name="1786" transform="translate(482.707 236.043)" font-size="16" font-family="Helvetica-Bold, Helvetica" font-weight="700"><tspan x="0" y="12">1786</tspan></text>
  <text id="_2395" data-name="2395" transform="translate(630.969 236.043)" font-size="16" font-family="Helvetica-Bold, Helvetica" font-weight="700"><tspan x="0" y="12">2395</tspan></text>
  <text id="YoY_Growth_" data-name="YoY Growth %" transform="translate(105 288)" fill="#cc850a" font-size="16" font-family="Helvetica-Bold, Helvetica" font-weight="700"><tspan x="0" y="12">YoY Growth %</tspan></text>
  <text id="_29_" data-name="29%" transform="translate(327.096 288.446)" fill="#cc850a" font-size="16" font-family="Helvetica-Bold, Helvetica" font-weight="700"><tspan x="0" y="12">29%</tspan></text>
  <text id="_26_" data-name="26%" transform="translate(482.707 288.446)" fill="#cc850a" font-size="16" font-family="Helvetica-Bold, Helvetica" font-weight="700"><tspan x="0" y="12">26%</tspan></text>
  <text id="_42_" data-name="42%" transform="translate(630.969 288.446)" fill="#cc850a" font-size="16" font-family="Helvetica-Bold, Helvetica" font-weight="700"><tspan x="0" y="12">42%</tspan></text>
  <text id="_M_" data-name="($M)" transform="translate(105 76)" font-size="16" font-family="Helvetica"><tspan x="0" y="12">($M)</tspan></text>
  <text id="_2019" data-name="2019" transform="translate(327.096 76)" font-size="16" font-family="Helvetica"><tspan x="0" y="12">2019</tspan></text>
  <text id="_2020" data-name="2020" transform="translate(482.707 76)" font-size="16" font-family="Helvetica"><tspan x="0" y="12">2020</tspan></text>
  <text id="_2021" data-name="2021" transform="translate(630.969 76)" font-size="16" font-family="Helvetica"><tspan x="0" y="12">2021</tspan></text>
  <line id="Line_442" data-name="Line 442" x2="631.033" transform="translate(105 104.5)" fill="none" stroke="#bababa" stroke-width="1"/>
  <line id="Line_443" data-name="Line 443" x2="631.033" transform="translate(105 170.185)" fill="none" stroke="#bababa" stroke-width="1"/>
  <line id="Line_444" data-name="Line 444" x2="631.033" transform="translate(105 222.588)" fill="none" stroke="#bababa" stroke-width="1"/>
  <line id="Line_445" data-name="Line 445" x2="631.033" transform="translate(105 288.272)" fill="none" stroke="#bababa" stroke-width="1"/>
  <rect id="Rectangle_5141" data-name="Rectangle 5141" width="344.667" height="294.54" transform="translate(794.334 64.781)" fill="#003d4f"/>
  <rect id="Rectangle_5142" data-name="Rectangle 5142" width="344.667" height="294.54" transform="translate(794.334 359.322)" fill="#cc850a"/>
  <rect id="Rectangle_5143" data-name="Rectangle 5143" width="344.667" height="294.54" transform="translate(449.666 359.322)" fill="#003d4f"/>
  <rect id="Rectangle_5144" data-name="Rectangle 5144" width="344.667" height="294.54" transform="translate(105 359.322)" fill="#cc850a"/>
  <text id="_33_" data-name="33%
" transform="translate(861.668 178.696)" fill="#fff" font-size="40" font-family="Helvetica-Bold, Helvetica" font-weight="700"><tspan x="0" y="31">33%</tspan></text>
  <text id="_39_" data-name="39%" transform="translate(861.668 487.03)" fill="#fff" font-size="40" font-family="Helvetica-Bold, Helvetica" font-weight="700"><tspan x="0" y="31">39%</tspan></text>
  <text id="_53.4M" data-name="$53.4M" transform="translate(504 487.03)" fill="#fff" font-size="40" font-family="Helvetica-Bold, Helvetica" font-weight="700"><tspan x="0" y="31">$53.4M</tspan></text>
  <text id="_66.6_" data-name="66.6%" transform="translate(172 487.03)" fill="#fff" font-size="40" font-family="Helvetica-Bold, Helvetica" font-weight="700"><tspan x="0" y="31">66.6%</tspan></text>
  <text id="YoY_growth_from_2019_to_2021_" data-name="YoY growth from 2019 to 2021 " transform="translate(861.668 243.304)" fill="#fff" font-size="20" font-family="Helvetica-Bold, Helvetica" font-weight="700"><tspan x="0" y="15">YoY growth from 2019 </tspan><tspan x="0" y="41">to 2021 </tspan></text>
  <text id="YoY_growth_projected_for_2022" data-name="YoY growth projected for 2022" transform="translate(861.668 551.639)" fill="#fff" font-size="20" font-family="Helvetica-Bold, Helvetica" font-weight="700"><tspan x="0" y="15">YoY growth projected </tspan><tspan x="0" y="41">for 2022</tspan></text>
  <text id="_2022_projected_revenue_from_India_Local_Market" data-name="2022 projected revenue  from India Local Market" transform="translate(504 551.639)" fill="#fff" font-size="20" font-family="Helvetica-Bold, Helvetica" font-weight="700"><tspan x="0" y="15" xml:space="preserve">2022 projected revenue  </tspan><tspan x="0" y="41">from India Local Market</tspan></text>
  <text id="Average_CGM_for_2021" data-name="Average CGM 
for 2021" transform="translate(172 551.639)" fill="#fff" font-size="20" font-family="Helvetica-Bold, Helvetica" font-weight="700"><tspan x="0" y="15">Average CGM </tspan><tspan x="0" y="41">for 2021</tspan></text>
  <g id="Group_12710" data-name="Group 12710" transform="translate(172 396.091)">
    <path id="Path_16746" data-name="Path 16746" d="M249.286,364.247a1.127,1.127,0,0,0-.661.111,2.9,2.9,0,0,1-.826.286,4.766,4.766,0,0,1-.858.08,4.378,4.378,0,0,1-1.446-.232,3.043,3.043,0,0,1-1.16-.708,3.31,3.31,0,0,1-.77-1.192,4.674,4.674,0,0,1-.279-1.684,4.445,4.445,0,0,1,.245-1.509,3.334,3.334,0,0,1,.724-1.183,3.2,3.2,0,0,1,1.151-.77,4.108,4.108,0,0,1,1.532-.27,4.013,4.013,0,0,1,.883.1,4.125,4.125,0,0,1,.8.27,1.239,1.239,0,0,0,.661.127.713.713,0,0,0,.531-.318.975.975,0,0,0,.232-.81.849.849,0,0,0-.483-.652,5.656,5.656,0,0,0-1.255-.461,5.949,5.949,0,0,0-1.367-.159,6.078,6.078,0,0,0-2.288.422,5.483,5.483,0,0,0-1.818,1.176,5.2,5.2,0,0,0-1.192,1.789,5.961,5.961,0,0,0-.422,2.256,6.274,6.274,0,0,0,.461,2.488,4.986,4.986,0,0,0,1.264,1.789,5.462,5.462,0,0,0,1.827,1.08,6.425,6.425,0,0,0,2.168.365,5.708,5.708,0,0,0,.906-.07,6.277,6.277,0,0,0,.881-.207,5.706,5.706,0,0,0,.851-.341.831.831,0,0,0,.483-.613.956.956,0,0,0-.229-.817.829.829,0,0,0-.549-.339Z" transform="translate(-229.229 -312.588)" fill="#fff"/>
    <path id="Path_16747" data-name="Path 16747" d="M326.78,359.941h-2.606a.952.952,0,0,0-.69.27.975.975,0,0,0,0,1.366.955.955,0,0,0,.69.27h1.494v2.041a4.176,4.176,0,0,1-.795.216,6.436,6.436,0,0,1-1.049.1,3.557,3.557,0,0,1-1.884-.517,3.812,3.812,0,0,1-1.351-1.389,3.888,3.888,0,0,1,0-3.821,3.829,3.829,0,0,1,1.351-1.382,3.552,3.552,0,0,1,1.884-.517,4.482,4.482,0,0,1,.938.1,4.289,4.289,0,0,1,.842.27,1.119,1.119,0,0,0,.261.1,1.2,1.2,0,0,0,.263.032.811.811,0,0,0,.652-.3,1.041,1.041,0,0,0,.254-.683.893.893,0,0,0-.12-.436.85.85,0,0,0-.356-.341,5.029,5.029,0,0,0-1.287-.477,6.465,6.465,0,0,0-1.446-.159,5.709,5.709,0,0,0-2.257.445,5.876,5.876,0,0,0-1.843,1.23,5.785,5.785,0,0,0-1.247,1.818,5.677,5.677,0,0,0,0,4.449,5.826,5.826,0,0,0,3.09,3.051,5.755,5.755,0,0,0,2.257.445,6.258,6.258,0,0,0,1.821-.261,6.843,6.843,0,0,0,1.6-.708,1.385,1.385,0,0,0,.343-.334.874.874,0,0,0,.15-.524v-3.369a.952.952,0,0,0-.27-.69.918.918,0,0,0-.684-.278Z" transform="translate(-296.067 -312.064)" fill="#fff"/>
    <path id="Path_16748" data-name="Path 16748" d="M417.2,355.746a.917.917,0,0,0-.779.429l-3.564,5.324-3.46-5.324a.9.9,0,0,0-.375-.311,1.083,1.083,0,0,0-.47-.12.985.985,0,0,0-.708.286.921.921,0,0,0-.293.683v9.2a.988.988,0,0,0,.254.69.839.839,0,0,0,.652.279.858.858,0,0,0,.667-.279.982.982,0,0,0,.254-.69v-6.545L412,363.514a1.348,1.348,0,0,0,.359.3.7.7,0,0,0,.422.112.753.753,0,0,0,.436-.112,1.34,1.34,0,0,0,.359-.3l2.622-4v6.4a.934.934,0,0,0,.279.69.985.985,0,0,0,.722.279.94.94,0,0,0,.985-.969v-9.2a.891.891,0,0,0-.3-.7,1.009,1.009,0,0,0-.683-.268Z" transform="translate(-373.98 -313.002)" fill="#fff"/>
    <path id="Path_16749" data-name="Path 16749" d="M197.493,62.574h-1.067V41.189a6.754,6.754,0,0,0-.517-2.547,1.127,1.127,0,0,0-.252-.638c-.091-.184-.211-.356-.32-.534-.068-.112-.125-.225-.2-.334a6.824,6.824,0,0,0-.763-.919l-.007-.009-7.9-7.9a6.61,6.61,0,0,0-2.043-1.4s-.009,0-.011,0l-.025-.014c-.009,0-.02,0-.029,0a6.832,6.832,0,0,0-2.871-.63H152.658a3.907,3.907,0,0,0-3.9,3.9V88.182a3.907,3.907,0,0,0,3.9,3.9h39.863a3.909,3.909,0,0,0,3.9-3.9v-.635h1.067a3.477,3.477,0,0,0,3.473-3.473V66.048a3.478,3.478,0,0,0-3.473-3.474ZM192.551,37.6H186.21a1.136,1.136,0,0,1-1.135-1.135V30.127Zm1.6,50.579a1.636,1.636,0,0,1-1.635,1.635H152.657a1.636,1.636,0,0,1-1.635-1.635V30.156a1.636,1.636,0,0,1,1.635-1.635h28.831a4.5,4.5,0,0,1,1.316.216v7.73a3.409,3.409,0,0,0,3.405,3.405h7.732a4.523,4.523,0,0,1,.213,1.316V62.573H175.834a1.2,1.2,0,0,1-.853-.347l-.908-.908a3.449,3.449,0,0,0-2.459-1.012H156.765a3.476,3.476,0,0,0-3.473,3.473V84.073a3.477,3.477,0,0,0,3.473,3.473h37.39Zm4.54-4.109a1.2,1.2,0,0,1-1.2,1.2H156.767a1.2,1.2,0,0,1-1.2-1.2v-20.3a1.205,1.205,0,0,1,1.2-1.2h14.847a1.2,1.2,0,0,1,.853.347l.908.908a3.448,3.448,0,0,0,2.459,1.012h21.66a1.2,1.2,0,0,1,1.2,1.2Z" transform="translate(-148.754 -26.252)" fill="#fff"/>
    <path id="Path_16750" data-name="Path 16750" d="M182.6,82.089l4.234,1.639a1.146,1.146,0,0,0,.411.077,1.133,1.133,0,0,0,1.058-.724l1.639-4.234a1.134,1.134,0,0,0-.649-1.469l-1.058-.411.408-1.058a7.925,7.925,0,0,1,6.819-5.042l-.127.329a1.132,1.132,0,0,0,.649,1.467l4.234,1.639a1.165,1.165,0,0,0,.411.077,1.132,1.132,0,0,0,1.06-.724l.109-.282a8.064,8.064,0,0,1,1.526,2.181,7.975,7.975,0,0,1,.141,6.088l-.411,1.06L202,82.3a1.134,1.134,0,0,0-1.467.649l-1.639,4.234a1.135,1.135,0,0,0,.649,1.469l4.236,1.639a1.132,1.132,0,0,0,1.466-.647l1.639-4.234a1.135,1.135,0,0,0-.649-1.469l-1.06-.408.408-1.058a10.237,10.237,0,0,0-.184-7.83,10.087,10.087,0,0,0-.513-.958l3.759,1.455a3.4,3.4,0,0,0,2.161,3.271,3.4,3.4,0,0,0,4.4-1.943,3.409,3.409,0,0,0-1.945-4.407,3.486,3.486,0,0,0-3.787.969l-6.561-2.54.408-1.06a1.132,1.132,0,0,0-.649-1.466l-4.234-1.639a1.154,1.154,0,0,0-.87.02,1.138,1.138,0,0,0-.6.629l-.408,1.058-6.541-2.542a3.422,3.422,0,0,0-.277-1.474,3.373,3.373,0,0,0-1.887-1.8,3.483,3.483,0,0,0-4.4,1.945A3.391,3.391,0,0,0,189.2,67.6l3.791,1.467a10.173,10.173,0,0,0-6.459,6.02l-.408,1.058-1.058-.408a1.134,1.134,0,0,0-1.468.647l-1.639,4.234a1.137,1.137,0,0,0,.647,1.471Zm20.933,5.669-2.118-.82.819-2.118,1.056.408a0,0,0,0,1,0,0h0l1.056.408Zm8.5-13.669a1.093,1.093,0,0,1,.408.077,1.139,1.139,0,0,1,.649,1.469,1.163,1.163,0,0,1-1.469.649,1.136,1.136,0,0,1,.411-2.2ZM198.686,68.84l2.118.819-.408,1.056a0,0,0,0,1,0,0s0,0,0,0l-.408,1.056-2.118-.819.408-1.058v0Zm-12.052-2.313a1.116,1.116,0,0,1-.411-.077,1.136,1.136,0,0,1,.409-2.2,1.135,1.135,0,0,1,1.058,1.543v0a1.125,1.125,0,0,1-1.056.727ZM185.3,78.263l1.06.411,1.058.408L186.6,81.2l-2.118-.817Z" transform="translate(-177.581 -57.363)" fill="#fff"/>
  </g>
  <g id="Group_12711" data-name="Group 12711" transform="translate(504 396.091)">
    <path id="Path_16751" data-name="Path 16751" d="M172.357,253.75H116.839a3.087,3.087,0,0,0-3.084,3.084v7.551a1.064,1.064,0,0,0,2.127,0v-7.551a.949.949,0,0,1,.957-.957h55.517a.949.949,0,0,1,.957.957v15a1.064,1.064,0,0,0,2.127,0v-15A3.087,3.087,0,0,0,172.357,253.75Z" transform="translate(-109.5 -223.971)" fill="#fff"/>
    <path id="Path_16752" data-name="Path 16752" d="M174.372,382.627a1,1,0,0,0-1.064,1.064v6.488a.949.949,0,0,1-.957.957H116.834a.953.953,0,0,1-.957-.957v-12.87a1.064,1.064,0,1,0-2.127,0v12.87a2.96,2.96,0,0,0,3.084,3.084h55.517a3.087,3.087,0,0,0,3.084-3.084V383.69A1,1,0,0,0,174.372,382.627Z" transform="translate(-109.496 -331.576)" fill="#fff"/>
    <path id="Path_16753" data-name="Path 16753" d="M275.572,528.814a1.511,1.511,0,0,1-.638.213h-38.5a1.064,1.064,0,0,0,0,2.127h38.5a2.97,2.97,0,0,0,2.127-.851,1.053,1.053,0,0,0-1.489-1.489Z" transform="translate(-216.333 -465.321)" fill="#fff"/>
    <path id="Path_16754" data-name="Path 16754" d="M186.941,532.88h-2.127a1.064,1.064,0,1,0,0,2.127h2.127a1.064,1.064,0,1,0,0-2.127Z" transform="translate(-170.987 -469.173)" fill="#fff"/>
    <path id="Path_16755" data-name="Path 16755" d="M88.322,322.276H81.728a.915.915,0,0,1-.851-.851V295.581a1.512,1.512,0,0,1,.213-.638,1.053,1.053,0,0,0-1.489-1.489,2.97,2.97,0,0,0-.851,2.127v25.844a3.043,3.043,0,0,0,2.978,2.978h6.594a1.064,1.064,0,0,0,0-2.127Z" transform="translate(-78.75 -258.568)" fill="#fff"/>
    <path id="Path_16756" data-name="Path 16756" d="M359.6,35.339a2.316,2.316,0,0,0-.532.851,1.055,1.055,0,0,0,.532,1.383,1.019,1.019,0,0,0,1.383-.532,1.022,1.022,0,0,1,.957-.638h6.381a1.064,1.064,0,0,0,0-2.127h-6.381a1.064,1.064,0,1,1,0-2.127H374.7a1.064,1.064,0,0,1,0,2.127h-2.127a1.064,1.064,0,0,0,0,2.127H374.7a1.022,1.022,0,0,1,.957.638,1.055,1.055,0,0,0,1.383.532,1.092,1.092,0,0,0,.532-1.383,3.73,3.73,0,0,0-.532-.851,3.084,3.084,0,0,0,0-4.254,2.97,2.97,0,0,0,.851-2.127,3.134,3.134,0,0,0-3.191-3.191h-.425a9.872,9.872,0,0,0,3.616-7.445,9.532,9.532,0,0,0-9.572-9.572,9.656,9.656,0,0,0-2.446.319,1.094,1.094,0,0,0-.744,1.276,1.009,1.009,0,0,0,1.276.744,11.72,11.72,0,0,1,1.914-.213,7.445,7.445,0,1,1-7.445,7.445A7.149,7.149,0,0,1,363.111,13a1.053,1.053,0,0,0-1.489-1.489,9.671,9.671,0,0,0-2.872,6.807,9.533,9.533,0,0,0,3.616,7.445h-.425a3.134,3.134,0,0,0-3.191,3.191,2.97,2.97,0,0,0,.851,2.127,3.084,3.084,0,0,0,0,4.254Zm2.34-7.445H374.7a1.064,1.064,0,0,1,0,2.127H361.941a1.064,1.064,0,1,1,0-2.127Z" transform="translate(-324.716 -8.75)" fill="#fff"/>
    <path id="Path_16757" data-name="Path 16757" d="M184.6,96.83a2.316,2.316,0,0,0-.532.851,1.047,1.047,0,1,0,1.914.851,1.022,1.022,0,0,1,.957-.638H199.7a1.022,1.022,0,0,1,.957.638,1.019,1.019,0,0,0,1.383.532,1.055,1.055,0,0,0,.532-1.383,3.73,3.73,0,0,0-.532-.851,3.084,3.084,0,0,0,0-4.254,3.084,3.084,0,0,0,0-4.254,3.084,3.084,0,0,0,0-4.254,2.97,2.97,0,0,0,.851-2.127A3.134,3.134,0,0,0,199.7,78.75H186.941a3.134,3.134,0,0,0-3.191,3.191,2.97,2.97,0,0,0,.851,2.127,3.084,3.084,0,0,0,0,4.254,3.084,3.084,0,0,0,0,4.254,3.084,3.084,0,0,0,0,4.254ZM193.322,83h-6.381a1.064,1.064,0,0,1,0-2.127H199.7a1.064,1.064,0,1,1,0,2.127H197.9a1.064,1.064,0,1,0,0,2.127H199.7a1.064,1.064,0,1,1,0,2.127H186.941a1.064,1.064,0,1,1,0-2.127h6.381a1.064,1.064,0,1,0,0-2.127Zm-4.254,8.508h-2.127a1.064,1.064,0,1,1,0-2.127H199.7a1.064,1.064,0,1,1,0,2.127h-6.381a1.064,1.064,0,1,0,0,2.127H199.7a1.064,1.064,0,1,1,0,2.127H186.941a1.064,1.064,0,1,1,0-2.127h2.127a1.064,1.064,0,0,0,0-2.127Z" transform="translate(-170.987 -70.242)" fill="#fff"/>
    <path id="Path_16758" data-name="Path 16758" d="M414.441,44.572a1,1,0,0,1-1.064-1.064,1.064,1.064,0,0,0-2.127,0,3.1,3.1,0,0,0,2.127,2.978s-.106,1.276,1.064,1.276a1.041,1.041,0,0,0,1.064-1.276,3.1,3.1,0,0,0,2.127-2.978,3.134,3.134,0,0,0-3.191-3.191,1.064,1.064,0,1,1,1.064-1.064,1.064,1.064,0,1,0,2.127,0,3.1,3.1,0,0,0-2.127-2.978S415.611,35,414.441,35s-1.064,1.276-1.064,1.276a3.1,3.1,0,0,0-2.127,2.978,3.134,3.134,0,0,0,3.191,3.191,1.064,1.064,0,1,1,0,2.127Z" transform="translate(-370.835 -31.809)" fill="#fff"/>
    <path id="Path_16759" data-name="Path 16759" d="M344.441,328a1,1,0,0,1,1.064,1.064,1.064,1.064,0,1,0,2.127,0,3.1,3.1,0,0,0-2.127-2.978v-1.276a1.064,1.064,0,0,0-2.127,0v1.276a3.1,3.1,0,0,0-2.127,2.978,3.134,3.134,0,0,0,3.191,3.191,1.064,1.064,0,1,1-1.064,1.064,1.064,1.064,0,0,0-2.127,0,3.1,3.1,0,0,0,2.127,2.978v1.276a1.064,1.064,0,0,0,2.127,0V336.3a3.1,3.1,0,0,0,2.127-2.978,3.134,3.134,0,0,0-3.191-3.191,1.064,1.064,0,1,1,0-2.127Z" transform="translate(-309.343 -285.462)" fill="#fff"/>
    <path id="Path_16760" data-name="Path 16760" d="M191.2,289.814a1,1,0,0,0-1.064-1.064H151.951a1,1,0,0,0-1.064,1.064,1,1,0,0,1-1.064,1.064,1,1,0,0,0-1.064,1.064v17.017a1,1,0,0,0,1.064,1.064,1,1,0,0,1,1.064,1.064,1,1,0,0,0,1.064,1.064h46.8a1,1,0,0,0,1.064-1.064,1,1,0,0,1,1.064-1.064,1,1,0,0,0,1.064-1.064V291.941a1,1,0,0,0-1.064-1.064,1,1,0,0,1-1.064-1.064,1,1,0,0,0-1.064-1.064H196.62a1.064,1.064,0,0,0,0,2.127H197.9a3.107,3.107,0,0,0,1.914,1.914V308a3.107,3.107,0,0,0-1.914,1.914H152.8A3.107,3.107,0,0,0,150.887,308V292.792a3.107,3.107,0,0,0,1.914-1.914h37.33A1,1,0,0,0,191.2,289.814Z" transform="translate(-140.25 -254.716)" fill="#fff"/>
    <path id="Path_16761" data-name="Path 16761" d="M520.5,325.664a1.906,1.906,0,0,0-1.914-1.914h-1.276a1.064,1.064,0,1,0,0,2.127h1.063v3.191a1.064,1.064,0,1,0,2.127,0Z" transform="translate(-463.072 -285.462)" fill="#fff"/>
    <path id="Path_16762" data-name="Path 16762" d="M184.814,411.25a1,1,0,0,0-1.064,1.064v1.17a2.092,2.092,0,0,0,2.021,2.021h1.17a1.064,1.064,0,0,0,0-2.127h-1.064v-1.064A1,1,0,0,0,184.814,411.25Z" transform="translate(-170.987 -362.327)" fill="#fff"/>
    <path id="Path_16763" data-name="Path 16763" d="M534.814,393.75a1,1,0,0,0-1.064,1.064v2.127a1.064,1.064,0,1,0,2.127,0v-2.127A1,1,0,0,0,534.814,393.75Z" transform="translate(-478.445 -346.954)" fill="#fff"/>
  </g>
  <path id="Path_17583" data-name="Path 17583" d="M122.642,56.69h8.81a1.062,1.062,0,0,1,1.062,1.062V77.424a1.062,1.062,0,0,1-1.062,1.062h-8.81a1.062,1.062,0,0,1-1.062-1.062V57.751a1.062,1.062,0,0,1,1.062-1.062Zm15.1-19.626,16.787-8.369a1.061,1.061,0,0,1,1.4.433l1.041,1.609,1.93-7.355-7.5-1.258,1.076,1.664a1.06,1.06,0,0,1-.217,1.4l-14.516,11.88Zm16.887-6.047-24.4,12.163a1.061,1.061,0,0,1-1.162-1.762l21.113-17.273-1.852-2.864a1.059,1.059,0,0,1,1.049-1.643l11.1,1.868a1.059,1.059,0,0,1,.759,1.29L158.42,33.566a1.059,1.059,0,0,1-1.92.339l-1.868-2.887ZM117.974,80.3h56.807a1.062,1.062,0,0,1,1.062,1.062V84.4a1.062,1.062,0,0,1-1.062,1.062H117.974a1.062,1.062,0,0,1-1.062-1.062V81.357a1.062,1.062,0,0,1,1.062-1.062Zm55.745,2.124H119.036v.914h54.683ZM161.3,34.235h8.811a1.062,1.062,0,0,1,1.062,1.062v42.13a1.062,1.062,0,0,1-1.062,1.062H161.3a1.062,1.062,0,0,1-1.062-1.062V35.3A1.062,1.062,0,0,1,161.3,34.235Zm7.748,2.124h-6.687V76.364h6.687Zm-20.635,6.183h8.81a1.062,1.062,0,0,1,1.062,1.062V77.426a1.062,1.062,0,0,1-1.062,1.062h-8.81a1.062,1.062,0,0,1-1.062-1.062V43.6A1.062,1.062,0,0,1,148.415,42.542Zm7.748,2.124h-6.687v31.7h6.687Zm-20.635,5.323h8.81a1.062,1.062,0,0,1,1.062,1.062V77.426a1.062,1.062,0,0,1-1.062,1.062h-8.81a1.062,1.062,0,0,1-1.062-1.062V51.051a1.062,1.062,0,0,1,1.062-1.062Zm7.748,2.124H136.59V76.364h6.687Zm-12.887,6.7H123.7V76.364h6.687Z" transform="translate(744.756 376.469)" fill="#fff"/>
  <path id="Path_17584" data-name="Path 17584" d="M123.081,91.522h9.485a1.143,1.143,0,0,1,1.143,1.143v21.179a1.143,1.143,0,0,1-1.143,1.143h-9.485a1.143,1.143,0,0,1-1.143-1.143V92.665a1.143,1.143,0,0,1,1.143-1.143Zm7.225-16.088,18.072-9.01a1.143,1.143,0,0,1,1.507.466l1.121,1.732,2.078-7.918-8.074-1.355,1.158,1.792a1.141,1.141,0,0,1-.234,1.5l-15.628,12.79Zm18.179-6.51L122.222,82.017a1.142,1.142,0,0,1-1.251-1.9l22.729-18.6-1.994-3.083a1.141,1.141,0,0,1,1.129-1.769l11.954,2.011a1.14,1.14,0,0,1,.817,1.389l-3.041,11.6a1.14,1.14,0,0,1-2.067.365l-2.011-3.108ZM117.8,116.935h47.633a1.041,1.041,0,0,1,.89,1.143v3.27a1.041,1.041,0,0,1-.89,1.143H117.8a1.041,1.041,0,0,1-.89-1.143v-3.27a1.041,1.041,0,0,1,.89-1.143Zm46.743,2.286H118.693v.984h45.853Zm-13.718-42.93h9.485a1.143,1.143,0,0,1,1.143,1.143v36.412a1.143,1.143,0,0,1-1.143,1.143h-9.485a1.143,1.143,0,0,1-1.143-1.143V77.434A1.143,1.143,0,0,1,150.827,76.291Zm8.342,2.286h-7.2V112.7h7.2Zm-22.215,5.73h9.485a1.143,1.143,0,0,1,1.143,1.143v28.395a1.143,1.143,0,0,1-1.143,1.143h-9.485a1.143,1.143,0,0,1-1.143-1.143V85.451a1.143,1.143,0,0,1,1.143-1.143Zm8.342,2.286h-7.2V112.7h7.2ZM131.422,93.81h-7.2V112.7h7.2Z" transform="translate(744.756 39.343)" fill="#fff"/>
</svg>
