<svg xmlns="http://www.w3.org/2000/svg" xmlns:xlink="http://www.w3.org/1999/xlink" width="1167.688" height="528.363" viewBox="0 0 1167.688 528.363">
  <defs>
    <clipPath id="clip-path">
      <rect x="-17" width="1167.688" height="528.363" fill="none"/>
    </clipPath>
    <clipPath id="clip-path-2">
      <rect id="Rectangle_2803" data-name="Rectangle 2803" width="78.047" height="260.924" fill="none"/>
    </clipPath>
    <clipPath id="clip-path-3">
      <rect id="Rectangle_2804" data-name="Rectangle 2804" width="78.118" height="261.16" fill="none"/>
    </clipPath>
  </defs>
  <g id="Scroll_Group_1" data-name="Scroll Group 1" transform="translate(17)" clip-path="url(#clip-path)" style="isolation: isolate">
    <g id="Group_11891" data-name="Group 11891" transform="translate(-8603.929 2439.384)">
      <path id="Path_14295" data-name="Path 14295" d="M0,0H907.2" transform="translate(9866.055 -2432.84)" fill="none" stroke="#000" stroke-width="1"/>
      <line id="Line_1" data-name="Line 1" x2="798.93" transform="translate(9978.013 -2175.203)" fill="none" stroke="#000" stroke-miterlimit="10" stroke-width="1"/>
      <line id="Line_2" data-name="Line 2" x2="897" transform="translate(9986.5 -1917.565)" fill="none" stroke="#939393" stroke-miterlimit="10" stroke-width="1" stroke-dasharray="12"/>
      <path id="Path_14296" data-name="Path 14296" d="M543.914.5a128.819,128.819,0,0,1,0,257.638" transform="translate(10229.341 -2433.341)" fill="none" stroke="#000" stroke-miterlimit="10" stroke-width="1"/>
      <path id="Path_14297" data-name="Path 14297" d="M543.914.5a128.819,128.819,0,0,1,0,257.638" transform="translate(10521.674 -1917.065) rotate(180)" fill="none" stroke="#939393" stroke-miterlimit="10" stroke-width="1" stroke-dasharray="12"/>
      <g id="Group_11864" data-name="Group 11864" transform="translate(10019.938 -2439.384)">
        <path id="Path_14298" data-name="Path 14298" d="M119.325,314.9a6.544,6.544,0,1,1,6.542-6.545,6.552,6.552,0,0,1-6.542,6.545" transform="translate(-112.783 -301.814)" fill="#fff"/>
        <path id="Path_14299" data-name="Path 14299" d="M124.463,308.392a5.1,5.1,0,1,1-5.1-5.1,5.1,5.1,0,0,1,5.1,5.1" transform="translate(-112.818 -301.849)" fill="#cc850a"/>
      </g>
      <g id="Group_11865" data-name="Group 11865" transform="translate(10190.58 -2439.384)">
        <path id="Path_14300" data-name="Path 14300" d="M119.325,314.9a6.544,6.544,0,1,1,6.542-6.545,6.552,6.552,0,0,1-6.542,6.545" transform="translate(-112.783 -301.814)" fill="#fff"/>
        <path id="Path_14301" data-name="Path 14301" d="M124.463,308.392a5.1,5.1,0,1,1-5.1-5.1,5.1,5.1,0,0,1,5.1,5.1" transform="translate(-112.818 -301.849)" fill="#cc850a"/>
      </g>
      <g id="Group_11866" data-name="Group 11866" transform="translate(10358.921 -2439.384)">
        <path id="Path_14302" data-name="Path 14302" d="M119.325,314.9a6.544,6.544,0,1,1,6.542-6.545,6.552,6.552,0,0,1-6.542,6.545" transform="translate(-112.783 -301.814)" fill="#fff"/>
        <path id="Path_14303" data-name="Path 14303" d="M124.463,308.392a5.1,5.1,0,1,1-5.1-5.1,5.1,5.1,0,0,1,5.1,5.1" transform="translate(-112.818 -301.849)" fill="#cc850a"/>
      </g>
      <g id="Group_11867" data-name="Group 11867" transform="translate(10527.263 -2439.384)">
        <path id="Path_14304" data-name="Path 14304" d="M119.325,314.9a6.544,6.544,0,1,1,6.542-6.545,6.552,6.552,0,0,1-6.542,6.545" transform="translate(-112.783 -301.814)" fill="#fff"/>
        <path id="Path_14305" data-name="Path 14305" d="M124.463,308.392a5.1,5.1,0,1,1-5.1-5.1,5.1,5.1,0,0,1,5.1,5.1" transform="translate(-112.818 -301.849)" fill="#cc850a"/>
      </g>
      <g id="Group_11868" data-name="Group 11868" transform="translate(10708.448 -2439.384)">
        <path id="Path_14306" data-name="Path 14306" d="M119.325,314.9a6.544,6.544,0,1,1,6.542-6.545,6.552,6.552,0,0,1-6.542,6.545" transform="translate(-112.783 -301.814)" fill="#fff"/>
        <path id="Path_14307" data-name="Path 14307" d="M124.463,308.392a5.1,5.1,0,1,1-5.1-5.1,5.1,5.1,0,0,1,5.1,5.1" transform="translate(-112.818 -301.849)" fill="#cc850a"/>
      </g>
      <g id="Group_11869" data-name="Group 11869" transform="translate(10708 -2181.462)">
        <path id="Path_14308" data-name="Path 14308" d="M119.325,314.9a6.544,6.544,0,1,1,6.542-6.545,6.552,6.552,0,0,1-6.542,6.545" transform="translate(-112.783 -301.814)" fill="#fff"/>
        <path id="Path_14309" data-name="Path 14309" d="M124.463,308.392a5.1,5.1,0,1,1-5.1-5.1,5.1,5.1,0,0,1,5.1,5.1" transform="translate(-112.818 -301.849)" fill="#cc850a"/>
      </g>
      <g id="Group_11870" data-name="Group 11870" transform="translate(10572 -2181.462)">
        <path id="Path_14310" data-name="Path 14310" d="M119.325,314.9a6.544,6.544,0,1,1,6.542-6.545,6.552,6.552,0,0,1-6.542,6.545" transform="translate(-112.783 -301.814)" fill="#fff"/>
        <path id="Path_14311" data-name="Path 14311" d="M124.463,308.392a5.1,5.1,0,1,1-5.1-5.1,5.1,5.1,0,0,1,5.1,5.1" transform="translate(-112.818 -301.849)" fill="#cc850a"/>
      </g>
      <g id="Group_11871" data-name="Group 11871" transform="translate(10436 -2181.462)">
        <path id="Path_14312" data-name="Path 14312" d="M119.325,314.9a6.544,6.544,0,1,1,6.542-6.545,6.552,6.552,0,0,1-6.542,6.545" transform="translate(-112.783 -301.814)" fill="#fff"/>
        <path id="Path_14313" data-name="Path 14313" d="M124.463,308.392a5.1,5.1,0,1,1-5.1-5.1,5.1,5.1,0,0,1,5.1,5.1" transform="translate(-112.818 -301.849)" fill="#cc850a"/>
      </g>
      <g id="Group_11872" data-name="Group 11872" transform="translate(10299 -2181.462)">
        <path id="Path_14314" data-name="Path 14314" d="M119.325,314.9a6.544,6.544,0,1,1,6.542-6.545,6.552,6.552,0,0,1-6.542,6.545" transform="translate(-112.783 -301.814)" fill="#fff"/>
        <path id="Path_14315" data-name="Path 14315" d="M124.463,308.392a5.1,5.1,0,1,1-5.1-5.1,5.1,5.1,0,0,1,5.1,5.1" transform="translate(-112.818 -301.849)" fill="#cc850a"/>
      </g>
      <g id="Group_11873" data-name="Group 11873" transform="translate(10026 -2181.462)">
        <path id="Path_14316" data-name="Path 14316" d="M119.325,314.9a6.544,6.544,0,1,1,6.542-6.545,6.552,6.552,0,0,1-6.542,6.545" transform="translate(-112.783 -301.814)" fill="#fff"/>
        <path id="Path_14317" data-name="Path 14317" d="M124.463,308.392a5.1,5.1,0,1,1-5.1-5.1,5.1,5.1,0,0,1,5.1,5.1" transform="translate(-112.818 -301.849)" fill="#cc850a"/>
      </g>
      <g id="Group_11874" data-name="Group 11874" transform="translate(10163 -2181.462)">
        <path id="Path_14318" data-name="Path 14318" d="M119.325,314.9a6.544,6.544,0,1,1,6.542-6.545,6.552,6.552,0,0,1-6.542,6.545" transform="translate(-112.783 -301.814)" fill="#fff"/>
        <path id="Path_14319" data-name="Path 14319" d="M124.463,308.392a5.1,5.1,0,1,1-5.1-5.1,5.1,5.1,0,0,1,5.1,5.1" transform="translate(-112.818 -301.849)" fill="#cc850a"/>
      </g>
      <path id="Polygon_1" data-name="Polygon 1" d="M6.544,0l6.544,11.218H0Z" transform="translate(10908.617 -2304.022) rotate(180)" fill="#003d4f"/>
      <path id="Polygon_2" data-name="Polygon 2" d="M6.544,0l6.544,11.218H0Z" transform="translate(10894.718 -1924.109) rotate(90)" fill="#939393"/>
      <path id="Polygon_3" data-name="Polygon 3" d="M6.544,0l6.544,11.218H0Z" transform="translate(9977.76 -2168.659) rotate(-90)" fill="#003d4f"/>
      <text id="SPI_Cinemas_and_Pepsi_MTV_Indies_were_local_market_wins" data-name="SPI Cinemas and Pepsi MTV Indies were local market wins" transform="translate(9859.155 -2394.387)" font-size="14" font-family="Helvetica"><tspan x="0" y="11">SPI Cinemas and </tspan><tspan x="0" y="29">Pepsi MTV Indies </tspan><tspan x="0" y="47">were local market </tspan><tspan x="0" y="65">wins</tspan></text>
      <text id="Hyderabad_" data-name="Hyderabad
" transform="translate(10027.541 -2394.387)" font-size="14" font-family="Helvetica-Bold, Helvetica" font-weight="700"><tspan x="0" y="11">Hyderabad</tspan><tspan font-family="Inter-Bold, Inter"><tspan x="0" y="29"></tspan></tspan></text>
      <text id="Gurgaon_hosted_first_ever_Converge_" data-name="Gurgaon 
hosted first ever Converge
" transform="translate(10196.927 -2394.387)" font-size="14" font-family="Helvetica"><tspan x="0" y="11">Gurgaon </tspan><tspan x="0" y="29">hosted first </tspan><tspan x="0" y="47">ever </tspan><tspan x="0" y="65">Converge</tspan><tspan font-family="Inter-Regular, Inter"><tspan x="0" y="83"></tspan></tspan></text>
      <text id="First_international_implementati-on_with_Possible_in_Nepal" data-name="First international implementati-on with Possible in Nepal" transform="translate(10360.811 -2394.387)" font-size="14" font-family="Helvetica"><tspan x="0" y="11">First international </tspan><tspan x="0" y="29">implementati-on with </tspan><tspan x="0" y="47">Possible in Nepal</tspan></text>
      <text id="Women_comprised_a_third_of_India_s_technical_workforce" data-name="Women comprised a third of India’s technical workforce" transform="translate(10360.811 -2311.822)" font-size="14" font-family="Helvetica"><tspan x="0" y="11">Women comprised a </tspan><tspan x="0" y="29">third of India’s </tspan><tspan x="0" y="47">technical workforce</tspan></text>
      <text id="_Agile_IT_Organization_launched_globally" data-name="‘Agile IT Organization’ launched globally" transform="translate(10527.884 -2394.387)" font-size="14" font-family="Helvetica"><tspan x="0" y="11">‘Agile IT Organization’ </tspan><tspan x="0" y="29">launched globally</tspan></text>
      <text id="_Gephi_Cookbook_published" data-name="‘Gephi Cookbook’ published" transform="translate(10527.884 -2348.801)" font-size="14" font-family="Helvetica"><tspan x="0" y="11">‘Gephi Cookbook’ </tspan><tspan x="0" y="29">published</tspan></text>
      <text id="_2013" data-name="2013" transform="translate(9858.534 -2421.275)" font-size="16" font-family="Helvetica-Bold, Helvetica" font-weight="700"><tspan x="0" y="12">2013</tspan></text>
      <text id="_2014" data-name="2014" transform="translate(10026.92 -2421.275)" font-size="16" font-family="Helvetica-Bold, Helvetica" font-weight="700"><tspan x="0" y="12">2014</tspan></text>
      <text id="_2014-2" data-name="2014" transform="translate(10196.306 -2421.275)" font-size="16" font-family="Helvetica-Bold, Helvetica" font-weight="700"><tspan x="0" y="12">2014</tspan></text>
      <text id="_2015" data-name="2015" transform="translate(10360.189 -2421.275)" font-size="16" font-family="Helvetica-Bold, Helvetica" font-weight="700"><tspan x="0" y="12">2015</tspan></text>
      <text id="_2015-2" data-name="2015" transform="translate(10527.263 -2421.275)" font-size="16" font-family="Helvetica-Bold, Helvetica" font-weight="700"><tspan x="0" y="12">2015</tspan></text>
      <g id="Group_11876" data-name="Group 11876" transform="translate(9789.913 -2432.841)">
        <g id="Group_11875" data-name="Group 11875" transform="translate(0 0)" clip-path="url(#clip-path-2)">
          <path id="Path_14320" data-name="Path 14320" d="M.5,260.29V77.415A77.14,77.14,0,0,1,77.413.5" transform="translate(0.634 0.634)" fill="none" stroke="#000" stroke-miterlimit="10" stroke-width="1"/>
        </g>
      </g>
      <text id="Coimbatore_Software_Ownership_Transfer_by_Vinod_Sankaranarayanan" data-name="Coimbatore
‘Software Ownership Transfer’ by Vinod Sankaranarayanan" transform="translate(10708.448 -2394.387)" font-size="14" font-family="Helvetica"><tspan x="0" y="11">Coimbatore</tspan><tspan x="0" y="29">‘Software Ownership </tspan><tspan x="0" y="47">Transfer’ by Vinod </tspan><tspan x="0" y="65">Sankaranarayanan</tspan></text>
      <text id="APAX_partners" data-name="APAX partners" transform="translate(10710.052 -2136.75)" font-size="14" font-family="Helvetica"><tspan x="0" y="11">APAX partners</tspan></text>
      <text id="Bangalore_2nd_office" data-name="Bangalore 2nd office" transform="translate(10571.32 -2136.75)" font-size="14" font-family="Helvetica-Bold, Helvetica" font-weight="700"><tspan x="0" y="11">Bangalore 2</tspan><tspan y="11" font-size="8.166" baseline-shift="4.666199819518059">nd </tspan><tspan x="0" y="29">office</tspan></text>
      <text id="Mumbai" transform="translate(10436 -2136.75)" font-size="14" font-family="Helvetica-Bold, Helvetica" font-weight="700"><tspan x="0" y="11">Mumbai</tspan></text>
      <text id="Udeti" transform="translate(10299 -2136.75)" font-size="14" font-family="Helvetica"><tspan x="0" y="11">Udeti</tspan></text>
      <text id="IPO" transform="translate(10163 -2136.75)" font-size="14" font-family="Helvetica-Bold, Helvetica" font-weight="700"><tspan x="0" y="11">IPO</tspan></text>
      <text id="_20_yrs_of_TW_India" data-name="20 yrs of TW India" transform="translate(10163 -2106.095)" font-size="14" font-family="Helvetica"><tspan x="0" y="11">20 yrs of TW </tspan><tspan x="0" y="29">India</tspan></text>
      <text id="_Full_Stack_Testing_published" data-name="‘Full Stack Testing’ published" transform="translate(10029.401 -2136.75)" font-size="14" font-family="Helvetica"><tspan x="0" y="11">‘Full Stack </tspan><tspan x="0" y="29">Testing’ </tspan><tspan x="0" y="47">published</tspan></text>
      <text id="Great_Place_To_Work_Certified" data-name="Great Place To Work Certified" transform="translate(10029.401 -2066.308)" font-size="14" font-family="Helvetica"><tspan x="0" y="11">Great Place </tspan><tspan x="0" y="29">To Work </tspan><tspan x="0" y="47">Certified</tspan></text>
      <text id="Engineering_for_Research_E4R_" data-name="Engineering for Research (E4R)" transform="translate(10708.448 -2310.316)" font-size="14" font-family="Helvetica"><tspan x="0" y="11">Engineering for </tspan><tspan x="0" y="29">Research (E4R)</tspan></text>
      <text id="_2016" data-name="2016" transform="translate(10708.909 -2421.275)" font-size="16" font-family="Helvetica-Bold, Helvetica" font-weight="700"><tspan x="0" y="12">2016</tspan></text>
      <text id="_2017" data-name="2017" transform="translate(10710.513 -2163.638)" font-size="16" font-family="Helvetica-Bold, Helvetica" font-weight="700"><tspan x="0" y="12">2017</tspan></text>
      <text id="_2018" data-name="2018" transform="translate(10571.781 -2163.638)" font-size="16" font-family="Helvetica-Bold, Helvetica" font-weight="700"><tspan x="0" y="12">2018</tspan></text>
      <text id="_2019" data-name="2019" transform="translate(10436.461 -2163.638)" font-size="16" font-family="Helvetica-Bold, Helvetica" font-weight="700"><tspan x="0" y="12">2019</tspan></text>
      <text id="_2020" data-name="2020" transform="translate(10299.461 -2163.638)" font-size="16" font-family="Helvetica-Bold, Helvetica" font-weight="700"><tspan x="0" y="12">2020</tspan></text>
      <text id="_2021" data-name="2021" transform="translate(10163.461 -2163.638)" font-size="16" font-family="Helvetica-Bold, Helvetica" font-weight="700"><tspan x="0" y="12">2021</tspan></text>
      <text id="_2022" data-name="2022" transform="translate(10029.862 -2163.638)" font-size="16" font-family="Helvetica-Bold, Helvetica" font-weight="700"><tspan x="0" y="12">2022</tspan></text>
      <text id="Thoughtworks_first_office_in_India_in_Bangalore" data-name="Thoughtworks first office in India in Bangalore" transform="translate(8615 -2394.387)" font-size="14" font-family="Helvetica"><tspan x="0" y="11">Thoughtworks first </tspan><tspan x="0" y="29">office in India in </tspan><tspan x="0" y="47" font-family="Helvetica-Bold, Helvetica" font-weight="700">Bangalore</tspan></text>
      <text id="First_and_largest_Distributed_agile_project" data-name="First and largest Distributed agile project" transform="translate(8775.426 -2394.387)" font-size="14" font-family="Helvetica"><tspan x="0" y="11">First and largest </tspan><tspan x="0" y="29">Distributed agile </tspan><tspan x="0" y="47">project</tspan></text>
      <text id="Jukebox_a_project_with_The_Panel_Group_was_first_to_use_Ruby_on_Rails" data-name="Jukebox, a project with The Panel Group was first to use Ruby on Rails" transform="translate(8943.899 -2394.387)" font-size="14" font-family="Helvetica"><tspan x="0" y="11">Jukebox, a project </tspan><tspan x="0" y="29">with The Panel </tspan><tspan x="0" y="47">Group was first to </tspan><tspan x="0" y="65">use Ruby on Rails</tspan></text>
      <text id="TWU_first_batch_of_graduates" data-name="TWU first batch of graduates" transform="translate(9113.324 -2394.387)" font-size="14" font-family="Helvetica"><tspan x="0" y="11">TWU first batch of </tspan><tspan x="0" y="29">graduates</tspan></text>
      <text id="Pune_Open_Source_projects_-_White_SWTBot_PerfErl_Frankenstein_Belenix_OS_Migrator_and_OpenMRS" data-name="Pune
Open Source projects - White, SWTBot, PerfErl, Frankenstein, Belenix OS, Migrator and OpenMRS" transform="translate(9282.75 -2394.387)" font-size="14" font-family="Helvetica-Bold, Helvetica" font-weight="700"><tspan x="0" y="11">Pune</tspan><tspan font-family="Helvetica" font-weight="400"><tspan x="0" y="29">Open Source projects - </tspan><tspan x="0" y="47">White, SWTBot, </tspan><tspan x="0" y="65">PerfErl, Frankenstein, </tspan><tspan x="0" y="83">Belenix OS, Migrator </tspan><tspan x="0" y="101">and OpenMRS</tspan></tspan></text>
      <text id="Team_of_200_delivered_Distributed_Agile_for_Trainline" data-name="Team of 200+ delivered Distributed Agile for Trainline" transform="translate(9465.02 -2394.387)" font-size="14" font-family="Helvetica"><tspan x="0" y="11">Team of 200+ </tspan><tspan x="0" y="29">delivered </tspan><tspan x="0" y="47">Distributed Agile </tspan><tspan x="0" y="65">for Trainline</tspan></text>
      <text id="Chennai_TWer_Vivek_Singh_s_tool_White_selected_as_top_Open_Source_projects_by_Microsoft_Codeplex" data-name="Chennai
TWer Vivek Singh’s tool, White, selected as top Open Source projects by Microsoft Codeplex" transform="translate(9464.932 -2136.465)" font-size="14" font-family="Helvetica-Bold, Helvetica" font-weight="700"><tspan x="0" y="11">Chennai</tspan><tspan font-family="Helvetica" font-weight="400"><tspan x="0" y="29">TWer Vivek Singh’s </tspan><tspan x="0" y="47">tool, White, selected as </tspan><tspan x="0" y="65">top Open Source </tspan><tspan x="0" y="83">projects by Microsoft </tspan><tspan x="0" y="101">Codeplex</tspan></tspan></text>
      <text id="Continuous_Delivery_tool_Go_and_testing_tool_Twist_developed_out_of_India" data-name="Continuous Delivery tool, Go and testing tool, Twist developed out of India" transform="translate(9283.746 -2136.465)" font-size="14" font-family="Helvetica"><tspan x="0" y="11">Continuous Delivery </tspan><tspan x="0" y="29">tool, Go and testing </tspan><tspan x="0" y="47">tool, Twist </tspan><tspan x="0" y="65">developed out of </tspan><tspan x="0" y="83">India</tspan></text>
      <text id="Gurgaon_VodQA_launched_in_Pune" data-name="Gurgaon
VodQA launched in Pune" transform="translate(9115.404 -2136.465)" font-size="14" font-family="Helvetica-Bold, Helvetica" font-weight="700"><tspan x="0" y="11">Gurgaon</tspan><tspan font-family="Helvetica" font-weight="400"><tspan x="0" y="29">VodQA launched </tspan><tspan x="0" y="47">in Pune</tspan></tspan></text>
      <text id="Organised_India_s_first_RubyConf" data-name="Organised India’s first RubyConf" transform="translate(8944.895 -2136.465)" font-size="14" font-family="Helvetica"><tspan x="0" y="11">Organised India’s </tspan><tspan x="0" y="29">first RubyConf</tspan></text>
      <text id="STEP_launched_in_Chennai" data-name="STEP launched in Chennai" transform="translate(8776.51 -2136.465)" font-size="14" font-family="Helvetica"><tspan x="0" y="11">STEP launched in </tspan><tspan x="0" y="29">Chennai</tspan></text>
      <text id="_2001" data-name="2001" transform="translate(8615.461 -2421.275)" font-size="16" font-family="Helvetica-Bold, Helvetica" font-weight="700"><tspan x="0" y="12">2001</tspan></text>
      <text id="_2003" data-name="2003" transform="translate(8775.888 -2421.275)" font-size="16" font-family="Helvetica-Bold, Helvetica" font-weight="700"><tspan x="0" y="12">2003</tspan></text>
      <text id="_2004" data-name="2004" transform="translate(8946.529 -2421.275)" font-size="16" font-family="Helvetica-Bold, Helvetica" font-weight="700"><tspan x="0" y="12">2004</tspan></text>
      <text id="_2005" data-name="2005" transform="translate(9114.87 -2421.275)" font-size="16" font-family="Helvetica-Bold, Helvetica" font-weight="700"><tspan x="0" y="12">2005</tspan></text>
      <text id="_2006" data-name="2006" transform="translate(9283.212 -2421.275)" font-size="16" font-family="Helvetica-Bold, Helvetica" font-weight="700"><tspan x="0" y="12">2006</tspan></text>
      <text id="_2008" data-name="2008" transform="translate(9464.398 -2421.275)" font-size="16" font-family="Helvetica-Bold, Helvetica" font-weight="700"><tspan x="0" y="12">2008</tspan></text>
      <text id="_2008-2" data-name="2008" transform="translate(9464.311 -2163.353)" font-size="16" font-family="Helvetica-Bold, Helvetica" font-weight="700"><tspan x="0" y="12">2008</tspan></text>
      <text id="_2009" data-name="2009" transform="translate(9283.125 -2163.353)" font-size="16" font-family="Helvetica-Bold, Helvetica" font-weight="700"><tspan x="0" y="12">2009</tspan></text>
      <text id="_2010" data-name="2010" transform="translate(9114.783 -2163.353)" font-size="16" font-family="Helvetica-Bold, Helvetica" font-weight="700"><tspan x="0" y="12">2010</tspan></text>
      <text id="_2010-2" data-name="2010" transform="translate(8944.273 -2163.353)" font-size="16" font-family="Helvetica-Bold, Helvetica" font-weight="700"><tspan x="0" y="12">2010</tspan></text>
      <text id="_2012" data-name="2012" transform="translate(8775.889 -2163.353)" font-size="16" font-family="Helvetica-Bold, Helvetica" font-weight="700"><tspan x="0" y="12">2012</tspan></text>
      <path id="Path_14321" data-name="Path 14321" d="M0,0H907.2" transform="translate(8621.542 -2432.84)" fill="none" stroke="#000" stroke-width="1"/>
      <line id="Line_3" data-name="Line 3" x2="798.93" transform="translate(8733.5 -2175.203)" fill="none" stroke="#000" stroke-miterlimit="10" stroke-width="1"/>
      <line id="Line_4" data-name="Line 4" x2="981.253" transform="translate(8733.247 -1917.565)" fill="none" stroke="#000" stroke-miterlimit="10" stroke-width="1"/>
      <path id="Path_14322" data-name="Path 14322" d="M543.914.5a128.819,128.819,0,0,1,0,257.638" transform="translate(8984.828 -2433.341)" fill="none" stroke="#000" stroke-miterlimit="10" stroke-width="1"/>
      <path id="Path_14323" data-name="Path 14323" d="M543.914.5a128.819,128.819,0,0,1,0,257.638" transform="translate(9277.161 -1917.065) rotate(180)" fill="none" stroke="#000" stroke-miterlimit="10" stroke-width="1"/>
      <g id="Group_11877" data-name="Group 11877" transform="translate(8615 -2439.384)">
        <path id="Path_14324" data-name="Path 14324" d="M119.325,314.9a6.544,6.544,0,1,1,6.542-6.545,6.552,6.552,0,0,1-6.542,6.545" transform="translate(-112.783 -301.814)" fill="#fff"/>
        <path id="Path_14325" data-name="Path 14325" d="M124.463,308.392a5.1,5.1,0,1,1-5.1-5.1,5.1,5.1,0,0,1,5.1,5.1" transform="translate(-112.818 -301.849)" fill="#cc850a"/>
      </g>
      <g id="Group_11878" data-name="Group 11878" transform="translate(8775.426 -2439.384)">
        <path id="Path_14326" data-name="Path 14326" d="M119.325,314.9a6.544,6.544,0,1,1,6.542-6.545,6.552,6.552,0,0,1-6.542,6.545" transform="translate(-112.783 -301.814)" fill="#fff"/>
        <path id="Path_14327" data-name="Path 14327" d="M124.463,308.392a5.1,5.1,0,1,1-5.1-5.1,5.1,5.1,0,0,1,5.1,5.1" transform="translate(-112.818 -301.849)" fill="#cc850a"/>
      </g>
      <g id="Group_11879" data-name="Group 11879" transform="translate(8946.067 -2439.384)">
        <path id="Path_14328" data-name="Path 14328" d="M119.325,314.9a6.544,6.544,0,1,1,6.542-6.545,6.552,6.552,0,0,1-6.542,6.545" transform="translate(-112.783 -301.814)" fill="#fff"/>
        <path id="Path_14329" data-name="Path 14329" d="M124.463,308.392a5.1,5.1,0,1,1-5.1-5.1,5.1,5.1,0,0,1,5.1,5.1" transform="translate(-112.818 -301.849)" fill="#cc850a"/>
      </g>
      <g id="Group_11880" data-name="Group 11880" transform="translate(9114.408 -2439.384)">
        <path id="Path_14330" data-name="Path 14330" d="M119.325,314.9a6.544,6.544,0,1,1,6.542-6.545,6.552,6.552,0,0,1-6.542,6.545" transform="translate(-112.783 -301.814)" fill="#fff"/>
        <path id="Path_14331" data-name="Path 14331" d="M124.463,308.392a5.1,5.1,0,1,1-5.1-5.1,5.1,5.1,0,0,1,5.1,5.1" transform="translate(-112.818 -301.849)" fill="#cc850a"/>
      </g>
      <g id="Group_11881" data-name="Group 11881" transform="translate(9282.75 -2439.384)">
        <path id="Path_14332" data-name="Path 14332" d="M119.325,314.9a6.544,6.544,0,1,1,6.542-6.545,6.552,6.552,0,0,1-6.542,6.545" transform="translate(-112.783 -301.814)" fill="#fff"/>
        <path id="Path_14333" data-name="Path 14333" d="M124.463,308.392a5.1,5.1,0,1,1-5.1-5.1,5.1,5.1,0,0,1,5.1,5.1" transform="translate(-112.818 -301.849)" fill="#cc850a"/>
      </g>
      <g id="Group_11882" data-name="Group 11882" transform="translate(9463.936 -2439.384)">
        <path id="Path_14334" data-name="Path 14334" d="M119.325,314.9a6.544,6.544,0,1,1,6.542-6.545,6.552,6.552,0,0,1-6.542,6.545" transform="translate(-112.783 -301.814)" fill="#fff"/>
        <path id="Path_14335" data-name="Path 14335" d="M124.463,308.392a5.1,5.1,0,1,1-5.1-5.1,5.1,5.1,0,0,1,5.1,5.1" transform="translate(-112.818 -301.849)" fill="#cc850a"/>
      </g>
      <g id="Group_11883" data-name="Group 11883" transform="translate(9463.848 -2181.462)">
        <path id="Path_14336" data-name="Path 14336" d="M119.325,314.9a6.544,6.544,0,1,1,6.542-6.545,6.552,6.552,0,0,1-6.542,6.545" transform="translate(-112.783 -301.814)" fill="#fff"/>
        <path id="Path_14337" data-name="Path 14337" d="M124.463,308.392a5.1,5.1,0,1,1-5.1-5.1,5.1,5.1,0,0,1,5.1,5.1" transform="translate(-112.818 -301.849)" fill="#cc850a"/>
      </g>
      <g id="Group_11884" data-name="Group 11884" transform="translate(9282.662 -2181.462)">
        <path id="Path_14338" data-name="Path 14338" d="M119.325,314.9a6.544,6.544,0,1,1,6.542-6.545,6.552,6.552,0,0,1-6.542,6.545" transform="translate(-112.783 -301.814)" fill="#fff"/>
        <path id="Path_14339" data-name="Path 14339" d="M124.463,308.392a5.1,5.1,0,1,1-5.1-5.1,5.1,5.1,0,0,1,5.1,5.1" transform="translate(-112.818 -301.849)" fill="#cc850a"/>
      </g>
      <g id="Group_11885" data-name="Group 11885" transform="translate(9114.32 -2181.462)">
        <path id="Path_14340" data-name="Path 14340" d="M119.325,314.9a6.544,6.544,0,1,1,6.542-6.545,6.552,6.552,0,0,1-6.542,6.545" transform="translate(-112.783 -301.814)" fill="#fff"/>
        <path id="Path_14341" data-name="Path 14341" d="M124.463,308.392a5.1,5.1,0,1,1-5.1-5.1,5.1,5.1,0,0,1,5.1,5.1" transform="translate(-112.818 -301.849)" fill="#cc850a"/>
      </g>
      <g id="Group_11886" data-name="Group 11886" transform="translate(8943.811 -2181.462)">
        <path id="Path_14342" data-name="Path 14342" d="M119.325,314.9a6.544,6.544,0,1,1,6.542-6.545,6.552,6.552,0,0,1-6.542,6.545" transform="translate(-112.783 -301.814)" fill="#fff"/>
        <path id="Path_14343" data-name="Path 14343" d="M124.463,308.392a5.1,5.1,0,1,1-5.1-5.1,5.1,5.1,0,0,1,5.1,5.1" transform="translate(-112.818 -301.849)" fill="#cc850a"/>
      </g>
      <g id="Group_11887" data-name="Group 11887" transform="translate(8775.426 -2181.462)">
        <path id="Path_14344" data-name="Path 14344" d="M119.325,314.9a6.544,6.544,0,1,1,6.542-6.545,6.552,6.552,0,0,1-6.542,6.545" transform="translate(-112.783 -301.814)" fill="#fff"/>
        <path id="Path_14345" data-name="Path 14345" d="M124.463,308.392a5.1,5.1,0,1,1-5.1-5.1,5.1,5.1,0,0,1,5.1,5.1" transform="translate(-112.818 -301.849)" fill="#cc850a"/>
      </g>
      <path id="Polygon_4" data-name="Polygon 4" d="M6.544,0l6.544,11.218H0Z" transform="translate(9664.104 -2304.022) rotate(180)" fill="#003d4f"/>
      <g id="Group_11889" data-name="Group 11889" transform="translate(9792.173 -1916.565) rotate(180)">
        <g id="Group_11888" data-name="Group 11888" transform="translate(0 0)" clip-path="url(#clip-path-3)">
          <path id="Path_14346" data-name="Path 14346" d="M0,260.025V76.984A77.21,77.21,0,0,1,76.983,0" transform="translate(1.135 1.135)" fill="none" stroke="#000" stroke-miterlimit="10" stroke-width="1"/>
        </g>
      </g>
      <g id="Group_11890" data-name="Group 11890" transform="translate(9859.513 -2439.384)">
        <path id="Path_14347" data-name="Path 14347" d="M119.325,314.9a6.544,6.544,0,1,1,6.542-6.545,6.552,6.552,0,0,1-6.542,6.545" transform="translate(-112.783 -301.814)" fill="#fff"/>
        <path id="Path_14348" data-name="Path 14348" d="M124.463,308.392a5.1,5.1,0,1,1-5.1-5.1,5.1,5.1,0,0,1,5.1,5.1" transform="translate(-112.818 -301.849)" fill="#cc850a"/>
      </g>
    </g>
  </g>
</svg>
