<svg xmlns="http://www.w3.org/2000/svg" xmlns:xlink="http://www.w3.org/1999/xlink" width="1244.688" height="528.363" viewBox="0 0 1244.688 528.363">
  <defs>
    <clipPath id="clip-path">
      <rect x="-94" width="1244.688" height="528.363" fill="none"/>
    </clipPath>
    <clipPath id="clip-path-2">
      <rect id="Rectangle_2805" data-name="Rectangle 2805" width="78.047" height="260.924" fill="none"/>
    </clipPath>
    <clipPath id="clip-path-3">
      <rect id="Rectangle_2806" data-name="Rectangle 2806" width="78.118" height="261.16" fill="none"/>
    </clipPath>
  </defs>
  <g id="Scroll_Group_2" data-name="Scroll Group 2" transform="translate(94)" clip-path="url(#clip-path)" style="isolation: isolate">
    <g id="Group_11919" data-name="Group 11919" transform="translate(-9847.617 2439.384)">
      <path id="Path_14349" data-name="Path 14349" d="M0,0H907.2" transform="translate(9866.055 -2432.84)" fill="none" stroke="#000" stroke-width="1"/>
      <line id="Line_5" data-name="Line 5" x2="798.93" transform="translate(9978.013 -2175.203)" fill="none" stroke="#000" stroke-miterlimit="10" stroke-width="1"/>
      <line id="Line_6" data-name="Line 6" x2="897" transform="translate(9986.5 -1917.565)" fill="none" stroke="#939393" stroke-miterlimit="10" stroke-width="1" stroke-dasharray="12"/>
      <path id="Path_14350" data-name="Path 14350" d="M543.914.5a128.819,128.819,0,0,1,0,257.638" transform="translate(10229.341 -2433.341)" fill="none" stroke="#000" stroke-miterlimit="10" stroke-width="1"/>
      <path id="Path_14351" data-name="Path 14351" d="M543.914.5a128.819,128.819,0,0,1,0,257.638" transform="translate(10521.674 -1917.065) rotate(180)" fill="none" stroke="#939393" stroke-miterlimit="10" stroke-width="1" stroke-dasharray="12"/>
      <g id="Group_11892" data-name="Group 11892" transform="translate(10019.938 -2439.384)">
        <path id="Path_14352" data-name="Path 14352" d="M119.325,314.9a6.544,6.544,0,1,1,6.542-6.545,6.552,6.552,0,0,1-6.542,6.545" transform="translate(-112.783 -301.814)" fill="#fff"/>
        <path id="Path_14353" data-name="Path 14353" d="M124.463,308.392a5.1,5.1,0,1,1-5.1-5.1,5.1,5.1,0,0,1,5.1,5.1" transform="translate(-112.818 -301.849)" fill="#cc850a"/>
      </g>
      <g id="Group_11893" data-name="Group 11893" transform="translate(10190.58 -2439.384)">
        <path id="Path_14354" data-name="Path 14354" d="M119.325,314.9a6.544,6.544,0,1,1,6.542-6.545,6.552,6.552,0,0,1-6.542,6.545" transform="translate(-112.783 -301.814)" fill="#fff"/>
        <path id="Path_14355" data-name="Path 14355" d="M124.463,308.392a5.1,5.1,0,1,1-5.1-5.1,5.1,5.1,0,0,1,5.1,5.1" transform="translate(-112.818 -301.849)" fill="#cc850a"/>
      </g>
      <g id="Group_11894" data-name="Group 11894" transform="translate(10358.921 -2439.384)">
        <path id="Path_14356" data-name="Path 14356" d="M119.325,314.9a6.544,6.544,0,1,1,6.542-6.545,6.552,6.552,0,0,1-6.542,6.545" transform="translate(-112.783 -301.814)" fill="#fff"/>
        <path id="Path_14357" data-name="Path 14357" d="M124.463,308.392a5.1,5.1,0,1,1-5.1-5.1,5.1,5.1,0,0,1,5.1,5.1" transform="translate(-112.818 -301.849)" fill="#cc850a"/>
      </g>
      <g id="Group_11895" data-name="Group 11895" transform="translate(10527.263 -2439.384)">
        <path id="Path_14358" data-name="Path 14358" d="M119.325,314.9a6.544,6.544,0,1,1,6.542-6.545,6.552,6.552,0,0,1-6.542,6.545" transform="translate(-112.783 -301.814)" fill="#fff"/>
        <path id="Path_14359" data-name="Path 14359" d="M124.463,308.392a5.1,5.1,0,1,1-5.1-5.1,5.1,5.1,0,0,1,5.1,5.1" transform="translate(-112.818 -301.849)" fill="#cc850a"/>
      </g>
      <g id="Group_11896" data-name="Group 11896" transform="translate(10708.448 -2439.384)">
        <path id="Path_14360" data-name="Path 14360" d="M119.325,314.9a6.544,6.544,0,1,1,6.542-6.545,6.552,6.552,0,0,1-6.542,6.545" transform="translate(-112.783 -301.814)" fill="#fff"/>
        <path id="Path_14361" data-name="Path 14361" d="M124.463,308.392a5.1,5.1,0,1,1-5.1-5.1,5.1,5.1,0,0,1,5.1,5.1" transform="translate(-112.818 -301.849)" fill="#cc850a"/>
      </g>
      <g id="Group_11897" data-name="Group 11897" transform="translate(10708 -2181.462)">
        <path id="Path_14362" data-name="Path 14362" d="M119.325,314.9a6.544,6.544,0,1,1,6.542-6.545,6.552,6.552,0,0,1-6.542,6.545" transform="translate(-112.783 -301.814)" fill="#fff"/>
        <path id="Path_14363" data-name="Path 14363" d="M124.463,308.392a5.1,5.1,0,1,1-5.1-5.1,5.1,5.1,0,0,1,5.1,5.1" transform="translate(-112.818 -301.849)" fill="#cc850a"/>
      </g>
      <g id="Group_11898" data-name="Group 11898" transform="translate(10572 -2181.462)">
        <path id="Path_14364" data-name="Path 14364" d="M119.325,314.9a6.544,6.544,0,1,1,6.542-6.545,6.552,6.552,0,0,1-6.542,6.545" transform="translate(-112.783 -301.814)" fill="#fff"/>
        <path id="Path_14365" data-name="Path 14365" d="M124.463,308.392a5.1,5.1,0,1,1-5.1-5.1,5.1,5.1,0,0,1,5.1,5.1" transform="translate(-112.818 -301.849)" fill="#cc850a"/>
      </g>
      <g id="Group_11899" data-name="Group 11899" transform="translate(10436 -2181.462)">
        <path id="Path_14366" data-name="Path 14366" d="M119.325,314.9a6.544,6.544,0,1,1,6.542-6.545,6.552,6.552,0,0,1-6.542,6.545" transform="translate(-112.783 -301.814)" fill="#fff"/>
        <path id="Path_14367" data-name="Path 14367" d="M124.463,308.392a5.1,5.1,0,1,1-5.1-5.1,5.1,5.1,0,0,1,5.1,5.1" transform="translate(-112.818 -301.849)" fill="#cc850a"/>
      </g>
      <g id="Group_11900" data-name="Group 11900" transform="translate(10299 -2181.462)">
        <path id="Path_14368" data-name="Path 14368" d="M119.325,314.9a6.544,6.544,0,1,1,6.542-6.545,6.552,6.552,0,0,1-6.542,6.545" transform="translate(-112.783 -301.814)" fill="#fff"/>
        <path id="Path_14369" data-name="Path 14369" d="M124.463,308.392a5.1,5.1,0,1,1-5.1-5.1,5.1,5.1,0,0,1,5.1,5.1" transform="translate(-112.818 -301.849)" fill="#cc850a"/>
      </g>
      <g id="Group_11901" data-name="Group 11901" transform="translate(10026 -2181.462)">
        <path id="Path_14370" data-name="Path 14370" d="M119.325,314.9a6.544,6.544,0,1,1,6.542-6.545,6.552,6.552,0,0,1-6.542,6.545" transform="translate(-112.783 -301.814)" fill="#fff"/>
        <path id="Path_14371" data-name="Path 14371" d="M124.463,308.392a5.1,5.1,0,1,1-5.1-5.1,5.1,5.1,0,0,1,5.1,5.1" transform="translate(-112.818 -301.849)" fill="#cc850a"/>
      </g>
      <g id="Group_11902" data-name="Group 11902" transform="translate(10163 -2181.462)">
        <path id="Path_14372" data-name="Path 14372" d="M119.325,314.9a6.544,6.544,0,1,1,6.542-6.545,6.552,6.552,0,0,1-6.542,6.545" transform="translate(-112.783 -301.814)" fill="#fff"/>
        <path id="Path_14373" data-name="Path 14373" d="M124.463,308.392a5.1,5.1,0,1,1-5.1-5.1,5.1,5.1,0,0,1,5.1,5.1" transform="translate(-112.818 -301.849)" fill="#cc850a"/>
      </g>
      <path id="Polygon_5" data-name="Polygon 5" d="M6.544,0l6.544,11.218H0Z" transform="translate(10908.617 -2304.022) rotate(180)" fill="#003d4f"/>
      <path id="Polygon_6" data-name="Polygon 6" d="M6.544,0l6.544,11.218H0Z" transform="translate(10894.718 -1924.109) rotate(90)" fill="#939393"/>
      <path id="Polygon_7" data-name="Polygon 7" d="M6.544,0l6.544,11.218H0Z" transform="translate(9977.76 -2168.659) rotate(-90)" fill="#003d4f"/>
      <text id="SPI_Cinemas_and_Pepsi_MTV_Indies_were_local_market_wins" data-name="SPI Cinemas and Pepsi MTV Indies were local market wins" transform="translate(9859.155 -2394.387)" font-size="14" font-family="Helvetica"><tspan x="0" y="11">SPI Cinemas and </tspan><tspan x="0" y="29">Pepsi MTV Indies </tspan><tspan x="0" y="47">were local market </tspan><tspan x="0" y="65">wins</tspan></text>
      <text id="Hyderabad_" data-name="Hyderabad
" transform="translate(10027.541 -2394.387)" font-size="14" font-family="Helvetica-Bold, Helvetica" font-weight="700"><tspan x="0" y="11">Hyderabad</tspan><tspan font-family="Inter-Bold, Inter"><tspan x="0" y="29"></tspan></tspan></text>
      <text id="Gurgaon_hosted_first_ever_Converge_" data-name="Gurgaon 
hosted first ever Converge
" transform="translate(10196.927 -2394.387)" font-size="14" font-family="Helvetica"><tspan x="0" y="11">Gurgaon </tspan><tspan x="0" y="29">hosted first </tspan><tspan x="0" y="47">ever </tspan><tspan x="0" y="65">Converge</tspan><tspan font-family="Inter-Regular, Inter"><tspan x="0" y="83"></tspan></tspan></text>
      <text id="First_international_implementati-on_with_Possible_in_Nepal" data-name="First international implementati-on with Possible in Nepal" transform="translate(10360.811 -2394.387)" font-size="14" font-family="Helvetica"><tspan x="0" y="11">First international </tspan><tspan x="0" y="29">implementati-on with </tspan><tspan x="0" y="47">Possible in Nepal</tspan></text>
      <text id="Women_comprised_a_third_of_India_s_technical_workforce" data-name="Women comprised a third of India’s technical workforce" transform="translate(10360.811 -2311.822)" font-size="14" font-family="Helvetica"><tspan x="0" y="11">Women comprised a </tspan><tspan x="0" y="29">third of India’s </tspan><tspan x="0" y="47">technical workforce</tspan></text>
      <text id="_Agile_IT_Organization_launched_globally" data-name="‘Agile IT Organization’ launched globally" transform="translate(10527.884 -2394.387)" font-size="14" font-family="Helvetica"><tspan x="0" y="11">‘Agile IT Organization’ </tspan><tspan x="0" y="29">launched globally</tspan></text>
      <text id="_Gephi_Cookbook_published" data-name="‘Gephi Cookbook’ published" transform="translate(10527.884 -2348.801)" font-size="14" font-family="Helvetica"><tspan x="0" y="11">‘Gephi Cookbook’ </tspan><tspan x="0" y="29">published</tspan></text>
      <text id="_2013" data-name="2013" transform="translate(9858.534 -2421.275)" font-size="16" font-family="Helvetica-Bold, Helvetica" font-weight="700"><tspan x="0" y="12">2013</tspan></text>
      <text id="_2014" data-name="2014" transform="translate(10026.92 -2421.275)" font-size="16" font-family="Helvetica-Bold, Helvetica" font-weight="700"><tspan x="0" y="12">2014</tspan></text>
      <text id="_2014-2" data-name="2014" transform="translate(10196.306 -2421.275)" font-size="16" font-family="Helvetica-Bold, Helvetica" font-weight="700"><tspan x="0" y="12">2014</tspan></text>
      <text id="_2015" data-name="2015" transform="translate(10360.189 -2421.275)" font-size="16" font-family="Helvetica-Bold, Helvetica" font-weight="700"><tspan x="0" y="12">2015</tspan></text>
      <text id="_2015-2" data-name="2015" transform="translate(10527.263 -2421.275)" font-size="16" font-family="Helvetica-Bold, Helvetica" font-weight="700"><tspan x="0" y="12">2015</tspan></text>
      <g id="Group_11904" data-name="Group 11904" transform="translate(9789.913 -2432.841)">
        <g id="Group_11903" data-name="Group 11903" transform="translate(0 0)" clip-path="url(#clip-path-2)">
          <path id="Path_14374" data-name="Path 14374" d="M.5,260.29V77.415A77.14,77.14,0,0,1,77.413.5" transform="translate(0.634 0.634)" fill="none" stroke="#000" stroke-miterlimit="10" stroke-width="1"/>
        </g>
      </g>
      <text id="Coimbatore_Software_Ownership_Transfer_by_Vinod_Sankaranarayanan" data-name="Coimbatore
‘Software Ownership Transfer’ by Vinod Sankaranarayanan" transform="translate(10708.448 -2394.387)" font-size="14" font-family="Helvetica"><tspan x="0" y="11">Coimbatore</tspan><tspan x="0" y="29">‘Software Ownership </tspan><tspan x="0" y="47">Transfer’ by Vinod </tspan><tspan x="0" y="65">Sankaranarayanan</tspan></text>
      <text id="APAX_partners" data-name="APAX partners" transform="translate(10710.052 -2136.75)" font-size="14" font-family="Helvetica"><tspan x="0" y="11">APAX partners</tspan></text>
      <text id="Bangalore_2nd_office" data-name="Bangalore 2nd office" transform="translate(10571.32 -2136.75)" font-size="14" font-family="Helvetica-Bold, Helvetica" font-weight="700"><tspan x="0" y="11">Bangalore 2</tspan><tspan y="11" font-size="8.166" baseline-shift="4.666199819518059">nd </tspan><tspan x="0" y="29">office</tspan></text>
      <text id="Mumbai" transform="translate(10436 -2136.75)" font-size="14" font-family="Helvetica-Bold, Helvetica" font-weight="700"><tspan x="0" y="11">Mumbai</tspan></text>
      <text id="Udeti" transform="translate(10299 -2136.75)" font-size="14" font-family="Helvetica"><tspan x="0" y="11">Udeti</tspan></text>
      <text id="IPO" transform="translate(10163 -2136.75)" font-size="14" font-family="Helvetica-Bold, Helvetica" font-weight="700"><tspan x="0" y="11">IPO</tspan></text>
      <text id="_20_yrs_of_TW_India" data-name="20 yrs of TW India" transform="translate(10163 -2106.095)" font-size="14" font-family="Helvetica"><tspan x="0" y="11">20 yrs of TW </tspan><tspan x="0" y="29">India</tspan></text>
      <text id="_Full_Stack_Testing_published" data-name="‘Full Stack Testing’ published" transform="translate(10029.401 -2136.75)" font-size="14" font-family="Helvetica"><tspan x="0" y="11">‘Full Stack </tspan><tspan x="0" y="29">Testing’ </tspan><tspan x="0" y="47">published</tspan></text>
      <text id="Great_Place_To_Work_Certified" data-name="Great Place To Work Certified" transform="translate(10029.401 -2066.308)" font-size="14" font-family="Helvetica"><tspan x="0" y="11">Great Place </tspan><tspan x="0" y="29">To Work </tspan><tspan x="0" y="47">Certified</tspan></text>
      <text id="Engineering_for_Research_E4R_" data-name="Engineering for Research (E4R)" transform="translate(10708.448 -2310.316)" font-size="14" font-family="Helvetica"><tspan x="0" y="11">Engineering for </tspan><tspan x="0" y="29">Research (E4R)</tspan></text>
      <text id="_2016" data-name="2016" transform="translate(10708.909 -2421.275)" font-size="16" font-family="Helvetica-Bold, Helvetica" font-weight="700"><tspan x="0" y="12">2016</tspan></text>
      <text id="_2017" data-name="2017" transform="translate(10710.513 -2163.638)" font-size="16" font-family="Helvetica-Bold, Helvetica" font-weight="700"><tspan x="0" y="12">2017</tspan></text>
      <text id="_2018" data-name="2018" transform="translate(10571.781 -2163.638)" font-size="16" font-family="Helvetica-Bold, Helvetica" font-weight="700"><tspan x="0" y="12">2018</tspan></text>
      <text id="_2019" data-name="2019" transform="translate(10436.461 -2163.638)" font-size="16" font-family="Helvetica-Bold, Helvetica" font-weight="700"><tspan x="0" y="12">2019</tspan></text>
      <text id="_2020" data-name="2020" transform="translate(10299.461 -2163.638)" font-size="16" font-family="Helvetica-Bold, Helvetica" font-weight="700"><tspan x="0" y="12">2020</tspan></text>
      <text id="_2021" data-name="2021" transform="translate(10163.461 -2163.638)" font-size="16" font-family="Helvetica-Bold, Helvetica" font-weight="700"><tspan x="0" y="12">2021</tspan></text>
      <text id="_2022" data-name="2022" transform="translate(10029.862 -2163.638)" font-size="16" font-family="Helvetica-Bold, Helvetica" font-weight="700"><tspan x="0" y="12">2022</tspan></text>
      <text id="Thoughtworks_first_office_in_India_in_Bangalore" data-name="Thoughtworks first office in India in Bangalore" transform="translate(8615 -2394.387)" font-size="14" font-family="Helvetica"><tspan x="0" y="11">Thoughtworks first </tspan><tspan x="0" y="29">office in India in </tspan><tspan x="0" y="47" font-family="Helvetica-Bold, Helvetica" font-weight="700">Bangalore</tspan></text>
      <text id="First_and_largest_Distributed_agile_project" data-name="First and largest Distributed agile project" transform="translate(8775.426 -2394.387)" font-size="14" font-family="Helvetica"><tspan x="0" y="11">First and largest </tspan><tspan x="0" y="29">Distributed agile </tspan><tspan x="0" y="47">project</tspan></text>
      <text id="Jukebox_a_project_with_The_Panel_Group_was_first_to_use_Ruby_on_Rails" data-name="Jukebox, a project with The Panel Group was first to use Ruby on Rails" transform="translate(8943.899 -2394.387)" font-size="14" font-family="Helvetica"><tspan x="0" y="11">Jukebox, a project </tspan><tspan x="0" y="29">with The Panel </tspan><tspan x="0" y="47">Group was first to </tspan><tspan x="0" y="65">use Ruby on Rails</tspan></text>
      <text id="TWU_first_batch_of_graduates" data-name="TWU first batch of graduates" transform="translate(9113.324 -2394.387)" font-size="14" font-family="Helvetica"><tspan x="0" y="11">TWU first batch of </tspan><tspan x="0" y="29">graduates</tspan></text>
      <text id="Pune_Open_Source_projects_-_White_SWTBot_PerfErl_Frankenstein_Belenix_OS_Migrator_and_OpenMRS" data-name="Pune
Open Source projects - White, SWTBot, PerfErl, Frankenstein, Belenix OS, Migrator and OpenMRS" transform="translate(9282.75 -2394.387)" font-size="14" font-family="Helvetica-Bold, Helvetica" font-weight="700"><tspan x="0" y="11">Pune</tspan><tspan font-family="Helvetica" font-weight="400"><tspan x="0" y="29">Open Source projects - </tspan><tspan x="0" y="47">White, SWTBot, </tspan><tspan x="0" y="65">PerfErl, Frankenstein, </tspan><tspan x="0" y="83">Belenix OS, Migrator </tspan><tspan x="0" y="101">and OpenMRS</tspan></tspan></text>
      <text id="Team_of_200_delivered_Distributed_Agile_for_Trainline" data-name="Team of 200+ delivered Distributed Agile for Trainline" transform="translate(9465.02 -2394.387)" font-size="14" font-family="Helvetica"><tspan x="0" y="11">Team of 200+ </tspan><tspan x="0" y="29">delivered </tspan><tspan x="0" y="47">Distributed Agile </tspan><tspan x="0" y="65">for Trainline</tspan></text>
      <text id="Chennai_TWer_Vivek_Singh_s_tool_White_selected_as_top_Open_Source_projects_by_Microsoft_Codeplex" data-name="Chennai
TWer Vivek Singh’s tool, White, selected as top Open Source projects by Microsoft Codeplex" transform="translate(9464.932 -2136.465)" font-size="14" font-family="Helvetica-Bold, Helvetica" font-weight="700"><tspan x="0" y="11">Chennai</tspan><tspan font-family="Helvetica" font-weight="400"><tspan x="0" y="29">TWer Vivek Singh’s </tspan><tspan x="0" y="47">tool, White, selected as </tspan><tspan x="0" y="65">top Open Source </tspan><tspan x="0" y="83">projects by Microsoft </tspan><tspan x="0" y="101">Codeplex</tspan></tspan></text>
      <text id="Continuous_Delivery_tool_Go_and_testing_tool_Twist_developed_out_of_India" data-name="Continuous Delivery tool, Go and testing tool, Twist developed out of India" transform="translate(9283.746 -2136.465)" font-size="14" font-family="Helvetica"><tspan x="0" y="11">Continuous Delivery </tspan><tspan x="0" y="29">tool, Go and testing </tspan><tspan x="0" y="47">tool, Twist </tspan><tspan x="0" y="65">developed out of </tspan><tspan x="0" y="83">India</tspan></text>
      <text id="Gurgaon_VodQA_launched_in_Pune" data-name="Gurgaon
VodQA launched in Pune" transform="translate(9115.404 -2136.465)" font-size="14" font-family="Helvetica-Bold, Helvetica" font-weight="700"><tspan x="0" y="11">Gurgaon</tspan><tspan font-family="Helvetica" font-weight="400"><tspan x="0" y="29">VodQA launched </tspan><tspan x="0" y="47">in Pune</tspan></tspan></text>
      <text id="Organised_India_s_first_RubyConf" data-name="Organised India’s first RubyConf" transform="translate(8944.895 -2136.465)" font-size="14" font-family="Helvetica"><tspan x="0" y="11">Organised India’s </tspan><tspan x="0" y="29">first RubyConf</tspan></text>
      <text id="STEP_launched_in_Chennai" data-name="STEP launched in Chennai" transform="translate(8776.51 -2136.465)" font-size="14" font-family="Helvetica"><tspan x="0" y="11">STEP launched in </tspan><tspan x="0" y="29">Chennai</tspan></text>
      <text id="_2001" data-name="2001" transform="translate(8615.461 -2421.275)" font-size="16" font-family="Helvetica-Bold, Helvetica" font-weight="700"><tspan x="0" y="12">2001</tspan></text>
      <text id="_2003" data-name="2003" transform="translate(8775.888 -2421.275)" font-size="16" font-family="Helvetica-Bold, Helvetica" font-weight="700"><tspan x="0" y="12">2003</tspan></text>
      <text id="_2004" data-name="2004" transform="translate(8946.529 -2421.275)" font-size="16" font-family="Helvetica-Bold, Helvetica" font-weight="700"><tspan x="0" y="12">2004</tspan></text>
      <text id="_2005" data-name="2005" transform="translate(9114.87 -2421.275)" font-size="16" font-family="Helvetica-Bold, Helvetica" font-weight="700"><tspan x="0" y="12">2005</tspan></text>
      <text id="_2006" data-name="2006" transform="translate(9283.212 -2421.275)" font-size="16" font-family="Helvetica-Bold, Helvetica" font-weight="700"><tspan x="0" y="12">2006</tspan></text>
      <text id="_2008" data-name="2008" transform="translate(9464.398 -2421.275)" font-size="16" font-family="Helvetica-Bold, Helvetica" font-weight="700"><tspan x="0" y="12">2008</tspan></text>
      <text id="_2008-2" data-name="2008" transform="translate(9464.311 -2163.353)" font-size="16" font-family="Helvetica-Bold, Helvetica" font-weight="700"><tspan x="0" y="12">2008</tspan></text>
      <text id="_2009" data-name="2009" transform="translate(9283.125 -2163.353)" font-size="16" font-family="Helvetica-Bold, Helvetica" font-weight="700"><tspan x="0" y="12">2009</tspan></text>
      <text id="_2010" data-name="2010" transform="translate(9114.783 -2163.353)" font-size="16" font-family="Helvetica-Bold, Helvetica" font-weight="700"><tspan x="0" y="12">2010</tspan></text>
      <text id="_2010-2" data-name="2010" transform="translate(8944.273 -2163.353)" font-size="16" font-family="Helvetica-Bold, Helvetica" font-weight="700"><tspan x="0" y="12">2010</tspan></text>
      <text id="_2012" data-name="2012" transform="translate(8775.889 -2163.353)" font-size="16" font-family="Helvetica-Bold, Helvetica" font-weight="700"><tspan x="0" y="12">2012</tspan></text>
      <path id="Path_14375" data-name="Path 14375" d="M0,0H907.2" transform="translate(8621.542 -2432.84)" fill="none" stroke="#000" stroke-width="1"/>
      <line id="Line_7" data-name="Line 7" x2="798.93" transform="translate(8733.5 -2175.203)" fill="none" stroke="#000" stroke-miterlimit="10" stroke-width="1"/>
      <line id="Line_8" data-name="Line 8" x2="981.253" transform="translate(8733.247 -1917.565)" fill="none" stroke="#000" stroke-miterlimit="10" stroke-width="1"/>
      <path id="Path_14376" data-name="Path 14376" d="M543.914.5a128.819,128.819,0,0,1,0,257.638" transform="translate(8984.828 -2433.341)" fill="none" stroke="#000" stroke-miterlimit="10" stroke-width="1"/>
      <path id="Path_14377" data-name="Path 14377" d="M543.914.5a128.819,128.819,0,0,1,0,257.638" transform="translate(9277.161 -1917.065) rotate(180)" fill="none" stroke="#000" stroke-miterlimit="10" stroke-width="1"/>
      <g id="Group_11905" data-name="Group 11905" transform="translate(8615 -2439.384)">
        <path id="Path_14378" data-name="Path 14378" d="M119.325,314.9a6.544,6.544,0,1,1,6.542-6.545,6.552,6.552,0,0,1-6.542,6.545" transform="translate(-112.783 -301.814)" fill="#fff"/>
        <path id="Path_14379" data-name="Path 14379" d="M124.463,308.392a5.1,5.1,0,1,1-5.1-5.1,5.1,5.1,0,0,1,5.1,5.1" transform="translate(-112.818 -301.849)" fill="#cc850a"/>
      </g>
      <g id="Group_11906" data-name="Group 11906" transform="translate(8775.426 -2439.384)">
        <path id="Path_14380" data-name="Path 14380" d="M119.325,314.9a6.544,6.544,0,1,1,6.542-6.545,6.552,6.552,0,0,1-6.542,6.545" transform="translate(-112.783 -301.814)" fill="#fff"/>
        <path id="Path_14381" data-name="Path 14381" d="M124.463,308.392a5.1,5.1,0,1,1-5.1-5.1,5.1,5.1,0,0,1,5.1,5.1" transform="translate(-112.818 -301.849)" fill="#cc850a"/>
      </g>
      <g id="Group_11907" data-name="Group 11907" transform="translate(8946.067 -2439.384)">
        <path id="Path_14382" data-name="Path 14382" d="M119.325,314.9a6.544,6.544,0,1,1,6.542-6.545,6.552,6.552,0,0,1-6.542,6.545" transform="translate(-112.783 -301.814)" fill="#fff"/>
        <path id="Path_14383" data-name="Path 14383" d="M124.463,308.392a5.1,5.1,0,1,1-5.1-5.1,5.1,5.1,0,0,1,5.1,5.1" transform="translate(-112.818 -301.849)" fill="#cc850a"/>
      </g>
      <g id="Group_11908" data-name="Group 11908" transform="translate(9114.408 -2439.384)">
        <path id="Path_14384" data-name="Path 14384" d="M119.325,314.9a6.544,6.544,0,1,1,6.542-6.545,6.552,6.552,0,0,1-6.542,6.545" transform="translate(-112.783 -301.814)" fill="#fff"/>
        <path id="Path_14385" data-name="Path 14385" d="M124.463,308.392a5.1,5.1,0,1,1-5.1-5.1,5.1,5.1,0,0,1,5.1,5.1" transform="translate(-112.818 -301.849)" fill="#cc850a"/>
      </g>
      <g id="Group_11909" data-name="Group 11909" transform="translate(9282.75 -2439.384)">
        <path id="Path_14386" data-name="Path 14386" d="M119.325,314.9a6.544,6.544,0,1,1,6.542-6.545,6.552,6.552,0,0,1-6.542,6.545" transform="translate(-112.783 -301.814)" fill="#fff"/>
        <path id="Path_14387" data-name="Path 14387" d="M124.463,308.392a5.1,5.1,0,1,1-5.1-5.1,5.1,5.1,0,0,1,5.1,5.1" transform="translate(-112.818 -301.849)" fill="#cc850a"/>
      </g>
      <g id="Group_11910" data-name="Group 11910" transform="translate(9463.936 -2439.384)">
        <path id="Path_14388" data-name="Path 14388" d="M119.325,314.9a6.544,6.544,0,1,1,6.542-6.545,6.552,6.552,0,0,1-6.542,6.545" transform="translate(-112.783 -301.814)" fill="#fff"/>
        <path id="Path_14389" data-name="Path 14389" d="M124.463,308.392a5.1,5.1,0,1,1-5.1-5.1,5.1,5.1,0,0,1,5.1,5.1" transform="translate(-112.818 -301.849)" fill="#cc850a"/>
      </g>
      <g id="Group_11911" data-name="Group 11911" transform="translate(9463.848 -2181.462)">
        <path id="Path_14390" data-name="Path 14390" d="M119.325,314.9a6.544,6.544,0,1,1,6.542-6.545,6.552,6.552,0,0,1-6.542,6.545" transform="translate(-112.783 -301.814)" fill="#fff"/>
        <path id="Path_14391" data-name="Path 14391" d="M124.463,308.392a5.1,5.1,0,1,1-5.1-5.1,5.1,5.1,0,0,1,5.1,5.1" transform="translate(-112.818 -301.849)" fill="#cc850a"/>
      </g>
      <g id="Group_11912" data-name="Group 11912" transform="translate(9282.662 -2181.462)">
        <path id="Path_14392" data-name="Path 14392" d="M119.325,314.9a6.544,6.544,0,1,1,6.542-6.545,6.552,6.552,0,0,1-6.542,6.545" transform="translate(-112.783 -301.814)" fill="#fff"/>
        <path id="Path_14393" data-name="Path 14393" d="M124.463,308.392a5.1,5.1,0,1,1-5.1-5.1,5.1,5.1,0,0,1,5.1,5.1" transform="translate(-112.818 -301.849)" fill="#cc850a"/>
      </g>
      <g id="Group_11913" data-name="Group 11913" transform="translate(9114.32 -2181.462)">
        <path id="Path_14394" data-name="Path 14394" d="M119.325,314.9a6.544,6.544,0,1,1,6.542-6.545,6.552,6.552,0,0,1-6.542,6.545" transform="translate(-112.783 -301.814)" fill="#fff"/>
        <path id="Path_14395" data-name="Path 14395" d="M124.463,308.392a5.1,5.1,0,1,1-5.1-5.1,5.1,5.1,0,0,1,5.1,5.1" transform="translate(-112.818 -301.849)" fill="#cc850a"/>
      </g>
      <g id="Group_11914" data-name="Group 11914" transform="translate(8943.811 -2181.462)">
        <path id="Path_14396" data-name="Path 14396" d="M119.325,314.9a6.544,6.544,0,1,1,6.542-6.545,6.552,6.552,0,0,1-6.542,6.545" transform="translate(-112.783 -301.814)" fill="#fff"/>
        <path id="Path_14397" data-name="Path 14397" d="M124.463,308.392a5.1,5.1,0,1,1-5.1-5.1,5.1,5.1,0,0,1,5.1,5.1" transform="translate(-112.818 -301.849)" fill="#cc850a"/>
      </g>
      <g id="Group_11915" data-name="Group 11915" transform="translate(8775.426 -2181.462)">
        <path id="Path_14398" data-name="Path 14398" d="M119.325,314.9a6.544,6.544,0,1,1,6.542-6.545,6.552,6.552,0,0,1-6.542,6.545" transform="translate(-112.783 -301.814)" fill="#fff"/>
        <path id="Path_14399" data-name="Path 14399" d="M124.463,308.392a5.1,5.1,0,1,1-5.1-5.1,5.1,5.1,0,0,1,5.1,5.1" transform="translate(-112.818 -301.849)" fill="#cc850a"/>
      </g>
      <path id="Polygon_8" data-name="Polygon 8" d="M6.544,0l6.544,11.218H0Z" transform="translate(9664.104 -2304.022) rotate(180)" fill="#003d4f"/>
      <g id="Group_11917" data-name="Group 11917" transform="translate(9792.173 -1916.565) rotate(180)">
        <g id="Group_11916" data-name="Group 11916" transform="translate(0 0)" clip-path="url(#clip-path-3)">
          <path id="Path_14400" data-name="Path 14400" d="M0,260.025V76.984A77.21,77.21,0,0,1,76.983,0" transform="translate(1.135 1.135)" fill="none" stroke="#000" stroke-miterlimit="10" stroke-width="1"/>
        </g>
      </g>
      <g id="Group_11918" data-name="Group 11918" transform="translate(9859.513 -2439.384)">
        <path id="Path_14401" data-name="Path 14401" d="M119.325,314.9a6.544,6.544,0,1,1,6.542-6.545,6.552,6.552,0,0,1-6.542,6.545" transform="translate(-112.783 -301.814)" fill="#fff"/>
        <path id="Path_14402" data-name="Path 14402" d="M124.463,308.392a5.1,5.1,0,1,1-5.1-5.1,5.1,5.1,0,0,1,5.1,5.1" transform="translate(-112.818 -301.849)" fill="#cc850a"/>
      </g>
    </g>
  </g>
</svg>
