<svg xmlns="http://www.w3.org/2000/svg" width="1244" height="725" viewBox="0 0 1244 725">
  <rect id="Rectangle_4854" data-name="Rectangle 4854" width="1244" height="725" fill="#fff"/>
  <text id="People_-_our_biggest_asset" data-name="People 
- our biggest asset" transform="translate(105 301.135)" font-size="24" font-family="Bitter-Bold, Bitter" font-weight="700"><tspan x="0" y="23">People </tspan><tspan x="0" y="57">- our biggest asset</tspan></text>
  <text id="Thoughtworks_India_is_an_attractive_destination_for_technical_talent_and_hires_the_best" data-name="Thoughtworks India is an attractive destination for technical talent  and hires the best" transform="translate(105 377.135)" fill="#cc850a" font-size="20" font-family="Helvetica-Bold, Helvetica" font-weight="700"><tspan x="0" y="15">Thoughtworks India is an </tspan><tspan x="0" y="41">attractive destination for </tspan><tspan x="0" y="67" xml:space="preserve">technical talent  and </tspan><tspan x="0" y="93">hires the best</tspan></text>
  <g id="Group_12404" data-name="Group 12404" transform="translate(404 24)">
    <rect id="Rectangle_4278" data-name="Rectangle 4278" width="174" height="317" fill="#edf1f3"/>
  </g>
  <g id="Group_12422" data-name="Group 12422" transform="translate(404 336.652)">
    <rect id="Rectangle_4278-2" data-name="Rectangle 4278" width="174" height="4" transform="translate(0 0.349)" fill="#cc850a"/>
  </g>
  <g id="Group_12408" data-name="Group 12408" transform="translate(404 353)">
    <rect id="Rectangle_4278-3" data-name="Rectangle 4278" width="174" height="348" fill="#edf1f3"/>
  </g>
  <g id="Group_12405" data-name="Group 12405" transform="translate(591 24)">
    <rect id="Rectangle_4278-4" data-name="Rectangle 4278" width="174" height="317" fill="#edf1f3"/>
  </g>
  <g id="Group_12423" data-name="Group 12423" transform="translate(591 336.652)">
    <rect id="Rectangle_4278-5" data-name="Rectangle 4278" width="174" height="4" transform="translate(0 0.349)" fill="#cc850a"/>
  </g>
  <g id="Group_12409" data-name="Group 12409" transform="translate(591 353)">
    <rect id="Rectangle_4278-6" data-name="Rectangle 4278" width="174" height="348" fill="#edf1f3"/>
  </g>
  <g id="Group_12406" data-name="Group 12406" transform="translate(778 24)">
    <rect id="Rectangle_4278-7" data-name="Rectangle 4278" width="174" height="317" fill="#edf1f3"/>
  </g>
  <g id="Group_12424" data-name="Group 12424" transform="translate(778 336.652)">
    <rect id="Rectangle_4278-8" data-name="Rectangle 4278" width="174" height="4" transform="translate(0 0.349)" fill="#cc850a"/>
  </g>
  <g id="Group_12410" data-name="Group 12410" transform="translate(778 353)">
    <rect id="Rectangle_4278-9" data-name="Rectangle 4278" width="174" height="348" fill="#edf1f3"/>
  </g>
  <g id="Group_12407" data-name="Group 12407" transform="translate(965 24)">
    <rect id="Rectangle_4278-10" data-name="Rectangle 4278" width="174" height="317" fill="#edf1f3"/>
  </g>
  <g id="Group_12425" data-name="Group 12425" transform="translate(965 336.652)">
    <rect id="Rectangle_4278-11" data-name="Rectangle 4278" width="174" height="4" transform="translate(0 0.349)" fill="#cc850a"/>
  </g>
  <g id="Group_12411" data-name="Group 12411" transform="translate(965 353)">
    <rect id="Rectangle_4278-12" data-name="Rectangle 4278" width="174" height="348" fill="#edf1f3"/>
  </g>
  <text id="We_set_a_high_bar_Forbes_ranks_us_as_the_toughest_technology_consulting_company_to_get_into._Glassdoor_rated_us_as_the_most_difficult_companies_to_interview_" data-name="We set a high bar
Forbes ranks us as the toughest technology  consulting company to get into. Glassdoor rated us as the most difficult companies to interview  " transform="translate(421 100)" font-size="16" font-family="Helvetica"><tspan x="0" y="12">We set a high bar</tspan><tspan x="0" y="30">Forbes ranks us as </tspan><tspan x="0" y="48">the toughest </tspan><tspan x="0" y="66" xml:space="preserve">technology  </tspan><tspan x="0" y="84">consulting </tspan><tspan x="0" y="102">company to get </tspan><tspan x="0" y="120">into. Glassdoor </tspan><tspan x="0" y="138">rated us as the </tspan><tspan x="0" y="156">most difficult </tspan><tspan x="0" y="174">companies to </tspan><tspan x="0" y="192" xml:space="preserve">interview  </tspan></text>
  <text id="Our_people_are_passionate_about_tech_knowledge_and_experience_while_important_must_be_accompanied_with_a_genuine_passion_for_technology" data-name="Our people are passionate about tech, knowledge and experience, while important, must be accompanied with a genuine passion for technology" transform="translate(421 428)" font-size="16" font-family="Helvetica"><tspan x="0" y="12">Our people are </tspan><tspan x="0" y="30">passionate about </tspan><tspan x="0" y="48">tech, knowledge </tspan><tspan x="0" y="66">and experience, </tspan><tspan x="0" y="84">while important, </tspan><tspan x="0" y="102">must be </tspan><tspan x="0" y="120">accompanied with </tspan><tspan x="0" y="138">a genuine passion </tspan><tspan x="0" y="156">for technology</tspan></text>
  <text id="Culture_of_collaboration_Given_our_position_as_a_leader_in_Distributed_Agile_we_ensure_we_hire_people_who_foster_a_culture_of_collaboration" data-name="Culture of collaboration
Given our position as a leader in Distributed Agile, we ensure we hire people who foster a culture of collaboration" transform="translate(608 100)" font-size="16" font-family="Helvetica"><tspan x="0" y="12">Culture of </tspan><tspan x="0" y="30">collaboration</tspan><tspan x="0" y="48">Given our position </tspan><tspan x="0" y="66">as a leader in </tspan><tspan x="0" y="84">Distributed Agile, </tspan><tspan x="0" y="102">we ensure we hire </tspan><tspan x="0" y="120">people who foster a </tspan><tspan x="0" y="138">culture of </tspan><tspan x="0" y="156">collaboration</tspan></text>
  <text id="Innovation_Everywhere_-_even_in_Hiring._Finding_people_with_the_unique_blend_of_knowledge_experience_and_passion_that_we_look_for_leads_us_to_innovative_hiring_practices_like_Hackathons_and_Geek_Nights." data-name="Innovation Everywhere - even in Hiring. 
Finding people with the unique blend of knowledge, experience and passion that we look for leads us to innovative hiring practices like Hackathons and Geek Nights." transform="translate(608 428)" font-size="16" font-family="Helvetica"><tspan x="0" y="12">Innovation </tspan><tspan x="0" y="30">Everywhere - even </tspan><tspan x="0" y="48">in Hiring. </tspan><tspan x="0" y="66">Finding people with </tspan><tspan x="0" y="84">the unique blend of </tspan><tspan x="0" y="102">knowledge, </tspan><tspan x="0" y="120">experience and </tspan><tspan x="0" y="138">passion that we </tspan><tspan x="0" y="156">look for leads us to </tspan><tspan x="0" y="174">innovative hiring </tspan><tspan x="0" y="192">practices like </tspan><tspan x="0" y="210">Hackathons and </tspan><tspan x="0" y="228">Geek Nights.</tspan></text>
  <text id="High_acceptance_rates_on_offer_for_engineers_85_" data-name="High acceptance rates on offer for engineers (&gt; 85%)" transform="translate(795 100)" font-size="16" font-family="Helvetica"><tspan x="0" y="12">High acceptance </tspan><tspan x="0" y="30">rates on offer for </tspan><tspan x="0" y="48">engineers (&gt; 85%)</tspan></text>
  <text id="We_lose_thoughtworkers_because_they_either_start_their_own_start-ups_or_go_to_work_for_startups_or_join_product_companies_" data-name="We lose thoughtworkers because they either start their own start-ups, or go to work for startups, or join product companies " transform="translate(795 428)" font-size="16" font-family="Helvetica"><tspan x="0" y="12">We lose </tspan><tspan x="0" y="30">thoughtworkers </tspan><tspan x="0" y="48">because they either </tspan><tspan x="0" y="66">start their own </tspan><tspan x="0" y="84">start-ups, or go to </tspan><tspan x="0" y="102">work for startups, </tspan><tspan x="0" y="120">or join product </tspan><tspan x="0" y="138">companies </tspan></text>
  <text id="Lowest_attrition_among_digital_services_providers_11_" data-name="Lowest attrition 
among digital 
services providers 
(~ 11%) " transform="translate(982 100)" font-size="16" font-family="Helvetica"><tspan x="0" y="12">Lowest attrition </tspan><tspan x="0" y="30">among digital </tspan><tspan x="0" y="48">services providers </tspan><tspan x="0" y="66">(~ 11%) </tspan></text>
  <text id="A_lot_of_Thoughtworkers_return_back_to_work_with_us_after_doing_a_stint_elsewhere" data-name="A lot of Thoughtworkers 
return back to work with us after doing a stint elsewhere" transform="translate(982 428)" font-size="16" font-family="Helvetica"><tspan x="0" y="12">A lot of </tspan><tspan x="0" y="30">Thoughtworkers </tspan><tspan x="0" y="48">return back to work </tspan><tspan x="0" y="66">with us after doing </tspan><tspan x="0" y="84">a stint elsewhere</tspan></text>
  <g id="Group_12413" data-name="Group 12413" transform="translate(44.064 31.616)">
    <path id="Path_16381" data-name="Path 16381" d="M385.715,27.4a6.482,6.482,0,0,1-6.452-6.508,6.4,6.4,0,0,1,6.452-6.509,6.482,6.482,0,0,1,6.451,6.509A6.57,6.57,0,0,1,385.715,27.4Zm0-11.39a4.882,4.882,0,0,0,0,9.763,4.882,4.882,0,0,0,0-9.763Z" fill="#003d4f" fill-rule="evenodd"/>
    <path id="Path_16382" data-name="Path 16382" d="M388.974,53.32h-6.519a.782.782,0,0,1-.815-.813V50.2a.782.782,0,0,1,.815-.813.875.875,0,0,1,.815.813v1.49h4.889v-6.5a.782.782,0,0,1,.815-.813.875.875,0,0,1,.815.813v7.316A.875.875,0,0,1,388.974,53.32Z" fill="#003d4f" fill-rule="evenodd"/>
    <path id="Path_16383" data-name="Path 16383" d="M382.47,42.794a.494.494,0,0,1-.4-.136c-2.3-1.218-6.084-4.6-6.084-12.861a.779.779,0,0,1,.811-.812h17.845a.872.872,0,0,1,.811.812,19.538,19.538,0,0,1-.811,5.822.854.854,0,0,1-1.081.541.77.77,0,0,1-.541-.948,23.217,23.217,0,0,0,.811-4.6H377.6c.135,5.144,2.028,8.934,5.137,10.694a.853.853,0,0,1,.406,1.083A.744.744,0,0,1,382.47,42.794Z" fill="#003d4f" fill-rule="evenodd"/>
    <path id="Path_16384" data-name="Path 16384" d="M401.9,20.949a3.282,3.282,0,0,1,0-6.565,3.282,3.282,0,0,1,0,6.565Zm0-4.923a1.58,1.58,0,0,0-1.641,1.641,1.663,1.663,0,0,0,1.641,1.641,1.766,1.766,0,0,0,1.641-1.641A1.663,1.663,0,0,0,401.9,16.026Z" fill="#003d4f" fill-rule="evenodd"/>
    <path id="Path_16385" data-name="Path 16385" d="M400.007,27.966c-1.081-.539-2.974-2.159-2.974-6.207a.778.778,0,0,1,.811-.81h8.112a.872.872,0,0,1,.811.81c0,4.048-1.893,5.668-3.11,6.207l-.676-1.484c1.217-.54,1.893-2.024,2.028-3.914h-6.354c.135,1.89.947,3.374,2.163,3.914Z" fill="#003d4f" fill-rule="evenodd"/>
    <path id="Path_16386" data-name="Path 16386" d="M376.812,53.32c-.27,0-.4-.135-.674-.27a.819.819,0,0,1,0-1.078L390.707,37.42c.4-.4.809-.4,1.079-.135l7.555,6.064,11.6-12.4a1.014,1.014,0,0,1,1.214,0,.819.819,0,0,1,0,1.078L400.015,44.966a1.057,1.057,0,0,1-1.079.134l-7.555-6.063L377.352,53.05A1.023,1.023,0,0,1,376.812,53.32Z" fill="#003d4f" fill-rule="evenodd"/>
    <path id="Path_16387" data-name="Path 16387" d="M411.62,42.794a.776.776,0,0,1-.807-.808V32.3H400.329a.776.776,0,0,1-.806-.808.868.868,0,0,1,.806-.807H411.62a.868.868,0,0,1,.806.807v10.5A.868.868,0,0,1,411.62,42.794Z" fill="#003d4f" fill-rule="evenodd"/>
  </g>
  <g id="Group_12414" data-name="Group 12414" transform="translate(70.426 27.357)">
    <path id="Path_16388" data-name="Path 16388" d="M548.212,34.722h-9.751a.857.857,0,0,1-.886-.9v-.9a3.22,3.22,0,0,1,2.364-3.137L543.78,28.6V26.807h1.773v2.539a.8.8,0,0,1-.739.746l-4.432,1.345a1.623,1.623,0,0,0-1.034,1.494h8.864Z" transform="translate(0 1.657)" fill="#003d4f" stroke="#edf1f3" stroke-width="0.25" fill-rule="evenodd"/>
    <path id="Path_16389" data-name="Path 16389" d="M554.96,34.722h-9.75V32.931h8.863a1.768,1.768,0,0,0-1.181-1.494l-4.432-1.345c-.443,0-.591-.448-.591-.746V26.807h1.773V28.6l3.841,1.194a3.218,3.218,0,0,1,2.363,3.137v.9A.958.958,0,0,1,554.96,34.722Z" transform="translate(1.269 1.657)" fill="#003d4f" stroke="#edf1f3" stroke-width="0.25" fill-rule="evenodd"/>
    <path id="Path_16390" data-name="Path 16390" d="M546.834,30.2c-3.534,0-6.183-2.968-6.183-6.679s2.65-6.679,6.183-6.679a6.451,6.451,0,0,1,6.184,6.679A6.451,6.451,0,0,1,546.834,30.2Zm0-11.576a4.654,4.654,0,0,0-4.416,4.9,4.655,4.655,0,0,0,4.416,4.9,4.755,4.755,0,0,0,4.418-4.9A4.754,4.754,0,0,0,546.834,18.62Z" transform="translate(0.511)" fill="#003d4f" stroke="#edf1f3" stroke-width="0.25" fill-rule="evenodd"/>
    <path id="Path_16391" data-name="Path 16391" d="M550.338,23.421h-.595a4.094,4.094,0,0,1-2.231-1.187,6.17,6.17,0,0,1-6.544.3l1.041-1.483a3.987,3.987,0,0,0,4.907-.743.986.986,0,0,1,.892-.148.794.794,0,0,1,.595.445,2.725,2.725,0,0,0,1.488,1.039,2.767,2.767,0,0,0,1.487-.3l1.339,1.187A3.384,3.384,0,0,1,550.338,23.421Z" transform="translate(0.564 0.541)" fill="#003d4f" stroke="#edf1f3" stroke-width="0.25" fill-rule="evenodd"/>
    <path id="Path_16392" data-name="Path 16392" d="M567.937,34.722h-9.75a.856.856,0,0,1-.886-.9v-.9a3.218,3.218,0,0,1,2.363-3.137l3.841-1.194V26.807h1.773v2.539a.8.8,0,0,1-.738.746l-4.433,1.345a1.623,1.623,0,0,0-1.033,1.494h8.863Z" transform="translate(3.279 1.657)" fill="#003d4f" stroke="#edf1f3" stroke-width="0.25" fill-rule="evenodd"/>
    <path id="Path_16393" data-name="Path 16393" d="M574.687,34.722h-9.751V32.931H573.8a1.768,1.768,0,0,0-1.181-1.494l-4.432-1.345c-.443,0-.591-.448-.591-.746V26.807h1.773V28.6l3.842,1.194a3.22,3.22,0,0,1,2.364,3.137v.9A.958.958,0,0,1,574.687,34.722Z" transform="translate(4.548 1.657)" fill="#003d4f" stroke="#edf1f3" stroke-width="0.25" fill-rule="evenodd"/>
    <path id="Path_16394" data-name="Path 16394" d="M566.56,30.2c-3.534,0-6.184-2.968-6.184-6.679s2.651-6.679,6.184-6.679a6.451,6.451,0,0,1,6.183,6.679A6.451,6.451,0,0,1,566.56,30.2Zm0-11.576a4.654,4.654,0,0,0-4.418,4.9,4.655,4.655,0,0,0,4.418,4.9,4.754,4.754,0,0,0,4.416-4.9A4.753,4.753,0,0,0,566.56,18.62Z" transform="translate(3.79)" fill="#003d4f" stroke="#edf1f3" stroke-width="0.25" fill-rule="evenodd"/>
    <path id="Path_16395" data-name="Path 16395" d="M570.09,23.421h-.59a4.049,4.049,0,0,1-2.211-1.187,6.075,6.075,0,0,1-6.489.3l1.032-1.483A3.929,3.929,0,0,0,566.7,20.3a.972.972,0,0,1,.885-.148.788.788,0,0,1,.589.445,2.7,2.7,0,0,0,1.475,1.039,3.157,3.157,0,0,0,1.474-.3l1.18,1.187A2.773,2.773,0,0,1,570.09,23.421Z" transform="translate(3.86 0.541)" fill="#003d4f" stroke="#edf1f3" stroke-width="0.25" fill-rule="evenodd"/>
    <path id="Path_16396" data-name="Path 16396" d="M558.074,54.431h-9.75a.85.85,0,0,1-.886-.883v-.882a3.176,3.176,0,0,1,2.364-3.087l3.84-1.177V46.638h1.773v2.5a.789.789,0,0,1-.738.736L550.245,51.2a1.6,1.6,0,0,0-1.034,1.471h8.863Z" transform="translate(1.639 4.953)" fill="#003d4f" stroke="#edf1f3" stroke-width="0.25" fill-rule="evenodd"/>
    <path id="Path_16397" data-name="Path 16397" d="M564.823,54.431h-9.75V52.666h8.863a1.749,1.749,0,0,0-1.183-1.471l-4.432-1.322c-.443,0-.59-.441-.59-.736v-2.5h1.773V48.4l3.84,1.177a3.176,3.176,0,0,1,2.364,3.087v.882A.952.952,0,0,1,564.823,54.431Z" transform="translate(2.908 4.953)" fill="#003d4f" stroke="#edf1f3" stroke-width="0.25" fill-rule="evenodd"/>
    <path id="Path_16398" data-name="Path 16398" d="M556.7,49.921c-3.534,0-6.184-2.968-6.184-6.679s2.651-6.678,6.184-6.678a6.449,6.449,0,0,1,6.183,6.678A6.45,6.45,0,0,1,556.7,49.921Zm0-11.576a4.656,4.656,0,0,0-4.418,4.9,4.656,4.656,0,0,0,4.418,4.9,4.924,4.924,0,0,0,0-9.795Z" transform="translate(2.15 3.279)" fill="#003d4f" stroke="#edf1f3" stroke-width="0.25" fill-rule="evenodd"/>
    <path id="Path_16399" data-name="Path 16399" d="M560.072,43.146a1.134,1.134,0,0,1-.6-.148,3.5,3.5,0,0,1-2.086-1.039,6.2,6.2,0,0,1-6.558.3l1.043-1.485a4,4,0,0,0,4.919-.742.988.988,0,0,1,.895-.149.8.8,0,0,1,.6.445,1.658,1.658,0,0,0,1.49.891,1.634,1.634,0,0,0,1.49-.3l1.192,1.336A2.94,2.94,0,0,1,560.072,43.146Z" transform="translate(2.203 3.82)" fill="#003d4f" stroke="#edf1f3" stroke-width="0.25" fill-rule="evenodd"/>
    <path id="Path_16400" data-name="Path 16400" d="M548.189,41.269c-.294,0-.441-.146-.734-.293l-4.4-4.4a.934.934,0,1,1,1.32-1.321l4.4,4.4a1.1,1.1,0,0,1,0,1.32A1.112,1.112,0,0,1,548.189,41.269Z" transform="translate(0.874 3.025)" fill="#003d4f" stroke="#edf1f3" stroke-width="0.25" fill-rule="evenodd"/>
    <path id="Path_16401" data-name="Path 16401" d="M564.276,41.269c-.3,0-.449-.146-.748-.293a1.076,1.076,0,0,1,0-1.32l4.486-4.4a1.137,1.137,0,0,1,1.347,0,1.081,1.081,0,0,1,0,1.321l-4.487,4.4A1.14,1.14,0,0,1,564.276,41.269Z" transform="translate(4.276 3.025)" fill="#003d4f" stroke="#edf1f3" stroke-width="0.25" fill-rule="evenodd"/>
  </g>
  <g id="Group_12415" data-name="Group 12415" transform="translate(786.1 -544)">
    <path id="Path_16402" data-name="Path 16402" d="M31.231,592.386l7.159,7.159H31.231Zm-1.193-1.023v9.546h9.546v28.467H10.264V591.364ZM8.9,590v40.741H40.777V599.887L30.89,590Z" fill="#003d4f" stroke="#133d4e" stroke-width="0.25" fill-rule="evenodd"/>
    <path id="Path_16403" data-name="Path 16403" d="M17.182,598.4a.682.682,0,1,0,0,1.364h10.91a.682.682,0,1,0,0-1.364Z" transform="translate(5.355 5.919)" fill="#003d4f" stroke="#133d4e" stroke-width="0.25" fill-rule="evenodd"/>
    <path id="Path_16404" data-name="Path 16404" d="M17.99,597.2a.626.626,0,0,0-.511.17l-2.9,2.386-.852-.852a.626.626,0,0,0-.511-.171.626.626,0,0,0-.511.171.639.639,0,0,0,0,1.023l1.364,1.364a.626.626,0,0,0,.511.17c.17,0,.341,0,.341-.17l3.409-2.727c.341-.17.341-.682.17-1.023S18.161,597.2,17.99,597.2Z" transform="translate(2.501 5.073)" fill="#003d4f" stroke="#133d4e" stroke-width="0.25" fill-rule="evenodd"/>
    <path id="Path_16405" data-name="Path 16405" d="M17.182,602.8a.682.682,0,0,0,0,1.364h10.91a.682.682,0,0,0,0-1.364Z" transform="translate(5.355 9.019)" fill="#003d4f" stroke="#133d4e" stroke-width="0.25" fill-rule="evenodd"/>
    <path id="Path_16406" data-name="Path 16406" d="M17.92,601.5c-.17,0-.341,0-.341.17l-2.9,2.386-.852-1.023a.626.626,0,0,0-.511-.171.626.626,0,0,0-.511.171.639.639,0,0,0,0,1.023l1.364,1.364a.626.626,0,0,0,.511.171c.17,0,.341,0,.341-.171l3.409-2.727c.341-.171.341-.682.17-1.023C18.261,601.67,18.09,601.5,17.92,601.5Z" transform="translate(2.572 8.103)" fill="#003d4f" stroke="#133d4e" stroke-width="0.25" fill-rule="evenodd"/>
    <path id="Path_16407" data-name="Path 16407" d="M17.182,607.1a.682.682,0,0,0,0,1.364h10.91a.682.682,0,0,0,0-1.364Z" transform="translate(5.355 12.049)" fill="#003d4f" stroke="#133d4e" stroke-width="0.25" fill-rule="evenodd"/>
    <path id="Path_16408" data-name="Path 16408" d="M17.82,605.9c-.17,0-.341,0-.341.17l-2.9,2.386-.852-.852a.626.626,0,0,0-.511-.171.626.626,0,0,0-.511.171c-.341.17-.341.682,0,1.023l1.364,1.364a.626.626,0,0,0,.511.17c.17,0,.341,0,.341-.17l3.409-2.727a.594.594,0,0,0,.17-.852C18.331,606.07,18.161,605.9,17.82,605.9Z" transform="translate(2.501 11.204)" fill="#003d4f" stroke="#133d4e" stroke-width="0.25" fill-rule="evenodd"/>
  </g>
  <g id="M05sbk" transform="translate(4247.259 -2268.497)">
    <g id="Group_12416" data-name="Group 12416" transform="translate(-3265.26 2314.497)">
      <path id="Path_16409" data-name="Path 16409" d="M-3233.724,2411.586a8.021,8.021,0,0,1-.405,1.192,2.8,2.8,0,0,1-4.174.937q-3.841-2.788-7.678-5.582c-.122-.088-.25-.167-.435-.291a3.649,3.649,0,0,0-.054.412c-.005.525,0,1.05,0,1.574a2.8,2.8,0,0,1-4.122,2.589c-2.067-.971-4.123-1.965-6.185-2.946q-3.437-1.636-6.876-3.266a2.22,2.22,0,0,1-1.191-1.118,2.064,2.064,0,0,1,.415-2.3,2.034,2.034,0,0,1,2.3-.407c1.948.907,3.884,1.839,5.823,2.761l5.085,2.421c.179.085.362.163.637.287,0-.9,0-1.725,0-2.547a2.762,2.762,0,0,1,1.087-2.3,2.8,2.8,0,0,1,3.484.012q3.862,2.8,7.72,5.612c.1.076.217.143.358.235.046-.131.084-.221.111-.314a2.761,2.761,0,0,1,4.142-1.733c1.86,1.074,3.677,2.222,5.516,3.333q4.774,2.885,9.579,5.78a2.156,2.156,0,0,1,1.987-1.286,1.97,1.97,0,0,1,1.893,1.357c.564,1.878,1.095,3.767,1.622,5.656a.686.686,0,0,1-.7.927c-1.879.013-3.76.037-5.637-.009a2.023,2.023,0,0,1-1.788-2.739c.058-.157.136-.307.237-.532Zm19.025,9.578c-.228-.8-.433-1.51-.636-2.225-.226-.8-.439-1.6-.679-2.391a.609.609,0,0,0-.781-.469.6.6,0,0,0-.459.74c.01.084.035.166.042.25a.689.689,0,0,1-1.028.722,4.325,4.325,0,0,1-.442-.248l-11.108-6.731c-1.476-.895-2.956-1.783-4.427-2.684a1.44,1.44,0,0,0-1.578-.113,1.454,1.454,0,0,0-.716,1.416c0,.085.005.17,0,.254-.03.438.156.957-.371,1.227s-.89-.147-1.261-.416q-4.358-3.157-8.705-6.329a1.4,1.4,0,0,0-1.569-.177,1.4,1.4,0,0,0-.745,1.392c.012,1.134.013,2.269-.009,3.4-.015.817-.473,1.095-1.2.75q-3.232-1.533-6.46-3.075l-5.587-2.666c-.046-.021-.094-.038-.141-.058-.481-.207-.826-.12-.99.25s-.016.683.467.914q6.48,3.092,12.964,6.176c1.288.611,2.234,0,2.235-1.426,0-1.016-.027-2.033.015-3.047a1.255,1.255,0,0,1,.369-.813c.29-.254.637-.07.92.148.067.052.136.1.205.15q4.436,3.222,8.871,6.447a1.374,1.374,0,0,0,1.478.187,1.389,1.389,0,0,0,.813-1.354c0-.288,0-.576,0-.864.009-.888.489-1.171,1.244-.719q2.286,1.367,4.561,2.75,4.907,2.97,9.813,5.943c.82.5.806.952.02,1.5a.8.8,0,0,0-.31.659.816.816,0,0,0,.577.5C-3217.8,2421.184-3216.295,2421.165-3214.7,2421.165Z" transform="translate(3265.053 -2393.277)" fill="#003d4f"/>
      <path id="Path_16410" data-name="Path 16410" d="M-3262.529,2451.412c-2.261-.026-2.866-1.352-2.707-3.068.083-.893.125-1.789.2-2.683.031-.391.154-.736.592-.846a.718.718,0,0,1,.855.836c-.091,1.094-.179,2.19-.226,3.288-.031.737.27,1.014,1,1.028.288.006.575,0,.863,0,.6.011.831.233.835.831.008,1.185,0,2.37,0,3.555q0,8.1,0,16.2c0,1.139.458,1.594,1.6,1.6,1.1.006,2.2.019,3.3.032,1.177.014,1.723-.51,1.718-1.67,0-1.032-.032-2.063-.032-3.095q-.005-8.2,0-16.4c0-.889.266-1.131,1.13-1.048a.709.709,0,0,1,.562,1.083,2.165,2.165,0,0,0-.261.927q-.023,8.709-.012,17.419c0,.573.019,1.147-.018,1.718a2.608,2.608,0,0,1-2.4,2.418c-1.518.064-3.042.067-4.558,0a2.583,2.583,0,0,1-2.425-2.6c-.018-2.082-.008-4.164-.008-6.247q0-6.323,0-12.646Z" transform="translate(3265.26 -2431.554)" fill="#003d4f"/>
      <path id="Path_16411" data-name="Path 16411" d="M-3099.628,2516.872c0,3.047.014,6.095-.006,9.142a3.216,3.216,0,0,1-2.448,3.113,2.828,2.828,0,0,1-.7.1c-1.049.009-2.1.042-3.148-.012a3.22,3.22,0,0,1-3.1-3.215c-.02-6.044-.009-12.088-.006-18.133,0-.543.286-.866.72-.855s.676.292.7.823c.014.372.008.745.009,1.117v16.609c0,1.568.689,2.254,2.258,2.255.745,0,1.49,0,2.235,0a1.892,1.892,0,0,0,2.082-2.079q.005-8.736,0-17.472c0-.237,0-.474,0-.711.012-.5.285-.808.715-.8a.692.692,0,0,1,.688.774c0,2.031-.012,4.061-.018,6.092,0,1.083,0,2.166,0,3.249Z" transform="translate(3124.914 -2487.221)" fill="#003d4f"/>
      <path id="Path_16412" data-name="Path 16412" d="M-2998.316,2533.986c0-2.792,0-5.584,0-8.377,0-.41.09-.747.514-.886.478-.156.891.208.9.794.009,1.235,0,2.47,0,3.7q0,6.4,0,12.8a1.7,1.7,0,0,0,1.909,1.91h2.742a1.716,1.716,0,0,0,1.938-1.935q0-7.9,0-15.794c0-.2,0-.407.012-.609a.642.642,0,0,1,.666-.634.671.671,0,0,1,.719.586,2.1,2.1,0,0,1,.018.456q0,8.024,0,16.048a3.114,3.114,0,0,1-3.308,3.3c-.965,0-1.93,0-2.895,0a3.1,3.1,0,0,1-3.213-3.242Q-2998.313,2538.049-2998.316,2533.986Z" transform="translate(3025.443 -2503.331)" fill="#003d4f"/>
      <path id="Path_16413" data-name="Path 16413" d="M-2887.64,2555.408c0-2.454,0-4.908,0-7.362,0-.213-.009-.513.117-.62a1.17,1.17,0,0,1,.78-.3c.374.041.514.377.513.761-.006,1.472,0,2.945,0,4.417q0,5.153,0,10.306c0,1.035.444,1.474,1.485,1.476,1.235,0,2.471,0,3.706,0a1.231,1.231,0,0,0,1.375-1.379c.007-2.826,0-5.652.006-8.479,0-.184-.034-.428.065-.538a1.309,1.309,0,0,1,.693-.462.585.585,0,0,1,.636.588,5.116,5.116,0,0,1,.011.558q0,4.163,0,8.326a2.609,2.609,0,0,1-2.781,2.8c-1.286.013-2.573.015-3.859,0a2.612,2.612,0,0,1-2.753-2.784c-.006-2.437,0-4.874,0-7.311Z" transform="translate(2926.013 -2523.488)" fill="#003d4f"/>
      <path id="Path_16414" data-name="Path 16414" d="M-3233.491,2314.5a4.1,4.1,0,0,1,3.987,3.394,4.355,4.355,0,0,0,.288.85,2.521,2.521,0,0,1-.243,2.637,1.336,1.336,0,0,0-.273.522,2.7,2.7,0,0,1-1.479,2.006c-.438.231-.495.494-.215.872a.894.894,0,0,1,.1.174.667.667,0,0,1-.246.928.657.657,0,0,1-.941-.188,2.512,2.512,0,0,1-.562-1.846,1.093,1.093,0,0,1,.29-.562,1.864,1.864,0,0,1,.571-.414,1.993,1.993,0,0,0,1.185-1.693,1.322,1.322,0,0,1,.358-.69.928.928,0,0,0,.118-1.176,1.7,1.7,0,0,1-.294-.761,2.737,2.737,0,0,0-2.694-2.637,2.709,2.709,0,0,0-2.747,2.622,1.8,1.8,0,0,1-.35.8.937.937,0,0,0,.107,1.13,1.794,1.794,0,0,1,.441.862,1.852,1.852,0,0,0,1.07,1.491,3.008,3.008,0,0,1,.664.462.761.761,0,0,1,.125,1.084.741.741,0,0,1-1.08-.016c-.13-.106-.27-.2-.409-.3a3.733,3.733,0,0,1-.625-.429c-.309-.324-.74-.654-.826-1.046-.239-1.082-1.437-1.888-.991-3.128a10.6,10.6,0,0,1,1.361-3.386A4.053,4.053,0,0,1-3233.491,2314.5Z" transform="translate(3241.001 -2314.497)" fill="#003d4f"/>
      <path id="Path_16415" data-name="Path 16415" d="M-3099.6,2350.523c0,.982,0,1.964,0,2.946,0,.61-.242.929-.689.931-.464,0-.719-.333-.719-.955q0-2.819,0-5.637a1.9,1.9,0,0,0-2.047-2.061c-.88,0-1.761-.006-2.641.005a1.843,1.843,0,0,0-1.878,1.807c-.027.558,0,1.117-.015,1.676-.014.534-.261.817-.692.826-.449.01-.732-.3-.729-.843a18.175,18.175,0,0,1,.064-2.078,3.149,3.149,0,0,1,2.966-2.781,33.179,33.179,0,0,1,3.35,0,3.209,3.209,0,0,1,3.026,3.169c.021,1,0,2,0,3Z" transform="translate(3124.886 -2341.287)" fill="#003d4f"/>
      <path id="Path_16416" data-name="Path 16416" d="M-2988.848,2397.8c0,.643.006,1.287,0,1.93a.732.732,0,0,1-.707.82c-.428,0-.7-.295-.7-.816-.009-1.151,0-2.3-.005-3.453a1.75,1.75,0,0,0-1.963-1.976c-.931,0-1.862-.007-2.793,0a1.712,1.712,0,0,0-1.833,1.846c0,.457,0,.914,0,1.371a.662.662,0,0,1-.675.729.657.657,0,0,1-.723-.726,12.8,12.8,0,0,1,.082-2.173,2.981,2.981,0,0,1,2.947-2.458c1.1-.02,2.2-.015,3.3,0a3.085,3.085,0,0,1,3.073,3.073C-2988.835,2396.581-2988.848,2397.191-2988.848,2397.8Z" transform="translate(3025.388 -2384.917)" fill="#003d4f"/>
      <path id="Path_16417" data-name="Path 16417" d="M-2868,2483.705c.711,0,1.423-.016,2.134,0a2.582,2.582,0,0,1,2.5,2.408,7.728,7.728,0,0,1-.005,1.014.618.618,0,0,1-.619.62.643.643,0,0,1-.737-.552,4.158,4.158,0,0,1-.04-.758,1.22,1.22,0,0,0-1.323-1.33c-1.354-.007-2.709,0-4.064,0-.565,0-.885-.225-.91-.655s.314-.743.883-.751c.728-.01,1.456,0,2.184,0Z" transform="translate(2911.122 -2466.507)" fill="#003d4f"/>
    </g>
  </g>
  <g id="rUOZPF" transform="translate(420 370.203)">
    <g id="Group_12417" data-name="Group 12417" transform="translate(-0.001 0)">
      <path id="Path_16418" data-name="Path 16418" d="M-790.547,116.359c0-.84-.007-1.635,0-2.43a10.576,10.576,0,0,1,.069-1.693,4.027,4.027,0,0,1,2.836-3.216,4.952,4.952,0,0,1,1.587-.252c2.589-.025,5.179-.043,7.767,0a5.269,5.269,0,0,1,4.683,2.567,3.466,3.466,0,0,1,.518,1.835c.009,2.512.016,5.023,0,7.535a2.84,2.84,0,0,1-2.549,2.746c-.846.065-1.7.055-2.548.054q-4.327,0-8.653-.028a3,3,0,0,1-3.007-2.3,3.276,3.276,0,0,1,1.663-3.683,3.9,3.9,0,0,1,1.835-.351q3.613-.005,7.226,0h.549c.008-.155.02-.29.02-.425,0-1-.006-2.009,0-3.014a.862.862,0,0,1,.62-.953.818.818,0,0,1,1.053.726c.019,1.532.015,3.065,0,4.6a.762.762,0,0,1-.788.74c-.541.014-1.082.005-1.623.005q-3.652,0-7.3,0a1.539,1.539,0,0,0-1.65,1.632,1.312,1.312,0,0,0,1.328,1.31q5.351.008,10.7.012c1.03,0,1.447-.432,1.448-1.464,0-2.177-.08-4.358.025-6.529a3.179,3.179,0,0,0-2.7-3.244,4.435,4.435,0,0,0-.881-.084c-2.615-.006-5.23.018-7.844-.013a2.678,2.678,0,0,0-2.715,2.7c.072,1.077.017,2.163.013,3.245a1.562,1.562,0,0,1-1.632,1.663c-1.4.009-2.8,0-4.206,0-.615,0-.969-.324-.961-.854s.368-.834.992-.836c1.223,0,2.447,0,3.67,0Z" transform="translate(808.862 -96.86)" fill="#003d4f"/>
      <path id="Path_16419" data-name="Path 16419" d="M-901.691,341.158a1.922,1.922,0,0,1-1.327,2.035q-1.231.506-2.467,1a.378.378,0,0,0-.247.574c.362.866.716,1.735,1.069,2.605.114.281.3.26.535.164q1.246-.517,2.5-1.023a1.96,1.96,0,0,1,2.3.453c.235.238.478.469.714.706a1.962,1.962,0,0,1,.479,2.265c-.322.813-.672,1.615-1,2.426-.171.423-.131.486.293.659.738.3,1.472.613,2.21.915.6.247.617.242.87-.368.271-.654.551-1.3.8-1.967a2.093,2.093,0,0,1,2.329-1.545c.268.023.541-.006.811,0a1.889,1.889,0,0,1,1.837,1.228c.353.814.7,1.633,1.017,2.46.128.329.294.407.616.27q1.242-.529,2.5-1.026c.3-.12.337-.3.22-.576-.331-.781-.649-1.569-.976-2.352a1.975,1.975,0,0,1,.526-2.478c.207-.193.4-.4.6-.6a1.916,1.916,0,0,1,2.192-.488c.829.315,1.64.676,2.463,1.008.439.177.507.142.692-.3.327-.783.644-1.571.982-2.349.143-.33.078-.519-.267-.654-.814-.319-1.616-.668-2.426-1a2.162,2.162,0,0,1-1.2-2.7.769.769,0,0,1,.9-.562.722.722,0,0,1,.706.77c-.127.759.3,1,.889,1.213a18.38,18.38,0,0,1,2.228.961,1.823,1.823,0,0,1,.834,2.294c-.387,1.007-.816,2-1.25,2.986a1.933,1.933,0,0,1-2.5.979c-.82-.338-1.645-.665-2.46-1.017a.528.528,0,0,0-.711.165,2.523,2.523,0,0,1-.179.2c-.6.62-.6.619-.251,1.429.254.591.5,1.184.746,1.78a1.983,1.983,0,0,1-1.165,2.853q-1.222.528-2.458,1.023a1.982,1.982,0,0,1-2.807-1.21c-.308-.777-.639-1.544-.953-2.319a.425.425,0,0,0-.5-.316,4.175,4.175,0,0,1-.579.008c-.634-.005-.627,0-.876.608-.31.762-.614,1.528-.956,2.277a1.881,1.881,0,0,1-2.442,1.035c-1.035-.385-2.056-.814-3.062-1.272a1.9,1.9,0,0,1-.922-2.336q.477-1.243,1.016-2.461c.156-.351.194-.63-.157-.87a1.714,1.714,0,0,1-.22-.216c-.557-.558-.556-.554-1.3-.239-.675.285-1.351.569-2.033.84a1.969,1.969,0,0,1-2.67-1.09q-.566-1.31-1.11-2.629a1.979,1.979,0,0,1,1.109-2.7c.8-.343,1.613-.675,2.428-.991a.51.51,0,0,0,.387-.608,1.437,1.437,0,0,1,.017-.5.819.819,0,0,1,.918-.649.83.83,0,0,1,.751.835C-901.687,340.9-901.691,341.029-901.691,341.158Z" transform="translate(912.04 -310.18)" fill="#003d4f"/>
      <path id="Path_16420" data-name="Path 16420" d="M-940.917,150.283h-5.835a.928.928,0,0,1-1.064-.743q-1.48-4.363-2.955-8.727c-.21-.621-.424-1.241-.623-1.865a.8.8,0,0,1,.827-1.14q3.787,0,7.573,0a.839.839,0,0,1,.946.676q1.68,4.866,3.351,9.736a.388.388,0,0,0,.436.316c1.106-.013,2.213,0,3.32-.007a.866.866,0,0,1,.948.849.858.858,0,0,1-.9.9c-2.008.008-4.016,0-6.025,0Zm-8.49-10.717c.038.141.063.263.1.381q.475,1.406.954,2.81c.612,1.8,1.231,3.6,1.833,5.4a.484.484,0,0,0,.555.383c1.725-.017,3.45-.007,5.175-.009.123,0,.245-.015.408-.025-.224-.643-.435-1.246-.644-1.85q-1.179-3.406-2.353-6.814c-.071-.208-.154-.314-.4-.313-1.8.01-3.6.005-5.407.006A2.087,2.087,0,0,0-949.407,139.566Z" transform="translate(952.612 -123.679)" fill="#003d4f"/>
      <path id="Path_16421" data-name="Path 16421" d="M-946.973,314.369q9.233,0,18.466,0a1.528,1.528,0,0,1,.494.063.732.732,0,0,1,.518.736.753.753,0,0,1-.6.714,3.219,3.219,0,0,1-.614.048q-5.777,0-11.553-.012-6.336,0-12.673.011-6.181,0-12.363,0a2.844,2.844,0,0,1-.538-.039.778.778,0,0,1-.61-.707.759.759,0,0,1,.544-.756,1.859,1.859,0,0,1,.5-.054q6.568,0,13.137,0h5.29Z" transform="translate(966.441 -286.593)" fill="#003d4f"/>
      <path id="Path_16422" data-name="Path 16422" d="M-697.828-39.47a5.5,5.5,0,0,1,5.456-5.5,5.5,5.5,0,0,1,5.573,5.462,5.5,5.5,0,0,1-5.515,5.569A5.5,5.5,0,0,1-697.828-39.47Zm1.688.081a3.837,3.837,0,0,0,3.9,3.763,3.845,3.845,0,0,0,3.759-3.907,3.845,3.845,0,0,0-4.019-3.763A3.853,3.853,0,0,0-696.139-39.388Z" transform="translate(718.591 44.969)" fill="#003d4f"/>
      <path id="Path_16423" data-name="Path 16423" d="M-795.471,347.67a6.926,6.926,0,0,1-6.887-6.064,7.24,7.24,0,0,1-.07-.767.85.85,0,0,1,.836-.953c.517-.008.839.341.856.926a5.272,5.272,0,0,0,4.155,5.059,5.279,5.279,0,0,0,6.371-4.94c.02-.641.244-.971.705-1.038a.829.829,0,0,1,.982.905,6.756,6.756,0,0,1-2.328,5.112A6.734,6.734,0,0,1-795.471,347.67Z" transform="translate(815.106 -310.133)" fill="#003d4f"/>
    </g>
  </g>
  <g id="YupoYh.tif" transform="translate(607.321 370.203)">
    <g id="Group_12418" data-name="Group 12418" transform="translate(0)">
      <path id="Path_16424" data-name="Path 16424" d="M-3565.144,1575.771c-.3-.635-.638-1.257-.891-1.911a.7.7,0,0,0-.806-.557c-.842.048-.937-.08-.937-.921q0-.772,0-1.544c0-.78.071-.855.909-.9V1568.8c-.136-.011-.25-.022-.364-.029a.5.5,0,0,1-.541-.542c-.008-.772-.014-1.545,0-2.317.009-.4.177-.518.8-.649a6,6,0,0,0-2.284-3.742,13.749,13.749,0,0,1-3.814-4.269,12.985,12.985,0,0,1,2.077-15.55,14.27,14.27,0,0,1,22.054,2,13.056,13.056,0,0,1-2.8,17.357,7.3,7.3,0,0,0-2.618,3.336c-.052.158-.1.316-.146.477-.034.13-.055.263-.082.4.737.156.8.237.8,1.008v1.59c0,.8-.056.864-.883.933v1.11c.879.131.883.136.883,1.018,0,.575.006,1.151,0,1.726-.006.473-.2.714-.66.648-.717-.1-1,.218-1.2.853a12.349,12.349,0,0,1-.77,1.616Zm9.414-10.466c.1-.376.17-.717.27-1.049a8.167,8.167,0,0,1,3.016-4.032,11.965,11.965,0,0,0,2.575-15.952,13.161,13.161,0,0,0-20-2.138,11.685,11.685,0,0,0-3.64,10.549,11.785,11.785,0,0,0,4.775,7.855,7.313,7.313,0,0,1,2.563,3.5c.141.41.229.838.344,1.27Zm-10.947,2.379c.43,0,.862,0,1.293,0,.356,0,.593.18.591.544s-.24.534-.594.542c-.117,0-.234,0-.366,0v1.149h9.945v-1.149h-2.553c-1.03,0-2.059,0-3.089,0-.354,0-.593-.178-.593-.543s.237-.535.593-.544c.106,0,.212,0,.318,0h6.228v-1.239h-11.773Zm11.78,3.393h-11.754v1.126h11.754Zm-1.6,2.279h-8.579c.161.4.283.754.454,1.087a.5.5,0,0,0,.364.227q3.475.02,6.95,0a.423.423,0,0,0,.327-.149C-3556.8,1574.149-3556.656,1573.754-3556.495,1573.357Z" transform="translate(3582.134 -1530.158)" fill="#003d4f" stroke="#133d4e" stroke-width="0.5"/>
      <path id="Path_16425" data-name="Path 16425" d="M-3655.75,1686.686a.951.951,0,0,1,.858-.371c1.467.017,2.934.007,4.4.007.091,0,.182,0,.272,0a.518.518,0,0,1,.547.542.5.5,0,0,1-.547.54c-1.648.009-3.3.016-4.945-.012-.2,0-.391-.225-.587-.346Z" transform="translate(3655.75 -1665.517)" fill="#003d4f" stroke="#133d4e" stroke-width="0.5"/>
      <path id="Path_16426" data-name="Path 16426" d="M-3583.75,1529.284a.548.548,0,0,1-.745.561,1.176,1.176,0,0,1-.322-.244c-1.083-1.079-2.169-2.156-3.238-3.249a.951.951,0,0,1-.276-.579.544.544,0,0,1,.328-.42.858.858,0,0,1,.637.181c.93.889,1.831,1.808,2.741,2.718.225.225.459.441.669.679A1.739,1.739,0,0,1-3583.75,1529.284Z" transform="translate(3594.469 -1519.205)" fill="#003d4f" stroke="#133d4e" stroke-width="0.5"/>
      <path id="Path_16427" data-name="Path 16427" d="M-3299.863,1525.737a2.469,2.469,0,0,1-.28.474q-1.692,1.711-3.4,3.406a.531.531,0,0,1-.836.044.52.52,0,0,1,.056-.8c1.143-1.146,2.281-2.3,3.445-3.425a.734.734,0,0,1,.6-.135C-3300.115,1525.342-3300.005,1525.576-3299.863,1525.737Z" transform="translate(3336.521 -1519.147)" fill="#003d4f" stroke="#133d4e" stroke-width="0.5"/>
      <path id="Path_16428" data-name="Path 16428" d="M-3426.158,1460.951c0,.772,0,1.544,0,2.316,0,.438-.213.694-.547.692s-.54-.258-.541-.7q0-2.339,0-4.678c0-.443.206-.69.546-.688s.538.244.541.694C-3426.155,1459.377-3426.158,1460.164-3426.158,1460.951Z" transform="translate(3448.055 -1457.896)" fill="#003d4f" stroke="#133d4e" stroke-width="0.5"/>
      <path id="Path_16429" data-name="Path 16429" d="M-3250.568,1687.483h-2.134c-.623,0-.874-.153-.882-.534s.256-.556.86-.556h4.359c.566,0,.834.171.842.534.009.378-.267.556-.865.557Z" transform="translate(3290.202 -1665.587)" fill="#003d4f" stroke="#133d4e" stroke-width="0.5"/>
      <path id="Path_16430" data-name="Path 16430" d="M-3587.584,1813.652c-.175-.13-.385-.213-.453-.36a.781.781,0,0,1,.023-.546c.055-.144.213-.249.33-.367q1.556-1.557,3.113-3.111c.332-.33.672-.372.9-.106.283.329.14.608-.124.871-1.1,1.1-2.2,2.2-3.308,3.3A3.128,3.128,0,0,1-3587.584,1813.652Z" transform="translate(3594.238 -1777.021)" fill="#003d4f" stroke="#133d4e" stroke-width="0.5"/>
      <path id="Path_16431" data-name="Path 16431" d="M-3300.441,1813.642a3.369,3.369,0,0,1-.492-.329q-1.676-1.661-3.339-3.335c-.256-.256-.354-.535-.087-.838.225-.255.559-.225.868.082,1.116,1.109,2.236,2.214,3.329,3.346a.892.892,0,0,1,.176.673C-3300.008,1813.386-3300.265,1813.5-3300.441,1813.642Z" transform="translate(3336.498 -1777.003)" fill="#003d4f" stroke="#133d4e" stroke-width="0.5"/>
      <path id="Path_16432" data-name="Path 16432" d="M-3414.763,1578.884a3.316,3.316,0,0,1,2.777.906,3.232,3.232,0,0,1,.979,2.719.583.583,0,0,0,.166.441,2.476,2.476,0,0,1,.541,3.593,12.094,12.094,0,0,1,.792,1.9,3.066,3.066,0,0,1-1.528,3.353.706.706,0,0,0-.385.758,2.54,2.54,0,0,1-2.218,2.62,2.358,2.358,0,0,1-1.069-.084.939.939,0,0,0-.832.1,2.571,2.571,0,0,1-3.768-2.21c-.031-4.737-.02-9.474,0-14.211a2.228,2.228,0,0,1,2.057-2.166,2.249,2.249,0,0,1,2.4,1.827C-3414.823,1578.566-3414.8,1578.7-3414.763,1578.884Zm-1.385,15.365c-.151-.531-.321-1.013-.418-1.509a.507.507,0,0,1,.485-.639c.358-.031.559.176.587.541a1.96,1.96,0,0,0,.049.313,1.472,1.472,0,0,0,1.75,1.126,1.434,1.434,0,0,0,1.141-1.71l-.681-.334-.012-.241c.033-.59.481-.573.887-.636a2.162,2.162,0,0,0,1.847-2,2.176,2.176,0,0,0-1.615-2.243c-.188-.05-.389-.049-.582-.081-.325-.054-.539-.236-.513-.579a.493.493,0,0,1,.587-.49,5.021,5.021,0,0,1,1.062.2.358.358,0,0,0,.482-.178,1.306,1.306,0,0,0-.361-1.836,1.4,1.4,0,0,1-.777-.055c-.337-.212-.188-.543-.052-.849A2.168,2.168,0,0,0-3413.8,1580a2.106,2.106,0,0,0-1.688.331.538.538,0,0,1-.806-.065c-.229-.289-.128-.545.12-.8a1.007,1.007,0,0,0,.264-.542,1.153,1.153,0,0,0-.9-1.2,1.137,1.137,0,0,0-1.324.7,2.141,2.141,0,0,0-.1.711q-.008,6.084,0,12.169c0,.545-.016,1.09.005,1.634A1.459,1.459,0,0,0-3416.147,1594.249Z" transform="translate(3440.854 -1565.791)" fill="#003d4f" stroke="#133d4e" stroke-width="0.5"/>
      <path id="Path_16433" data-name="Path 16433" d="M-3529.879,1590.85c-.2.366,1.37,1.489,1.124,1.606a1.439,1.439,0,0,0,1.192,1.721,1.482,1.482,0,0,0,1.709-1.195,2.428,2.428,0,0,0,.039-.269.505.505,0,0,1,.6-.525.511.511,0,0,1,.473.651c-.1.5-.27.978-.416,1.488a1.444,1.444,0,0,0,2.08-1.41c.012-2.014,0-4.028,0-6.042,0-.121-.007-.243,0-.363a.516.516,0,0,1,.547-.543.511.511,0,0,1,.535.554c.013.408,0,.818,0,1.226,0,1.7.006,3.392,0,5.088a2.6,2.6,0,0,1-3.979,2.346.636.636,0,0,0-.449-.036,2.568,2.568,0,0,1-3.465-2.5.771.771,0,0,0-.428-.78,3.233,3.233,0,0,1-.875-4.775c.083-.107.168-.212.269-.339a2.52,2.52,0,0,1-.608-1.886,2.523,2.523,0,0,1,1.021-1.8.525.525,0,0,0,.214-.379,3.276,3.276,0,0,1,3.532-3.726c.059.005.119,0,.209,0,.03-.135.062-.262.086-.391a2.256,2.256,0,0,1,2.328-1.873,2.284,2.284,0,0,1,2.133,2.157c.04,1.256.014,2.513.011,3.77a.518.518,0,0,1-.543.592c-.364,0-.541-.238-.542-.594,0-1.2.006-2.393,0-3.589a1.162,1.162,0,0,0-1.479-1.2,1.055,1.055,0,0,0-.51,1.793.508.508,0,0,1,.044.735.507.507,0,0,1-.732.094,2.181,2.181,0,0,0-1.769-.368,2.177,2.177,0,0,0-1.521,3.01,1.865,1.865,0,0,1,.153.375.508.508,0,0,1-.69.6c-.312-.153-.5-.03-.574.194a2.851,2.851,0,0,0-.231,1.156c.056.575.317.674.881.538a2.236,2.236,0,0,1,.892-.1.79.79,0,0,1,.513.45c.1.292-.117.516-.424.585-.22.049-.454.045-.67.1a2.17,2.17,0,0,0-1.6,2.256C-3530.72,1590.276-3529.413,1590.727-3529.879,1590.85Z" transform="translate(3543.154 -1565.879)" fill="#003d4f" stroke="#133d4e" stroke-width="0.5"/>
    </g>
  </g>
  <g id="wsPMoV" transform="translate(4977.672 -1444.146)">
    <g id="Group_12419" data-name="Group 12419" transform="translate(-4872.671 1677.923)">
      <path id="Path_16434" data-name="Path 16434" d="M-4848.622,1791.522a18.728,18.728,0,0,1,25.607-.285,42.977,42.977,0,0,1,5-3.5c8.562-4.39,19.063,1.853,19.412,11.471.063,1.757.015,3.518.027,5.277.005.8-.223,1.468-1.139,1.488-1,.023-1.225-.7-1.236-1.537-.022-1.842.051-3.69-.074-5.525a11.048,11.048,0,0,0-7.629-9.665,11.251,11.251,0,0,0-11.809,3.175,1.136,1.136,0,0,0-.132,1.708,17.953,17.953,0,0,1,3.45,11.063c-.034,2.135-.016,4.272,0,6.408.006.895-.058,1.833-1.2,1.811s-1.144-.984-1.15-1.863c-.02-2.721.09-5.454-.126-8.161a16.037,16.037,0,0,0-15.354-14.695,15.948,15.948,0,0,0-16.343,12.646c-.571,2.964-.354,6.079-.489,9.126a6.786,6.786,0,0,1-.072,1.868,1.744,1.744,0,0,1-1.118,1.03,1.427,1.427,0,0,1-1.06-.931c-.085-6.333-.9-12.823,3.378-18.347.493-.635.393-1.044-.1-1.613a11.24,11.24,0,0,0-11.789-3.244,11.049,11.049,0,0,0-7.685,9.615c-.127,1.877-.073,3.766-.107,5.65-.015.846-.289,1.592-1.276,1.439-.393-.061-1-.664-1-1.016.022-2.713-.2-5.5.357-8.121a12.57,12.57,0,0,1,9.566-9.965c5.1-1.382,9.6-.029,13.347,3.716A9.124,9.124,0,0,1-4848.622,1791.522Z" transform="translate(4872.671 -1759.061)" fill="#003d4f"/>
      <path id="Path_16435" data-name="Path 16435" d="M-4762.109,1677.923a12.426,12.426,0,0,1,12.334,12.329,12.448,12.448,0,0,1-12.295,12.369,12.413,12.413,0,0,1-12.391-12.266A12.426,12.426,0,0,1-4762.109,1677.923Zm-.085,2.41a9.971,9.971,0,0,0-9.876,9.955,9.994,9.994,0,0,0,10.027,9.946,10.006,10.006,0,0,0,9.875-9.972A9.961,9.961,0,0,0-4762.194,1680.333Z" transform="translate(4799.142 -1677.923)" fill="#003d4f"/>
      <path id="Path_16436" data-name="Path 16436" d="M-4648.791,1716.33a8.646,8.646,0,0,1-8.688,8.562,8.628,8.628,0,0,1-8.492-8.761,8.542,8.542,0,0,1,8.755-8.457A8.535,8.535,0,0,1-4648.791,1716.33Zm-8.589-6.3a6.28,6.28,0,0,0-6.244,6.234,6.29,6.29,0,0,0,6.373,6.239,6.321,6.321,0,0,0,6.123-6.244A6.281,6.281,0,0,0-4657.38,1710.027Z" transform="translate(4717.918 -1700.197)" fill="#003d4f"/>
      <path id="Path_16437" data-name="Path 16437" d="M-4844.5,1707.638a8.559,8.559,0,0,1,8.534,8.561,8.607,8.607,0,0,1-8.587,8.663,8.635,8.635,0,0,1-8.607-8.655A8.57,8.57,0,0,1-4844.5,1707.638Zm-.024,14.836a6.3,6.3,0,0,0,6.214-6.276,6.292,6.292,0,0,0-6.41-6.2,6.3,6.3,0,0,0-6.084,6.271A6.285,6.285,0,0,0-4844.528,1722.473Z" transform="translate(4858.066 -1700.17)" fill="#003d4f"/>
      <path id="Path_16438" data-name="Path 16438" d="M-4772.083,1860.441c0,1.086-.016,2.172,0,3.257.015.861-.259,1.557-1.208,1.558-.876,0-1.179-.669-1.18-1.468q-.007-3.383,0-6.765c0-.853.295-1.53,1.28-1.479.916.047,1.115.724,1.107,1.515C-4772.088,1858.186-4772.081,1859.314-4772.083,1860.441Z" transform="translate(4799.15 -1810.904)" fill="#003d4f"/>
      <path id="Path_16439" data-name="Path 16439" d="M-4683.367,1860.415c0,1.128.011,2.256,0,3.384-.011.792-.31,1.468-1.194,1.461-.858-.006-1.2-.619-1.2-1.449q.012-3.446,0-6.894c0-.771.278-1.323,1.114-1.374.939-.057,1.239.573,1.261,1.362.033,1.169.008,2.339.008,3.509Z" transform="translate(4732.735 -1810.903)" fill="#003d4f"/>
      <path id="Path_16440" data-name="Path 16440" d="M-4850.929,1839.455a12.172,12.172,0,0,1-.048,2.5c-.095.442-.751,1.137-1.032,1.082-.465-.09-1.147-.665-1.183-1.083a29.182,29.182,0,0,1,0-4.884,1.711,1.711,0,0,1,1.13-1.16c.787-.14,1.151.494,1.141,1.286-.009.753,0,1.506,0,2.259Z" transform="translate(4858.162 -1796.192)" fill="#003d4f"/>
      <path id="Path_16441" data-name="Path 16441" d="M-4607,1839.428c0-.753.007-1.506,0-2.259-.009-.773.286-1.347,1.111-1.382s1.205.487,1.209,1.277c.009,1.59.082,3.186-.055,4.764-.038.434-.723.811-1.11,1.214-.383-.41-.981-.766-1.1-1.242a10.046,10.046,0,0,1-.05-2.372Z" transform="translate(4673.799 -1796.112)" fill="#003d4f"/>
    </g>
  </g>
  <g id="_8R9Z7G" data-name="8R9Z7G" transform="translate(795 373.375)">
    <g id="Group_12420" data-name="Group 12420" transform="translate(0 0)">
      <path id="Path_16442" data-name="Path 16442" d="M1294.971,309.488c-.019.162-.044.295-.048.428-.039,1.174-.129,1.27-1.271,1.271q-7.9,0-15.8,0c-1.134,0-1.223-.092-1.228-1.223,0-.895,0-1.79,0-2.568a13.045,13.045,0,0,1-2.2,1.262,3.123,3.123,0,0,1-3.587-1.1,3.37,3.37,0,0,1-.436-3.818q3.012-6.439,6.048-12.867c.294-.625.59-1.249.864-1.884a9.245,9.245,0,0,1,17.222.874c.193.606.476,1.185.725,1.8a11.969,11.969,0,1,1-.284,17.831Zm-1.234.313a8.334,8.334,0,0,0-.536-2.473,11.928,11.928,0,0,1-.2-12.869c.352-.616,1.089-1.137,1.156-1.756s-.485-1.3-.763-1.95a2.406,2.406,0,0,1-.088-.272,7.888,7.888,0,0,0-11.53-4.6,8.537,8.537,0,0,0-3.464,4.136c-2.182,4.764-4.452,9.487-6.673,14.233a2.164,2.164,0,1,0,3.905,1.837q.5-1.029.98-2.066c.178-.383.364-.753.883-.655.534.1.538.52.537.942,0,1.144,0,2.289,0,3.433V309.8Zm9.426,1.466a10.575,10.575,0,1,0-10.6-10.512A10.594,10.594,0,0,0,1303.164,311.267Z" transform="translate(-1270 -267.596)" fill="#003d4f" stroke="#133d4e" stroke-width="0.5"/>
      <path id="Path_16443" data-name="Path 16443" d="M1335.162,186.987a7.393,7.393,0,1,1,7.426-7.322A7.4,7.4,0,0,1,1335.162,186.987Zm6.073-7.331a6.056,6.056,0,1,0-6.1,6.01A6.076,6.076,0,0,0,1341.235,179.657Z" transform="translate(-1319.503 -172.202)" fill="#003d4f" stroke="#133d4e" stroke-width="0.5"/>
      <path id="Path_16444" data-name="Path 16444" d="M1447.435,358.465a9.028,9.028,0,1,1,9.125-8.731A9.016,9.016,0,0,1,1447.435,358.465Zm.145-16.7a7.686,7.686,0,1,0,7.669,7.714A7.675,7.675,0,0,0,1447.579,341.764Z" transform="translate(-1414.407 -316.343)" fill="#003d4f" stroke="#133d4e" stroke-width="0.5"/>
      <path id="Path_16445" data-name="Path 16445" d="M1468.459,401.81c-1.523,0-3.046-.005-4.568,0-.521,0-1.021-.073-1.015-.709s.513-.7,1.029-.7q4.569.007,9.139,0c.5,0,.959.084.973.68.015.642-.46.734-.989.731-1.523-.01-3.046,0-4.569,0Z" transform="translate(-1435.277 -367.748)" fill="#003d4f" stroke="#133d4e" stroke-width="0.5"/>
    </g>
  </g>
  <g id="Erft24" transform="translate(5498.507 295.988)">
    <g id="Group_12421" data-name="Group 12421" transform="translate(-4516.508 76.618)">
      <path id="Path_16446" data-name="Path 16446" d="M-4478.228,267.1c-1.532,1.09-3.031,1.035-4.2-.125a2.717,2.717,0,0,1-.815-2q0-8.293.01-16.585v-2.048l-.124-.046c-.327.432-.652.865-.979,1.3-1.358,1.788-.757,1.491-3.037,1.516-1.041.011-2.084-.024-3.125.009a2.774,2.774,0,0,1-2.638-1.244c-.111.117-.2.2-.283.3a2.5,2.5,0,0,1-1.984.934c-1.614.008-3.227,0-4.84.006a1.151,1.151,0,0,1-1.021-.523c-.551-.772-1.128-1.524-1.695-2.285l-.138.033q0,.891,0,1.781.007,8.318.018,16.636a2.856,2.856,0,0,1-1.613,2.8,2.943,2.943,0,0,1-3.267-.362,1.434,1.434,0,0,0-.151-.09,3.12,3.12,0,0,1-2.221.755,2.892,2.892,0,0,1-2.742-2.988c-.012-2.554-.018-5.109.005-7.663,0-.516-.071-.779-.659-.927a3.551,3.551,0,0,1-2.723-3.36c-.071-1.29-.04-2.587-.047-3.88-.007-1.473-.02-2.947,0-4.42a14.122,14.122,0,0,1,.133-2.656,4.1,4.1,0,0,1,2.594-3.008,6.244,6.244,0,0,1,2.192-.472c2.4-.057,4.805-.022,7.208-.02a3.933,3.933,0,0,1,3.4,1.726c.817,1.15,1.676,2.271,2.5,3.418a.811.811,0,0,0,.79.4c.418-.031.84,0,1.26-.009a3.551,3.551,0,0,1,3.26,1.277,3.291,3.291,0,0,1,3.261-1.252,2.547,2.547,0,0,0,2.814-1.43,30.221,30.221,0,0,1,1.8-2.488,3.769,3.769,0,0,1,3.189-1.637q3.755-.041,7.512,0a4.8,4.8,0,0,1,4.645,3.5,5.167,5.167,0,0,1,.119,1.148q.013,4.525,0,9.05c-.005,2.336-.922,3.541-3.161,4.245a.6.6,0,0,0-.265.477c-.014,2.218,0,4.436,0,6.654,0,.521.027,1.044-.007,1.562a2.945,2.945,0,0,1-4.589,2.255C-4477.969,267.284-4478.089,267.2-4478.228,267.1Zm4.968-12.5a2.313,2.313,0,0,0,.286-.047,2.081,2.081,0,0,0,1.364-2.238c.011-3-.061-6.006.027-9.005a3.033,3.033,0,0,0-3.068-3.044c-2.453,0-4.906,0-7.36,0a2.182,2.182,0,0,0-1.885.971c-.964,1.354-1.973,2.676-2.949,4.022a1.212,1.212,0,0,1-1.107.554c-.823-.025-1.647-.016-2.47,0a3.042,3.042,0,0,0-.79.125.607.607,0,0,0-.457.691.686.686,0,0,0,.578.668,1.981,1.981,0,0,0,.451.025c1.21,0,2.421-.029,3.629.015a1.129,1.129,0,0,0,1.071-.556c.936-1.309,1.9-2.594,2.862-3.889a.781.781,0,0,1,1.022-.277.865.865,0,0,1,.6.886c-.018,1.122,0,2.245,0,3.368q0,8.948,0,17.9c0,.845.429,1.328,1.167,1.331.756,0,1.16-.453,1.161-1.321q0-4.991,0-9.981a3.134,3.134,0,0,1,.018-.5.91.91,0,0,1,.915-.777.9.9,0,0,1,.856.834,4.946,4.946,0,0,1,.009.5v9.578c0,.218-.012.438.009.655a1.084,1.084,0,0,0,1.119,1.01,1.081,1.081,0,0,0,1.152-.971,4.1,4.1,0,0,0,.015-.554q0-8.721,0-17.441a3.663,3.663,0,0,1,.027-.7.809.809,0,0,1,.8-.71.819.819,0,0,1,.912.628,1.748,1.748,0,0,1,.056.5q0,2.745-.015,5.49C-4473.262,253.063-4473.26,253.8-4473.26,254.6Zm-39.827.018v-.71c0-2.35.02-4.7-.013-7.049a1.027,1.027,0,0,1,1.01-1.124c.514.006.8.394.8,1.122,0,.586-.019,1.172-.018,1.758q.007,7.813.018,15.627c0,.269-.012.539.01.806a1.072,1.072,0,0,0,.931,1.034c.794.13,1.355-.386,1.356-1.272q.008-5.092,0-10.183c0-.7.337-1.111.886-1.112s.906.428.908,1.1c0,1.193,0,2.386,0,3.579q0,3.352,0,6.7a1.069,1.069,0,0,0,.886,1.168,1.158,1.158,0,0,0,1.441-1.281q0-7.89,0-15.779c0-.487.01-.973.013-1.46.008-1.394-.015-2.789.05-4.179a1.243,1.243,0,0,1,.57-.789c.326-.212.68-.035.937.256.1.113.188.237.278.358.948,1.281,1.887,2.567,2.85,3.836a.775.775,0,0,0,.529.278c1.377.023,2.755.017,4.133.009.524,0,.816-.246.851-.666.041-.494-.265-.694-.68-.783a2.958,2.958,0,0,0-.6-.06c-.807-.007-1.614-.024-2.42,0a1.249,1.249,0,0,1-1.147-.577c-.953-1.321-1.95-2.611-2.888-3.942a2.277,2.277,0,0,0-2.006-1.033c-2.4.007-4.805-.015-7.208.017a3.869,3.869,0,0,0-1.457.323,2.426,2.426,0,0,0-1.65,2.118c-.061,3.2-.011,6.408,0,9.612a3.376,3.376,0,0,0,.071.7A1.883,1.883,0,0,0-4513.087,254.614Z" transform="translate(4516.508 -222.135)" fill="#003d4f"/>
      <path id="Path_16447" data-name="Path 16447" d="M-4336.29,78.3c-.094.118-.161.214-.24.3-.264.281-.494.713-.81.789-.272.065-.641-.279-.969-.438a4.46,4.46,0,0,0-4.973.411,4.4,4.4,0,0,0-1.453,5.156,4.527,4.527,0,0,0,4.4,2.925,4.517,4.517,0,0,0,4.321-4.04,1.454,1.454,0,0,1,.31-.706c.367-.451.783-.862,1.183-1.294,1.031,1.546-.158,5.04-2.213,6.583a6.292,6.292,0,0,1-8.583-.98,6.206,6.206,0,0,1,.025-8.123A6.175,6.175,0,0,1-4336.29,78.3Z" transform="translate(4363.933 -76.618)" fill="#003d4f"/>
      <path id="Path_16448" data-name="Path 16448" d="M-4487.137,135.772a5.147,5.147,0,0,1,5.192-5.122,5.16,5.16,0,0,1,5.105,5.163,5.15,5.15,0,0,1-5.222,5.145A5.143,5.143,0,0,1-4487.137,135.772Zm8.506.017a3.366,3.366,0,0,0-3.375-3.348,3.363,3.363,0,0,0-3.341,3.379,3.366,3.366,0,0,0,3.372,3.352A3.37,3.37,0,0,0-4478.631,135.789Z" transform="translate(4490.099 -125.201)" fill="#003d4f"/>
      <path id="Path_16449" data-name="Path 16449" d="M-4174.734,135.844a5.138,5.138,0,0,1-5.112,5.1,5.146,5.146,0,0,1-5.183-5.182,5.163,5.163,0,0,1,5.193-5.126A5.146,5.146,0,0,1-4174.734,135.844Zm-1.785-.046a3.37,3.37,0,0,0-3.3-3.374,3.364,3.364,0,0,0-3.419,3.354,3.372,3.372,0,0,0,3.349,3.377A3.369,3.369,0,0,0-4176.519,135.8Z" transform="translate(4218.456 -125.185)" fill="#003d4f"/>
      <path id="Path_16450" data-name="Path 16450" d="M-4307.738,98.313c.742-.791,1.45-1.543,2.156-2.3.789-.844,1.564-1.7,2.367-2.53.31-.32.649-.673,1.179-.471a.906.906,0,0,1,.248,1.561q-2.383,2.557-4.773,5.108c-.24.257-.467.53-.728.766a.869.869,0,0,1-1.41-.207q-.98-1.642-1.926-3.3a.917.917,0,0,1,.252-1.324c.472-.28.931-.122,1.281.452C-4308.649,96.795-4308.212,97.525-4307.738,98.313Z" transform="translate(4331.54 -91.307)" fill="#003d4f"/>
    </g>
  </g>
  <g id="Group_12427" data-name="Group 12427" transform="translate(404 696.652)">
    <rect id="Rectangle_4278-13" data-name="Rectangle 4278" width="174" height="4" transform="translate(0 0.349)" fill="#cc850a"/>
  </g>
  <g id="Group_12426" data-name="Group 12426" transform="translate(591 696.652)">
    <rect id="Rectangle_4278-14" data-name="Rectangle 4278" width="174" height="4" transform="translate(0 0.349)" fill="#cc850a"/>
  </g>
  <g id="Group_12428" data-name="Group 12428" transform="translate(778 696.652)">
    <rect id="Rectangle_4278-15" data-name="Rectangle 4278" width="174" height="4" transform="translate(0 0.349)" fill="#cc850a"/>
  </g>
  <g id="Group_12429" data-name="Group 12429" transform="translate(965 696.652)">
    <rect id="Rectangle_4278-16" data-name="Rectangle 4278" width="174" height="4" transform="translate(0 0.349)" fill="#cc850a"/>
  </g>
</svg>
