<svg xmlns="http://www.w3.org/2000/svg" xmlns:xlink="http://www.w3.org/1999/xlink" width="701" height="703" viewBox="0 0 701 703">
  <defs>
    <clipPath id="clip-_5_Lenses">
      <rect width="701" height="703"/>
    </clipPath>
  </defs>
  <g id="_5_Lenses" data-name="5 Lenses" clip-path="url(#clip-_5_Lenses)">
    <g id="Group_7830" data-name="Group 7830" transform="translate(-1027.198 -237.967)">
      <path id="Path_12312" data-name="Path 12312" d="M344.2,17.912V187.495A179.176,179.176,0,0,0,192.758,297.483L31.428,245.064c47.621-128.612,169-221.45,312.771-227.152" transform="translate(1019.489 223.343)" fill="#5e9fab"/>
      <text id="Revolutionize_the_tech_industry" data-name="Revolutionize the tech industry" transform="translate(1126.803 367.123)" fill="#fff" font-size="18" font-family="Inter-Bold, Inter" font-weight="700"><tspan x="14.324" y="17">Revolutionize</tspan><tspan y="17" font-family="Inter-SemiBold, Inter" font-weight="600"> </tspan><tspan y="17" font-family="Inter-Regular, Inter" font-weight="400">the </tspan><tspan x="34.085" y="38" font-family="Inter-Regular, Inter" font-weight="400">tech industry</tspan></text>
      <path id="Path_12315" data-name="Path 12315" d="M25.682,238.419l161.282,52.4A179.17,179.17,0,0,0,244.773,468.84L145.065,606.076C37.464,521.042-13.324,376.919,25.682,238.419" transform="translate(1016.64 256.729)" fill="#60517a"/>
      <text id="Be_an_awesome_partner_for_clients_and_their_ambitious_missions" data-name="Be an awesome partner for clients and their ambitious missions" transform="matrix(1, 0, 0, 1, 1066.401, 603.846)" fill="#fff" font-size="18" font-family="Inter-Regular, Inter"><tspan x="43.044" y="17">Be an </tspan><tspan x="24.718" y="38" font-family="Inter-Bold, Inter" font-weight="700">awesome </tspan><tspan x="20.029" y="59" font-family="Inter-Bold, Inter" font-weight="700">partner</tspan><tspan y="59" font-family="Inter-SemiBold, Inter" font-weight="600"> </tspan><tspan y="59">for </tspan><tspan x="20.863" y="80">clients and </tspan><tspan x="3.732" y="101">their ambitious </tspan><tspan x="30.17" y="122">missions</tspan></text>
      <path id="Path_12321" data-name="Path 12321" d="M515.949,606.007,416.272,468.812a179.171,179.171,0,0,0,57.867-178l161.33-52.419c37.072,132.04-6.554,278.491-119.521,367.612" transform="translate(1077.757 256.725)" fill="#c28730"/>
      <text id="Achieve_enduring_commercial_success_and_sustained_growth" data-name="Achieve enduring commercial success and sustained
 growth" transform="translate(1558.649 599.897)" fill="#fff" font-size="18" font-family="Inter-Regular, Inter"><tspan x="33.865" y="17">Achieve </tspan><tspan x="30.03" y="38">enduring</tspan><tspan y="38" font-family="Inter-SemiBold, Inter" font-weight="600"> </tspan><tspan x="16.133" y="59" font-family="Inter-Bold, Inter" font-weight="700">commercial </tspan><tspan x="12.71" y="80" font-family="Inter-Bold, Inter" font-weight="700">success</tspan><tspan y="80" font-family="Inter-SemiBold, Inter" font-weight="600"> </tspan><tspan y="80">and </tspan><tspan x="26.373" y="101">sustained</tspan><tspan x="35.169" y="122" xml:space="preserve"> growth</tspan></text>
      <path id="Path_12318" data-name="Path 12318" d="M147.429,590.046l99.678-137.195a179.174,179.174,0,0,0,187.168.031l99.707,137.236c-114.122,76.058-266.885,79.825-386.554-.073" transform="translate(1037.052 289.195)" fill="#769c7b"/>
      <text id="Foster_a_vibrant_community_of_diverse_and_passionate_technologists" data-name="Foster a vibrant community of diverse and passionate technologists" transform="translate(1257.629 814.938)" fill="#fff" font-size="18" font-family="Inter-Regular, Inter"><tspan x="0.142" y="17">Foster a </tspan><tspan y="17" font-family="Inter-Bold, Inter" font-weight="700">vibrant community </tspan><tspan x="10.597" y="38">of diverse and passionate </tspan><tspan x="62.947" y="59">technologists</tspan></text>
      <path id="Path_12309" data-name="Path 12309" d="M640.15,245.1l-161.282,52.4a179.174,179.174,0,0,0-151.4-110.04V17.835C464.5,23.381,590.3,110.127,640.15,245.1" transform="translate(1064.311 223.331)" fill="#e16b7c"/>
      <text id="Amplify_positive_social_change_and_advocate_for_an_equitable_tech_future" data-name="Amplify positive
social change and advocate for an equitable tech future" transform="translate(1435.361 332.762)" fill="#fff" font-size="18" font-family="Inter-Regular, Inter"><tspan x="16.412" y="17">Amplify</tspan><tspan y="17" xml:space="preserve" font-family="Inter-Bold, Inter" font-weight="700"> positive</tspan><tspan font-family="Inter-Bold, Inter" font-weight="700"><tspan x="6.686" y="38">social change </tspan><tspan y="38" font-family="Inter-Regular, Inter" font-weight="400">and </tspan><tspan x="18.981" y="59" font-family="Inter-Regular, Inter" font-weight="400">advocate for an </tspan><tspan x="24.836" y="80" font-family="Inter-Regular, Inter" font-weight="400">equitable tech </tspan><tspan x="60.159" y="101" font-family="Inter-Regular, Inter" font-weight="400">future</tspan></tspan></text>
    </g>
  </g>
</svg>
