<svg xmlns="http://www.w3.org/2000/svg" width="48.004" height="42.09" viewBox="0 0 48.004 42.09">
  <g id="Y9CEKJ" transform="translate(2829.789 1712.062)">
    <g id="Group_12658" data-name="Group 12658" transform="translate(-2829.534 -1711.812)">
      <path id="Path_17048" data-name="Path 17048" d="M-2802.145-1597.62l1.295,2.495c.3.586.614,1.17.91,1.761a.28.28,0,0,0,.293.18c.927-.006,1.855,0,2.783,0,.444,0,.687.193.693.546s-.245.562-.706.562h-9.74q-3.852,0-7.7,0a.627.627,0,0,1-.621-.281.548.548,0,0,1,.527-.827c1.116,0,2.233-.007,3.35.005a.387.387,0,0,0,.408-.254q.87-1.781,1.758-3.553c.1-.2.218-.4.358-.655-.46,0-.867,0-1.273,0-.1,0-.206.011-.309.011h-11.905a1.39,1.39,0,0,1-1.589-1.615c.006-.359,0-.717,0-1.076q0-2.229,0-4.458v-.334h-1.434c-.616,0-.784-.165-.784-.772q0-3.118,0-6.236c0-.6.2-.774.8-.748.42.019.842,0,1.262.012.146,0,.2-.057.193-.2q-.021-1.141-.031-2.281c-.005-.711-.009-1.423,0-2.134a.381.381,0,0,0-.213-.385,16.812,16.812,0,0,1-4.018-3.19,6.964,6.964,0,0,1-1.384-2.215,4.213,4.213,0,0,1,.591-4.192,4.535,4.535,0,0,1,3.732-1.959,2.774,2.774,0,0,1,1.474.384c.784.474,1.567.951,2.332,1.415.66-.408,1.341-.836,2.029-1.252a3.964,3.964,0,0,1,4.61.424,4.018,4.018,0,0,1,.962,5.435c-.323.526-.7,1.02-1.048,1.528-.057.082-.121.16-.205.27h4.71c0-.1.011-.188.012-.279q0-1.739,0-3.479c0-.464.193-.662.653-.662,3.925,0,7.85.011,11.775-.014a2.107,2.107,0,0,1,1.516.569c1.46,1.277,2.958,2.51,4.448,3.753a.584.584,0,0,0,.344.121c.928.009,1.855,0,2.783,0a1.7,1.7,0,0,1,1.54.715,1.347,1.347,0,0,1,.221.693q.017,7.228.006,14.456,0,3.015,0,6.03a1.54,1.54,0,0,1-1.663,1.669c-1.3.008-2.594,0-3.891,0l-9.661,0C-2802-1597.637-2802.055-1597.628-2802.145-1597.62Zm-6.786-5.278h16.924v-16.92h-.334q-2.267,0-4.534,0c-.483,0-.674-.192-.674-.669q0-1.868,0-3.736v-.292h-11.382Zm-1.1-17.188c-.092-.005-.151-.011-.209-.011-1.623,0-3.246.012-4.869-.009a1.231,1.231,0,0,0-1,.408,12.9,12.9,0,0,1-4.488,3.079,1.082,1.082,0,0,1-1-.042c-.285-.161-.589-.289-.908-.443v4.226h4.268c.524,0,.721.19.721.707q0,3.156,0,6.313c0,.551-.187.742-.742.743-1.3,0-2.594,0-3.891-.006h-.339v2.217h12.461Zm-12.481,18.3c0,.923,0,1.806,0,2.69,0,.306.052.361.358.362q2.86.007,5.72.01,3.884,0,7.769-.01c.784,0,1.568,0,2.352,0H-2793q2.241,0,4.482,0a1.262,1.262,0,0,0,.356-.045.4.4,0,0,0,.331-.447c-.017-.773-.005-1.546-.007-2.319,0-.081-.013-.161-.021-.245Zm31.623-18.306v17.193h3.049c0-.553,0-1.083,0-1.615q0-3.684.007-7.367,0-3.812-.007-7.625c0-.389-.125-.571-.507-.58C-2789.184-1620.109-2790.024-1620.095-2790.886-1620.095Zm-31.771-2.938c.369-.778.709-1.49,1.045-2.2a.581.581,0,0,1,.523-.393.573.573,0,0,1,.546.358c.257.476.512.952.781,1.421a.323.323,0,0,0,.229.146q2.512.012,5.024,0a.261.261,0,0,0,.2-.11,3.5,3.5,0,0,0,.257-.615,2.993,2.993,0,0,0-1.438-3.391,2.773,2.773,0,0,0-3-.115,11.01,11.01,0,0,0-2.2,1.511.545.545,0,0,1-.788.014,11.99,11.99,0,0,0-2.6-1.7,2.029,2.029,0,0,0-.764-.194,2.92,2.92,0,0,0-1.819.5,3.618,3.618,0,0,0-1.681,2.245,7.962,7.962,0,0,0-.114,1.038h.423c1.4,0,2.8.005,4.2,0a.647.647,0,0,1,.664.42C-2823.014-1623.766-2822.846-1623.431-2822.657-1623.033Zm-5.412-.37a.343.343,0,0,0,.013.088c.057.115.114.231.177.342a8.733,8.733,0,0,0,1.917,2.237,22.232,22.232,0,0,0,4.452,2.9.981.981,0,0,0,.979,0,13.932,13.932,0,0,0,4.768-3.885c.219-.269.424-.549.673-.872h-.318c-1.494,0-2.987,0-4.481,0a.666.666,0,0,1-.675-.408c-.137-.284-.3-.556-.469-.862-.053.1-.093.174-.129.248-.326.68-.656,1.359-.975,2.042a.546.546,0,0,1-.516.36.551.551,0,0,1-.518-.356c-.246-.537-.52-1.062-.765-1.6a.376.376,0,0,0-.4-.26c-1.176.012-2.351.006-3.527.007C-2827.93-1623.415-2828-1623.407-2828.069-1623.4Zm9.426,17.168v-5.532h-6.072v5.532Zm17.531,13.037c-.021-.056-.031-.088-.045-.117-.722-1.394-1.442-2.789-2.174-4.178a.341.341,0,0,0-.257-.135c-1.177-.014-2.353-.015-3.529-.022a.328.328,0,0,0-.335.212c-.481.987-.971,1.97-1.459,2.954-.208.42-.418.84-.64,1.286Zm4.685-27.736h3.526l-3.526-2.951Z" transform="translate(2829.534 1633.67)" fill="#939393" stroke="#939393" stroke-width="0.5"/>
      <path id="Path_17049" data-name="Path 17049" d="M-2106.782-1711.812h4.586c.463,0,.649.169.65.625q.007,3.053,0,6.105,0,1.172,0,2.343a.543.543,0,0,1-.614.618h-9.248c-.456,0-.657-.2-.658-.659q0-2.525,0-5.049,0-1.659,0-3.318c0-.484.18-.665.67-.665Q-2109.086-1711.814-2106.782-1711.812Zm4.139,1.1h-8.318v7.464h8.318Z" transform="translate(2149.041 1711.812)" fill="#939393" stroke="#939393" stroke-width="0.5"/>
      <path id="Path_17050" data-name="Path 17050" d="M-2402.546-1504.676v2.164a.525.525,0,0,1-.556.6c-.9.008-1.8-.005-2.7-.005-.506,0-1.012.009-1.519.012-.578,0-.754-.174-.754-.751q0-2.048,0-4.1c0-.487.205-.693.683-.693h4.148c.531,0,.7.175.7.714q0,1.03,0,2.061Zm-1.1-1.655h-3.316v3.3h3.316Z" transform="translate(2429.801 1517.983)" fill="#939393" stroke="#939393" stroke-width="0.5"/>
      <path id="Path_17051" data-name="Path 17051" d="M-2385.138-1318.264q-3.078,0-6.156,0c-.507,0-.8-.417-.548-.821a.828.828,0,0,1,.429-.274,1.39,1.39,0,0,1,.435-.012h11.052q.525,0,1.05,0a.505.505,0,0,1,.5.463.5.5,0,0,1-.323.6,1.268,1.268,0,0,1-.38.046Q-2382.111-1318.262-2385.138-1318.264Z" transform="translate(2414.487 1339.609)" fill="#939393" stroke="#939393" stroke-width="0.5"/>
      <path id="Path_17052" data-name="Path 17052" d="M-2385.363-1362.291q2.911,0,5.822,0c.239,0,.479.021.717.04a.5.5,0,0,1,.471.4.565.565,0,0,1-.305.575,1.157,1.157,0,0,1-.421.089q-6.051.007-12.1,0a1.7,1.7,0,0,1-.257-.01.552.552,0,0,1-.488-.569.554.554,0,0,1,.534-.527c.2-.012.395,0,.592,0h5.436Z" transform="translate(2414.48 1380.307)" fill="#939393" stroke="#939393" stroke-width="0.5"/>
      <path id="Path_17053" data-name="Path 17053" d="M-2388.522-1226.594q-1.339,0-2.678,0c-.4,0-.648-.208-.645-.536s.232-.552.634-.553c1.339-.005,2.677,0,4.016,0,.463,0,.927,0,1.39,0a.541.541,0,0,1,.6.557c0,.333-.233.533-.616.534h-2.7Z" transform="translate(2414.403 1252.639)" fill="#939393" stroke="#939393" stroke-width="0.5"/>
      <path id="Path_17054" data-name="Path 17054" d="M-2388.617-1269.617h-2.7a.551.551,0,0,1-.613-.546.551.551,0,0,1,.592-.546q2.73,0,5.46,0a.53.53,0,0,1,.589.459.533.533,0,0,1-.365.605.789.789,0,0,1-.228.027q-1.365,0-2.73,0Z" transform="translate(2414.488 1293.445)" fill="#939393" stroke="#939393" stroke-width="0.5"/>
    </g>
  </g>
</svg>
