<svg xmlns="http://www.w3.org/2000/svg" width="42.69" height="30.762" viewBox="0 0 42.69 30.762">
  <g id="UL2X8b" transform="translate(-23.135 1774.063)">
    <g id="Group_12657" data-name="Group 12657" transform="translate(23.135 -1774.063)">
      <path id="Path_17037" data-name="Path 17037" d="M62.858-1771.843h.94a1.993,1.993,0,0,1,2.017,2.019q0,6.943,0,13.886c0,3.5-.017,7,.01,10.507a2.071,2.071,0,0,1-2.135,2.131c-1.372-.014-2.745,0-4.118,0H27.328c-.7,0-1.4,0-2.1,0a2,2,0,0,1-1.9-1.154,1.816,1.816,0,0,1-.191-.828q0-6,0-12,0-6.276,0-12.551a1.994,1.994,0,0,1,2.007-2h.974c0-.093,0-.179,0-.265,0-.341,0-.682,0-1.022a.846.846,0,0,1,.925-.931q1.793,0,3.586,0c2.88,0,5.76,0,8.639,0a10.729,10.729,0,0,1,1.726.091,4.436,4.436,0,0,1,3,1.927c.174.25.319.52.479.785.094-.17.183-.35.289-.521a4.632,4.632,0,0,1,3.523-2.254,4.968,4.968,0,0,1,.621-.031q4.1,0,8.21,0H61.96a.844.844,0,0,1,.9.9C62.857-1772.731,62.858-1772.3,62.858-1771.843Zm-35.082,22.98c.039,0,.063.008.087.008l3.956,0q4.075,0,8.149,0a6.383,6.383,0,0,1,.753.042,4.574,4.574,0,0,1,2.834,1.429,4.882,4.882,0,0,1,.9,1.35c.014-.01.025-.014.029-.022.019-.034.037-.069.055-.1a4.669,4.669,0,0,1,3.081-2.547,6.609,6.609,0,0,1,1.764-.147c1.773,0,3.546,0,5.319,0h6.491v-23.536H52.675c-1.279,0-2.559-.011-3.838,0a2.984,2.984,0,0,0-2.782,1.711c-.235.45-.459.907-.678,1.365a.776.776,0,0,0-.075.323q-.006,3.808,0,7.616,0,2.156,0,4.312c0,1.368,0,2.736-.005,4.1a.825.825,0,0,1-1.049.8.844.844,0,0,1-.614-.886q0-4.006,0-8.012t.011-7.984a.458.458,0,0,0-.042-.2q-.372-.748-.753-1.492a2.994,2.994,0,0,0-.831-1.01,3.04,3.04,0,0,0-1.926-.65H27.776Zm15.352,3.891c-.134-.26-.241-.505-.38-.73a2.95,2.95,0,0,0-2.6-1.485c-.869-.011-1.738,0-2.607,0H27.02a.839.839,0,0,1-.908-.9q0-1.637,0-3.273,0-4.769,0-9.539,0-2.089,0-4.178,0-2.481,0-4.963c0-.043,0-.085-.008-.138h-.869c-.32,0-.44.119-.44.433q0,1.251,0,2.5,0,4.245,0,8.489,0,4.644,0,9.289,0,2.022,0,4.045c0,.338.115.453.453.453H43.129Zm2.693,0H61.938c.6,0,1.2,0,1.793,0,.317,0,.425-.118.425-.433q0-4.489,0-8.979,0-7.66,0-15.321c0-.054,0-.109,0-.163a.329.329,0,0,0-.291-.308c-.329-.01-.659,0-1.006,0v.215q0,4.193,0,8.386,0,4.393,0,8.786,0,2.37,0,4.741a.81.81,0,0,1-.739.85,2.916,2.916,0,0,1-.384.009l-6.415,0q-3.222,0-6.445,0a3.384,3.384,0,0,0-.647.052A3.174,3.174,0,0,0,45.822-1744.972Z" transform="translate(-23.135 1774.063)" fill="#939393"/>
      <path id="Path_17038" data-name="Path 17038" d="M901.783-1643.42c1.437,0,2.874,0,4.311,0a.829.829,0,0,1,.805.449.828.828,0,0,1-.728,1.216c-.815.005-1.63,0-2.444,0h-3.778c-.844,0-1.688,0-2.532,0a.822.822,0,0,1-.792-.578.791.791,0,0,1,.3-.917.946.946,0,0,1,.478-.16c1.155-.012,2.311,0,3.466,0h.917Z" transform="translate(-870.694 1647.293)" fill="#939393"/>
      <path id="Path_17039" data-name="Path 17039" d="M901.708-1107.391q-2.163,0-4.325,0a.836.836,0,0,1-.843-.611.807.807,0,0,1,.379-.928,1.032,1.032,0,0,1,.463-.122q4.34-.01,8.679,0a.839.839,0,0,1,.867.841.834.834,0,0,1-.866.824q-2.177,0-4.355,0Z" transform="translate(-870.624 1128.768)" fill="#939393"/>
      <path id="Path_17040" data-name="Path 17040" d="M244.359-1374.507H240a.82.82,0,0,1-.847-.82.824.824,0,0,1,.845-.839h8.724a.817.817,0,0,1,.837.83.815.815,0,0,1-.835.829Z" transform="translate(-232.755 1387.96)" fill="#939393"/>
      <path id="Path_17041" data-name="Path 17041" d="M901.818-1242.565c1.452,0,2.9,0,4.355,0a.823.823,0,0,1,.723,1.25.844.844,0,0,1-.784.414q-1.726,0-3.451,0h-5.139a.859.859,0,0,1-.878-.568.841.841,0,0,1,.835-1.1c1.328.015,2.656,0,3.984,0Z" transform="translate(-870.711 1258.323)" fill="#939393"/>
      <path id="Path_17042" data-name="Path 17042" d="M244.118-1508.162q-2.14,0-4.28,0a.862.862,0,0,1-.695-.265.794.794,0,0,1-.152-.893.779.779,0,0,1,.755-.5q2.932-.007,5.865,0h2.843a.831.831,0,0,1,.853.618.824.824,0,0,1-.7,1.035c-.1.01-.207.008-.311.008Z" transform="translate(-232.52 1517.655)" fill="#939393"/>
      <path id="Path_17043" data-name="Path 17043" d="M244.153-1643.416h4.279a.842.842,0,0,1,.884.575.829.829,0,0,1-.792,1.089c-1.575,0-3.15,0-4.725-.005-1.283,0-2.567,0-3.85.01a.941.941,0,0,1-.821-.317.791.791,0,0,1-.115-.848.753.753,0,0,1,.711-.5c1.229-.01,2.459-.006,3.688-.008Z" transform="translate(-232.543 1647.288)" fill="#939393"/>
      <path id="Path_17044" data-name="Path 17044" d="M244.132-1107.407q-2.14,0-4.28,0a.866.866,0,0,1-.683-.256.792.792,0,0,1-.168-.89.8.8,0,0,1,.79-.519c1.5,0,3,0,4.5,0l4.147,0a.843.843,0,0,1,.88.623.824.824,0,0,1-.729,1.038c-.1.006-.2.006-.3.006h-4.162Z" transform="translate(-232.534 1128.783)" fill="#939393"/>
      <path id="Path_17045" data-name="Path 17045" d="M901.683-1374.507h-4.355a.833.833,0,0,1-.848-.824.834.834,0,0,1,.839-.835h8.739a.831.831,0,0,1,.841.833.832.832,0,0,1-.847.826Z" transform="translate(-870.595 1387.961)" fill="#939393"/>
      <path id="Path_17046" data-name="Path 17046" d="M244.308-1242.482h4.28a.835.835,0,0,1,.893.639.826.826,0,0,1-.646,1,1.6,1.6,0,0,1-.279.024l-8.53,0a.845.845,0,0,1-.914-.656.813.813,0,0,1,.767-1.006c.632-.011,1.264,0,1.9,0h2.533Z" transform="translate(-232.689 1258.239)" fill="#939393"/>
      <path id="Path_17047" data-name="Path 17047" d="M901.777-1508.148h-4.31a.817.817,0,0,1-.871-.748.824.824,0,0,1,.712-.9,2.594,2.594,0,0,1,.3-.011q4.154,0,8.308,0a1.983,1.983,0,0,1,.511.046.809.809,0,0,1,.576.875.815.815,0,0,1-.765.734c-.241.012-.484,0-.726,0Z" transform="translate(-870.703 1517.641)" fill="#939393"/>
    </g>
  </g>
</svg>
