<svg xmlns="http://www.w3.org/2000/svg" width="16.478" height="15.919" viewBox="0 0 16.478 15.919">
  <g id="lBi1vb" transform="translate(0.278 0.25)">
    <g id="Group_12578" data-name="Group 12578" transform="translate(0 0)">
      <path id="Path_16815" data-name="Path 16815" d="M4594.145,1785.786a4.643,4.643,0,1,1,4.633-4.645A4.635,4.635,0,0,1,4594.145,1785.786Zm0-8.248a3.605,3.605,0,1,0,3.6,3.627A3.618,3.618,0,0,0,4594.145,1777.537Z" transform="translate(-4586.152 -1776.5)" fill="#f2617a" stroke="#f1617a" stroke-width="0.5"/>
      <path id="Path_16816" data-name="Path 16816" d="M4505.346,2042.145H4504.3c.031-.295.047-.578.1-.857a5.543,5.543,0,0,1,5.434-4.5q2.434.036,4.874,0a5.544,5.544,0,0,1,5.467,4.7c.03.212.035.429.055.656H4519.2c-.033-.248-.057-.5-.1-.75a4.448,4.448,0,0,0-4.323-3.568c-1.678-.008-3.352-.008-5.03,0a4.411,4.411,0,0,0-4.389,4.193A1.092,1.092,0,0,1,4505.346,2042.145Z" transform="translate(-4504.3 -2026.726)" fill="#f2617a" stroke="#f1617a" stroke-width="0.5"/>
    </g>
  </g>
</svg>
