<svg xmlns="http://www.w3.org/2000/svg" width="51.43" height="51.406" viewBox="0 0 51.43 51.406">
  <path id="Path_14409" data-name="Path 14409" d="M209.753,203.93a10.8,10.8,0,1,1-10.8-10.8,10.8,10.8,0,0,1,10.8,10.8" transform="translate(-173.233 -178.234)" fill="#edf1f3"/>
  <path id="Path_14410" data-name="Path 14410" d="M54.509,17.912V30.427a13.222,13.222,0,0,0-11.176,8.117L31.428,34.675A25.724,25.724,0,0,1,54.509,17.912" transform="translate(-29.829 -17.905)" fill="#eef1f3"/>
  <path id="Path_14411" data-name="Path 14411" d="M13.579,238.419l11.9,3.867a13.222,13.222,0,0,0,4.266,13.137l-7.358,10.127a25.724,25.724,0,0,1-8.81-27.132" transform="translate(-12.614 -219.676)" fill="#634f7d"/>
  <path id="Path_14412" data-name="Path 14412" d="M147.429,462.975l7.356-10.124a13.223,13.223,0,0,0,13.812,0l7.358,10.127a25.724,25.724,0,0,1-28.526-.005" transform="translate(-135.973 -415.888)" fill="#edf1f3"/>
  <path id="Path_14413" data-name="Path 14413" d="M350.54,34.607l-11.9,3.867a13.222,13.222,0,0,0-11.173-8.121V17.835A25.724,25.724,0,0,1,350.54,34.607" transform="translate(-300.711 -17.835)" fill="#edf1f3"/>
  <path id="Path_14414" data-name="Path 14414" d="M423.628,265.523,416.272,255.4a13.222,13.222,0,0,0,4.27-13.136l11.906-3.868a25.724,25.724,0,0,1-8.82,27.128" transform="translate(-381.971 -219.654)" fill="#edf1f3"/>
  <g id="Group_11922" data-name="Group 11922" transform="translate(23.506 28.783) rotate(180)">
    <g id="Group_9" data-name="Group 9" transform="translate(-5 -2)">
      <path id="Path_174" data-name="Path 174" d="M4.779,14.257a.279.279,0,0,1-.2-.476l4.4-4.4-4.4-4.4a.279.279,0,0,1,.394-.394l4.6,4.6a.279.279,0,0,1,0,.394l-4.6,4.6a.278.278,0,0,1-.2.082" transform="translate(-4.291 -4.291)" fill="#003d4f"/>
      <path id="Path_175" data-name="Path 175" d="M.488,10.176a.488.488,0,0,1-.345-.833L4.4,5.088.143.834a.488.488,0,0,1,0-.69.488.488,0,0,1,.69,0l4.6,4.6a.488.488,0,0,1,0,.69l-4.6,4.6a.484.484,0,0,1-.345.143m0-9.757A.07.07,0,0,0,.439.538l4.55,4.55L.439,9.639a.07.07,0,1,0,.1.1l4.6-4.6a.07.07,0,0,0,0-.1L.537.439A.07.07,0,0,0,.488.419" transform="translate(0 -0.001)" fill="#003d4f"/>
    </g>
  </g>
</svg>
