<svg xmlns="http://www.w3.org/2000/svg" xmlns:xlink="http://www.w3.org/1999/xlink" width="109" height="109" viewBox="0 0 109 109">
  <defs>
    <clipPath id="clip-path">
      <circle id="Ellipse_129" data-name="Ellipse 129" cx="54.5" cy="54.5" r="54.5" transform="translate(232 158)" fill="#fff"/>
    </clipPath>
    <clipPath id="clip-path-2">
      <rect id="Rectangle_2759" data-name="Rectangle 2759" width="59.173" height="103.997" transform="translate(0 0)" fill="none"/>
    </clipPath>
  </defs>
  <g id="Group_41" data-name="Group 41" transform="translate(-232 -158)" clip-path="url(#clip-path)">
    <path id="Path_14837" data-name="Path 14837" d="M54.5,0A54.5,54.5,0,1,1,0,54.5,54.5,54.5,0,0,1,54.5,0Z" transform="translate(232 158)" fill="#634f7d"/>
    <g id="Group_12058" data-name="Group 12058" transform="translate(-343.174 -385.327)">
      <g id="Group_7667" data-name="Group 7667" transform="translate(575.174 570.494) rotate(-31)">
        <g id="Mask_Group_87" data-name="Mask Group 87" transform="translate(0 0)" clip-path="url(#clip-path-2)">
          <path id="Path_12524" data-name="Path 12524" d="M5.527,11.054A5.527,5.527,0,1,0,0,5.527a5.533,5.533,0,0,0,5.527,5.527m0-10.779A5.251,5.251,0,1,1,.277,5.527,5.257,5.257,0,0,1,5.527.275" transform="translate(48.119 2.571)" fill="#e16b7c"/>
          <path id="Path_12525" data-name="Path 12525" d="M4.866,9.731A4.865,4.865,0,1,0,0,4.865,4.87,4.87,0,0,0,4.866,9.731m0-9.454A4.589,4.589,0,1,1,.276,4.865,4.594,4.594,0,0,1,4.866.277" transform="translate(48.78 3.233)" fill="#e16b7c"/>
          <path id="Path_12526" data-name="Path 12526" d="M4.2,8.409A4.2,4.2,0,1,0,0,4.2a4.209,4.209,0,0,0,4.2,4.2M4.2.276A3.928,3.928,0,1,1,.277,4.2,3.933,3.933,0,0,1,4.2.276" transform="translate(49.441 3.894)" fill="#e16b7c"/>
          <path id="Path_12527" data-name="Path 12527" d="M3.543,7.085A3.542,3.542,0,1,0,0,3.543,3.546,3.546,0,0,0,3.543,7.085m0-6.808A3.266,3.266,0,1,1,.276,3.543,3.269,3.269,0,0,1,3.543.276" transform="translate(50.103 4.556)" fill="#e16b7c"/>
          <path id="Path_12528" data-name="Path 12528" d="M2.882,5.761A2.881,2.881,0,1,0,0,2.881a2.883,2.883,0,0,0,2.882,2.88m0-5.485a2.6,2.6,0,1,1-2.6,2.6,2.606,2.606,0,0,1,2.6-2.6" transform="translate(50.764 5.217)" fill="#e16b7c"/>
          <path id="Path_12529" data-name="Path 12529" d="M2.22,4.438A2.219,2.219,0,1,0,0,2.219,2.221,2.221,0,0,0,2.22,4.438m0-4.162A1.943,1.943,0,1,1,.277,2.219,1.945,1.945,0,0,1,2.22.276" transform="translate(51.426 5.879)" fill="#e16b7c"/>
          <path id="Path_12530" data-name="Path 12530" d="M1.558,3.115A1.558,1.558,0,1,0,0,1.558,1.56,1.56,0,0,0,1.558,3.115m0-2.839A1.281,1.281,0,1,1,.277,1.558,1.282,1.282,0,0,1,1.558.277" transform="translate(52.088 6.54)" fill="#fff"/>
          <path id="Path_12531" data-name="Path 12531" d="M.9,1.792A.9.9,0,1,0,0,.9a.9.9,0,0,0,.9.9M.9.276A.62.62,0,1,1,.275.9.62.62,0,0,1,.9.276" transform="translate(52.75 7.202)" fill="#e16b7c"/>
          <path id="Path_12532" data-name="Path 12532" d="M.234.469A.234.234,0,1,0,0,.234.234.234,0,0,0,.234.469m0-.277A.042.042,0,0,1,.277.234.041.041,0,0,1,.234.276.041.041,0,0,1,.191.234.043.043,0,0,1,.234.192" transform="translate(53.412 7.864)" fill="#e16b7c"/>
          <path id="Path_12533" data-name="Path 12533" d="M5.528,11.055A5.527,5.527,0,1,0,0,5.528a5.533,5.533,0,0,0,5.528,5.527m0-10.778A5.251,5.251,0,1,1,.277,5.528,5.256,5.256,0,0,1,5.528.277" transform="translate(48.119 0)" fill="#5e9fab"/>
          <path id="Path_12534" data-name="Path 12534" d="M4.866,9.731A4.865,4.865,0,1,0,0,4.865,4.87,4.87,0,0,0,4.866,9.731m0-9.455a4.589,4.589,0,1,1-4.59,4.59A4.6,4.6,0,0,1,4.866.275" transform="translate(48.78 0.662)" fill="#5e9fab"/>
          <path id="Path_12535" data-name="Path 12535" d="M4.2,8.408A4.2,4.2,0,1,0,0,4.2a4.209,4.209,0,0,0,4.2,4.2M4.2.276A3.928,3.928,0,1,1,.277,4.2,3.932,3.932,0,0,1,4.2.276" transform="translate(49.442 1.324)" fill="#5e9fab"/>
          <path id="Path_12536" data-name="Path 12536" d="M3.543,7.085A3.542,3.542,0,1,0,0,3.542,3.547,3.547,0,0,0,3.543,7.085m0-6.809A3.266,3.266,0,1,1,.276,3.542,3.269,3.269,0,0,1,3.543.276" transform="translate(50.103 1.985)" fill="#5e9fab"/>
          <path id="Path_12537" data-name="Path 12537" d="M2.882,5.761A2.88,2.88,0,1,0,0,2.88,2.883,2.883,0,0,0,2.882,5.761m0-5.484a2.6,2.6,0,1,1-2.6,2.6,2.606,2.606,0,0,1,2.6-2.6" transform="translate(50.765 2.648)" fill="#5e9fab"/>
          <path id="Path_12538" data-name="Path 12538" d="M2.22,4.438A2.219,2.219,0,1,0,0,2.219,2.222,2.222,0,0,0,2.22,4.438m0-4.162A1.943,1.943,0,1,1,.277,2.219,1.945,1.945,0,0,1,2.22.276" transform="translate(51.427 3.309)" fill="#5e9fab"/>
          <path id="Path_12539" data-name="Path 12539" d="M1.558,3.116A1.558,1.558,0,1,0,0,1.557,1.56,1.56,0,0,0,1.558,3.116m0-2.839A1.281,1.281,0,1,1,.277,1.557,1.282,1.282,0,0,1,1.558.277" transform="translate(52.088 3.97)" fill="#fff"/>
          <path id="Path_12540" data-name="Path 12540" d="M.9,1.793A.9.9,0,1,0,0,.9a.9.9,0,0,0,.9.9M.9.276A.62.62,0,1,1,.276.9.62.62,0,0,1,.9.276" transform="translate(52.751 4.631)" fill="#5e9fab"/>
          <path id="Path_12541" data-name="Path 12541" d="M.235.468A.234.234,0,1,0,0,.234.235.235,0,0,0,.235.468m0-.275A.042.042,0,0,1,.278.234.043.043,0,0,1,.235.277.043.043,0,0,1,.192.234.041.041,0,0,1,.235.193" transform="translate(53.412 5.293)" fill="#5e9fab"/>
          <path id="Path_12542" data-name="Path 12542" d="M5.527,11.054A5.527,5.527,0,1,0,0,5.527a5.533,5.533,0,0,0,5.527,5.527m0-10.779A5.251,5.251,0,1,1,.277,5.527,5.257,5.257,0,0,1,5.527.275" transform="translate(0 92.943)" fill="#e16b7c"/>
          <path id="Path_12543" data-name="Path 12543" d="M4.866,9.731A4.865,4.865,0,1,0,0,4.865,4.87,4.87,0,0,0,4.866,9.731m0-9.454A4.589,4.589,0,1,1,.276,4.865,4.594,4.594,0,0,1,4.866.277" transform="translate(0.661 93.604)" fill="#e16b7c"/>
          <path id="Path_12544" data-name="Path 12544" d="M4.2,8.409A4.2,4.2,0,1,0,0,4.2a4.209,4.209,0,0,0,4.2,4.2M4.2.276A3.928,3.928,0,1,1,.277,4.2,3.933,3.933,0,0,1,4.2.276" transform="translate(1.322 94.265)" fill="#e16b7c"/>
          <path id="Path_12545" data-name="Path 12545" d="M3.543,7.085A3.542,3.542,0,1,0,0,3.543,3.546,3.546,0,0,0,3.543,7.085m0-6.808A3.266,3.266,0,1,1,.276,3.543,3.269,3.269,0,0,1,3.543.276" transform="translate(1.984 94.927)" fill="#e16b7c"/>
          <path id="Path_12546" data-name="Path 12546" d="M2.882,5.761A2.881,2.881,0,1,0,0,2.881a2.883,2.883,0,0,0,2.882,2.88m0-5.485a2.6,2.6,0,1,1-2.6,2.6,2.606,2.606,0,0,1,2.6-2.6" transform="translate(2.646 95.589)" fill="#e16b7c"/>
          <path id="Path_12547" data-name="Path 12547" d="M2.22,4.438A2.219,2.219,0,1,0,0,2.219,2.221,2.221,0,0,0,2.22,4.438m0-4.162A1.943,1.943,0,1,1,.276,2.219,1.945,1.945,0,0,1,2.22.276" transform="translate(3.307 96.251)" fill="#e16b7c"/>
          <path id="Path_12548" data-name="Path 12548" d="M1.558,3.115A1.558,1.558,0,1,0,0,1.558,1.56,1.56,0,0,0,1.558,3.115m0-2.839A1.281,1.281,0,1,1,.277,1.558,1.282,1.282,0,0,1,1.558.277" transform="translate(3.969 96.912)" fill="#eef1f3"/>
          <path id="Path_12549" data-name="Path 12549" d="M.9,1.792A.9.9,0,1,0,0,.9a.9.9,0,0,0,.9.9M.9.276A.62.62,0,1,1,.275.9.62.62,0,0,1,.9.276" transform="translate(4.632 97.574)" fill="#e16b7c"/>
          <path id="Path_12550" data-name="Path 12550" d="M.234.469A.234.234,0,1,0,0,.234.235.235,0,0,0,.234.469m0-.277A.042.042,0,0,1,.277.234.041.041,0,0,1,.234.276.041.041,0,0,1,.192.234.043.043,0,0,1,.234.192" transform="translate(5.293 98.236)" fill="#e16b7c"/>
          <path id="Path_12551" data-name="Path 12551" d="M5.528,11.055A5.527,5.527,0,1,0,0,5.528a5.533,5.533,0,0,0,5.528,5.527m0-10.778A5.251,5.251,0,1,1,.277,5.528,5.256,5.256,0,0,1,5.528.277" transform="translate(0 90.372)" fill="#5e9fab"/>
          <path id="Path_12552" data-name="Path 12552" d="M4.866,9.731A4.865,4.865,0,1,0,0,4.865,4.871,4.871,0,0,0,4.866,9.731m0-9.455a4.589,4.589,0,1,1-4.59,4.59A4.6,4.6,0,0,1,4.866.276" transform="translate(0.662 91.034)" fill="#5e9fab"/>
          <path id="Path_12553" data-name="Path 12553" d="M4.2,8.408A4.2,4.2,0,1,0,0,4.2a4.209,4.209,0,0,0,4.2,4.2M4.2.276A3.928,3.928,0,1,1,.277,4.2,3.932,3.932,0,0,1,4.2.276" transform="translate(1.323 91.695)" fill="#5e9fab"/>
          <path id="Path_12554" data-name="Path 12554" d="M3.543,7.085A3.542,3.542,0,1,0,0,3.542,3.547,3.547,0,0,0,3.543,7.085m0-6.809A3.266,3.266,0,1,1,.276,3.542,3.269,3.269,0,0,1,3.543.276" transform="translate(1.985 92.357)" fill="#5e9fab"/>
          <path id="Path_12555" data-name="Path 12555" d="M2.882,5.761A2.88,2.88,0,1,0,0,2.88,2.883,2.883,0,0,0,2.882,5.761m0-5.484a2.6,2.6,0,1,1-2.6,2.6,2.606,2.606,0,0,1,2.6-2.6" transform="translate(2.646 93.019)" fill="#5e9fab"/>
          <path id="Path_12556" data-name="Path 12556" d="M2.22,4.438A2.219,2.219,0,1,0,0,2.219,2.222,2.222,0,0,0,2.22,4.438m0-4.162A1.943,1.943,0,1,1,.276,2.219,1.945,1.945,0,0,1,2.22.276" transform="translate(3.308 93.68)" fill="#5e9fab"/>
          <path id="Path_12557" data-name="Path 12557" d="M1.558,3.115A1.558,1.558,0,1,0,0,1.557,1.56,1.56,0,0,0,1.558,3.115m0-2.839A1.281,1.281,0,1,1,.277,1.557,1.282,1.282,0,0,1,1.558.277" transform="translate(3.97 94.342)" fill="#eef1f3"/>
          <path id="Path_12558" data-name="Path 12558" d="M.9,1.793A.9.9,0,1,0,0,.9a.9.9,0,0,0,.9.9M.9.276A.62.62,0,1,1,.275.9.62.62,0,0,1,.9.276" transform="translate(4.632 95.003)" fill="#5e9fab"/>
          <path id="Path_12559" data-name="Path 12559" d="M.235.468A.234.234,0,1,0,0,.234.235.235,0,0,0,.235.468m0-.275A.042.042,0,0,1,.278.234.043.043,0,0,1,.235.277.043.043,0,0,1,.192.234.041.041,0,0,1,.235.193" transform="translate(5.293 95.665)" fill="#5e9fab"/>
          <path id="Path_12560" data-name="Path 12560" d="M24.783,49.565A24.782,24.782,0,1,0,0,24.782,24.809,24.809,0,0,0,24.783,49.565m0-48.331A23.546,23.546,0,1,1,1.241,24.782,23.569,23.569,0,0,1,24.783,1.234" transform="translate(7.818 35.482)" fill="#e16b7c"/>
          <path id="Path_12561" data-name="Path 12561" d="M21.818,43.63A21.815,21.815,0,1,0,0,21.815,21.837,21.837,0,0,0,21.818,43.63m0-42.39A20.576,20.576,0,1,1,1.237,21.815,20.6,20.6,0,0,1,21.818,1.24" transform="translate(10.783 38.449)" fill="#e16b7c"/>
          <path id="Path_12562" data-name="Path 12562" d="M18.854,37.7A18.851,18.851,0,1,0,0,18.852,18.872,18.872,0,0,0,18.854,37.7m0-36.463A17.613,17.613,0,1,1,1.241,18.852,17.635,17.635,0,0,1,18.854,1.239" transform="translate(13.747 41.411)" fill="#e16b7c"/>
          <path id="Path_12563" data-name="Path 12563" d="M15.887,31.765A15.883,15.883,0,1,0,0,15.884,15.9,15.9,0,0,0,15.887,31.765m0-30.526A14.644,14.644,0,1,1,1.239,15.884,14.659,14.659,0,0,1,15.887,1.239" transform="translate(16.714 44.38)" fill="#e16b7c"/>
          <path id="Path_12564" data-name="Path 12564" d="M12.92,25.831A12.915,12.915,0,1,0,0,12.917,12.927,12.927,0,0,0,12.92,25.831m0-24.592A11.677,11.677,0,1,1,1.241,12.917,11.685,11.685,0,0,1,12.92,1.239" transform="translate(19.681 47.347)" fill="#e16b7c"/>
          <path id="Path_12565" data-name="Path 12565" d="M9.953,19.9A9.95,9.95,0,1,0,0,9.95,9.957,9.957,0,0,0,9.953,19.9m0-18.66A8.711,8.711,0,1,1,1.239,9.95,8.721,8.721,0,0,1,9.953,1.239" transform="translate(22.648 50.313)" fill="#e16b7c"/>
          <path id="Path_12566" data-name="Path 12566" d="M6.987,13.969A6.984,6.984,0,1,0,0,6.985a7,7,0,0,0,6.987,6.984m0-12.728A5.744,5.744,0,1,1,1.241,6.985,5.749,5.749,0,0,1,6.987,1.241" transform="translate(25.614 53.278)" fill="#e16b7c"/>
          <path id="Path_12567" data-name="Path 12567" d="M4.016,8.035A4.018,4.018,0,1,0,0,4.019,4.019,4.019,0,0,0,4.016,8.035m0-6.8A2.779,2.779,0,1,1,1.233,4.019,2.781,2.781,0,0,1,4.016,1.239" transform="translate(28.585 56.245)" fill="#e16b7c"/>
          <path id="Path_12568" data-name="Path 12568" d="M1.051,2.1A1.05,1.05,0,1,0,0,1.051,1.052,1.052,0,0,0,1.051,2.1m0-1.24a.19.19,0,0,1,.19.19.184.184,0,0,1-.19.185.186.186,0,0,1-.192-.185.192.192,0,0,1,.192-.19" transform="translate(31.55 59.213)" fill="#e16b7c"/>
          <path id="Path_12569" data-name="Path 12569" d="M24.785,49.567A24.784,24.784,0,1,0,0,24.784,24.809,24.809,0,0,0,24.785,49.567m0-48.325A23.543,23.543,0,1,1,1.241,24.784,23.566,23.566,0,0,1,24.785,1.242" transform="translate(7.818 23.953)" fill="#5e9fab"/>
          <path id="Path_12570" data-name="Path 12570" d="M21.818,43.63A21.815,21.815,0,1,0,0,21.814,21.838,21.838,0,0,0,21.818,43.63m0-42.4A20.577,20.577,0,1,1,1.237,21.814,20.608,20.608,0,0,1,21.818,1.235" transform="translate(10.785 26.923)" fill="#5e9fab"/>
          <path id="Path_12571" data-name="Path 12571" d="M18.854,37.7A18.85,18.85,0,1,0,0,18.849,18.872,18.872,0,0,0,18.854,37.7m0-36.462A17.612,17.612,0,1,1,1.241,18.849,17.631,17.631,0,0,1,18.854,1.238" transform="translate(13.749 29.888)" fill="#5e9fab"/>
          <path id="Path_12572" data-name="Path 12572" d="M15.887,31.767A15.883,15.883,0,1,0,0,15.882,15.9,15.9,0,0,0,15.887,31.767m0-30.528A14.644,14.644,0,1,1,1.239,15.882,14.658,14.658,0,0,1,15.887,1.238" transform="translate(16.716 32.855)" fill="#5e9fab"/>
          <path id="Path_12573" data-name="Path 12573" d="M12.92,25.829A12.914,12.914,0,1,0,0,12.913,12.927,12.927,0,0,0,12.92,25.829m0-24.59A11.676,11.676,0,1,1,1.243,12.913,11.684,11.684,0,0,1,12.92,1.238" transform="translate(19.683 35.824)" fill="#5e9fab"/>
          <path id="Path_12574" data-name="Path 12574" d="M9.953,19.9A9.95,9.95,0,1,0,0,9.948,9.961,9.961,0,0,0,9.953,19.9m0-18.662A8.711,8.711,0,1,1,1.239,9.948,8.719,8.719,0,0,1,9.953,1.237" transform="translate(22.65 38.789)" fill="#5e9fab"/>
          <path id="Path_12575" data-name="Path 12575" d="M6.987,13.969A6.985,6.985,0,1,0,0,6.982a7,7,0,0,0,6.987,6.987m0-12.729A5.743,5.743,0,1,1,1.241,6.982,5.749,5.749,0,0,1,6.987,1.24" transform="translate(25.616 41.754)" fill="#5e9fab"/>
          <path id="Path_12576" data-name="Path 12576" d="M4.016,8.038A4.019,4.019,0,1,0,0,4.018a4.019,4.019,0,0,0,4.016,4.02m0-6.8A2.779,2.779,0,1,1,1.235,4.018,2.781,2.781,0,0,1,4.016,1.239" transform="translate(28.587 44.719)" fill="#5e9fab"/>
          <path id="Path_12577" data-name="Path 12577" d="M1.053,2.1A1.05,1.05,0,1,0,0,1.05,1.051,1.051,0,0,0,1.053,2.1m0-1.235a.187.187,0,0,1,.192.185.194.194,0,0,1-.192.192A.191.191,0,0,1,.861,1.05.185.185,0,0,1,1.053.865" transform="translate(31.55 47.687)" fill="#5e9fab"/>
          <path id="Path_12578" data-name="Path 12578" d="M3.944.666A5.714,5.714,0,0,1,1.259,0,6.985,6.985,0,0,0,0,.686a6.98,6.98,0,0,0,1.257.685,5.735,5.735,0,0,1,5.368,0A6.981,6.981,0,0,0,7.883.686,6.986,6.986,0,0,0,6.624,0a5.7,5.7,0,0,1-2.68.666" transform="translate(28.66 53.815)" fill="#fff"/>
          <path id="Path_12579" data-name="Path 12579" d="M1.582,1A8.778,8.778,0,0,1,.818,0,10.021,10.021,0,0,0,0,1,10.026,10.026,0,0,0,.817,2a8.773,8.773,0,0,1,.765-1" transform="translate(24.492 53.498)" fill="#fff"/>
          <path id="Path_12580" data-name="Path 12580" d="M0,1A8.766,8.766,0,0,1,.766,2a10.014,10.014,0,0,0,.817-1A10.019,10.019,0,0,0,.765,0,8.782,8.782,0,0,1,0,1" transform="translate(39.125 53.499)" fill="#fff"/>
          <path id="Path_12581" data-name="Path 12581" d="M1.406,1.319A11.636,11.636,0,0,1,.762,0,12.928,12.928,0,0,0,0,1.32,12.922,12.922,0,0,0,.76,2.639a11.641,11.641,0,0,1,.645-1.32" transform="translate(21.041 53.179)" fill="#fff"/>
          <path id="Path_12582" data-name="Path 12582" d="M0,1.32A11.629,11.629,0,0,1,.644,2.639,12.907,12.907,0,0,0,1.4,1.319,12.924,12.924,0,0,0,.644,0,11.634,11.634,0,0,1,0,1.32" transform="translate(42.753 53.181)" fill="#fff"/>
          <path id="Path_12583" data-name="Path 12583" d="M.749,3.273a14.53,14.53,0,0,1,.59-1.636A14.527,14.527,0,0,1,.75,0,15.812,15.812,0,0,0,0,1.636,15.8,15.8,0,0,0,.749,3.273" transform="translate(17.797 52.861)" fill="#fff"/>
          <path id="Path_12584" data-name="Path 12584" d="M.589,0A14.508,14.508,0,0,1,0,1.635,14.526,14.526,0,0,1,.59,3.273a15.807,15.807,0,0,0,.748-1.634A15.82,15.82,0,0,0,.589,0" transform="translate(46.063 52.866)" fill="#fff"/>
          <path id="Path_12585" data-name="Path 12585" d="M.754,3.919a17.448,17.448,0,0,1,.555-1.96A17.449,17.449,0,0,1,.755,0,18.717,18.717,0,0,0,0,1.96a18.7,18.7,0,0,0,.754,1.96" transform="translate(14.649 52.538)" fill="#fff"/>
          <path id="Path_12586" data-name="Path 12586" d="M.555,0A17.438,17.438,0,0,1,0,1.96,17.442,17.442,0,0,1,.556,3.922,18.727,18.727,0,0,0,1.31,1.963,18.73,18.73,0,0,0,.555,0" transform="translate(49.242 52.54)" fill="#fff"/>
          <path id="Path_12587" data-name="Path 12587" d="M.761,4.548a20.393,20.393,0,0,1,.526-2.274A20.419,20.419,0,0,1,.762,0,21.626,21.626,0,0,0,0,2.274,21.639,21.639,0,0,0,.761,4.548" transform="translate(11.556 52.223)" fill="#fff"/>
          <path id="Path_12588" data-name="Path 12588" d="M.526,0A20.383,20.383,0,0,1,0,2.274,20.412,20.412,0,0,1,.525,4.549a21.653,21.653,0,0,0,.762-2.274A21.635,21.635,0,0,0,.526,0" transform="translate(52.359 52.229)" fill="#fff"/>
          <path id="Path_12589" data-name="Path 12589" d="M.776,5.2a23.388,23.388,0,0,1,.5-2.6A23.383,23.383,0,0,1,.776,0,24.575,24.575,0,0,0,0,2.6,24.567,24.567,0,0,0,.776,5.2" transform="translate(8.495 51.898)" fill="#fff"/>
          <path id="Path_12590" data-name="Path 12590" d="M.5,0A23.375,23.375,0,0,1,0,2.6,23.4,23.4,0,0,1,.5,5.191a24.574,24.574,0,0,0,.775-2.6A24.553,24.553,0,0,0,.5,0" transform="translate(55.43 51.907)" fill="#fff"/>
        </g>
      </g>
      <g id="Group_12057" data-name="Group 12057" transform="translate(594.112 548.245)">
        <path id="Path_12591" data-name="Path 12591" d="M7.221,14.442A7.221,7.221,0,1,0,0,7.221a7.229,7.229,0,0,0,7.221,7.221M7.221.36A6.861,6.861,0,1,1,.362,7.221,6.868,6.868,0,0,1,7.221.36" transform="translate(1.73 10.318) rotate(-31)" fill="#e16b7c"/>
        <path id="Path_12592" data-name="Path 12592" d="M6.358,12.713A6.357,6.357,0,1,0,0,6.357a6.363,6.363,0,0,0,6.358,6.357m0-12.352a6,6,0,1,1-6,6,6,6,0,0,1,6-6" transform="translate(2.916 10.614) rotate(-31)" fill="#e16b7c"/>
        <path id="Path_12593" data-name="Path 12593" d="M5.494,10.986A5.493,5.493,0,1,0,0,5.493a5.5,5.5,0,0,0,5.494,5.492m0-10.625A5.132,5.132,0,1,1,.362,5.493,5.139,5.139,0,0,1,5.494.361" transform="translate(4.101 10.909) rotate(-31)" fill="#e16b7c"/>
        <path id="Path_12594" data-name="Path 12594" d="M4.629,9.256A4.628,4.628,0,1,0,0,4.628,4.633,4.633,0,0,0,4.629,9.256m0-8.895A4.267,4.267,0,1,1,.361,4.628,4.271,4.271,0,0,1,4.629.361" transform="translate(5.288 11.205) rotate(-31)" fill="#e16b7c"/>
        <path id="Path_12595" data-name="Path 12595" d="M3.765,7.527A3.763,3.763,0,1,0,0,3.764,3.767,3.767,0,0,0,3.765,7.527m0-7.166a3.4,3.4,0,1,1-3.4,3.4,3.4,3.4,0,0,1,3.4-3.4" transform="translate(6.474 11.501) rotate(-31)" fill="#e16b7c"/>
        <path id="Path_12596" data-name="Path 12596" d="M2.9,5.8A2.9,2.9,0,1,0,0,2.9,2.9,2.9,0,0,0,2.9,5.8M2.9.361A2.538,2.538,0,1,1,.361,2.9,2.541,2.541,0,0,1,2.9.361" transform="translate(7.66 11.797) rotate(-31)" fill="#e16b7c"/>
        <path id="Path_12597" data-name="Path 12597" d="M2.036,4.07A2.035,2.035,0,1,0,0,2.035,2.039,2.039,0,0,0,2.036,4.07m0-3.709A1.674,1.674,0,1,1,.362,2.035,1.675,1.675,0,0,1,2.036.362" transform="translate(8.846 12.092) rotate(-31)" fill="#e16b7c"/>
        <path id="Path_12598" data-name="Path 12598" d="M1.17,2.341A1.171,1.171,0,1,0,0,1.171a1.171,1.171,0,0,0,1.17,1.17m0-1.98a.81.81,0,1,1-.811.81A.81.81,0,0,1,1.17.361" transform="translate(10.033 12.387) rotate(-31)" fill="#e16b7c"/>
        <path id="Path_12599" data-name="Path 12599" d="M.306.612A.306.306,0,1,0,0,.306.306.306,0,0,0,.306.612m0-.361A.055.055,0,0,1,.362.306.054.054,0,0,1,.306.36.054.054,0,0,1,.25.306.056.056,0,0,1,.306.251" transform="translate(11.219 12.683) rotate(-31)" fill="#e16b7c"/>
        <path id="Path_12600" data-name="Path 12600" d="M7.222,14.443A7.222,7.222,0,1,0,0,7.222a7.229,7.229,0,0,0,7.222,7.221m0-14.081a6.86,6.86,0,1,1-6.86,6.86A6.867,6.867,0,0,1,7.222.362" transform="translate(0 7.438) rotate(-31)" fill="#5e9fab"/>
        <path id="Path_12601" data-name="Path 12601" d="M6.358,12.713A6.357,6.357,0,1,0,0,6.356a6.363,6.363,0,0,0,6.358,6.357M6.358.36a6,6,0,1,1-6,6,6,6,0,0,1,6-6" transform="translate(1.187 7.735) rotate(-31)" fill="#5e9fab"/>
        <path id="Path_12602" data-name="Path 12602" d="M5.494,10.985A5.493,5.493,0,1,0,0,5.492a5.5,5.5,0,0,0,5.494,5.493m0-10.624A5.132,5.132,0,1,1,.362,5.492,5.137,5.137,0,0,1,5.494.361" transform="translate(2.372 8.03) rotate(-31)" fill="#5e9fab"/>
        <path id="Path_12603" data-name="Path 12603" d="M4.629,9.256A4.628,4.628,0,1,0,0,4.628,4.634,4.634,0,0,0,4.629,9.256m0-8.9A4.267,4.267,0,1,1,.361,4.628,4.271,4.271,0,0,1,4.629.361" transform="translate(3.559 8.326) rotate(-31)" fill="#5e9fab"/>
        <path id="Path_12604" data-name="Path 12604" d="M3.765,7.526A3.763,3.763,0,1,0,0,3.763,3.767,3.767,0,0,0,3.765,7.526m0-7.165a3.4,3.4,0,1,1-3.4,3.4,3.4,3.4,0,0,1,3.4-3.4" transform="translate(4.745 8.623) rotate(-31)" fill="#5e9fab"/>
        <path id="Path_12605" data-name="Path 12605" d="M2.9,5.8A2.9,2.9,0,1,0,0,2.9,2.9,2.9,0,0,0,2.9,5.8M2.9.36A2.538,2.538,0,1,1,.361,2.9,2.541,2.541,0,0,1,2.9.36" transform="translate(5.931 8.918) rotate(-31)" fill="#5e9fab"/>
        <path id="Path_12606" data-name="Path 12606" d="M2.036,4.07A2.035,2.035,0,1,0,0,2.035,2.039,2.039,0,0,0,2.036,4.07m0-3.709A1.673,1.673,0,1,1,.362,2.035,1.675,1.675,0,0,1,2.036.361" transform="translate(7.117 9.213) rotate(-31)" fill="#5e9fab"/>
        <path id="Path_12607" data-name="Path 12607" d="M1.17,2.342A1.171,1.171,0,1,0,0,1.171,1.171,1.171,0,0,0,1.17,2.342m0-1.981a.81.81,0,1,1-.81.81.81.81,0,0,1,.81-.81" transform="translate(8.304 9.508) rotate(-31)" fill="#5e9fab"/>
        <path id="Path_12608" data-name="Path 12608" d="M.307.612A.306.306,0,1,0,0,.306.306.306,0,0,0,.307.612m0-.36A.055.055,0,0,1,.363.306.056.056,0,0,1,.307.362.056.056,0,0,1,.251.306.054.054,0,0,1,.307.252" transform="translate(9.489 9.805) rotate(-31)" fill="#5e9fab"/>
        <path id="Path_12609" data-name="Path 12609" d="M1.149.194A1.665,1.665,0,0,1,.367,0,2.036,2.036,0,0,0,0,.2,2.034,2.034,0,0,0,.366.4,1.671,1.671,0,0,1,1.93.4,2.035,2.035,0,0,0,2.3.2,2.034,2.034,0,0,0,1.93,0a1.662,1.662,0,0,1-.781.194" transform="translate(9.687 11.769) rotate(-31)" fill="#fff"/>
        <path id="Path_12610" data-name="Path 12610" d="M.461.292A2.558,2.558,0,0,1,.238,0,2.917,2.917,0,0,0,0,.292,2.923,2.923,0,0,0,.238.584,2.554,2.554,0,0,1,.461.292" transform="translate(8.599 12.315) rotate(-31)" fill="#fff"/>
        <path id="Path_12611" data-name="Path 12611" d="M0,.292A2.554,2.554,0,0,1,.223.584,2.918,2.918,0,0,0,.461.292,2.918,2.918,0,0,0,.223,0,2.559,2.559,0,0,1,0,.292" transform="translate(12.254 10.119) rotate(-31)" fill="#fff"/>
        <path id="Path_12612" data-name="Path 12612" d="M.41.384A3.391,3.391,0,0,1,.222,0,3.765,3.765,0,0,0,0,.385,3.769,3.769,0,0,0,.222.769,3.392,3.392,0,0,1,.41.384" transform="translate(7.689 12.753) rotate(-31)" fill="#fff"/>
        <path id="Path_12613" data-name="Path 12613" d="M0,.385A3.389,3.389,0,0,1,.188.769,3.764,3.764,0,0,0,.409.384,3.764,3.764,0,0,0,.188,0,3.39,3.39,0,0,1,0,.385" transform="translate(13.112 9.496) rotate(-31)" fill="#fff"/>
        <path id="Path_12614" data-name="Path 12614" d="M.218.954A4.233,4.233,0,0,1,.39.477,4.235,4.235,0,0,1,.218,0,4.606,4.606,0,0,0,0,.477,4.607,4.607,0,0,0,.218.954" transform="translate(6.831 13.161) rotate(-31)" fill="#fff"/>
        <path id="Path_12615" data-name="Path 12615" d="M.172,0A4.226,4.226,0,0,1,0,.476,4.233,4.233,0,0,1,.172.954,4.606,4.606,0,0,0,.39.478,4.606,4.606,0,0,0,.172,0" transform="translate(13.891 8.92) rotate(-31)" fill="#fff"/>
        <path id="Path_12616" data-name="Path 12616" d="M.22,1.142A5.085,5.085,0,0,1,.381.571,5.084,5.084,0,0,1,.22,0,5.453,5.453,0,0,0,0,.571a5.451,5.451,0,0,0,.22.571" transform="translate(5.996 13.553) rotate(-31)" fill="#fff"/>
        <path id="Path_12617" data-name="Path 12617" d="M.162,0A5.086,5.086,0,0,1,0,.571a5.087,5.087,0,0,1,.162.572A5.455,5.455,0,0,0,.382.572,5.45,5.45,0,0,0,.162,0" transform="translate(14.637 8.362) rotate(-31)" fill="#fff"/>
        <path id="Path_12618" data-name="Path 12618" d="M.222,1.325A5.943,5.943,0,0,1,.375.663,5.95,5.95,0,0,1,.222,0,6.3,6.3,0,0,0,0,.663a6.3,6.3,0,0,0,.222.663" transform="translate(5.176 13.938) rotate(-31)" fill="#fff"/>
        <path id="Path_12619" data-name="Path 12619" d="M.153,0A5.943,5.943,0,0,1,0,.663a5.945,5.945,0,0,1,.153.663A6.308,6.308,0,0,0,.375.663,6.3,6.3,0,0,0,.153,0" transform="translate(15.369 7.816) rotate(-31)" fill="#fff"/>
        <path id="Path_12620" data-name="Path 12620" d="M.226,1.516A6.816,6.816,0,0,1,.372.758,6.814,6.814,0,0,1,.226,0,7.16,7.16,0,0,0,0,.758a7.157,7.157,0,0,0,.226.758" transform="translate(4.363 14.316) rotate(-31)" fill="#fff"/>
        <path id="Path_12621" data-name="Path 12621" d="M.146,0A6.813,6.813,0,0,1,0,.757a6.819,6.819,0,0,1,.146.756A7.157,7.157,0,0,0,.371.756,7.153,7.153,0,0,0,.146,0" transform="translate(16.087 7.275) rotate(-31)" fill="#fff"/>
      </g>
      <path id="Path_14797" data-name="Path 14797" d="M2.882,5.761A2.881,2.881,0,1,0,0,2.881a2.883,2.883,0,0,0,2.882,2.88m0-5.485a2.6,2.6,0,1,1-2.6,2.6,2.606,2.606,0,0,1,2.6-2.6" transform="translate(626.674 651.067) rotate(-31)" fill="#e16b7c"/>
      <path id="Path_14798" data-name="Path 14798" d="M3.543,7.085A3.542,3.542,0,1,0,0,3.542,3.547,3.547,0,0,0,3.543,7.085m0-6.809A3.266,3.266,0,1,1,.276,3.542,3.269,3.269,0,0,1,3.543.276" transform="translate(624.442 648.637) rotate(-31)" fill="#5e9fab"/>
      <path id="Path_14799" data-name="Path 14799" d="M4.866,9.731A4.865,4.865,0,1,0,0,4.865,4.87,4.87,0,0,0,4.866,9.731m0-9.454A4.589,4.589,0,1,1,.276,4.865,4.594,4.594,0,0,1,4.866.277" transform="translate(618.651 548.141) rotate(-31)" fill="#e16b7c"/>
      <path id="Path_14800" data-name="Path 14800" d="M4.866,9.731A4.865,4.865,0,1,0,0,4.865,4.87,4.87,0,0,0,4.866,9.731m0-9.455a4.589,4.589,0,1,1-4.59,4.59A4.6,4.6,0,0,1,4.866.275" transform="translate(617.328 545.938) rotate(-31)" fill="#5e9fab"/>
      <g id="Group_12056" data-name="Group 12056" transform="matrix(0.259, 0.966, -0.966, 0.259, 658.203, 625.152)">
        <path id="Path_12591-2" data-name="Path 12591" d="M7.221,14.442A7.221,7.221,0,1,0,0,7.221a7.229,7.229,0,0,0,7.221,7.221M7.221.36A6.861,6.861,0,1,1,.362,7.221,6.868,6.868,0,0,1,7.221.36" transform="translate(1.73 10.318) rotate(-31)" fill="#e16b7c"/>
        <path id="Path_12592-2" data-name="Path 12592" d="M6.358,12.713A6.357,6.357,0,1,0,0,6.357a6.363,6.363,0,0,0,6.358,6.357m0-12.352a6,6,0,1,1-6,6,6,6,0,0,1,6-6" transform="translate(2.916 10.614) rotate(-31)" fill="#e16b7c"/>
        <path id="Path_12593-2" data-name="Path 12593" d="M5.494,10.986A5.493,5.493,0,1,0,0,5.493a5.5,5.5,0,0,0,5.494,5.492m0-10.625A5.132,5.132,0,1,1,.362,5.493,5.139,5.139,0,0,1,5.494.361" transform="translate(4.101 10.909) rotate(-31)" fill="#e16b7c"/>
        <path id="Path_12594-2" data-name="Path 12594" d="M4.629,9.256A4.628,4.628,0,1,0,0,4.628,4.633,4.633,0,0,0,4.629,9.256m0-8.895A4.267,4.267,0,1,1,.361,4.628,4.271,4.271,0,0,1,4.629.361" transform="translate(5.288 11.205) rotate(-31)" fill="#e16b7c"/>
        <path id="Path_12595-2" data-name="Path 12595" d="M3.765,7.527A3.763,3.763,0,1,0,0,3.764,3.767,3.767,0,0,0,3.765,7.527m0-7.166a3.4,3.4,0,1,1-3.4,3.4,3.4,3.4,0,0,1,3.4-3.4" transform="translate(6.474 11.501) rotate(-31)" fill="#e16b7c"/>
        <path id="Path_12596-2" data-name="Path 12596" d="M2.9,5.8A2.9,2.9,0,1,0,0,2.9,2.9,2.9,0,0,0,2.9,5.8M2.9.361A2.538,2.538,0,1,1,.361,2.9,2.541,2.541,0,0,1,2.9.361" transform="translate(7.66 11.797) rotate(-31)" fill="#e16b7c"/>
        <path id="Path_12597-2" data-name="Path 12597" d="M2.036,4.07A2.035,2.035,0,1,0,0,2.035,2.039,2.039,0,0,0,2.036,4.07m0-3.709A1.674,1.674,0,1,1,.362,2.035,1.675,1.675,0,0,1,2.036.362" transform="translate(8.846 12.092) rotate(-31)" fill="#e16b7c"/>
        <path id="Path_12598-2" data-name="Path 12598" d="M1.17,2.341A1.171,1.171,0,1,0,0,1.171a1.171,1.171,0,0,0,1.17,1.17m0-1.98a.81.81,0,1,1-.811.81A.81.81,0,0,1,1.17.361" transform="translate(10.033 12.387) rotate(-31)" fill="#e16b7c"/>
        <path id="Path_12599-2" data-name="Path 12599" d="M.306.612A.306.306,0,1,0,0,.306.306.306,0,0,0,.306.612m0-.361A.055.055,0,0,1,.362.306.054.054,0,0,1,.306.36.054.054,0,0,1,.25.306.056.056,0,0,1,.306.251" transform="translate(11.219 12.683) rotate(-31)" fill="#e16b7c"/>
        <path id="Path_12600-2" data-name="Path 12600" d="M7.222,14.443A7.222,7.222,0,1,0,0,7.222a7.229,7.229,0,0,0,7.222,7.221m0-14.081a6.86,6.86,0,1,1-6.86,6.86A6.867,6.867,0,0,1,7.222.362" transform="translate(0 7.438) rotate(-31)" fill="#5e9fab"/>
        <path id="Path_12601-2" data-name="Path 12601" d="M6.358,12.713A6.357,6.357,0,1,0,0,6.356a6.363,6.363,0,0,0,6.358,6.357M6.358.36a6,6,0,1,1-6,6,6,6,0,0,1,6-6" transform="translate(1.187 7.735) rotate(-31)" fill="#5e9fab"/>
        <path id="Path_12602-2" data-name="Path 12602" d="M5.494,10.985A5.493,5.493,0,1,0,0,5.492a5.5,5.5,0,0,0,5.494,5.493m0-10.624A5.132,5.132,0,1,1,.362,5.492,5.137,5.137,0,0,1,5.494.361" transform="translate(2.372 8.03) rotate(-31)" fill="#5e9fab"/>
        <path id="Path_12603-2" data-name="Path 12603" d="M4.629,9.256A4.628,4.628,0,1,0,0,4.628,4.634,4.634,0,0,0,4.629,9.256m0-8.9A4.267,4.267,0,1,1,.361,4.628,4.271,4.271,0,0,1,4.629.361" transform="translate(3.559 8.326) rotate(-31)" fill="#5e9fab"/>
        <path id="Path_12604-2" data-name="Path 12604" d="M3.765,7.526A3.763,3.763,0,1,0,0,3.763,3.767,3.767,0,0,0,3.765,7.526m0-7.165a3.4,3.4,0,1,1-3.4,3.4,3.4,3.4,0,0,1,3.4-3.4" transform="translate(4.745 8.623) rotate(-31)" fill="#5e9fab"/>
        <path id="Path_12605-2" data-name="Path 12605" d="M2.9,5.8A2.9,2.9,0,1,0,0,2.9,2.9,2.9,0,0,0,2.9,5.8M2.9.36A2.538,2.538,0,1,1,.361,2.9,2.541,2.541,0,0,1,2.9.36" transform="translate(5.931 8.918) rotate(-31)" fill="#5e9fab"/>
        <path id="Path_12606-2" data-name="Path 12606" d="M2.036,4.07A2.035,2.035,0,1,0,0,2.035,2.039,2.039,0,0,0,2.036,4.07m0-3.709A1.673,1.673,0,1,1,.362,2.035,1.675,1.675,0,0,1,2.036.361" transform="translate(7.117 9.213) rotate(-31)" fill="#5e9fab"/>
        <path id="Path_12607-2" data-name="Path 12607" d="M1.17,2.342A1.171,1.171,0,1,0,0,1.171,1.171,1.171,0,0,0,1.17,2.342m0-1.981a.81.81,0,1,1-.81.81.81.81,0,0,1,.81-.81" transform="translate(8.304 9.508) rotate(-31)" fill="#5e9fab"/>
        <path id="Path_12608-2" data-name="Path 12608" d="M.307.612A.306.306,0,1,0,0,.306.306.306,0,0,0,.307.612m0-.36A.055.055,0,0,1,.363.306.056.056,0,0,1,.307.362.056.056,0,0,1,.251.306.054.054,0,0,1,.307.252" transform="translate(9.489 9.805) rotate(-31)" fill="#5e9fab"/>
        <path id="Path_12609-2" data-name="Path 12609" d="M1.149.194A1.665,1.665,0,0,1,.367,0,2.036,2.036,0,0,0,0,.2,2.034,2.034,0,0,0,.366.4,1.671,1.671,0,0,1,1.93.4,2.035,2.035,0,0,0,2.3.2,2.034,2.034,0,0,0,1.93,0a1.662,1.662,0,0,1-.781.194" transform="translate(9.687 11.769) rotate(-31)" fill="#fff"/>
        <path id="Path_12610-2" data-name="Path 12610" d="M.461.292A2.558,2.558,0,0,1,.238,0,2.917,2.917,0,0,0,0,.292,2.923,2.923,0,0,0,.238.584,2.554,2.554,0,0,1,.461.292" transform="translate(8.599 12.315) rotate(-31)" fill="#fff"/>
        <path id="Path_12611-2" data-name="Path 12611" d="M0,.292A2.554,2.554,0,0,1,.223.584,2.918,2.918,0,0,0,.461.292,2.918,2.918,0,0,0,.223,0,2.559,2.559,0,0,1,0,.292" transform="translate(12.254 10.119) rotate(-31)" fill="#fff"/>
        <path id="Path_12612-2" data-name="Path 12612" d="M.41.384A3.391,3.391,0,0,1,.222,0,3.765,3.765,0,0,0,0,.385,3.769,3.769,0,0,0,.222.769,3.392,3.392,0,0,1,.41.384" transform="translate(7.689 12.753) rotate(-31)" fill="#fff"/>
        <path id="Path_12613-2" data-name="Path 12613" d="M0,.385A3.389,3.389,0,0,1,.188.769,3.764,3.764,0,0,0,.409.384,3.764,3.764,0,0,0,.188,0,3.39,3.39,0,0,1,0,.385" transform="translate(13.112 9.496) rotate(-31)" fill="#fff"/>
        <path id="Path_12614-2" data-name="Path 12614" d="M.218.954A4.233,4.233,0,0,1,.39.477,4.235,4.235,0,0,1,.218,0,4.606,4.606,0,0,0,0,.477,4.607,4.607,0,0,0,.218.954" transform="translate(6.831 13.161) rotate(-31)" fill="#fff"/>
        <path id="Path_12615-2" data-name="Path 12615" d="M.172,0A4.226,4.226,0,0,1,0,.476,4.233,4.233,0,0,1,.172.954,4.606,4.606,0,0,0,.39.478,4.606,4.606,0,0,0,.172,0" transform="translate(13.891 8.92) rotate(-31)" fill="#fff"/>
        <path id="Path_12616-2" data-name="Path 12616" d="M.22,1.142A5.085,5.085,0,0,1,.381.571,5.084,5.084,0,0,1,.22,0,5.453,5.453,0,0,0,0,.571a5.451,5.451,0,0,0,.22.571" transform="translate(5.996 13.553) rotate(-31)" fill="#fff"/>
        <path id="Path_12617-2" data-name="Path 12617" d="M.162,0A5.086,5.086,0,0,1,0,.571a5.087,5.087,0,0,1,.162.572A5.455,5.455,0,0,0,.382.572,5.45,5.45,0,0,0,.162,0" transform="translate(14.637 8.362) rotate(-31)" fill="#fff"/>
        <path id="Path_12618-2" data-name="Path 12618" d="M.222,1.325A5.943,5.943,0,0,1,.375.663,5.95,5.95,0,0,1,.222,0,6.3,6.3,0,0,0,0,.663a6.3,6.3,0,0,0,.222.663" transform="translate(5.176 13.938) rotate(-31)" fill="#fff"/>
        <path id="Path_12619-2" data-name="Path 12619" d="M.153,0A5.943,5.943,0,0,1,0,.663a5.945,5.945,0,0,1,.153.663A6.308,6.308,0,0,0,.375.663,6.3,6.3,0,0,0,.153,0" transform="translate(15.369 7.816) rotate(-31)" fill="#fff"/>
        <path id="Path_12620-2" data-name="Path 12620" d="M.226,1.516A6.815,6.815,0,0,1,.372.758,6.814,6.814,0,0,1,.226,0,7.16,7.16,0,0,0,0,.758a7.157,7.157,0,0,0,.226.758" transform="translate(4.363 14.316) rotate(-31)" fill="#fff"/>
        <path id="Path_12621-2" data-name="Path 12621" d="M.146,0A6.813,6.813,0,0,1,0,.757a6.819,6.819,0,0,1,.146.756A7.157,7.157,0,0,0,.371.756,7.153,7.153,0,0,0,.146,0" transform="translate(16.087 7.275) rotate(-31)" fill="#fff"/>
      </g>
    </g>
  </g>
</svg>
