<svg xmlns="http://www.w3.org/2000/svg" width="55.384" height="15.488" viewBox="0 0 55.384 15.488">
  <line id="Line_156" data-name="Line 156" x2="47.5" transform="translate(0 7.744)" fill="none" stroke="#634f7d" stroke-width="1"/>
  <g id="Group_11826" data-name="Group 11826" transform="translate(-577 -248.256)">
    <path id="Path_14304" data-name="Path 14304" d="M5.548,11.088A5.567,5.567,0,0,1,1.06,8.8a5.544,5.544,0,1,1,8.969-6.518A5.542,5.542,0,0,1,8.8,10.027a5.5,5.5,0,0,1-3.255,1.06M5.54,1.008a4.538,4.538,0,0,0-3.666,7.2A4.556,4.556,0,0,0,5.548,10.08,4.536,4.536,0,0,0,5.54,1.008" transform="matrix(0.809, 0.588, -0.588, 0.809, 623.412, 248.256)" fill="#634f7d"/>
    <path id="Path_14305" data-name="Path 14305" d="M.514,4.268a2.688,2.688,0,1,1,3.755.594A2.688,2.688,0,0,1,.514,4.268" transform="matrix(0.809, 0.588, -0.588, 0.809, 624.045, 252.244)" fill="#634f7d"/>
  </g>
</svg>
