<svg xmlns="http://www.w3.org/2000/svg" width="48.914" height="31.197" viewBox="0 0 48.914 31.197">
  <g id="MpERIu" transform="translate(-795.496 -7161.588)">
    <g id="Group_12726" data-name="Group 12726" transform="translate(795.496 7161.588)">
      <path id="Path_17336" data-name="Path 17336" d="M837.863,7178.51c-.434.448-.771.84-1.154,1.18-.423.374-.882.708-1.339,1.041-.192.14-.183.261-.11.467a2.74,2.74,0,0,1-.7,3.076,2.481,2.481,0,0,1-1.581.642c-.206.019-.415,0-.658,0a2.447,2.447,0,0,1-.721,1.854,4.319,4.319,0,0,1-1.2.693,1.24,1.24,0,0,1-.493.1c-.519.022-.607.1-.7.618a2.385,2.385,0,0,1-2.023,1.94,3.79,3.79,0,0,0-.969.123,1,1,0,0,0-.464.425,3.811,3.811,0,0,1-1.623,1.333,4.008,4.008,0,0,1-2.633.225c-.728-.141-1.457-.279-2.177-.453a12.131,12.131,0,0,1-1.18-.4c-.155-.055-.229-.047-.343.125a2.419,2.419,0,0,1-1.542,1.22,2.693,2.693,0,0,1-2.242-.47,3.1,3.1,0,0,1-.927-1.211.4.4,0,0,0-.564-.24,1.389,1.389,0,0,1-1.191-.077,2.927,2.927,0,0,1-1.965-2.147h-.665a2.439,2.439,0,0,1-2.077-1.17,2.6,2.6,0,0,1-.538-1.613.4.4,0,0,0-.235-.3,2.834,2.834,0,0,1-2.352-2.115,2.355,2.355,0,0,1,.314-2.1c.253-.363.2-.55-.2-1-.5-.571-.976-1.167-1.528-1.834a4.5,4.5,0,0,0-.405.611,2.337,2.337,0,0,1-1.017,1.179,1.183,1.183,0,0,1-1.294-.1c-.636-.408-1.3-.775-1.945-1.167-.48-.291-.969-.572-1.424-.9a1.289,1.289,0,0,1-.363-1.646c.282-.647.642-1.261.982-1.881.289-.527.6-1.042.9-1.563.758-1.318,1.523-2.631,2.269-3.956.428-.76.811-1.545,1.24-2.3.7-1.237,1.42-2.463,2.133-3.693.155-.267.3-.541.473-.8a1.412,1.412,0,0,1,2.048-.357c.858.556,1.747,1.063,2.627,1.586a2.045,2.045,0,0,1,1.086,1.271,1.836,1.836,0,0,1-.335,1.241c-.22.482-.239.479.222.73.554.3,1.107.61,1.673.89a2.534,2.534,0,0,0,.654.177c.633.12,1.268.228,1.9.341a.537.537,0,0,0,.629-.264,2.589,2.589,0,0,1,1.745-1.271,16.868,16.868,0,0,1,2.219-.443c.952-.118,1.914-.157,2.871-.23a10.664,10.664,0,0,1,1.525-.107c1.025.069,2.05.179,3.067.333.926.14,1.838.368,2.759.538a8.884,8.884,0,0,0,1.535.2,6.807,6.807,0,0,0,1.274-.241,2.65,2.65,0,0,0-.291-.687,1.591,1.591,0,0,1,.56-2.373c.959-.51,1.86-1.13,2.786-1.7a1.485,1.485,0,0,1,2.215.567c.505.963,1.089,1.886,1.63,2.832.268.468.51.953.776,1.423.589,1.04,1.191,2.072,1.776,3.114.392.7.752,1.416,1.146,2.114.559.992,1.142,1.97,1.7,2.959.319.563.647,1.121.912,1.709a1.666,1.666,0,0,1-.746,1.712c-.82.468-1.616.98-2.428,1.464-.316.189-.641.365-.973.526-.748.361-1.536-.281-1.809-.873C838.262,7179.124,838.073,7178.861,837.863,7178.51Zm-13.094,11.381a3.274,3.274,0,0,0-.293-.2c-1.009-.486-2.036-.939-3.024-1.465a4.889,4.889,0,0,1-1.627-.911.587.587,0,0,1,.028-.8.573.573,0,0,1,.7-.241c.652.292,1.287.62,1.931.93,1.067.513,2.127,1.042,3.207,1.525a2.259,2.259,0,0,0,1.482.028,1.366,1.366,0,0,0,.825-1.328.278.278,0,0,0-.128-.175c-.909-.533-1.822-1.06-2.733-1.59-.963-.561-1.928-1.118-2.883-1.692a.847.847,0,0,1-.4-.417.913.913,0,0,1,.083-.675.5.5,0,0,1,.722-.191c.333.21.707.354,1.05.549.79.449,1.574.909,2.357,1.371.577.341,1.132.725,1.725,1.032a3.008,3.008,0,0,0,1.845.618,1.536,1.536,0,0,0,1.333-1.106c.151-.509-.017-.759-.5-1.025-.648-.362-1.284-.746-1.918-1.131-.816-.5-1.621-1.01-2.438-1.5-.654-.4-1.323-.766-1.978-1.159a.709.709,0,0,1-.3-.824c.25-.385.677-.561.948-.4.736.445,1.476.881,2.211,1.326.862.521,1.719,1.052,2.582,1.573.615.371,1.249.711,1.853,1.1a1.918,1.918,0,0,0,1.792.38,1.32,1.32,0,0,0,.776-1.714c-.264-.663-.906-.918-1.346-1.387a3.775,3.775,0,0,0-.5-.423c-.7-.525-1.4-1.044-2.106-1.567-.491-.365-.971-.746-1.471-1.1-.634-.445-1.28-.873-1.927-1.3-.816-.537-1.63-1.076-2.459-1.59-.723-.448-1.461-.874-2.2-1.289-.7-.391-1.412-.759-2.126-1.125a.722.722,0,0,0-.441-.094,9.864,9.864,0,0,0-1.129.339.853.853,0,0,0-.352.249,10.858,10.858,0,0,1-.691.873,13.192,13.192,0,0,1-1.7,1.475,6.705,6.705,0,0,1-1.864.88,7.854,7.854,0,0,1-1.751.129,1.615,1.615,0,0,1-1.494-2.055,5.373,5.373,0,0,1,.854-1.928q.681-.976,1.355-1.958c.117-.171.213-.355.317-.531-.545-.1-1.048-.167-1.539-.282a8.542,8.542,0,0,1-1.541-.446c-.531-.236-1.006-.6-1.519-.876-.09-.049-.32-.021-.36.046-.47.8-.919,1.619-1.368,2.435-.27.491-.519.993-.8,1.479-.719,1.258-1.451,2.51-2.173,3.766-.262.457-.484.939-.771,1.378a.352.352,0,0,0,.044.529c.424.465.82.955,1.227,1.437.246.291.491.583.757.9a2.284,2.284,0,0,1,2.385-.77,2.688,2.688,0,0,1,1.955,1.62,3.556,3.556,0,0,0,.559-.713,2.336,2.336,0,0,1,2.012-.909,4.454,4.454,0,0,1,1.279.523,2.477,2.477,0,0,1,1.263,2.156c.008.346.137.461.46.511a2.8,2.8,0,0,1,1.988,1.705,3.242,3.242,0,0,1,.212,1.352c-.013.225.078.35.311.362a.67.67,0,0,1,.215.037,3.129,3.129,0,0,1,1.767,1.769,2.36,2.36,0,0,1,.052,1.683,10.407,10.407,0,0,1-.571,1.147c.552.152,1.107.321,1.671.456.466.11.948.159,1.414.27a2.284,2.284,0,0,0,1.6-.144A10.622,10.622,0,0,0,824.769,7189.891Zm12.464-12.552c-.254-.444-.481-.831-.7-1.223-.544-.974-1.078-1.954-1.626-2.926-.593-1.05-1.2-2.092-1.8-3.142-.383-.678-.747-1.367-1.129-2.045-.072-.127-.109-.238-.373-.152a8.256,8.256,0,0,1-1.839.352,5.675,5.675,0,0,1-1.384-.095c-.456-.072-.9-.221-1.353-.323-.384-.087-.771-.162-1.158-.231-.5-.09-.993-.189-1.494-.249-.685-.082-1.373-.153-2.062-.183-.345-.015-.693.089-1.041.108-.819.044-1.64.069-2.46.1a.929.929,0,0,0-.111.008c-.6.112-1.2.213-1.8.341a2.241,2.241,0,0,0-1.554.748q-.707,1.013-1.41,2.026c-.45.649-.916,1.288-1.343,1.953a3.324,3.324,0,0,0-.783,1.741c0,.263.031.369.308.375a4.346,4.346,0,0,0,2.549-.738,7.124,7.124,0,0,0,2.07-1.98,1.824,1.824,0,0,1,.681-.67,19.363,19.363,0,0,1,2-.68.572.572,0,0,1,.389.033c1.05.528,2.113,1.036,3.132,1.62,1.2.689,2.372,1.443,3.549,2.179.728.454,1.46.9,2.161,1.4.873.616,1.722,1.267,2.571,1.917s1.7,1.334,2.557,1.99c.139.105.365.237.491.191a2.662,2.662,0,0,0,.824-.489C835.818,7178.666,836.506,7178.01,837.234,7177.339Zm5.809-.356c-.378-.662-.749-1.3-1.111-1.949s-.714-1.323-1.086-1.975c-.438-.769-.906-1.52-1.338-2.292-.642-1.148-1.252-2.315-1.9-3.464-.761-1.357-1.548-2.7-2.311-4.058-.133-.236-.251-.292-.488-.138-.332.216-.687.4-1.027.6-.563.338-1.125.679-1.682,1.029a.314.314,0,0,0-.125.505c.608,1.017,1.185,2.052,1.77,3.082q.768,1.351,1.529,2.708,1.057,1.88,2.111,3.762c.653,1.167,1.312,2.33,1.951,3.5.372.683.356.691,1.032.318.01-.006.025,0,.035-.011q1.255-.732,2.508-1.47C842.974,7177.1,843.007,7177.028,843.043,7176.983Zm-34.984-11.947a4.53,4.53,0,0,0-.421-.353c-.321-.207-.653-.4-.979-.594-.552-.336-1.1-.676-1.657-1.007-.146-.087-.25-.119-.366.1-.374.708-.8,1.388-1.19,2.085-.277.49-.527.994-.8,1.483-.547.966-1.109,1.926-1.658,2.891-.415.732-.815,1.472-1.23,2.2-.567,1-1.143,1.99-1.714,2.985-.328.571-.667,1.137-.978,1.717-.105.2-.279.43.045.627.941.573,1.873,1.159,2.813,1.733.14.086.243.071.342-.117.222-.42.505-.809.74-1.224.493-.875.967-1.76,1.456-2.636q1.137-2.041,2.283-4.075c.6-1.066,1.208-2.126,1.8-3.193.419-.752.821-1.513,1.237-2.267A3.366,3.366,0,0,1,808.059,7165.036Zm3.509,15.268a2.431,2.431,0,0,0-.581.35c-.328.353-.619.742-.912,1.126-.328.428-.644.866-.963,1.3-.378.518-.765,1.03-1.124,1.561a3.053,3.053,0,0,0-.541.994,1.485,1.485,0,0,0,1.023,1.594,1.053,1.053,0,0,0,1.159-.4c.118-.194.247-.384.383-.567.453-.608.912-1.212,1.369-1.817.432-.574.876-1.139,1.289-1.726a1.774,1.774,0,0,0,.381-.789A1.519,1.519,0,0,0,811.568,7180.3Zm.518,9.156c.494,0,.508,0,.938-.571.4-.532.792-1.077,1.192-1.612.36-.482.719-.965,1.09-1.438a1.261,1.261,0,0,0,.193-1.609,1.384,1.384,0,0,0-1.213-.748.9.9,0,0,0-.863.455c-.392.6-.839,1.16-1.265,1.734-.337.454-.665.917-1.022,1.354a1.443,1.443,0,0,0-.4,1.295A1.481,1.481,0,0,0,812.086,7189.459Zm6.109-1.015c-.058-.243-.089-.433-.149-.614a1.334,1.334,0,0,0-1.638-.906,1.472,1.472,0,0,0-.568.5c-.485.611-.969,1.226-1.4,1.874a1.375,1.375,0,0,0-.231.845,1.693,1.693,0,0,0,.71,1.1,1.2,1.2,0,0,0,1.461-.1c.5-.668,1.012-1.333,1.5-2.015A4.073,4.073,0,0,0,818.195,7188.444Zm-11.44-8.2c-.2.053-.475.042-.578.171a11.848,11.848,0,0,0-1.307,1.847,1.348,1.348,0,0,0,.807,1.766.928.928,0,0,0,1.361-.414,11.207,11.207,0,0,1,.732-.969,1.211,1.211,0,0,0,.319-1.379A1.662,1.662,0,0,0,806.754,7180.243Z" transform="translate(-795.496 -7161.587)" fill="#939393"/>
    </g>
  </g>
</svg>
