<svg xmlns="http://www.w3.org/2000/svg" width="36.826" height="35.521" viewBox="0 0 36.826 35.521">
  <g id="_8aWsNC.tif" data-name="8aWsNC.tif" transform="translate(-5054.585 -1395.1)">
    <g id="Group_12562" data-name="Group 12562" transform="translate(5054.585 1395.1)">
      <path id="Path_16741" data-name="Path 16741" d="M5091.411,1402.024h-7.33c.688,3.8,1.356,7.51,2.028,11.215.668,3.682,1.393,7.355,1.979,11.05a8.462,8.462,0,0,1-.158,3.2c-.513,2.155-1.855,3.094-4.064,3.095-7.531,0-15.063-.07-22.594.036a5.731,5.731,0,0,1-5.766-3.838,24.811,24.811,0,0,1-.92-3.115h7.361c-.9-4.992-1.78-9.875-2.665-14.756-.448-2.478-.944-4.949-1.34-7.436a9.643,9.643,0,0,1-.034-2.688,4.452,4.452,0,0,1,2.772-3.688h25.97a7.141,7.141,0,0,1,4.413,5.382c.107.444.232.884.349,1.325Zm-8.559-5.194h-20.343c-2.112,0-2.906.764-2.95,2.908a9.339,9.339,0,0,0,.161,1.823q1.333,7.492,2.7,14.979c.428,2.361.865,4.719,1.309,7.141h16.955c.127.556.207,1.05.354,1.523a5.635,5.635,0,0,0,2.232,3.215c1.162.759,2.267.54,2.718-.757a6.872,6.872,0,0,0,.352-3.25c-1.034-6.138-2.263-12.243-3.282-18.383C5082.561,1403.032,5081.234,1400.025,5082.852,1396.83Zm-1.907,32.024a17.247,17.247,0,0,1-1.339-2.567c-.26-.794-.682-.911-1.4-.908-6.742.022-13.482.013-20.224.013h-1.062c.6,2.38,1.956,3.462,4.23,3.462h19.8Zm2.929-28.61h5.37a18.851,18.851,0,0,0-.875-1.688c-.85-1.3-2.073-1.948-3-1.657C5084.383,1397.211,5083.76,1398.564,5083.875,1400.244Z" transform="translate(-5054.585 -1395.1)" fill="#666"/>
      <path id="Path_16742" data-name="Path 16742" d="M5102.137,1456.6v-1.588h15.274v1.588Z" transform="translate(-5091.785 -1441.973)" fill="#666"/>
      <path id="Path_16743" data-name="Path 16743" d="M5098.8,1436.74v-1.585h15.272v1.585Z" transform="translate(-5089.172 -1426.435)" fill="#666"/>
      <path id="Path_16744" data-name="Path 16744" d="M5105.459,1476.5v-1.576h15.268v1.576Z" transform="translate(-5094.384 -1457.546)" fill="#666"/>
      <path id="Path_16745" data-name="Path 16745" d="M5108.658,1496.359v-1.6h15.277v1.6Z" transform="translate(-5096.887 -1473.061)" fill="#666"/>
    </g>
  </g>
</svg>
