<svg id="LDd5FK.tif" xmlns="http://www.w3.org/2000/svg" width="32.926" height="41.166" viewBox="0 0 32.926 41.166">
  <g id="Group_12727" data-name="Group 12727">
    <path id="Path_17337" data-name="Path 17337" d="M1804.09,7590.028a1.576,1.576,0,0,1-1.143-1.794c.024-.316,0-.635,0-1-.589,0-1.134,0-1.679,0a1.582,1.582,0,0,1-1.78-1.779,2.555,2.555,0,0,1,.252-1.521c.042-.063-.037-.214-.073-.32a3.089,3.089,0,0,1,.034-2.339,1.267,1.267,0,0,1,.51-.544.567.567,0,0,0,.337-.6c-.022-.656-.016-1.313-.005-1.969a2.934,2.934,0,0,0-1.448-2.689,11.491,11.491,0,0,1-4.581-5.4,12.158,12.158,0,0,1,9.318-16.781c.079-.013.159-.022.239-.028a.611.611,0,0,1,.724.479.625.625,0,0,1-.557.706c-.534.121-1.082.192-1.605.349a10.5,10.5,0,0,0-7.22,6.7,10.735,10.735,0,0,0,4.323,12.947,4.185,4.185,0,0,1,2.013,3.781c-.011.722,0,1.444,0,2.2h7.734c0-.473-.022-.951.005-1.426a13.848,13.848,0,0,1,.195-2.189,3.491,3.491,0,0,1,1.526-2.145,12.364,12.364,0,0,0,3.34-3.149,10.978,10.978,0,0,0,1.835-4.577c.013-.079.024-.159.044-.236.1-.409.363-.613.7-.555s.528.338.47.761a11.84,11.84,0,0,1-1.214,3.887,11.566,11.566,0,0,1-4.053,4.526,3.292,3.292,0,0,0-1.652,3.2c.036.574-.009,1.153.017,1.728a.57.57,0,0,0,.228.4,1.573,1.573,0,0,1,.812,1.426,2.873,2.873,0,0,1-.252,1.681c-.035.052,0,.175.039.25a3.165,3.165,0,0,1,.129,2.12,1.412,1.412,0,0,1-1.376,1.091c-.651.022-1.3,0-2,0,0,.389-.02.722,0,1.051a1.558,1.558,0,0,1-1.14,1.754Zm1.542-8.367q-2.186,0-4.373,0c-.482,0-.556.079-.562.563,0,.107,0,.214,0,.321,0,.645.059.7.714.7h8.144c.994,0,.994,0,.984-1-.005-.53-.068-.592-.614-.592Zm.026,2.795H1801.6c-.907,0-.907,0-.9.905,0,.62.044.664.663.664h8.194c1,0,1,0,.985-.986-.005-.512-.071-.583-.583-.583Q1807.806,7584.453,1805.658,7584.456Zm-1.5,2.8c0,.445-.023.846.014,1.242a.446.446,0,0,0,.3.31c.759.027,1.52.026,2.279,0a.416.416,0,0,0,.3-.265c.035-.42.015-.845.015-1.29Z" transform="translate(-1789.168 -7548.862)" fill="#939393"/>
    <path id="Path_17338" data-name="Path 17338" d="M2111.9,7696.057a.744.744,0,0,1-.81.505c-.573-.019-1.147,0-1.72-.008a.6.6,0,1,1-.038-1.195c.626-.02,1.253-.006,1.88-.005a.784.784,0,0,1,.688.462Z" transform="translate(-2078.971 -7679.498)" fill="#939393"/>
    <path id="Path_17339" data-name="Path 17339" d="M1841.872,7596.428c0-.553-.005-1.1,0-1.65a.888.888,0,0,1,.98-1.007q.943-.024,1.888,0c.678.017.981.347.987,1.041,0,.442.01.884,0,1.326-.006.212.066.3.259.418a.916.916,0,0,0,1.4-.3,4.18,4.18,0,0,1,.592-.6.871.871,0,0,1,1.347,0q.71.681,1.391,1.393a.853.853,0,0,1,0,1.314c-.34.36-.709.693-1.04,1.062a.467.467,0,0,0-.074.4c.318.81.326.807,1.2.807.295,0,.59-.009.884,0a.84.84,0,0,1,.888.883c.018.669.014,1.34,0,2.009a.873.873,0,0,1-.944.96c-.481.017-.965-.014-1.445.016a.508.508,0,0,0-.363.25c-.337.766-.327.77.255,1.354.227.228.465.446.676.687a.845.845,0,0,1,0,1.228q-.712.763-1.477,1.477a.856.856,0,0,1-1.286-.029c-.36-.34-.693-.71-1.061-1.041a.47.47,0,0,0-.4-.069c-.8.311-.8.319-.8,1.17,0,.308.012.617,0,.924a.852.852,0,0,1-.9.882q-1.024.023-2.048,0a.855.855,0,0,1-.9-.915c-.015-.468-.016-.938,0-1.406.009-.248-.084-.346-.3-.478a.887.887,0,0,0-1.339.3,4.935,4.935,0,0,1-.65.655.854.854,0,0,1-1.257.012c-.509-.475-1-.967-1.478-1.477a.855.855,0,0,1,.042-1.288c.329-.352.674-.69,1.022-1.023a.336.336,0,0,0,.1-.447c-.344-.773-.335-.777-1.2-.777-.281,0-.563.009-.844,0a.876.876,0,0,1-.95-.955c-.012-.643-.011-1.286,0-1.929a.867.867,0,0,1,.966-.972c.482-.008.965.014,1.446-.013a.469.469,0,0,0,.334-.235c.35-.791.342-.794-.282-1.418-.189-.189-.383-.375-.567-.569a.876.876,0,0,1-.01-1.375q.669-.694,1.364-1.363a.868.868,0,0,1,1.347-.011c.352.329.691.673,1.022,1.023a.321.321,0,0,0,.446.1C1841.336,7596.639,1841.6,7596.544,1841.872,7596.428Zm-5.631,6.859h1.639c.64,0,.731.08.943.7a9.09,9.09,0,0,0,.423,1.037c.325.667.32.75-.217,1.288l-1.03,1.031.986,1.095c.424-.437.837-.855,1.241-1.282a.706.706,0,0,1,.908-.147c.422.2.851.386,1.289.545.552.2.653.316.655.9,0,.557,0,1.113,0,1.663h1.447c0-.595.013-1.168,0-1.741a.742.742,0,0,1,.579-.8c.427-.148.849-.319,1.26-.509.539-.25.684-.242,1.1.175.392.4.776.8,1.129,1.162l1.088-1.044c-.385-.367-.776-.73-1.156-1.1-.471-.464-.476-.588-.184-1.2a10.85,10.85,0,0,0,.454-1.11c.2-.569.311-.661.931-.662h1.629v-1.447c-.584,0-1.144-.01-1.7,0a.763.763,0,0,1-.833-.593,12.659,12.659,0,0,0-.527-1.3c-.224-.49-.217-.65.173-1.029.407-.4.83-.776,1.227-1.146l-1.05-1.1c-.421.427-.837.842-1.245,1.266a.712.712,0,0,1-.937.153,13.549,13.549,0,0,0-1.327-.558c-.5-.187-.6-.312-.6-.855,0-.559,0-1.119,0-1.679h-1.447c0,.582,0,1.129,0,1.677s-.1.67-.6.856a11.607,11.607,0,0,0-1.29.542.744.744,0,0,1-1-.161c-.392-.42-.8-.826-1.173-1.211l-1.081,1.02c.411.4.815.794,1.213,1.192s.4.542.174,1.029c-.18.387-.352.779-.494,1.181-.216.614-.326.707-.985.708h-1.6Z" transform="translate(-1827.352 -7586.094)" fill="#939393"/>
    <path id="Path_17340" data-name="Path 17340" d="M1954.794,7553.207a11.3,11.3,0,0,1,3.943,1.21,11.994,11.994,0,0,1,6.36,8.231c.082.351.135.709.182,1.067a.615.615,0,0,1-.5.744c-.311.048-.572-.171-.674-.548a21.129,21.129,0,0,0-.857-3.036,10.587,10.587,0,0,0-8.356-6.44,2.817,2.817,0,0,1-.314-.061.607.607,0,0,1-.485-.679A.617.617,0,0,1,1954.794,7553.207Z" transform="translate(-1936.822 -7548.809)" fill="#939393"/>
    <path id="Path_17341" data-name="Path 17341" d="M1937.72,7500.239c0,.307.013.614,0,.92a.616.616,0,0,1-.6.66.6.6,0,0,1-.586-.635q-.027-.96,0-1.921a.594.594,0,0,1,.581-.639c.337-.008.577.248.612.653,0,.026,0,.053,0,.08q0,.44,0,.881Z" transform="translate(-1920.671 -7498.625)" fill="#939393"/>
    <path id="Path_17342" data-name="Path 17342" d="M1741.428,7696.773c-.32,0-.641.008-.961,0a.551.551,0,0,1-.578-.549.522.522,0,0,1,.5-.611c.731-.029,1.464-.028,2.195.005a.509.509,0,0,1,.481.586.545.545,0,0,1-.558.565c-.359.019-.72,0-1.08,0Z" transform="translate(-1739.888 -7679.72)" fill="#939393"/>
    <path id="Path_17343" data-name="Path 17343" d="M1799.916,7558.218c-.114.136-.215.357-.38.425a.678.678,0,0,1-.588-.045c-.545-.488-1.061-1.011-1.557-1.549a.512.512,0,0,1,.07-.755.5.5,0,0,1,.725-.063c.548.506,1.065,1.044,1.583,1.581C1799.842,7557.888,1799.85,7558.029,1799.916,7558.218Z" transform="translate(-1792.632 -7551.472)" fill="#939393"/>
    <path id="Path_17344" data-name="Path 17344" d="M2059.361,7558.79c-.133-.105-.365-.2-.427-.361a.729.729,0,0,1,.048-.622,21.119,21.119,0,0,1,1.519-1.533.519.519,0,0,1,.759.05.5.5,0,0,1,.084.722c-.513.558-1.062,1.083-1.607,1.611C2059.668,7558.721,2059.542,7558.728,2059.361,7558.79Z" transform="translate(-2033.186 -7551.498)" fill="#939393"/>
    <path id="Path_17345" data-name="Path 17345" d="M1798,7819.651c-.494,0-.829-.547-.54-.886a19.456,19.456,0,0,1,1.6-1.618.577.577,0,0,1,.8.8c-.511.56-1.062,1.084-1.607,1.612A.625.625,0,0,1,1798,7819.651Z" transform="translate(-1792.719 -7791.369)" fill="#939393"/>
    <path id="Path_17346" data-name="Path 17346" d="M2059.538,7816.362a2.825,2.825,0,0,1,.493.3c.444.424.878.859,1.3,1.3a.6.6,0,1,1-.844.848,18.544,18.544,0,0,1-1.317-1.342.855.855,0,0,1-.123-.685C2059.1,7816.61,2059.361,7816.5,2059.538,7816.362Z" transform="translate(-2033.313 -7790.761)" fill="#939393"/>
    <path id="Path_17347" data-name="Path 17347" d="M1907.276,7663a3.224,3.224,0,1,1-3.2,3.238A3.224,3.224,0,0,1,1907.276,7663Zm2.033,3.228a2.015,2.015,0,0,0-4.029-.019,2.015,2.015,0,1,0,4.029.019Z" transform="translate(-1890.846 -7649.76)" fill="#939393"/>
  </g>
</svg>
