<svg xmlns="http://www.w3.org/2000/svg" width="32.04" height="37.517" viewBox="0 0 32.04 37.517">
  <g id="_1EPOjd.tif" data-name="1EPOjd.tif" transform="translate(-604.631 -7239.087)">
    <g id="Group_12725" data-name="Group 12725" transform="translate(604.831 7239.287)">
      <path id="Path_17328" data-name="Path 17328" d="M609.062,7239.287h23.185a3.129,3.129,0,0,1,2.173,3.42c-.057,4.106-.014,8.214-.026,12.321a.832.832,0,0,0,.539.935,2.5,2.5,0,0,1,1.538,2.421q.013,7.646,0,15.294a2.643,2.643,0,0,1-2.7,2.719q-13.112.019-26.224,0a2.627,2.627,0,0,1-2.7-2.646q-.028-9.894,0-19.787a2.445,2.445,0,0,1,1.532-2.349.829.829,0,0,0,.54-.935c-.015-2.657.042-5.316-.025-7.973A3.11,3.11,0,0,1,609.062,7239.287Zm26.346,21.635H605.935c-.013.253-.032.465-.032.677q0,5.871,0,11.742c0,1.384.595,1.973,2,1.974q12.75.006,25.5,0c1.428,0,2-.595,2-2.043q0-5.8,0-11.6Zm-2.15-15.639H608.073v6.038c3.318,0,6.575.028,9.83-.015a3.532,3.532,0,0,1,2.876,1.229c.755.846,1.587,1.622,2.364,2.448a2.127,2.127,0,0,0,1.673.7c2.606-.02,5.213-.007,7.819-.01.208,0,.417-.024.623-.038ZM605.9,7259.732h29.421c.317-1.933-.114-3.076-2.388-3-2.7.095-5.4.009-8.106.029a3.187,3.187,0,0,1-2.507-1.064c-.8-.868-1.661-1.685-2.466-2.551a2.2,2.2,0,0,0-1.724-.748c-3.426.016-6.852,0-10.278.01-1.348,0-1.94.606-1.952,1.947,0,.386,0,.772,0,1.158Zm2.124-15.621H633.3c0-.547,0-1.05,0-1.554,0-1.692-.5-2.183-2.211-2.183q-10.427,0-20.855,0a5.816,5.816,0,0,0-.866.039,1.515,1.515,0,0,0-1.332,1.409C607.991,7242.566,608.025,7243.313,608.025,7244.111Z" transform="translate(-604.831 -7239.287)" fill="#939393" stroke="#939393" stroke-width="0.4"/>
      <path id="Path_17329" data-name="Path 17329" d="M673.846,7399.749a7.623,7.623,0,0,1,.111-.922,1.443,1.443,0,0,1,1.51-1.1c1.062-.016,2.124,0,3.186,0,1.694,0,2.039.3,2.222,2.028.394,0,.8-.013,1.2,0a1.315,1.315,0,0,1,1.42,1.331q.048,3.441,0,6.883a1.28,1.28,0,0,1-1.35,1.323q-4.779.029-9.559,0a1.3,1.3,0,0,1-1.373-1.378q-.04-3.369,0-6.738a1.347,1.347,0,0,1,1.482-1.423C673.074,7399.74,673.455,7399.749,673.846,7399.749Zm8.583,3.968c-1.021.508-1.893.969-2.789,1.377a.885.885,0,0,0-.614.923c0,.774-.406,1.107-1.2,1.13-.29.008-.58.006-.869,0-.879-.016-1.209-.339-1.292-1.207-.021-.219-.073-.546-.218-.624-1.006-.549-2.041-1.045-3.161-1.6,0,1.413-.02,2.688.023,3.963a.717.717,0,0,0,.485.5q4.564.045,9.128,0a.668.668,0,0,0,.483-.437C682.446,7406.448,682.429,7405.148,682.429,7403.717Zm-5.018-2.874c-1.446,0-2.892-.016-4.337.015-.262,0-.752.228-.742.3.067.518-.4,1.174.353,1.538.932.45,1.848.935,2.784,1.377a.767.767,0,0,0,.564-.013,2.948,2.948,0,0,1,2.682.029.569.569,0,0,0,.44.029c1-.479,2-.955,2.973-1.483.617-.335.231-.957.26-1.441.006-.1-.46-.328-.711-.334C680.255,7400.826,678.833,7400.843,677.411,7400.843Zm2.248-1.13c.192-.708-.092-.921-.727-.9q-1.591.042-3.184,0c-.669-.018-.864.259-.681.9Zm-2.841,5.2v1.115H677.9v-1.115Z" transform="translate(-661.535 -7374.657)" fill="#939393" stroke="#939393" stroke-width="0.4"/>
      <path id="Path_17330" data-name="Path 17330" d="M652.261,7288.675h-9.187a1.237,1.237,0,0,1-.5-.012c-.264-.132-.665-.3-.7-.51-.087-.479.334-.555.724-.556l.289,0h18.809a1.248,1.248,0,0,1,.569.033c.2.116.46.347.454.519s-.276.394-.479.5c-.15.081-.377.022-.57.022Z" transform="translate(-636.468 -7280.552)" fill="#939393" stroke="#939393" stroke-width="0.4"/>
      <path id="Path_17331" data-name="Path 17331" d="M652.42,7302.574q4.63,0,9.26,0a1.978,1.978,0,0,1,.713.054c.165.066.379.3.369.441a.783.783,0,0,1-.359.533,1.378,1.378,0,0,1-.638.048q-9.44,0-18.881,0a1.247,1.247,0,0,1-.568-.035c-.181-.1-.4-.324-.406-.5a.713.713,0,0,1,.394-.5,1.8,1.8,0,0,1,.713-.05Q647.717,7302.572,652.42,7302.574Z" transform="translate(-636.512 -7293.355)" fill="#939393" stroke="#939393" stroke-width="0.4"/>
      <path id="Path_17332" data-name="Path 17332" d="M735.306,7318.649c-1.034,0-2.069,0-3.1,0-.405,0-.828-.012-.825-.555,0-.5.405-.524.782-.524h6.279c.375,0,.78.019.789.519.009.543-.41.562-.818.561C737.374,7318.646,736.34,7318.649,735.306,7318.649Z" transform="translate(-712.958 -7306.176)" fill="#939393" stroke="#939393" stroke-width="0.4"/>
      <path id="Path_17333" data-name="Path 17333" d="M635.531,7255.029c-.362.254-.586.526-.746.493-.214-.045-.38-.326-.566-.506.172-.172.342-.478.517-.481C634.947,7254.531,635.163,7254.784,635.531,7255.029Z" transform="translate(-629.941 -7252.316)" fill="#939393" stroke="#939393" stroke-width="0.4"/>
      <path id="Path_17334" data-name="Path 17334" d="M650.471,7254.97c-.338.279-.542.571-.7.549-.217-.029-.4-.3-.6-.467.159-.184.305-.5.478-.519C649.857,7254.516,650.09,7254.753,650.471,7254.97Z" transform="translate(-642.715 -7252.314)" fill="#939393" stroke="#939393" stroke-width="0.4"/>
      <path id="Path_17335" data-name="Path 17335" d="M665.4,7255.027c-.362.254-.585.528-.745.5-.214-.044-.38-.325-.567-.5.172-.172.34-.478.516-.482C664.81,7254.53,665.027,7254.782,665.4,7255.027Z" transform="translate(-655.46 -7252.316)" fill="#939393" stroke="#939393" stroke-width="0.4"/>
    </g>
  </g>
</svg>
