<svg xmlns="http://www.w3.org/2000/svg" width="43.08" height="24.207" viewBox="0 0 43.08 24.207">
  <g id="Y4ZxgT.tif" transform="translate(-976.304 -7941.289)">
    <g id="Group_12729" data-name="Group 12729" transform="translate(976.679 7941.75)">
      <path id="Path_17348" data-name="Path 17348" d="M1044.582,7959.762c-.25.192-.5.554-.748.553-4.267-.023-8.55.124-12.794-.217a5.26,5.26,0,0,1-4.706-6.827,5.173,5.173,0,0,1,2.434-2.977,1.4,1.4,0,0,0,.812-1.366,6.943,6.943,0,0,1,5.25-6.918,7.116,7.116,0,0,1,8.007,3.241,1.019,1.019,0,0,0,1.468.526,5.381,5.381,0,0,1,6.6,2.615,1.7,1.7,0,0,0,1.4.983,5.791,5.791,0,0,1,4.847,3.606,5.252,5.252,0,0,1-4.052,7.056,25.433,25.433,0,0,1-4.785.275c-.174,0-.357-.315-.536-.485.2-.152.39-.423.6-.437a40.349,40.349,0,0,0,4.138-.221,4.521,4.521,0,0,0,4.013-4.678,4.78,4.78,0,0,0-4.734-4.158,1.453,1.453,0,0,1-1.617-1.146,4.4,4.4,0,0,0-5.692-2.45c-.512.185-.993.452-1.614.739-.131-.294-.272-.6-.407-.914a6.265,6.265,0,0,0-7.176-3.638,5.9,5.9,0,0,0-4.732,6.2,1.6,1.6,0,0,1-.994,1.845,4.245,4.245,0,0,0-2.487,4.35,4.822,4.822,0,0,0,3.63,3.8,8.859,8.859,0,0,0,2.056.237c3.468.022,6.936.01,10.4.01h1.184Z" transform="translate(-1015.213 -7941.75)" fill="#939393" stroke="#939393" stroke-width="0.75"/>
      <path id="Path_17349" data-name="Path 17349" d="M990.088,7964.888a24.738,24.738,0,0,0-3.926.032,5.912,5.912,0,0,0-5.1,6.637c.04.586,0,.977-.643,1.3-2.211,1.1-3.219,2.962-2.768,4.892a4.92,4.92,0,0,0,4.751,3.685q9.911.091,19.823,0a4.855,4.855,0,0,0,4.858-3.931,4.658,4.658,0,0,0-4.725-5.119,1.472,1.472,0,0,1-1.573-1.113,4.48,4.48,0,0,0-6.076-2.39c-.4.18-.772.4-1.206.633-.588-.742.037-1.04.509-1.293a5.464,5.464,0,0,1,7.251,2.032,2.5,2.5,0,0,0,2,1.357,5.331,5.331,0,0,1,.056,10.586,10.682,10.682,0,0,1-1.955.187q-9.091.022-18.182.008a7.023,7.023,0,0,1-4.225-1.26,5.09,5.09,0,0,1,.209-8.626,1.786,1.786,0,0,0,.966-1.7A6.993,6.993,0,0,1,989,7964.17,4.926,4.926,0,0,1,990.088,7964.888Z" transform="translate(-976.679 -7959.019)" fill="#939393" stroke="#939393" stroke-width="0.75"/>
    </g>
  </g>
</svg>
