<svg xmlns="http://www.w3.org/2000/svg" width="1244" height="608" viewBox="0 0 1244 608">
  <rect id="Rectangle_4849" data-name="Rectangle 4849" width="1244" height="608" fill="#fff"/>
  <text id="Our_GIC_offerings_are_designed_to_support_across_maturity_levels" data-name="Our GIC offerings are designed to support across maturity levels" transform="translate(105)" font-size="24" font-family="Bitter-Bold, Bitter" font-weight="700"><tspan x="0" y="23">Our GIC offerings are designed to support across maturity levels</tspan></text>
  <path id="Path_16181" data-name="Path 16181" d="M69.608,307.04a1.984,1.984,0,0,0-.272,3.949l.216.024a1.8,1.8,0,0,0,.268.028,1.987,1.987,0,0,0,.259-3.956l-.194-.024A1.922,1.922,0,0,0,69.608,307.04Z" transform="translate(101.863 -9.991)" fill="#003d4f" fill-rule="evenodd"/>
  <path id="Path_16182" data-name="Path 16182" d="M85.565,307.341a1.983,1.983,0,0,0,0,3.966h.216a1.983,1.983,0,0,0,0-3.966Z" transform="translate(103.982 -9.951)" fill="#003d4f" fill-rule="evenodd"/>
  <path id="Path_16183" data-name="Path 16183" d="M55.064,300.917a1.983,1.983,0,0,0-1.219,3.556l.182.142a1.988,1.988,0,0,0,1.192.4,1.982,1.982,0,0,0,1.21-3.556l-.155-.127A2,2,0,0,0,55.064,300.917Z" transform="translate(99.93 -10.805)" fill="#003d4f" fill-rule="evenodd"/>
  <path id="Path_16184" data-name="Path 16184" d="M101.548,307.341a1.983,1.983,0,1,0,0,3.966h.2a1.983,1.983,0,1,0,0-3.966Z" transform="translate(106.104 -9.951)" fill="#003d4f" fill-rule="evenodd"/>
  <path id="Path_16185" data-name="Path 16185" d="M45.377,288.449a1.956,1.956,0,0,0-.771.159,1.988,1.988,0,0,0-1.051,2.606l.089.2a1.982,1.982,0,0,0,1.824,1.2,1.955,1.955,0,0,0,.785-.165,1.981,1.981,0,0,0,1.026-2.606l-.075-.183A1.981,1.981,0,0,0,45.377,288.449Z" transform="translate(98.644 -12.461)" fill="#003d4f" fill-rule="evenodd"/>
  <path id="Path_16186" data-name="Path 16186" d="M42.9,272.826a1.979,1.979,0,0,0-1.977,1.99v.2a1.985,1.985,0,1,0,3.969,0v-.2A1.984,1.984,0,0,0,42.9,272.826Z" transform="translate(98.316 -14.536)" fill="#003d4f" fill-rule="evenodd"/>
  <path id="Path_16187" data-name="Path 16187" d="M192.4,232.033a2.752,2.752,0,1,0,2.764,2.757A2.754,2.754,0,0,0,192.4,232.033Z" transform="translate(118.072 -19.955)" fill="#003d4f" fill-rule="evenodd"/>
  <path id="Path_16188" data-name="Path 16188" d="M212.112,240.161a4.408,4.408,0,1,1-4.407,4.414A4.416,4.416,0,0,1,212.112,240.161ZM78.033,158.377a36.89,36.89,0,0,0-11.23,1.746A37.332,37.332,0,0,0,48.454,173.28a36.4,36.4,0,0,0-7.232,21.874v76.854a1.651,1.651,0,1,0,3.3,0V195.154a33.509,33.509,0,0,1,33.509-33.479h98.927a33.554,33.554,0,0,1,10.344,1.632l.014.014a33.411,33.411,0,0,1,23.152,31.833v41.889a7.706,7.706,0,0,0,0,15.058v41.885a33.534,33.534,0,0,1-33.509,33.479H127.49a1.649,1.649,0,0,0,0,3.3h49.469a36.829,36.829,0,0,0,36.811-36.777V252.1a7.742,7.742,0,0,0,5.886-5.881H239.52a1.651,1.651,0,1,0,0-3.3H219.656a7.73,7.73,0,0,0-5.886-5.876V195.154a36.867,36.867,0,0,0-25.44-34.98c-.014-.014-.014-.014-.024-.014a36.928,36.928,0,0,0-11.347-1.783Z" transform="translate(98.355 -29.739)" fill="#003d4f" stroke="#fff" stroke-width="1" fill-rule="evenodd"/>
  <path id="Path_16189" data-name="Path 16189" d="M221.867,210.445a1.979,1.979,0,0,0-1.992,1.976v.22a1.985,1.985,0,1,0,3.969,0v-.22A1.977,1.977,0,0,0,221.867,210.445Z" transform="translate(122.087 -22.822)" fill="#003d4f" fill-rule="evenodd"/>
  <path id="Path_16190" data-name="Path 16190" d="M224.215,177.294a1.977,1.977,0,0,0-1.84,1.226l-.09.22a1.974,1.974,0,0,0,1.092,2.578,1.887,1.887,0,0,0,.744.142,1.971,1.971,0,0,0,1.836-1.233l.079-.193a1.987,1.987,0,0,0-1.068-2.592A2.02,2.02,0,0,0,224.215,177.294Z" transform="translate(122.389 -27.227)" fill="#003d4f" fill-rule="evenodd"/>
  <path id="Path_16191" data-name="Path 16191" d="M234.366,164.251a1.973,1.973,0,0,0-1.185.393l-.194.14a1.983,1.983,0,0,0,2.4,3.157l.169-.128a1.979,1.979,0,0,0-1.192-3.563Z" transform="translate(123.726 -28.959)" fill="#003d4f" fill-rule="evenodd"/>
  <path id="Path_16192" data-name="Path 16192" d="M221.867,193.71a1.991,1.991,0,0,0-1.992,1.989v.218a1.985,1.985,0,1,0,3.969,0V195.7A1.989,1.989,0,0,0,221.867,193.71Z" transform="translate(122.087 -25.046)" fill="#003d4f" fill-rule="evenodd"/>
  <path id="Path_16193" data-name="Path 16193" d="M221.867,247.215a1.982,1.982,0,0,0-1.992,1.979v.218a1.985,1.985,0,1,0,3.969,0v-.218A1.98,1.98,0,0,0,221.867,247.215Z" transform="translate(122.087 -17.938)" fill="#003d4f" fill-rule="evenodd"/>
  <path id="Path_16194" data-name="Path 16194" d="M222.539,230.958a4.408,4.408,0,1,1-4.421,4.414A4.413,4.413,0,0,1,222.539,230.958Zm0-3.3a7.71,7.71,0,1,0,7.708,7.715A7.717,7.717,0,0,0,222.539,227.657Z" transform="translate(121.416 -20.536)" fill="#003d4f" fill-rule="evenodd"/>
  <path id="Path_16195" data-name="Path 16195" d="M221.957,232.033a2.752,2.752,0,1,0,2.749,2.757A2.757,2.757,0,0,0,221.957,232.033Z" transform="translate(121.997 -19.955)" fill="#003d4f" fill-rule="evenodd"/>
  <path id="Path_16196" data-name="Path 16196" d="M371.343,232.033a2.752,2.752,0,1,0,2.764,2.757A2.754,2.754,0,0,0,371.343,232.033Z" transform="translate(141.844 -19.955)" fill="#003d4f" fill-rule="evenodd"/>
  <path id="Path_16197" data-name="Path 16197" d="M391.06,240.161a4.408,4.408,0,1,1-4.407,4.414A4.416,4.416,0,0,1,391.06,240.161ZM256.982,158.377a36.879,36.879,0,0,0-11.23,1.746,1.653,1.653,0,0,0,.5,3.225,1.664,1.664,0,0,0,.513-.079,33.465,33.465,0,0,1,10.214-1.594h98.925a33.549,33.549,0,0,1,10.344,1.632l.014.014a33.4,33.4,0,0,1,23.152,31.833v41.889a7.706,7.706,0,0,0,0,15.058v41.885a33.534,33.534,0,0,1-33.509,33.479H256.982a33.534,33.534,0,0,1-33.511-33.479V272.008a1.651,1.651,0,0,0-3.3,0v21.977a36.832,36.832,0,0,0,36.812,36.777h98.925a36.829,36.829,0,0,0,36.811-36.777V252.1a7.742,7.742,0,0,0,5.886-5.881h19.864a1.651,1.651,0,1,0,0-3.3H398.6a7.73,7.73,0,0,0-5.886-5.876V195.154a36.867,36.867,0,0,0-25.44-34.98.038.038,0,0,0-.024-.014,36.922,36.922,0,0,0-11.347-1.783Z" transform="translate(122.126 -29.739)" fill="#003d4f" stroke="#fff" stroke-width="1" fill-rule="evenodd"/>
  <path id="Path_16198" data-name="Path 16198" d="M483.94,158.082a1.983,1.983,0,0,0,0,3.966h.221a1.983,1.983,0,1,0,0-3.966Z" transform="translate(156.903 -29.778)" fill="#003d4f" fill-rule="evenodd"/>
  <path id="Path_16199" data-name="Path 16199" d="M467.2,158.082a1.983,1.983,0,1,0,0,3.966h.22a1.983,1.983,0,1,0,0-3.966Z" transform="translate(154.678 -29.778)" fill="#003d4f" fill-rule="evenodd"/>
  <path id="Path_16200" data-name="Path 16200" d="M517.429,158.277a1.982,1.982,0,0,0-.234,3.951l.217.025a1.332,1.332,0,0,0,.23.014,1.978,1.978,0,0,0,.231-3.942l-.231-.037C517.57,158.28,517.5,158.277,517.429,158.277Z" transform="translate(161.35 -29.753)" fill="#003d4f" fill-rule="evenodd"/>
  <path id="Path_16201" data-name="Path 16201" d="M500.682,158.082a1.983,1.983,0,0,0,0,3.966h.218a1.983,1.983,0,1,0,0-3.966Z" transform="translate(159.128 -29.778)" fill="#003d4f" fill-rule="evenodd"/>
  <path id="Path_16202" data-name="Path 16202" d="M450.459,158.082a1.983,1.983,0,1,0,0,3.966h.221a1.983,1.983,0,0,0,0-3.966Z" transform="translate(152.453 -29.778)" fill="#003d4f" fill-rule="evenodd"/>
  <path id="Path_16203" data-name="Path 16203" d="M433.72,158.082a1.983,1.983,0,1,0,0,3.966h.217a1.983,1.983,0,0,0,0-3.966Z" transform="translate(150.23 -29.778)" fill="#003d4f" fill-rule="evenodd"/>
  <path id="Path_16204" data-name="Path 16204" d="M400.892,232.033a2.752,2.752,0,1,0,2.763,2.757A2.754,2.754,0,0,0,400.892,232.033Z" transform="translate(145.769 -19.955)" fill="#003d4f" fill-rule="evenodd"/>
  <path id="Path_16205" data-name="Path 16205" d="M550.293,232.033a2.752,2.752,0,1,0,2.763,2.757A2.754,2.754,0,0,0,550.293,232.033Z" transform="translate(165.615 -19.955)" fill="#003d4f" fill-rule="evenodd"/>
  <path id="Path_16206" data-name="Path 16206" d="M401.473,239.966a4.408,4.408,0,1,1-4.408,4.414A4.416,4.416,0,0,1,401.473,239.966Zm169.248,0a4.408,4.408,0,1,1-4.408,4.414A4.416,4.416,0,0,1,570.721,239.966Zm-144.8-80.118a1.622,1.622,0,0,0-.506.079,36.77,36.77,0,0,0-18.35,13.157,36.4,36.4,0,0,0-7.232,21.874v41.889a7.705,7.705,0,0,0,0,15.058v41.885a36.832,36.832,0,0,0,36.812,36.776h98.925a36.83,36.83,0,0,0,36.812-36.776V251.9a7.743,7.743,0,0,0,5.885-5.881h19.866a1.651,1.651,0,1,0,0-3.3H578.263a7.731,7.731,0,0,0-5.885-5.876V194.958a36.871,36.871,0,0,0-25.44-34.98,1.649,1.649,0,1,0-1.028,3.133,33.427,33.427,0,0,1,23.167,31.846v41.889a7.705,7.705,0,0,0,0,15.058v41.885a33.534,33.534,0,0,1-33.511,33.479H436.641a33.534,33.534,0,0,1-33.511-33.479V251.9a7.706,7.706,0,0,0,0-15.058V194.958a33.41,33.41,0,0,1,23.3-31.885,1.653,1.653,0,0,0-.51-3.225Z" transform="translate(145.187 -29.544)" fill="#003d4f" stroke="#fff" stroke-width="1" fill-rule="evenodd"/>
  <path id="Path_16207" data-name="Path 16207" d="M580.434,240.192a4.408,4.408,0,1,1-4.42,4.414A4.412,4.412,0,0,1,580.434,240.192Zm35.154-82.043a36.333,36.333,0,0,0-11.216,1.749h-.014a36.846,36.846,0,0,0-25.582,35.031v42.144a7.706,7.706,0,0,0,0,15.058v41.616a36.837,36.837,0,0,0,36.812,36.79h98.925a36.835,36.835,0,0,0,36.812-36.79V271.78a1.651,1.651,0,1,0-3.3,0v21.967a33.536,33.536,0,0,1-33.511,33.489H615.589a33.536,33.536,0,0,1-33.511-33.489V252.131a7.706,7.706,0,0,0,0-15.058V194.929a33.415,33.415,0,0,1,23.283-31.888h.013a33.5,33.5,0,0,1,10.214-1.59h98.925a33.54,33.54,0,0,1,10.344,1.629,1.793,1.793,0,0,0,.513.079,1.652,1.652,0,0,0,.514-3.223,37.041,37.041,0,0,0-11.372-1.786Z" transform="translate(168.959 -29.77)" fill="#003d4f" stroke="#fff" stroke-width="1" fill-rule="evenodd"/>
  <path id="Path_16208" data-name="Path 16208" d="M729.164,247.215a1.982,1.982,0,0,0-1.992,1.979v.218a1.985,1.985,0,1,0,3.97,0v-.218A1.98,1.98,0,0,0,729.164,247.215Z" transform="translate(189.478 -17.938)" fill="#003d4f" fill-rule="evenodd"/>
  <path id="Path_16209" data-name="Path 16209" d="M729.164,216.79a1.984,1.984,0,0,0-1.992,1.989V219a1.985,1.985,0,0,0,3.97,0v-.221A1.982,1.982,0,0,0,729.164,216.79Z" transform="translate(189.478 -21.98)" fill="#003d4f" fill-rule="evenodd"/>
  <path id="Path_16210" data-name="Path 16210" d="M721.492,168.487a1.982,1.982,0,0,0-1.5,3.284l.142.152a1.986,1.986,0,0,0,3.009-2.592l-.155-.165A1.985,1.985,0,0,0,721.492,168.487Z" transform="translate(188.459 -28.396)" fill="#003d4f" fill-rule="evenodd"/>
  <path id="Path_16211" data-name="Path 16211" d="M729.164,200.067a1.983,1.983,0,0,0-1.992,1.99v.216a1.985,1.985,0,0,0,3.97,0v-.216A1.98,1.98,0,0,0,729.164,200.067Z" transform="translate(189.478 -24.201)" fill="#003d4f" fill-rule="evenodd"/>
  <path id="Path_16212" data-name="Path 16212" d="M728.667,183.369a2.1,2.1,0,0,0-.351.031,1.984,1.984,0,0,0-1.606,2.3l.039.216a1.984,1.984,0,0,0,1.953,1.632,1.452,1.452,0,0,0,.349-.028,2,2,0,0,0,1.619-2.3l-.037-.221A2,2,0,0,0,728.667,183.369Z" transform="translate(189.412 -26.42)" fill="#003d4f" fill-rule="evenodd"/>
  <path id="Path_16213" data-name="Path 16213" d="M579.853,232.033a2.752,2.752,0,1,0,2.749,2.757A2.757,2.757,0,0,0,579.853,232.033Z" transform="translate(169.541 -19.955)" fill="#003d4f" fill-rule="evenodd"/>
  <path id="Path_16214" data-name="Path 16214" d="M729.254,232.033A2.752,2.752,0,1,0,732,234.79,2.757,2.757,0,0,0,729.254,232.033Z" transform="translate(189.387 -19.955)" fill="#003d4f" fill-rule="evenodd"/>
  <path id="Path_16215" data-name="Path 16215" d="M729.836,230.958a4.408,4.408,0,1,1-4.422,4.414A4.413,4.413,0,0,1,729.836,230.958Zm0-3.3a7.71,7.71,0,1,0,7.529,9.36h19.879a1.651,1.651,0,0,0,0-3.3H737.365A7.715,7.715,0,0,0,729.836,227.657Z" transform="translate(188.806 -20.536)" fill="#003d4f" fill-rule="evenodd"/>
  <path id="Path_16216" data-name="Path 16216" d="M861.406,307.341a1.983,1.983,0,1,0,0,3.966h.218a1.983,1.983,0,0,0,0-3.966Z" transform="translate(207.045 -9.951)" fill="#003d4f" fill-rule="evenodd"/>
  <path id="Path_16217" data-name="Path 16217" d="M844.665,307.341a1.983,1.983,0,1,0,0,3.966h.216a1.983,1.983,0,0,0,0-3.966Z" transform="translate(204.821 -9.951)" fill="#003d4f" fill-rule="evenodd"/>
  <path id="Path_16218" data-name="Path 16218" d="M908.182,273.665a1.983,1.983,0,0,0-1.992,1.989v.218a1.985,1.985,0,0,0,3.969,0v-.218A1.982,1.982,0,0,0,908.182,273.665Z" transform="translate(213.259 -14.424)" fill="#003d4f" fill-rule="evenodd"/>
  <path id="Path_16219" data-name="Path 16219" d="M905.047,289.914a1.989,1.989,0,0,0-1.785,1.115l-.089.182a1.979,1.979,0,0,0,.886,2.654,2.035,2.035,0,0,0,.889.206,1.994,1.994,0,0,0,1.784-1.091l.1-.216a1.974,1.974,0,0,0-.913-2.644A1.946,1.946,0,0,0,905.047,289.914Z" transform="translate(212.83 -12.266)" fill="#003d4f" fill-rule="evenodd"/>
  <path id="Path_16220" data-name="Path 16220" d="M878.379,307.317h-.093l-.2.014a1.983,1.983,0,0,0,.062,3.966.175.175,0,0,0,.066-.01h.23a1.986,1.986,0,0,0-.061-3.97Z" transform="translate(209.268 -9.954)" fill="#003d4f" fill-rule="evenodd"/>
  <path id="Path_16221" data-name="Path 16221" d="M894.111,302.294a2,2,0,0,0-1.09.326l-.165.114a1.977,1.977,0,0,0-.6,2.737,2.006,2.006,0,0,0,1.682.909,2.035,2.035,0,0,0,1.067-.307l.19-.127a1.988,1.988,0,0,0-1.082-3.652Z" transform="translate(211.366 -10.621)" fill="#003d4f" fill-rule="evenodd"/>
  <path id="Path_16222" data-name="Path 16222" d="M759.382,240.161a4.408,4.408,0,1,1-4.42,4.414A4.413,4.413,0,0,1,759.382,240.161Zm35.244-81.784a36.889,36.889,0,0,0-11.23,1.746h-.01A36.855,36.855,0,0,0,757.8,195.154v41.861a7.718,7.718,0,0,0,0,15.11v41.861a36.843,36.843,0,0,0,36.825,36.777h49.458a1.649,1.649,0,1,0,0-3.3H794.626a33.525,33.525,0,0,1-33.511-33.479v-41.9a7.716,7.716,0,0,0,0-15.034v-41.9a33.394,33.394,0,0,1,23.27-31.875c0-.01.014-.01.014-.01a33.509,33.509,0,0,1,10.227-1.594h98.912a33.5,33.5,0,0,1,33.511,33.479v76.854a1.659,1.659,0,0,0,3.318,0V195.154a36.814,36.814,0,0,0-36.829-36.777Z" transform="translate(192.73 -29.739)" fill="#003d4f" stroke="#fff" stroke-width="1" fill-rule="evenodd"/>
  <path id="Path_16223" data-name="Path 16223" d="M758.8,232.033a2.752,2.752,0,1,0,2.751,2.757A2.757,2.757,0,0,0,758.8,232.033Z" transform="translate(193.312 -19.955)" fill="#003d4f" fill-rule="evenodd"/>
  <path id="Path_16224" data-name="Path 16224" d="M588.9,371.49H957.791l10.1,21.27-10.1,21.272H588.9Z" transform="translate(171.108 42.134)" fill-rule="evenodd"/>
  <path id="Path_16225" data-name="Path 16225" d="M588.9,371.49H957.791l10.1,21.27-10.1,21.272H588.9Z" transform="translate(171.108 42.134)" fill="none" stroke="#fff" stroke-linejoin="round" stroke-width="2"/>
  <path id="Path_16226" data-name="Path 16226" d="M302.793,371.49H686.561l7.035,21.27-7.035,21.272H302.793Z" transform="translate(133.104 42.134)" fill="#003d4f" fill-rule="evenodd"/>
  <path id="Path_16227" data-name="Path 16227" d="M302.793,371.49H686.561l7.035,21.27-7.035,21.272H302.793Z" transform="translate(133.104 42.134)" fill="none" stroke="#fff" stroke-linejoin="round" stroke-width="2"/>
  <path id="Path_16228" data-name="Path 16228" d="M40.928,371.49h342l9.552,21.27-9.552,21.272h-342Z" transform="translate(98.316 42.134)" fill="#cc850a" fill-rule="evenodd"/>
  <path id="Path_16229" data-name="Path 16229" d="M40.928,371.49h342l9.552,21.27-9.552,21.272h-342Z" transform="translate(98.316 42.134)" fill="none" stroke="#fff" stroke-linejoin="round" stroke-width="2"/>
  <path id="Path_16230" data-name="Path 16230" d="M40.927,343.777h990.216l9.539,20.473-9.539,20.473H40.927Z" transform="translate(98.316 0.066)" fill="#666" fill-rule="evenodd"/>
  <path id="Path_16234" data-name="Path 16234" d="M25.478,158.066V269.888" transform="translate(81.438 -36)" fill="rgba(0,0,0,0)" fill-rule="evenodd"/>
  <path id="Path_16235" data-name="Path 16235" d="M25.478,163.694V311.583" transform="translate(90.764 -33.514)" fill="none" stroke="gray" stroke-linejoin="round" stroke-width="1"/>
  <path id="Path_16237" data-name="Path 16237" d="M25.478,373.971V487.35" transform="translate(81.438 -3.754)" fill="rgba(0,0,0,0)" fill-rule="evenodd"/>
  <path id="Path_16238" data-name="Path 16238" d="M25.478,373.971V528.593" transform="translate(90.764 38.992)" fill="none" stroke="gray" stroke-linejoin="round" stroke-width="1"/>
  <path id="Path_16240" data-name="Path 16240" d="M116.647,173.1a2.013,2.013,0,0,1,2.009,2.013,2.011,2.011,0,1,1-4.022,0A2.014,2.014,0,0,1,116.647,173.1Zm0-1.137a3.163,3.163,0,1,0,3.178,3.15A3.177,3.177,0,0,0,116.647,171.967Z" transform="translate(107.951 -27.934)" fill="#003d4f" fill-rule="evenodd"/>
  <path id="Path_16241" data-name="Path 16241" d="M93.278,205.745a.567.567,0,0,0-.565.571v3.834a.6.6,0,0,0,.565.6.606.606,0,0,0,.6-.6v-3.834A.579.579,0,0,0,93.278,205.745Z" transform="translate(105.194 -23.447)" fill="#003d4f" fill-rule="evenodd"/>
  <path id="Path_16242" data-name="Path 16242" d="M114.089,190.916a.614.614,0,0,0-.417.154.627.627,0,0,0,0,.838l2.548,2.521a.476.476,0,0,0,.39.181.587.587,0,0,0,.421-.181l2.516-2.521a.578.578,0,0,0,0-.838.534.534,0,0,0-.391-.154.61.61,0,0,0-.416.154l-2.131,2.131-2.131-2.131A.533.533,0,0,0,114.089,190.916Z" transform="translate(107.958 -25.417)" fill="#003d4f" fill-rule="evenodd"/>
  <path id="Path_16243" data-name="Path 16243" d="M116.313,186.9a.572.572,0,0,0-.572.571v7.076a.585.585,0,1,0,1.17,0v-7.076A.575.575,0,0,0,116.313,186.9Z" transform="translate(108.254 -25.951)" fill="#003d4f" fill-rule="evenodd"/>
  <path id="Path_16244" data-name="Path 16244" d="M101.119,189.068a.586.586,0,0,0-.571.571v3.593a.586.586,0,0,0,.571.572h3.594a.569.569,0,0,0,.571-.572.577.577,0,0,0-.571-.6h-3v-3A.6.6,0,0,0,101.119,189.068Z" transform="translate(106.236 -25.662)" fill="#003d4f" fill-rule="evenodd"/>
  <path id="Path_16245" data-name="Path 16245" d="M106.15,187.795a.614.614,0,0,0-.417.181l-5,5.009a.541.541,0,0,0,0,.807.509.509,0,0,0,.39.181.575.575,0,0,0,.417-.181l5.009-5a.548.548,0,0,0,0-.812A.533.533,0,0,0,106.15,187.795Z" transform="translate(106.236 -25.832)" fill="#003d4f" fill-rule="evenodd"/>
  <path id="Path_16246" data-name="Path 16246" d="M131.933,189.068a.568.568,0,0,0-.571.571v3h-3a.6.6,0,0,0-.6.6.6.6,0,0,0,.6.572h3.573a.568.568,0,0,0,.566-.572v-3.593A.568.568,0,0,0,131.933,189.068Z" transform="translate(109.852 -25.662)" fill="#003d4f" fill-rule="evenodd"/>
  <path id="Path_16247" data-name="Path 16247" d="M127.085,187.795a.614.614,0,0,0-.417.181.606.606,0,0,0,0,.812l5.009,5a.584.584,0,0,0,.421.181.574.574,0,0,0,.417-.181.589.589,0,0,0,0-.807l-5.037-5.009A.538.538,0,0,0,127.085,187.795Z" transform="translate(109.686 -25.832)" fill="#003d4f" fill-rule="evenodd"/>
  <path id="Path_16248" data-name="Path 16248" d="M113.281,178.373a3.646,3.646,0,0,0-3.626,3.657v4.321a.551.551,0,0,0,.566.571.568.568,0,0,0,.571-.571V182.03a2.484,2.484,0,0,1,2.489-2.488h7.738a2.5,2.5,0,0,1,2.489,2.488v4.321a.572.572,0,0,0,1.143,0V182.03a3.65,3.65,0,0,0-3.632-3.657Z" transform="translate(107.446 -27.083)" fill="#003d4f" fill-rule="evenodd"/>
  <path id="Path_16249" data-name="Path 16249" d="M112.772,181.5a.6.6,0,0,0-.6.6v3.839a.579.579,0,0,0,.6.571.567.567,0,0,0,.565-.571V182.1A.59.59,0,0,0,112.772,181.5Z" transform="translate(107.779 -26.668)" fill="#003d4f" fill-rule="evenodd"/>
  <path id="Path_16250" data-name="Path 16250" d="M119.914,181.5a.6.6,0,0,0-.571.6v3.839a.585.585,0,0,0,1.169,0V182.1A.6.6,0,0,0,119.914,181.5Z" transform="translate(108.732 -26.668)" fill="#003d4f" fill-rule="evenodd"/>
  <path id="Path_16251" data-name="Path 16251" d="M108.77,184.91a.572.572,0,0,0,0,1.143h17.153a.572.572,0,0,0,0-1.143Z" transform="translate(107.252 -26.215)" fill="#003d4f" fill-rule="evenodd"/>
  <path id="Path_16252" data-name="Path 16252" d="M113.281,202.62a3.621,3.621,0,0,0-3.626,3.631v4.314a.578.578,0,0,0,.566.6.6.6,0,0,0,.571-.6v-4.314a2.5,2.5,0,0,1,2.489-2.489h7.738a2.519,2.519,0,0,1,2.489,2.489v4.314a.572.572,0,1,0,1.143,0v-4.314a3.625,3.625,0,0,0-3.632-3.631Z" transform="translate(107.446 -23.862)" fill="#003d4f" fill-rule="evenodd"/>
  <path id="Path_16253" data-name="Path 16253" d="M116.647,197.359a2.008,2.008,0,1,1-2.013,2.009A2.01,2.01,0,0,1,116.647,197.359Zm0-1.169a3.177,3.177,0,1,0,3.178,3.178A3.2,3.2,0,0,0,116.647,196.19Z" transform="translate(107.951 -24.717)" fill="#003d4f" fill-rule="evenodd"/>
  <path id="Path_16254" data-name="Path 16254" d="M112.772,205.745a.579.579,0,0,0-.6.571v3.834a.606.606,0,0,0,.6.6.6.6,0,0,0,.565-.6v-3.834A.567.567,0,0,0,112.772,205.745Z" transform="translate(107.779 -23.447)" fill="#003d4f" fill-rule="evenodd"/>
  <path id="Path_16255" data-name="Path 16255" d="M119.914,205.745a.571.571,0,0,0-.571.571v3.834a.585.585,0,1,0,1.169,0v-3.834A.574.574,0,0,0,119.914,205.745Z" transform="translate(108.732 -23.447)" fill="#003d4f" fill-rule="evenodd"/>
  <path id="Path_16256" data-name="Path 16256" d="M108.77,209.134a.567.567,0,0,0-.571.565.579.579,0,0,0,.571.6h17.153a.579.579,0,0,0,.571-.6.567.567,0,0,0-.571-.565Z" transform="translate(107.252 -22.997)" fill="#003d4f" fill-rule="evenodd"/>
  <path id="Path_16257" data-name="Path 16257" d="M132.742,202.62a3.624,3.624,0,0,0-3.631,3.631v4.314a.572.572,0,1,0,1.143,0v-4.314a2.519,2.519,0,0,1,2.488-2.489h7.738a2.5,2.5,0,0,1,2.489,2.489v4.314a.585.585,0,1,0,1.169,0v-4.314a3.647,3.647,0,0,0-3.658-3.631Z" transform="translate(110.03 -23.862)" fill="#003d4f" fill-rule="evenodd"/>
  <path id="Path_16258" data-name="Path 16258" d="M136.1,197.359a2.008,2.008,0,1,1-2.007,2.009A2.011,2.011,0,0,1,136.1,197.359Zm0-1.169a3.177,3.177,0,1,0,3.183,3.178A3.2,3.2,0,0,0,136.1,196.19Z" transform="translate(110.537 -24.717)" fill="#003d4f" fill-rule="evenodd"/>
  <path id="Path_16259" data-name="Path 16259" d="M132.222,205.745a.549.549,0,0,0-.566.571v3.834a.576.576,0,0,0,.566.6.6.6,0,0,0,.571-.6v-3.834A.571.571,0,0,0,132.222,205.745Z" transform="translate(110.368 -23.447)" fill="#003d4f" fill-rule="evenodd"/>
  <path id="Path_16260" data-name="Path 16260" d="M139.4,205.745a.575.575,0,0,0-.6.571v3.834a.585.585,0,1,0,1.169,0v-3.834A.571.571,0,0,0,139.4,205.745Z" transform="translate(111.317 -23.447)" fill="#003d4f" fill-rule="evenodd"/>
  <path id="Path_16261" data-name="Path 16261" d="M128.224,209.134a.584.584,0,0,0-.565.565.6.6,0,0,0,.565.6h17.159a.578.578,0,0,0,.566-.6.566.566,0,0,0-.566-.565Z" transform="translate(109.838 -22.997)" fill="#003d4f" fill-rule="evenodd"/>
  <path id="Path_16262" data-name="Path 16262" d="M93.831,202.62a3.649,3.649,0,0,0-3.664,3.631v4.314a.606.606,0,0,0,.6.6.6.6,0,0,0,.565-.6v-4.314a2.5,2.5,0,0,1,2.495-2.489h7.706a2.5,2.5,0,0,1,2.489,2.489v4.314a.585.585,0,1,0,1.17,0v-4.314a3.648,3.648,0,0,0-3.659-3.631Z" transform="translate(104.856 -23.862)" fill="#003d4f" fill-rule="evenodd"/>
  <path id="Path_16263" data-name="Path 16263" d="M97.187,197.359a2.008,2.008,0,0,1,0,4.016,2.008,2.008,0,1,1,0-4.016Zm0-1.169a3.177,3.177,0,1,0,3.15,3.178A3.179,3.179,0,0,0,97.187,196.19Z" transform="translate(105.367 -24.717)" fill="#003d4f" fill-rule="evenodd"/>
  <path id="Path_16264" data-name="Path 16264" d="M100.454,205.745a.552.552,0,0,0-.571.571v3.834a.572.572,0,1,0,1.143,0v-3.834A.553.553,0,0,0,100.454,205.745Z" transform="translate(106.147 -23.447)" fill="#003d4f" fill-rule="evenodd"/>
  <path id="Path_16265" data-name="Path 16265" d="M89.313,209.134a.592.592,0,0,0-.6.565.6.6,0,0,0,.6.6h17.153a.6.6,0,0,0,.571-.6.589.589,0,0,0-.571-.565Z" transform="translate(104.664 -22.997)" fill="#003d4f" fill-rule="evenodd"/>
  <path id="Path_16266" data-name="Path 16266" d="M846.021,173.954l2.795.382L848.5,176.4a2.131,2.131,0,0,0,1.809,2.382,1.788,1.788,0,0,0,.326.028,1.969,1.969,0,0,0,1.23-.441l1.683-1.238,1.683,2.255-1.651,1.238a2.135,2.135,0,0,0-.445,2.986,2.284,2.284,0,0,0,1.4.826l2.066.285-.413,2.795-2.032-.287a2.461,2.461,0,0,0-.3-.02,2.114,2.114,0,0,0-2.113,1.8,2.16,2.16,0,0,0,.412,1.589l1.237,1.651-2.254,1.683-1.238-1.651a2.121,2.121,0,0,0-1.7-.835,2.167,2.167,0,0,0-1.289.423,2.126,2.126,0,0,0-.825,1.4L845.8,195.3l-2.764-.383.285-2.063a2.113,2.113,0,0,0-1.809-2.385,1.975,1.975,0,0,0-.317-.025,2.168,2.168,0,0,0-1.24.408L838.3,192.09l-1.716-2.255,1.653-1.237a2.1,2.1,0,0,0,.443-2.954,2.146,2.146,0,0,0-1.4-.825l-2.065-.287.415-2.8,2.033.287a2.027,2.027,0,0,0,.3.02,2.11,2.11,0,0,0,1.7-3.387L838.43,177l2.256-1.682,1.238,1.649a2.123,2.123,0,0,0,1.7.836,2.167,2.167,0,0,0,1.286-.423,2.2,2.2,0,0,0,.826-1.4Zm-21.249,20.361a13.342,13.342,0,0,0,2.6,3.779,2.778,2.778,0,0,1-3.59,1.683,2.822,2.822,0,0,1-1.716-3.589,2.851,2.851,0,0,1,2.668-1.874Zm-1.111-3.749a12.712,12.712,0,0,0,.539,2.382,4.238,4.238,0,0,0,.544,8.444c.156,0,.314-.01.474-.026a4.319,4.319,0,0,0,3.27-2.288c.382.319.794.6,1.206.889a3.341,3.341,0,0,1,1.4,1.813l-1.493,1.493-1.461-1.017a1.493,1.493,0,0,0-.794-.228,1.423,1.423,0,0,0-1.175.609,1.046,1.046,0,0,0-.223.506l-.38,1.749h-1.683l-.351-1.749a1.407,1.407,0,0,0-1.388-1.109,1.457,1.457,0,0,0-.3.031,1,1,0,0,0-.506.223l-1.464.984-1.3-1.271,1.015-1.462a1.423,1.423,0,0,0-.349-1.97,1.52,1.52,0,0,0-.506-.222l-1.78-.38v-1.653l1.78-.381a1.417,1.417,0,0,0,1.078-1.683,1.16,1.16,0,0,0-.223-.509l-1.015-1.46,1.3-1.271,1.464.986a1.4,1.4,0,0,0,.8.25,1.424,1.424,0,0,0,1.167-.6,1.46,1.46,0,0,0,.221-.509Zm16.07,17.883v1.4h-5.622v-1.4Zm0,2.795v.732a1.41,1.41,0,0,1-1.4,1.4h-2.826a1.41,1.41,0,0,1-1.4-1.4v-.732Zm5.717-38.816a.726.726,0,0,0-.728.6L844.3,175.8a.7.7,0,0,1-.728.6.4.4,0,0,1-.064,0,.607.607,0,0,1-.445-.285l-1.683-2.223a.663.663,0,0,0-.547-.283.7.7,0,0,0-.437.156l-2.13,1.587q-.714-.071-1.43-.07t-1.427.07a13.42,13.42,0,0,0-11.849,12.008c0,.221-.033.412-.033.6h-.221a.708.708,0,0,0-.668.572l-.509,2.319-1.936-1.367a.734.734,0,0,0-.4-.121.654.654,0,0,0-.492.218l-2.125,2.129a.675.675,0,0,0-.1.888l1.333,1.939-2.318.506a.691.691,0,0,0-.539.7v2.8a.686.686,0,0,0,.572.7l2.318.509-1.366,1.937a.674.674,0,0,0,.1.888l2.125,2.129a.705.705,0,0,0,.489.2.645.645,0,0,0,.4-.139l1.936-1.334.509,2.319a.688.688,0,0,0,.7.572h2.795a.69.69,0,0,0,.7-.572l.506-2.319,1.938,1.367a.689.689,0,0,0,.377.111.727.727,0,0,0,.511-.207l1.111-1.111v2.032a2.832,2.832,0,0,0,1.4,2.415v3.939a2.833,2.833,0,0,0,2.825,2.826h2.826a2.832,2.832,0,0,0,2.828-2.826v-3.939a2.827,2.827,0,0,0,1.4-2.415v-2.794a3.5,3.5,0,0,1,1.653-2.891,12.557,12.557,0,0,0,1.649-1.271l-.952-1.048a13.108,13.108,0,0,1-1.46,1.144,4.739,4.739,0,0,0-2.288,4.066v2.794a1.417,1.417,0,0,1-1.43,1.4h-5.622a1.417,1.417,0,0,1-1.427-1.4v-2.857a4.755,4.755,0,0,0-2.225-4,11.948,11.948,0,0,1,6.32-22.077c-.031.033-.031.033-.031.063a.8.8,0,0,0,.127.542l1.653,2.223a.626.626,0,0,1,.063.761.752.752,0,0,1-.623.355.431.431,0,0,1-.076,0l-2.764-.381a.684.684,0,0,0-.794.572l-.6,4.193a.723.723,0,0,0,.6.825l2.731.382a.689.689,0,0,1,.6.8.872.872,0,0,1-.256.476l-2.223,1.651a.707.707,0,0,0-.16.984l2.542,3.4a.739.739,0,0,0,.57.283.617.617,0,0,0,.415-.157L840.781,192a.735.735,0,0,1,.428-.135.706.706,0,0,1,.556.261.833.833,0,0,1,.157.539l-.412,2.731a.715.715,0,0,0,.6.8l4.192.6c.033,0,.063.031.1.031a.719.719,0,0,0,.7-.636l.412-2.731a.693.693,0,0,1,.686-.613.52.52,0,0,1,.109.01.613.613,0,0,1,.443.283l1.683,2.225a.7.7,0,0,0,.557.262.734.734,0,0,0,.427-.135l3.4-2.541a.733.733,0,0,0,.127-.984l-1.651-2.223a.717.717,0,0,1-.063-.8.76.76,0,0,1,.6-.331.551.551,0,0,1,.129.015l2.731.38a.746.746,0,0,0,.109.01.72.72,0,0,0,.686-.613l.6-4.194a.708.708,0,0,0-.6-.792l-2.731-.383a.706.706,0,0,1-.6-.794.862.862,0,0,1,.254-.476l2.221-1.654a.747.747,0,0,0,.16-1.015l-2.541-3.366a.756.756,0,0,0-.59-.291.638.638,0,0,0-.394.131l-2.223,1.683a.747.747,0,0,1-.428.134.7.7,0,0,1-.556-.261.833.833,0,0,1-.16-.539l.412-2.764a.733.733,0,0,0-.6-.794l-4.194-.6A.592.592,0,0,0,845.449,172.428Z" transform="translate(201.22 -27.873)" fill="#003d4f" fill-rule="evenodd"/>
  <path id="Path_16267" data-name="Path 16267" d="M843.027,179.633a4.224,4.224,0,1,1-4.255,4.224A4.224,4.224,0,0,1,843.027,179.633Zm0-1.427a5.654,5.654,0,1,0,5.625,5.652A5.644,5.644,0,0,0,843.027,178.206Z" transform="translate(204.117 -27.105)" fill="#003d4f" fill-rule="evenodd"/>
  <path id="Path_16268" data-name="Path 16268" d="M833.784,199.85v2.129h1.431V199.85Z" transform="translate(203.641 -24.23)" fill="#003d4f" fill-rule="evenodd"/>
  <path id="Path_16269" data-name="Path 16269" d="M830.319,179.383a9.873,9.873,0,0,0,1.653,17.565,4.51,4.51,0,0,1,2.888,4.224h1.431a5.884,5.884,0,0,0-3.812-5.526,8.469,8.469,0,0,1-1.427-15.055Z" transform="translate(202.565 -26.949)" fill="#003d4f" fill-rule="evenodd"/>
  <path id="Path_16270" data-name="Path 16270" d="M846.263,195.478v1.427h4.923v-1.427Z" transform="translate(205.298 -24.811)" fill="#003d4f" fill-rule="evenodd"/>
  <path id="Path_16271" data-name="Path 16271" d="M846.146,198.758l-.922,1.081,4.258,3.525.888-1.081Z" transform="translate(205.16 -24.375)" fill="#003d4f" fill-rule="evenodd"/>
  <path id="Path_16272" data-name="Path 16272" d="M842.505,200.467v4.956h1.43v-4.956Z" transform="translate(204.798 -24.148)" fill="#003d4f" fill-rule="evenodd"/>
  <path id="Path_16273" data-name="Path 16273" d="M821.826,181.794l-5.622,1.431.319,1.364,5.654-1.427Z" transform="translate(201.305 -26.629)" fill="#003d4f" fill-rule="evenodd"/>
  <path id="Path_16274" data-name="Path 16274" d="M818.035,175.654l-.792,1.175,4.923,3.525.825-1.144Z" transform="translate(201.443 -27.444)" fill="#003d4f" fill-rule="evenodd"/>
  <path id="Path_16275" data-name="Path 16275" d="M823.936,172.289l-1.366.349L824,178.26l1.365-.349Z" transform="translate(202.15 -27.891)" fill="#003d4f" fill-rule="evenodd"/>
  <path id="Path_16276" data-name="Path 16276" d="M478.727,172.329c-.291,0-.585.009-.876.027a45.843,45.843,0,0,0-6.859.988,12.772,12.772,0,0,0-7.1,3.416,13.6,13.6,0,0,0-2.831,4.645,16.44,16.44,0,0,0-.693,2.56,8.889,8.889,0,0,1-.614,1.6c-.133.322-.293.64-.4.989a2.219,2.219,0,0,0-.213,1.175,2.8,2.8,0,0,0,1.04,1.574c.347.321.587.561.587.747a1.487,1.487,0,0,1-.131.321,25.769,25.769,0,0,1-3.1,5.017,3.023,3.023,0,0,0-.933,2.082,2.256,2.256,0,0,0,1.04,1.333,4.694,4.694,0,0,0,.721.428c.322.161.828.427.855.614a1.033,1.033,0,0,1-.08.693,6.493,6.493,0,0,1-.322.615c-.24.453-.693,1.2-.025,1.733a7.584,7.584,0,0,0,.666.534,1.78,1.78,0,0,0-.239,1.042.971.971,0,0,0,.426.693,2.954,2.954,0,0,0,.48.293c.427.24.587.347.64.562a2.474,2.474,0,0,1-.078.88,3.2,3.2,0,0,0-.109.534,3.922,3.922,0,0,0,.24,1.921,2.63,2.63,0,0,0,2.509,1.922,2.2,2.2,0,0,0,.588-.053,52.576,52.576,0,0,0,5.951-1.789c1.6.933,2.616,3.79,2.883,4.858a.691.691,0,0,0,.693.534l17.777-.053a.7.7,0,0,0,.56-.293.722.722,0,0,0,.106-.614,6.614,6.614,0,0,0-.722-1.362,7.31,7.31,0,0,1-.453-.747,14.752,14.752,0,0,1-.8-2.029,24.6,24.6,0,0,1-.854-4.189,12.125,12.125,0,0,1,.933-6.219,16.214,16.214,0,0,1,1.922-3.044c.427-.558.88-1.174,1.28-1.786a10.841,10.841,0,0,0,1.442-3.443.742.742,0,0,0-.534-.855.709.709,0,0,0-.145-.015.7.7,0,0,0-.682.548,10.33,10.33,0,0,1-1.284,3.016c-.372.562-.8,1.149-1.2,1.708a16.452,16.452,0,0,0-2.082,3.309,13.2,13.2,0,0,0-1.04,6.94,24.623,24.623,0,0,0,.88,4.458,17.52,17.52,0,0,0,.88,2.215,6.443,6.443,0,0,0,.56.909l.027.08-16.04.053a11.507,11.507,0,0,0-2.51-4.539l.642-.212c.479-.16.828-.293,1.013-.347,3.044-.962,4.564-2.348,4.511-4.111a.719.719,0,0,0-.213-.506.846.846,0,0,0-.508-.187.73.73,0,0,0-.694.72c.028.747-.587,1.789-3.522,2.722-.187.079-.561.213-1.041.375-.535.185-1.2.425-1.949.665a60.9,60.9,0,0,1-6.086,1.842,1.2,1.2,0,0,1-.244.026,1.27,1.27,0,0,1-1.223-.96,2.828,2.828,0,0,1-.16-1.255c.026-.16.053-.293.079-.453a2.937,2.937,0,0,0,.08-1.523,2.408,2.408,0,0,0-1.308-1.44l-.159-.08a3.764,3.764,0,0,1,.265-.453.614.614,0,0,0,.16-.535.637.637,0,0,0-.293-.452c-.16-.135-.56-.428-.853-.668a.422.422,0,0,1,.106-.187c.106-.213.24-.427.347-.693a2.483,2.483,0,0,0,.187-1.576c-.16-.881-.987-1.308-1.6-1.6a3.8,3.8,0,0,1-.56-.347,2.653,2.653,0,0,1-.428-.347c0-.106.107-.374.641-1.015a28.786,28.786,0,0,0,3.256-5.258,2.459,2.459,0,0,0,.266-.961,2.537,2.537,0,0,0-1.04-1.786c-.295-.268-.562-.509-.588-.722a.974.974,0,0,1,.106-.48,8.809,8.809,0,0,1,.375-.909,9.838,9.838,0,0,0,.72-1.92,17.845,17.845,0,0,1,.64-2.351,11.816,11.816,0,0,1,2.535-4.136,11.639,11.639,0,0,1,6.353-3.016,46.451,46.451,0,0,1,6.644-.96c.266-.019.53-.027.8-.027a13.175,13.175,0,0,1,1.447.08.729.729,0,0,0,.642-.322.65.65,0,0,0,.078-.693.635.635,0,0,0-.587-.4A15.41,15.41,0,0,0,478.727,172.329Z" transform="translate(153.533 -27.887)" fill="#003d4f" fill-rule="evenodd"/>
  <path id="Path_16277" data-name="Path 16277" d="M470.955,175.661a.618.618,0,0,0-.145.016,10.183,10.183,0,0,0-5.606,2.587,10.8,10.8,0,0,0-2.267,3.684,18.013,18.013,0,0,0-.562,2.161l1.362.293c.16-.666.321-1.333.534-1.975a9.31,9.31,0,0,1,1.949-3.176,8.978,8.978,0,0,1,4.858-2.189.73.73,0,0,0,.561-.853A.7.7,0,0,0,470.955,175.661Z" transform="translate(154.301 -27.443)" fill="#003d4f" fill-rule="evenodd"/>
  <path id="Path_16278" data-name="Path 16278" d="M488.706,178.735h0a2.818,2.818,0,0,1,.881,5.311l-1.093-.213a9.146,9.146,0,0,0-.481-1.176l1.2-1.815a1.376,1.376,0,0,0-.185-1.76v-.028Zm.053-4.991.4,1.922a.73.73,0,0,0,.509.534,5.328,5.328,0,0,1,1.28.534.643.643,0,0,0,.356.107.755.755,0,0,0,.418-.134l1.6-1.068.8.775-1.093,1.627a.694.694,0,0,0-.027.749,5.676,5.676,0,0,1,.561,1.307.688.688,0,0,0,.535.506l1.92.375v1.12l-1.92.375a.653.653,0,0,0-.535.505,6.267,6.267,0,0,1-.561,1.308.751.751,0,0,0,.027.747l1.093,1.629-.8.774-1.574-1.067v-.72a1.39,1.39,0,0,0-.48-1.068,4.3,4.3,0,0,0,.987-4.645,4.237,4.237,0,0,0-3.886-2.642h-.065a3.959,3.959,0,0,0-1.254.187,1.438,1.438,0,0,0-.208-.017,1.322,1.322,0,0,0-.779.257l-1.788,1.175a11.312,11.312,0,0,0-1.2-.481l-.428-2.107a.379.379,0,0,0-.052-.187l.508-.481,1.627,1.068a.641.641,0,0,0,.383.123.749.749,0,0,0,.366-.1,4.626,4.626,0,0,1,1.308-.534.774.774,0,0,0,.506-.562l.374-1.894Zm-7.5,2.829.506,2.534a.693.693,0,0,0,.509.535,7.688,7.688,0,0,1,1.68.7.66.66,0,0,0,.366.11.752.752,0,0,0,.383-.11l2.135-1.442,1.2,1.174L486.6,182.2a.732.732,0,0,0-.028.774,6.934,6.934,0,0,1,.693,1.655.691.691,0,0,0,.535.506l2.534.509v1.68l-2.534.508a.7.7,0,0,0-.535.506,7.642,7.642,0,0,1-.693,1.682.686.686,0,0,0,.028.747l1.414,2.135-1.174,1.2-2.135-1.442a.71.71,0,0,0-.392-.123.739.739,0,0,0-.357.1,7.629,7.629,0,0,1-1.68.694.651.651,0,0,0-.509.534l-.506,2.535h-1.682l-.505-2.535a.652.652,0,0,0-.509-.534,6.976,6.976,0,0,1-1.655-.694.75.75,0,0,0-.366-.1.639.639,0,0,0-.381.123L474,194.081l-1.176-1.175,1.441-2.135a.751.751,0,0,0,.028-.747,5.726,5.726,0,0,1-.7-1.682.725.725,0,0,0-.56-.506l-2.535-.508v-1.68l2.535-.509a.72.72,0,0,0,.56-.506,6.609,6.609,0,0,1,.7-1.682.751.751,0,0,0-.028-.747l-1.441-2.135L474,178.895l2.16,1.414a.639.639,0,0,0,.381.123.747.747,0,0,0,.366-.1,7.026,7.026,0,0,1,1.655-.7.655.655,0,0,0,.509-.535l.505-2.534Zm6.3-4.244a1.263,1.263,0,0,0-1.252,1.015l-.322,1.627a4.449,4.449,0,0,0-.827.321l-1.389-.907a1.338,1.338,0,0,0-.708-.206,1.248,1.248,0,0,0-.892.367l-.615.64a1.07,1.07,0,0,0-.293-.027h-1.682a1.43,1.43,0,0,0-1.387,1.12l-.427,2.135a9.078,9.078,0,0,0-1.174.481l-1.815-1.2a1.486,1.486,0,0,0-.776-.223,1.391,1.391,0,0,0-.987.41l-1.175,1.174a1.457,1.457,0,0,0-.187,1.817l1.2,1.786a6.435,6.435,0,0,0-.506,1.176l-2.109.426a1.424,1.424,0,0,0-1.146,1.389v1.68a1.426,1.426,0,0,0,1.146,1.389l2.109.427a7.635,7.635,0,0,0,.506,1.2l-1.2,1.789a1.45,1.45,0,0,0,.162,1.789l1.174,1.174a1.449,1.449,0,0,0,1.027.421,1.417,1.417,0,0,0,.787-.234l1.789-1.2a9.072,9.072,0,0,0,1.174.48l.427,2.135a1.43,1.43,0,0,0,1.387,1.12h1.682a1.425,1.425,0,0,0,1.387-1.12l.428-2.135a11.3,11.3,0,0,0,1.2-.48l1.788,1.2a1.4,1.4,0,0,0,.775.234,1.424,1.424,0,0,0,1.013-.421l1.176-1.174a1.419,1.419,0,0,0,.185-1.789l-1.2-1.789a11.536,11.536,0,0,0,.481-1.2l2.134-.427a1.312,1.312,0,0,0,.96-.747l1.068.718a1.317,1.317,0,0,0,.7.215,1.193,1.193,0,0,0,.905-.4l.935-.936a1.256,1.256,0,0,0,.161-1.6l-.907-1.361c.134-.266.24-.56.347-.828l1.6-.318a1.281,1.281,0,0,0,1.04-1.255v-1.333a1.259,1.259,0,0,0-1.04-1.255l-1.6-.321a7.757,7.757,0,0,0-.347-.828l.933-1.387a1.253,1.253,0,0,0-.187-1.576l-.935-.96a1.253,1.253,0,0,0-.893-.367,1.335,1.335,0,0,0-.708.206l-1.387.907c-.268-.134-.535-.24-.8-.347l-.319-1.6a1.309,1.309,0,0,0-1.255-1.015Z" transform="translate(155.194 -27.887)" fill="#003d4f" fill-rule="evenodd"/>
  <path id="Path_16279" data-name="Path 16279" d="M479.685,181.871a3.537,3.537,0,1,1-3.549,3.549A3.525,3.525,0,0,1,479.685,181.871Zm0-1.415a4.952,4.952,0,1,0,4.964,4.964A4.956,4.956,0,0,0,479.685,180.456Z" transform="translate(155.942 -26.807)" fill="#003d4f" fill-rule="evenodd"/>
  <path id="Path_16280" data-name="Path 16280" d="M479.188,184.2a.707.707,0,1,0,0,1.414.707.707,0,0,0,0-1.414Z" transform="translate(156.438 -26.309)" fill="#003d4f" fill-rule="evenodd"/>
  <path id="Path_16281" data-name="Path 16281" d="M462.291,184.838a.689.689,0,0,0-.693.7.707.707,0,1,0,1.414,0A.694.694,0,0,0,462.291,184.838Z" transform="translate(154.199 -26.225)" fill="#003d4f" fill-rule="evenodd"/>
  <path id="Path_16282" data-name="Path 16282" d="M303.345,173.621a1.024,1.024,0,0,1,1,.993,1.011,1.011,0,0,1-.956,1.009l-.045,0a1,1,0,0,1-.02-2.005Zm-7.91,0a1,1,0,0,1-.006,2.009h-.015a1,1,0,0,1,.006-2.009Zm22.875,14.974h.019a1.027,1.027,0,0,1,.988.988,1,1,0,1,1-2.006.006A1.014,1.014,0,0,1,318.311,188.592Zm-37.849,0h.015a1.02,1.02,0,0,1,.986.988,1,1,0,0,1-1,1.007h0a1,1,0,0,1-1-1A1.021,1.021,0,0,1,280.462,188.592Zm37.86,7.928a1,1,0,0,1,1,1,1.028,1.028,0,0,1-.986.991h-.019a1.014,1.014,0,0,1-1-.991,1,1,0,0,1,1-1Zm-37.87,0h.019a1,1,0,0,1,.991,1.018,1.021,1.021,0,0,1-1,.977h-.034a1.028,1.028,0,0,1-.967-1A1,1,0,0,1,280.452,196.52Zm18.981-14.188q4.515,0,9.03,0a2,2,0,0,1,2.142,2.141q0,9.076,0,18.154a2,2,0,0,1-2.142,2.141l-9.076,0-9.075,0a2,2,0,0,1-2.141-2.143q0-9.052,0-18.11a2.017,2.017,0,0,1,2.189-2.186Zm3.913,29.149.051,0a1,1,0,0,1,.95,1.015,1.024,1.024,0,0,1-1,.988h-.028a1,1,0,0,1,.028-2Zm-7.925,0h.015a1,1,0,0,1,0,2.006H295.4a1,1,0,0,1,.022-2.005Zm.012-39.179h-.006a2.327,2.327,0,0,0-2.269,1.8,2.285,2.285,0,0,0,1.3,2.618.468.468,0,0,1,.313.517c-.014,1.125,0,2.254-.006,3.383,0,.121-.016.242-.025.364h-2.61V180.5q0-1.176,0-2.353a.629.629,0,0,0-.5-.659.7.7,0,0,0-.187-.027.59.59,0,0,0-.532.348,1.113,1.113,0,0,0-.091.494c-.009.884-.006,1.766-.006,2.714-.143-.01-.284-.016-.423-.016a3.454,3.454,0,0,0-2.557.972,3.631,3.631,0,0,0-.984,3H286.4l-1.331,0c-.369,0-.739,0-1.11.008a.654.654,0,1,0-.019,1.308c.07.007.142.009.213.009s.172,0,.258,0h2.4v2.635h-.443l-1.713,0c-.5,0-1,0-1.5.011h-.032a.582.582,0,0,1-.615-.383,2.241,2.241,0,0,0-2.038-1.291,2.328,2.328,0,0,0-.509,4.6,2.353,2.353,0,0,0,.513.058,2.246,2.246,0,0,0,2.045-1.308.537.537,0,0,1,.565-.36h.014c.508.008,1.015.009,1.524.009h1.817c.123,0,.245.017.372.023v2.568c-.118.011-.214.028-.31.028h-.378l-1.2,0q-.433,0-.867,0a.674.674,0,1,0-.019,1.337c.108,0,.216.007.325.007.162,0,.325,0,.487,0h1.958v2.621h-1.444c-.838,0-1.672,0-2.5-.015-.1,0-.238-.17-.3-.291a2.3,2.3,0,0,0-2.626-1.295,2.327,2.327,0,1,0,2.624,3.216.406.406,0,0,1,.423-.288h.023c.376.007.752.008,1.129.008h2.666v2.634h-2.68c-.522,0-.827.246-.835.651s.31.664.818.666c.271,0,.541,0,.812,0h1.927a3.612,3.612,0,0,0,.967,2.993,3.517,3.517,0,0,0,2.628.986c.12,0,.24,0,.362-.009v.462c0,.8-.006,1.6.006,2.4a.662.662,0,0,0,.65.685h.016a.667.667,0,0,0,.646-.668c.008-.155,0-.314,0-.471v-2.368h2.635c0,1.251-.01,2.463.009,3.674a.551.551,0,0,1-.376.6,2.272,2.272,0,0,0-1.25,2.527,2.338,2.338,0,0,0,2.006,1.844,2.507,2.507,0,0,0,.259.014,2.307,2.307,0,0,0,2.173-1.449,2.11,2.11,0,0,0-.74-2.661c-.759-.408-.775-.939-.756-1.615.028-.855.006-1.713.008-2.57,0-.125.015-.248.02-.369h2.6v.8c0,.671-.011,1.342,0,2.011a.671.671,0,0,0,.665.7.68.68,0,0,0,.665-.7c.011-.169,0-.341,0-.513v-2.3h2.624c0,1.317.006,2.6-.014,3.884,0,.119-.161.28-.285.344a2.328,2.328,0,0,0,.962,4.448,2.341,2.341,0,0,0,2.207-1.578,2.286,2.286,0,0,0-1.21-2.835.486.486,0,0,1-.333-.545c.019-.587.006-1.17.006-1.757v-1.961h2.635c0,.929,0,1.825,0,2.723,0,.485.254.781.651.786h.011c.389,0,.643-.3.652-.775.006-.329,0-.655,0-.986v-1.791c.142.01.282.015.419.015a3.45,3.45,0,0,0,2.576-.986,3.583,3.583,0,0,0,.967-2.962c.164-.014.274-.027.386-.027H313.7c.352,0,.7,0,1.056-.006a.659.659,0,1,0,.017-1.312c-.188,0-.376-.007-.565-.007-.282,0-.565,0-.847,0h-1.389V198.18H313.8c.6,0,1.2,0,1.8-.01h.018a.616.616,0,0,1,.659.407,2.239,2.239,0,0,0,2.038,1.268,2.331,2.331,0,0,0,.641-4.571,2.46,2.46,0,0,0-.648-.088,2.185,2.185,0,0,0-1.981,1.18.747.747,0,0,1-.767.489h-.083c-.324-.012-.65-.017-.975-.017-.474,0-.947.009-1.422.009h-1.107v-2.621h.452c.462,0,.926,0,1.388,0q.464,0,.926-.007a.672.672,0,1,0,.011-1.337c-.07,0-.142,0-.212,0-.143,0-.285,0-.428,0h-2.139v-2.621l1.822,0c.6,0,1.2,0,1.8-.01h.02a.61.61,0,0,1,.663.4,2.227,2.227,0,0,0,2.023,1.269,2.274,2.274,0,0,0,.476-.051,2.327,2.327,0,0,0,.3-4.479,2.5,2.5,0,0,0-.811-.137,1.981,1.981,0,0,0-1.81,1.017,1.1,1.1,0,0,1-1.154.663c-.066,0-.132,0-.2,0-.308-.008-.615-.011-.923-.011-.463,0-.924.006-1.387.006h-.813v-2.635h2.608c.587,0,.905-.242.9-.671s-.324-.647-.884-.647h-2.677a3.606,3.606,0,0,0-.975-3.01,3.462,3.462,0,0,0-2.564-.969c-.138,0-.278.006-.418.016,0-.937,0-1.8,0-2.671,0-.56-.234-.875-.643-.884H307.3c-.421,0-.655.321-.657.9v2.616h-2.587a.44.44,0,0,1-.04-.1c-.006-1.213,0-2.427-.014-3.64a.47.47,0,0,1,.315-.513,2.284,2.284,0,0,0,1.293-2.62,2.321,2.321,0,0,0-2.271-1.794h-.006a2.306,2.306,0,0,0-2.253,1.8,2.261,2.261,0,0,0,1.289,2.616.48.48,0,0,1,.313.525c-.011,1.111-.006,2.225-.006,3.34v.412h-2.624v-.545c0-.759.008-1.515,0-2.27a.674.674,0,0,0-.646-.714h-.02a.688.688,0,0,0-.667.72c-.009.157,0,.313,0,.47v2.326h-2.624c0-1.323-.006-2.619.014-3.916,0-.113.176-.265.3-.333a2.322,2.322,0,0,0-.981-4.426Z" transform="translate(129.827 -27.89)" fill="#003d4f" fill-rule="evenodd"/>
  <path id="Path_16283" data-name="Path 16283" d="M292.517,198.611c-.335,0-.67,0-1,.006-.485.006-.765.268-.753.68.011.392.282.634.751.638q1.152,0,2.3,0t2.3,0c.486,0,.779-.263.779-.658s-.3-.657-.776-.659c-.377,0-.754,0-1.131,0H293.86Z" transform="translate(131.504 -24.395)" fill="#003d4f" fill-rule="evenodd"/>
  <path id="Path_16284" data-name="Path 16284" d="M302.2,198.611l-1.507,0v0c-.513,0-1.025,0-1.537,0q-.384,0-.767,0c-.48,0-.779.263-.779.657s.3.66.779.66q1.139,0,2.282,0t2.285,0c.5,0,.782-.235.793-.638.011-.424-.279-.677-.793-.683C302.706,198.611,302.455,198.611,302.2,198.611Z" transform="translate(132.414 -24.395)" fill="#003d4f" fill-rule="evenodd"/>
  <path id="Path_16285" data-name="Path 16285" d="M294.206,182.34q-1.329,0-2.661,0c-.5,0-.78.24-.786.643-.006.42.284.671.807.676q.377,0,.757,0c.5,0,1.007,0,1.511,0v0h2.226c.525,0,.829-.24.838-.646s-.293-.672-.812-.674Z" transform="translate(131.504 -26.557)" fill="#003d4f" fill-rule="evenodd"/>
  <path id="Path_16286" data-name="Path 16286" d="M299.358,182.34c-.329,0-.658,0-.987,0-.477.006-.77.28-.759.677a.677.677,0,0,0,.757.64q1.348.005,2.7,0,.955,0,1.911,0c.483,0,.773-.262.775-.662s-.284-.655-.773-.658q-.495-.005-.989,0l-1.315,0Z" transform="translate(132.414 -26.557)" fill="#003d4f" fill-rule="evenodd"/>
  <path id="Path_16287" data-name="Path 16287" d="M305.116,182.344a.66.66,0,1,0-.006,1.317.68.68,0,0,0,.708-.646.666.666,0,0,0-.68-.672Z" transform="translate(133.317 -26.556)" fill="#003d4f" fill-rule="evenodd"/>
  <path id="Path_16288" data-name="Path 16288" d="M288.842,198.615h-.028a.659.659,0,1,0,.023,1.318h.011a.66.66,0,1,0-.006-1.319Z" transform="translate(131.155 -24.395)" fill="#003d4f" fill-rule="evenodd"/>
  <path id="Path_16289" data-name="Path 16289" d="M305.116,198.615a.661.661,0,1,0,0,1.319h.006a.66.66,0,1,0,.019-1.318Z" transform="translate(133.317 -24.395)" fill="#003d4f" fill-rule="evenodd"/>
  <path id="Path_16290" data-name="Path 16290" d="M288.87,182.343h-.048a.65.65,0,0,0-.643.658.662.662,0,0,0,.7.66h.029a.66.66,0,1,0-.036-1.319Z" transform="translate(131.16 -26.556)" fill="#003d4f" fill-rule="evenodd"/>
  <path id="Path_16291" data-name="Path 16291" d="M298.436,185.367v1.7a.512.512,0,0,0,.389.506,4.186,4.186,0,0,1,1.342.569.545.545,0,0,0,.268.071.553.553,0,0,0,.389-.162l1.193-1.194.894.9-1.193,1.193a.541.541,0,0,0-.088.656,4.11,4.11,0,0,1,.565,1.341.511.511,0,0,0,.508.387h1.7v1.255h-1.7a.54.54,0,0,0-.508.417,4.4,4.4,0,0,1-.565,1.342.542.542,0,0,0,.088.657l1.193,1.193-.894.865-1.193-1.165a.548.548,0,0,0-.657-.088,4.106,4.106,0,0,1-1.342.565.515.515,0,0,0-.389.51v1.669h-1.253v-1.669a.539.539,0,0,0-.418-.51,4.41,4.41,0,0,1-1.344-.565.538.538,0,0,0-.268-.071.547.547,0,0,0-.387.16l-1.193,1.165-.863-.865L293.872,195a.548.548,0,0,0,.091-.657,4.441,4.441,0,0,1-.569-1.342.538.538,0,0,0-.506-.417h-1.671v-1.255h1.671a.509.509,0,0,0,.506-.387,4.142,4.142,0,0,1,.569-1.341.546.546,0,0,0-.091-.656l-1.162-1.193.863-.9,1.193,1.194a.555.555,0,0,0,.387.162.539.539,0,0,0,.268-.071,4.5,4.5,0,0,1,1.344-.569.536.536,0,0,0,.418-.506v-1.7Zm-1.58-1.044a.733.733,0,0,0-.716.744v1.581a6.711,6.711,0,0,0-.9.387L294.11,185.9a.714.714,0,0,0-1.043,0l-1.313,1.312a.726.726,0,0,0,0,1.075l1.1,1.1a5.611,5.611,0,0,0-.357.894h-1.581a.739.739,0,0,0-.747.747v1.881a.733.733,0,0,0,.747.716H292.5a4.045,4.045,0,0,0,.357.894l-1.1,1.134a.719.719,0,0,0,0,1.043l1.313,1.313a.716.716,0,0,0,1.043,0l1.134-1.1a4.067,4.067,0,0,0,.9.359v1.58a.734.734,0,0,0,.716.747h1.878a.74.74,0,0,0,.747-.747v-1.58a5.692,5.692,0,0,0,.9-.359l1.1,1.1a.752.752,0,0,0,1.074,0l1.313-1.313a.7.7,0,0,0,.21-.506.717.717,0,0,0-.21-.537l-1.134-1.134a6.143,6.143,0,0,0,.387-.894h1.58a.733.733,0,0,0,.747-.716v-1.881a.738.738,0,0,0-.747-.747h-1.58c-.119-.3-.238-.6-.387-.894l1.134-1.1a.794.794,0,0,0,0-1.075l-1.313-1.312a.75.75,0,0,0-1.074,0l-1.1,1.132c-.3-.147-.6-.266-.9-.387v-1.581a.739.739,0,0,0-.747-.744Z" transform="translate(131.426 -26.293)" fill="#003d4f" fill-rule="evenodd"/>
  <path id="Path_16292" data-name="Path 16292" d="M297.242,189.634A1.782,1.782,0,0,1,299,191.393a1.763,1.763,0,0,1-1.762,1.759,1.743,1.743,0,0,1-1.759-1.759A1.761,1.761,0,0,1,297.242,189.634Zm0-1.046a2.8,2.8,0,1,0,2.806,2.8A2.8,2.8,0,0,0,297.242,188.588Z" transform="translate(131.993 -25.727)" fill="#003d4f" fill-rule="evenodd"/>
  <path id="Path_16293" data-name="Path 16293" d="M671.57,209.523l-2.53,2.526v-2.526Zm-30.9-37.56a.688.688,0,0,0-.682.723v41.09a.686.686,0,0,0,.682.723h27.649a.574.574,0,0,0,.483-.239l4.975-4.938a.636.636,0,0,0,.161-.2v-.08c.041-.039.041-.118.041-.2V192.508h-1.4V208.12h-4.256a.71.71,0,0,0-.721.681v4.254H641.39V173.368h31.184V182.6h1.4v-9.913a.714.714,0,0,0-.681-.723Z" transform="translate(177.896 -27.935)" fill="#003d4f" fill-rule="evenodd"/>
  <path id="Path_16294" data-name="Path 16294" d="M672.916,183.322a.812.812,0,0,1,.575.24.849.849,0,0,1,0,1.122l-.56.563-1.125-1.123.562-.562A.723.723,0,0,1,672.916,183.322Zm-2.11,1.8,1.123,1.125-.8.761L670,185.889Zm-1.768,1.765,1.126,1.126-8.871,8.828H660.17v-1.125Zm3.879-4.963a2.186,2.186,0,0,0-1.551.63l-12.4,12.4a.566.566,0,0,0-.242.479v2.126a.72.72,0,0,0,.723.723h2.126a.845.845,0,0,0,.521-.2l12.4-12.4a2.252,2.252,0,0,0,0-3.131A2.286,2.286,0,0,0,672.916,181.927Z" transform="translate(180.385 -26.611)" fill="#003d4f" fill-rule="evenodd"/>
  <path id="Path_16295" data-name="Path 16295" d="M645.952,181.516a1.425,1.425,0,0,1,0,2.849,1.425,1.425,0,1,1,0-2.849Zm0-1.407a2.827,2.827,0,0,0-2.849,2.812,2.861,2.861,0,0,0,2.849,2.849,2.827,2.827,0,0,0,2.811-2.849A2.793,2.793,0,0,0,645.952,180.109Z" transform="translate(178.31 -26.853)" fill="#003d4f" fill-rule="evenodd"/>
  <path id="Path_16296" data-name="Path 16296" d="M653.671,174.018l-1,1,1.605,1.643-1.605,1.605,1,1,1.605-1.605,1.647,1.605,1-1-1.644-1.605,1.644-1.643-1-1-1.647,1.647Z" transform="translate(179.58 -27.662)" fill="#003d4f" fill-rule="evenodd"/>
  <path id="Path_16297" data-name="Path 16297" d="M663.45,180.878a1.425,1.425,0,0,1,0,2.85,1.425,1.425,0,0,1,0-2.85Zm0-1.4a2.86,2.86,0,0,0-2.849,2.849,2.85,2.85,0,0,0,5.7,0A2.858,2.858,0,0,0,663.45,179.474Z" transform="translate(180.635 -26.938)" fill="#003d4f" fill-rule="evenodd"/>
  <path id="Path_16298" data-name="Path 16298" d="M647.829,199.014a1.425,1.425,0,1,1-1.442,1.444A1.431,1.431,0,0,1,647.829,199.014Zm0-1.4a2.833,2.833,0,0,0-2.849,2.849,2.83,2.83,0,1,0,2.849-2.849Z" transform="translate(178.559 -24.527)" fill="#003d4f" fill-rule="evenodd"/>
  <path id="Path_16299" data-name="Path 16299" d="M646.8,188.4l-1,1,1.605,1.644-1.605,1.605,1,1,1.605-1.605,1.644,1.605,1-1-1.646-1.605,1.646-1.644-1-1-1.644,1.644Z" transform="translate(178.667 -25.752)" fill="#003d4f" fill-rule="evenodd"/>
  <path id="Path_16300" data-name="Path 16300" d="M662.421,197.183l-1,1,1.647,1.605-1.647,1.643,1,1,1.644-1.647,1.605,1.647,1-1-1.605-1.643,1.605-1.605-1-1-1.605,1.605Z" transform="translate(180.742 -24.584)" fill="#003d4f" fill-rule="evenodd"/>
  <path id="Path_16301" data-name="Path 16301" d="M650.019,183.228a.687.687,0,0,0-.681.723v2.808h1.4v-1h0a10.368,10.368,0,0,1-.521,13.284l1.043.963a11.758,11.758,0,0,0,.4-15.368h1.2v-1.4Z" transform="translate(179.138 -26.438)" fill="#003d4f" fill-rule="evenodd"/>
  <path id="Path_16302" data-name="Path 16302" d="M655.3,202.17a1.43,1.43,0,0,1,1.446,1.4,1.425,1.425,0,0,1-2.85,0A1.421,1.421,0,0,1,655.3,202.17Zm0-1.444a2.849,2.849,0,0,0,0,5.7,2.849,2.849,0,1,0,0-5.7Z" transform="translate(179.557 -24.113)" fill="#003d4f" fill-rule="evenodd"/>
  <path id="Path_16303" data-name="Path 16303" d="M658.361,179.011l-1,1,.921.924h-8.91v1.444h8.91l-.921.882,1,1,2.128-2.126a.7.7,0,0,0,0-1Z" transform="translate(179.143 -26.998)" fill="#003d4f" fill-rule="evenodd"/>
  <path id="Path_16304" data-name="Path 16304" d="M658.622,184.467v1.446h1.123a19.847,19.847,0,0,0-5.377,13.684v1.886h1.4V199.6a18.618,18.618,0,0,1,4.975-12.682v1.125h1.4V185.19a.718.718,0,0,0-.723-.723Z" transform="translate(179.806 -26.273)" fill="#003d4f" fill-rule="evenodd"/>
  <text id="Setup" transform="translate(149 471.607)" font-size="16" font-family="Helvetica-Bold, Helvetica" font-weight="700"><tspan x="0" y="12">Setup</tspan></text>
  <text id="Initiate" transform="translate(149 424.607)" fill="#fff" font-size="16" font-family="Helvetica-Bold, Helvetica" font-weight="700"><tspan x="0" y="12">Initiate</tspan></text>
  <text id="Stabilize" transform="translate(506 471.607)" font-size="16" font-family="Helvetica-Bold, Helvetica" font-weight="700"><tspan x="0" y="12">Stabilize</tspan></text>
  <text id="Grow" transform="translate(506 424.607)" fill="#fff" font-size="16" font-family="Helvetica-Bold, Helvetica" font-weight="700"><tspan x="0" y="12">Grow</tspan></text>
  <text id="GIC_Maturity" data-name="GIC Maturity" transform="translate(629 354.623)" fill="#fff" font-size="16" font-family="Helvetica-Bold, Helvetica" font-weight="700"><tspan x="-47.559" y="12">GIC Maturity</tspan></text>
  <text id="Scale" transform="translate(844 471.607)" font-size="16" font-family="Helvetica-Bold, Helvetica" font-weight="700"><tspan x="0" y="12">Scale</tspan></text>
  <text id="Mature" transform="translate(844 424.607)" fill="#fff" font-size="16" font-family="Helvetica-Bold, Helvetica" font-weight="700"><tspan x="0" y="12">Mature</tspan></text>
  <text id="Org_Design_Operating_model" data-name="Org Design &amp; Operating model" transform="translate(226 207)" font-size="16" font-family="Helvetica-Bold, Helvetica" font-weight="700"><tspan x="-51.117" y="12">Org Design &amp; </tspan><tspan x="-63.563" y="32">Operating model</tspan></text>
  <text id="GIC_Offerings" data-name="GIC Offerings" transform="translate(105 334) rotate(-90)" font-size="16" font-family="Helvetica-Bold, Helvetica" font-weight="700"><tspan x="-52.004" y="12">GIC Offerings</tspan></text>
  <text id="Engineering_Excellence_" data-name="Engineering Excellence " transform="translate(430 207)" font-size="16" font-family="Helvetica-Bold, Helvetica" font-weight="700"><tspan x="-46.227" y="12">Engineering </tspan><tspan x="-41.363" y="32">Excellence </tspan></text>
  <text id="Accelerated_capability_Transformation" data-name="Accelerated capability Transformation" transform="translate(631 207)" font-size="16" font-family="Helvetica-Bold, Helvetica" font-weight="700"><tspan x="-45.359" y="12">Accelerated </tspan><tspan x="-36.902" y="32">capability </tspan><tspan x="-58.234" y="52">Transformation</tspan></text>
  <text id="Digital_Talent_Strategy" data-name="Digital Talent Strategy" transform="translate(834 207)" font-size="16" font-family="Helvetica-Bold, Helvetica" font-weight="700"><tspan x="-49.637" y="12">Digital Talent </tspan><tspan x="-32.012" y="32">Strategy</tspan></text>
  <text id="Enterprise_Innovation" data-name="Enterprise Innovation" transform="translate(1038 207)" font-size="16" font-family="Helvetica-Bold, Helvetica" font-weight="700"><tspan x="-39.57" y="12">Enterprise </tspan><tspan x="-40.441" y="32">Innovation</tspan></text>
  <text id="Achieve_Initial_hiring_targets_Initiate_multiple_pilot_projects_to_realise_value_viable_delivery_models_processes_quickly" data-name="Achieve Initial hiring targets &amp; Initiate multiple pilot projects to realise value &amp; viable delivery models, processes quickly" transform="translate(149 505.607)" font-size="14" font-family="Helvetica"><tspan x="0" y="11">Achieve Initial hiring targets &amp; Initiate multiple </tspan><tspan x="0" y="29">pilot projects to realise value &amp; viable delivery </tspan><tspan x="0" y="47">models, processes quickly</tspan></text>
  <text id="Consistently_achieve_roadmap_vision_demonstrate_quality_efficiency_in_delivery._Initiate_Movement_to_a_self_managed_model_reduce_dependency_from_HQ_vendor_partners_" data-name="Consistently achieve roadmap vision, demonstrate quality &amp; efficiency in delivery. Initiate Movement to a self managed model reduce dependency from HQ/ vendor partners  " transform="translate(506 505.607)" font-size="14" font-family="Helvetica"><tspan x="0" y="11">Consistently achieve roadmap vision, </tspan><tspan x="0" y="29">demonstrate quality &amp; efficiency in delivery. </tspan><tspan x="0" y="47">Initiate Movement to a self managed model </tspan><tspan x="0" y="65" xml:space="preserve">reduce dependency from HQ/ vendor partners  </tspan></text>
  <text id="Build_capabilities_generate_innovative_ideas_deliver_truly_exceptional_services_to_become_a_Partner_for_HQ_and_be_a_competitive_advantage." data-name="Build capabilities, generate innovative ideas  &amp; deliver truly exceptional services to become a Partner for HQ and be a competitive advantage." transform="translate(844 505.607)" font-size="14" font-family="Helvetica"><tspan x="0" y="11" xml:space="preserve">Build capabilities, generate innovative ideas  </tspan><tspan x="0" y="29">&amp; deliver truly exceptional services to </tspan><tspan x="0" y="47">become a Partner for HQ and be a </tspan><tspan x="0" y="65">competitive advantage.</tspan></text>
  <g id="Ellipse_154" data-name="Ellipse 154" transform="translate(111 129)" fill="#fff" stroke="#707070" stroke-width="1">
    <circle cx="5" cy="5" r="5" stroke="none"/>
    <circle cx="5" cy="5" r="4.5" fill="none"/>
  </g>
  <g id="Ellipse_155" data-name="Ellipse 155" transform="translate(111 565)" fill="#fff" stroke="#707070" stroke-width="1">
    <circle cx="5" cy="5" r="5" stroke="none"/>
    <circle cx="5" cy="5" r="4.5" fill="none"/>
  </g>
</svg>
