<svg xmlns="http://www.w3.org/2000/svg" width="1244" height="653.862" viewBox="0 0 1244 653.862">
  <rect id="Rectangle_5146" data-name="Rectangle 5146" width="1244" height="653.862" fill="#fff"/>
  <text id="Our_India_Utilization_Gross_Margin" data-name="Our India Utilization &amp; Gross Margin" transform="translate(105)" font-size="24" font-family="Bitter-Bold, Bitter" font-weight="700"><tspan x="0" y="23">Our India Utilization &amp; Gross Margin</tspan></text>
  <g id="Rectangle_5164" data-name="Rectangle 5164" transform="translate(105 61.295)" fill="none" stroke="#c4861d" stroke-width="1">
    <rect width="248.946" height="218.889" stroke="none"/>
    <rect x="0.5" y="0.5" width="247.946" height="217.889" fill="none"/>
  </g>
  <g id="Rectangle_5165" data-name="Rectangle 5165" transform="translate(367.049 61.295)" fill="none" stroke="#c4861d" stroke-width="1">
    <rect width="248.946" height="218.889" stroke="none"/>
    <rect x="0.5" y="0.5" width="247.946" height="217.889" fill="none"/>
  </g>
  <g id="Rectangle_5166" data-name="Rectangle 5166" transform="translate(628.006 61.295)" fill="none" stroke="#c4861d" stroke-width="1">
    <rect width="248.946" height="218.889" stroke="none"/>
    <rect x="0.5" y="0.5" width="247.946" height="217.889" fill="none"/>
  </g>
  <g id="Rectangle_5167" data-name="Rectangle 5167" transform="translate(890.055 61.295)" fill="none" stroke="#c4861d" stroke-width="1">
    <rect width="248.946" height="218.889" stroke="none"/>
    <rect x="0.5" y="0.5" width="247.946" height="217.889" fill="none"/>
  </g>
  <text id="Utilization_gains_directly_impacting_improvement_in_Gross_Margins_ranging_from_4_-15_" data-name="Utilization gains directly impacting improvement in Gross Margins ranging from 4%-15%" transform="translate(119 140.325)" font-size="16" font-family="Helvetica"><tspan x="0" y="12">Utilization gains directly </tspan><tspan x="0" y="32">impacting improvement in </tspan><tspan x="0" y="52">Gross Margins ranging from </tspan><tspan x="0" y="72">4%-15%</tspan></text>
  <text id="PS_supply_management_and_continued_increased_client_delivery_performance_WFH_efficiency_drive_improvements_in_utilization" data-name="PS supply management and continued increased client delivery performance (WFH efficiency) drive improvements in utilization" transform="translate(381.021 140.325)" font-size="16" font-family="Helvetica"><tspan x="0" y="12">PS supply management and </tspan><tspan x="0" y="32">continued increased client </tspan><tspan x="0" y="52">delivery performance (WFH </tspan><tspan x="0" y="72">efficiency) drive improvements </tspan><tspan x="0" y="92">in utilization</tspan></text>
  <text id="Reduction_in_non_billable_cost_and_also_discretionary_cost_not_related_to_demand_is_helping_the_margin._Beach_is_building_up_and_exchange_rate_is_also_putting_pressure_in_GP." data-name="Reduction in non billable cost and also discretionary cost not related to demand  is helping the margin. Beach is building up and exchange rate is also putting pressure in GP." transform="translate(644.699 140.325)" font-size="16" font-family="Helvetica"><tspan x="0" y="12">Reduction in non billable cost </tspan><tspan x="0" y="32">and also discretionary cost </tspan><tspan x="0" y="52" xml:space="preserve">not related to demand  is </tspan><tspan x="0" y="72">helping the margin. Beach is </tspan><tspan x="0" y="92">building up and exchange </tspan><tspan x="0" y="112">rate is also putting pressure </tspan><tspan x="0" y="132">in GP.</tspan></text>
  <text id="_2H_22_utilization_GM_dip_expected_to_be_managed_through_demand_supply_alignment._Hire_only_unstaffed_ATL_role." data-name="2H’22 utilization/GM dip expected to be managed through demand/supply alignment. Hire only unstaffed ATL role." transform="translate(904 140.325)" font-size="16" font-family="Helvetica"><tspan x="0" y="12">2H’22 utilization/GM dip </tspan><tspan x="0" y="32">expected to be managed </tspan><tspan x="0" y="52">through demand/supply </tspan><tspan x="0" y="72">alignment. Hire only unstaffed </tspan><tspan x="0" y="92">ATL role.</tspan></text>
  <g id="Group_12718" data-name="Group 12718" transform="translate(119 73.253)">
    <path id="Path_16767" data-name="Path 16767" d="M117.157,20.535h-1.862a21.3,21.3,0,0,0-3.45-8.325l1.318-1.318a1.523,1.523,0,0,0,0-2.151l-3.226-3.227h0a1.521,1.521,0,0,0-2.151,0l-1.318,1.318h0a21.31,21.31,0,0,0-8.325-3.45V1.52A1.523,1.523,0,0,0,96.62,0H92.057A1.523,1.523,0,0,0,90.535,1.52V3.382a21.309,21.309,0,0,0-8.325,3.45L80.893,5.514a1.557,1.557,0,0,0-2.151,0L75.514,8.742h0a1.523,1.523,0,0,0,0,2.151l1.318,1.318a21.3,21.3,0,0,0-3.45,8.325H71.52A1.523,1.523,0,0,0,70,22.057V26.62a1.523,1.523,0,0,0,1.521,1.521h1.862a21.3,21.3,0,0,0,3.45,8.325l-1.318,1.318a1.523,1.523,0,0,0,0,2.151l3.226,3.227h0a1.521,1.521,0,0,0,2.151,0l1.318-1.318a21.31,21.31,0,0,0,8.325,3.45v1.862a1.523,1.523,0,0,0,1.521,1.521H96.62a1.523,1.523,0,0,0,1.521-1.521V45.294a21.309,21.309,0,0,0,8.325-3.45l1.318,1.318a1.521,1.521,0,0,0,2.151,0l3.227-3.227a1.523,1.523,0,0,0,0-2.151l-1.318-1.318a21.3,21.3,0,0,0,3.45-8.325h1.862a1.523,1.523,0,0,0,1.521-1.521V22.057a1.523,1.523,0,0,0-1.521-1.521Zm0,6.085h-2.508a.761.761,0,0,0-.752.649,19.754,19.754,0,0,1-3.657,8.826.76.76,0,0,0,.073.991l1.774,1.775-3.227,3.227-1.774-1.774h0a.76.76,0,0,0-.991-.073A19.761,19.761,0,0,1,97.269,43.9a.761.761,0,0,0-.649.752v2.508H92.056V44.649a.761.761,0,0,0-.649-.752,19.765,19.765,0,0,1-8.826-3.657.761.761,0,0,0-.991.073l-1.774,1.774-3.227-3.227,1.774-1.774h0a.76.76,0,0,0,.073-.991,19.755,19.755,0,0,1-3.657-8.826.761.761,0,0,0-.752-.649H71.519V22.057h2.508a.761.761,0,0,0,.752-.649,19.753,19.753,0,0,1,3.657-8.826.76.76,0,0,0-.073-.991L76.589,9.817,79.816,6.59l1.774,1.774h0a.761.761,0,0,0,.991.073A19.761,19.761,0,0,1,91.407,4.78a.761.761,0,0,0,.649-.752V1.52H96.62V4.028a.761.761,0,0,0,.649.752A19.765,19.765,0,0,1,106.1,8.438a.76.76,0,0,0,.991-.073L108.86,6.59l3.227,3.227-1.774,1.774h0a.76.76,0,0,0-.073.991,19.755,19.755,0,0,1,3.657,8.826.761.761,0,0,0,.752.649h2.508Z" transform="translate(-69.999 0.001)" fill="#003d4f"/>
    <path id="Path_16768" data-name="Path 16768" d="M182.223,96.25a15.991,15.991,0,1,0,11.289,4.684,15.972,15.972,0,0,0-11.289-4.684Zm0,30.424a14.468,14.468,0,1,1,10.213-4.237,14.449,14.449,0,0,1-10.213,4.237Z" transform="translate(-157.883 -87.883)" fill="#003d4f"/>
    <path id="Path_16769" data-name="Path 16769" d="M328.122,167.388h-3.535A2.672,2.672,0,0,0,322.8,165.6v-7.338a.761.761,0,1,0-1.521,0V165.6a2.661,2.661,0,1,0,3.311,3.311h3.535a.761.761,0,1,0,0-1.521Zm-6.085,1.9a1.141,1.141,0,1,1,1.141-1.141,1.141,1.141,0,0,1-1.141,1.141Z" transform="translate(-297.697 -143.809)" fill="#003d4f"/>
  </g>
  <g id="Group_12719" data-name="Group 12719" transform="translate(381.26 74.175)">
    <path id="Path_16770" data-name="Path 16770" d="M285.426,299.067h-1.672v-5.043a2.02,2.02,0,0,0-1.438-1.939l-2.658-.808-1.828,2.2a.833.833,0,0,1-1.282,0l-1.828-2.2-2.658.808a2.02,2.02,0,0,0-1.438,1.939v5.043h-1.672v-5.043a3.675,3.675,0,0,1,2.625-3.539l3.182-.97a.827.827,0,0,1,.886.267l1.544,1.85,1.544-1.85a.848.848,0,0,1,.886-.267l3.187.964a3.675,3.675,0,0,1,2.625,3.539v5.049Z" transform="translate(-253.306 -264.635)" fill="#003d4f"/>
    <path id="Path_16771" data-name="Path 16771" d="M312.2,194.093a4,4,0,0,1-3.968-3.494l-.262-2.056a4.263,4.263,0,1,1,8.459,0l-.262,2.056a4,4,0,0,1-3.968,3.494Zm0-8.676a2.583,2.583,0,0,0-2.569,2.914l.262,2.056a2.343,2.343,0,0,0,.992,1.627,2.325,2.325,0,0,0,3.622-1.627l.262-2.056a2.585,2.585,0,0,0-2.569-2.914Z" transform="translate(-288.314 -169.675)" fill="#003d4f"/>
    <path id="Path_16772" data-name="Path 16772" d="M306.2,356.73h1.672v2.736H306.2Z" transform="translate(-286.756 -325.033)" fill="#003d4f"/>
    <path id="Path_16773" data-name="Path 16773" d="M376.91,356.73h1.672v2.736H376.91Z" transform="translate(-350.261 -325.033)" fill="#003d4f"/>
    <path id="Path_16774" data-name="Path 16774" d="M425.276,311.761H423.6v-4.029a1.7,1.7,0,0,0-1.209-1.633l-2.3-.7-1.583,1.906a.837.837,0,0,1-.641.3.829.829,0,0,1-.641-.3l-1.583-1.9-1.126.34-.485-1.6,1.655-.5a.837.837,0,0,1,.886.267l1.3,1.555,1.3-1.555a.848.848,0,0,1,.886-.267l2.831.858a3.359,3.359,0,0,1,2.4,3.232v4.023Z" transform="translate(-383.604 -277.328)" fill="#003d4f"/>
    <path id="Path_16775" data-name="Path 16775" d="M417.451,218.45a3.65,3.65,0,0,1-3.617-3.187l-.228-1.828a3.876,3.876,0,1,1,7.69.006l-.234,1.828a3.637,3.637,0,0,1-3.611,3.182Zm0-7.707a2.207,2.207,0,0,0-2.19,2.48l.228,1.828a1.981,1.981,0,0,0,.841,1.376,1.97,1.97,0,0,0,2.229,0,1.981,1.981,0,0,0,.841-1.376l.234-1.822a2.208,2.208,0,0,0-2.184-2.485Z" transform="translate(-383.19 -192.421)" fill="#003d4f"/>
    <path id="Path_16776" data-name="Path 16776" d="M176.886,311.69h-1.672v-4.029a3.359,3.359,0,0,1,2.4-3.232l2.831-.858a.827.827,0,0,1,.886.267l1.3,1.555,1.3-1.555a.847.847,0,0,1,.886-.267l1.655.5-.485,1.6-1.126-.34-1.583,1.9a.833.833,0,0,1-1.282,0l-1.583-1.9-2.3.7a1.692,1.692,0,0,0-1.209,1.633v4.029Z" transform="translate(-169.118 -277.258)" fill="#003d4f"/>
    <path id="Path_16777" data-name="Path 16777" d="M213.692,218.45a3.65,3.65,0,0,1-3.617-3.187l-.234-1.828a3.876,3.876,0,1,1,7.69.006l-.234,1.828a3.641,3.641,0,0,1-1.555,2.547,3.6,3.6,0,0,1-2.051.635Zm0-7.707a2.207,2.207,0,0,0-2.19,2.48l.228,1.822a1.981,1.981,0,0,0,.841,1.376,1.97,1.97,0,0,0,2.229,0,1.981,1.981,0,0,0,.841-1.376l.234-1.822a2.2,2.2,0,0,0-2.184-2.48Z" transform="translate(-200.189 -192.421)" fill="#003d4f"/>
    <path id="Path_16778" data-name="Path 16778" d="M142.067,93.425h-5.6a2.065,2.065,0,0,1-2.04-1.783l-.256-1.906a.387.387,0,0,0-.29-.323,20.166,20.166,0,0,1-4.848-2.012.4.4,0,0,0-.435.022l-1.532,1.17a2.063,2.063,0,0,1-2.7-.178L120.4,84.453a2.063,2.063,0,0,1-.178-2.7l1.17-1.532a.386.386,0,0,0,.022-.435,20.391,20.391,0,0,1-2.012-4.848.394.394,0,0,0-.323-.29l-1.911-.256a2.06,2.06,0,0,1-1.783-2.04v-5.6a2.065,2.065,0,0,1,1.783-2.04l1.906-.256a.387.387,0,0,0,.323-.29,20.258,20.258,0,0,1,2.012-4.848.4.4,0,0,0-.022-.435l-1.17-1.532a2.063,2.063,0,0,1,.178-2.7l3.962-3.962a2.063,2.063,0,0,1,2.7-.178l1.532,1.17a.386.386,0,0,0,.435.022,20.391,20.391,0,0,1,4.848-2.012.394.394,0,0,0,.29-.323l.256-1.911a2.06,2.06,0,0,1,2.04-1.783h5.6a2.065,2.065,0,0,1,2.04,1.783l.256,1.906a.387.387,0,0,0,.29.323,20.258,20.258,0,0,1,4.848,2.012.4.4,0,0,0,.435-.022l1.532-1.17a2.063,2.063,0,0,1,2.7.178l3.962,3.962a2.063,2.063,0,0,1,.178,2.7l-1.17,1.532a.386.386,0,0,0-.022.435,20.486,20.486,0,0,1,2.012,4.848.394.394,0,0,0,.323.29l1.911.256a2.065,2.065,0,0,1,1.789,2.04v5.6a2.065,2.065,0,0,1-1.783,2.04l-1.906.256a.387.387,0,0,0-.323.29,20.165,20.165,0,0,1-2.012,4.848.4.4,0,0,0,.022.435l1.17,1.532a2.063,2.063,0,0,1-.178,2.7l-3.962,3.962a2.063,2.063,0,0,1-2.7.178l-1.532-1.17a.386.386,0,0,0-.435-.022,20.486,20.486,0,0,1-4.848,2.012.394.394,0,0,0-.29.323l-.256,1.911a2.066,2.066,0,0,1-2.045,1.783Zm-13.235-7.751a2.04,2.04,0,0,1,1.037.279,18.74,18.74,0,0,0,4.452,1.845,2.058,2.058,0,0,1,1.51,1.716l.256,1.906a.39.39,0,0,0,.384.334h5.6a.39.39,0,0,0,.384-.334l.256-1.911a2.059,2.059,0,0,1,1.51-1.716,18.732,18.732,0,0,0,4.452-1.845,2.049,2.049,0,0,1,2.279.145l1.532,1.17a.389.389,0,0,0,.507-.033l3.962-3.962a.39.39,0,0,0,.033-.507l-1.17-1.532a2.059,2.059,0,0,1-.145-2.279,18.74,18.74,0,0,0,1.845-4.452,2.058,2.058,0,0,1,1.716-1.51l1.906-.256a.39.39,0,0,0,.334-.384V66.749a.39.39,0,0,0-.334-.385l-1.911-.256a2.058,2.058,0,0,1-1.716-1.51,18.737,18.737,0,0,0-1.845-4.452,2.048,2.048,0,0,1,.145-2.279l1.17-1.532a.389.389,0,0,0-.033-.507l-3.962-3.962a.39.39,0,0,0-.507-.033L150.95,53a2.059,2.059,0,0,1-2.279.145,18.74,18.74,0,0,0-4.452-1.845,2.058,2.058,0,0,1-1.51-1.716l-.256-1.906a.39.39,0,0,0-.384-.334h-5.6a.39.39,0,0,0-.384.334l-.256,1.911a2.058,2.058,0,0,1-1.51,1.716,18.732,18.732,0,0,0-4.452,1.845,2.049,2.049,0,0,1-2.279-.145l-1.532-1.17a.389.389,0,0,0-.507.033l-3.962,3.962a.39.39,0,0,0-.033.507l1.17,1.532a2.059,2.059,0,0,1,.145,2.279A18.74,18.74,0,0,0,121.02,64.6a2.058,2.058,0,0,1-1.716,1.51l-1.906.256a.39.39,0,0,0-.334.385v5.6a.39.39,0,0,0,.334.384l1.911.256a2.058,2.058,0,0,1,1.716,1.51,18.967,18.967,0,0,0,1.845,4.452,2.048,2.048,0,0,1-.145,2.279l-1.17,1.532a.389.389,0,0,0,.033.507l3.962,3.962a.39.39,0,0,0,.507.033l1.532-1.17a1.981,1.981,0,0,1,1.243-.429Z" transform="translate(-115.386 -45.668)" fill="#003d4f"/>
    <path id="Path_16779" data-name="Path 16779" d="M249.1,129.435l-1.092-1.265a15.855,15.855,0,0,1,20.74,0l-1.092,1.265a14.186,14.186,0,0,0-18.557,0Z" transform="translate(-234.497 -116.295)" fill="#003d4f"/>
  </g>
  <g id="Group_12720" data-name="Group 12720" transform="translate(644.256 74.175)">
    <path id="Path_16780" data-name="Path 16780" d="M313.045,177.9H306.25v-1.941h6.795a.971.971,0,0,0,.971-.971v-.971a.971.971,0,0,0-.971-.971h-3.883a2.912,2.912,0,0,1-2.912-2.912v-.971a2.912,2.912,0,0,1,2.912-2.912h6.795v1.941h-6.795a.971.971,0,0,0-.971.971v.971a.97.97,0,0,0,.971.971h3.883a2.912,2.912,0,0,1,2.912,2.912v.971a2.912,2.912,0,0,1-2.912,2.912Z" transform="translate(-288.778 -155.38)" fill="#003d4f"/>
    <path id="Path_16781" data-name="Path 16781" d="M341.25,148.75h1.941v2.912H341.25Z" transform="translate(-319.895 -139.82)" fill="#003d4f"/>
    <path id="Path_16782" data-name="Path 16782" d="M341.25,262.5h1.941v2.912H341.25Z" transform="translate(-319.895 -240.951)" fill="#003d4f"/>
    <path id="Path_16783" data-name="Path 16783" d="M190.49,420.958H151.663a2.912,2.912,0,0,1-2.912-2.912v-3.883a2.911,2.911,0,0,1,2.912-2.912h3.883v1.941h-3.883a.971.971,0,0,0-.971.971v3.883a.97.97,0,0,0,.971.971H190.49a.971.971,0,0,0,.971-.971v-3.883a.971.971,0,0,0-.971-.971h-3.883v-1.941h3.883a2.912,2.912,0,0,1,2.912,2.912v3.883a2.912,2.912,0,0,1-2.912,2.912Z" transform="translate(-148.751 -373.201)" fill="#003d4f"/>
    <path id="Path_16784" data-name="Path 16784" d="M183.75,446.25h36.886v1.941H183.75Z" transform="translate(-179.867 -404.317)" fill="#003d4f"/>
    <path id="Path_16785" data-name="Path 16785" d="M241.062,112.127H210v-41.5l5.1-2.291,3.669,1.941,4.251-1.941,3.514,1.941,3.97-1.941,3.737,1.941,3.426-2.029,3.4,2.63Zm-29.12-1.941H239.12V71.835l-1.611-1.252-3.242,1.883-3.825-1.941-4,1.941-3.533-1.941-4.232,1.941L215,70.524l-3.057,1.359Z" transform="translate(-203.205 -68.253)" fill="#003d4f"/>
    <path id="Path_16786" data-name="Path 16786" d="M297.5,332.5h15.531v1.941H297.5Z" transform="translate(-280.999 -303.186)" fill="#003d4f"/>
    <path id="Path_16787" data-name="Path 16787" d="M262.5,385h15.531v1.941H262.5Z" transform="translate(-249.881 -349.862)" fill="#003d4f"/>
    <path id="Path_16788" data-name="Path 16788" d="M420,385h1.941v1.941H420Z" transform="translate(-389.909 -349.862)" fill="#003d4f"/>
  </g>
  <g id="Group_12721" data-name="Group 12721" transform="translate(904.301 74.501)">
    <path id="Path_16789" data-name="Path 16789" d="M327.808,32.13H300.4a.486.486,0,0,1-.486-.486V14.528a.486.486,0,0,1,.486-.486h27.411a.486.486,0,0,1,.486.486V31.644a.486.486,0,0,1-.486.486Zm-26.925-.972h26.44V15.014h-26.44Z" transform="translate(-280.653 -14.042)" stroke="#133d4e" stroke-width="0.5"/>
    <path id="Path_16790" data-name="Path 16790" d="M454.687,32.13a.486.486,0,0,1-.486-.486V14.528a.486.486,0,1,1,.972,0V31.644a.486.486,0,0,1-.486.486Z" transform="translate(-421.237 -14.042)" stroke="#133d4e" stroke-width="0.5"/>
    <path id="Path_16791" data-name="Path 16791" d="M508.955,23.5h-5.349a.486.486,0,0,1-.486-.486V14.526a.486.486,0,0,1,.972,0v8.005h4.377V14.526a.486.486,0,1,1,.972,0v8.491a.486.486,0,0,1-.486.486Z" transform="translate(-465.81 -14.04)" stroke="#133d4e" stroke-width="0.5"/>
    <path id="Path_16792" data-name="Path 16792" d="M108.984,367.8H84.716a1.591,1.591,0,0,1-1.592-1.589V364.78a1.591,1.591,0,0,1,1.59-1.589h24.27a1.591,1.591,0,0,1,1.589,1.589v1.434a1.591,1.591,0,0,1-1.589,1.589Zm-24.268-3.64a.618.618,0,0,0-.621.617v1.434a.618.618,0,0,0,.618.618h24.27a.618.618,0,0,0,.617-.618V364.78a.618.618,0,0,0-.617-.617Z" transform="translate(-83.124 -332.175)" stroke="#133d4e" stroke-width="0.5"/>
    <path id="Path_16793" data-name="Path 16793" d="M125.464,416.942H104.616a1.591,1.591,0,0,1-1.589-1.589v-10.7a.486.486,0,1,1,.972,0v10.7a.618.618,0,0,0,.617.617h20.848a.618.618,0,0,0,.617-.617v-10.7a.486.486,0,1,1,.972,0v10.7a1.592,1.592,0,0,1-1.589,1.589Z" transform="translate(-101.259 -369.512)" stroke="#133d4e" stroke-width="0.5"/>
    <path id="Path_16794" data-name="Path 16794" d="M195.147,451.571a.486.486,0,0,1,.486-.486h6.51a.486.486,0,1,1,0,.972h-6.51a.486.486,0,0,1-.486-.486Z" transform="translate(-185.196 -412.261)" stroke="#133d4e" stroke-width="0.5"/>
    <path id="Path_16795" data-name="Path 16795" d="M195.147,488.1a.486.486,0,0,1,.486-.486h6.51a.486.486,0,1,1,0,.972h-6.51a.486.486,0,0,1-.486-.486Z" transform="translate(-185.196 -445.549)" stroke="#133d4e" stroke-width="0.5"/>
    <path id="Path_16796" data-name="Path 16796" d="M496.685,423.877a.485.485,0,0,1-.486-.463l-.148-3.2-3.169.164a.486.486,0,0,1-.05-.972l3.656-.189a.486.486,0,0,1,.51.463l.172,3.687a.486.486,0,0,1-.463.507Z" transform="translate(-456.016 -383.224)" stroke="#133d4e" stroke-width="0.5"/>
    <path id="Path_16797" data-name="Path 16797" d="M160.918,94.505a.486.486,0,0,1-.486-.463l-.17-3.687a.486.486,0,0,1,.972-.045l.143,3.2,3.17-.163a.486.486,0,0,1,.049.972l-3.656.194Z" transform="translate(-153.409 -83.112)" stroke="#133d4e" stroke-width="0.5"/>
    <path id="Path_16798" data-name="Path 16798" d="M362.864,429.255a.486.486,0,0,1-.033-.972c.5-.035,1.743-.248,1.756-.25a20.264,20.264,0,0,0,12.887-7.462.486.486,0,1,1,.762.6,21.239,21.239,0,0,1-13.495,7.817c-.044.008-1.294.222-1.846.26Z" transform="translate(-337.555 -384.291)" stroke="#133d4e" stroke-width="0.5"/>
    <path id="Path_16799" data-name="Path 16799" d="M164.651,54.281a.486.486,0,0,1-.381-.788,21.128,21.128,0,0,1,11.277-7.361,5.732,5.732,0,0,1,1.117-.194.486.486,0,0,1,0,.972,5.1,5.1,0,0,0-.874.162A20.153,20.153,0,0,0,165.03,54.1a.486.486,0,0,1-.379.182Z" transform="translate(-156.966 -43.104)" stroke="#133d4e" stroke-width="0.5"/>
    <path id="Path_16800" data-name="Path 16800" d="M349.232,146.444h-5.88a.486.486,0,1,1,0-.972h5.88a.486.486,0,1,1,0,.972Z" transform="translate(-319.792 -133.796)" stroke="#133d4e" stroke-width="0.5"/>
    <path id="Path_16801" data-name="Path 16801" d="M349.232,120.194h-5.88a.486.486,0,1,1,0-.972h5.88a.486.486,0,1,1,0,.972Z" transform="translate(-319.792 -109.878)" stroke="#133d4e" stroke-width="0.5"/>
    <path id="Path_16802" data-name="Path 16802" d="M349.232,172.694h-5.88a.486.486,0,0,1,0-.972h5.88a.486.486,0,0,1,0,.972Z" transform="translate(-319.792 -157.715)" stroke="#133d4e" stroke-width="0.5"/>
    <path id="Path_16803" data-name="Path 16803" d="M534.237,136.171a.486.486,0,0,1-.486-.486v-3.951a.486.486,0,1,1,.972,0v3.951a.486.486,0,0,1-.486.486Z" transform="translate(-493.72 -120.837)" stroke="#133d4e" stroke-width="0.5"/>
    <path id="Path_16804" data-name="Path 16804" d="M516.822,134.2a.479.479,0,0,1-.343-.142l-1.528-1.53-1.53,1.53a.486.486,0,1,1-.687-.687l1.874-1.874h0a.485.485,0,0,1,.687,0l1.874,1.874a.486.486,0,0,1-.344.829Z" transform="translate(-474.435 -120.93)" stroke="#133d4e" stroke-width="0.5"/>
    <path id="Path_16805" data-name="Path 16805" d="M114.217,175.526a.486.486,0,0,1-.478-.4l-.017-.1a.486.486,0,1,1,.957-.169l.017.1a.486.486,0,0,1-.391.558.457.457,0,0,1-.087.009Zm-.266-2.022a.485.485,0,0,1-.486-.447l-.008-.1h0a.487.487,0,0,1,.972-.075l.007.1a.486.486,0,0,1-.445.523.246.246,0,0,1-.04,0Zm-.066-2.04h-.008a.486.486,0,0,1-.478-.493v-.1a.486.486,0,0,1,.972.019v.1a.486.486,0,0,1-.486.475Zm.132-2.04h0a.287.287,0,0,1-.055,0,.485.485,0,0,1-.429-.537l.012-.1h0a.486.486,0,0,1,.965.115l-.011.1a.486.486,0,0,1-.486.429Zm.329-2.013h0a.46.46,0,0,1-.1-.012.486.486,0,0,1-.373-.577l.021-.1a.486.486,0,1,1,.948.211l-.02.092a.486.486,0,0,1-.479.389Zm.527-1.971h0a.455.455,0,0,1-.148-.024.486.486,0,0,1-.315-.61l.031-.1a.486.486,0,1,1,.923.3l-.029.09a.486.486,0,0,1-.463.345Zm.72-1.908h0a.486.486,0,0,1-.445-.68l.039-.09a.486.486,0,1,1,.89.389l-.039.088a.485.485,0,0,1-.445.3Zm.9-1.828h0a.486.486,0,0,1-.424-.723l.049-.086a.486.486,0,1,1,.846.477l-.046.083h0a.485.485,0,0,1-.424.255Z" transform="translate(-110.709 -147.616)" stroke="#133d4e" stroke-width="0.5"/>
    <path id="Path_16806" data-name="Path 16806" d="M548.987,251.346a.486.486,0,0,1-.418-.731l.047-.083a.486.486,0,0,1,.842.486l-.05.085h0a.486.486,0,0,1-.421.242Zm.939-1.811a.5.5,0,0,1-.2-.044.486.486,0,0,1-.24-.644l.039-.086a.486.486,0,0,1,.886.4l-.042.09h0a.486.486,0,0,1-.442.285Zm.756-1.9h0a.468.468,0,0,1-.158-.026.486.486,0,0,1-.3-.617l.031-.09h0a.486.486,0,1,1,.921.31l-.032.1a.486.486,0,0,1-.459.325Zm.564-1.961h0a.458.458,0,0,1-.111-.013.486.486,0,0,1-.362-.583l.022-.092a.486.486,0,0,1,.947.218l-.023.1h0a.485.485,0,0,1-.472.373Zm.367-2.006h0a.34.34,0,0,1-.065,0,.485.485,0,0,1-.417-.545l.012-.1a.486.486,0,0,1,.964.123l-.013.1a.485.485,0,0,1-.481.426Zm.168-2.034h-.017a.485.485,0,0,1-.469-.5v-.1a.486.486,0,0,1,.486-.471h.015a.486.486,0,0,1,.471.5v.1a.486.486,0,0,1-.486.474Zm-.03-2.04a.485.485,0,0,1-.486-.455l-.006-.1a.487.487,0,0,1,.972-.065l.006.1a.486.486,0,0,1-.454.515Zm-.228-2.027a.486.486,0,0,1-.479-.408l-.016-.092h0a.486.486,0,0,1,.958-.161l.017.1a.486.486,0,0,1-.4.557.532.532,0,0,1-.078.008Z" transform="translate(-507.161 -216.749)" stroke="#133d4e" stroke-width="0.5"/>
  </g>
  <rect id="Rectangle_5194" data-name="Rectangle 5194" width="1034" height="354.678" transform="translate(105 299.184)" fill="#edf1f3"/>
  <text id="GP_Av._utilisation" data-name="GP% &amp; Av. utilisation" transform="translate(123 316.862)" font-size="20" font-family="Helvetica"><tspan x="0" y="15">GP% &amp; Av. utilisation</tspan></text>
  <line id="Line_480" data-name="Line 480" x2="952.67" transform="translate(163.109 612.913)" fill="none" stroke="#ccc" stroke-miterlimit="10" stroke-width="1"/>
  <line id="Line_481" data-name="Line 481" x2="952.67" transform="translate(163.109 583.782)" fill="none" stroke="#ccc" stroke-miterlimit="10" stroke-width="1"/>
  <line id="Line_482" data-name="Line 482" x2="952.67" transform="translate(163.109 554.65)" fill="none" stroke="#ccc" stroke-miterlimit="10" stroke-width="1"/>
  <line id="Line_483" data-name="Line 483" x2="952.67" transform="translate(163.109 525.519)" fill="none" stroke="#ccc" stroke-miterlimit="10" stroke-width="1"/>
  <line id="Line_484" data-name="Line 484" x2="952.67" transform="translate(163.109 496.388)" fill="none" stroke="#ccc" stroke-miterlimit="10" stroke-width="1"/>
  <line id="Line_485" data-name="Line 485" x2="952.67" transform="translate(163.109 467.256)" fill="none" stroke="#ccc" stroke-miterlimit="10" stroke-width="1"/>
  <line id="Line_486" data-name="Line 486" x2="952.67" transform="translate(163.109 438.125)" fill="none" stroke="#ccc" stroke-miterlimit="10" stroke-width="1"/>
  <line id="Line_487" data-name="Line 487" x2="952.67" transform="translate(163.109 408.994)" fill="none" stroke="#ccc" stroke-miterlimit="10" stroke-width="1"/>
  <line id="Line_488" data-name="Line 488" x2="952.67" transform="translate(163.109 379.862)" fill="none" stroke="#ccc" stroke-miterlimit="10" stroke-width="1"/>
  <line id="Line_489" data-name="Line 489" x1="69.213" y2="13.765" transform="translate(197.717 459.828)" fill="none" stroke="#969696" stroke-linecap="round" stroke-miterlimit="10" stroke-width="1"/>
  <line id="Line_490" data-name="Line 490" x1="69.213" y2="15.731" transform="translate(266.93 444.097)" fill="none" stroke="#969696" stroke-linecap="round" stroke-miterlimit="10" stroke-width="1"/>
  <line id="Line_491" data-name="Line 491" x1="69.213" y1="30.806" transform="translate(336.143 444.097)" fill="none" stroke="#969696" stroke-linecap="round" stroke-miterlimit="10" stroke-width="1"/>
  <line id="Line_492" data-name="Line 492" x1="69.213" y2="12.454" transform="translate(405.354 462.45)" fill="none" stroke="#969696" stroke-linecap="round" stroke-miterlimit="10" stroke-width="1"/>
  <line id="Line_493" data-name="Line 493" x1="69.213" y2="57.025" transform="translate(474.566 405.425)" fill="none" stroke="#969696" stroke-linecap="round" stroke-miterlimit="10" stroke-width="1"/>
  <line id="Line_494" data-name="Line 494" x1="69.213" y1="5.899" transform="translate(543.779 405.425)" fill="none" stroke="#969696" stroke-linecap="round" stroke-miterlimit="10" stroke-width="1"/>
  <line id="Line_495" data-name="Line 495" x1="69.213" y1="53.747" transform="translate(612.992 411.324)" fill="none" stroke="#969696" stroke-linecap="round" stroke-miterlimit="10" stroke-width="1"/>
  <line id="Line_496" data-name="Line 496" x1="69.213" y2="32.773" transform="translate(682.205 432.299)" fill="none" stroke="#969696" stroke-linecap="round" stroke-miterlimit="10" stroke-width="1"/>
  <line id="Line_497" data-name="Line 497" x1="69.213" y1="15.731" transform="translate(751.416 432.299)" fill="none" stroke="#969696" stroke-linecap="round" stroke-miterlimit="10" stroke-width="1"/>
  <line id="Line_498" data-name="Line 498" x1="69.213" y1="3.277" transform="translate(820.629 448.03)" fill="none" stroke="#969696" stroke-linecap="round" stroke-miterlimit="10" stroke-width="1"/>
  <line id="Line_499" data-name="Line 499" x1="69.213" y1="36.05" transform="translate(889.842 451.307)" fill="none" stroke="#969696" stroke-linecap="round" stroke-miterlimit="10" stroke-width="1"/>
  <line id="Line_500" data-name="Line 500" x1="69.213" y2="27.529" transform="translate(959.055 459.828)" fill="none" stroke="#969696" stroke-linecap="round" stroke-miterlimit="10" stroke-width="1"/>
  <line id="Line_501" data-name="Line 501" x1="69.213" y1="13.109" transform="translate(1028.268 459.828)" fill="none" stroke="#969696" stroke-linecap="round" stroke-miterlimit="10" stroke-width="1"/>
  <line id="Line_502" data-name="Line 502" x1="69.213" y1="72.755" transform="translate(197.717 499.811)" fill="none" stroke="#133d4e" stroke-linecap="round" stroke-miterlimit="10" stroke-width="1"/>
  <line id="Line_503" data-name="Line 503" x1="69.213" y2="45.882" transform="translate(266.93 526.684)" fill="none" stroke="#000" stroke-linecap="round" stroke-miterlimit="10" stroke-width="1"/>
  <line id="Line_504" data-name="Line 504" x1="69.213" y1="3.277" transform="translate(336.143 526.684)" fill="none" stroke="#000" stroke-linecap="round" stroke-miterlimit="10" stroke-width="1"/>
  <line id="Line_505" data-name="Line 505" x1="69.213" y2="3.933" transform="translate(405.354 526.029)" fill="none" stroke="#000" stroke-linecap="round" stroke-miterlimit="10" stroke-width="1"/>
  <line id="Line_506" data-name="Line 506" x1="69.213" y2="32.117" transform="translate(474.566 493.911)" fill="none" stroke="#000" stroke-linecap="round" stroke-miterlimit="10" stroke-width="1"/>
  <line id="Line_507" data-name="Line 507" x1="69.213" y1="1.966" transform="translate(543.779 493.911)" fill="none" stroke="#000" stroke-linecap="round" stroke-miterlimit="10" stroke-width="1"/>
  <line id="Line_508" data-name="Line 508" x1="69.213" y1="62.268" transform="translate(612.992 495.878)" fill="none" stroke="#000" stroke-linecap="round" stroke-miterlimit="10" stroke-width="1"/>
  <line id="Line_509" data-name="Line 509" x1="69.213" y2="52.436" transform="translate(682.205 505.71)" fill="none" stroke="#000" stroke-linecap="round" stroke-miterlimit="10" stroke-width="1"/>
  <line id="Line_510" data-name="Line 510" x1="69.213" y1="28.84" transform="translate(751.416 505.71)" fill="none" stroke="#000" stroke-linecap="round" stroke-miterlimit="10" stroke-width="1"/>
  <line id="Line_511" data-name="Line 511" x1="69.213" y2="13.109" transform="translate(820.629 521.441)" fill="none" stroke="#000" stroke-linecap="round" stroke-miterlimit="10" stroke-width="1"/>
  <line id="Line_512" data-name="Line 512" x1="69.213" y1="13.109" transform="translate(889.842 521.441)" fill="none" stroke="#000" stroke-linecap="round" stroke-miterlimit="10" stroke-width="1"/>
  <line id="Line_513" data-name="Line 513" x1="69.213" y2="14.42" transform="translate(959.055 520.13)" fill="none" stroke="#000" stroke-linecap="round" stroke-miterlimit="10" stroke-width="1"/>
  <line id="Line_514" data-name="Line 514" x1="69.213" y1="51.125" transform="translate(1028.268 520.13)" fill="none" stroke="#000" stroke-linecap="round" stroke-miterlimit="10" stroke-width="1"/>
  <text id="_40.0_" data-name="40.0%" transform="translate(152 616.862)" fill="#666" font-size="10" font-family="Helvetica"><tspan x="-28.354" y="0">40.0%</tspan></text>
  <text id="_50.0_" data-name="50.0%" transform="translate(152 558.862)" fill="#666" font-size="10" font-family="Helvetica"><tspan x="-28.354" y="0">50.0%</tspan></text>
  <text id="_60.0_" data-name="60.0%" transform="translate(152 500.862)" fill="#666" font-size="10" font-family="Helvetica"><tspan x="-28.354" y="0">60.0%</tspan></text>
  <text id="_70.0_" data-name="70.0%" transform="translate(152 441.862)" fill="#666" font-size="10" font-family="Helvetica"><tspan x="-28.354" y="0">70.0%</tspan></text>
  <text id="_80.0_" data-name="80.0%" transform="translate(152 383.862)" fill="#666" font-size="10" font-family="Helvetica"><tspan x="-28.354" y="0">80.0%</tspan></text>
  <text id="_45.0_" data-name="45.0%" transform="translate(152 587.862)" fill="#666" font-size="10" font-family="Helvetica"><tspan x="-28.354" y="0">45.0%</tspan></text>
  <text id="_55.0_" data-name="55.0%" transform="translate(152 529.862)" fill="#666" font-size="10" font-family="Helvetica"><tspan x="-28.354" y="0">55.0%</tspan></text>
  <text id="_65.0_" data-name="65.0%" transform="translate(152 470.862)" fill="#666" font-size="10" font-family="Helvetica"><tspan x="-28.354" y="0">65.0%</tspan></text>
  <text id="_75.0_" data-name="75.0%" transform="translate(152 412.862)" fill="#666" font-size="10" font-family="Helvetica"><tspan x="-28.354" y="0">75.0%</tspan></text>
  <text id="Q1_19" data-name="Q1’19" transform="translate(198 628.776)" fill="#666" font-size="10" font-family="Helvetica"><tspan x="-13.342" y="0">Q1’19</tspan></text>
  <text id="Q2_22" data-name="Q2’22" transform="translate(1097 627.988)" fill="#666" font-size="10" font-family="Helvetica"><tspan x="-13.342" y="0">Q2’22</tspan></text>
  <text id="Q3_21" data-name="Q3’21" transform="translate(890 628.776)" fill="#666" font-size="10" font-family="Helvetica"><tspan x="-13.342" y="0">Q3’21</tspan></text>
  <text id="Q1_21" data-name="Q1’21" transform="translate(752 628.776)" fill="#666" font-size="10" font-family="Helvetica"><tspan x="-13.342" y="0">Q1’21</tspan></text>
  <text id="Q3_20" data-name="Q3’20" transform="translate(613 628.776)" fill="#666" font-size="10" font-family="Helvetica"><tspan x="-13.342" y="0">Q3’20</tspan></text>
  <text id="Q1_20" data-name="Q1’20" transform="translate(475 628.776)" fill="#666" font-size="10" font-family="Helvetica"><tspan x="-13.342" y="0">Q1’20</tspan></text>
  <text id="Q3_19" data-name="Q3’19" transform="translate(336 628.776)" fill="#666" font-size="10" font-family="Helvetica"><tspan x="-13.342" y="0">Q3’19</tspan></text>
  <text id="Q1_22" data-name="Q1’22" transform="translate(1028 628.776)" fill="#666" font-size="10" font-family="Helvetica"><tspan x="-13.342" y="0">Q1’22</tspan></text>
  <text id="Q4_21" data-name="Q4’21" transform="translate(959 628.776)" fill="#666" font-size="10" font-family="Helvetica"><tspan x="-13.342" y="0">Q4’21</tspan></text>
  <text id="Q2_21" data-name="Q2’21" transform="translate(821 628.776)" fill="#666" font-size="10" font-family="Helvetica"><tspan x="-13.342" y="0">Q2’21</tspan></text>
  <text id="Q4_20" data-name="Q4’20" transform="translate(682 628.776)" fill="#666" font-size="10" font-family="Helvetica"><tspan x="-13.342" y="0">Q4’20</tspan></text>
  <text id="Q2_20" data-name="Q2’20" transform="translate(544 628.776)" fill="#666" font-size="10" font-family="Helvetica"><tspan x="-13.342" y="0">Q2’20</tspan></text>
  <text id="Q4_19" data-name="Q4’19" transform="translate(406 628.776)" fill="#666" font-size="10" font-family="Helvetica"><tspan x="-13.342" y="0">Q4’19</tspan></text>
  <text id="Q2_19" data-name="Q2’19" transform="translate(267 628.776)" fill="#666" font-size="10" font-family="Helvetica"><tspan x="-13.342" y="0">Q2’19</tspan></text>
  <g id="Ellipse_255" data-name="Ellipse 255" transform="translate(192.672 494.398)" fill="#003d4f" stroke="#edf1f3" stroke-width="1">
    <ellipse cx="4.941" cy="4.941" rx="4.941" ry="4.941" stroke="none"/>
    <ellipse cx="4.941" cy="4.941" rx="4.441" ry="4.441" fill="none"/>
  </g>
  <g id="Ellipse_256" data-name="Ellipse 256" transform="translate(262.059 567.036)" fill="#003d4f" stroke="#edf1f3" stroke-width="1">
    <ellipse cx="4.941" cy="4.941" rx="4.941" ry="4.941" stroke="none"/>
    <ellipse cx="4.941" cy="4.941" rx="4.441" ry="4.441" fill="none"/>
  </g>
  <g id="Ellipse_257" data-name="Ellipse 257" transform="translate(331.201 521.743)" fill="#003d4f" stroke="#edf1f3" stroke-width="1">
    <ellipse cx="4.941" cy="4.941" rx="4.941" ry="4.941" stroke="none"/>
    <ellipse cx="4.941" cy="4.941" rx="4.441" ry="4.441" fill="none"/>
  </g>
  <g id="Ellipse_258" data-name="Ellipse 258" transform="translate(399.197 525.519)" fill="#003d4f" stroke="#edf1f3" stroke-width="1">
    <ellipse cx="4.941" cy="4.941" rx="4.941" ry="4.941" stroke="none"/>
    <ellipse cx="4.941" cy="4.941" rx="4.441" ry="4.441" fill="none"/>
  </g>
  <g id="Ellipse_259" data-name="Ellipse 259" transform="translate(468.41 521.95)" fill="#003d4f" stroke="#edf1f3" stroke-width="1">
    <ellipse cx="4.941" cy="4.941" rx="4.941" ry="4.941" stroke="none"/>
    <ellipse cx="4.941" cy="4.941" rx="4.441" ry="4.441" fill="none"/>
  </g>
  <g id="Ellipse_260" data-name="Ellipse 260" transform="translate(537.623 488.97)" fill="#003d4f" stroke="#edf1f3" stroke-width="1">
    <ellipse cx="4.941" cy="4.941" rx="4.941" ry="4.941" stroke="none"/>
    <ellipse cx="4.941" cy="4.941" rx="4.441" ry="4.441" fill="none"/>
  </g>
  <g id="Ellipse_261" data-name="Ellipse 261" transform="translate(611.053 490.937)" fill="#003d4f" stroke="#edf1f3" stroke-width="1">
    <ellipse cx="4.941" cy="4.941" rx="4.941" ry="4.941" stroke="none"/>
    <ellipse cx="4.941" cy="4.941" rx="4.441" ry="4.441" fill="none"/>
  </g>
  <g id="Ellipse_262" data-name="Ellipse 262" transform="translate(678.479 550.579)" fill="#003d4f" stroke="#edf1f3" stroke-width="1">
    <ellipse cx="4.941" cy="4.941" rx="4.941" ry="4.941" stroke="none"/>
    <ellipse cx="4.941" cy="4.941" rx="4.441" ry="4.441" fill="none"/>
  </g>
  <g id="Ellipse_263" data-name="Ellipse 263" transform="translate(747.059 500.768)" fill="#003d4f" stroke="#edf1f3" stroke-width="1">
    <ellipse cx="4.941" cy="4.941" rx="4.941" ry="4.941" stroke="none"/>
    <ellipse cx="4.941" cy="4.941" rx="4.441" ry="4.441" fill="none"/>
  </g>
  <g id="Ellipse_264" data-name="Ellipse 264" transform="translate(814.117 528.323)" fill="#003d4f" stroke="#edf1f3" stroke-width="1">
    <ellipse cx="4.941" cy="4.941" rx="4.941" ry="4.941" stroke="none"/>
    <ellipse cx="4.941" cy="4.941" rx="4.441" ry="4.441" fill="none"/>
  </g>
  <g id="Ellipse_265" data-name="Ellipse 265" transform="translate(885.113 515.636)" fill="#003d4f" stroke="#edf1f3" stroke-width="1">
    <ellipse cx="4.941" cy="4.941" rx="4.941" ry="4.941" stroke="none"/>
    <ellipse cx="4.941" cy="4.941" rx="4.441" ry="4.441" fill="none"/>
  </g>
  <g id="Ellipse_266" data-name="Ellipse 266" transform="translate(952.898 529.609)" fill="#003d4f" stroke="#edf1f3" stroke-width="1">
    <ellipse cx="4.941" cy="4.941" rx="4.941" ry="4.941" stroke="none"/>
    <ellipse cx="4.941" cy="4.941" rx="4.441" ry="4.441" fill="none"/>
  </g>
  <g id="Ellipse_267" data-name="Ellipse 267" transform="translate(1024.117 516.204)" fill="#003d4f" stroke="#edf1f3" stroke-width="1">
    <ellipse cx="4.941" cy="4.941" rx="4.941" ry="4.941" stroke="none"/>
    <ellipse cx="4.941" cy="4.941" rx="4.441" ry="4.441" fill="none"/>
  </g>
  <g id="Ellipse_268" data-name="Ellipse 268" transform="translate(1093.754 570.036)" fill="#003d4f" stroke="#edf1f3" stroke-width="1">
    <ellipse cx="4.941" cy="4.941" rx="4.941" ry="4.941" stroke="none"/>
    <ellipse cx="4.941" cy="4.941" rx="4.441" ry="4.441" fill="none"/>
  </g>
  <g id="Ellipse_269" data-name="Ellipse 269" transform="translate(1093.754 468.676)" fill="#666" stroke="#edf1f3" stroke-width="1">
    <ellipse cx="4.941" cy="4.941" rx="4.941" ry="4.941" stroke="none"/>
    <ellipse cx="4.941" cy="4.941" rx="4.441" ry="4.441" fill="none"/>
  </g>
  <g id="Ellipse_270" data-name="Ellipse 270" transform="translate(1024.117 454.887)" fill="#666" stroke="#edf1f3" stroke-width="1">
    <ellipse cx="4.941" cy="4.941" rx="4.941" ry="4.941" stroke="none"/>
    <ellipse cx="4.941" cy="4.941" rx="4.441" ry="4.441" fill="none"/>
  </g>
  <g id="Ellipse_271" data-name="Ellipse 271" transform="translate(952.898 482.416)" fill="#666" stroke="#edf1f3" stroke-width="1">
    <ellipse cx="4.941" cy="4.941" rx="4.941" ry="4.941" stroke="none"/>
    <ellipse cx="4.941" cy="4.941" rx="4.441" ry="4.441" fill="none"/>
  </g>
  <g id="Ellipse_272" data-name="Ellipse 272" transform="translate(885.113 446.366)" fill="#666" stroke="#edf1f3" stroke-width="1">
    <ellipse cx="4.941" cy="4.941" rx="4.941" ry="4.941" stroke="none"/>
    <ellipse cx="4.941" cy="4.941" rx="4.441" ry="4.441" fill="none"/>
  </g>
  <g id="Ellipse_273" data-name="Ellipse 273" transform="translate(814.117 443.744)" fill="#666" stroke="#edf1f3" stroke-width="1">
    <ellipse cx="4.941" cy="4.941" rx="4.941" ry="4.941" stroke="none"/>
    <ellipse cx="4.941" cy="4.941" rx="4.441" ry="4.441" fill="none"/>
  </g>
  <g id="Ellipse_274" data-name="Ellipse 274" transform="translate(747.059 427.358)" fill="#666" stroke="#edf1f3" stroke-width="1">
    <ellipse cx="4.941" cy="4.941" rx="4.941" ry="4.941" stroke="none"/>
    <ellipse cx="4.941" cy="4.941" rx="4.441" ry="4.441" fill="none"/>
  </g>
  <g id="Ellipse_275" data-name="Ellipse 275" transform="translate(677.059 460.935)" fill="#666" stroke="#edf1f3" stroke-width="1">
    <ellipse cx="4.941" cy="4.941" rx="4.941" ry="4.941" stroke="none"/>
    <ellipse cx="4.941" cy="4.941" rx="4.441" ry="4.441" fill="none"/>
  </g>
  <g id="Ellipse_276" data-name="Ellipse 276" transform="translate(608.051 406.383)" fill="#666" stroke="#edf1f3" stroke-width="1">
    <ellipse cx="4.941" cy="4.941" rx="4.941" ry="4.941" stroke="none"/>
    <ellipse cx="4.941" cy="4.941" rx="4.441" ry="4.441" fill="none"/>
  </g>
  <g id="Ellipse_277" data-name="Ellipse 277" transform="translate(538.838 400.484)" fill="#666" stroke="#edf1f3" stroke-width="1">
    <ellipse cx="4.941" cy="4.941" rx="4.941" ry="4.941" stroke="none"/>
    <ellipse cx="4.941" cy="4.941" rx="4.441" ry="4.441" fill="none"/>
  </g>
  <g id="Ellipse_278" data-name="Ellipse 278" transform="translate(470.059 456.864)" fill="#666" stroke="#edf1f3" stroke-width="1">
    <ellipse cx="4.941" cy="4.941" rx="4.941" ry="4.941" stroke="none"/>
    <ellipse cx="4.941" cy="4.941" rx="4.441" ry="4.441" fill="none"/>
  </g>
  <g id="Ellipse_279" data-name="Ellipse 279" transform="translate(399.197 470.818)" fill="#666" stroke="#edf1f3" stroke-width="1">
    <ellipse cx="4.941" cy="4.941" rx="4.941" ry="4.941" stroke="none"/>
    <ellipse cx="4.941" cy="4.941" rx="4.441" ry="4.441" fill="none"/>
  </g>
  <g id="Ellipse_280" data-name="Ellipse 280" transform="translate(331.059 439.786)" fill="#666" stroke="#edf1f3" stroke-width="1">
    <ellipse cx="4.941" cy="4.941" rx="4.941" ry="4.941" stroke="none"/>
    <ellipse cx="4.941" cy="4.941" rx="4.441" ry="4.441" fill="none"/>
  </g>
  <g id="Ellipse_281" data-name="Ellipse 281" transform="translate(262.059 453.951)" fill="#666" stroke="#edf1f3" stroke-width="1">
    <ellipse cx="4.941" cy="4.941" rx="4.941" ry="4.941" stroke="none"/>
    <ellipse cx="4.941" cy="4.941" rx="4.441" ry="4.441" fill="none"/>
  </g>
  <g id="Ellipse_282" data-name="Ellipse 282" transform="translate(194 467.256)" fill="#666" stroke="#edf1f3" stroke-width="1">
    <ellipse cx="4.941" cy="4.941" rx="4.941" ry="4.941" stroke="none"/>
    <ellipse cx="4.941" cy="4.941" rx="4.441" ry="4.441" fill="none"/>
  </g>
  <text id="_65.7_" data-name="65.7%" transform="translate(214 461.833)" fill="#666" font-size="12" font-family="Helvetica-Bold, Helvetica" font-weight="700"><tspan x="-34.025" y="0">65.7%</tspan></text>
  <text id="_67.8_" data-name="67.8%" transform="translate(277.059 448.528)" fill="#666" font-size="12" font-family="Helvetica-Bold, Helvetica" font-weight="700"><tspan x="-34.025" y="0">67.8%</tspan></text>
  <text id="_70.2_" data-name="70.2%" transform="translate(353.945 436.62)" fill="#666" font-size="12" font-family="Helvetica-Bold, Helvetica" font-weight="700"><tspan x="-34.025" y="0">70.2%</tspan></text>
  <text id="_65.5_" data-name="65.5%" transform="translate(420 492.398)" fill="#666" font-size="12" font-family="Helvetica-Bold, Helvetica" font-weight="700"><tspan x="-34.025" y="0">65.5%</tspan></text>
  <text id="_67.4_" data-name="67.4%" transform="translate(493.941 479.759)" fill="#666" font-size="12" font-family="Helvetica-Bold, Helvetica" font-weight="700"><tspan x="-34.025" y="0">67.4%</tspan></text>
  <text id="_76.1_" data-name="76.1%" transform="translate(559 397.974)" fill="#666" font-size="12" font-family="Helvetica-Bold, Helvetica" font-weight="700"><tspan x="-34.025" y="0">76.1%</tspan></text>
  <text id="_75.2_" data-name="75.2%" transform="translate(630 401.095)" fill="#666" font-size="12" font-family="Helvetica-Bold, Helvetica" font-weight="700"><tspan x="-34.025" y="0">75.2%</tspan></text>
  <text id="_67.0_" data-name="67.0%" transform="translate(696 482.523)" fill="#666" font-size="12" font-family="Helvetica-Bold, Helvetica" font-weight="700"><tspan x="-34.025" y="0">67.0%</tspan></text>
  <text id="_72.0_" data-name="72.0%" transform="translate(763 425.358)" fill="#666" font-size="12" font-family="Helvetica-Bold, Helvetica" font-weight="700"><tspan x="-34.025" y="0">72.0%</tspan></text>
  <text id="_69.6_" data-name="69.6%" transform="translate(834.629 462.452)" fill="#666" font-size="12" font-family="Helvetica-Bold, Helvetica" font-weight="700"><tspan x="-34.025" y="0">69.6%</tspan></text>
  <text id="_69.1_" data-name="69.1%" transform="translate(904.951 438.164)" fill="#666" font-size="12" font-family="Helvetica-Bold, Helvetica" font-weight="700"><tspan x="-34.025" y="0">69.1%</tspan></text>
  <text id="_63.6_" data-name="63.6%" transform="translate(976.781 502.97)" fill="#666" font-size="12" font-family="Helvetica-Bold, Helvetica" font-weight="700"><tspan x="-34.025" y="0">63.6%</tspan></text>
  <text id="_67.8_2" data-name="67.8%" transform="translate(1043.059 452.03)" fill="#666" font-size="12" font-family="Helvetica-Bold, Helvetica" font-weight="700"><tspan x="-34.025" y="0">67.8%</tspan></text>
  <text id="_65.8_" data-name="65.8%" transform="translate(1115.779 464.307)" fill="#666" font-size="12" font-family="Helvetica-Bold, Helvetica" font-weight="700"><tspan x="-34.025" y="0">65.8%</tspan></text>
  <text id="_50.8_" data-name="50.8%" transform="translate(1115.779 591.995)" fill="#003d4f" font-size="12" font-family="Helvetica-Bold, Helvetica" font-weight="700"><tspan x="-34.025" y="0">50.8%</tspan></text>
  <text id="_58.6_" data-name="58.6%" transform="translate(1042.268 539.423)" fill="#003d4f" font-size="12" font-family="Helvetica-Bold, Helvetica" font-weight="700"><tspan x="-34.025" y="0">58.6%</tspan></text>
  <text id="_56.4_" data-name="56.4%" transform="translate(973 553.58)" fill="#003d4f" font-size="12" font-family="Helvetica-Bold, Helvetica" font-weight="700"><tspan x="-34.025" y="0">56.4%</tspan></text>
  <text id="_58.4_" data-name="58.4%" transform="translate(904.951 537.995)" fill="#003d4f" font-size="12" font-family="Helvetica-Bold, Helvetica" font-weight="700"><tspan x="-34.025" y="0">58.4%</tspan></text>
  <text id="_56.4_2" data-name="56.4%" transform="translate(834.629 549.351)" fill="#003d4f" font-size="12" font-family="Helvetica-Bold, Helvetica" font-weight="700"><tspan x="-34.025" y="0">56.4%</tspan></text>
  <text id="_60.8_" data-name="60.8%" transform="translate(764.771 496.97)" fill="#003d4f" font-size="12" font-family="Helvetica-Bold, Helvetica" font-weight="700"><tspan x="-34.025" y="0">60.8%</tspan></text>
  <text id="_52.8_" data-name="52.8%" transform="translate(700.941 571.036)" fill="#003d4f" font-size="12" font-family="Helvetica-Bold, Helvetica" font-weight="700"><tspan x="-34.025" y="0">52.8%</tspan></text>
  <text id="_62.3_" data-name="62.3%" transform="translate(620.936 510.819)" fill="#003d4f" font-size="12" font-family="Helvetica-Bold, Helvetica" font-weight="700"><tspan x="-34.025" y="0">62.3%</tspan></text>
  <text id="_62.6_" data-name="62.6%" transform="translate(566.838 509.71)" fill="#003d4f" font-size="12" font-family="Helvetica-Bold, Helvetica" font-weight="700"><tspan x="-34.025" y="0">62.6%</tspan></text>
  <text id="_57.7_" data-name="57.7%" transform="translate(489 542.464)" fill="#003d4f" font-size="12" font-family="Helvetica-Bold, Helvetica" font-weight="700"><tspan x="-34.025" y="0">57.7%</tspan></text>
  <text id="_57.1_" data-name="57.1%" transform="translate(420 547.625)" fill="#003d4f" font-size="12" font-family="Helvetica-Bold, Helvetica" font-weight="700"><tspan x="-34.025" y="0">57.1%</tspan></text>
  <text id="_57.6_" data-name="57.6%" transform="translate(361 543.351)" fill="#003d4f" font-size="12" font-family="Helvetica-Bold, Helvetica" font-weight="700"><tspan x="-34.025" y="0">57.6%</tspan></text>
  <text id="_50.6_" data-name="50.6%" transform="translate(285.941 592.891)" fill="#003d4f" font-size="12" font-family="Helvetica-Bold, Helvetica" font-weight="700"><tspan x="-34.025" y="0">50.6%</tspan></text>
  <text id="_61.7_" data-name="61.7%" transform="translate(202.555 515.71)" fill="#003d4f" font-size="12" font-family="Helvetica-Bold, Helvetica" font-weight="700"><tspan x="-34.025" y="0">61.7%</tspan></text>
  <text id="GP_" data-name="GP%" transform="translate(412.352 332.362)" fill="#003d4f" font-size="12" font-family="Helvetica"><tspan x="0" y="0">GP%</tspan></text>
  <text id="GPAv._utilization_" data-name="GPAv. utilization%" transform="translate(473.941 332.362)" fill="#666" font-size="12" font-family="Helvetica"><tspan x="0" y="0">GPAv. utilization%</tspan></text>
  <rect id="Rectangle_5195" data-name="Rectangle 5195" width="15.6" height="3.6" transform="translate(391.398 327.062)" fill="#003d4f" stroke="#eef1f3" stroke-width="1"/>
  <rect id="Rectangle_5196" data-name="Rectangle 5196" width="15.6" height="3.6" transform="translate(452.988 327.062)" fill="#666" stroke="#eef1f3" stroke-width="1"/>
</svg>
