<svg xmlns="http://www.w3.org/2000/svg" width="1244" height="665.082" viewBox="0 0 1244 665.082">
  <rect id="Rectangle_4770" data-name="Rectangle 4770" width="1244" height="665" fill="#fff"/>
  <g id="Group_12385" data-name="Group 12385" transform="translate(0 94.055)">
    <g id="Group_12311" data-name="Group 12311" transform="translate(0 0)">
      <path id="Path_15980" data-name="Path 15980" d="M940.779,77.847H745.962l-8.613-10.165a75.326,75.326,0,0,0-30.711-18.1l-1.364-.341H940.779Z" transform="translate(143.616 -45.754)" fill="#eef1f3" fill-rule="evenodd"/>
      <path id="Path_15981" data-name="Path 15981" d="M1088.531,77.847H820.092L808.223,67.681c-11.682-8.256-26.148-14.542-42.318-18.1l-1.88-.341h324.505Z" transform="translate(155.468 -45.754)" fill="#eef1f3" fill-rule="evenodd"/>
      <path id="Path_15982" data-name="Path 15982" d="M509.456,139.273H698.807l8.372,10.165a72.8,72.8,0,0,0,29.85,18.094l1.326.341h-228.9Z" transform="translate(104.114 -27.593)" fill="#eef1f3" fill-rule="evenodd"/>
      <path id="Path_15983" data-name="Path 15983" d="M660.018,117.54h0a69.047,69.047,0,0,1,68.924-69.17h0a69.049,69.049,0,0,1,68.924,69.17h0a69.047,69.047,0,0,1-68.924,69.17h0A69.047,69.047,0,0,1,660.018,117.54Z" transform="translate(134.487 -45.931)" fill="#eef1f3" fill-rule="evenodd"/>
      <path id="Path_15984" data-name="Path 15984" d="M679.18,113.589h0A45.788,45.788,0,0,1,725.073,67.9h0a45.787,45.787,0,0,1,45.892,45.685h0a45.788,45.788,0,0,1-45.892,45.684h0A45.788,45.788,0,0,1,679.18,113.589Z" transform="translate(138.352 -41.99)" fill="#cc850a" fill-rule="evenodd"/>
      <path id="Path_15985" data-name="Path 15985" d="M303.069,230.551H492.42l8.372,10.165a72.827,72.827,0,0,0,29.85,18.094l1.326.341h-228.9Z" transform="translate(62.479 -9.179)" fill="#eef1f3" fill-rule="evenodd"/>
      <path id="Path_15986" data-name="Path 15986" d="M453.631,208.818h0a69.047,69.047,0,0,1,68.924-69.17h0a69.045,69.045,0,0,1,68.924,69.17h0a69.047,69.047,0,0,1-68.924,69.17h0A69.047,69.047,0,0,1,453.631,208.818Z" transform="translate(92.852 -27.517)" fill="#eef1f3" fill-rule="evenodd"/>
      <path id="Path_15987" data-name="Path 15987" d="M472.793,204.866h0a45.789,45.789,0,0,1,45.893-45.685h0a45.791,45.791,0,0,1,45.893,45.685h0a45.789,45.789,0,0,1-45.893,45.685h0A45.789,45.789,0,0,1,472.793,204.866Z" transform="translate(96.718 -23.577)" fill="#cc850a" fill-rule="evenodd"/>
      <path id="Path_15988" data-name="Path 15988" d="M96.711,322.076H286.063l8.372,10.165a72.794,72.794,0,0,0,29.85,18.094l1.326.341H96.711Z" transform="translate(20.851 9.284)" fill="#eef1f3" fill-rule="evenodd"/>
      <path id="Path_15989" data-name="Path 15989" d="M247.237,299.733h0a69.048,69.048,0,0,1,68.925-69.17h0a69.049,69.049,0,0,1,68.924,69.17h0a69.047,69.047,0,0,1-68.924,69.17h0A69.048,69.048,0,0,1,247.237,299.733Z" transform="translate(51.216 -9.177)" fill="#eef1f3" fill-rule="evenodd"/>
      <path id="Path_15990" data-name="Path 15990" d="M266.249,297.231h0a45.789,45.789,0,0,1,45.893-45.685h0a45.789,45.789,0,0,1,45.893,45.685h0a45.789,45.789,0,0,1-45.893,45.684h0A45.789,45.789,0,0,1,266.249,297.231Z" transform="translate(55.052 -4.944)" fill="#cc850a" fill-rule="evenodd"/>
      <path id="Path_15991" data-name="Path 15991" d="M40.9,391.09h0a68.973,68.973,0,0,1,68.925-69.019h0a68.973,68.973,0,0,1,68.924,69.019h0a68.972,68.972,0,0,1-68.924,69.019h0A68.973,68.973,0,0,1,40.9,391.09Z" transform="translate(9.591 9.283)" fill="#eef1f3" fill-rule="evenodd"/>
      <path id="Path_15992" data-name="Path 15992" d="M60.058,387.289h0A45.79,45.79,0,0,1,105.951,341.6h0a45.789,45.789,0,0,1,45.893,45.685h0a45.789,45.789,0,0,1-45.893,45.685h0A45.789,45.789,0,0,1,60.058,387.289Z" transform="translate(13.457 13.224)" fill="#cc850a" fill-rule="evenodd"/>
      <path id="Path_15993" data-name="Path 15993" d="M-1.116,412.165H88.111l3.945,10.641c3.883,8.64,8.691,15.221,14.066,18.94l.624.358H-1.116Z" transform="translate(1.116 27.458)" fill="#eef1f3" fill-rule="evenodd"/>
      <path id="Path_15994" data-name="Path 15994" d="M53.258,388.655h0a53.945,53.945,0,0,1,54.068-53.822h0a53.946,53.946,0,0,1,54.068,53.822h0a53.946,53.946,0,0,1-54.068,53.823h0A53.945,53.945,0,0,1,53.258,388.655Z" transform="translate(12.085 11.858)" fill="rgba(0,0,0,0)" fill-rule="evenodd"/>
      <path id="Path_15995" data-name="Path 15995" d="M53.258,388.655h0a53.945,53.945,0,0,1,54.068-53.822h0a53.946,53.946,0,0,1,54.068,53.822h0a53.946,53.946,0,0,1-54.068,53.823h0A53.945,53.945,0,0,1,53.258,388.655Z" transform="translate(12.085 11.858)" fill="none" stroke="#003d4f" stroke-linejoin="round" stroke-width="1"/>
      <path id="Path_15996" data-name="Path 15996" d="M258.792,298.592h0a53.946,53.946,0,0,1,54.068-53.823h0a53.946,53.946,0,0,1,54.068,53.823h0a53.945,53.945,0,0,1-54.068,53.822h0A53.946,53.946,0,0,1,258.792,298.592Z" transform="translate(53.547 -6.311)" fill="rgba(0,0,0,0)" fill-rule="evenodd"/>
      <path id="Path_15997" data-name="Path 15997" d="M258.792,298.592h0a53.946,53.946,0,0,1,54.068-53.823h0a53.946,53.946,0,0,1,54.068,53.823h0a53.945,53.945,0,0,1-54.068,53.822h0A53.946,53.946,0,0,1,258.792,298.592Z" transform="translate(53.547 -6.311)" fill="none" stroke="#003d4f" stroke-linejoin="round" stroke-width="1"/>
      <path id="Path_15998" data-name="Path 15998" d="M465.991,206.228h0a53.945,53.945,0,0,1,54.068-53.822h0a53.946,53.946,0,0,1,54.068,53.822h0a53.946,53.946,0,0,1-54.068,53.823h0A53.945,53.945,0,0,1,465.991,206.228Z" transform="translate(95.346 -24.943)" fill="rgba(0,0,0,0)" fill-rule="evenodd"/>
      <path id="Path_15999" data-name="Path 15999" d="M465.991,206.228h0a53.945,53.945,0,0,1,54.068-53.822h0a53.946,53.946,0,0,1,54.068,53.822h0a53.946,53.946,0,0,1-54.068,53.823h0A53.945,53.945,0,0,1,465.991,206.228Z" transform="translate(95.346 -24.943)" fill="none" stroke="#003d4f" stroke-linejoin="round" stroke-width="1"/>
      <path id="Path_16000" data-name="Path 16000" d="M672.375,114.951h0a53.946,53.946,0,0,1,54.068-53.822h0a53.942,53.942,0,0,1,54.068,53.822h0a53.945,53.945,0,0,1-54.068,53.822h0A53.946,53.946,0,0,1,672.375,114.951Z" transform="translate(136.98 -43.357)" fill="rgba(0,0,0,0)" fill-rule="evenodd"/>
      <path id="Path_16001" data-name="Path 16001" d="M672.375,114.951h0a53.946,53.946,0,0,1,54.068-53.822h0a53.942,53.942,0,0,1,54.068,53.822h0a53.945,53.945,0,0,1-54.068,53.822h0A53.946,53.946,0,0,1,672.375,114.951Z" transform="translate(136.98 -43.357)" fill="none" stroke="#003d4f" stroke-linejoin="round" stroke-width="1"/>
      <path id="Path_16002" data-name="Path 16002" d="M698.037,87.179a1.3,1.3,0,0,0-1.287.649v42.628a1.085,1.085,0,0,0,1.178.739H715.44c.048,0,.1,0,.149,0,.15,0,.29-.035.29-.312v-1.632H698.5V89.15h17.375c0-.461-.028-.893,0-1.293.055-.523-.111-.678-.576-.678q-4.319.023-8.633.025T698.037,87.179Z" transform="translate(141.897 -38.102)" fill="#eef1f3" fill-rule="evenodd"/>
      <path id="Path_16003" data-name="Path 16003" d="M715.255,84.771c-.876,0-1.151.308-1.151,1.294v21.56c0,.184.029.368.029.555h1.724V86.742h25.187V133.59H715.832V114.126H714.1v20.018c0,1.172.246,1.449,1.288,1.449h26.118c1.041,0,1.288-.278,1.288-1.449V85.788a.937.937,0,0,0-.878-1.017Z" transform="translate(145.398 -38.587)" fill="#eef1f3" fill-rule="evenodd"/>
      <path id="Path_16004" data-name="Path 16004" d="M727.895,88.007q-4.8,0-9.605.022c-1.07,0-1.288.248-1.288,1.419v17.616c0,.154.026.309.026.464h1.727V90h18.2v39.027H718.728V113.44H717v16.2c0,1.077.246,1.384,1.234,1.384H737.5c.988,0,1.234-.308,1.234-1.384V89.383c0-1.077-.246-1.354-1.234-1.354Q732.69,88.007,727.895,88.007Z" transform="translate(145.982 -37.935)" fill="#eef1f3" fill-rule="evenodd"/>
      <path id="Path_16005" data-name="Path 16005" d="M700.77,90.46c-.85,0-1.125.339-1.125,1.293V125.3c0,1.017.275,1.326,1.18,1.326h14.443V124.68H701.4V92.4h13.868v-1.91a2.215,2.215,0,0,0-.44-.031Z" transform="translate(142.481 -37.44)" fill="#eef1f3" fill-rule="evenodd"/>
      <path id="Path_16006" data-name="Path 16006" d="M722.234,103.738c-.548.523-.959.955-1.424,1.417.684.738,1.341,1.416,2.081,2.216-.713.77-1.37,1.481-1.972,2.157.41.461.794.894,1.177,1.356.85-.955,1.728-1.878,2.549-2.865a1,1,0,0,0-.026-1.448c-.522-.617-1.1-1.2-1.644-1.848C722.7,104.383,722.426,103.983,722.234,103.738Z" transform="translate(146.75 -34.761)" fill="#eef1f3" fill-rule="evenodd"/>
      <path id="Path_16007" data-name="Path 16007" d="M708.358,105.915v1.91h1.67v-1.91Z" transform="translate(144.238 -34.322)" fill="#eef1f3" fill-rule="evenodd"/>
      <path id="Path_16008" data-name="Path 16008" d="M711.254,105.942v1.877h1.672v-1.877Z" transform="translate(144.823 -34.316)" fill="#eef1f3" fill-rule="evenodd"/>
      <path id="Path_16009" data-name="Path 16009" d="M714.149,105.942v1.91h1.645v-1.91Z" transform="translate(145.407 -34.316)" fill="#eef1f3" fill-rule="evenodd"/>
      <path id="Path_16010" data-name="Path 16010" d="M719.919,105.942v1.877h1.673v-1.877Z" transform="translate(146.571 -34.316)" fill="#eef1f3" fill-rule="evenodd"/>
      <path id="Path_16011" data-name="Path 16011" d="M717.023,105.942v1.877H718.7v-1.877Z" transform="translate(145.987 -34.316)" fill="#eef1f3" fill-rule="evenodd"/>
      <path id="Path_16012" data-name="Path 16012" d="M511.026,190.436a10.8,10.8,0,1,1-10.819,10.825A10.825,10.825,0,0,1,511.026,190.436Zm0-1.4a12.208,12.208,0,1,0,12.188,12.228A12.262,12.262,0,0,0,511.026,189.034Z" transform="translate(101.965 -17.554)" fill="#eef1f3" fill-rule="evenodd"/>
      <path id="Path_16013" data-name="Path 16013" d="M511.026,190.436a10.8,10.8,0,1,1-10.819,10.825A10.825,10.825,0,0,1,511.026,190.436Zm0-1.4a12.208,12.208,0,1,0,12.188,12.228A12.262,12.262,0,0,0,511.026,189.034Z" transform="translate(101.965 -17.554)" fill="none" stroke="#fff" stroke-linejoin="round" stroke-width="1"/>
      <path id="Path_16014" data-name="Path 16014" d="M509.789,196.535a3.469,3.469,0,1,1-3.49,3.489A3.456,3.456,0,0,1,509.789,196.535Zm0-1.364a4.833,4.833,0,1,0,4.82,4.853A4.833,4.833,0,0,0,509.789,195.171Z" transform="translate(103.202 -16.316)" fill="#eef1f3" fill-rule="evenodd"/>
      <path id="Path_16015" data-name="Path 16015" d="M509.789,196.535a3.469,3.469,0,1,1-3.49,3.489A3.456,3.456,0,0,1,509.789,196.535Zm0-1.364a4.833,4.833,0,1,0,4.82,4.853A4.833,4.833,0,0,0,509.789,195.171Z" transform="translate(103.202 -16.316)" fill="none" stroke="#fff" stroke-linejoin="round" stroke-width="1"/>
      <path id="Path_16016" data-name="Path 16016" d="M512.257,184.336A18.136,18.136,0,1,1,494.1,202.492,18.146,18.146,0,0,1,512.257,184.336Zm0-1.4a19.538,19.538,0,1,0,19.524,19.557A19.575,19.575,0,0,0,512.257,182.935Z" transform="translate(100.734 -18.785)" fill="#eef1f3" fill-rule="evenodd"/>
      <path id="Path_16017" data-name="Path 16017" d="M512.257,184.336A18.136,18.136,0,1,1,494.1,202.492,18.146,18.146,0,0,1,512.257,184.336Zm0-1.4a19.538,19.538,0,1,0,19.524,19.557A19.575,19.575,0,0,0,512.257,182.935Z" transform="translate(100.734 -18.785)" fill="none" stroke="#fff" stroke-linejoin="round" stroke-width="1"/>
      <path id="Path_16018" data-name="Path 16018" d="M530.916,180.442a.767.767,0,0,0-.5.191l-21.817,21.856a.656.656,0,0,0,0,.973.7.7,0,0,0,.5.21.693.693,0,0,0,.467-.21l21.861-21.823a.695.695,0,0,0-.506-1.2Z" transform="translate(103.896 -19.288)" fill="#eef1f3" fill-rule="evenodd"/>
      <path id="Path_16019" data-name="Path 16019" d="M530.916,180.442a.767.767,0,0,0-.5.191l-21.817,21.856a.656.656,0,0,0,0,.973.7.7,0,0,0,.5.21.693.693,0,0,0,.467-.21l21.861-21.823a.695.695,0,0,0-.506-1.2Z" transform="translate(103.896 -19.288)" fill="none" stroke="#fff" stroke-linejoin="round" stroke-width="1"/>
      <path id="Path_16020" data-name="Path 16020" d="M522.38,179.973a.715.715,0,0,0-.723.679v6.471a.721.721,0,0,0,.723.685.706.706,0,0,0,.679-.685v-6.471A.7.7,0,0,0,522.38,179.973Z" transform="translate(106.575 -19.382)" fill="#eef1f3" fill-rule="evenodd"/>
      <path id="Path_16021" data-name="Path 16021" d="M522.38,179.973a.715.715,0,0,0-.723.679v6.471a.721.721,0,0,0,.723.685.706.706,0,0,0,.679-.685v-6.471A.7.7,0,0,0,522.38,179.973Z" transform="translate(106.575 -19.382)" fill="none" stroke="#fff" stroke-linejoin="round" stroke-width="1"/>
      <path id="Path_16022" data-name="Path 16022" d="M525.193,177.16a.694.694,0,0,0-.724.679v6.44a.725.725,0,0,0,.724.716.713.713,0,0,0,.679-.716v-6.44A.68.68,0,0,0,525.193,177.16Z" transform="translate(107.143 -19.95)" fill="#eef1f3" fill-rule="evenodd"/>
      <path id="Path_16023" data-name="Path 16023" d="M525.193,177.16a.694.694,0,0,0-.724.679v6.44a.725.725,0,0,0,.724.716.713.713,0,0,0,.679-.716v-6.44A.68.68,0,0,0,525.193,177.16Z" transform="translate(107.143 -19.95)" fill="none" stroke="#fff" stroke-linejoin="round" stroke-width="1"/>
      <path id="Path_16024" data-name="Path 16024" d="M522.38,185.327a.7.7,0,1,0,0,1.4h6.434a.7.7,0,0,0,0-1.4Z" transform="translate(106.575 -18.302)" fill="#eef1f3" fill-rule="evenodd"/>
      <path id="Path_16025" data-name="Path 16025" d="M522.38,185.327a.7.7,0,1,0,0,1.4h6.434a.7.7,0,0,0,0-1.4Z" transform="translate(106.575 -18.302)" fill="none" stroke="#fff" stroke-linejoin="round" stroke-width="1"/>
      <path id="Path_16026" data-name="Path 16026" d="M525.193,182.514a.7.7,0,1,0,0,1.4h6.434a.687.687,0,0,0,.678-.716.68.68,0,0,0-.678-.685Z" transform="translate(107.143 -18.87)" fill="#eef1f3" fill-rule="evenodd"/>
      <path id="Path_16027" data-name="Path 16027" d="M525.193,182.514a.7.7,0,1,0,0,1.4h6.434a.687.687,0,0,0,.678-.716.68.68,0,0,0-.678-.685Z" transform="translate(107.143 -18.87)" fill="none" stroke="#fff" stroke-linejoin="round" stroke-width="1"/>
      <path id="Path_16028" data-name="Path 16028" d="M162,117.859a79.884,79.884,0,1,1-79.885,79.884A79.832,79.832,0,0,1,162,117.859Zm0-6.355a86.224,86.224,0,1,0,86.209,86.239A86.378,86.378,0,0,0,162,111.5Z" transform="translate(16.595 -33.194)" fill="rgba(0,0,0,0)" fill-rule="evenodd"/>
      <path id="Path_16029" data-name="Path 16029" d="M162,117.859a79.884,79.884,0,1,1-79.885,79.884A79.832,79.832,0,0,1,162,117.859Zm0-6.355a86.224,86.224,0,1,0,86.209,86.239A86.378,86.378,0,0,0,162,111.5Z" transform="translate(69.072 -123.353)" fill="none" stroke="#ccc" stroke-linejoin="round" stroke-width="1"/>
      <path id="Path_16030" data-name="Path 16030" d="M99.29,227.395a104.932,104.932,0,0,0,18.678,18.68l-46.712,46.5a12.62,12.62,0,0,1-8.938,3.86h-.565a13.266,13.266,0,0,1-9.324-4.009c-4.841-5.166-4.514-13.69.832-18.856Zm.653-8.2a3.447,3.447,0,0,0-2.494,1.009L48.6,268.911c-7.691,7.84-8.018,20.342-.86,27.855a20.235,20.235,0,0,0,14.016,6.177h.179a18.8,18.8,0,0,0,13.838-5.85l49.356-49.207a2.8,2.8,0,0,0,.832-2.495,2.681,2.681,0,0,0-1.336-2.346,91.89,91.89,0,0,1-22.332-22.51A3.776,3.776,0,0,0,99.943,219.2Z" transform="translate(9.933 -11.469)" fill="rgba(0,0,0,0)" fill-rule="evenodd"/>
      <path id="Path_16031" data-name="Path 16031" d="M99.29,227.395a104.932,104.932,0,0,0,18.678,18.68l-46.712,46.5a12.62,12.62,0,0,1-8.938,3.86h-.565a13.266,13.266,0,0,1-9.324-4.009c-4.841-5.166-4.514-13.69.832-18.856Zm.653-8.2a3.447,3.447,0,0,0-2.494,1.009L48.6,268.911c-7.691,7.84-8.018,20.342-.86,27.855a20.235,20.235,0,0,0,14.016,6.177h.179a18.8,18.8,0,0,0,13.838-5.85l49.356-49.207a2.8,2.8,0,0,0,.832-2.495,2.681,2.681,0,0,0-1.336-2.346,91.89,91.89,0,0,1-22.332-22.51A3.776,3.776,0,0,0,99.943,219.2Z" transform="translate(62.41 -101.627)" fill="none" stroke="#ccc" stroke-linejoin="round" stroke-width="1"/>
      <path id="Path_16032" data-name="Path 16032" d="M196.233,152.926l5.1,32.512a17.831,17.831,0,0,1-3.425,10.9L184.46,212.593a9.071,9.071,0,0,0-2.109,6.765l.084,1.581h0l-14.855-7.114a17.979,17.979,0,0,1,6.6-16.959l1.05-.883a16.367,16.367,0,0,0,4.482-5.623l5.183-10.895a6.951,6.951,0,0,1,6.29-3.963,6.784,6.784,0,0,1,1.184.1l-7.558,15.818a1.893,1.893,0,0,0,.876,2.549,1.818,1.818,0,0,0,2.549-.882l8.531-17.835a2.037,2.037,0,0,0-.882-2.549,8.242,8.242,0,0,0-1.934-.617L193.6,157.5v-.091A4.717,4.717,0,0,1,196.233,152.926Zm-34.719,62.3,22.595,10.721-3.957,8.437-22.679-10.8Zm36.218-66.614c-.062,0-.119.007-.174.007a8.682,8.682,0,0,0-7.824,8.964l.351,14.152a10.835,10.835,0,0,0-8.7,6.148l-5.19,10.812A11.749,11.749,0,0,1,172.769,193l-1.058.875a22.025,22.025,0,0,0-8.173,18.018l-2.109-.966a2.068,2.068,0,0,0-.854-.189,1.838,1.838,0,0,0-1.694,1.064l-5.624,11.862a1.828,1.828,0,0,0,.875,2.549l26.1,12.479a2.525,2.525,0,0,0,.876.181,1.508,1.508,0,0,0,.532-.091,2.093,2.093,0,0,0,1.142-.973l5.624-11.945a1.893,1.893,0,0,0-.876-2.549l-1.142-.525-.266-3.691a5.647,5.647,0,0,1,1.317-4.047l13.447-16.344a.085.085,0,0,0,.091-.084,21.979,21.979,0,0,0,4.216-13.361V185l-5.533-34.8A1.947,1.947,0,0,0,197.732,148.612Z" transform="translate(32.212 -25.709)" fill="rgba(0,0,0,0)" fill-rule="evenodd"/>
      <path id="Path_16033" data-name="Path 16033" d="M196.233,152.926l5.1,32.512a17.831,17.831,0,0,1-3.425,10.9L184.46,212.593a9.071,9.071,0,0,0-2.109,6.765l.084,1.581h0l-14.855-7.114a17.979,17.979,0,0,1,6.6-16.959l1.05-.883a16.367,16.367,0,0,0,4.482-5.623l5.183-10.895a6.951,6.951,0,0,1,6.29-3.963,6.784,6.784,0,0,1,1.184.1l-7.558,15.818a1.893,1.893,0,0,0,.876,2.549,1.818,1.818,0,0,0,2.549-.882l8.531-17.835a2.037,2.037,0,0,0-.882-2.549,8.242,8.242,0,0,0-1.934-.617L193.6,157.5v-.091A4.717,4.717,0,0,1,196.233,152.926Zm-34.719,62.3,22.595,10.721-3.957,8.437-22.679-10.8Zm36.218-66.614c-.062,0-.119.007-.174.007a8.682,8.682,0,0,0-7.824,8.964l.351,14.152a10.835,10.835,0,0,0-8.7,6.148l-5.19,10.812A11.749,11.749,0,0,1,172.769,193l-1.058.875a22.025,22.025,0,0,0-8.173,18.018l-2.109-.966a2.068,2.068,0,0,0-.854-.189,1.838,1.838,0,0,0-1.694,1.064l-5.624,11.862a1.828,1.828,0,0,0,.875,2.549l26.1,12.479a2.525,2.525,0,0,0,.876.181,1.508,1.508,0,0,0,.532-.091,2.093,2.093,0,0,0,1.142-.973l5.624-11.945a1.893,1.893,0,0,0-.876-2.549l-1.142-.525-.266-3.691a5.647,5.647,0,0,1,1.317-4.047l13.447-16.344a.085.085,0,0,0,.091-.084,21.979,21.979,0,0,0,4.216-13.361V185l-5.533-34.8A1.947,1.947,0,0,0,197.732,148.612Z" transform="translate(84.69 -115.867)" fill="none" stroke="#d9d9d9" stroke-linejoin="round" stroke-width="1"/>
      <path id="Path_16034" data-name="Path 16034" d="M110.414,152.926a4.645,4.645,0,0,1,2.549,4.481v.091l-.35,14.585a7.639,7.639,0,0,0-1.849.617,1.991,1.991,0,0,0-.966,2.549l8.531,17.835a1.818,1.818,0,0,0,2.549.882,1.828,1.828,0,0,0,.876-2.549L114.28,175.6a6.831,6.831,0,0,1,1.184-.1,6.943,6.943,0,0,1,6.29,3.963l5.183,10.895a15.515,15.515,0,0,0,4.482,5.623l1.058.883a17.918,17.918,0,0,1,6.506,16.959l-14.856,7.114.175-1.581a9.536,9.536,0,0,0-2.2-6.765l-13.447-16.259a19.087,19.087,0,0,1-3.425-10.9Zm34.635,62.3,4.04,8.353-22.588,10.8-4.049-8.437Zm-36.2-66.614a1.85,1.85,0,0,0-1.855,1.59L101.448,185a.321.321,0,0,1-.084.258,22.592,22.592,0,0,0,4.217,13.361l.091.084L119.2,215.051a5.553,5.553,0,0,1,1.233,4.047l-.267,3.691-1.142.525a1.975,1.975,0,0,0-.875,2.549l5.708,11.945a1.684,1.684,0,0,0,1.058.973,1.515,1.515,0,0,0,.54.091,3.188,3.188,0,0,0,.952-.181l26.021-12.479a1.937,1.937,0,0,0,.966-2.549L147.682,211.8a1.838,1.838,0,0,0-1.694-1.064,2.068,2.068,0,0,0-.854.189l-2.109.966a21.787,21.787,0,0,0-8.173-18.018L133.793,193a11.774,11.774,0,0,1-3.425-4.306l-5.189-10.812a10.705,10.705,0,0,0-8.7-6.148l.35-14.152a8.612,8.612,0,0,0-7.823-8.964C108.957,148.619,108.9,148.612,108.845,148.612Z" transform="translate(21.789 -25.709)" fill="rgba(0,0,0,0)" fill-rule="evenodd"/>
      <path id="Path_16035" data-name="Path 16035" d="M110.414,152.926a4.645,4.645,0,0,1,2.549,4.481v.091l-.35,14.585a7.639,7.639,0,0,0-1.849.617,1.991,1.991,0,0,0-.966,2.549l8.531,17.835a1.818,1.818,0,0,0,2.549.882,1.828,1.828,0,0,0,.876-2.549L114.28,175.6a6.831,6.831,0,0,1,1.184-.1,6.943,6.943,0,0,1,6.29,3.963l5.183,10.895a15.515,15.515,0,0,0,4.482,5.623l1.058.883a17.918,17.918,0,0,1,6.506,16.959l-14.856,7.114.175-1.581a9.536,9.536,0,0,0-2.2-6.765l-13.447-16.259a19.087,19.087,0,0,1-3.425-10.9Zm34.635,62.3,4.04,8.353-22.588,10.8-4.049-8.437Zm-36.2-66.614a1.85,1.85,0,0,0-1.855,1.59L101.448,185a.321.321,0,0,1-.084.258,22.592,22.592,0,0,0,4.217,13.361l.091.084L119.2,215.051a5.553,5.553,0,0,1,1.233,4.047l-.267,3.691-1.142.525a1.975,1.975,0,0,0-.875,2.549l5.708,11.945a1.684,1.684,0,0,0,1.058.973,1.515,1.515,0,0,0,.54.091,3.188,3.188,0,0,0,.952-.181l26.021-12.479a1.937,1.937,0,0,0,.966-2.549L147.682,211.8a1.838,1.838,0,0,0-1.694-1.064,2.068,2.068,0,0,0-.854.189l-2.109.966a21.787,21.787,0,0,0-8.173-18.018L133.793,193a11.774,11.774,0,0,1-3.425-4.306l-5.189-10.812a10.705,10.705,0,0,0-8.7-6.148l.35-14.152a8.612,8.612,0,0,0-7.823-8.964C108.957,148.619,108.9,148.612,108.845,148.612Z" transform="translate(74.267 -115.867)" fill="none" stroke="#d9d9d9" stroke-linejoin="round" stroke-width="1"/>
      <path id="Path_16036" data-name="Path 16036" d="M148.95,147.141v34.025" transform="translate(31.389 -26.005)" fill="rgba(0,0,0,0)" fill-rule="evenodd"/>
      <path id="Path_16037" data-name="Path 16037" d="M148.95,147.141v34.025" transform="translate(83.866 -116.164)" fill="none" stroke="#d9d9d9" stroke-linejoin="round" stroke-width="2"/>
      <path id="Path_16038" data-name="Path 16038" d="M171.243,161.3H133.065" transform="translate(28.184 -23.149)" fill="rgba(0,0,0,0)" fill-rule="evenodd"/>
      <path id="Path_16039" data-name="Path 16039" d="M171.243,161.3H133.065" transform="translate(80.662 -113.308)" fill="none" stroke="#d9d9d9" stroke-linejoin="round" stroke-width="2"/>
      <path id="Path_16040" data-name="Path 16040" d="M282.135,115.622v34.023" transform="translate(58.256 -32.364)" fill="rgba(0,0,0,0)" fill-rule="evenodd"/>
      <path id="Path_16041" data-name="Path 16041" d="M282.135,115.622v34.023" transform="translate(283.438 -106.719)" fill="none" stroke="#d9d9d9" stroke-linejoin="round" stroke-width="2"/>
      <path id="Path_16042" data-name="Path 16042" d="M304.428,129.778H266.25" transform="translate(55.052 -29.508)" fill="rgba(0,0,0,0)" fill-rule="evenodd"/>
      <path id="Path_16043" data-name="Path 16043" d="M304.428,129.778H266.25" transform="translate(280.234 -103.863)" fill="none" stroke="#d9d9d9" stroke-linejoin="round" stroke-width="2"/>
      <path id="Path_16044" data-name="Path 16044" d="M361.839,150.383v28.6" transform="translate(74.335 -25.351)" fill="rgba(0,0,0,0)" fill-rule="evenodd"/>
      <path id="Path_16045" data-name="Path 16045" d="M361.839,150.383v28.6" transform="translate(42.114 -37.22)" fill="none" stroke="#d9d9d9" stroke-linejoin="round" stroke-width="2"/>
      <path id="Path_16046" data-name="Path 16046" d="M380.579,162.282H348.486" transform="translate(71.641 -22.951)" fill="rgba(0,0,0,0)" fill-rule="evenodd"/>
      <path id="Path_16047" data-name="Path 16047" d="M380.579,162.282H348.486" transform="translate(39.421 -34.82)" fill="none" stroke="#d9d9d9" stroke-linejoin="round" stroke-width="2"/>
      <path id="Path_16048" data-name="Path 16048" d="M100.079,363.87a15.315,15.315,0,0,1,15.205,13.679c.042.536.089,1.065.089,1.616a15.289,15.289,0,0,1-1.773,7.127,1.646,1.646,0,0,0,.3,1.962l11.166,11.166a.844.844,0,0,1,0,1.18l-1.593,1.568a.778.778,0,0,1-.578.242.792.792,0,0,1-.577-.242l-10.752-10.752a1.73,1.73,0,0,0-1.175-.483,1.6,1.6,0,0,0-1.012.367,15.294,15.294,0,0,1-24.574-12.136c0-.552.022-1.08.068-1.616a14.929,14.929,0,0,1,1.825-5.79A15.322,15.322,0,0,1,100.079,363.87Zm0-1.73a17.052,17.052,0,0,0-14.88,8.77,16.681,16.681,0,0,0-2.03,6.457,14.335,14.335,0,0,0-.095,1.8,17.035,17.035,0,0,0,17,17,16.819,16.819,0,0,0,10.312-3.483l10.705,10.7a2.569,2.569,0,0,0,1.8.761,2.476,2.476,0,0,0,1.8-.761l1.595-1.568a2.58,2.58,0,0,0,0-3.624l-11.146-11.12a17.131,17.131,0,0,0,1.941-7.915,15.568,15.568,0,0,0-.094-1.8,17.005,17.005,0,0,0-16.911-15.227Z" transform="translate(18.1 17.367)" fill="#fff" fill-rule="evenodd"/>
      <path id="Path_16049" data-name="Path 16049" d="M90.041,368.152a.88.88,0,0,0-.882.881.871.871,0,0,0,.882.85h10.543a.868.868,0,0,0,.875-.85.878.878,0,0,0-.875-.881Z" transform="translate(19.327 18.579)" fill="#fff" fill-rule="evenodd"/>
      <path id="Path_16050" data-name="Path 16050" d="M98.428,371.814a.88.88,0,0,0-.881-.881.87.87,0,0,0-.851.881v10.543a.87.87,0,0,0,.851.876.88.88,0,0,0,.881-.876Z" transform="translate(20.848 19.14)" fill="#fff" fill-rule="evenodd"/>
      <path id="Path_16051" data-name="Path 16051" d="M103,377.06a.879.879,0,0,0,.881-.881.87.87,0,0,0-.881-.85H92.455a.869.869,0,0,0-.876.85.878.878,0,0,0,.876.881Z" transform="translate(19.815 20.027)" fill="#fff" fill-rule="evenodd"/>
      <path id="Path_16052" data-name="Path 16052" d="M95.622,382.108a.865.865,0,0,0,0,1.731h10.564a.865.865,0,0,0,0-1.731Z" transform="translate(20.459 21.395)" fill="#fff" fill-rule="evenodd"/>
      <path id="Path_16053" data-name="Path 16053" d="M101.209,368.152a.857.857,0,0,0-.854.881.847.847,0,0,0,.854.85h3.456a.865.865,0,0,0,.856-.85.875.875,0,0,0-.856-.881Z" transform="translate(21.586 18.579)" fill="#fff" fill-rule="evenodd"/>
      <path id="Path_16054" data-name="Path 16054" d="M90.041,382.108a.865.865,0,1,0,0,1.731h3.781a.865.865,0,0,0,0-1.731Z" transform="translate(19.327 21.395)" fill="#fff" fill-rule="evenodd"/>
    </g>
    <path id="Path_16055" data-name="Path 16055" d="M303.314,281.61a.672.672,0,1,0,0,1.344h16.363a.672.672,0,1,0,0-1.344Z" transform="translate(62.393 1.121)" fill="#fff" fill-rule="evenodd"/>
    <path id="Path_16056" data-name="Path 16056" d="M303.314,301.986a.676.676,0,0,0-.674.669.693.693,0,0,0,.674.735h8.852a.692.692,0,0,0,.673-.735.676.676,0,0,0-.673-.669Z" transform="translate(62.393 5.232)" fill="#fff" fill-rule="evenodd"/>
    <path id="Path_16057" data-name="Path 16057" d="M312.42,288.418a.674.674,0,1,0,0,1.343h5.432a.672.672,0,1,0,0-1.343Z" transform="translate(64.217 2.495)" fill="#fff" fill-rule="evenodd"/>
    <path id="Path_16058" data-name="Path 16058" d="M303.314,288.418a.672.672,0,1,0,0,1.343H311.5a.672.672,0,0,0,0-1.343Z" transform="translate(62.393 2.495)" fill="#fff" fill-rule="evenodd"/>
    <path id="Path_16059" data-name="Path 16059" d="M303.314,291.824a.672.672,0,1,0,0,1.344h5.433a.672.672,0,1,0,0-1.344Z" transform="translate(62.393 3.182)" fill="#fff" fill-rule="evenodd"/>
    <path id="Path_16060" data-name="Path 16060" d="M310.122,291.824a.672.672,0,1,0,0,1.344H318.3a.672.672,0,1,0,0-1.344Z" transform="translate(63.766 3.182)" fill="#fff" fill-rule="evenodd"/>
    <path id="Path_16061" data-name="Path 16061" d="M303.314,298.58a.7.7,0,0,0-.674.735.676.676,0,0,0,.674.671h10.2a.677.677,0,0,0,.674-.671.7.7,0,0,0-.674-.735Z" transform="translate(62.393 4.545)" fill="#fff" fill-rule="evenodd"/>
    <path id="Path_16062" data-name="Path 16062" d="M303.314,285.012a.672.672,0,1,0,0,1.344h5.433a.672.672,0,1,0,0-1.344Z" transform="translate(62.393 1.807)" fill="#fff" fill-rule="evenodd"/>
    <path id="Path_16063" data-name="Path 16063" d="M310.122,285.012a.672.672,0,1,0,0,1.344H318.3a.672.672,0,1,0,0-1.344Z" transform="translate(63.766 1.807)" fill="#fff" fill-rule="evenodd"/>
    <path id="Path_16064" data-name="Path 16064" d="M312.42,295.226a.675.675,0,1,0,0,1.344h5.432a.672.672,0,1,0,0-1.344Z" transform="translate(64.217 3.868)" fill="#fff" fill-rule="evenodd"/>
    <path id="Path_16065" data-name="Path 16065" d="M303.314,295.226a.672.672,0,1,0,0,1.344H311.5a.672.672,0,0,0,0-1.344Z" transform="translate(62.393 3.868)" fill="#fff" fill-rule="evenodd"/>
    <path id="Path_16066" data-name="Path 16066" d="M325.321,305.909l-5.19,5.128v-4.458a.675.675,0,0,1,.669-.669Zm.243-26.567a.678.678,0,0,1,.673.669v24.553H320.8a2.033,2.033,0,0,0-2.013,2.014v5.437H303.826a.7.7,0,0,1-.735-.674V280.012a.694.694,0,0,1,.735-.669Zm-36.761-6.78a2.035,2.035,0,0,0-2.018,2.018v36.761a2.047,2.047,0,0,0,2.018,2.079h30.654c.063,0,.185-.061.246-.061a.865.865,0,0,0,.243-.185l7.451-7.449a.9.9,0,0,0,.184-.243v-.061c0-.062.063-.124.063-.185V280.012A2.048,2.048,0,0,0,325.564,278H303.826a2.047,2.047,0,0,0-2.079,2.013v31.329a2.2,2.2,0,0,0,.123.674H288.8a.683.683,0,0,1-.674-.674V274.58a.683.683,0,0,1,.674-.674h1.4v9.53a1.354,1.354,0,0,0,1.344,1.344h.671a1.358,1.358,0,0,0,1.344-1.344v-7.512a.672.672,0,1,0-1.344,0v7.512h-.671v-9.53h2.683v8.856a.7.7,0,0,0,.735.674.679.679,0,0,0,.669-.674v-8.856h16.979a.7.7,0,0,1,.732.674v1.344a.674.674,0,1,0,1.344,0V274.58a2.047,2.047,0,0,0-2.075-2.018Z" transform="translate(59.194 -0.704)" fill="#fff" fill-rule="evenodd"/>
    <path id="Path_16067" data-name="Path 16067" d="M290.3,285.012a.672.672,0,0,0,0,1.344h5.437a.672.672,0,0,0,0-1.344Z" transform="translate(59.769 1.807)" fill="#fff" fill-rule="evenodd"/>
    <path id="Path_16068" data-name="Path 16068" d="M290.3,288.418a.672.672,0,0,0,0,1.343h8.181a.672.672,0,1,0,0-1.343Z" transform="translate(59.769 2.495)" fill="#fff" fill-rule="evenodd"/>
    <path id="Path_16069" data-name="Path 16069" d="M290.3,291.824a.672.672,0,0,0,0,1.344h5.437a.672.672,0,0,0,0-1.344Z" transform="translate(59.769 3.182)" fill="#fff" fill-rule="evenodd"/>
    <path id="Path_16070" data-name="Path 16070" d="M290.3,295.226a.672.672,0,0,0,0,1.344h8.181a.672.672,0,1,0,0-1.344Z" transform="translate(59.769 3.868)" fill="#fff" fill-rule="evenodd"/>
    <path id="Path_16071" data-name="Path 16071" d="M290.3,298.58a.7.7,0,0,0-.669.735.675.675,0,0,0,.669.671h5.437a.676.676,0,0,0,.671-.671.7.7,0,0,0-.671-.735Z" transform="translate(59.769 4.545)" fill="#fff" fill-rule="evenodd"/>
    <path id="Path_16072" data-name="Path 16072" d="M290.3,301.986a.675.675,0,0,0-.669.669.692.692,0,0,0,.669.735h8.181a.693.693,0,0,0,.674-.735.676.676,0,0,0-.674-.669Z" transform="translate(59.769 5.232)" fill="#fff" fill-rule="evenodd"/>
  </g>
  <text id="Our_health_focus" data-name="Our health focus" transform="translate(209.439 471.941)" font-size="14" font-family="Helvetica-Bold, Helvetica" font-weight="700"><tspan x="0" y="11">Our health focus</tspan></text>
  <text id="Our_work" data-name="Our work" transform="translate(454.553 361.284)" font-size="14" font-family="Helvetica-Bold, Helvetica" font-weight="700"><tspan x="0" y="11">Our work</tspan></text>
  <text id="Influence_impact" data-name="Influence &amp; impact" transform="translate(704.307 249.851)" font-size="14" font-family="Helvetica-Bold, Helvetica" font-weight="700"><tspan x="0" y="11">Influence &amp; impact</tspan></text>
  <text id="Our_contributions" data-name="Our contributions" transform="translate(954.062 141.44)" font-size="14" font-family="Helvetica-Bold, Helvetica" font-weight="700"><tspan x="0" y="11">Our contributions</tspan></text>
  <text id="CHW_PHC_Population_Health_Clinical_State_National" data-name="CHW / PHC
Population Health
Clinical
State/National" transform="translate(209.439 497.173)" font-size="14" font-family="Helvetica"><tspan x="0" y="11">CHW / PHC</tspan><tspan x="0" y="39">Population Health</tspan><tspan x="0" y="67">Clinical</tspan><tspan x="0" y="95">State/National</tspan></text>
  <text id="Implementation_on_ground_with_CHW_Clinicians_With_Humanitarian_Healthcare_Global_Health_Orgs_NGOs_With_DoHs_MoHs_With_Researchers_Academia_Universities_Think_tanks" data-name="Implementation on ground with CHW, Clinicians
With Humanitarian Healthcare &amp; Global Health Orgs, NGOs
With DoHs, MoHs
With Researchers, Academia/Universities, Think tanks" transform="translate(454.553 386.516)" font-size="14" font-family="Helvetica"><tspan x="0" y="11">Implementation on ground </tspan><tspan x="0" y="31">with CHW, Clinicians</tspan><tspan x="0" y="59">With Humanitarian </tspan><tspan x="0" y="79">Healthcare &amp; Global Health </tspan><tspan x="0" y="99">Orgs, NGOs</tspan><tspan x="0" y="127">With DoHs, MoHs</tspan><tspan x="0" y="155">With Researchers, </tspan><tspan x="0" y="175">Academia/Universities, </tspan><tspan x="0" y="195">Think tanks</tspan></text>
  <text id="Response_to_Niti_Ayog_Health_Stack_2018_With_HIDHN:_Response_to_GoI_MoHFW_NDHB_2019_Response_to_PDP_Consultation_Collaboration_with_National_Cancer_Grid_on_continuity_of_care_Collaboration_with_Ashoka_University_on_epidemiology_simulation_models_Respons" data-name="Response to Niti Ayog Health Stack 2018
With HIDHN: Response to GoI MoHFW NDHB 2019 &amp; Response to PDP Consultation 
Collaboration with National Cancer Grid on continuity of care
Collaboration with Ashoka University on epidemiology simulation models
Respons" transform="translate(704.307 275.082)" font-size="14" font-family="Helvetica"><tspan x="0" y="11">Response to Niti Ayog </tspan><tspan x="0" y="31">Health Stack 2018</tspan><tspan x="0" y="59">With HIDHN: Response to </tspan><tspan x="0" y="79">GoI MoHFW NDHB 2019 &amp; </tspan><tspan x="0" y="99">Response to PDP </tspan><tspan x="0" y="119">Consultation </tspan><tspan x="0" y="147">Collaboration with National </tspan><tspan x="0" y="167">Cancer Grid on continuity of </tspan><tspan x="0" y="187">care</tspan><tspan x="0" y="215">Collaboration with Ashoka </tspan><tspan x="0" y="235">University on epidemiology </tspan><tspan x="0" y="255">simulation models</tspan><tspan x="0" y="283">Response to HFR, HPR, </tspan><tspan x="0" y="303">UHI</tspan><tspan x="0" y="331">Draft specification for HCX</tspan></text>
  <text id="Project_EKA_reference_stack_for_Federated_Health_Record_enabling_consented_means_of_exchanging_patient_health_information._The_foundational_building_blocks_is_built_in_collaboration_with_the_National_Cancer_Grid_NCG_and_adopted_for_NDHM_NDHM_FHR_Specif" data-name="Project EKA reference stack for Federated Health Record, enabling consented means of exchanging patient health information. The foundational building blocks is  built in collaboration with the National Cancer Grid (NCG) and adopted for NDHM
NDHM FHR Specif" transform="translate(954.062 166.672)" font-size="14" font-family="Helvetica"><tspan x="0" y="11">Project EKA reference stack </tspan><tspan x="0" y="31">for Federated Health </tspan><tspan x="0" y="51">Record, enabling consented </tspan><tspan x="0" y="71">means of exchanging </tspan><tspan x="0" y="91">patient health information. </tspan><tspan x="0" y="111">The foundational building </tspan><tspan x="0" y="131" xml:space="preserve">blocks is  built in </tspan><tspan x="0" y="151">collaboration with the </tspan><tspan x="0" y="171">National Cancer Grid (NCG) </tspan><tspan x="0" y="191">and adopted for NDHM</tspan><tspan x="0" y="219">NDHM FHR Specification</tspan><tspan x="0" y="247">EpiRust agent based </tspan><tspan x="0" y="267">epidemiology simulation </tspan><tspan x="0" y="287">model</tspan><tspan x="0" y="315">Bahmni free and open </tspan><tspan x="0" y="335">source Hospital Information </tspan><tspan x="0" y="355">System</tspan></text>
  <text id="Scaling_our_healthcare_focus" data-name="Scaling our healthcare focus" transform="translate(105 0.055)" font-size="24" font-family="Bitter-Bold, Bitter" font-weight="700"><tspan x="0" y="23">Scaling our healthcare focus</tspan></text>
</svg>
