<svg xmlns="http://www.w3.org/2000/svg" width="1244" height="665" viewBox="0 0 1244 665">
  <rect id="Rectangle_4787" data-name="Rectangle 4787" width="1244" height="665" fill="#fff"/>
  <rect id="Rectangle_4747" data-name="Rectangle 4747" width="315" height="329" transform="translate(107.999 215.055)" fill="#edf1f3"/>
  <rect id="Rectangle_4748" data-name="Rectangle 4748" width="315" height="329" transform="translate(467.999 215.055)" fill="#edf1f3"/>
  <rect id="Rectangle_4749" data-name="Rectangle 4749" width="315" height="329" transform="translate(826.999 215.055)" fill="#edf1f3"/>
  <text id="Thoughtworks_india_-_our_point_of_view_and_involvement" data-name="Thoughtworks india - our point of view and involvement" transform="translate(107.999 44.055)" fill="#cc850a" font-size="20" font-family="Helvetica-Bold, Helvetica" font-weight="700"><tspan x="0" y="15">Thoughtworks india - our point of view and involvement</tspan></text>
  <path id="Path_16308" data-name="Path 16308" d="M39.3,460.984h1034" transform="translate(68.698 93.346)" fill="rgba(0,0,0,0)" fill-rule="evenodd"/>
  <g id="Group_12397" data-name="Group 12397" transform="translate(68.698 38.417)">
    <path id="Path_16080" data-name="Path 16080" d="M43.092,460.984H1068.254" transform="translate(0.629 73.931)" fill="none" stroke="#666" stroke-linejoin="round" stroke-width="1"/>
    <path id="Path_16081" data-name="Path 16081" d="M39.8,461.257a1.918,1.918,0,1,1,1.918,1.918A1.918,1.918,0,0,1,39.8,461.257Z" transform="translate(0.083 73.657)" fill="#666" stroke="#666" stroke-miterlimit="10" stroke-width="1"/>
    <path id="Path_16082" data-name="Path 16082" d="M926.151,461.257a1.918,1.918,0,1,1-1.918-1.918A1.918,1.918,0,0,1,926.151,461.257Z" transform="translate(146.567 73.657)" fill="#666" stroke="#666" stroke-miterlimit="10" stroke-width="1"/>
  </g>
  <path id="Path_16309" data-name="Path 16309" d="M284.65,180.23h0a50.3,50.3,0,0,1,50.422-50.183h0a50.3,50.3,0,0,1,50.422,50.183h0a50.3,50.3,0,0,1-50.422,50.184h0A50.3,50.3,0,0,1,284.65,180.23Z" transform="translate(109.421 38.417)" fill="rgba(255,255,255,0.52)" fill-rule="evenodd"/>
  <path id="Path_16310" data-name="Path 16310" d="M284.65,180.23h0a50.3,50.3,0,0,1,50.422-50.183h0a50.3,50.3,0,0,1,50.422,50.183h0a50.3,50.3,0,0,1-50.422,50.184h0A50.3,50.3,0,0,1,284.65,180.23Z" transform="translate(109.421 38.417)" fill="none" stroke="#003d4f" stroke-linejoin="round" stroke-width="1" stroke-dasharray="4 3"/>
  <path id="Path_16311" data-name="Path 16311" d="M591.307,180.23h0a50.3,50.3,0,0,1,50.423-50.183h0a50.3,50.3,0,0,1,50.422,50.183h0a50.3,50.3,0,0,1-50.422,50.184h0A50.3,50.3,0,0,1,591.307,180.23Z" transform="translate(160.323 38.417)" fill="rgba(255,255,255,0.52)" fill-rule="evenodd"/>
  <path id="Path_16312" data-name="Path 16312" d="M591.307,180.23h0a50.3,50.3,0,0,1,50.423-50.183h0a50.3,50.3,0,0,1,50.422,50.183h0a50.3,50.3,0,0,1-50.422,50.184h0A50.3,50.3,0,0,1,591.307,180.23Z" transform="translate(160.323 38.417)" fill="none" stroke="#003d4f" stroke-linejoin="round" stroke-width="1" stroke-dasharray="4 3"/>
  <path id="Path_16313" data-name="Path 16313" d="M143.518,178.419h0a37.541,37.541,0,0,1,37.633-37.448h0a37.54,37.54,0,0,1,37.632,37.448h0a37.541,37.541,0,0,1-37.632,37.448h0A37.542,37.542,0,0,1,143.518,178.419Z" transform="translate(85.995 40.229)" fill="#cc850a" fill-rule="evenodd"/>
  <path id="Path_16314" data-name="Path 16314" d="M137.772,179.377h0a44.232,44.232,0,0,1,44.337-44.128h0a44.232,44.232,0,0,1,44.335,44.128h0a44.233,44.233,0,0,1-44.335,44.129h0A44.233,44.233,0,0,1,137.772,179.377Z" transform="translate(85.042 39.28)" fill="rgba(0,0,0,0)" fill-rule="evenodd"/>
  <path id="Path_16315" data-name="Path 16315" d="M137.772,179.377h0a44.232,44.232,0,0,1,44.337-44.128h0a44.232,44.232,0,0,1,44.335,44.128h0a44.233,44.233,0,0,1-44.335,44.129h0A44.233,44.233,0,0,1,137.772,179.377Z" transform="translate(85.042 39.28)" fill="none" stroke="#003d4f" stroke-linejoin="round" stroke-width="1"/>
  <path id="Path_16316" data-name="Path 16316" d="M181.17,159.6a13.7,13.7,0,1,1-13.7,13.7A13.695,13.695,0,0,1,181.17,159.6Zm0-1.09A14.792,14.792,0,1,0,195.96,173.3,14.819,14.819,0,0,0,181.17,158.509Z" transform="translate(89.786 43.14)" fill="#fff" fill-rule="evenodd"/>
  <path id="Path_16317" data-name="Path 16317" d="M170.238,178.956a18.008,18.008,0,0,0,3.2,3.205l-8.014,7.978a2.166,2.166,0,0,1-1.533.662h-.1a2.276,2.276,0,0,1-1.6-.688,2.329,2.329,0,0,1,.142-3.234Zm.112-1.406a.593.593,0,0,0-.428.174l-8.381,8.355a3.376,3.376,0,0,0,2.257,5.838h.03a3.223,3.223,0,0,0,2.374-1l8.469-8.442a.483.483,0,0,0,.142-.428.459.459,0,0,0-.23-.4,15.781,15.781,0,0,1-3.831-3.862A.651.651,0,0,0,170.35,177.55Z" transform="translate(88.815 46.301)" fill="#fff" fill-rule="evenodd"/>
  <path id="Path_16318" data-name="Path 16318" d="M447.719,178.4h0a37.527,37.527,0,0,1,37.618-37.433h0A37.527,37.527,0,0,1,522.955,178.4h0a37.526,37.526,0,0,1-37.618,37.433h0A37.526,37.526,0,0,1,447.719,178.4Z" transform="translate(136.489 40.229)" fill="#cc850a" fill-rule="evenodd"/>
  <path id="Path_16319" data-name="Path 16319" d="M441.975,179.362h0a44.215,44.215,0,0,1,44.319-44.11h0a44.213,44.213,0,0,1,44.318,44.11h0a44.215,44.215,0,0,1-44.318,44.11h0A44.216,44.216,0,0,1,441.975,179.362Z" transform="translate(135.536 39.28)" fill="rgba(0,0,0,0)" fill-rule="evenodd"/>
  <path id="Path_16320" data-name="Path 16320" d="M441.975,179.362h0a44.215,44.215,0,0,1,44.319-44.11h0a44.213,44.213,0,0,1,44.318,44.11h0a44.215,44.215,0,0,1-44.318,44.11h0A44.216,44.216,0,0,1,441.975,179.362Z" transform="translate(135.536 39.28)" fill="none" stroke="#003d4f" stroke-linejoin="round" stroke-width="1"/>
  <path id="Path_16321" data-name="Path 16321" d="M489.522,165v1.756H477.594V165Zm-12.542-1.228a.591.591,0,0,0-.569.614v2.984a.592.592,0,0,0,.569.613h13.157a.6.6,0,0,0,.613-.613v-2.984a.6.6,0,0,0-.613-.614Z" transform="translate(141.251 44.013)" fill="#fff" fill-rule="evenodd"/>
  <path id="Path_16322" data-name="Path 16322" d="M478.449,170.638V176.6h-5.964v-5.964Zm-6.578-1.228a.6.6,0,0,0-.613.614v7.15a.6.6,0,0,0,.613.614h7.147a.6.6,0,0,0,.615-.614v-7.15a.6.6,0,0,0-.615-.614Z" transform="translate(140.396 44.95)" fill="#fff" fill-rule="evenodd"/>
  <path id="Path_16323" data-name="Path 16323" d="M481.08,169.41a.59.59,0,0,0-.57.614.62.62,0,0,0,.57.613h8.375a.626.626,0,0,0,.613-.613.6.6,0,0,0-.613-.614Z" transform="translate(141.931 44.95)" fill="#fff" fill-rule="evenodd"/>
  <path id="Path_16324" data-name="Path 16324" d="M481.08,171.478a.582.582,0,0,0-.57.573.59.59,0,0,0,.57.613h8.375a.593.593,0,1,0,0-1.186Z" transform="translate(141.931 45.293)" fill="#fff" fill-rule="evenodd"/>
  <path id="Path_16325" data-name="Path 16325" d="M481.08,173.51a.591.591,0,0,0-.57.614.62.62,0,0,0,.57.613h8.375a.626.626,0,0,0,.613-.613.6.6,0,0,0-.613-.614Z" transform="translate(141.931 45.63)" fill="#fff" fill-rule="evenodd"/>
  <path id="Path_16326" data-name="Path 16326" d="M481.08,175.578a.582.582,0,0,0-.57.573.592.592,0,0,0,.57.614h4.781a.6.6,0,0,0,.613-.614.592.592,0,0,0-.613-.573Z" transform="translate(141.931 45.973)" fill="#fff" fill-rule="evenodd"/>
  <path id="Path_16327" data-name="Path 16327" d="M471.87,178.663a.591.591,0,0,0-.613.57.6.6,0,0,0,.613.613H483.8a.6.6,0,0,0,.613-.613.591.591,0,0,0-.613-.57Z" transform="translate(140.396 46.485)" fill="#fff" fill-rule="evenodd"/>
  <path id="Path_16328" data-name="Path 16328" d="M471.87,180.693a.6.6,0,0,0-.613.617.591.591,0,0,0,.613.57H483.8a.591.591,0,0,0,.613-.57.6.6,0,0,0-.613-.617Z" transform="translate(140.396 46.823)" fill="#fff" fill-rule="evenodd"/>
  <path id="Path_16329" data-name="Path 16329" d="M471.87,182.764a.59.59,0,0,0-.613.569.6.6,0,0,0,.613.614H483.8a.6.6,0,0,0,.613-.614.59.59,0,0,0-.613-.569Z" transform="translate(140.396 47.167)" fill="#fff" fill-rule="evenodd"/>
  <path id="Path_16330" data-name="Path 16330" d="M492.454,159.836v1.228H475.086a.468.468,0,0,0-.392.177l-1.361,1.357v-2.762Zm-20.348.877v3.072l-.835.831H468.2Zm2.411,2.369v3.946h-3.946Zm-4.43,2.762-1.358,1.361a.471.471,0,0,0-.176.4v20.918h-1.228V165.845Zm24.735-3.6V178.96h-2.369a.6.6,0,0,0-.613.614v1.4l-1.006-1.01a.676.676,0,0,0-.4-.174.8.8,0,0,0-.44.174l-2.543,2.544a.79.79,0,0,0-.175.44.958.958,0,0,0,.175.44l1.009.962h-1.4a.6.6,0,0,0-.617.617v3.55a.6.6,0,0,0,.617.615h1.4l-1.009,1.009a.557.557,0,0,0,0,.791H469.736V168.215h5.351a.6.6,0,0,0,.615-.615v-5.353Zm.615,17.94v2.238a.635.635,0,0,0,.351.569.672.672,0,0,0,.21.033.555.555,0,0,0,.449-.21l.044-.044h.043l1.491-1.534,1.708,1.712-1.534,1.49v.044l-.044.044a.519.519,0,0,0-.129.659.572.572,0,0,0,.525.351h2.238v2.411h-2.238a.686.686,0,0,0-.569.351.59.59,0,0,0,.174.658l.044.044v.044l1.534,1.49-1.708,1.709-1.491-1.534h-.043l-.044-.044a.49.49,0,0,0-.4-.175.819.819,0,0,0-.257.044.572.572,0,0,0-.351.526V193.3h-2.411v-2.236a.689.689,0,0,0-.351-.57.677.677,0,0,0-.21-.035.561.561,0,0,0-.449.21l-.043.044h-.044l-1.491,1.534-1.712-1.709,1.536-1.49V189l.044-.044a.59.59,0,0,0,.176-.658.634.634,0,0,0-.573-.351h-2.234v-2.411h2.234a.69.69,0,0,0,.573-.351.591.591,0,0,0-.176-.659l-.044-.044v-.044l-1.536-1.49,1.712-1.712,1.491,1.534h.044l.043.044a.551.551,0,0,0,.449.21.672.672,0,0,0,.21-.033.635.635,0,0,0,.351-.569v-2.238Zm-22.718-21.535a.791.791,0,0,0-.44.175l-5.964,5.964a.575.575,0,0,0-.174.44v23.9a.6.6,0,0,0,.613.613h1.8v1.8a.579.579,0,0,0,.569.569h19.519l1.357,1.4a.779.779,0,0,0,.44.176.658.658,0,0,0,.4-.176l1.006-1.006v1.4a.6.6,0,0,0,.613.613h3.553a.6.6,0,0,0,.615-.613v-1.4l1.009,1.006a.652.652,0,0,0,.4.176.765.765,0,0,0,.436-.176l2.544-2.544a.77.77,0,0,0,.177-.437.65.65,0,0,0-.177-.4L500,189.133h1.4a.6.6,0,0,0,.615-.615v-3.55a.6.6,0,0,0-.615-.617H500l1.006-.962a.938.938,0,0,0,.177-.44.776.776,0,0,0-.177-.44l-2.544-2.544a.787.787,0,0,0-.436-.174.67.67,0,0,0-.4.174l-1.009,1.01v-1.4a.6.6,0,0,0-.615-.614V161.634a.579.579,0,0,0-.569-.57h-1.8v-1.8a.6.6,0,0,0-.615-.614Z" transform="translate(139.546 43.165)" fill="#fff" fill-rule="evenodd"/>
  <path id="Path_16331" data-name="Path 16331" d="M490.651,181.377a1.6,1.6,0,0,1,.687.15,1.778,1.778,0,1,1-2.325,2.325,1.675,1.675,0,0,1,.4-1.93A1.693,1.693,0,0,1,490.651,181.377Zm-.015-1.21a2.966,2.966,0,0,0-2.721,1.845,3.031,3.031,0,0,0,.617,3.287,3.069,3.069,0,0,0,2.11.856,3.02,3.02,0,0,0,1.178-.241,2.954,2.954,0,0,0,1.841-2.718A3.032,3.032,0,0,0,490.635,180.167Z" transform="translate(143.12 46.735)" fill="#fff" fill-rule="evenodd"/>
  <path id="Path_16332" data-name="Path 16332" d="M757.375,178.414h0a37.526,37.526,0,0,1,37.618-37.433h0a37.525,37.525,0,0,1,37.617,37.433h0a37.526,37.526,0,0,1-37.617,37.433h0A37.527,37.527,0,0,1,757.375,178.414Z" transform="translate(187.888 40.231)" fill="#cc850a" fill-rule="evenodd"/>
  <path id="Path_16333" data-name="Path 16333" d="M751.631,179.371h0a44.215,44.215,0,0,1,44.319-44.11h0a44.217,44.217,0,0,1,44.318,44.11h0a44.215,44.215,0,0,1-44.318,44.112h0A44.215,44.215,0,0,1,751.631,179.371Z" transform="translate(186.935 39.282)" fill="rgba(0,0,0,0)" fill-rule="evenodd"/>
  <path id="Path_16334" data-name="Path 16334" d="M751.631,179.371h0a44.215,44.215,0,0,1,44.319-44.11h0a44.217,44.217,0,0,1,44.318,44.11h0a44.215,44.215,0,0,1-44.318,44.112h0A44.215,44.215,0,0,1,751.631,179.371Z" transform="translate(186.935 39.282)" fill="none" stroke="#003d4f" stroke-linejoin="round" stroke-width="1"/>
  <path id="Path_16335" data-name="Path 16335" d="M783.829,159.814a7.5,7.5,0,0,0-2.411.4.55.55,0,0,0-.351.743.6.6,0,0,0,.582.42.633.633,0,0,0,.162-.023,6.3,6.3,0,0,1,2.018-.352,6.467,6.467,0,0,1,5.613,3.29.612.612,0,0,0,.528.308.633.633,0,0,0,.262-.089.541.541,0,0,0,.219-.788A7.531,7.531,0,0,0,783.829,159.814Z" transform="translate(191.812 43.357)" fill="#fff" fill-rule="evenodd"/>
  <path id="Path_16336" data-name="Path 16336" d="M780.82,160.715a.53.53,0,0,0-.3.089,7.5,7.5,0,0,0-3.6,6.449,7.583,7.583,0,0,0,4.123,6.755.609.609,0,0,0,.262.085.66.66,0,0,0,.525-.307.64.64,0,0,0-.262-.833,6.411,6.411,0,0,1-.436-11.14.612.612,0,0,0,.174-.833A.583.583,0,0,0,780.82,160.715Z" transform="translate(191.132 43.506)" fill="#fff" fill-rule="evenodd"/>
  <path id="Path_16337" data-name="Path 16337" d="M783.772,165.437A1.225,1.225,0,0,1,785,166.665a1.2,1.2,0,0,1-1.228,1.227,1.225,1.225,0,0,1-1.228-1.227A1.254,1.254,0,0,1,783.772,165.437Zm0-1.183a2.431,2.431,0,0,0-2.411,2.411,2.411,2.411,0,0,0,4.823,0A2.431,2.431,0,0,0,783.772,164.254Z" transform="translate(191.868 44.094)" fill="#fff" fill-rule="evenodd"/>
  <path id="Path_16338" data-name="Path 16338" d="M786.6,155.245l.307,2.149a10.471,10.471,0,0,0-2.892,0l.307-2.149Zm-9.6,3.07,1.708,1.271a9.642,9.642,0,0,0-1.8,1.754,1.22,1.22,0,0,0-.218.262l-1.272-1.708Zm16.928,0,1.623,1.579-1.272,1.708a11.282,11.282,0,0,0-2.06-2.016Zm-19.472,8.6h0c-.044.482-.089.965-.089,1.447s.044.964.089,1.446l-2.107-.307v-2.278Zm2.193,8.2a11.559,11.559,0,0,0,2.059,2.06L777,178.444l-1.579-1.623Zm7.148-21.053a.609.609,0,0,0-.57.528l-.44,3.025a10.844,10.844,0,0,0-3.025,1.272l-2.456-1.841a.589.589,0,0,0-.366-.127.481.481,0,0,0-.38.171l-2.367,2.367a.54.54,0,0,0-.044.746l1.841,2.456a10.8,10.8,0,0,0-1.271,3.028l-3.026.436a.608.608,0,0,0-.528.57v3.335a.574.574,0,0,0,.528.569l2.981.44a12.637,12.637,0,0,0,1.271,3.069l-1.8,2.411a.6.6,0,0,0,.044.792l2.367,2.321a.474.474,0,0,0,.4.177.5.5,0,0,0,.351-.133l2.411-1.8a11.078,11.078,0,0,0,3.069,1.272l.352,2.411a.567.567,0,0,0,.573.484h.085a.593.593,0,0,0,.528-.659l-.307-2.018h0a6.463,6.463,0,0,0,.92.089h.042a.58.58,0,0,0,.573-.569.591.591,0,0,0-.573-.614,9.929,9.929,0,0,1-9.429-9.912,9.688,9.688,0,0,1,2.282-6.272,9.885,9.885,0,0,1,5.613-3.42,10.375,10.375,0,0,1,4.037,0,10.635,10.635,0,0,1,3.421,1.4,9.81,9.81,0,0,1,4.252,6.271,2.556,2.556,0,0,1,.133.836.586.586,0,0,0,.578.486.362.362,0,0,0,.079-.006.547.547,0,0,0,.526-.658v-.086l1.36.219h.089a.572.572,0,0,0,.57-.526.589.589,0,0,0-.484-.658l-1.754-.262a12.252,12.252,0,0,0-1.272-3.028l1.8-2.456a.54.54,0,0,0-.044-.746l-2.323-2.367a.6.6,0,0,0-.791-.044l-2.456,1.841a10.3,10.3,0,0,0-3.028-1.272l-.437-3.025a.573.573,0,0,0-.569-.528Z" transform="translate(190.177 42.402)" fill="#fff" fill-rule="evenodd"/>
  <path id="Path_16339" data-name="Path 16339" d="M794.427,169.08a7.592,7.592,0,0,0-2.614,14.721,7.954,7.954,0,0,0,2.629.484,7.585,7.585,0,0,0,7.107-5,7.476,7.476,0,0,0-.7-6.667.588.588,0,0,0-.486-.268.53.53,0,0,0-.3.091.538.538,0,0,0-.177.792,6.45,6.45,0,1,1-5.463-2.987,6.361,6.361,0,0,1,2.216.4,6.931,6.931,0,0,1,2.192,1.316.515.515,0,0,0,.4.18.626.626,0,0,0,.436-.18.573.573,0,0,0-.044-.836,7.7,7.7,0,0,0-5.191-2.045Z" transform="translate(192.776 44.895)" fill="#fff" fill-rule="evenodd"/>
  <path id="Path_16340" data-name="Path 16340" d="M793.7,174.688a1.373,1.373,0,0,1,.4.085,1.24,1.24,0,0,1,.747,1.58,1.2,1.2,0,0,1-1.154.817,1.361,1.361,0,0,1-.424-.071,1.274,1.274,0,0,1-.7-.659,1.319,1.319,0,0,1-.044-.92,1.3,1.3,0,0,1,.659-.7A1.192,1.192,0,0,1,793.7,174.688Zm-.023-1.166a2.057,2.057,0,0,0-.986.245,2.325,2.325,0,0,0-1.269,1.316,2.545,2.545,0,0,0,.086,1.887,2.355,2.355,0,0,0,1.359,1.227,2.591,2.591,0,0,0,.833.131,2.343,2.343,0,0,0,2.238-1.579,2.369,2.369,0,0,0-1.4-3.07A2.578,2.578,0,0,0,793.679,173.522Z" transform="translate(193.515 45.632)" fill="#fff" fill-rule="evenodd"/>
  <path id="Path_16341" data-name="Path 16341" d="M798.775,164.9l2.151.792-.44,2.059c-.441-.218-.877-.4-1.316-.569a8.312,8.312,0,0,0-1.4-.4Zm-7.895.307,1.143,1.8a10.6,10.6,0,0,0-1.361.528,11.237,11.237,0,0,0-1.228.7l-.614-2.06Zm15.877,5.835.965,2.06-1.8,1.183a11.9,11.9,0,0,0-1.228-2.629ZM783.426,172l2.1.437c-.218.44-.436.876-.613,1.315a8.387,8.387,0,0,0-.393,1.405l-1.845-1.009Zm22.761,8.024,1.842,1.009-.788,2.1-2.063-.437a9.205,9.205,0,0,0,.569-1.315C805.925,180.946,806.056,180.466,806.187,180.026Zm-21.445.876a11.959,11.959,0,0,0,1.228,2.633l-2.019.57-.964-2.06Zm16.535,6.054.613,2.018-2.063.964-1.139-1.756A10.859,10.859,0,0,0,801.277,186.956Zm-11.052.484a9.407,9.407,0,0,0,1.314.569,8.187,8.187,0,0,0,1.36.4l-.964,1.887-2.149-.792Zm8.317-23.886a.614.614,0,0,0-.555.333l-1.446,2.676a10.235,10.235,0,0,0-1.234-.073,10.509,10.509,0,0,0-2.058.2l-1.667-2.544a.594.594,0,0,0-.492-.277.529.529,0,0,0-.251.059l-2.984,1.4a.616.616,0,0,0-.351.7l.876,2.9a13.049,13.049,0,0,0-2.236,2.415l-2.937-.614a.745.745,0,0,0-.114-.009.576.576,0,0,0-.588.4l-1.139,3.113a.568.568,0,0,0,.262.7l2.675,1.449a11.77,11.77,0,0,0,.132,3.288l-2.543,1.667a.61.61,0,0,0-.177.746l1.361,2.98a.632.632,0,0,0,.569.351h.133l2.939-.876c.129.174.307.351.436.525a.59.59,0,1,0,.877-.788,9.9,9.9,0,0,1,7.292-16.6,10.483,10.483,0,0,1,3.454.593,9.928,9.928,0,0,1-6.841,18.639,10.629,10.629,0,0,1-2.762-1.58.646.646,0,0,0-.36-.106.673.673,0,0,0-.472.195.567.567,0,0,0,.085.832c.222.177.484.351.7.528l-.614,2.937a.576.576,0,0,0,.351.7l3.114,1.141c.089,0,.133.042.218.042a.669.669,0,0,0,.528-.307l1.4-2.674a11.813,11.813,0,0,0,1.228.044,11.274,11.274,0,0,0,2.107-.177l1.665,2.543a.548.548,0,0,0,.484.264.611.611,0,0,0,.262-.086l2.984-1.361a.6.6,0,0,0,.307-.7l-.879-2.936a9.742,9.742,0,0,0,2.236-2.415l2.984.614h.131a.589.589,0,0,0,.572-.351l1.139-3.114a.643.643,0,0,0-.308-.743l-2.676-1.449a10.323,10.323,0,0,0-.131-3.288l2.544-1.667a.563.563,0,0,0,.218-.746l-1.4-2.98a.522.522,0,0,0-.513-.337.625.625,0,0,0-.189.029l-2.9.877a9.947,9.947,0,0,0-2.456-2.236l.658-2.984a.623.623,0,0,0-.4-.7l-3.069-1.143A.738.738,0,0,0,798.542,163.553Z" transform="translate(191.864 43.977)" fill="#fff" fill-rule="evenodd"/>
  <text id="Focus" transform="translate(137.486 284.082)" font-size="14" font-family="Helvetica-Bold, Helvetica" font-weight="700"><tspan x="0" y="11">Focus</tspan></text>
  <text id="Work" transform="translate(491.242 284.082)" font-size="14" font-family="Helvetica-Bold, Helvetica" font-weight="700"><tspan x="0" y="11">Work</tspan></text>
  <text id="Involvement" transform="translate(851.999 284.082)" font-size="14" font-family="Helvetica-Bold, Helvetica" font-weight="700"><tspan x="0" y="11">Involvement</tspan></text>
  <text id="Contribution" transform="translate(758.756 208.082)" font-size="14" font-family="Helvetica-Bold, Helvetica" font-weight="700"><tspan x="3.635" y="11">Contribution</tspan></text>
  <text id="Conception" transform="translate(400.761 208.082)" font-size="14" font-family="Helvetica-Bold, Helvetica" font-weight="700"><tspan x="7.125" y="11">Conception</tspan></text>
  <text id="Patient_Centricity_Data_minimisation_Democratise_data_access_Integrated_Digital_Health_Ecosystem_Federated_Health_Records_Role_of_Government_Policies_and_Regulators" data-name="Patient Centricity
Data minimisation
Democratise data access
Integrated Digital Health Ecosystem
Federated Health Records
Role of Government
Policies and Regulators" transform="translate(137.486 309.313)" font-size="14" font-family="Helvetica"><tspan x="0" y="11">Patient Centricity</tspan><tspan x="0" y="39">Data minimisation</tspan><tspan x="0" y="67">Democratise data access</tspan><tspan x="0" y="95">Integrated Digital Health Ecosystem</tspan><tspan x="0" y="123">Federated Health Records</tspan><tspan x="0" y="151">Role of Government</tspan><tspan x="0" y="179">Policies and Regulators</tspan></text>
  <text id="Equitable_Appropriate_Tech_High_Quality_FOSS_Health_Stack_For_Patient_Providers_and_Affinity_Domains_Healthcare_for_all" data-name="Equitable &amp; Appropriate Tech
High Quality FOSS Health Stack For Patient, Providers and Affinity Domains
Healthcare for all" transform="translate(491.242 309.313)" font-size="14" font-family="Helvetica"><tspan x="0" y="11">Equitable &amp; Appropriate Tech</tspan><tspan x="0" y="39">High Quality FOSS Health Stack For </tspan><tspan x="0" y="59">Patient, Providers and Affinity Domains</tspan><tspan x="0" y="87">Healthcare for all</tspan></text>
  <text id="National_Digital_Health_Mission_Academic_Research_Orgs_like_Harvard_India_Digital_Health_Network_St._John_s_Research_Institute_Ashoka_University_National_Cancer_Grid_of_India_Bahmni_Coalition_Large_Humanitarian_Orgs_NGOs_like_JSS_SEARCH_" data-name="National Digital Health Mission
Academic &amp; Research Orgs like Harvard India Digital Health Network, St. John’s Research Institute, Ashoka University
National Cancer Grid of India
Bahmni Coalition
Large Humanitarian Orgs
NGOs like JSS, SEARCH " transform="translate(851.999 309.313)" font-size="14" font-family="Helvetica"><tspan x="0" y="11">National Digital Health Mission</tspan><tspan x="0" y="39">Academic &amp; Research Orgs like Harvard </tspan><tspan x="0" y="59">India Digital Health Network, St. John’s </tspan><tspan x="0" y="79">Research Institute, Ashoka University</tspan><tspan x="0" y="107">National Cancer Grid of India</tspan><tspan x="0" y="135">Bahmni Coalition</tspan><tspan x="0" y="163">Large Humanitarian Orgs</tspan><tspan x="0" y="191">NGOs like JSS, SEARCH </tspan></text>
  <rect id="Rectangle_4750" data-name="Rectangle 4750" width="320" height="21" transform="translate(463.999 563.055)" fill="#fff"/>
  <text id="_Health_as_a_fundamental_human_right_" data-name=" “Health as a fundamental human right”" transform="translate(467.369 563.055)" font-size="16" font-family="Helvetica-Bold, Helvetica" font-weight="700"><tspan x="4.825" y="12" xml:space="preserve"> “Health as a fundamental human right”</tspan></text>
  <text id="Global_public_health" data-name="Global/public health" transform="translate(107.999 0.055)" font-size="24" font-family="Bitter-Bold, Bitter" font-weight="700"><tspan x="0" y="23">Global/public health</tspan></text>
</svg>
