<svg xmlns="http://www.w3.org/2000/svg" xmlns:xlink="http://www.w3.org/1999/xlink" width="229.017" height="313.167" viewBox="0 0 229.017 313.167">
  <defs>
    <clipPath id="clip-path">
      <rect id="Rectangle_2759" data-name="Rectangle 2759" width="128.399" height="225.663" transform="translate(0 0)" fill="none"/>
    </clipPath>
  </defs>
  <path id="Path_14400" data-name="Path 14400" d="M23.746,238.419l137.379,44.637a152.615,152.615,0,0,0,49.241,151.633l-84.931,116.9C33.781,479.155-9.48,356.392,23.746,238.419" transform="translate(18.651 -238.419)" fill="#60517a"/>
  <g id="Group_12058" data-name="Group 12058" transform="translate(-575.174 -513.257)">
    <g id="Group_12055" data-name="Group 12055" transform="translate(575.174 540.017)" opacity="0.205">
      <g id="Group_7668" data-name="Group 7668" transform="translate(0 0)">
        <g id="Group_7667" data-name="Group 7667" transform="translate(0 66.13) rotate(-31)">
          <g id="Group_7666" data-name="Group 7666" transform="translate(0 0)" clip-path="url(#clip-path)">
            <path id="Path_12524" data-name="Path 12524" d="M11.994,23.987A11.993,11.993,0,1,0,0,11.993,12.007,12.007,0,0,0,11.994,23.987m0-23.39A11.395,11.395,0,1,1,.6,11.993,11.406,11.406,0,0,1,11.994.6" transform="translate(104.412 5.579)" fill="#e16b7c"/>
            <path id="Path_12525" data-name="Path 12525" d="M10.559,21.115A10.557,10.557,0,1,0,0,10.557,10.568,10.568,0,0,0,10.559,21.115M10.559.6A9.958,9.958,0,1,1,.6,10.557,9.969,9.969,0,0,1,10.559.6" transform="translate(105.847 7.015)" fill="#e16b7c"/>
            <path id="Path_12526" data-name="Path 12526" d="M9.124,18.246A9.123,9.123,0,1,0,0,9.124a9.133,9.133,0,0,0,9.124,9.122M9.124.6A8.524,8.524,0,1,1,.6,9.124,8.534,8.534,0,0,1,9.124.6" transform="translate(107.282 8.449)" fill="#e16b7c"/>
            <path id="Path_12527" data-name="Path 12527" d="M7.688,15.373A7.686,7.686,0,1,0,0,7.687a7.694,7.694,0,0,0,7.688,7.686M7.688.6A7.087,7.087,0,1,1,.6,7.687,7.094,7.094,0,0,1,7.688.6" transform="translate(108.718 9.886)" fill="#e16b7c"/>
            <path id="Path_12528" data-name="Path 12528" d="M6.253,12.5A6.25,6.25,0,1,0,0,6.251,6.256,6.256,0,0,0,6.253,12.5m0-11.9A5.651,5.651,0,1,1,.6,6.251,5.655,5.655,0,0,1,6.253.6" transform="translate(110.153 11.321)" fill="#e16b7c"/>
            <path id="Path_12529" data-name="Path 12529" d="M4.817,9.63A4.815,4.815,0,1,0,0,4.815,4.819,4.819,0,0,0,4.817,9.63M4.817.6A4.216,4.216,0,1,1,.6,4.815,4.221,4.221,0,0,1,4.817.6" transform="translate(111.589 12.757)" fill="#e16b7c"/>
            <path id="Path_12530" data-name="Path 12530" d="M3.381,6.76A3.38,3.38,0,1,0,0,3.381,3.386,3.386,0,0,0,3.381,6.76m0-6.16A2.78,2.78,0,1,1,.6,3.381,2.782,2.782,0,0,1,3.381.6" transform="translate(113.025 14.192)" fill="#fff"/>
            <path id="Path_12531" data-name="Path 12531" d="M1.943,3.889A1.944,1.944,0,1,0,0,1.945,1.945,1.945,0,0,0,1.943,3.889M1.943.6A1.345,1.345,0,1,1,.6,1.945,1.346,1.346,0,0,1,1.943.6" transform="translate(114.463 15.628)" fill="#e16b7c"/>
            <path id="Path_12532" data-name="Path 12532" d="M.509,1.017A.508.508,0,1,0,0,.509a.509.509,0,0,0,.509.508m0-.6A.092.092,0,0,1,.6.509.089.089,0,0,1,.509.6.09.09,0,0,1,.416.509.093.093,0,0,1,.509.417" transform="translate(115.897 17.064)" fill="#e16b7c"/>
            <path id="Path_12533" data-name="Path 12533" d="M11.995,23.988A11.994,11.994,0,1,0,0,11.994,12.006,12.006,0,0,0,11.995,23.988M11.995.6A11.393,11.393,0,1,1,.6,11.994,11.4,11.4,0,0,1,11.995.6" transform="translate(104.412 0)" fill="#5e9fab"/>
            <path id="Path_12534" data-name="Path 12534" d="M10.559,21.115A10.557,10.557,0,1,0,0,10.557,10.568,10.568,0,0,0,10.559,21.115M10.559.6A9.958,9.958,0,1,1,.6,10.557,9.973,9.973,0,0,1,10.559.6" transform="translate(105.848 1.437)" fill="#5e9fab"/>
            <path id="Path_12535" data-name="Path 12535" d="M9.124,18.245A9.122,9.122,0,1,0,0,9.122a9.133,9.133,0,0,0,9.124,9.123M9.124.6A8.523,8.523,0,1,1,.6,9.122,8.532,8.532,0,0,1,9.124.6" transform="translate(107.283 2.872)" fill="#5e9fab"/>
            <path id="Path_12536" data-name="Path 12536" d="M7.688,15.373A7.687,7.687,0,1,0,0,7.686a7.7,7.7,0,0,0,7.688,7.687M7.688.6A7.087,7.087,0,1,1,.6,7.686,7.093,7.093,0,0,1,7.688.6" transform="translate(108.719 4.308)" fill="#5e9fab"/>
            <path id="Path_12537" data-name="Path 12537" d="M6.253,12.5A6.25,6.25,0,1,0,0,6.249,6.256,6.256,0,0,0,6.253,12.5m0-11.9A5.651,5.651,0,1,1,.6,6.249,5.654,5.654,0,0,1,6.253.6" transform="translate(110.154 5.745)" fill="#5e9fab"/>
            <path id="Path_12538" data-name="Path 12538" d="M4.817,9.63A4.815,4.815,0,1,0,0,4.814,4.82,4.82,0,0,0,4.817,9.63M4.817.6A4.216,4.216,0,1,1,.6,4.814,4.22,4.22,0,0,1,4.817.6" transform="translate(111.59 7.18)" fill="#5e9fab"/>
            <path id="Path_12539" data-name="Path 12539" d="M3.381,6.76A3.38,3.38,0,1,0,0,3.379,3.386,3.386,0,0,0,3.381,6.76m0-6.16A2.779,2.779,0,1,1,.6,3.379,2.782,2.782,0,0,1,3.381.6" transform="translate(113.026 8.615)" fill="#fff"/>
            <path id="Path_12540" data-name="Path 12540" d="M1.944,3.89A1.945,1.945,0,1,0,0,1.944,1.945,1.945,0,0,0,1.944,3.89m0-3.29A1.345,1.345,0,1,1,.6,1.944,1.346,1.346,0,0,1,1.944.6" transform="translate(114.464 10.05)" fill="#5e9fab"/>
            <path id="Path_12541" data-name="Path 12541" d="M.51,1.016A.508.508,0,1,0,0,.508a.509.509,0,0,0,.51.508m0-.6A.091.091,0,0,1,.6.508.094.094,0,0,1,.51.6.093.093,0,0,1,.416.508.09.09,0,0,1,.51.419" transform="translate(115.898 11.486)" fill="#5e9fab"/>
            <path id="Path_12542" data-name="Path 12542" d="M11.994,23.987A11.993,11.993,0,1,0,0,11.993,12.006,12.006,0,0,0,11.994,23.987m0-23.39A11.395,11.395,0,1,1,.6,11.993,11.406,11.406,0,0,1,11.994.6" transform="translate(0 201.676)" fill="#e16b7c"/>
            <path id="Path_12543" data-name="Path 12543" d="M10.559,21.115A10.557,10.557,0,1,0,0,10.557,10.568,10.568,0,0,0,10.559,21.115M10.559.6A9.958,9.958,0,1,1,.6,10.557,9.969,9.969,0,0,1,10.559.6" transform="translate(1.435 203.111)" fill="#e16b7c"/>
            <path id="Path_12544" data-name="Path 12544" d="M9.124,18.246A9.123,9.123,0,1,0,0,9.124a9.133,9.133,0,0,0,9.124,9.122M9.124.6A8.524,8.524,0,1,1,.6,9.124,8.534,8.534,0,0,1,9.124.6" transform="translate(2.87 204.545)" fill="#e16b7c"/>
            <path id="Path_12545" data-name="Path 12545" d="M7.688,15.373A7.687,7.687,0,1,0,0,7.687a7.694,7.694,0,0,0,7.688,7.686M7.688.6A7.087,7.087,0,1,1,.6,7.687,7.094,7.094,0,0,1,7.688.6" transform="translate(4.305 205.982)" fill="#e16b7c"/>
            <path id="Path_12546" data-name="Path 12546" d="M6.253,12.5A6.25,6.25,0,1,0,0,6.251,6.256,6.256,0,0,0,6.253,12.5m0-11.9A5.651,5.651,0,1,1,.6,6.251,5.655,5.655,0,0,1,6.253.6" transform="translate(5.741 207.418)" fill="#e16b7c"/>
            <path id="Path_12547" data-name="Path 12547" d="M4.817,9.63A4.815,4.815,0,1,0,0,4.815,4.819,4.819,0,0,0,4.817,9.63M4.817.6A4.216,4.216,0,1,1,.6,4.815,4.22,4.22,0,0,1,4.817.6" transform="translate(7.177 208.853)" fill="#e16b7c"/>
            <path id="Path_12548" data-name="Path 12548" d="M3.381,6.76A3.38,3.38,0,1,0,0,3.381,3.386,3.386,0,0,0,3.381,6.76M3.381.6A2.78,2.78,0,1,1,.6,3.381,2.782,2.782,0,0,1,3.381.6" transform="translate(8.612 210.288)" fill="#eef1f3"/>
            <path id="Path_12549" data-name="Path 12549" d="M1.943,3.889A1.944,1.944,0,1,0,0,1.945,1.945,1.945,0,0,0,1.943,3.889M1.943.6A1.345,1.345,0,1,1,.6,1.945,1.346,1.346,0,0,1,1.943.6" transform="translate(10.05 211.724)" fill="#e16b7c"/>
            <path id="Path_12550" data-name="Path 12550" d="M.509,1.017A.508.508,0,1,0,0,.509a.509.509,0,0,0,.509.508m0-.6A.092.092,0,0,1,.6.509.089.089,0,0,1,.509.6.09.09,0,0,1,.416.509.093.093,0,0,1,.509.417" transform="translate(11.485 213.16)" fill="#e16b7c"/>
            <path id="Path_12551" data-name="Path 12551" d="M11.995,23.988A11.994,11.994,0,1,0,0,11.994,12.006,12.006,0,0,0,11.995,23.988M11.995.6A11.393,11.393,0,1,1,.6,11.994,11.4,11.4,0,0,1,11.995.6" transform="translate(0 196.096)" fill="#5e9fab"/>
            <path id="Path_12552" data-name="Path 12552" d="M10.559,21.115A10.558,10.558,0,1,0,0,10.557,10.569,10.569,0,0,0,10.559,21.115M10.559.6A9.958,9.958,0,1,1,.6,10.557,9.973,9.973,0,0,1,10.559.6" transform="translate(1.436 197.534)" fill="#5e9fab"/>
            <path id="Path_12553" data-name="Path 12553" d="M9.124,18.245A9.122,9.122,0,1,0,0,9.122a9.133,9.133,0,0,0,9.124,9.123M9.124.6A8.523,8.523,0,1,1,.6,9.122,8.532,8.532,0,0,1,9.124.6" transform="translate(2.871 198.968)" fill="#5e9fab"/>
            <path id="Path_12554" data-name="Path 12554" d="M7.688,15.373A7.687,7.687,0,1,0,0,7.686a7.7,7.7,0,0,0,7.688,7.687M7.688.6A7.087,7.087,0,1,1,.6,7.686,7.094,7.094,0,0,1,7.688.6" transform="translate(4.306 200.405)" fill="#5e9fab"/>
            <path id="Path_12555" data-name="Path 12555" d="M6.253,12.5A6.25,6.25,0,1,0,0,6.249,6.256,6.256,0,0,0,6.253,12.5m0-11.9A5.651,5.651,0,1,1,.6,6.249,5.654,5.654,0,0,1,6.253.6" transform="translate(5.742 201.841)" fill="#5e9fab"/>
            <path id="Path_12556" data-name="Path 12556" d="M4.817,9.63A4.815,4.815,0,1,0,0,4.815,4.821,4.821,0,0,0,4.817,9.63M4.817.6A4.216,4.216,0,1,1,.6,4.815,4.22,4.22,0,0,1,4.817.6" transform="translate(7.178 203.276)" fill="#5e9fab"/>
            <path id="Path_12557" data-name="Path 12557" d="M3.381,6.76A3.38,3.38,0,1,0,0,3.379,3.386,3.386,0,0,0,3.381,6.76m0-6.16A2.779,2.779,0,1,1,.6,3.379,2.782,2.782,0,0,1,3.381.6" transform="translate(8.614 204.711)" fill="#eef1f3"/>
            <path id="Path_12558" data-name="Path 12558" d="M1.943,3.89A1.945,1.945,0,1,0,0,1.944,1.945,1.945,0,0,0,1.943,3.89m0-3.29A1.345,1.345,0,1,1,.6,1.944,1.346,1.346,0,0,1,1.943.6" transform="translate(10.051 206.146)" fill="#5e9fab"/>
            <path id="Path_12559" data-name="Path 12559" d="M.51,1.016A.508.508,0,1,0,0,.508a.509.509,0,0,0,.51.508m0-.6A.091.091,0,0,1,.6.508.094.094,0,0,1,.51.6.093.093,0,0,1,.416.508.089.089,0,0,1,.51.419" transform="translate(11.485 207.582)" fill="#5e9fab"/>
            <path id="Path_12560" data-name="Path 12560" d="M53.777,107.55A53.775,53.775,0,1,0,0,53.774,53.833,53.833,0,0,0,53.777,107.55m0-104.873a51.092,51.092,0,1,1-51.083,51.1,51.143,51.143,0,0,1,51.083-51.1" transform="translate(16.964 76.992)" fill="#e16b7c"/>
            <path id="Path_12561" data-name="Path 12561" d="M47.343,94.673A47.336,47.336,0,1,0,0,47.336,47.383,47.383,0,0,0,47.343,94.673m0-91.982A44.649,44.649,0,1,1,2.685,47.336,44.7,44.7,0,0,1,47.343,2.691" transform="translate(23.397 83.429)" fill="#e16b7c"/>
            <path id="Path_12562" data-name="Path 12562" d="M40.91,81.809A40.9,40.9,0,1,0,0,40.908a40.95,40.95,0,0,0,40.91,40.9m0-79.12A38.218,38.218,0,1,1,2.693,40.908,38.266,38.266,0,0,1,40.91,2.689" transform="translate(29.831 89.857)" fill="#e16b7c"/>
            <path id="Path_12563" data-name="Path 12563" d="M34.473,68.927A34.464,34.464,0,1,0,0,34.466,34.5,34.5,0,0,0,34.473,68.927m0-66.238A31.776,31.776,0,1,1,2.689,34.466,31.809,31.809,0,0,1,34.473,2.689" transform="translate(36.268 96.3)" fill="#e16b7c"/>
            <path id="Path_12564" data-name="Path 12564" d="M28.035,56.05A28.025,28.025,0,1,0,0,28.028,28.049,28.049,0,0,0,28.035,56.05m0-53.361A25.337,25.337,0,1,1,2.694,28.028,25.356,25.356,0,0,1,28.035,2.689" transform="translate(42.705 102.737)" fill="#e16b7c"/>
            <path id="Path_12565" data-name="Path 12565" d="M21.6,43.179A21.59,21.59,0,1,0,0,21.591,21.606,21.606,0,0,0,21.6,43.179m0-40.49a18.9,18.9,0,1,1-18.909,18.9A18.924,18.924,0,0,1,21.6,2.689" transform="translate(49.143 109.175)" fill="#e16b7c"/>
            <path id="Path_12566" data-name="Path 12566" d="M15.16,30.311A15.156,15.156,0,1,0,0,15.158,15.182,15.182,0,0,0,15.16,30.311m0-27.618A12.463,12.463,0,1,1,2.694,15.158,12.474,12.474,0,0,1,15.16,2.693" transform="translate(55.58 115.608)" fill="#e16b7c"/>
            <path id="Path_12567" data-name="Path 12567" d="M8.714,17.436A8.718,8.718,0,1,0,0,8.72a8.72,8.72,0,0,0,8.714,8.716m0-14.747A6.029,6.029,0,1,1,2.675,8.72,6.033,6.033,0,0,1,8.714,2.689" transform="translate(62.027 122.045)" fill="#e16b7c"/>
            <path id="Path_12568" data-name="Path 12568" d="M2.281,4.559A2.279,2.279,0,1,0,0,2.281,2.282,2.282,0,0,0,2.281,4.559m0-2.691a.413.413,0,0,1,.413.413.4.4,0,0,1-.413.4.4.4,0,0,1-.417-.4.417.417,0,0,1,.417-.413" transform="translate(68.46 128.485)" fill="#e16b7c"/>
            <path id="Path_12569" data-name="Path 12569" d="M53.781,107.555A53.777,53.777,0,1,0,0,53.778a53.832,53.832,0,0,0,53.781,53.776m0-104.859A51.085,51.085,0,1,1,2.694,53.778,51.136,51.136,0,0,1,53.781,2.7" transform="translate(16.964 51.975)" fill="#5e9fab"/>
            <path id="Path_12570" data-name="Path 12570" d="M47.344,94.673A47.337,47.337,0,1,0,0,47.334,47.386,47.386,0,0,0,47.344,94.673m0-91.993A44.651,44.651,0,1,1,2.685,47.334,44.717,44.717,0,0,1,47.344,2.68" transform="translate(23.402 58.419)" fill="#5e9fab"/>
            <path id="Path_12571" data-name="Path 12571" d="M40.911,81.8A40.9,40.9,0,1,0,0,40.9,40.951,40.951,0,0,0,40.911,81.8m0-79.118A38.216,38.216,0,1,1,2.694,40.9,38.257,38.257,0,0,1,40.911,2.686" transform="translate(29.835 64.853)" fill="#5e9fab"/>
            <path id="Path_12572" data-name="Path 12572" d="M34.473,68.93A34.465,34.465,0,1,0,0,34.461,34.507,34.507,0,0,0,34.473,68.93m0-66.243A31.776,31.776,0,1,1,2.689,34.461,31.806,31.806,0,0,1,34.473,2.687" transform="translate(36.272 71.292)" fill="#5e9fab"/>
            <path id="Path_12573" data-name="Path 12573" d="M28.035,56.045A28.023,28.023,0,1,0,0,28.019,28.051,28.051,0,0,0,28.035,56.045m0-53.359A25.336,25.336,0,1,1,2.7,28.019,25.352,25.352,0,0,1,28.035,2.687" transform="translate(42.71 77.734)" fill="#5e9fab"/>
            <path id="Path_12574" data-name="Path 12574" d="M21.6,43.18A21.59,21.59,0,1,0,0,21.586,21.613,21.613,0,0,0,21.6,43.18m0-40.5a18.9,18.9,0,1,1-18.909,18.9A18.92,18.92,0,0,1,21.6,2.685" transform="translate(49.147 84.167)" fill="#5e9fab"/>
            <path id="Path_12575" data-name="Path 12575" d="M15.16,30.311A15.156,15.156,0,1,0,0,15.151a15.182,15.182,0,0,0,15.16,15.16m0-27.62A12.462,12.462,0,1,1,2.693,15.151,12.474,12.474,0,0,1,15.16,2.692" transform="translate(55.585 90.603)" fill="#5e9fab"/>
            <path id="Path_12576" data-name="Path 12576" d="M8.714,17.441A8.72,8.72,0,1,0,0,8.718a8.722,8.722,0,0,0,8.714,8.723m0-14.752A6.031,6.031,0,1,1,2.68,8.718,6.035,6.035,0,0,1,8.714,2.689" transform="translate(62.031 97.036)" fill="#5e9fab"/>
            <path id="Path_12577" data-name="Path 12577" d="M2.285,4.556A2.278,2.278,0,1,0,0,2.278,2.281,2.281,0,0,0,2.285,4.556m0-2.68a.406.406,0,0,1,.417.4.421.421,0,0,1-.417.416.415.415,0,0,1-.418-.416.4.4,0,0,1,.418-.4" transform="translate(68.46 103.476)" fill="#5e9fab"/>
            <path id="Path_12578" data-name="Path 12578" d="M8.557,1.446A12.4,12.4,0,0,1,2.731,0,15.156,15.156,0,0,0,0,1.488,15.146,15.146,0,0,0,2.728,2.975a12.443,12.443,0,0,1,11.648,0,15.148,15.148,0,0,0,2.73-1.488A15.159,15.159,0,0,0,14.373,0,12.375,12.375,0,0,1,8.557,1.446" transform="translate(62.188 116.772)" fill="#fff"/>
            <path id="Path_12579" data-name="Path 12579" d="M3.434,2.174A19.047,19.047,0,0,1,1.774,0,21.745,21.745,0,0,0,0,2.173,21.756,21.756,0,0,0,1.773,4.347a19.036,19.036,0,0,1,1.66-2.173" transform="translate(53.145 116.084)" fill="#fff"/>
            <path id="Path_12580" data-name="Path 12580" d="M0,2.173A19.02,19.02,0,0,1,1.662,4.35,21.73,21.73,0,0,0,3.435,2.178,21.741,21.741,0,0,0,1.659,0,19.056,19.056,0,0,1,0,2.173" transform="translate(84.898 116.086)" fill="#fff"/>
            <path id="Path_12581" data-name="Path 12581" d="M3.05,2.862A25.249,25.249,0,0,1,1.654,0,28.053,28.053,0,0,0,0,2.865,28.039,28.039,0,0,0,1.65,5.726a25.26,25.26,0,0,1,1.4-2.864" transform="translate(45.657 115.391)" fill="#fff"/>
            <path id="Path_12582" data-name="Path 12582" d="M0,2.864A25.234,25.234,0,0,1,1.4,5.725,28.006,28.006,0,0,0,3.048,2.862,28.044,28.044,0,0,0,1.4,0,25.245,25.245,0,0,1,0,2.864" transform="translate(92.77 115.397)" fill="#fff"/>
            <path id="Path_12583" data-name="Path 12583" d="M1.625,7.1A31.528,31.528,0,0,1,2.906,3.552,31.523,31.523,0,0,1,1.626,0,34.31,34.31,0,0,0,0,3.551,34.286,34.286,0,0,0,1.625,7.1" transform="translate(38.618 114.702)" fill="#fff"/>
            <path id="Path_12584" data-name="Path 12584" d="M1.278,0A31.481,31.481,0,0,1,0,3.547,31.519,31.519,0,0,1,1.281,7.1,34.3,34.3,0,0,0,2.905,3.556,34.327,34.327,0,0,0,1.278,0" transform="translate(99.951 114.713)" fill="#fff"/>
            <path id="Path_12585" data-name="Path 12585" d="M1.636,8.5A37.86,37.86,0,0,1,2.841,4.251,37.863,37.863,0,0,1,1.638,0,40.613,40.613,0,0,0,0,4.252,40.571,40.571,0,0,0,1.636,8.5" transform="translate(31.788 114.001)" fill="#fff"/>
            <path id="Path_12586" data-name="Path 12586" d="M1.2,0A37.838,37.838,0,0,1,0,4.253,37.847,37.847,0,0,1,1.205,8.511,40.636,40.636,0,0,0,2.843,4.259,40.643,40.643,0,0,0,1.2,0" transform="translate(106.85 114.007)" fill="#fff"/>
            <path id="Path_12587" data-name="Path 12587" d="M1.651,9.869A44.25,44.25,0,0,1,2.792,4.934,44.306,44.306,0,0,1,1.652,0,46.927,46.927,0,0,0,0,4.934,46.953,46.953,0,0,0,1.651,9.869" transform="translate(25.076 113.317)" fill="#fff"/>
            <path id="Path_12588" data-name="Path 12588" d="M1.141,0A44.228,44.228,0,0,1,0,4.934,44.291,44.291,0,0,1,1.14,9.871,46.985,46.985,0,0,0,2.792,4.936,46.945,46.945,0,0,0,1.141,0" transform="translate(113.613 113.332)" fill="#fff"/>
            <path id="Path_12589" data-name="Path 12589" d="M1.685,11.292A50.749,50.749,0,0,1,2.774,5.645,50.738,50.738,0,0,1,1.685,0,53.324,53.324,0,0,0,0,5.646a53.307,53.307,0,0,0,1.685,5.646" transform="translate(18.433 112.613)" fill="#fff"/>
            <path id="Path_12590" data-name="Path 12590" d="M1.088,0A50.722,50.722,0,0,1,0,5.635a50.78,50.78,0,0,1,1.085,5.628A53.322,53.322,0,0,0,2.766,5.627,53.277,53.277,0,0,0,1.088,0" transform="translate(120.277 112.633)" fill="#fff"/>
          </g>
        </g>
      </g>
    </g>
    <g id="Group_12057" data-name="Group 12057" transform="translate(616.268 557.871)">
      <path id="Path_12591" data-name="Path 12591" d="M15.67,31.339A15.669,15.669,0,1,0,0,15.669a15.686,15.686,0,0,0,15.67,15.67M15.67.78A14.887,14.887,0,1,1,.785,15.669,14.9,14.9,0,0,1,15.67.78" transform="translate(3.754 22.388) rotate(-31)" fill="#e16b7c" opacity="0.266"/>
      <path id="Path_12592" data-name="Path 12592" d="M13.8,27.586A13.793,13.793,0,1,0,0,13.793,13.807,13.807,0,0,0,13.8,27.586m0-26.8A13.01,13.01,0,1,1,.782,13.793,13.025,13.025,0,0,1,13.8.784" transform="translate(6.327 23.031) rotate(-31)" fill="#e16b7c" opacity="0.266"/>
      <path id="Path_12593" data-name="Path 12593" d="M11.921,23.838A11.919,11.919,0,1,0,0,11.92,11.932,11.932,0,0,0,11.921,23.838m0-23.054A11.136,11.136,0,1,1,.785,11.92,11.15,11.15,0,0,1,11.921.784" transform="translate(8.899 23.671) rotate(-31)" fill="#e16b7c" opacity="0.266"/>
      <path id="Path_12594" data-name="Path 12594" d="M10.045,20.084A10.042,10.042,0,1,0,0,10.043,10.052,10.052,0,0,0,10.045,20.084m0-19.3A9.259,9.259,0,1,1,.783,10.043,9.269,9.269,0,0,1,10.045.784" transform="translate(11.473 24.314) rotate(-31)" fill="#e16b7c" opacity="0.266"/>
      <path id="Path_12595" data-name="Path 12595" d="M8.169,16.332A8.166,8.166,0,1,0,0,8.167a8.173,8.173,0,0,0,8.169,8.165m0-15.549A7.383,7.383,0,1,1,.785,8.167,7.388,7.388,0,0,1,8.169.783" transform="translate(14.047 24.956) rotate(-31)" fill="#e16b7c" opacity="0.341"/>
      <path id="Path_12596" data-name="Path 12596" d="M6.293,12.582A6.291,6.291,0,1,0,0,6.291a6.3,6.3,0,0,0,6.293,6.291m0-11.8A5.508,5.508,0,1,1,.784,6.291,5.514,5.514,0,0,1,6.293.783" transform="translate(16.622 25.597) rotate(-31)" fill="#e16b7c" opacity="0.341"/>
      <path id="Path_12597" data-name="Path 12597" d="M4.417,8.832A4.416,4.416,0,1,0,0,4.417,4.424,4.424,0,0,0,4.417,8.832m0-8.047A3.632,3.632,0,1,1,.785,4.417,3.635,3.635,0,0,1,4.417.785" transform="translate(19.195 26.238) rotate(-31)" fill="#e16b7c" opacity="0.341"/>
      <path id="Path_12598" data-name="Path 12598" d="M2.539,5.081A2.54,2.54,0,1,0,0,2.541a2.541,2.541,0,0,0,2.539,2.54m0-4.3A1.757,1.757,0,1,1,.78,2.541,1.758,1.758,0,0,1,2.539.783" transform="translate(21.771 26.878) rotate(-31)" fill="#e16b7c" opacity="0.341"/>
      <path id="Path_12599" data-name="Path 12599" d="M.665,1.328A.664.664,0,1,0,0,.665a.665.665,0,0,0,.665.664m0-.784a.12.12,0,0,1,.12.12.116.116,0,0,1-.12.117A.118.118,0,0,1,.543.665.122.122,0,0,1,.665.544" transform="translate(24.344 27.521) rotate(-31)" fill="#e16b7c" opacity="0.341"/>
      <path id="Path_12600" data-name="Path 12600" d="M15.671,31.34A15.67,15.67,0,1,0,0,15.67,15.686,15.686,0,0,0,15.671,31.34m0-30.554A14.885,14.885,0,1,1,.785,15.67,14.9,14.9,0,0,1,15.671.785" transform="translate(0 16.14) rotate(-31)" fill="#5e9fab" opacity="0.266"/>
      <path id="Path_12601" data-name="Path 12601" d="M13.8,27.586A13.793,13.793,0,1,0,0,13.792,13.807,13.807,0,0,0,13.8,27.586M13.8.781A13.011,13.011,0,1,1,.782,13.792,13.03,13.03,0,0,1,13.8.781" transform="translate(2.575 16.784) rotate(-31)" fill="#5e9fab" opacity="0.266"/>
      <path id="Path_12602" data-name="Path 12602" d="M11.921,23.837A11.918,11.918,0,1,0,0,11.918,11.932,11.932,0,0,0,11.921,23.837m0-23.054A11.135,11.135,0,1,1,.785,11.918,11.147,11.147,0,0,1,11.921.783" transform="translate(5.147 17.425) rotate(-31)" fill="#5e9fab" opacity="0.266"/>
      <path id="Path_12603" data-name="Path 12603" d="M10.045,20.085A10.043,10.043,0,1,0,0,10.042,10.055,10.055,0,0,0,10.045,20.085m0-19.3A9.259,9.259,0,1,1,.784,10.042,9.268,9.268,0,0,1,10.045.783" transform="translate(7.722 18.067) rotate(-31)" fill="#5e9fab" opacity="0.266"/>
      <path id="Path_12604" data-name="Path 12604" d="M8.169,16.331A8.165,8.165,0,1,0,0,8.164a8.174,8.174,0,0,0,8.169,8.166m0-15.548A7.382,7.382,0,1,1,.786,8.164,7.387,7.387,0,0,1,8.169.783" transform="translate(10.296 18.71) rotate(-31)" fill="#5e9fab" opacity="0.266"/>
      <path id="Path_12605" data-name="Path 12605" d="M6.293,12.582A6.291,6.291,0,1,0,0,6.29a6.3,6.3,0,0,0,6.293,6.292m0-11.8A5.508,5.508,0,1,1,.784,6.29,5.513,5.513,0,0,1,6.293.782" transform="translate(12.869 19.351) rotate(-31)" fill="#5e9fab" opacity="0.266"/>
      <path id="Path_12606" data-name="Path 12606" d="M4.418,8.832A4.416,4.416,0,1,0,0,4.415,4.424,4.424,0,0,0,4.418,8.832m0-8.048A3.631,3.631,0,1,1,.785,4.415,3.635,3.635,0,0,1,4.417.784" transform="translate(15.443 19.992) rotate(-31)" fill="#5e9fab" opacity="0.341"/>
      <path id="Path_12607" data-name="Path 12607" d="M2.539,5.082A2.541,2.541,0,1,0,0,2.54,2.541,2.541,0,0,0,2.539,5.082m0-4.3A1.757,1.757,0,1,1,.781,2.54,1.758,1.758,0,0,1,2.539.784" transform="translate(18.019 20.631) rotate(-31)" fill="#5e9fab" opacity="0.341"/>
      <path id="Path_12608" data-name="Path 12608" d="M.666,1.328A.664.664,0,1,0,0,.664a.665.665,0,0,0,.666.664m0-.781A.118.118,0,0,1,.788.664.123.123,0,0,1,.666.785.121.121,0,0,1,.544.664.117.117,0,0,1,.666.547" transform="translate(20.591 21.275) rotate(-31)" fill="#5e9fab" opacity="0.341"/>
      <path id="Path_12609" data-name="Path 12609" d="M2.493.421A3.613,3.613,0,0,1,.8,0,4.419,4.419,0,0,0,0,.433,4.413,4.413,0,0,0,.795.867a3.626,3.626,0,0,1,3.394,0,4.416,4.416,0,0,0,.8-.434A4.414,4.414,0,0,0,4.188,0,3.606,3.606,0,0,1,2.493.421" transform="translate(21.02 25.537) rotate(-31)" fill="#fff"/>
      <path id="Path_12610" data-name="Path 12610" d="M1,.633A5.549,5.549,0,0,1,.517,0,6.33,6.33,0,0,0,0,.633a6.343,6.343,0,0,0,.517.633A5.542,5.542,0,0,1,1,.633" transform="translate(18.658 26.723) rotate(-31)" fill="#fff"/>
      <path id="Path_12611" data-name="Path 12611" d="M0,.633a5.542,5.542,0,0,1,.484.634A6.332,6.332,0,0,0,1,.635,6.333,6.333,0,0,0,.484,0,5.552,5.552,0,0,1,0,.633" transform="translate(26.589 21.958) rotate(-31)" fill="#fff"/>
      <path id="Path_12612" data-name="Path 12612" d="M.889.834A7.359,7.359,0,0,1,.482,0,8.169,8.169,0,0,0,0,.835a8.178,8.178,0,0,0,.481.834A7.359,7.359,0,0,1,.889.834" transform="translate(16.684 27.673) rotate(-31)" fill="#fff"/>
      <path id="Path_12613" data-name="Path 12613" d="M0,.834a7.354,7.354,0,0,1,.407.834A8.168,8.168,0,0,0,.888.834,8.168,8.168,0,0,0,.407,0,7.357,7.357,0,0,1,0,.834" transform="translate(28.452 20.604) rotate(-31)" fill="#fff"/>
      <path id="Path_12614" data-name="Path 12614" d="M.474,2.07A9.186,9.186,0,0,1,.847,1.035,9.189,9.189,0,0,1,.474,0,10,10,0,0,0,0,1.035,10,10,0,0,0,.474,2.07" transform="translate(14.822 28.558) rotate(-31)" fill="#fff"/>
      <path id="Path_12615" data-name="Path 12615" d="M.373,0A9.17,9.17,0,0,1,0,1.034,9.186,9.186,0,0,1,.373,2.069,9.994,9.994,0,0,0,.847,1.036,10,10,0,0,0,.373,0" transform="translate(30.143 19.356) rotate(-31)" fill="#fff"/>
      <path id="Path_12616" data-name="Path 12616" d="M.477,2.478A11.034,11.034,0,0,1,.828,1.239,11.031,11.031,0,0,1,.477,0,11.833,11.833,0,0,0,0,1.239,11.828,11.828,0,0,0,.477,2.478" transform="translate(13.011 29.408) rotate(-31)" fill="#fff"/>
      <path id="Path_12617" data-name="Path 12617" d="M.351,0A11.036,11.036,0,0,1,0,1.239,11.038,11.038,0,0,1,.351,2.48,11.837,11.837,0,0,0,.828,1.241,11.826,11.826,0,0,0,.351,0" transform="translate(31.76 18.144) rotate(-31)" fill="#fff"/>
      <path id="Path_12618" data-name="Path 12618" d="M.481,2.876A12.9,12.9,0,0,1,.813,1.438,12.911,12.911,0,0,1,.481,0,13.672,13.672,0,0,0,0,1.438,13.68,13.68,0,0,0,.481,2.876" transform="translate(11.232 30.244) rotate(-31)" fill="#fff"/>
      <path id="Path_12619" data-name="Path 12619" d="M.333,0A12.9,12.9,0,0,1,0,1.438,12.9,12.9,0,0,1,.332,2.876,13.688,13.688,0,0,0,.814,1.438,13.67,13.67,0,0,0,.333,0" transform="translate(33.348 16.96) rotate(-31)" fill="#fff"/>
      <path id="Path_12620" data-name="Path 12620" d="M.491,3.29A14.789,14.789,0,0,1,.808,1.645,14.785,14.785,0,0,1,.491,0,15.537,15.537,0,0,0,0,1.645,15.531,15.531,0,0,0,.491,3.29" transform="translate(9.467 31.065) rotate(-31)" fill="#fff"/>
      <path id="Path_12621" data-name="Path 12621" d="M.317,0A14.784,14.784,0,0,1,0,1.642a14.8,14.8,0,0,1,.316,1.64A15.53,15.53,0,0,0,.806,1.64,15.521,15.521,0,0,0,.317,0" transform="translate(34.907 15.786) rotate(-31)" fill="#fff"/>
    </g>
    <path id="Path_14797" data-name="Path 14797" d="M6.253,12.5A6.25,6.25,0,1,0,0,6.251,6.256,6.256,0,0,0,6.253,12.5m0-11.9A5.651,5.651,0,1,1,.6,6.251,5.655,5.655,0,0,1,6.253.6" transform="translate(686.923 780.983) rotate(-31)" fill="#e16b7c"/>
    <path id="Path_14798" data-name="Path 14798" d="M7.688,15.373A7.687,7.687,0,1,0,0,7.686a7.7,7.7,0,0,0,7.688,7.687M7.688.6A7.087,7.087,0,1,1,.6,7.686,7.094,7.094,0,0,1,7.688.6" transform="translate(682.081 775.71) rotate(-31)" fill="#5e9fab"/>
    <path id="Path_14799" data-name="Path 14799" d="M10.559,21.115A10.557,10.557,0,1,0,0,10.557,10.568,10.568,0,0,0,10.559,21.115M10.559.6A9.958,9.958,0,1,1,.6,10.557,9.969,9.969,0,0,1,10.559.6" transform="translate(669.516 557.646) rotate(-31)" fill="#e16b7c"/>
    <path id="Path_14800" data-name="Path 14800" d="M10.559,21.115A10.557,10.557,0,1,0,0,10.557,10.568,10.568,0,0,0,10.559,21.115M10.559.6A9.958,9.958,0,1,1,.6,10.557,9.973,9.973,0,0,1,10.559.6" transform="translate(666.644 552.864) rotate(-31)" fill="#5e9fab"/>
    <g id="Group_12056" data-name="Group 12056" transform="matrix(0.259, 0.966, -0.966, 0.259, 755.337, 724.751)">
      <path id="Path_12591-2" data-name="Path 12591" d="M15.67,31.339A15.669,15.669,0,1,0,0,15.669a15.686,15.686,0,0,0,15.67,15.67M15.67.78A14.887,14.887,0,1,1,.785,15.669,14.9,14.9,0,0,1,15.67.78" transform="translate(3.754 22.388) rotate(-31)" fill="#e16b7c" opacity="0.266"/>
      <path id="Path_12592-2" data-name="Path 12592" d="M13.8,27.586A13.793,13.793,0,1,0,0,13.793,13.807,13.807,0,0,0,13.8,27.586m0-26.8A13.01,13.01,0,1,1,.782,13.793,13.025,13.025,0,0,1,13.8.784" transform="translate(6.327 23.031) rotate(-31)" fill="#e16b7c" opacity="0.266"/>
      <path id="Path_12593-2" data-name="Path 12593" d="M11.921,23.838A11.919,11.919,0,1,0,0,11.92,11.932,11.932,0,0,0,11.921,23.838m0-23.054A11.136,11.136,0,1,1,.785,11.92,11.15,11.15,0,0,1,11.921.784" transform="translate(8.899 23.671) rotate(-31)" fill="#e16b7c" opacity="0.266"/>
      <path id="Path_12594-2" data-name="Path 12594" d="M10.045,20.084A10.042,10.042,0,1,0,0,10.043,10.052,10.052,0,0,0,10.045,20.084m0-19.3A9.259,9.259,0,1,1,.783,10.043,9.269,9.269,0,0,1,10.045.784" transform="translate(11.473 24.314) rotate(-31)" fill="#e16b7c" opacity="0.266"/>
      <path id="Path_12595-2" data-name="Path 12595" d="M8.169,16.332A8.166,8.166,0,1,0,0,8.167a8.173,8.173,0,0,0,8.169,8.165m0-15.549A7.383,7.383,0,1,1,.785,8.167,7.388,7.388,0,0,1,8.169.783" transform="translate(14.047 24.956) rotate(-31)" fill="#e16b7c" opacity="0.341"/>
      <path id="Path_12596-2" data-name="Path 12596" d="M6.293,12.582A6.291,6.291,0,1,0,0,6.291a6.3,6.3,0,0,0,6.293,6.291m0-11.8A5.508,5.508,0,1,1,.784,6.291,5.514,5.514,0,0,1,6.293.783" transform="translate(16.622 25.597) rotate(-31)" fill="#e16b7c" opacity="0.341"/>
      <path id="Path_12597-2" data-name="Path 12597" d="M4.417,8.832A4.416,4.416,0,1,0,0,4.417,4.424,4.424,0,0,0,4.417,8.832m0-8.047A3.632,3.632,0,1,1,.785,4.417,3.635,3.635,0,0,1,4.417.785" transform="translate(19.195 26.238) rotate(-31)" fill="#e16b7c" opacity="0.341"/>
      <path id="Path_12598-2" data-name="Path 12598" d="M2.539,5.081A2.54,2.54,0,1,0,0,2.541a2.541,2.541,0,0,0,2.539,2.54m0-4.3A1.757,1.757,0,1,1,.78,2.541,1.758,1.758,0,0,1,2.539.783" transform="translate(21.771 26.878) rotate(-31)" fill="#e16b7c" opacity="0.341"/>
      <path id="Path_12599-2" data-name="Path 12599" d="M.665,1.328A.664.664,0,1,0,0,.665a.665.665,0,0,0,.665.664m0-.784a.12.12,0,0,1,.12.12.116.116,0,0,1-.12.117A.118.118,0,0,1,.543.665.122.122,0,0,1,.665.544" transform="translate(24.344 27.521) rotate(-31)" fill="#e16b7c" opacity="0.341"/>
      <path id="Path_12600-2" data-name="Path 12600" d="M15.671,31.34A15.67,15.67,0,1,0,0,15.67,15.686,15.686,0,0,0,15.671,31.34m0-30.554A14.885,14.885,0,1,1,.785,15.67,14.9,14.9,0,0,1,15.671.785" transform="translate(0 16.14) rotate(-31)" fill="#5e9fab" opacity="0.266"/>
      <path id="Path_12601-2" data-name="Path 12601" d="M13.8,27.586A13.793,13.793,0,1,0,0,13.792,13.807,13.807,0,0,0,13.8,27.586M13.8.781A13.011,13.011,0,1,1,.782,13.792,13.03,13.03,0,0,1,13.8.781" transform="translate(2.575 16.784) rotate(-31)" fill="#5e9fab" opacity="0.266"/>
      <path id="Path_12602-2" data-name="Path 12602" d="M11.921,23.837A11.918,11.918,0,1,0,0,11.918,11.932,11.932,0,0,0,11.921,23.837m0-23.054A11.135,11.135,0,1,1,.785,11.918,11.147,11.147,0,0,1,11.921.783" transform="translate(5.147 17.425) rotate(-31)" fill="#5e9fab" opacity="0.266"/>
      <path id="Path_12603-2" data-name="Path 12603" d="M10.045,20.085A10.043,10.043,0,1,0,0,10.042,10.055,10.055,0,0,0,10.045,20.085m0-19.3A9.259,9.259,0,1,1,.784,10.042,9.268,9.268,0,0,1,10.045.783" transform="translate(7.722 18.067) rotate(-31)" fill="#5e9fab" opacity="0.266"/>
      <path id="Path_12604-2" data-name="Path 12604" d="M8.169,16.331A8.165,8.165,0,1,0,0,8.164a8.174,8.174,0,0,0,8.169,8.166m0-15.548A7.382,7.382,0,1,1,.786,8.164,7.387,7.387,0,0,1,8.169.783" transform="translate(10.296 18.71) rotate(-31)" fill="#5e9fab" opacity="0.266"/>
      <path id="Path_12605-2" data-name="Path 12605" d="M6.293,12.582A6.291,6.291,0,1,0,0,6.29a6.3,6.3,0,0,0,6.293,6.292m0-11.8A5.508,5.508,0,1,1,.784,6.29,5.513,5.513,0,0,1,6.293.782" transform="translate(12.869 19.351) rotate(-31)" fill="#5e9fab" opacity="0.266"/>
      <path id="Path_12606-2" data-name="Path 12606" d="M4.418,8.832A4.416,4.416,0,1,0,0,4.415,4.424,4.424,0,0,0,4.418,8.832m0-8.048A3.631,3.631,0,1,1,.785,4.415,3.635,3.635,0,0,1,4.417.784" transform="translate(15.443 19.992) rotate(-31)" fill="#5e9fab" opacity="0.341"/>
      <path id="Path_12607-2" data-name="Path 12607" d="M2.539,5.082A2.541,2.541,0,1,0,0,2.54,2.541,2.541,0,0,0,2.539,5.082m0-4.3A1.757,1.757,0,1,1,.781,2.54,1.758,1.758,0,0,1,2.539.784" transform="translate(18.019 20.631) rotate(-31)" fill="#5e9fab" opacity="0.341"/>
      <path id="Path_12608-2" data-name="Path 12608" d="M.666,1.328A.664.664,0,1,0,0,.664a.665.665,0,0,0,.666.664m0-.781A.118.118,0,0,1,.788.664.123.123,0,0,1,.666.785.121.121,0,0,1,.544.664.117.117,0,0,1,.666.547" transform="translate(20.591 21.275) rotate(-31)" fill="#5e9fab" opacity="0.341"/>
      <path id="Path_12609-2" data-name="Path 12609" d="M2.493.421A3.613,3.613,0,0,1,.8,0,4.419,4.419,0,0,0,0,.433,4.413,4.413,0,0,0,.795.867a3.626,3.626,0,0,1,3.394,0,4.416,4.416,0,0,0,.8-.434A4.414,4.414,0,0,0,4.188,0,3.606,3.606,0,0,1,2.493.421" transform="translate(21.02 25.537) rotate(-31)" fill="#fff"/>
      <path id="Path_12610-2" data-name="Path 12610" d="M1,.633A5.55,5.55,0,0,1,.517,0,6.33,6.33,0,0,0,0,.633a6.343,6.343,0,0,0,.517.633A5.542,5.542,0,0,1,1,.633" transform="translate(18.658 26.723) rotate(-31)" fill="#fff"/>
      <path id="Path_12611-2" data-name="Path 12611" d="M0,.633a5.542,5.542,0,0,1,.484.634A6.332,6.332,0,0,0,1,.635,6.333,6.333,0,0,0,.484,0,5.552,5.552,0,0,1,0,.633" transform="translate(26.589 21.958) rotate(-31)" fill="#fff"/>
      <path id="Path_12612-2" data-name="Path 12612" d="M.889.834A7.359,7.359,0,0,1,.482,0,8.169,8.169,0,0,0,0,.835a8.178,8.178,0,0,0,.481.834A7.359,7.359,0,0,1,.889.834" transform="translate(16.684 27.673) rotate(-31)" fill="#fff"/>
      <path id="Path_12613-2" data-name="Path 12613" d="M0,.834a7.354,7.354,0,0,1,.407.834A8.168,8.168,0,0,0,.888.834,8.168,8.168,0,0,0,.407,0,7.357,7.357,0,0,1,0,.834" transform="translate(28.452 20.604) rotate(-31)" fill="#fff"/>
      <path id="Path_12614-2" data-name="Path 12614" d="M.474,2.07A9.186,9.186,0,0,1,.847,1.035,9.189,9.189,0,0,1,.474,0,10,10,0,0,0,0,1.035,10,10,0,0,0,.474,2.07" transform="translate(14.822 28.558) rotate(-31)" fill="#fff"/>
      <path id="Path_12615-2" data-name="Path 12615" d="M.373,0A9.17,9.17,0,0,1,0,1.034,9.186,9.186,0,0,1,.373,2.069,9.994,9.994,0,0,0,.847,1.036,10,10,0,0,0,.373,0" transform="translate(30.143 19.356) rotate(-31)" fill="#fff"/>
      <path id="Path_12616-2" data-name="Path 12616" d="M.477,2.478A11.034,11.034,0,0,1,.828,1.239,11.031,11.031,0,0,1,.477,0,11.833,11.833,0,0,0,0,1.239,11.828,11.828,0,0,0,.477,2.478" transform="translate(13.011 29.407) rotate(-31)" fill="#fff"/>
      <path id="Path_12617-2" data-name="Path 12617" d="M.351,0A11.036,11.036,0,0,1,0,1.239,11.038,11.038,0,0,1,.351,2.48,11.837,11.837,0,0,0,.828,1.241,11.826,11.826,0,0,0,.351,0" transform="translate(31.76 18.144) rotate(-31)" fill="#fff"/>
      <path id="Path_12618-2" data-name="Path 12618" d="M.481,2.876A12.9,12.9,0,0,1,.813,1.438,12.911,12.911,0,0,1,.481,0,13.672,13.672,0,0,0,0,1.438,13.68,13.68,0,0,0,.481,2.876" transform="translate(11.232 30.244) rotate(-31)" fill="#fff"/>
      <path id="Path_12619-2" data-name="Path 12619" d="M.333,0A12.9,12.9,0,0,1,0,1.438,12.9,12.9,0,0,1,.332,2.876,13.688,13.688,0,0,0,.814,1.438,13.67,13.67,0,0,0,.333,0" transform="translate(33.348 16.96) rotate(-31)" fill="#fff"/>
      <path id="Path_12620-2" data-name="Path 12620" d="M.491,3.29A14.789,14.789,0,0,1,.808,1.645,14.785,14.785,0,0,1,.491,0,15.537,15.537,0,0,0,0,1.645,15.531,15.531,0,0,0,.491,3.29" transform="translate(9.467 31.065) rotate(-31)" fill="#fff"/>
      <path id="Path_12621-2" data-name="Path 12621" d="M.317,0A14.784,14.784,0,0,1,0,1.642a14.8,14.8,0,0,1,.316,1.64A15.53,15.53,0,0,0,.806,1.64,15.521,15.521,0,0,0,.317,0" transform="translate(34.907 15.786) rotate(-31)" fill="#fff"/>
    </g>
  </g>
  <text id="Be_an_awesome_partner_for_clients_and_their_ambitious_missions" data-name="Be an awesome partner for clients and their ambitious missions" transform="matrix(1, 0, 0, 1, 67.192, 92.588)" fill="#fff" font-size="16" font-family="Helvetica"><tspan x="36.175" y="12">Be an </tspan><tspan x="21.062" y="31" font-family="Helvetica-Bold, Helvetica" font-weight="700">awesome </tspan><tspan x="17.961" y="50" font-family="Helvetica-Bold, Helvetica" font-weight="700">partner </tspan><tspan y="50">for </tspan><tspan x="1.05" y="69">clients and their </tspan><tspan x="22.843" y="88">ambitious </tspan><tspan x="25.965" y="107">missions</tspan></text>
</svg>
