<svg xmlns="http://www.w3.org/2000/svg" xmlns:xlink="http://www.w3.org/1999/xlink" width="200.758" height="314.957" viewBox="0 0 200.758 314.957">
  <defs>
    <clipPath id="clip-path">
      <path id="Path_12781" data-name="Path 12781" d="M852.144,313.129l0,0,0,0h0M953.952,0,816.532,44.65a152.615,152.615,0,0,1-49.291,151.62l84.9,116.859C948.356,237.215,985.527,112.465,953.952,0Z" transform="translate(-767.241)" fill="none"/>
    </clipPath>
  </defs>
  <path id="Path_14401" data-name="Path 14401" d="M501.176,551.524l-84.9-116.861a152.617,152.617,0,0,0,49.291-151.617l137.42-44.65c31.577,112.47-5.583,237.216-101.807,313.129" transform="translate(-413.225 -238.395)" fill="#c28730"/>
  <g id="Group_11864" data-name="Group 11864" transform="translate(-964.183 -496.191)">
    <g id="Group_7782" data-name="Group 7782" transform="translate(964.183 498.018)" opacity="0.15">
      <g id="Group_7782-2" data-name="Group 7782" transform="translate(0)" clip-path="url(#clip-path)">
        <path id="Path_12774" data-name="Path 12774" d="M836.107,58.291h2.385c-.092,1.817-.115,2.271-.139,2.724-.093,1.816-.116,2.269-.14,2.721-.1,2-.129,2.5-.156,3-.1,2-.131,2.5-.158,2.993q-.588,11.038-1.2,21.309-.659,11.016-1.351,21.049-.746,10.777-1.542,20.359-.859,10.319-1.792,19.248-.478,4.564-.984,8.8-.526,4.4-1.087,8.457-.586,4.224-1.218,8.086-.661,4.034-1.382,7.694-.7,3.549-1.474,6.785-.814,3.388-1.725,6.451-.961,3.224-2.057,6.113-1.164,3.06-2.514,5.78a50.3,50.3,0,0,1-3.543,6.055,45.038,45.038,0,0,1-4.617,5.675,53.533,53.533,0,0,1-6.336,5.6,91.724,91.724,0,0,1-9.339,6.137c-2.833,1.652-6.038,3.382-9.7,5.252-4.15,2.118-8.978,4.457-14.676,7.128-6.682,3.134-14.8,6.833-24.871,11.369-12.552,5.65-29,12.979-51.509,23.011l-22.6,10.072c-9.154,4.081-19.387,8.643-30.9,13.777-12.951,5.775-27.735,12.37-44.768,19.97-19.7,8.789-42.9,19.145-70.629,31.526H674.378c14.981-12.382,27.515-22.738,38.157-31.526,9.2-7.6,17.189-14.2,24.186-19.97,6.219-5.134,11.747-9.7,16.693-13.777,4.48-3.7,8.53-7.038,12.209-10.072,12.163-10.032,21.046-17.361,27.827-23.011,5.444-4.536,9.826-8.235,13.437-11.369,3.078-2.671,5.687-5.01,7.928-7.128,1.98-1.87,3.711-3.6,5.242-5.252a61.176,61.176,0,0,0,5.045-6.137,46.375,46.375,0,0,0,3.423-5.6,50.739,50.739,0,0,0,2.494-5.675c.693-1.866,1.327-3.874,1.914-6.055q.732-2.721,1.359-5.78.593-2.89,1.112-6.113.493-3.063.931-6.451.419-3.235.8-6.785.391-3.663.747-7.694.341-3.864.658-8.086.3-4.055.588-8.457.273-4.234.532-8.8.5-8.934.968-19.248.431-9.579.833-20.359.374-10.025.73-21.049.331-10.261.647-21.309.041-1.42.082-2.854t.08-2.859q.04-1.422.08-2.861.038-1.423.078-2.863h2.384c-2.831-3.047-2.942-3.165-4.526-4.935-3.008,3.065-3.125,3.185-4.905,4.935" transform="translate(-731.5 -7.908)" fill="#60517a"/>
        <path id="Path_12775" data-name="Path 12775" d="M789.524,64.686h2.449c-.175,2-.22,2.5-.264,3-.177,2-.222,2.5-.267,2.994-.075.828-.083.911-.09.993l0,.009h-.005c-10.613,115.934-20.534,137.928-49.146,153.345-18.569,10-18.569,10-479.254,131.358H411.244c34.25-12.381,62.908-22.737,87.236-31.526,21.039-7.6,39.3-14.2,55.294-19.971,14.218-5.134,26.857-9.7,38.165-13.776l27.911-10.073c27.808-10.032,48.118-17.36,63.621-23.011,12.446-4.536,22.466-8.235,30.72-11.368,7.038-2.671,13-5.011,18.125-7.128,4.526-1.87,8.486-3.6,11.985-5.252a118.91,118.91,0,0,0,11.536-6.137,63.96,63.96,0,0,0,7.826-5.6,48.49,48.49,0,0,0,5.7-5.675,49.11,49.11,0,0,0,4.378-6.055,58.54,58.54,0,0,0,3.1-5.779q1.358-2.89,2.542-6.113,1.128-3.063,2.129-6.451.958-3.235,1.821-6.785.894-3.662,1.709-7.694.781-3.862,1.5-8.086.7-4.054,1.342-8.457.625-4.234,1.216-8.8,1.158-8.932,2.214-19.248.985-9.579,1.9-20.358.859-10.026,1.669-21.049.756-10.261,1.48-21.309c.131-1.994.164-2.493.2-2.994.129-2,.162-2.5.193-3h2.451c-2.8-3.045-2.912-3.164-4.476-4.931-3.2,3.063-3.323,3.182-5.215,4.931" transform="translate(-692.501 -8.856)" fill="#5e9fab"/>
        <path id="Path_12776" data-name="Path 12776" d="M915.078,62.619h2.428c.146,2.589.182,3.235.218,3.879.147,2.585.185,3.23.222,3.873q.638,11.038,1.3,21.309.715,11.016,1.468,21.049.811,10.777,1.675,20.358.933,10.32,1.947,19.249.52,4.564,1.069,8.8.571,4.4,1.181,8.458.636,4.224,1.323,8.086.718,4.034,1.5,7.694.762,3.549,1.6,6.785.883,3.388,1.873,6.451,1.045,3.224,2.236,6.113a61.082,61.082,0,0,0,2.731,5.779,49.453,49.453,0,0,0,3.849,6.055,45.993,45.993,0,0,0,5.015,5.675,57.056,57.056,0,0,0,6.884,5.6,100.888,100.888,0,0,0,10.147,6.137c3.078,1.651,6.56,3.382,10.541,5.252,4.509,2.118,9.754,4.457,15.944,7.128,7.26,3.134,16.074,6.833,27.021,11.368,13.637,5.651,31.5,12.979,55.96,23.012l24.551,10.072,33.569,13.776c14.069,5.776,30.131,12.371,48.636,19.971,21.4,8.789,46.608,19.145,76.733,31.526H1405c-42.874-12.381-78.75-22.737-109.2-31.526-26.336-7.6-49.2-14.2-69.219-19.971L1178.8,290.8l-34.94-10.072c-34.809-10.033-60.234-17.361-79.642-23.012-15.579-4.535-28.124-8.234-38.456-11.368-8.809-2.671-16.274-5.01-22.691-7.128-5.666-1.87-10.622-3.6-15-5.252-5.564-2.1-10.316-4.11-14.44-6.137a82.3,82.3,0,0,1-9.8-5.6,56.369,56.369,0,0,1-7.137-5.675,51.188,51.188,0,0,1-5.48-6.055,55.733,55.733,0,0,1-3.887-5.779q-1.7-2.89-3.181-6.113-1.413-3.063-2.666-6.451-1.2-3.235-2.281-6.785-1.118-3.663-2.137-7.694-.979-3.864-1.882-8.086-.869-4.055-1.681-8.458-.783-4.233-1.521-8.8-1.448-8.934-2.771-19.249-1.233-9.579-2.383-20.358-1.073-10.025-2.089-21.049-.948-10.261-1.854-21.309c-.21-2.579-.263-3.225-.315-3.873-.208-2.583-.259-3.23-.31-3.879h2.428c-3.21-3.045-3.335-3.164-5.133-4.933-2.739,3.062-2.847,3.182-4.474,4.933" transform="translate(-789.152 -8.55)" fill="#5e9fab"/>
        <path id="Path_12777" data-name="Path 12777" d="M906.533,49.259h2.295q.04,2.075.079,4.122.041,2.075.081,4.121.041,2.074.082,4.118.042,2.072.083,4.112l0,0h0c.032,1.549.037,1.77.041,1.991s.009.442.015.663q.229,11.039.468,21.31.257,11.015.527,21.049.291,10.776.6,20.358.335,10.319.7,19.248.186,4.565.384,8.8.206,4.4.424,8.457.229,4.224.475,8.086.258,4.034.539,7.694.275,3.551.576,6.785.318,3.388.673,6.451.376,3.224.8,6.113.454,3.059.981,5.779c.424,2.181.883,4.188,1.382,6.055.543,2.026,1.14,3.9,1.8,5.675a52.019,52.019,0,0,0,2.473,5.6,61.333,61.333,0,0,0,3.645,6.138c1.106,1.651,2.356,3.382,3.786,5.251,1.62,2.118,3.5,4.457,5.727,7.129,2.608,3.133,5.775,6.832,9.707,11.368,4.9,5.651,11.316,12.979,20.1,23.011l8.819,10.072c3.572,4.081,7.566,8.643,12.059,13.777,5.054,5.775,10.824,12.37,17.472,19.97,7.687,8.79,16.743,19.146,27.565,31.526h148.285C947.054,232.2,947.054,232.2,937,220.665c-13.013-14.92-18.259-41.785-23.682-171.406h2.295c-2.928-3.046-3.043-3.164-4.686-4.934-2.693,3.066-2.8,3.185-4.39,4.934" transform="translate(-787.885 -6.569)" fill="#60517a"/>
        <path id="Path_12778" data-name="Path 12778" d="M881.967,68.6h2.491c-1.886,116.955-3.792,141.539-8.562,156.03-3.572,10.855-3.572,10.855-86.344,132.33H937.842c-4.313-12.381-7.921-22.737-10.984-31.526-2.649-7.6-4.948-14.2-6.962-19.971-1.79-5.134-3.382-9.7-4.806-13.776l-3.515-10.073c-3.5-10.032-6.058-17.36-8.01-23.011-1.566-4.536-2.829-8.235-3.868-11.368-.886-2.671-1.636-5.011-2.282-7.128-.57-1.87-1.068-3.6-1.509-5.252-.56-2.1-1.037-4.111-1.452-6.137-.369-1.807-.7-3.653-.985-5.6-.263-1.773-.5-3.649-.717-5.675-.2-1.867-.383-3.874-.551-6.055q-.211-2.721-.391-5.779-.171-2.89-.32-6.113-.142-3.063-.268-6.451-.12-3.235-.229-6.785-.113-3.662-.215-7.694-.1-3.862-.19-8.086-.087-4.055-.169-8.457-.079-4.234-.153-8.8-.146-8.932-.279-19.248-.124-9.579-.24-20.358-.107-10.026-.21-21.049-.1-10.261-.187-21.309c-.013-1.549-.015-1.769-.016-1.991s0-.443-.006-.664h2.492l0,0c-3.128-3.1-3.187-3.158-4.9-4.921-3.031,3.059-3.149,3.178-4.946,4.925" transform="translate(-770.548 -9.438)" fill="#153c4d"/>
        <path id="Path_12779" data-name="Path 12779" d="M924.574,75.043h2.562c11.134,114.346,21.78,136.175,52.613,151.848,18.848,9.581,18.848,9.581,503.5,130.828H1631.54c-62.228-12.382-114.3-22.738-158.5-31.526-38.225-7.6-71.4-14.2-100.467-19.97-25.832-5.134-48.8-9.7-69.341-13.777l-50.714-10.072c-50.523-10.032-87.425-17.361-115.594-23.011-22.612-4.536-40.82-8.235-55.816-11.369-12.785-2.671-23.62-5.01-32.934-7.128-8.223-1.87-15.417-3.6-21.774-5.252-8.075-2.1-14.973-4.11-20.958-6.137a140.384,140.384,0,0,1-14.221-5.6,84.337,84.337,0,0,1-10.36-5.675,64.714,64.714,0,0,1-7.952-6.055,59.956,59.956,0,0,1-5.641-5.78,65.728,65.728,0,0,1-4.617-6.113q-2.051-3.063-3.871-6.451-1.742-3.235-3.31-6.785-1.621-3.663-3.1-7.694-1.421-3.864-2.733-8.086-1.262-4.055-2.441-8.457-1.136-4.234-2.208-8.8-2.029-8.627-3.889-18.543-1.738-9.231-3.36-19.588-1.518-9.658-2.957-20.259-1.345-9.894-2.633-20.544h2.562c-2.283-2.481-4.255-4.624-5.738-6.273-1.317,1.883-3.064,4.4-4.4,6.273" transform="translate(-790.559 -10.192)" fill="#153c4d"/>
        <path id="Path_12780" data-name="Path 12780" d="M742.352,72.821h2.537q-1.393,10.908-2.845,21.057-1.56,10.877-3.2,20.787-1.767,10.637-3.648,20.1-2.032,10.186-4.235,19.015-1.143,4.564-2.351,8.8-1.257,4.4-2.6,8.457-1.4,4.225-2.909,8.086-1.579,4.034-3.3,7.694-1.675,3.551-3.525,6.785-1.942,3.388-4.12,6.451a66.372,66.372,0,0,1-4.916,6.113,62.066,62.066,0,0,1-6.006,5.779A68.634,68.634,0,0,1,692.765,218a91.654,91.654,0,0,1-11.03,5.675,155.618,155.618,0,0,1-15.14,5.6c-6.373,2.026-13.717,4.04-22.314,6.137-6.768,1.651-14.428,3.382-23.182,5.252-9.917,2.117-21.452,4.457-35.064,7.128-15.967,3.134-35.352,6.833-59.426,11.368-29.991,5.651-69.28,12.979-123.07,23.011l-53.994,10.073-73.826,13.776C244.776,311.8,209.452,318.4,168.754,326,121.692,334.787,66.254,345.143,0,357.524H148.292C201.8,345.143,246.567,334.787,284.573,326c32.867-7.6,61.395-14.2,86.383-19.971l59.62-13.776,43.6-10.073c43.44-10.032,75.169-17.36,99.389-23.011,19.442-4.535,35.1-8.234,47.992-11.368,10.993-2.671,20.308-5.011,28.317-7.128,7.07-1.87,13.256-3.6,18.721-5.252,6.943-2.1,12.874-4.111,18.021-6.137a111.514,111.514,0,0,0,12.227-5.6A70.1,70.1,0,0,0,707.754,218a56.518,56.518,0,0,0,11.688-11.835,65.9,65.9,0,0,0,3.969-6.113q1.763-3.063,3.328-6.451,1.5-3.235,2.846-6.785,1.4-3.662,2.667-7.694,1.221-3.862,2.349-8.086,1.085-4.054,2.1-8.457.976-4.234,1.9-8.8,1.786-8.833,3.42-19.015,1.524-9.464,2.946-20.1,1.328-9.9,2.585-20.787,1.174-10.14,2.3-21.057h2.537l0-.009c-1.322-1.606-3.1-3.736-4.4-5.358-1.687,1.611-3.934,3.762-5.627,5.367" transform="translate(-653.529 -9.997)" fill="#153c4d"/>
      </g>
    </g>
    <path id="Path_12784" data-name="Path 12784" d="M2.295,4.941H6.782V4.934H9.077C6.147,1.888,6.032,1.769,4.391,0,1.7,3.066,1.592,3.185,0,4.934H2.295v.008" transform="translate(1082.558 535.397)" fill="none" stroke="#fff" stroke-linecap="round" stroke-width="1"/>
    <path id="Path_12786" data-name="Path 12786" d="M2.295,5.9H6.782V5.9H9.077C6.147,2.256,6.032,2.114,4.391,0,1.7,3.663,1.592,3.806,0,5.9H2.295V5.9" transform="translate(1098.741 556.58)" fill="none" stroke="#fff" stroke-linecap="round" stroke-width="1"/>
    <path id="Path_12785" data-name="Path 12785" d="M2.295,4.941H6.782V4.934H9.077C6.147,1.888,6.032,1.769,4.391,0,1.7,3.066,1.592,3.185,0,4.934H2.295v.008" transform="translate(1061.263 549.025)" fill="none" stroke="#fff" stroke-linecap="round" stroke-width="1"/>
  </g>
  <text id="Achieve_enduring_commercial_success_and_sustained_growth" data-name="Achieve enduring commercial success and sustained
 growth" transform="translate(58.089 89.249)" fill="#fff" font-size="16" font-family="Helvetica"><tspan x="29.111" y="12">Achieve </tspan><tspan x="26.435" y="31">enduring </tspan><tspan x="13.103" y="50" font-family="Helvetica-Bold, Helvetica" font-weight="700">commercial </tspan><tspan x="10.42" y="69" font-family="Helvetica-Bold, Helvetica" font-weight="700">success</tspan><tspan y="69" xml:space="preserve"> and </tspan><tspan x="23.326" y="88">sustained</tspan><tspan x="31.338" y="107" xml:space="preserve"> growth</tspan></text>
</svg>
