<svg xmlns="http://www.w3.org/2000/svg" xmlns:xlink="http://www.w3.org/1999/xlink" width="266.343" height="239.222" viewBox="0 0 266.343 239.222">
  <defs>
    <clipPath id="clip-path">
      <path id="Path_14354" data-name="Path 14354" d="M593.808,211.421,456.429,256.057a152.619,152.619,0,0,0-128.964-93.731V17.835c116.723,4.724,223.88,78.614,266.343,193.586" transform="translate(-327.465 -17.835)" fill="#e16b7c"/>
    </clipPath>
  </defs>
  <path id="Path_12891" data-name="Path 12891" d="M593.808,211.421,456.429,256.057a152.619,152.619,0,0,0-128.964-93.731V17.835c116.723,4.724,223.88,78.614,266.343,193.586" transform="translate(-327.465 -16.835)" fill="#e16b7c"/>
  <g id="Mask_Group_42" data-name="Mask Group 42" opacity="0.14" clip-path="url(#clip-path)">
    <g id="Group_11842" data-name="Group 11842" transform="translate(-73.878)">
      <path id="Path_14306" data-name="Path 14306" d="M213.5,32.366,187.594,172.856l132.292-4.808L300.868,32.366Z" transform="translate(-131.514 -32.286)" fill="#c28730" fill-rule="evenodd"/>
      <path id="Path_14307" data-name="Path 14307" d="M205.911,127.936l37.805,40.228,52.029-35.2,22.539-15.292-2.662-19-98.49-31.585Z" transform="translate(-138.948 -46.379)" fill="#c28730"/>
      <path id="Path_14308" data-name="Path 14308" d="M93.212,32.366H175.2L143.655,215.746,93.212,200.153Z" transform="translate(-93.211 -32.286)" fill="#769c7b" fill-rule="evenodd"/>
      <path id="Path_14309" data-name="Path 14309" d="M260,82.807,208.687,65.554,183.849,208.247l115.5,15.2-19.265-46.985Z" transform="translate(-129.995 -45.755)" fill="#5e9fab" fill-rule="evenodd"/>
      <path id="Path_14310" data-name="Path 14310" d="M177.915,143.443l108.054-.074,7.8,47.725L218.861,166.8Z" transform="translate(-127.587 -77.334)" fill-rule="evenodd"/>
      <path id="Path_14311" data-name="Path 14311" d="M237.535,32.311c.048-.111,35.531-.1,35.576,0a19.4,19.4,0,1,1-35.576,0" transform="translate(-151.128 -32.231)" fill-rule="evenodd"/>
      <path id="Path_14312" data-name="Path 14312" d="M555.74,32.366l-18.763,94.4,58.305,92.768,43.26,10.483V32.366Z" transform="translate(-273.305 -32.286)" fill="#769c7b" fill-rule="evenodd"/>
      <path id="Path_14313" data-name="Path 14313" d="M555.74,32.366l-18.763,94.4,58.305,92.768,43.26,10.483V32.366Z" transform="translate(-273.305 -32.286)" fill="none"/>
      <path id="Path_14314" data-name="Path 14314" d="M378.084,32.366l19.109,140.491,57.438-10.344L498.274,32.366Z" transform="translate(-208.822 -32.286)" fill="#60517a" fill-rule="evenodd"/>
      <path id="Path_14315" data-name="Path 14315" d="M312.838,147.779l158.957-28.61-25.577,99.073-110.278,54.3Z" transform="translate(-182.343 -67.513)" fill="#60517a" fill-rule="evenodd"/>
      <path id="Path_14316" data-name="Path 14316" d="M378.084,32.366l19.109,140.49,57.438-10.343L498.274,32.366Z" transform="translate(-208.822 -32.286)" fill="none"/>
      <path id="Path_14317" data-name="Path 14317" d="M497.207,77.562,473.336,240.9l-80.588.694,30.236-58.589L467.625,63.6Z" transform="translate(-214.772 -44.961)" fill="#c28730" fill-rule="evenodd"/>
      <path id="Path_14318" data-name="Path 14318" d="M461.7,223.527c4.2.158,56.321-15.443,56.321-15.443l59.956-30.714-117.74-58.2S457.5,223.37,461.7,223.527" transform="translate(-241.806 -67.513)" fill="#c28730" fill-rule="evenodd"/>
      <path id="Path_14319" data-name="Path 14319" d="M422.982,183.007,392.747,241.6l80.588-.694,23.871-163.34L467.625,63.6Z" transform="translate(-214.772 -44.961)" fill="none"/>
      <path id="Path_14320" data-name="Path 14320" d="M540.552,32.347c.031-.043,30.354-.03,30.376,0a18.763,18.763,0,1,1-30.376,0" transform="translate(-273.305 -32.267)" fill-rule="evenodd"/>
      <path id="Path_14321" data-name="Path 14321" d="M463.448,32.341c0-.07,39.206-.021,39.206,0a19.6,19.6,0,0,1-39.206,0" transform="translate(-243.465 -32.261)" fill="#fff" fill-rule="evenodd"/>
      <path id="Path_14322" data-name="Path 14322" d="M687.854,48.5a16.153,16.153,0,0,1,5.346.9V79.978A16.191,16.191,0,1,1,687.854,48.5" transform="translate(-327.964 -38.835)" fill="#feffed" fill-rule="evenodd"/>
      <path id="Path_14323" data-name="Path 14323" d="M691.479,103.356l-24.061,9.63,24.061,107.229Z" transform="translate(-326.242 -61.096)" fill="#5e9fab" fill-rule="evenodd"/>
      <path id="Path_14324" data-name="Path 14324" d="M164.744,103.821,146.911,209.928l-53.7,79.292V65.491Z" transform="translate(-93.211 -45.729)" fill="#5e9fab" fill-rule="evenodd"/>
      <path id="Path_14325" data-name="Path 14325" d="M93.211,289.22l53.7-79.292,17.832-106.106L93.211,65.491Z" transform="translate(-93.211 -45.729)" fill="none"/>
      <path id="Path_14326" data-name="Path 14326" d="M236.485,156.54,191.137,141.8,161.192,320.188H311.837Z" transform="translate(-120.8 -76.698)" fill="#60517a" fill-rule="evenodd"/>
      <path id="Path_14327" data-name="Path 14327" d="M161.193,320.188H311.838L236.485,156.54,191.137,141.8Z" transform="translate(-120.8 -76.697)" fill="none"/>
      <path id="Path_14328" data-name="Path 14328" d="M202.616,92.68A15.017,15.017,0,1,1,187.594,107.7,15.027,15.027,0,0,1,202.616,92.68" transform="translate(-131.514 -56.763)" fill-rule="evenodd"/>
      <path id="Path_14329" data-name="Path 14329" d="M100.729,32.368c.014-.02,29.287.11,29.3.127a17.627,17.627,0,1,1-29.3-.127" transform="translate(-95.036 -32.286)" fill-rule="evenodd"/>
      <path id="Path_14330" data-name="Path 14330" d="M345.354,107.889,281,132.814l4.454,173.612H390.21l-26.8-69.319Z" transform="translate(-169.421 -62.935)" fill="#003d4f" fill-rule="evenodd"/>
      <path id="Path_14331" data-name="Path 14331" d="M281,132.814l4.454,173.612H390.21l-26.8-69.319L345.354,107.889Z" transform="translate(-169.42 -62.935)" fill="none"/>
      <path id="Path_14332" data-name="Path 14332" d="M324.044,48.5a18.864,18.864,0,1,1-18.87,18.864A18.876,18.876,0,0,1,324.044,48.5" transform="translate(-179.232 -38.835)" fill="#feffed" fill-rule="evenodd"/>
      <path id="Path_14333" data-name="Path 14333" d="M93.212,216.289l63.812-9.333L135.687,346.631H93.212Z" transform="translate(-93.211 -103.14)" fill="#c28730" fill-rule="evenodd"/>
      <path id="Path_14334" data-name="Path 14334" d="M93.211,216.289V346.632h42.475l21.337-139.674Z" transform="translate(-93.211 -103.141)" fill="none"/>
      <path id="Path_14335" data-name="Path 14335" d="M122.488,151.848a18.864,18.864,0,1,0,18.87,18.864,18.877,18.877,0,0,0-18.87-18.864" transform="translate(-97.435 -80.775)" fill="#fff" fill-rule="evenodd"/>
      <path id="Path_14336" data-name="Path 14336" d="M513.365,127.52l33.607,10.49,10.548,74.284,42.242,102.1H441.422L493.789,261.9Z" transform="translate(-234.526 -70.902)" fill="#e16b7c" fill-rule="evenodd"/>
      <path id="Path_14337" data-name="Path 14337" d="M493.788,261.9l-52.366,52.494H599.763l-42.242-102.1L546.972,138.01l-33.607-10.49Z" transform="translate(-234.526 -70.902)" fill="none"/>
      <path id="Path_14338" data-name="Path 14338" d="M609.606,84.07A17.632,17.632,0,1,0,627.243,101.7,17.643,17.643,0,0,0,609.606,84.07" transform="translate(-295.622 -53.269)" fill-rule="evenodd"/>
      <path id="Path_14339" data-name="Path 14339" d="M401.232,141.135l41.844-10.281,62.311,184.893H383.163Z" transform="translate(-210.883 -72.255)" fill="#003d4f" fill-rule="evenodd"/>
      <path id="Path_14340" data-name="Path 14340" d="M401.232,141.135,383.163,315.746H505.386L443.075,130.853Z" transform="translate(-210.883 -72.255)" fill="none"/>
      <path id="Path_14341" data-name="Path 14341" d="M447.946,71.767a18.864,18.864,0,1,0,18.87,18.864,18.876,18.876,0,0,0-18.87-18.864" transform="translate(-229.516 -48.276)" fill-rule="evenodd"/>
      <path id="Path_14342" data-name="Path 14342" d="M491.176,234.87l-49.563,26.51-32.078,96.579h63.2Z" transform="translate(-221.586 -114.468)" fill="#60517a" fill-rule="evenodd"/>
      <path id="Path_14343" data-name="Path 14343" d="M511.463,179.913a18.816,18.816,0,1,1-18.823,18.816,18.828,18.828,0,0,1,18.823-18.816" transform="translate(-255.312 -92.165)" fill="#fff" fill-rule="evenodd"/>
      <path id="Path_14344" data-name="Path 14344" d="M565.418,329.7l-38.847-9.994-11.383,72.682h68.748Z" transform="translate(-264.462 -148.898)" fill="#c28730" fill-rule="evenodd"/>
      <path id="Path_14345" data-name="Path 14345" d="M533.4,260.189a18.385,18.385,0,1,1-18.215,18.384A18.308,18.308,0,0,1,533.4,260.189" transform="translate(-264.462 -124.744)" fill-rule="evenodd"/>
      <path id="Path_14346" data-name="Path 14346" d="M117.236,309.5l7.918-22.353,20.753,27.079-11.152,64.947H93.211Z" transform="translate(-93.211 -135.685)" fill="#e16b7c" fill-rule="evenodd"/>
      <path id="Path_14347" data-name="Path 14347" d="M182.612,278.282A15.682,15.682,0,1,0,198.3,293.964a15.693,15.693,0,0,0-15.687-15.682" transform="translate(-123.126 -132.086)" fill-rule="evenodd"/>
      <path id="Path_14348" data-name="Path 14348" d="M317.191,284.312l50.433,13.693,11.148,80.02H303.9Z" transform="translate(-178.716 -134.534)" fill="#60517a" fill-rule="evenodd"/>
      <path id="Path_14349" data-name="Path 14349" d="M390.266,245.745A17.359,17.359,0,1,0,407.63,263.1a17.37,17.37,0,0,0-17.365-17.359" transform="translate(-206.718 -118.882)" fill-rule="evenodd"/>
      <path id="Path_14350" data-name="Path 14350" d="M636.454,249.944l42.459-25.394V353.771H650.534Z" transform="translate(-313.676 -110.28)" fill="#769c7b" fill-rule="evenodd"/>
      <path id="Path_14351" data-name="Path 14351" d="M617.487,217.123a15.3,15.3,0,1,0,15.31,15.3,15.314,15.314,0,0,0-15.31-15.3" transform="translate(-299.765 -107.266)" fill="#fff" fill-rule="evenodd"/>
      <path id="Path_14352" data-name="Path 14352" d="M218.922,360.128l-47.267-2.065-8.614,49.892h55.732Z" transform="translate(-121.551 -164.464)" fill="#f37a28" fill-rule="evenodd"/>
      <path id="Path_14353" data-name="Path 14353" d="M240.762,305.709a16.278,16.278,0,1,1-16.127,16.277,16.21,16.21,0,0,1,16.127-16.277" transform="translate(-146.547 -143.217)" fill-rule="evenodd"/>
    </g>
  </g>
  <g id="Mask_Group_37" data-name="Mask Group 37" clip-path="url(#clip-path)">
    <g id="Group_7662" data-name="Group 7662" transform="translate(-73.878 0.08)">
      <path id="Path_12419" data-name="Path 12419" d="M555.74,32.366l-18.763,94.4,58.305,92.768,43.26,10.483V32.366Z" transform="translate(-273.305 -32.366)" fill="none"/>
      <path id="Path_12422" data-name="Path 12422" d="M378.084,32.366l19.109,140.49,57.438-10.343L498.274,32.366Z" transform="translate(-208.822 -32.366)" fill="none"/>
      <path id="Path_12425" data-name="Path 12425" d="M422.982,183.007,392.747,241.6l80.588-.694,23.871-163.34L467.625,63.6Z" transform="translate(-214.772 -45.041)" fill="none"/>
      <path id="Path_12431" data-name="Path 12431" d="M93.211,289.22l53.7-79.292,17.832-106.106L93.211,65.491Z" transform="translate(-93.211 -45.809)" fill="none"/>
      <path id="Path_12433" data-name="Path 12433" d="M161.193,320.188H311.838L236.485,156.54,191.137,141.8Z" transform="translate(-120.8 -76.777)" fill="none"/>
      <path id="Path_12434" data-name="Path 12434" d="M202.616,92.68A15.017,15.017,0,1,1,187.594,107.7,15.027,15.027,0,0,1,202.616,92.68" transform="translate(-131.514 -56.843)" fill="none" stroke="#fff" stroke-width="1" fill-rule="evenodd"/>
      <path id="Path_12437" data-name="Path 12437" d="M281,132.814l4.454,173.612H390.21l-26.8-69.319L345.354,107.889Z" transform="translate(-169.42 -63.016)" fill="none"/>
      <path id="Path_12440" data-name="Path 12440" d="M93.211,216.289V346.632h42.475l21.337-139.674Z" transform="translate(-93.211 -103.221)" fill="none"/>
      <path id="Path_12443" data-name="Path 12443" d="M493.788,261.9l-52.366,52.494H599.763l-42.242-102.1L546.972,138.01l-33.607-10.49Z" transform="translate(-234.526 -70.983)" fill="none"/>
      <path id="Path_12446" data-name="Path 12446" d="M401.232,141.135,383.163,315.746H505.386L443.075,130.853Z" transform="translate(-210.883 -72.335)" fill="none"/>
      <path id="Path_12450" data-name="Path 12450" d="M565.418,329.7l-38.847-9.994-11.383,72.682h68.748Z" transform="translate(-264.462 -148.978)" fill="none" stroke="#fff" stroke-width="1" fill-rule="evenodd"/>
      <path id="Path_12451" data-name="Path 12451" d="M533.4,260.189a18.385,18.385,0,1,1-18.215,18.384A18.308,18.308,0,0,1,533.4,260.189" transform="translate(-264.462 -124.824)" fill="none" stroke="#fff" stroke-width="1" fill-rule="evenodd"/>
    </g>
  </g>
  <text id="Amplify_positive_social_change_and_advocate_for_an_equitable_tech_future" data-name="Amplify positive
social change and advocate for an equitable tech future" transform="translate(37.125 78.021)" fill="#fff" font-size="16" font-family="Helvetica"><tspan x="14.211" y="12">Amplify </tspan><tspan y="12" font-family="Helvetica-Bold, Helvetica" font-weight="700">positive</tspan><tspan font-family="Helvetica-Bold, Helvetica" font-weight="700"><tspan x="4.41" y="31">social change</tspan><tspan y="31" xml:space="preserve" font-family="Helvetica" font-weight="400"> and </tspan><tspan x="17.742" y="50" font-family="Helvetica" font-weight="400">advocate for an </tspan><tspan x="0.395" y="69" font-family="Helvetica" font-weight="400">equitable tech future</tspan></tspan></text>
</svg>