<svg xmlns="http://www.w3.org/2000/svg" xmlns:xlink="http://www.w3.org/1999/xlink" width="266.416" height="238.136" viewBox="0 0 266.416 238.136">
  <defs>
    <clipPath id="clip-path">
      <path id="Path_12519" data-name="Path 12519" d="M297.844,17.912V162.361a152.62,152.62,0,0,0-129,93.687L31.428,211.4C71.991,101.847,175.378,22.769,297.844,17.912" transform="translate(-31.428 -17.912)" fill="#5e9fab"/>
    </clipPath>
  </defs>
  <path id="Path_14399" data-name="Path 14399" d="M297.844,17.912V162.361a152.62,152.62,0,0,0-129,93.687L31.428,211.4C71.991,101.847,175.378,22.769,297.844,17.912" transform="translate(-31.428 -17.912)" fill="#5e9fab"/>
  <g id="Mask_Group_38" data-name="Mask Group 38" transform="translate(0 0)" opacity="0.1" clip-path="url(#clip-path)">
    <g id="Group_7663" data-name="Group 7663" transform="translate(15.416)">
      <path id="Path_12461" data-name="Path 12461" d="M339.272,764.326l-120.237.223,22.118-25.721,120.237-.223Z" transform="translate(-194.447 -655.689)" fill="#fff"/>
      <path id="Path_12462" data-name="Path 12462" d="M442.054,1235.033l144.736-.268,28.025-32.59-144.736.268Z" transform="translate(-392.429 -1067.219)" fill="#fff"/>
      <path id="Path_12463" data-name="Path 12463" d="M224.037,1356.166l123.89-.23,7.251-8.432-123.89.23Z" transform="translate(-198.887 -1196.233)" fill="#60517a"/>
      <path id="Path_12464" data-name="Path 12464" d="M334.366,1045.917l168.551-.313,21.982-25.562-168.551.313Z" transform="translate(-298.856 -901.815)" fill="#133d4f"/>
      <path id="Path_12465" data-name="Path 12465" d="M195.377,1771.613l111.226-.206,7.034-8.18-111.226.206Z" transform="translate(-173.444 -1565.286)" fill="#153c4d"/>
      <path id="Path_12466" data-name="Path 12466" d="M1462.845,1107.483l-67.8.126,17.891-20.8,67.8-.126Zm-66.059-.765,65.844-.122,16.361-19.026-65.844.122Z" transform="translate(-1238.434 -964.688)" fill="#e16b7c"/>
      <path id="Path_12467" data-name="Path 12467" d="M2040.023,1107.246l-11.022.021,17.891-20.8,11.022-.02Zm-9.277-.871,9.062-.017,16.361-19.026-9.062.017Z" transform="translate(-1801.225 -964.477)" fill="#e16b7c"/>
      <path id="Path_12468" data-name="Path 12468" d="M2173.918,1107.056l-7.089.013,17.891-20.8,7.089-.013Zm-5.344-.878,5.129-.01,16.361-19.026-5.129.01Z" transform="translate(-1923.581 -964.309)" fill="#e16b7c"/>
      <path id="Path_12469" data-name="Path 12469" d="M588.7,772.973l125.356-.233,4.023-4.678-125.356.232Z" transform="translate(-522.616 -681.839)" fill="#153c4d"/>
      <path id="Path_12470" data-name="Path 12470" d="M1720.237,772.53l12.465-.023,4.023-4.678-12.465.023Z" transform="translate(-1527.123 -681.632)" fill="#153c4d"/>
      <path id="Path_12471" data-name="Path 12471" d="M1857.868,772.33l8.728-.016,4.023-4.678-8.729.016Z" transform="translate(-1649.304 -681.46)" fill="#153c4d"/>
      <path id="Path_12472" data-name="Path 12472" d="M671.825,257.937l133.769-.248,19.275-22.415-133.769.248Z" transform="translate(-596.406 -208.862)" fill="#153c4d"/>
      <path id="Path_12473" data-name="Path 12473" d="M559.17,1483.718l-138.427.257,21.859-25.419,138.427-.257Z" transform="translate(-373.511 -1294.59)" fill="#e16b7c"/>
      <path id="Path_12474" data-name="Path 12474" d="M557.3,816.5l131.555-.244,12.541-14.584-131.555.244Z" transform="translate(-494.734 -711.68)" fill="#e16b7c"/>
      <path id="Path_12475" data-name="Path 12475" d="M382.017,1877.186l131.554-.244,12.541-14.584-131.555.244Z" transform="translate(-339.132 -1653.29)" fill="#60517a"/>
      <path id="Path_12476" data-name="Path 12476" d="M759.328,502.791l-153.574.285,28.163-32.749,153.574-.285Z" transform="translate(-537.752 -417.274)" fill="#133d4f"/>
      <path id="Path_12477" data-name="Path 12477" d="M1024.262,1403.552l120.738-.224,21.8-25.347-120.738.224Z" transform="translate(-909.278 -1223.288)" fill="#153c4d"/>
      <path id="Path_12478" data-name="Path 12478" d="M1959.011,1403.077l13.452-.025,21.8-25.347-13.451.025Z" transform="translate(-1739.093 -1223.044)" fill="#153c4d"/>
      <path id="Path_12479" data-name="Path 12479" d="M235.632,1519.954l-62.265.116,22.387-26.034,62.265-.115Zm-60.521-.776,60.306-.112,20.858-24.255-60.306.112Z" transform="translate(-153.905 -1326.213)" fill="#153c4d"/>
      <path id="Path_12480" data-name="Path 12480" d="M406.945,917.464l24.556-.046,21.8-25.347-24.556.046Z" transform="translate(-361.261 -791.927)" fill="#153c4d"/>
      <path id="Path_12481" data-name="Path 12481" d="M256.454,917.927,268.5,917.9l21.8-25.347-12.051.022Z" transform="translate(-227.664 -792.359)" fill="#153c4d"/>
      <path id="Path_12482" data-name="Path 12482" d="M664.878,915.714l111.226-.206,21.8-25.347-111.226.206Z" transform="translate(-590.238 -790.232)" fill="#153c4d"/>
      <path id="Path_12483" data-name="Path 12483" d="M1385.888,415.179l-21.982,25.562,102.907-.191,21.982-25.562Z" transform="translate(-1210.794 -368.401)" fill="#60517a"/>
      <path id="Path_12484" data-name="Path 12484" d="M1210.471,442.361l11.858-.022,21.982-25.562-11.858.022Z" transform="translate(-1074.583 -369.989)" fill="#60517a"/>
      <path id="Path_12485" data-name="Path 12485" d="M1099.941,442.624l7.931-.015,21.982-25.562-7.93.015Z" transform="translate(-976.462 -370.229)" fill="#60517a"/>
      <path id="Path_12486" data-name="Path 12486" d="M389.172,1640.855l124.173-.23,17.541-20.4-124.173.23Z" transform="translate(-345.484 -1438.34)" fill="#fff"/>
      <path id="Path_12487" data-name="Path 12487" d="M607.844,54.5l113.207-.21,15.992-18.6-113.207.21Z" transform="translate(-539.607 -31.689)" fill="#e16b7c"/>
      <path id="Path_12488" data-name="Path 12488" d="M297.029,1642.736l7.63-.014,17.541-20.4-7.63.014Z" transform="translate(-263.684 -1440.201)" fill="#fff"/>
      <path id="Path_12489" data-name="Path 12489" d="M590.692,341.3l-154.977.288,4.229-4.89,154.977-.288Z" transform="translate(-386.801 -298.646)" fill="#60517a"/>
      <path id="Path_12490" data-name="Path 12490" d="M1842.475,341.1l-10.434.019,4.229-4.89,10.434-.019Z" transform="translate(-1626.376 -298.467)" fill="#60517a"/>
      <path id="Path_12491" data-name="Path 12491" d="M382.917,2029.313l-154.977.288,4.229-4.89,154.977-.287Z" transform="translate(-202.352 -1797.161)" fill="#fff"/>
      <path id="Path_12492" data-name="Path 12492" d="M1634.7,2029.111l-10.434.019,4.229-4.89,10.434-.019Z" transform="translate(-1441.927 -1796.982)" fill="#fff"/>
      <path id="Path_12493" data-name="Path 12493" d="M338.161,343.891l-10.434.019,4.229-4.89L342.389,339Z" transform="translate(-290.936 -300.944)" fill="#60517a"/>
      <path id="Path_12494" data-name="Path 12494" d="M1959.52,340.969l-4.61.009,4.229-4.89,4.61-.009Z" transform="translate(-1735.452 -298.35)" fill="#60517a"/>
      <path id="Path_12495" data-name="Path 12495" d="M1163.153,557.161l-117.682.218,2.493-2.9,117.682-.218Z" transform="translate(-928.106 -492.041)" fill="#153c4d"/>
      <path id="Path_12496" data-name="Path 12496" d="M2115.216,557l-8.047.015,2.492-2.9,8.047-.015Z" transform="translate(-1870.618 -491.901)" fill="#153c4d"/>
      <path id="Path_12497" data-name="Path 12497" d="M2204.86,556.888l-4.578.009,2.493-2.9,4.577-.008Z" transform="translate(-1953.279 -491.798)" fill="#153c4d"/>
      <path id="Path_12498" data-name="Path 12498" d="M1141.254,1708.989l-117.682.218,2.493-2.9,117.682-.218Z" transform="translate(-908.666 -1514.564)" fill="#60517a"/>
      <path id="Path_12499" data-name="Path 12499" d="M245.607,1286.539l-117.682.218,2.493-2.9,117.682-.218Z" transform="translate(-113.564 -1139.539)" fill="#e16b7c"/>
      <path id="Path_12500" data-name="Path 12500" d="M1404.334,988.911l-94.725.176,6.647-7.729,94.725-.176Z" transform="translate(-1162.592 -871.034)" fill="#fff"/>
      <path id="Path_12501" data-name="Path 12501" d="M626.57,0,527,.181l-6.986,8.124,99.566-.185Z" transform="translate(-461.64 0.004)" fill="#153c4d"/>
      <path id="Path_12502" data-name="Path 12502" d="M1338.586,1322.866l-95.495.177,22.042-25.632,95.495-.177Zm-93.75-.714,93.535-.173,20.513-23.854-93.535.173Z" transform="translate(-1103.541 -1151.606)" fill="#e16b7c"/>
      <path id="Path_12503" data-name="Path 12503" d="M382.9,1013.672l-95.494.177,15.754-18.32,95.495-.177Zm-93.75-.714,93.535-.173,14.224-16.541-93.535.173Z" transform="translate(-255.145 -883.613)" fill="#e16b7c"/>
      <path id="Path_12504" data-name="Path 12504" d="M1375.3,860.106l-95.495.177,15.754-18.32,95.495-.177Zm-93.75-.714,93.535-.174,14.224-16.541-93.535.174Z" transform="translate(-1136.137 -747.287)" fill="#153c4d"/>
      <path id="Path_12505" data-name="Path 12505" d="M2160.146,859.9l-10.337.019,15.754-18.32,10.338-.019Zm-8.593-.872,8.378-.015,14.225-16.541-8.378.015Z" transform="translate(-1908.471 -747.103)" fill="#153c4d"/>
      <path id="Path_12506" data-name="Path 12506" d="M209.92,1392.891l-95.494.177,15.754-18.32,95.495-.177Zm-93.75-.714,93.535-.173,14.225-16.541-93.535.174Z" transform="translate(-101.581 -1220.261)" fill="#fff"/>
      <path id="Path_12507" data-name="Path 12507" d="M15.969,1377.1l8.253-.015L10,1393.625l-8.253.016Zm-.215-.887L0,1394.532l10.212-.019,15.754-18.32Z" transform="translate(0 -1221.701)" fill="#fff"/>
      <path id="Path_12508" data-name="Path 12508" d="M1389.6,123.011l-95.494.177,15.754-18.32,95.495-.177Zm-93.75-.714,93.535-.173,14.224-16.541-93.535.174Z" transform="translate(-1148.83 -92.938)" fill="#fff"/>
      <path id="Path_12509" data-name="Path 12509" d="M1189.893,124.632l-10.212.019,15.754-18.32,10.213-.019Zm-8.468-.872,8.253-.015L1203.9,107.2l-8.253.015Z" transform="translate(-1047.25 -94.377)" fill="#fff"/>
      <path id="Path_12510" data-name="Path 12510" d="M330.4,652.864l-67.8.126,17.891-20.8,67.8-.126ZM264.34,652.1l65.844-.122,16.361-19.026-65.844.122Z" transform="translate(-233.117 -561.104)" fill="#60517a"/>
      <path id="Path_12511" data-name="Path 12511" d="M522.325,374.494l-95.494.177,14.8-17.209,95.494-.177Zm-93.75-.714,93.535-.173,13.269-15.43-93.535.174Z" transform="translate(-378.915 -317.176)" fill="#e16b7c"/>
      <path id="Path_12512" data-name="Path 12512" d="M262.74,376.161l-14.662.027,14.8-17.209,14.662-.027Zm-12.918-.864,12.7-.024,13.269-15.43-12.7.024Z" transform="translate(-220.229 -318.656)" fill="#e16b7c"/>
      <path id="Path_12513" data-name="Path 12513" d="M1108.823,1967.141l93.535-.173-13.269,15.43-93.535.174Zm-.215-.887-14.8,17.209,95.495-.177,14.8-17.209Z" transform="translate(-971.018 -1745.364)" fill="#e16b7c"/>
      <path id="Path_12514" data-name="Path 12514" d="M930.07,1968.659l12.7-.024-13.269,15.43-12.7.023Zm-.215-.887-14.8,17.209,14.662-.027,14.8-17.209Z" transform="translate(-812.333 -1746.844)" fill="#e16b7c"/>
      <path id="Path_12515" data-name="Path 12515" d="M888.894,802.566l123.891-.23,7.251-8.432-123.89.23Z" transform="translate(-789.107 -704.781)" fill="#60517a"/>
      <path id="Path_12516" data-name="Path 12516" d="M2024.772,802.092l12.588-.023,7.251-8.432-12.588.023Z" transform="translate(-1797.471 -704.543)" fill="#60517a"/>
      <path id="Path_12517" data-name="Path 12517" d="M1174.408,693.9l-95.495.177,15.754-18.32,95.494-.177Zm-93.75-.714,93.535-.173,14.224-16.541-93.535.174Z" transform="translate(-957.795 -599.738)" fill="#fff"/>
      <path id="Path_12518" data-name="Path 12518" d="M1956.39,693.736l-7.782.015,15.754-18.32,7.782-.014Zm-6.038-.877,5.823-.011,14.224-16.541-5.822.011Z" transform="translate(-1729.857 -599.593)" fill="#fff"/>
    </g>
  </g>
  <g id="Group_7664" data-name="Group 7664" transform="translate(15.417 75.823)">
    <path id="Path_12520" data-name="Path 12520" d="M209.92,1392.891l-95.494.177,15.754-18.32,95.495-.177Zm-93.75-.714,93.535-.173,14.225-16.541-93.535.174Z" transform="translate(-101.581 -1296.084)" fill="#fff"/>
    <path id="Path_12521" data-name="Path 12521" d="M15.969,1377.1l8.253-.015L10,1393.625l-8.253.016Zm-.215-.887L0,1394.532l10.212-.019,15.754-18.32Z" transform="translate(0 -1297.524)" fill="#fff"/>
    <path id="Path_12522" data-name="Path 12522" d="M1174.408,693.9l-95.495.177,15.754-18.32,95.494-.177Zm-93.75-.714,93.535-.173,14.224-16.541-93.535.174Z" transform="translate(-957.795 -675.561)" fill="#fff"/>
    <path id="Path_12523" data-name="Path 12523" d="M1956.39,693.736l-7.782.015,15.754-18.32,7.782-.014Zm-6.038-.877,5.823-.011,14.224-16.541-5.822.011Z" transform="translate(-1729.857 -675.416)" fill="#fff"/>
  </g>
  <text id="Revolutionize_the_tech_industry" data-name="Revolutionize the tech industry" transform="translate(72.603 102.97)" fill="#fff" font-size="16" font-family="Helvetica-Bold, Helvetica" font-weight="700"><tspan x="11.424" y="12">Revolutionize</tspan><tspan y="12" xml:space="preserve" font-family="Helvetica" font-weight="400"> the </tspan><tspan x="31.417" y="31" font-family="Helvetica" font-weight="400">tech industry</tspan></text>
</svg>
