<svg id="Group_12765" data-name="Group 12765" xmlns="http://www.w3.org/2000/svg" xmlns:xlink="http://www.w3.org/1999/xlink" width="676.893" height="680.176" viewBox="0 0 676.893 680.176">
  <defs>
    <clipPath id="clip-path">
      <rect id="Rectangle_2753" data-name="Rectangle 2753" width="676.893" height="680.177" fill="#fff" stroke="#3b6976" stroke-width="1"/>
    </clipPath>
  </defs>
  <rect id="Rectangle_2743" data-name="Rectangle 2743" width="2.725" height="12.89" transform="matrix(0.059, -0.998, 0.998, 0.059, 3.979, 319.142)" fill="#fff" stroke="#3b6976" stroke-width="1"/>
  <path id="Path_12211" data-name="Path 12211" d="M24.337,753.354l-.2,2.347-8.572,4.894-.008.094,8.09.7-.235,2.717L10.556,763l.206-2.385,8.563-4.85.01-.113-8.084-.7.233-2.705Z" transform="translate(-6.302 -449.091)" fill="#fff" stroke="#3b6976" stroke-width="1"/>
  <g id="Group_7643" data-name="Group 7643" transform="translate(0 0)">
    <g id="Group_7642" data-name="Group 7642" clip-path="url(#clip-path)">
      <path id="Path_12212" data-name="Path 12212" d="M19.885,721.877a2.609,2.609,0,0,0-2.611,2.466c-.252,1.979,1.1,3.471,3.76,3.81,2.735.348,4.345-.786,4.592-2.727a2.632,2.632,0,0,0-1.8-3.047l.361-2.734a5.327,5.327,0,0,1,3.826,6.128c-.436,3.421-3.156,5.651-7.327,5.12s-6.24-3.416-5.81-6.793c.377-2.96,2.36-4.979,5.359-4.958Z" transform="translate(-8.846 -429.329)" fill="#fff" stroke="#3b6976" stroke-width="1"/>
      <path id="Path_12213" data-name="Path 12213" d="M18.04,702.551l.441-2.691,10.509,1.722.893-5.456,2.219.363-1.335,8.147Z" transform="translate(-10.77 -415.588)" fill="#fff" stroke="#3b6976" stroke-width="1"/>
      <path id="Path_12214" data-name="Path 12214" d="M24.381,660.553l8.211,1.645c2.766.554,4.191,3.023,3.562,6.165s-2.9,4.872-5.662,4.318l-8.211-1.645.536-2.673,7.982,1.6a2.62,2.62,0,0,0,1.029-5.136l-7.983-1.6Z" transform="translate(-13.302 -394.351)" fill="#fff" stroke="#3b6976" stroke-width="1"/>
      <path id="Path_12215" data-name="Path 12215" d="M33.183,637.369c-.311,1.3.111,2.157.92,2.35.9.234,1.518-.582,2.03-1.612l.539-1.062c1.012-2.063,2.5-3.371,4.586-2.877,2.294.556,3.327,2.706,2.595,5.768-.729,3.044-2.6,4.649-5.324,4.067l.614-2.565c1.276.215,2.15-.625,2.48-2,.322-1.347-.094-2.366-1.011-2.592-.847-.2-1.42.469-2.078,1.756l-.67,1.283c-1.015,2-2.387,3.048-4.234,2.6-2.281-.533-3.317-2.911-2.659-5.66.668-2.792,2.651-4.26,4.895-3.761l-.609,2.541c-1.009-.138-1.771.5-2.074,1.77" transform="translate(-18.373 -377.879)" fill="#fff" stroke="#3b6976" stroke-width="1"/>
      <rect id="Rectangle_2744" data-name="Rectangle 2744" width="2.726" height="12.892" transform="matrix(0.257, -0.967, 0.967, 0.257, 14.479, 252.152)" fill="#fff" stroke="#3b6976" stroke-width="1"/>
      <path id="Path_12216" data-name="Path 12216" d="M49.895,594.074l.033-.115-8.56-5.7.832-2.906,11.175,7.826-.968,3.378-13.625.729.834-2.912Z" transform="translate(-23.153 -349.456)" fill="#fff" stroke="#3b6976" stroke-width="1"/>
      <rect id="Rectangle_2745" data-name="Rectangle 2745" width="2.727" height="12.898" transform="translate(19.718 234.129) rotate(-72.002)" fill="#fff" stroke="#3b6976" stroke-width="1"/>
      <path id="Path_12217" data-name="Path 12217" d="M52.512,554.984,56.039,545l2.12.748-1.315,3.722,10.04,3.546-.9,2.541-10.04-3.546-1.314,3.722Z" transform="translate(-31.349 -325.364)" fill="#fff" stroke="#3b6976" stroke-width="1"/>
      <path id="Path_12218" data-name="Path 12218" d="M63.542,522.277l6.25-.686.046-.117-4.08-4.784,1.127-2.84L72.9,521.3l4.239,1.682-1,2.518-4.24-1.682-9.488,1.3Z" transform="translate(-37.262 -306.77)" fill="#fff" stroke="#3b6976" stroke-width="1"/>
      <path id="Path_12219" data-name="Path 12219" d="M226.726,274.164a2.61,2.61,0,0,0-3.552.537c-1.336,1.483-1.076,3.479.916,5.275,2.048,1.846,4.018,1.832,5.328.378a2.632,2.632,0,0,0,.258-3.53l1.855-2.04A5.326,5.326,0,0,1,231.18,282c-2.31,2.563-5.816,2.844-8.94.029s-3.179-6.365-.9-8.9c2-2.216,4.778-2.744,7.23-1.018Z" transform="translate(-131.189 -161.841)" fill="#fff" stroke="#3b6976" stroke-width="1"/>
      <path id="Path_12220" data-name="Path 12220" d="M253.965,257.768c-2.407,2.455-5.959,2.615-8.958-.325s-2.91-6.494-.5-8.949,5.945-2.629,8.958.324,2.9,6.508.5,8.95m-7.739-7.586c-1.388,1.417-1.235,3.374.716,5.288s3.912,2.027,5.3.611,1.235-3.374-.717-5.287-3.916-2.023-5.3-.611" transform="translate(-144.904 -147.239)" fill="#fff" stroke="#3b6976" stroke-width="1"/>
      <path id="Path_12221" data-name="Path 12221" d="M270.083,218.506l5.733,6.107c1.931,2.057,1.659,4.9-.678,7.09s-5.187,2.287-7.119.229l-5.733-6.107,1.988-1.866,5.574,5.937a2.621,2.621,0,0,0,3.82-3.586l-5.573-5.937Z" transform="translate(-156.585 -130.448)" fill="#fff" stroke="#3b6976" stroke-width="1"/>
      <path id="Path_12222" data-name="Path 12222" d="M286.455,207.219l3.835-3.339c2.207-1.922,4.566-1.791,6.249.141a3.715,3.715,0,0,1,.692,4.263l5.355,1.98-2.269,1.976-4.842-1.842-1.5,1.306,3,3.446-2.055,1.79Zm7.476,1.618c1.177-1.025,1.33-2.009.49-2.973s-1.876-.995-3.063.038l-1.386,1.207,2.563,2.943Z" transform="translate(-171.014 -120.895)" fill="#fff" stroke="#3b6976" stroke-width="1"/>
      <path id="Path_12223" data-name="Path 12223" d="M320.844,198.4l-4.638-12.834,2.734-2.208L330.5,190.6l-2.274,1.836-2.592-1.688-3.622,2.924,1.1,2.89Zm2.921-8.875-4.3-2.8-.078.063,1.831,4.795Z" transform="translate(-188.776 -109.463)" fill="#fff" stroke="#3b6976" stroke-width="1"/>
      <path id="Path_12224" data-name="Path 12224" d="M343.38,165.527c-1.581,1.178-1.751,3.2-.148,5.349s3.56,2.619,5.2,1.4a2.615,2.615,0,0,0,.8-3.853l-2.223,1.656-1.227-1.647,4.33-3.224.971,1.3c2.028,2.723,1.394,5.763-1.218,7.709-2.916,2.171-6.4,1.607-8.836-1.667-2.5-3.355-1.858-6.895.875-8.93,2.339-1.742,5.215-1.645,7.021.19l-2.223,1.656a2.6,2.6,0,0,0-3.322.062" transform="translate(-202.66 -96.935)" fill="#fff" stroke="#3b6976" stroke-width="1"/>
      <path id="Path_12225" data-name="Path 12225" d="M361.986,146.663l7.192-4.879,1.262,1.86-4.936,3.348,1.726,2.543,4.565-3.1,1.263,1.861-4.566,3.1,1.729,2.548,4.956-3.362,1.263,1.86-7.213,4.894Z" transform="translate(-216.106 -84.645)" fill="#fff" stroke="#3b6976" stroke-width="1"/>
      <path id="Path_12226" data-name="Path 12226" d="M399.71,139.866c-2.9,1.847-6.4,1.2-8.652-2.346-2.266-3.56-1.363-6.986,1.537-8.832,2.885-1.836,6.387-1.213,8.652,2.346s1.347,7-1.538,8.832m-5.819-9.143c-1.673,1.065-1.968,3.007-.5,5.312s3.351,2.861,5.025,1.8,1.968-3.007.5-5.313-3.357-2.858-5.025-1.8" transform="translate(-232.702 -76.227)" fill="#fff" stroke="#3b6976" stroke-width="1"/>
      <path id="Path_12227" data-name="Path 12227" d="M424.033,106.119l4.2,7.243c1.415,2.439.509,5.142-2.263,6.751s-5.568,1.054-6.984-1.386l-4.2-7.243,2.358-1.368,4.086,7.042a2.62,2.62,0,0,0,4.531-2.629l-4.085-7.042Z" transform="translate(-247.627 -63.353)" fill="#fff" stroke="#3b6976" stroke-width="1"/>
      <path id="Path_12228" data-name="Path 12228" d="M450.472,97.915c-1.179.627-1.543,1.511-1.153,2.245.418.827,1.441.753,2.552.455l1.153-.3c2.216-.607,4.179-.36,5.193,1.533,1.1,2.088.173,4.285-2.607,5.762-2.763,1.469-5.2,1.132-6.572-1.3l2.33-1.238c.683,1.1,1.891,1.2,3.143.534,1.223-.65,1.712-1.637,1.274-2.474-.413-.764-1.292-.754-2.692-.4l-1.4.347c-2.169.561-3.865.228-4.751-1.454-1.11-2.063-.014-4.414,2.483-5.74,2.535-1.347,4.948-.832,6.059,1.18L453.172,98.3c-.564-.848-1.548-1-2.7-.384" transform="translate(-266.564 -56.801)" fill="#fff" stroke="#3b6976" stroke-width="1"/>
      <rect id="Rectangle_2746" data-name="Rectangle 2746" width="2.725" height="12.89" transform="translate(314.694 1.009) rotate(-4.138)" fill="#fff" stroke="#3b6976" stroke-width="1"/>
      <path id="Path_12229" data-name="Path 12229" d="M805.216,13.164l-2.354.106L796.89,5.411l-.094,0,.366,8.112-2.725.123L793.856.762l2.391-.108,5.928,7.854.113,0L801.924.4l2.712-.122Z" transform="translate(-473.934 -0.165)" fill="#fff" stroke="#3b6976" stroke-width="1"/>
      <path id="Path_12230" data-name="Path 12230" d="M825.9.066,836.49,0l.014,2.248-3.947.025.067,10.647-2.695.017-.067-10.647-3.948.025Z" transform="translate(-493.064 0.001)" fill="#fff" stroke="#3b6976" stroke-width="1"/>
      <path id="Path_12231" data-name="Path 12231" d="M856.829.1l8.682.245-.063,2.246-5.958-.168L859.4,5.5l5.511.156L864.851,7.9l-5.511-.156-.087,3.077,5.983.169-.063,2.246-8.707-.245Z" transform="translate(-511.312 -0.061)" fill="#fff" stroke="#3b6976" stroke-width="1"/>
      <path id="Path_12232" data-name="Path 12232" d="M889.937,3.826c-1.967-.129-3.4,1.3-3.581,3.974s1.011,4.3,3.053,4.435a2.613,2.613,0,0,0,3.105-2.414l-2.764-.182.135-2.048,5.384.354-.106,1.621c-.222,3.387-2.676,5.289-5.924,5.075-3.626-.239-5.91-2.926-5.642-7,.274-4.172,3.055-6.45,6.455-6.227a5.246,5.246,0,0,1,5.219,4.7l-2.765-.181a2.6,2.6,0,0,0-2.569-2.107" transform="translate(-527.496 -0.836)" fill="#fff" stroke="#3b6976" stroke-width="1"/>
      <path id="Path_12233" data-name="Path 12233" d="M917.572,3.347l5.06.528c2.912.3,4.425,2.12,4.16,4.668a3.718,3.718,0,0,1-2.647,3.415l2.2,5.268-2.993-.312-1.956-4.8-1.979-.206-.474,4.546-2.711-.283Zm3.917,6.574c1.553.162,2.377-.4,2.51-1.669s-.552-2.052-2.118-2.215l-1.828-.191-.4,3.882Z" transform="translate(-546.994 -1.998)" fill="#fff" stroke="#3b6976" stroke-width="1"/>
      <rect id="Rectangle_2747" data-name="Rectangle 2747" width="12.892" height="2.726" transform="translate(380.727 15.434) rotate(-82.652)" fill="#fff" stroke="#3b6976" stroke-width="1"/>
      <path id="Path_12234" data-name="Path 12234" d="M959.843,8.05,970.32,9.61l-.331,2.224-3.906-.582-1.569,10.533-2.666-.4,1.569-10.534-3.905-.582Z" transform="translate(-572.831 -4.806)" fill="#fff" stroke="#3b6976" stroke-width="1"/>
      <path id="Path_12235" data-name="Path 12235" d="M992.8,13.142l1.834,6.013.124.024,3.942-4.9,3,.58-6.2,7.3-.865,4.477-2.659-.513.865-4.477L989.8,12.562Z" transform="translate(-590.91 -7.499)" fill="#fff" stroke="#3b6976" stroke-width="1"/>
      <path id="Path_12236" data-name="Path 12236" d="M1304.437,144.233l4.168,2.919c2.4,1.68,2.749,4.132,1.279,6.232s-3.907,2.569-6.336.867l-1.878-1.315-2.4,3.425-2.234-1.565Zm0,7.976a2.158,2.158,0,1,0,2.457-3.53l-1.506-1.055-2.467,3.523Z" transform="translate(-774.334 -86.107)" fill="#fff" stroke="#3b6976" stroke-width="1"/>
      <path id="Path_12237" data-name="Path 12237" d="M1339.033,167.61l-5.057,6.679c-1.7,2.25-4.548,2.459-7.1.524s-3.127-4.73-1.424-6.98l5.057-6.68,2.174,1.647-4.916,6.494a2.621,2.621,0,0,0,4.178,3.163l4.916-6.493Z" transform="translate(-790.713 -96.209)" fill="#fff" stroke="#3b6976" stroke-width="1"/>
      <path id="Path_12238" data-name="Path 12238" d="M1353.581,181.231l3.937,3.22c2.266,1.854,2.533,4.2.911,6.186a3.716,3.716,0,0,1-4.087,1.4l-1.053,5.613-2.329-1.905,1-5.084-1.54-1.259-2.893,3.538-2.111-1.726Zm-.339,7.644c1.209.989,2.2.974,3.014-.015s.666-2.017-.553-3.014l-1.423-1.163-2.471,3.021Z" transform="translate(-803.217 -108.195)" fill="#fff" stroke="#3b6976" stroke-width="1"/>
      <path id="Path_12239" data-name="Path 12239" d="M1380.13,207.14c-1-.881-1.959-.909-2.508-.285-.625.683-.2,1.614.476,2.548l.687.973c1.351,1.859,1.814,3.783.4,5.4-1.564,1.769-3.948,1.677-6.312-.4s-2.9-4.467-1.108-6.608l1.982,1.742c-.786,1.028-.453,2.193.612,3.128,1.04.915,2.136,1.022,2.765.317.569-.657.249-1.475-.582-2.657l-.822-1.192c-1.292-1.831-1.58-3.534-.319-4.959,1.537-1.768,4.124-1.573,6.247.293,2.156,1.9,2.528,4.335,1.039,6.086l-1.963-1.725c.594-.828.383-1.8-.6-2.661" transform="translate(-818.315 -121.743)" fill="#fff" stroke="#3b6976" stroke-width="1"/>
      <path id="Path_12240" data-name="Path 12240" d="M1408.181,227.182l-5.761,6.082c-1.94,2.048-4.79,1.942-7.118-.262s-2.586-5.044-.646-7.093l5.761-6.081,1.98,1.876-5.6,5.912a2.621,2.621,0,0,0,3.8,3.6l5.6-5.912Z" transform="translate(-831.838 -131.237)" fill="#fff" stroke="#3b6976" stroke-width="1"/>
      <rect id="Rectangle_2748" data-name="Rectangle 2748" width="12.901" height="2.728" transform="translate(568.98 106.856) rotate(-44.97)" fill="#fff" stroke="#3b6976" stroke-width="1"/>
      <path id="Path_12241" data-name="Path 12241" d="M1433.038,250.8l7.3,7.682-1.63,1.549-2.72-2.864-7.724,7.335-1.857-1.955,7.724-7.335-2.72-2.864Z" transform="translate(-851.566 -149.727)" fill="#fff" stroke="#3b6976" stroke-width="1"/>
      <path id="Path_12242" data-name="Path 12242" d="M1454.077,297.644c-2.239-2.611-2.091-6.164,1.1-8.9s6.723-2.339,8.962.272,2.106,6.151-1.1,8.9-6.736,2.324-8.962-.272m8.229-7.057c-1.292-1.506-3.256-1.522-5.331.257s-2.359,3.723-1.067,5.229,3.256,1.523,5.331-.256,2.355-3.728,1.067-5.23" transform="translate(-867.183 -171.258)" fill="#fff" stroke="#3b6976" stroke-width="1"/>
      <path id="Path_12243" data-name="Path 12243" d="M1479.425,308.456l5.319,6.677-1.758,1.4-3.621-4.545-2.4,1.915,3.268,4.1-1.758,1.4-3.268-4.1-4.166,3.319-1.7-2.132Z" transform="translate(-877.198 -184.148)" fill="#fff" stroke="#3b6976" stroke-width="1"/>
      <path id="Path_12244" data-name="Path 12244" d="M1501.688,337.666l5.1,7.032-1.819,1.319-3.5-4.826-2.487,1.8,3.238,4.463-1.819,1.32-3.238-4.464-2.492,1.807,3.515,4.846-1.819,1.319-5.116-7.052Z" transform="translate(-890.28 -201.587)" fill="#fff" stroke="#3b6976" stroke-width="1"/>
      <path id="Path_12245" data-name="Path 12245" d="M1516.3,366.287l.057.084,5.106-.285,1.719,2.556-7.548.333-3.1,6.939-1.751-2.6,2.176-4.652-.056-.084-5.129.263-1.743-2.592,7.6-.25,3.14-6.886,1.726,2.566Z" transform="translate(-899.103 -214.389)" fill="#fff" stroke="#3b6976" stroke-width="1"/>
      <path id="Path_12246" data-name="Path 12246" d="M1537.908,398.548a2.611,2.611,0,0,0,.479-3.562c-1.05-1.7-3.041-2.008-5.324-.6-2.348,1.45-2.886,3.346-1.856,5.013a2.634,2.634,0,0,0,3.319,1.236l1.44,2.353a5.331,5.331,0,0,1-6.835-2.358c-1.816-2.937-1.1-6.385,2.477-8.6s7-1.271,8.8,1.627c1.57,2.54,1.3,5.359-1.048,7.231Z" transform="translate(-912.32 -233.315)" fill="#fff" stroke="#3b6976" stroke-width="1"/>
      <path id="Path_12247" data-name="Path 12247" d="M1551.719,414.929l4.293,7.554-1.955,1.111-2.946-5.184-2.671,1.518,2.725,4.8-1.955,1.111-2.724-4.8-2.677,1.521,2.958,5.206-1.954,1.11-4.3-7.576Z" transform="translate(-919.686 -247.713)" fill="#fff" stroke="#3b6976" stroke-width="1"/>
      <path id="Path_12248" data-name="Path 12248" d="M1565.024,439.128l1.269,2.411-9.418,4.957,2.574,4.89-1.989,1.047-3.843-7.3Z" transform="translate(-927.512 -262.16)" fill="#fff" stroke="#3b6976" stroke-width="1"/>
      <path id="Path_12249" data-name="Path 12249" d="M1576.653,461.943l1.194,2.451-9.572,4.661,2.421,4.97-2.021.985-3.615-7.421Z" transform="translate(-934.344 -275.78)" fill="#fff" stroke="#3b6976" stroke-width="1"/>
      <path id="Path_12250" data-name="Path 12250" d="M1587.595,485.1l3.558,7.931-2.052.921-2.442-5.443-2.8,1.259,2.258,5.034-2.052.92-2.258-5.034-2.81,1.261,2.452,5.466-2.051.92-3.569-7.953Z" transform="translate(-940.771 -289.604)" fill="#fff" stroke="#3b6976" stroke-width="1"/>
      <path id="Path_12251" data-name="Path 12251" d="M1590.734,525.41l-.883-2.183,5.419-8.242-.036-.087-7.522,3.042-1.022-2.527,11.952-4.834.9,2.218-5.43,8.2.042.1,7.517-3.04,1.017,2.515Z" transform="translate(-947.257 -304.816)" fill="#fff" stroke="#3b6976" stroke-width="1"/>
      <path id="Path_12252" data-name="Path 12252" d="M1611.455,553.3a2.61,2.61,0,0,0,1.21-3.382c-.672-1.879-2.554-2.6-5.079-1.693-2.6.929-3.518,2.669-2.859,4.513a2.632,2.632,0,0,0,2.986,1.9l.917,2.6a5.327,5.327,0,0,1-6.188-3.73c-1.162-3.249.254-6.469,4.213-7.886s7.112.218,8.259,3.425c1.005,2.81.151,5.508-2.531,6.849Z" transform="translate(-956.427 -325.428)" fill="#fff" stroke="#3b6976" stroke-width="1"/>
      <path id="Path_12253" data-name="Path 12253" d="M1621.818,573.6l2.62,8.285-2.143.678-1.8-5.685-2.929.926,1.663,5.259-2.143.678-1.663-5.259-2.936.929,1.806,5.709-2.143.678-2.628-8.309Z" transform="translate(-960.888 -342.439)" fill="#fff" stroke="#3b6976" stroke-width="1"/>
      <path id="Path_12254" data-name="Path 12254" d="M1657.579,900.833c.175-1.962-1.217-3.432-3.887-3.67s-4.321.909-4.5,2.947a2.612,2.612,0,0,0,2.34,3.16l.246-2.759,2.044.182-.479,5.372-1.617-.144c-3.379-.3-5.222-2.8-4.933-6.038.323-3.617,3.061-5.838,7.123-5.475,4.162.371,6.375,3.2,6.071,6.595-.259,2.9-2.245,4.981-4.815,5.106l.246-2.759a2.6,2.6,0,0,0,2.164-2.517" transform="translate(-983.119 -533.94)" fill="#fff" stroke="#3b6976" stroke-width="1"/>
      <path id="Path_12255" data-name="Path 12255" d="M1656.714,928.285l-.34,2.705-10.565-1.328-.689,5.485-2.231-.281,1.03-8.19Z" transform="translate(-980.808 -553.227)" fill="#fff" stroke="#3b6976" stroke-width="1"/>
      <path id="Path_12256" data-name="Path 12256" d="M1639.679,956.658c.547-3.394,3.353-5.576,7.5-4.908,4.165.671,6.126,3.62,5.579,7.015-.543,3.375-3.335,5.579-7.5,4.908s-6.123-3.639-5.579-7.015m10.7,1.723c.315-1.958-.94-3.468-3.638-3.9s-4.364.6-4.68,2.563.941,3.467,3.638,3.9,4.365-.61,4.68-2.562" transform="translate(-978.839 -568.124)" fill="#fff" stroke="#3b6976" stroke-width="1"/>
      <path id="Path_12257" data-name="Path 12257" d="M1647.75,986.154l-1.021,5.059c-.562,2.789-2.191,3.925-4.086,3.543a2.753,2.753,0,0,1-2.254-2.831l-.124-.025a2.984,2.984,0,0,1-3.626,2.158c-2.011-.406-3.187-2.216-2.615-5.054l1.089-5.4Zm-11.43,2.741c-.3,1.493.191,2.266,1.141,2.458a1.873,1.873,0,0,0,2.2-1.719l.452-2.24-3.357-.677Zm5.2.844a1.716,1.716,0,0,0,1.219,2.23c.913.184,1.66-.365,1.9-1.55l.41-2.03-3.128-.631Z" transform="translate(-975.43 -587.213)" fill="#fff" stroke="#3b6976" stroke-width="1"/>
      <path id="Path_12258" data-name="Path 12258" d="M1627.269,1010.117l11.486,7.358-.826,3.415-13.579,1.288.687-2.839,3.083-.239,1.094-4.523-2.634-1.621Zm3.082,8.817,5.115-.394.023-.1-4.369-2.689Z" transform="translate(-969.74 -603.041)" fill="#fff" stroke="#3b6976" stroke-width="1"/>
      <path id="Path_12259" data-name="Path 12259" d="M1632.485,1046.954l-.734,2.626-10.253-2.867-1.488,5.324-2.165-.605,2.222-7.949Z" transform="translate(-965.857 -622.961)" fill="#fff" stroke="#3b6976" stroke-width="1"/>
      <path id="Path_12260" data-name="Path 12260" d="M1624.73,1081.07l-2.761,8.081-2.127-.727,1.879-5.5-2.908-.993-1.7,4.964-2.127-.727,1.7-4.965-5.042-1.722.882-2.581Z" transform="translate(-962.154 -642.91)" fill="#fff" stroke="#3b6976" stroke-width="1"/>
      <rect id="Rectangle_2749" data-name="Rectangle 2749" width="2.728" height="12.9" transform="translate(646.155 446.358) rotate(-70.639)" fill="#fff" stroke="#3b6976" stroke-width="1"/>
      <path id="Path_12261" data-name="Path 12261" d="M1608.31,1117.281l-1.81,4.758c-1.041,2.738-3.186,3.734-5.582,2.823a3.719,3.719,0,0,1-2.622-3.437l-5.661.779,1.07-2.814,5.144-.659.707-1.861-4.274-1.625.97-2.549Zm-7.363,2.1c-.555,1.46-.226,2.4.969,2.855s2.125-.007,2.685-1.479l.654-1.719-3.649-1.388Z" transform="translate(-950.807 -664.281)" fill="#fff" stroke="#3b6976" stroke-width="1"/>
      <path id="Path_12262" data-name="Path 12262" d="M1595.546,1149.24c.518-1.23.241-2.146-.525-2.468-.845-.377-1.593.327-2.266,1.259l-.7.96c-1.334,1.87-3.012,2.919-4.993,2.091-2.173-.923-2.841-3.212-1.619-6.113,1.214-2.883,3.318-4.163,5.915-3.144l-1.024,2.431c-1.224-.42-2.223.266-2.773,1.571-.537,1.276-.293,2.35.575,2.722.8.331,1.477-.231,2.335-1.394l.87-1.157c1.327-1.8,2.851-2.617,4.6-1.873,2.163.9,2.8,3.412,1.7,6.017-1.114,2.646-3.31,3.771-5.442,2.913l1.014-2.408c.973.3,1.829-.206,2.335-1.407" transform="translate(-946.148 -681.464)" fill="#fff" stroke="#3b6976" stroke-width="1"/>
      <path id="Path_12263" data-name="Path 12263" d="M1588.265,1175.283l-4.453,9.6-2.038-.945,1.66-3.58-9.656-4.477,1.133-2.444,9.656,4.476,1.66-3.581Z" transform="translate(-939.548 -700.547)" fill="#fff" stroke="#3b6976" stroke-width="1"/>
      <path id="Path_12264" data-name="Path 12264" d="M627.15,1633a2.609,2.609,0,0,0-2.106-2.91c-1.93-.508-3.585.639-4.267,3.233-.7,2.667.214,4.41,2.107,4.908a2.633,2.633,0,0,0,3.255-1.389l2.663.713a5.327,5.327,0,0,1-6.575,3c-3.336-.877-5.193-3.865-4.124-7.931s4.2-5.744,7.492-4.878c2.886.758,4.63,2.988,4.22,5.958Z" transform="translate(-368.829 -971.631)" fill="#fff" stroke="#3b6976" stroke-width="1"/>
      <path id="Path_12265" data-name="Path 12265" d="M661.293,1635.123l-1.818,8.172c-.612,2.753-3.11,4.125-6.238,3.43s-4.808-3-4.2-5.75l1.818-8.173,2.66.592-1.767,7.946a2.62,2.62,0,0,0,5.113,1.137l1.767-7.945Z" transform="translate(-387.404 -974.785)" fill="#fff" stroke="#3b6976" stroke-width="1"/>
      <path id="Path_12266" data-name="Path 12266" d="M680.312,1639.371l2.679.5-1.967,10.464,5.433,1.021-.415,2.209-8.112-1.525Z" transform="translate(-404.725 -978.707)" fill="#fff" stroke="#3b6976" stroke-width="1"/>
      <path id="Path_12267" data-name="Path 12267" d="M701.681,1642.883l10.457,1.68-.357,2.219-3.9-.626L706.2,1656.67l-2.661-.427,1.689-10.513-3.9-.626Z" transform="translate(-418.692 -980.804)" fill="#fff" stroke="#3b6976" stroke-width="1"/>
      <rect id="Rectangle_2750" data-name="Rectangle 2750" width="12.901" height="2.727" transform="matrix(0.134, -0.991, 0.991, 0.134, 293.07, 676.69)" fill="#fff" stroke="#3b6976" stroke-width="1"/>
      <path id="Path_12268" data-name="Path 12268" d="M746.038,1659.232l.119.012,4.167-9.406,3.006.328-5.818,12.344-3.495-.381-3.03-13.307,3.012.328Z" transform="translate(-442.371 -984.349)" fill="#fff" stroke="#3b6976" stroke-width="1"/>
      <path id="Path_12269" data-name="Path 12269" d="M765.763,1665.221l5.419-12.522,3.5.266,3.454,13.2-2.914-.222-.731-3.005-4.641-.353-1.178,2.859Zm8.209-4.459-1.212-4.987-.1-.008-1.953,4.746Z" transform="translate(-457.162 -986.664)" fill="#fff" stroke="#3b6976" stroke-width="1"/>
      <path id="Path_12270" data-name="Path 12270" d="M796.2,1653.989l10.584.468-.1,2.246-3.945-.174-.47,10.639-2.693-.119.471-10.639-3.945-.175Z" transform="translate(-475.274 -987.434)" fill="#fff" stroke="#3b6976" stroke-width="1"/>
      <rect id="Rectangle_2751" data-name="Rectangle 2751" width="12.895" height="2.726" transform="translate(332.613 679.911) rotate(-88.899)" fill="#fff" stroke="#3b6976" stroke-width="1"/>
      <path id="Path_12271" data-name="Path 12271" d="M842.9,1668.159c-3.439.024-6.057-2.383-6.086-6.584-.029-4.22,2.556-6.644,5.994-6.667,3.42-.024,6.057,2.364,6.086,6.584s-2.574,6.644-5.995,6.668m-.075-10.839c-1.984.013-3.265,1.5-3.246,4.236s1.32,4.2,3.3,4.191,3.265-1.5,3.246-4.237-1.326-4.2-3.3-4.19" transform="translate(-499.58 -987.983)" fill="#fff" stroke="#3b6976" stroke-width="1"/>
      <path id="Path_12272" data-name="Path 12272" d="M881.495,1666.755l-2.352.109-5.98-7.848-.094,0,.376,8.107-2.723.126-.6-12.882,2.39-.111,5.936,7.844.114-.005-.376-8.1,2.711-.125Z" transform="translate(-519.465 -987.366)" fill="#fff" stroke="#3b6976" stroke-width="1"/>
      <path id="Path_12273" data-name="Path 12273" d="M32.18,1083.682l13.643.243,1.087,3.341-10.889,8.219-.9-2.778,2.5-1.821-1.44-4.426H33.084Zm7.249,5.893,4.15-3.019-.031-.1H38.416Z" transform="translate(-19.212 -646.96)" fill="#fff" stroke="#3b6976" stroke-width="1"/>
      <path id="Path_12274" data-name="Path 12274" d="M60.186,1115.934l-7.9,2.785c-2.66.938-5.147-.454-6.213-3.476s0-5.667,2.657-6.605l7.9-2.785.906,2.571-7.677,2.708a2.62,2.62,0,0,0,1.743,4.94l7.677-2.708Z" transform="translate(-27.262 -660.195)" fill="#fff" stroke="#3b6976" stroke-width="1"/>
      <path id="Path_12275" data-name="Path 12275" d="M67.085,1133.631l3.872,9.858-2.092.822-1.444-3.675-9.911,3.893-.985-2.509,9.911-3.893-1.444-3.674Z" transform="translate(-33.746 -676.78)" fill="#fff" stroke="#3b6976" stroke-width="1"/>
      <path id="Path_12276" data-name="Path 12276" d="M68.1,1172.478c-1.373-3.154-.187-6.508,3.666-8.184,3.87-1.684,7.115-.259,8.488,2.895,1.365,3.137.2,6.5-3.666,8.185s-7.123.242-8.488-2.9m9.941-4.326c-.791-1.821-2.665-2.413-5.172-1.322s-3.349,2.866-2.557,4.686,2.665,2.413,5.172,1.321,3.346-2.872,2.557-4.685" transform="translate(-40.326 -694.658)" fill="#fff" stroke="#3b6976" stroke-width="1"/>
      <path id="Path_12277" data-name="Path 12277" d="M81.955,1204.93l-1.022-2.12,4.875-8.575-.041-.086-7.31,3.522-1.183-2.455,11.614-5.6,1.039,2.155-4.888,8.532.049.1,7.3-3.519,1.178,2.444Z" transform="translate(-46.133 -710.205)" fill="#fff" stroke="#3b6976" stroke-width="1"/>
      <path id="Path_12278" data-name="Path 12278" d="M96.522,1231.332c-1.614-3.034-.694-6.467,3.012-8.438,3.724-1.98,7.067-.813,8.68,2.221,1.6,3.018.711,6.458-3.012,8.438s-7.075.8-8.68-2.22m9.564-5.085c-.931-1.751-2.842-2.2-5.254-.913s-3.112,3.117-2.181,4.867,2.843,2.2,5.255.913,3.109-3.122,2.181-4.867" transform="translate(-57.168 -729.485)" fill="#fff" stroke="#3b6976" stroke-width="1"/>
      <path id="Path_12279" data-name="Path 12279" d="M120.121,1249.067l-5.661,7.46.077.131,9.268-1.34,1.708,2.9-11.11,6.548-1.343-2.279,7.231-4.261-.054-.093-8.872,1.356-.914-1.552,5.51-7.122-.054-.092L108.646,1255l-1.343-2.279,11.11-6.548Z" transform="translate(-64.06 -743.966)" fill="#fff" stroke="#3b6976" stroke-width="1"/>
      <path id="Path_12280" data-name="Path 12280" d="M133.672,1294.271c-1.873-2.885-1.256-6.387,2.268-8.675,3.54-2.3,6.974-1.427,8.847,1.458,1.863,2.868,1.272,6.376-2.267,8.675s-6.984,1.411-8.847-1.457m9.092-5.9c-1.08-1.664-3.025-1.941-5.318-.452s-2.831,3.378-1.75,5.042,3.025,1.941,5.318.452,2.827-3.384,1.75-5.042" transform="translate(-79.185 -766.72)" fill="#fff" stroke="#3b6976" stroke-width="1"/>
      <path id="Path_12281" data-name="Path 12281" d="M165.676,1315.491l-6.838,4.838c-2.3,1.63-5.078.97-6.929-1.647s-1.552-5.453.752-7.083l6.838-4.838,1.575,2.226-6.648,4.7a2.621,2.621,0,0,0,3.027,4.278l6.648-4.7Z" transform="translate(-89.967 -780.138)" fill="#fff" stroke="#3b6976" stroke-width="1"/>
      <path id="Path_12282" data-name="Path 12282" d="M178.352,1339.022c-.809-1.063-1.741-1.278-2.4-.775-.748.547-.51,1.544-.036,2.592l.482,1.09c.958,2.089,1.032,4.067-.673,5.374-1.882,1.426-4.2.865-6.11-1.64-1.9-2.49-1.959-4.952.218-6.7l1.6,2.1c-.974.852-.877,2.061-.018,3.188.839,1.1,1.892,1.424,2.648.856.688-.531.535-1.4-.046-2.72l-.571-1.331c-.9-2.049-.851-3.777.666-4.925,1.856-1.429,4.354-.727,6.068,1.522,1.74,2.284,1.622,4.749-.183,6.172l-1.583-2.079c.745-.7.731-1.69-.058-2.727" transform="translate(-100.412 -797.23)" fill="#fff" stroke="#3b6976" stroke-width="1"/>
      <path id="Path_12283" data-name="Path 12283" d="M201.461,1360.188l6.809,8.112-1.722,1.445-2.538-3.023-8.155,6.844-1.732-2.064,8.155-6.845-2.538-3.024Z" transform="translate(-115.891 -812.034)" fill="#fff" stroke="#3b6976" stroke-width="1"/>
      <path id="Path_12284" data-name="Path 12284" d="M217.037,1382.6l5.805,6.473-1.674,1.5-3.984-4.442-2.289,2.053,3.685,4.109-1.674,1.5-3.685-4.109-2.293,2.057,4,4.461-1.674,1.5-5.823-6.491Z" transform="translate(-123.837 -825.413)" fill="#fff" stroke="#3b6976" stroke-width="1"/>
      <path id="Path_12285" data-name="Path 12285" d="M224.084,1414.083l12.381-5.733,2.436,2.533-6.213,12.146-2.026-2.106,1.456-2.729-3.227-3.355-2.783,1.35Zm9.093,2.14,2.417-4.526-.07-.073-4.618,2.24Z" transform="translate(-133.779 -840.787)" fill="#fff" stroke="#3b6976" stroke-width="1"/>
      <path id="Path_12286" data-name="Path 12286" d="M259.242,1426.45l-3.408,8.721.109.1,8.549-3.821,2.434,2.32-8.9,9.334-1.914-1.825,5.791-6.075-.077-.073-8.163,3.726-1.3-1.242,3.354-8.355-.077-.074-5.813,6.1-1.914-1.825,8.9-9.333Z" transform="translate(-148.003 -850.207)" fill="#fff" stroke="#3b6976" stroke-width="1"/>
      <path id="Path_12287" data-name="Path 12287" d="M289.619,1457.657c-1-.882-1.96-.909-2.508-.284-.625.683-.195,1.614.477,2.548l.688.972c1.352,1.858,1.815,3.783.4,5.4-1.563,1.77-3.947,1.679-6.313-.4s-2.9-4.466-1.11-6.608l1.982,1.742c-.786,1.028-.452,2.194.613,3.129,1.041.913,2.137,1.022,2.765.316.569-.657.248-1.475-.582-2.658l-.822-1.192c-1.292-1.83-1.581-3.534-.321-4.959,1.536-1.769,4.124-1.574,6.248.292,2.158,1.9,2.529,4.335,1.041,6.086l-1.963-1.724c.594-.829.383-1.8-.6-2.661" transform="translate(-167.277 -868.304)" fill="#fff" stroke="#3b6976" stroke-width="1"/>
      <path id="Path_12288" data-name="Path 12288" d="M1402.035,1424.41a2.609,2.609,0,0,0,3.582-.269c1.443-1.378,1.333-3.389-.519-5.329-1.9-1.994-3.869-2.128-5.285-.776a2.632,2.632,0,0,0-.522,3.5l-2,1.9a5.327,5.327,0,0,1,.891-7.17c2.495-2.383,6.013-2.4,8.917.641s2.694,6.585.231,8.937c-2.158,2.061-4.97,2.379-7.286.474Z" transform="translate(-833.586 -844.484)" fill="#fff" stroke="#3b6976" stroke-width="1"/>
      <path id="Path_12289" data-name="Path 12289" d="M1379.118,1451.19l-5.532-6.29c-1.864-2.119-1.5-4.947.907-7.065s5.259-2.117,7.123,0l5.532,6.29-2.048,1.8-5.379-6.115a2.621,2.621,0,0,0-3.935,3.46l5.379,6.115Z" transform="translate(-819.327 -857.44)" fill="#fff" stroke="#3b6976" stroke-width="1"/>
      <path id="Path_12290" data-name="Path 12290" d="M1360.349,1462.687l-3.943,3.214c-2.27,1.85-4.624,1.641-6.244-.345a3.717,3.717,0,0,1-.552-4.285l-5.289-2.154,2.333-1.9,4.781,2,1.542-1.257-2.888-3.543,2.113-1.722Zm-7.422-1.861c-1.21.986-1.4,1.966-.588,2.956s1.844,1.056,3.064.061l1.425-1.161-2.466-3.026Z" transform="translate(-802.562 -867.26)" fill="#fff" stroke="#3b6976" stroke-width="1"/>
      <path id="Path_12291" data-name="Path 12291" d="M1326.308,1477.147c2.747-2.068,6.282-1.7,8.808,1.659,2.538,3.37,1.907,6.855-.839,8.924-2.731,2.057-6.27,1.711-8.808-1.659s-1.892-6.867.839-8.924m6.519,8.656c1.585-1.193,1.725-3.151.082-5.334s-3.565-2.589-5.15-1.4-1.725,3.151-.081,5.334,3.57,2.585,5.149,1.4" transform="translate(-790.355 -881.098)" fill="#fff" stroke="#3b6976" stroke-width="1"/>
      <path id="Path_12292" data-name="Path 12292" d="M1306.736,1504.648c1.1-.761,1.355-1.683.882-2.366-.512-.772-1.521-.579-2.59-.152l-1.11.432c-2.13.864-4.11.849-5.339-.913-1.341-1.945-.677-4.237,1.912-6.032,2.573-1.784,5.036-1.736,6.683.518l-2.169,1.5c-.808-1.01-2.02-.967-3.185-.16-1.139.79-1.508,1.827-.975,2.608.5.711,1.372.6,2.72.076l1.356-.51c2.089-.812,3.813-.681,4.891.886,1.346,1.919.533,4.383-1.792,5.995-2.361,1.637-4.819,1.409-6.159-.459l2.148-1.489c.661.776,1.655.807,2.727.064" transform="translate(-774.851 -892.132)" fill="#fff" stroke="#3b6976" stroke-width="1"/>
      <rect id="Rectangle_2752" data-name="Rectangle 2752" width="2.726" height="12.895" transform="matrix(0.836, -0.549, 0.549, 0.836, 517.881, 608.92)" fill="#fff" stroke="#3b6976" stroke-width="1"/>
      <path id="Path_12293" data-name="Path 12293" d="M1280.074,1527.373l-9,5.594-1.187-1.909,3.354-2.085-5.624-9.044,2.288-1.424,5.624,9.043,3.353-2.085Z" transform="translate(-756.772 -906.55)" fill="#fff" stroke="#3b6976" stroke-width="1"/>
      <path id="Path_12294" data-name="Path 12294" d="M1251.657,1544.518l-5.31-3.363-.11.063.2,6.282-2.652,1.516-.054-9.574-2.262-3.959,2.351-1.344,2.263,3.959,8.222,4.9Z" transform="translate(-741.162 -915.883)" fill="#fff" stroke="#3b6976" stroke-width="1"/>
      <path id="Path_12295" data-name="Path 12295" d="M141.341,382.888l.484,8.216.483,8.216-7.356-3.689-7.357-3.689,6.873-4.526Z" transform="translate(-76.175 -228.584)" fill="#fff" stroke="#3b6976" stroke-width="1"/>
      <path id="Path_12296" data-name="Path 12296" d="M615.657,26.27l-5.342,6.26-5.342,6.26-2.75-7.756-2.75-7.757,8.093,1.5Z" transform="translate(-357.886 -13.896)" fill="#fff" stroke="#3b6976" stroke-width="1"/>
      <path id="Path_12297" data-name="Path 12297" d="M1165.072,65.534l-8.146,1.173-8.146,1.172,3.058-7.64,3.057-7.641,5.089,6.468Z" transform="translate(-685.824 -31.401)" fill="#fff" stroke="#3b6976" stroke-width="1"/>
      <path id="Path_12298" data-name="Path 12298" d="M1641.7,741l-4.586-6.833-4.587-6.834,8.211-.555,8.211-.555-3.625,7.389Z" transform="translate(-974.624 -433.555)" fill="#fff" stroke="#3b6976" stroke-width="1"/>
      <path id="Path_12299" data-name="Path 12299" d="M1496.028,1322.312l.615-8.207.615-8.207,6.8,4.636,6.8,4.636-7.415,3.571Z" transform="translate(-893.132 -779.624)" fill="#fff" stroke="#3b6976" stroke-width="1"/>
      <path id="Path_12300" data-name="Path 12300" d="M1066.393,1634.023l5.576-6.053,5.576-6.052,2.454,7.855,2.454,7.855-8.03-1.8Z" transform="translate(-636.639 -968.287)" fill="#fff" stroke="#3b6976" stroke-width="1"/>
      <path id="Path_12301" data-name="Path 12301" d="M410.638,1562.666l8.155-1.11,8.154-1.11-3.116,7.617-3.116,7.617-5.038-6.507Z" transform="translate(-245.152 -931.589)" fill="#fff" stroke="#3b6976" stroke-width="1"/>
      <path id="Path_12302" data-name="Path 12302" d="M8.23,917.86l4.115,7.127,4.115,7.127H0l4.115-7.127Z" transform="translate(0 -547.964)" fill="#fff" stroke="#3b6976" stroke-width="1"/>
    </g>
  </g>
</svg>
