<svg xmlns="http://www.w3.org/2000/svg" xmlns:xlink="http://www.w3.org/1999/xlink" width="329.263" height="166.715" viewBox="0 0 329.263 166.715">
  <defs>
    <clipPath id="clip-path">
      <path id="Path_12703" data-name="Path 12703" d="M279.363,34.275V50.966h38.348V49.114L306.93,34.275Z" transform="translate(-279.363 -34.275)" fill="none"/>
    </clipPath>
    <clipPath id="clip-path-2">
      <path id="Path_12705" data-name="Path 12705" d="M87.92,13.28,75.794,29.971H108.9V13.28Z" transform="translate(-75.794 -13.28)" fill="none"/>
    </clipPath>
    <clipPath id="clip-path-3">
      <path id="Path_12707" data-name="Path 12707" d="M147.878,31.049h38.348V25.531a152.662,152.662,0,0,1-38.348-4.977Z" transform="translate(-147.878 -20.554)" fill="none"/>
    </clipPath>
    <clipPath id="clip-path-4">
      <rect id="Rectangle_2788" data-name="Rectangle 2788" width="40.142" height="16.692" fill="none"/>
    </clipPath>
    <clipPath id="clip-path-5">
      <path id="Path_12723" data-name="Path 12723" d="M241.144,6.329a152.644,152.644,0,0,1-140.371,0H87.306l-44.68,61.5v70.691c85.243,40.977,183.761,37.954,265.165-4.258V79.611L254.549,6.329Z" transform="translate(-42.626 -6.329)" fill="none"/>
    </clipPath>
    <clipPath id="clip-path-6">
      <rect id="Rectangle_2789" data-name="Rectangle 2789" width="36.824" height="15.501" fill="none"/>
    </clipPath>
    <clipPath id="clip-path-7">
      <rect id="Rectangle_2790" data-name="Rectangle 2790" width="36.917" height="16.691" fill="none"/>
    </clipPath>
    <clipPath id="clip-path-9">
      <rect id="Rectangle_2791" data-name="Rectangle 2791" width="42.537" height="17.583" fill="none"/>
    </clipPath>
    <clipPath id="clip-path-10">
      <rect id="Rectangle_2792" data-name="Rectangle 2792" width="41.826" height="18.239" fill="none"/>
    </clipPath>
    <clipPath id="clip-path-11">
      <rect id="Rectangle_2793" data-name="Rectangle 2793" width="46.543" height="19.146" fill="none"/>
    </clipPath>
    <clipPath id="clip-path-12">
      <rect id="Rectangle_2794" data-name="Rectangle 2794" width="40.868" height="17.788" fill="none"/>
    </clipPath>
    <clipPath id="clip-path-14">
      <rect id="Rectangle_2795" data-name="Rectangle 2795" width="40.38" height="16.756" fill="none"/>
    </clipPath>
    <clipPath id="clip-path-15">
      <rect id="Rectangle_2796" data-name="Rectangle 2796" width="47.525" height="17.809" fill="none"/>
    </clipPath>
    <clipPath id="clip-path-17">
      <rect id="Rectangle_2797" data-name="Rectangle 2797" width="37.77" height="17.707" fill="none"/>
    </clipPath>
    <clipPath id="clip-path-18">
      <path id="Path_12750" data-name="Path 12750" d="M309.587,81.325V99.032h37.77V90.726l-6.831-9.4Z" transform="translate(-309.587 -81.325)" fill="none"/>
    </clipPath>
    <clipPath id="clip-path-19">
      <rect id="Rectangle_2798" data-name="Rectangle 2798" width="40.182" height="17.809" fill="none"/>
    </clipPath>
    <clipPath id="clip-path-21">
      <rect id="Rectangle_2799" data-name="Rectangle 2799" width="37.308" height="16.43" fill="none"/>
    </clipPath>
    <clipPath id="clip-path-23">
      <rect id="Rectangle_2800" data-name="Rectangle 2800" width="40.182" height="17.064" fill="none"/>
    </clipPath>
    <clipPath id="clip-path-25">
      <rect id="Rectangle_2801" data-name="Rectangle 2801" width="38.634" height="17.064" fill="none"/>
    </clipPath>
    <clipPath id="clip-path-26">
      <path id="Path_12773" data-name="Path 12773" d="M257.541,13.28a152.328,152.328,0,0,1-17.552,5.9V29.971h37.216V13.28Z" transform="translate(-239.989 -13.28)" fill="none"/>
    </clipPath>
  </defs>
  <path id="Path_15635" data-name="Path 15635" d="M147.429,569.712l84.905-116.861a152.619,152.619,0,0,0,159.428.026l84.93,116.9c-97.208,64.786-227.33,67.994-329.263-.062" transform="translate(-147.429 -452.851)" fill="#769c7b"/>
  <g id="Group_12195" data-name="Group 12195" transform="translate(42.425 5.399)" opacity="0.15">
    <g id="Group_7731" data-name="Group 7731" transform="translate(201.651 23.804)">
      <g id="Group_7730" data-name="Group 7730" clip-path="url(#clip-path)">
        <path id="Path_12702" data-name="Path 12702" d="M298.537,7.729A19.426,19.426,0,0,0,279.363,27.38a19.18,19.18,0,1,0,38.348,0A19.426,19.426,0,0,0,298.537,7.729m0,4.65a14.83,14.83,0,0,0-14.637,15,14.641,14.641,0,1,0,29.274.7q.009-.351,0-.7a14.831,14.831,0,0,0-14.637-15" transform="translate(-279.363 -30.341)" fill="#60517a" fill-rule="evenodd"/>
      </g>
    </g>
    <g id="Group_7733" data-name="Group 7733" transform="translate(28.252 5.921)">
      <g id="Group_7732" data-name="Group 7732" clip-path="url(#clip-path-2)">
        <path id="Path_12704" data-name="Path 12704" d="M88.814,52.583A19.427,19.427,0,0,1,69.64,32.931a19.18,19.18,0,1,1,38.348,0A19.428,19.428,0,0,1,88.814,52.583m0-4.65a15.006,15.006,0,1,1,14.633-15.371c0,.124,0,.246,0,.37a14.83,14.83,0,0,1-14.637,15" transform="translate(-74.882 -13.28)" fill="#60517a" fill-rule="evenodd"/>
      </g>
    </g>
    <g id="Group_7735" data-name="Group 7735" transform="translate(89.653 12.117)">
      <g id="Group_7734" data-name="Group 7734" clip-path="url(#clip-path-3)">
        <path id="Path_12706" data-name="Path 12706" d="M167.052,52.583a19.426,19.426,0,0,1-19.174-19.652,19.18,19.18,0,1,1,38.348,0,19.426,19.426,0,0,1-19.174,19.652m0-4.65a15.006,15.006,0,1,1,14.633-15.371c0,.124,0,.246,0,.37a14.83,14.83,0,0,1-14.637,15" transform="translate(-147.878 -19.476)" fill="#60517a" fill-rule="evenodd"/>
      </g>
    </g>
    <g id="Group_7737" data-name="Group 7737" transform="translate(122.962 22.611)">
      <g id="Group_7736" data-name="Group 7736" clip-path="url(#clip-path-4)">
        <path id="Path_12708" data-name="Path 12708" d="M207.054,6.33a19.874,19.874,0,0,0-20.071,19.651,20.075,20.075,0,0,0,40.142,0A19.874,19.874,0,0,0,207.054,6.33m0,4.429a15.4,15.4,0,0,0-15.549,15.224,15.552,15.552,0,0,0,31.1,0,15.4,15.4,0,0,0-15.549-15.224" transform="translate(-186.983 -28.94)" fill="#60517a" fill-rule="evenodd"/>
      </g>
    </g>
    <g id="Group_7739" data-name="Group 7739" transform="translate(0 0)">
      <g id="Group_7738" data-name="Group 7738" clip-path="url(#clip-path-5)">
        <path id="Path_12709" data-name="Path 12709" d="M147.671,24.334a13.813,13.813,0,1,0,13.813,13.814,13.812,13.812,0,0,0-13.813-13.814" transform="translate(-56.147 -8.997)" fill="#e16b7c" fill-rule="evenodd"/>
        <path id="Path_12710" data-name="Path 12710" d="M149.05,28.622a5.886,5.886,0,1,0,5.886,5.886,5.886,5.886,0,0,0-5.886-5.886" transform="translate(-57.527 -9.633)" fill="#60517a" fill-rule="evenodd"/>
        <path id="Path_12711" data-name="Path 12711" d="M120.717,69.268a12.509,12.509,0,0,1,12.5-12.5h25.005a12.509,12.509,0,0,1,12.5,12.5v54.678h-50.01Z" transform="translate(-54.2 -13.804)" fill="#e16b7c" fill-rule="evenodd"/>
        <path id="Path_12712" data-name="Path 12712" d="M110.438,24.334a13.813,13.813,0,1,0,13.812,13.814,13.812,13.812,0,0,0-13.812-13.814" transform="translate(-50.629 -8.997)" fill="#153c4d" fill-rule="evenodd"/>
        <path id="Path_12713" data-name="Path 12713" d="M111.817,28.622a5.886,5.886,0,1,0,5.886,5.886,5.886,5.886,0,0,0-5.886-5.886" transform="translate(-52.008 -9.633)" fill="#60517a" fill-rule="evenodd"/>
        <path id="Path_12714" data-name="Path 12714" d="M83.484,69.268a12.509,12.509,0,0,1,12.5-12.5h25.005a12.509,12.509,0,0,1,12.5,12.5v54.678H83.484Z" transform="translate(-48.682 -13.804)" fill="#153c4d" fill-rule="evenodd"/>
        <path id="Path_12715" data-name="Path 12715" d="M129.865,57.3a12.516,12.516,0,0,1,9.148,12.047v54.679h-18.3V69.348A12.516,12.516,0,0,1,129.865,57.3" transform="translate(-54.2 -13.883)" fill="#153c4d" fill-rule="evenodd"/>
        <path id="Path_12716" data-name="Path 12716" d="M277.827,23.078a13.813,13.813,0,1,0,13.813,13.813,13.812,13.812,0,0,0-13.813-13.813" transform="translate(-75.438 -8.811)" fill="#e16b7c" fill-rule="evenodd"/>
        <path id="Path_12717" data-name="Path 12717" d="M279.206,27.366a5.886,5.886,0,1,0,5.886,5.886,5.886,5.886,0,0,0-5.886-5.886" transform="translate(-76.817 -9.447)" fill="#60517a" fill-rule="evenodd"/>
        <path id="Path_12718" data-name="Path 12718" d="M250.874,68.012a12.509,12.509,0,0,1,12.5-12.5h25.005a12.509,12.509,0,0,1,12.5,12.5v54.679H250.873Z" transform="translate(-73.49 -13.618)" fill="#e16b7c" fill-rule="evenodd"/>
        <path id="Path_12719" data-name="Path 12719" d="M240.595,23.078a13.813,13.813,0,1,0,13.813,13.813,13.812,13.812,0,0,0-13.813-13.813" transform="translate(-69.919 -8.811)" fill="#153c4d" fill-rule="evenodd"/>
        <path id="Path_12720" data-name="Path 12720" d="M241.974,27.366a5.886,5.886,0,1,0,5.886,5.886,5.886,5.886,0,0,0-5.886-5.886" transform="translate(-71.299 -9.447)" fill="#60517a" fill-rule="evenodd"/>
        <path id="Path_12721" data-name="Path 12721" d="M213.641,68.012a12.509,12.509,0,0,1,12.5-12.5H251.15a12.509,12.509,0,0,1,12.5,12.5v54.679H213.641Z" transform="translate(-67.972 -13.618)" fill="#153c4d" fill-rule="evenodd"/>
        <path id="Path_12722" data-name="Path 12722" d="M260.022,56.048A12.516,12.516,0,0,1,269.17,68.1v54.679h-18.3V68.092a12.516,12.516,0,0,1,9.148-12.047" transform="translate(-73.49 -13.697)" fill="#153c4d" fill-rule="evenodd"/>
      </g>
    </g>
    <g id="Group_7741" data-name="Group 7741" transform="translate(114.08 46.217)">
      <g id="Group_7740" data-name="Group 7740" clip-path="url(#clip-path-6)">
        <path id="Path_12724" data-name="Path 12724" d="M194.966,97.09a18.251,18.251,0,1,0-18.411-18.25,18.251,18.251,0,0,0,18.411,18.25m0-4.319a13.934,13.934,0,1,0-14.055-13.933,13.932,13.932,0,0,0,14.055,13.933" transform="translate(-176.555 -60.588)" fill="#60517a" fill-rule="evenodd"/>
      </g>
    </g>
    <g id="Group_7743" data-name="Group 7743" transform="translate(57.3 25.201)">
      <g id="Group_7742" data-name="Group 7742" clip-path="url(#clip-path-7)">
        <path id="Path_12725" data-name="Path 12725" d="M128.354,9.369c10.187,0,18.458,8.8,18.458,19.651s-8.271,19.651-18.458,19.651S109.9,39.866,109.9,29.02s8.271-19.651,18.458-19.651m0,4.649c7.777,0,14.091,6.722,14.091,15s-6.314,15-14.091,15-14.091-6.722-14.091-15,6.314-15,14.091-15" transform="translate(-109.896 -31.981)" fill="#60517a" fill-rule="evenodd"/>
      </g>
    </g>
    <g id="Group_7745" data-name="Group 7745" transform="translate(0 0)">
      <g id="Group_7744" data-name="Group 7744" clip-path="url(#clip-path-5)">
        <path id="Path_12726" data-name="Path 12726" d="M177.027,70.272a13.813,13.813,0,1,1-13.813,13.813,13.812,13.812,0,0,1,13.813-13.813" transform="translate(-60.498 -15.806)" fill="#153c4d" fill-rule="evenodd"/>
        <path id="Path_12727" data-name="Path 12727" d="M178.405,76.156a5.886,5.886,0,1,1-5.885,5.887h0a5.889,5.889,0,0,1,5.885-5.886" transform="translate(-61.877 -16.678)" fill="#60517a" fill-rule="evenodd"/>
        <path id="Path_12728" data-name="Path 12728" d="M200.084,118.658c0-8.806-5.6-15.955-12.5-15.955H162.576c-6.9,0-12.5,7.149-12.5,15.955v78.361h50.011Z" transform="translate(-58.551 -20.612)" fill="#153c4d" fill-rule="evenodd"/>
        <path id="Path_12729" data-name="Path 12729" d="M214.263,70.272A13.813,13.813,0,1,1,200.45,84.085a13.812,13.812,0,0,1,13.813-13.813" transform="translate(-66.017 -15.806)" fill="#153c4d" fill-rule="evenodd"/>
        <path id="Path_12730" data-name="Path 12730" d="M215.639,76.156a5.886,5.886,0,1,1-5.886,5.886,5.886,5.886,0,0,1,5.886-5.886" transform="translate(-67.396 -16.678)" fill="#60517a" fill-rule="evenodd"/>
        <path id="Path_12731" data-name="Path 12731" d="M237.318,118.658c0-8.806-5.6-15.955-12.5-15.955H199.81c-6.9,0-12.5,7.149-12.5,15.955v78.361h50.011Z" transform="translate(-64.069 -20.612)" fill="#153c4d" fill-rule="evenodd"/>
        <path id="Path_12732" data-name="Path 12732" d="M196.455,103.238c-5.273,1.874-9.148,8.058-9.148,15.388V197.1h18.3V118.622c0-7.331-3.875-13.514-9.148-15.388" transform="translate(-64.069 -20.691)" fill="#153c4d" fill-rule="evenodd"/>
      </g>
    </g>
    <g id="Group_7747" data-name="Group 7747" transform="translate(145.669 64.005)">
      <g id="Group_7746" data-name="Group 7746" clip-path="url(#clip-path-9)">
        <path id="Path_12734" data-name="Path 12734" d="M234.909,53.5c11.739,0,21.268,9.276,21.268,20.7s-9.53,20.7-21.268,20.7-21.268-9.277-21.268-20.7,9.53-20.7,21.268-20.7m0,4.187a16.521,16.521,0,1,1-16.966,16.515,16.753,16.753,0,0,1,16.966-16.515" transform="translate(-213.641 -77.326)" fill="#60517a" fill-rule="evenodd"/>
      </g>
    </g>
    <g id="Group_7749" data-name="Group 7749" transform="translate(77.69 65.363)">
      <g id="Group_7748" data-name="Group 7748" clip-path="url(#clip-path-10)">
        <path id="Path_12735" data-name="Path 12735" d="M154.747,54.057c11.543,0,20.913,9.625,20.913,21.474S166.291,97,154.747,97s-20.913-9.625-20.913-21.474,9.37-21.474,20.913-21.474m0,4.974a16.5,16.5,0,1,1-16.063,16.935c0-.145-.006-.29-.006-.436a16.3,16.3,0,0,1,16.069-16.5" transform="translate(-133.834 -78.766)" fill="#60517a" fill-rule="evenodd"/>
      </g>
    </g>
    <g id="Group_7751" data-name="Group 7751" transform="translate(36.521 46.217)">
      <g id="Group_7750" data-name="Group 7750" clip-path="url(#clip-path-11)">
        <path id="Path_12736" data-name="Path 12736" d="M108.773,105.672c12.843,0,23.271-10.1,23.271-22.543s-10.428-22.543-23.271-22.543S85.5,70.688,85.5,83.13s10.428,22.543,23.271,22.543m0-4.634c10.2,0,18.484-8.025,18.484-17.909s-8.284-17.909-18.484-17.909S90.289,73.245,90.289,83.13s8.285,17.909,18.484,17.909" transform="translate(-85.502 -60.588)" fill="#60517a" fill-rule="evenodd"/>
      </g>
    </g>
    <g id="Group_7753" data-name="Group 7753" transform="translate(183.401 46.217)">
      <g id="Group_7752" data-name="Group 7752" clip-path="url(#clip-path-12)">
        <path id="Path_12737" data-name="Path 12737" d="M278.372,102.473A20.949,20.949,0,1,0,257.938,81.53a20.7,20.7,0,0,0,20.434,20.943m0-4.372a16.576,16.576,0,1,0-16.163-16.979c0,.136-.005.272-.005.408A16.38,16.38,0,0,0,278.372,98.1" transform="translate(-257.938 -60.588)" fill="#60517a" fill-rule="evenodd"/>
      </g>
    </g>
    <g id="Group_7755" data-name="Group 7755" transform="translate(0 0)">
      <g id="Group_7754" data-name="Group 7754" clip-path="url(#clip-path-5)">
        <path id="Path_12738" data-name="Path 12738" d="M310.194,70.272a13.813,13.813,0,1,1-13.813,13.813,13.812,13.812,0,0,1,13.813-13.813" transform="translate(-80.235 -15.806)" fill="#5e9fab" fill-rule="evenodd"/>
        <path id="Path_12739" data-name="Path 12739" d="M311.573,76.156a5.886,5.886,0,1,1-5.886,5.886,5.886,5.886,0,0,1,5.886-5.886" transform="translate(-81.614 -16.678)" fill="#60517a" fill-rule="evenodd"/>
        <path id="Path_12740" data-name="Path 12740" d="M333.252,118.658c0-8.806-5.6-15.955-12.5-15.955H295.744c-6.9,0-12.5,7.149-12.5,15.955v78.361h50.011Z" transform="translate(-78.287 -20.612)" fill="#5e9fab" fill-rule="evenodd"/>
      </g>
    </g>
    <g id="Group_7757" data-name="Group 7757" transform="translate(134.919 82.091)">
      <g id="Group_7756" data-name="Group 7756" clip-path="url(#clip-path-14)">
        <path id="Path_12742" data-name="Path 12742" d="M221.21,142.158a19.733,19.733,0,1,0-20.187-19.727,19.97,19.97,0,0,0,20.187,19.727m0-4.668A15.064,15.064,0,1,0,205.8,122.43a15.248,15.248,0,0,0,15.413,15.06" transform="translate(-201.02 -102.703)" fill="#60517a" fill-rule="evenodd"/>
      </g>
    </g>
    <g id="Group_7759" data-name="Group 7759" transform="translate(92.764 98.695)">
      <g id="Group_7758" data-name="Group 7758" clip-path="url(#clip-path-15)">
        <path id="Path_12743" data-name="Path 12743" d="M175.292,93.871c13.118,0,23.765,9.4,23.765,20.968s-10.647,20.968-23.765,20.968-23.765-9.4-23.765-20.968,10.647-20.968,23.765-20.968m0,4.22c10.477,0,18.98,7.5,18.98,16.748s-8.5,16.75-18.98,16.75-18.98-7.5-18.98-16.748,8.5-16.748,18.98-16.748" transform="translate(-151.53 -117.998)" fill="#60517a" fill-rule="evenodd"/>
      </g>
    </g>
    <g id="Group_7761" data-name="Group 7761" transform="translate(0 0)">
      <g id="Group_7760" data-name="Group 7760" clip-path="url(#clip-path-5)">
        <path id="Path_12744" data-name="Path 12744" d="M80.332,70.272A13.813,13.813,0,1,1,66.519,84.085,13.812,13.812,0,0,1,80.332,70.272" transform="translate(-46.167 -15.806)" fill="#5e9fab" fill-rule="evenodd"/>
        <path id="Path_12745" data-name="Path 12745" d="M81.711,76.156a5.886,5.886,0,1,1-5.886,5.886,5.886,5.886,0,0,1,5.886-5.886" transform="translate(-47.546 -16.678)" fill="#60517a" fill-rule="evenodd"/>
        <path id="Path_12746" data-name="Path 12746" d="M103.389,118.658c0-8.806-5.6-15.955-12.5-15.955H65.881c-6.9,0-12.5,7.149-12.5,15.955v78.361h50.011Z" transform="translate(-44.22 -20.612)" fill="#5e9fab" fill-rule="evenodd"/>
      </g>
    </g>
    <g id="Group_7763" data-name="Group 7763" transform="translate(0 62.314)">
      <g id="Group_7762" data-name="Group 7762" clip-path="url(#clip-path-17)">
        <path id="Path_12748" data-name="Path 12748" d="M61.511,51.322c10.423,0,18.885,9.342,18.885,20.848S71.935,93.018,61.511,93.018,42.627,83.676,42.627,72.17,51.09,51.322,61.512,51.322m0,4.933c7.957,0,14.417,7.131,14.417,15.916s-6.46,15.916-14.417,15.916S47.095,80.954,47.095,72.17s6.46-15.916,14.417-15.916" transform="translate(-42.626 -75.311)" fill="#60517a" fill-rule="evenodd"/>
      </g>
    </g>
    <g id="Group_7765" data-name="Group 7765" transform="translate(227.395 63.881)">
      <g id="Group_7764" data-name="Group 7764" clip-path="url(#clip-path-18)">
        <path id="Path_12749" data-name="Path 12749" d="M328.473,53.162c10.423,0,18.885,9.342,18.885,20.848S338.9,94.859,328.473,94.859s-18.885-9.342-18.885-20.848,8.462-20.848,18.885-20.848m0,4.933c7.957,0,14.417,7.131,14.417,15.916s-6.46,15.916-14.417,15.916-14.417-7.131-14.417-15.916,6.46-15.916,14.417-15.916" transform="translate(-309.587 -77.151)" fill="#60517a" fill-rule="evenodd"/>
      </g>
    </g>
    <g id="Group_7767" data-name="Group 7767" transform="translate(17.644 95.412)">
      <g id="Group_7766" data-name="Group 7766" clip-path="url(#clip-path-19)">
        <path id="Path_12751" data-name="Path 12751" d="M83.435,90.017c11.089,0,20.091,9.4,20.091,20.968s-9.006,20.969-20.091,20.969-20.091-9.4-20.091-20.968,9-20.969,20.091-20.969m0,5.242c8.317,0,15.068,7.046,15.068,15.726S91.751,126.71,83.435,126.71s-15.068-7.046-15.068-15.726,6.749-15.726,15.068-15.726" transform="translate(-63.341 -114.144)" fill="#60517a" fill-rule="evenodd"/>
      </g>
    </g>
    <g id="Group_7769" data-name="Group 7769" transform="translate(0 0)">
      <g id="Group_7768" data-name="Group 7768" clip-path="url(#clip-path-5)">
        <path id="Path_12752" data-name="Path 12752" d="M109.689,102.125a13.813,13.813,0,1,1-13.813,13.813v0a13.819,13.819,0,0,1,13.813-13.813" transform="translate(-50.518 -20.526)" fill="#60517a" fill-rule="evenodd"/>
        <path id="Path_12753" data-name="Path 12753" d="M111.068,108.544a5.886,5.886,0,1,1-5.886,5.886h0a5.889,5.889,0,0,1,5.886-5.885" transform="translate(-51.897 -21.478)" fill="#60517a" fill-rule="evenodd"/>
        <path id="Path_12754" data-name="Path 12754" d="M132.746,147.059a12.509,12.509,0,0,0-12.5-12.5H95.238a12.509,12.509,0,0,0-12.5,12.5v54.679h50.011Z" transform="translate(-48.57 -25.333)" fill="#60517a" fill-rule="evenodd"/>
        <path id="Path_12755" data-name="Path 12755" d="M146.919,102.126a13.813,13.813,0,1,1-13.811,13.814v-.005a13.818,13.818,0,0,1,13.811-13.809" transform="translate(-56.036 -20.527)" fill="#c28730" fill-rule="evenodd"/>
        <path id="Path_12756" data-name="Path 12756" d="M148.3,106.414a5.886,5.886,0,1,1-5.886,5.886h0a5.889,5.889,0,0,1,5.886-5.885" transform="translate(-57.415 -21.162)" fill="#60517a" fill-rule="evenodd"/>
        <path id="Path_12757" data-name="Path 12757" d="M169.976,147.059a12.509,12.509,0,0,0-12.5-12.5H132.471a12.509,12.509,0,0,0-12.5,12.5v54.679h50.008Z" transform="translate(-54.089 -25.333)" fill="#c28730" fill-rule="evenodd"/>
      </g>
    </g>
    <g id="Group_7771" data-name="Group 7771" transform="translate(54.328 78.853)">
      <g id="Group_7770" data-name="Group 7770" clip-path="url(#clip-path-21)">
        <path id="Path_12759" data-name="Path 12759" d="M125.061,137.591c10.3,0,18.654-8.668,18.654-19.345S135.357,98.9,125.061,98.9s-18.654,8.668-18.654,19.345,8.359,19.345,18.654,19.345m0-4.836a14.518,14.518,0,1,0-13.991-14.509,14.263,14.263,0,0,0,13.991,14.509" transform="translate(-106.407 -98.902)" fill="#60517a" fill-rule="evenodd"/>
      </g>
    </g>
    <g id="Group_7773" data-name="Group 7773" transform="translate(0 0)">
      <g id="Group_7772" data-name="Group 7772" clip-path="url(#clip-path-5)">
        <path id="Path_12760" data-name="Path 12760" d="M129.116,135.093a12.516,12.516,0,0,0-9.148,12.047v54.679h18.3V147.14a12.516,12.516,0,0,0-9.148-12.047" transform="translate(-54.089 -25.413)" fill="#60517a" fill-rule="evenodd"/>
      </g>
    </g>
    <g id="Group_7775" data-name="Group 7775" transform="translate(203.589 76.748)">
      <g id="Group_7774" data-name="Group 7774" clip-path="url(#clip-path-23)">
        <path id="Path_12762" data-name="Path 12762" d="M301.73,136.613a20.091,20.091,0,1,0-20.091-20.091,20.091,20.091,0,0,0,20.091,20.091m0-5.026a15.068,15.068,0,1,0-15.068-15.068,15.068,15.068,0,0,0,15.068,15.068" transform="translate(-281.639 -96.431)" fill="#60517a" fill-rule="evenodd"/>
      </g>
    </g>
    <g id="Group_7777" data-name="Group 7777" transform="translate(0 0)">
      <g id="Group_7776" data-name="Group 7776" clip-path="url(#clip-path-5)">
        <path id="Path_12763" data-name="Path 12763" d="M280.936,102.126a13.813,13.813,0,1,0,13.813,13.813,13.813,13.813,0,0,0-13.813-13.813" transform="translate(-75.898 -20.527)" fill="#60517a" fill-rule="evenodd"/>
        <path id="Path_12764" data-name="Path 12764" d="M282.316,106.414A5.886,5.886,0,1,0,288.2,112.3h0a5.889,5.889,0,0,0-5.886-5.885" transform="translate(-77.278 -21.162)" fill="#60517a" fill-rule="evenodd"/>
        <path id="Path_12765" data-name="Path 12765" d="M253.983,147.06a12.509,12.509,0,0,1,12.5-12.5h25.006a12.509,12.509,0,0,1,12.5,12.5v54.679H253.983Z" transform="translate(-73.951 -25.333)" fill="#60517a" fill-rule="evenodd"/>
        <path id="Path_12766" data-name="Path 12766" d="M243.7,102.126a13.813,13.813,0,1,0,13.813,13.813A13.812,13.812,0,0,0,243.7,102.126" transform="translate(-70.38 -20.527)" fill="#c28730" fill-rule="evenodd"/>
        <path id="Path_12767" data-name="Path 12767" d="M245.083,106.414a5.886,5.886,0,1,0,5.886,5.886h0a5.889,5.889,0,0,0-5.886-5.885" transform="translate(-71.759 -21.162)" fill="#60517a" fill-rule="evenodd"/>
        <path id="Path_12768" data-name="Path 12768" d="M216.75,147.06a12.509,12.509,0,0,1,12.5-12.5h25.006a12.509,12.509,0,0,1,12.5,12.5v54.679H216.75Z" transform="translate(-68.433 -25.333)" fill="#c28730" fill-rule="evenodd"/>
        <path id="Path_12769" data-name="Path 12769" d="M263.131,135.093a12.516,12.516,0,0,1,9.148,12.047v54.679h-18.3V147.14a12.516,12.516,0,0,1,9.148-12.047" transform="translate(-73.951 -25.413)" fill="#60517a" fill-rule="evenodd"/>
      </g>
    </g>
    <g id="Group_7779" data-name="Group 7779" transform="translate(170.012 91.066)">
      <g id="Group_7778" data-name="Group 7778" clip-path="url(#clip-path-25)">
        <path id="Path_12771" data-name="Path 12771" d="M261.537,86.1c10.661,0,19.317,9,19.317,20.091s-8.656,20.091-19.317,20.091-19.317-9-19.317-20.091S250.876,86.1,261.537,86.1m0,5.026c8,0,14.487,6.752,14.487,15.068s-6.492,15.068-14.487,15.068-14.487-6.751-14.487-15.068,6.492-15.068,14.487-15.068" transform="translate(-242.22 -109.218)" fill="#60517a" fill-rule="evenodd"/>
      </g>
    </g>
    <g id="Group_7781" data-name="Group 7781" transform="translate(168.112 5.921)">
      <g id="Group_7780" data-name="Group 7780" clip-path="url(#clip-path-26)">
        <path id="Path_12772" data-name="Path 12772" d="M258.6,52.583c-10.27,0-18.608-8.806-18.608-19.652S248.327,13.28,258.6,13.28s18.608,8.8,18.608,19.651S268.867,52.583,258.6,52.583m0-4.65c-7.836,0-14.205-6.722-14.205-15s6.365-15,14.205-15,14.205,6.722,14.205,15-6.365,15-14.205,15" transform="translate(-239.989 -13.28)" fill="#60517a" fill-rule="evenodd"/>
      </g>
    </g>
  </g>
  <path id="Path_15636" data-name="Path 15636" d="M277.827,23.078a13.813,13.813,0,1,0,13.813,13.813,13.812,13.812,0,0,0-13.813-13.813" transform="translate(-33.013 -3.412)" fill="none" stroke="#fff" stroke-width="1" fill-rule="evenodd"/>
  <path id="Path_15637" data-name="Path 15637" d="M110.438,24.334a13.813,13.813,0,1,0,13.812,13.814,13.812,13.812,0,0,0-13.812-13.814" transform="translate(-8.204 -3.598)" fill="none" stroke="#fff" stroke-width="1" fill-rule="evenodd"/>
  <text id="Foster_a_vibrant_community_of_diverse_and_passionate_technologists" data-name="Foster a vibrant community of diverse and passionate technologists" transform="translate(62.307 61.069)" fill="#fff" font-size="16" font-family="Helvetica"><tspan x="44.066" y="12">Foster a </tspan><tspan y="12" font-family="Helvetica-Bold, Helvetica" font-weight="700">vibrant </tspan><tspan x="7.156" y="31" font-family="Helvetica-Bold, Helvetica" font-weight="700">community </tspan><tspan y="31">of diverse and </tspan><tspan x="14.691" y="50">passionate technologists</tspan></text>
</svg>
