<svg xmlns="http://www.w3.org/2000/svg" xmlns:xlink="http://www.w3.org/1999/xlink" width="109" height="109" viewBox="0 0 109 109">
  <defs>
    <clipPath id="clip-path">
      <circle id="Ellipse_129" data-name="Ellipse 129" cx="54.5" cy="54.5" r="54.5" transform="translate(232 158)" fill="#fff"/>
    </clipPath>
    <clipPath id="clip-path-2">
      <path id="Path_12703" data-name="Path 12703" d="M279.363,34.275v9.509H301.21V42.729l-6.142-8.454Z" transform="translate(-279.363 -34.275)" fill="none"/>
    </clipPath>
    <clipPath id="clip-path-3">
      <path id="Path_12705" data-name="Path 12705" d="M82.7,13.28l-6.908,9.509H94.655V13.28Z" transform="translate(-75.794 -13.28)" fill="none"/>
    </clipPath>
    <clipPath id="clip-path-4">
      <rect id="Rectangle_2788" data-name="Rectangle 2788" width="22.869" height="9.509" fill="none"/>
    </clipPath>
    <clipPath id="clip-path-5">
      <rect id="Rectangle_2789" data-name="Rectangle 2789" width="20.979" height="8.831" fill="none"/>
    </clipPath>
    <clipPath id="clip-path-6">
      <rect id="Rectangle_2789-2" data-name="Rectangle 2789" width="22.884" height="9.633" fill="none"/>
    </clipPath>
    <clipPath id="clip-path-8">
      <rect id="Rectangle_2790" data-name="Rectangle 2790" width="21.032" height="9.509" fill="none"/>
    </clipPath>
    <clipPath id="clip-path-9">
      <path id="Path_12733" data-name="Path 12733" d="M155.723,6.329a86.962,86.962,0,0,1-79.97,0H68.08L42.626,41.365V81.638a169.335,169.335,0,0,0,151.067-2.426V48.078L163.36,6.329Z" transform="translate(-42.626 -6.329)" fill="none"/>
    </clipPath>
    <clipPath id="clip-path-10">
      <rect id="Rectangle_2791" data-name="Rectangle 2791" width="24.234" height="10.017" fill="none"/>
    </clipPath>
    <clipPath id="clip-path-11">
      <rect id="Rectangle_2792" data-name="Rectangle 2792" width="23.829" height="10.391" fill="none"/>
    </clipPath>
    <clipPath id="clip-path-12">
      <rect id="Rectangle_2793" data-name="Rectangle 2793" width="26.516" height="10.907" fill="none"/>
    </clipPath>
    <clipPath id="clip-path-13">
      <rect id="Rectangle_2794" data-name="Rectangle 2794" width="23.283" height="10.134" fill="none"/>
    </clipPath>
    <clipPath id="clip-path-15">
      <rect id="Rectangle_2795" data-name="Rectangle 2795" width="23.005" height="9.546" fill="none"/>
    </clipPath>
    <clipPath id="clip-path-16">
      <rect id="Rectangle_2796" data-name="Rectangle 2796" width="27.075" height="10.146" fill="none"/>
    </clipPath>
    <clipPath id="clip-path-18">
      <rect id="Rectangle_2797" data-name="Rectangle 2797" width="21.518" height="10.088" fill="none"/>
    </clipPath>
    <clipPath id="clip-path-19">
      <path id="Path_12750" data-name="Path 12750" d="M309.587,81.325V91.413H331.1V86.681l-3.891-5.356Z" transform="translate(-309.587 -81.325)" fill="none"/>
    </clipPath>
    <clipPath id="clip-path-20">
      <rect id="Rectangle_2798" data-name="Rectangle 2798" width="22.892" height="10.146" fill="none"/>
    </clipPath>
    <clipPath id="clip-path-22">
      <rect id="Rectangle_2799" data-name="Rectangle 2799" width="21.255" height="9.36" fill="none"/>
    </clipPath>
    <clipPath id="clip-path-24">
      <rect id="Rectangle_2800" data-name="Rectangle 2800" width="22.892" height="9.721" fill="none"/>
    </clipPath>
    <clipPath id="clip-path-26">
      <rect id="Rectangle_2801" data-name="Rectangle 2801" width="22.01" height="9.721" fill="none"/>
    </clipPath>
  </defs>
  <g id="Group_41" data-name="Group 41" transform="translate(-232 -158)" clip-path="url(#clip-path)">
    <circle id="Ellipse_130" data-name="Ellipse 130" cx="54.5" cy="54.5" r="54.5" transform="translate(232 158)" fill="#6b9e78"/>
    <g id="Group_7730" data-name="Group 7730" transform="translate(216.959 175.097)">
      <g id="Group_7731" data-name="Group 7731" transform="translate(114.882 13.561)">
        <g id="Group_7730-2" data-name="Group 7730" clip-path="url(#clip-path-2)">
          <path id="Path_12702" data-name="Path 12702" d="M290.286,7.729a11.067,11.067,0,0,0-10.923,11.2,10.927,10.927,0,1,0,21.847,0,11.067,11.067,0,0,0-10.923-11.2m0,2.649a8.449,8.449,0,0,0-8.339,8.547,8.341,8.341,0,1,0,16.678.4q.005-.2,0-.4a8.449,8.449,0,0,0-8.339-8.547" transform="translate(-279.363 -20.611)" fill="#60517a" fill-rule="evenodd"/>
        </g>
      </g>
      <g id="Group_7733" data-name="Group 7733" transform="translate(16.095 3.373)">
        <g id="Group_7732" data-name="Group 7732" clip-path="url(#clip-path-3)">
          <path id="Path_12704" data-name="Path 12704" d="M80.563,35.671a11.068,11.068,0,0,1-10.923-11.2,10.927,10.927,0,1,1,21.847,0,11.068,11.068,0,0,1-10.923,11.2m0-2.649A8.549,8.549,0,1,1,88.9,24.265c0,.07,0,.14,0,.211a8.449,8.449,0,0,1-8.339,8.547" transform="translate(-72.626 -13.28)" fill="#60517a" fill-rule="evenodd"/>
        </g>
      </g>
      <g id="Group_7737" data-name="Group 7737" transform="translate(70.052 12.882)">
        <g id="Group_7736" data-name="Group 7736" clip-path="url(#clip-path-4)">
          <path id="Path_12708" data-name="Path 12708" d="M198.417,6.329a11.323,11.323,0,0,0-11.434,11.2,11.437,11.437,0,0,0,22.869,0,11.323,11.323,0,0,0-11.434-11.2m0,2.523a8.771,8.771,0,0,0-8.858,8.673,8.86,8.86,0,0,0,17.716,0,8.771,8.771,0,0,0-8.858-8.673" transform="translate(-186.983 -19.21)" fill="#60517a" fill-rule="evenodd"/>
        </g>
      </g>
      <g id="Group_7739" data-name="Group 7739" transform="translate(0 0)">
        <g id="Group_12130" data-name="Group 12130">
          <path id="Path_14835" data-name="Path 14835" d="M141.727,24.334A7.869,7.869,0,1,0,149.6,32.2a7.869,7.869,0,0,0-7.869-7.87" transform="translate(-89.586 -15.597)" fill="#f2617a" stroke="#fff" stroke-width="1" fill-rule="evenodd"/>
          <path id="Path_14836" data-name="Path 14836" d="M234.651,23.078a7.869,7.869,0,1,0,7.869,7.869,7.869,7.869,0,0,0-7.869-7.869" transform="translate(-137.416 -14.95)" fill="#153c4d" stroke="#fff" stroke-width="1" fill-rule="evenodd"/>
          <path id="Path_12709" data-name="Path 12709" d="M141.727,24.334A7.869,7.869,0,1,0,149.6,32.2a7.869,7.869,0,0,0-7.869-7.87" transform="translate(-89.586 -15.597)" fill="#f2617a" fill-rule="evenodd"/>
          <path id="Path_12710" data-name="Path 12710" d="M146.517,28.622a3.353,3.353,0,1,0,3.353,3.353,3.353,3.353,0,0,0-3.353-3.353" transform="translate(-94.376 -17.804)" fill="#60517a" fill-rule="evenodd"/>
          <path id="Path_12711" data-name="Path 12711" d="M120.717,63.888a7.126,7.126,0,0,1,7.123-7.122h14.246a7.126,7.126,0,0,1,7.123,7.123V95.039H120.717Z" transform="translate(-82.822 -32.29)" fill="#f2617a" fill-rule="evenodd"/>
          <path id="Path_12712" data-name="Path 12712" d="M104.494,24.334a7.869,7.869,0,1,0,7.869,7.87,7.869,7.869,0,0,0-7.869-7.87" transform="translate(-70.42 -15.597)" fill="#153c4d" fill-rule="evenodd"/>
          <path id="Path_12713" data-name="Path 12713" d="M109.284,28.622a3.353,3.353,0,1,0,3.353,3.353,3.353,3.353,0,0,0-3.353-3.353" transform="translate(-75.211 -17.804)" fill="#60517a" fill-rule="evenodd"/>
          <path id="Path_12714" data-name="Path 12714" d="M83.484,63.888a7.126,7.126,0,0,1,7.123-7.122h14.246a7.126,7.126,0,0,1,7.123,7.123V95.039H83.484Z" transform="translate(-63.657 -32.29)" fill="#153c4d" fill-rule="evenodd"/>
          <path id="Path_12715" data-name="Path 12715" d="M125.929,57.3a7.131,7.131,0,0,1,5.212,6.863V95.315H120.717V64.164a7.131,7.131,0,0,1,5.212-6.863" transform="translate(-82.822 -32.566)" fill="#153c4d" fill-rule="evenodd"/>
          <path id="Path_12716" data-name="Path 12716" d="M271.883,23.078a7.869,7.869,0,1,0,7.869,7.869,7.869,7.869,0,0,0-7.869-7.869" transform="translate(-156.581 -14.95)" fill="#e16b7c" fill-rule="evenodd"/>
          <path id="Path_12717" data-name="Path 12717" d="M276.673,27.366a3.353,3.353,0,1,0,3.353,3.353,3.353,3.353,0,0,0-3.353-3.353" transform="translate(-161.371 -17.157)" fill="#60517a" fill-rule="evenodd"/>
          <path id="Path_12718" data-name="Path 12718" d="M250.873,62.632A7.126,7.126,0,0,1,258,55.509h14.246a7.126,7.126,0,0,1,7.123,7.123V93.783H250.873Z" transform="translate(-149.817 -31.643)" fill="#e16b7c" fill-rule="evenodd"/>
          <path id="Path_12719" data-name="Path 12719" d="M234.651,23.078a7.869,7.869,0,1,0,7.869,7.869,7.869,7.869,0,0,0-7.869-7.869" transform="translate(-137.416 -14.95)" fill="#153c4d" fill-rule="evenodd"/>
          <path id="Path_12720" data-name="Path 12720" d="M239.441,27.366a3.353,3.353,0,1,0,3.353,3.353,3.353,3.353,0,0,0-3.353-3.353" transform="translate(-142.206 -17.157)" fill="#60517a" fill-rule="evenodd"/>
          <path id="Path_12721" data-name="Path 12721" d="M213.641,62.632a7.126,7.126,0,0,1,7.123-7.123H235.01a7.126,7.126,0,0,1,7.123,7.123V93.783H213.641Z" transform="translate(-130.652 -31.643)" fill="#153c4d" fill-rule="evenodd"/>
          <path id="Path_12722" data-name="Path 12722" d="M256.086,56.047A7.131,7.131,0,0,1,261.3,62.91V94.061H250.874V62.908a7.131,7.131,0,0,1,5.212-6.863" transform="translate(-149.817 -31.919)" fill="#153c4d" fill-rule="evenodd"/>
        </g>
      </g>
      <g id="Group_7741" data-name="Group 7741" transform="translate(64.992 26.33)">
        <g id="Group_7740" data-name="Group 7740" clip-path="url(#clip-path-5)">
          <path id="Path_12724" data-name="Path 12724" d="M187.044,81.383a10.4,10.4,0,1,0-10.489-10.4,10.4,10.4,0,0,0,10.489,10.4m0-2.46a7.938,7.938,0,1,0-8.007-7.938,7.937,7.937,0,0,0,8.007,7.938" transform="translate(-176.555 -60.588)" fill="#60517a" fill-rule="evenodd"/>
        </g>
      </g>
      <g id="Group_12131" data-name="Group 12131" transform="translate(50.558 4.311)">
        <g id="Group_7740-2" data-name="Group 7740" clip-path="url(#clip-path-6)">
          <path id="Path_12724-2" data-name="Path 12724" d="M188,83.272a11.342,11.342,0,1,0-11.442-11.342A11.343,11.343,0,0,0,188,83.272m0-2.684a8.659,8.659,0,1,0-8.734-8.659A8.658,8.658,0,0,0,188,80.589" transform="translate(-176.555 -60.588)" fill="#60517a" fill-rule="evenodd"/>
        </g>
      </g>
      <g id="Group_12132" data-name="Group 12132" transform="translate(95.781 4.311)">
        <g id="Group_7740-3" data-name="Group 7740" clip-path="url(#clip-path-6)">
          <path id="Path_12724-3" data-name="Path 12724" d="M188,83.272a11.342,11.342,0,1,0-11.442-11.342A11.343,11.343,0,0,0,188,83.272m0-2.684a8.659,8.659,0,1,0-8.734-8.659A8.658,8.658,0,0,0,188,80.589" transform="translate(-176.555 -60.588)" fill="#60517a" fill-rule="evenodd"/>
        </g>
      </g>
      <g id="Group_7743" data-name="Group 7743" transform="translate(32.644 14.357)">
        <g id="Group_7742" data-name="Group 7742" clip-path="url(#clip-path-8)">
          <path id="Path_12725" data-name="Path 12725" d="M120.412,9.369c5.8,0,10.516,5.016,10.516,11.2s-4.712,11.2-10.516,11.2S109.9,26.743,109.9,20.564s4.712-11.2,10.516-11.2m0,2.649a8.3,8.3,0,0,1,8.028,8.547,8.044,8.044,0,1,1-16.056,0,8.3,8.3,0,0,1,8.028-8.547" transform="translate(-109.896 -22.251)" fill="#60517a" fill-rule="evenodd"/>
        </g>
      </g>
      <g id="Group_7745" data-name="Group 7745" transform="translate(0 0)">
        <g id="Group_7744" data-name="Group 7744" clip-path="url(#clip-path-9)">
          <path id="Path_12726" data-name="Path 12726" d="M171.083,70.272a7.869,7.869,0,1,1-7.869,7.869,7.869,7.869,0,0,1,7.869-7.869" transform="translate(-104.696 -39.242)" fill="#153c4d" fill-rule="evenodd"/>
          <path id="Path_12727" data-name="Path 12727" d="M175.873,76.156a3.353,3.353,0,1,1-3.353,3.354h0a3.355,3.355,0,0,1,3.353-3.353" transform="translate(-109.486 -42.271)" fill="#60517a" fill-rule="evenodd"/>
          <path id="Path_12728" data-name="Path 12728" d="M178.565,111.793c0-5.017-3.192-9.09-7.123-9.09H157.2c-3.931,0-7.123,4.073-7.123,9.09v44.643h28.492Z" transform="translate(-97.932 -55.935)" fill="#153c4d" fill-rule="evenodd"/>
          <path id="Path_12729" data-name="Path 12729" d="M208.319,70.272a7.869,7.869,0,1,1-7.869,7.869,7.869,7.869,0,0,1,7.869-7.869" transform="translate(-123.862 -39.242)" fill="#153c4d" fill-rule="evenodd"/>
          <path id="Path_12730" data-name="Path 12730" d="M213.106,76.156a3.353,3.353,0,1,1-3.353,3.353,3.353,3.353,0,0,1,3.353-3.353" transform="translate(-128.651 -42.271)" fill="#60517a" fill-rule="evenodd"/>
          <path id="Path_12731" data-name="Path 12731" d="M215.8,111.793c0-5.017-3.192-9.09-7.123-9.09H194.43c-3.931,0-7.123,4.073-7.123,9.09v44.643H215.8Z" transform="translate(-117.097 -55.935)" fill="#153c4d" fill-rule="evenodd"/>
          <path id="Path_12732" data-name="Path 12732" d="M192.519,103.236c-3,1.068-5.212,4.591-5.212,8.767v44.706h10.424V112c0-4.176-2.208-7.7-5.212-8.767" transform="translate(-117.097 -56.209)" fill="#153c4d" fill-rule="evenodd"/>
        </g>
      </g>
      <g id="Group_7747" data-name="Group 7747" transform="translate(82.989 36.464)">
        <g id="Group_7746" data-name="Group 7746" clip-path="url(#clip-path-10)">
          <path id="Path_12734" data-name="Path 12734" d="M225.758,53.5A11.8,11.8,0,1,1,213.641,65.3,11.964,11.964,0,0,1,225.758,53.5m0,2.386a9.412,9.412,0,1,1-9.666,9.408,9.544,9.544,0,0,1,9.666-9.408" transform="translate(-213.641 -67.076)" fill="#60517a" fill-rule="evenodd"/>
        </g>
      </g>
      <g id="Group_7749" data-name="Group 7749" transform="translate(44.261 37.238)">
        <g id="Group_7748" data-name="Group 7748" clip-path="url(#clip-path-11)">
          <path id="Path_12735" data-name="Path 12735" d="M145.748,54.057a12.238,12.238,0,1,1-11.914,12.234,12.084,12.084,0,0,1,11.914-12.234m0,2.834a9.4,9.4,0,1,1-9.151,9.648c0-.082,0-.165,0-.248a9.284,9.284,0,0,1,9.155-9.4" transform="translate(-133.834 -68.134)" fill="#60517a" fill-rule="evenodd"/>
        </g>
      </g>
      <g id="Group_7751" data-name="Group 7751" transform="translate(20.807 26.33)">
        <g id="Group_7750" data-name="Group 7750" clip-path="url(#clip-path-12)">
          <path id="Path_12736" data-name="Path 12736" d="M98.76,86.272A12.849,12.849,0,1,0,85.5,73.43,13.061,13.061,0,0,0,98.76,86.272m0-2.64a10.208,10.208,0,1,0-10.53-10.2,10.375,10.375,0,0,0,10.53,10.2" transform="translate(-85.502 -60.587)" fill="#60517a" fill-rule="evenodd"/>
        </g>
      </g>
      <g id="Group_7753" data-name="Group 7753" transform="translate(104.485 26.33)">
        <g id="Group_7752" data-name="Group 7752" clip-path="url(#clip-path-13)">
          <path id="Path_12737" data-name="Path 12737" d="M269.579,84.45a11.935,11.935,0,1,0-11.641-11.931A11.795,11.795,0,0,0,269.579,84.45m0-2.491a9.443,9.443,0,1,0-9.208-9.673c0,.078,0,.155,0,.232a9.332,9.332,0,0,0,9.211,9.44" transform="translate(-257.938 -60.587)" fill="#60517a" fill-rule="evenodd"/>
        </g>
      </g>
      <g id="Group_7755" data-name="Group 7755" transform="translate(0 0)">
        <g id="Group_7754" data-name="Group 7754" clip-path="url(#clip-path-9)">
          <path id="Path_12738" data-name="Path 12738" d="M304.25,70.272a7.869,7.869,0,1,1-7.869,7.869,7.869,7.869,0,0,1,7.869-7.869" transform="translate(-173.241 -39.242)" fill="#5e9fab" fill-rule="evenodd"/>
          <path id="Path_12739" data-name="Path 12739" d="M309.04,76.156a3.353,3.353,0,1,1-3.353,3.353,3.353,3.353,0,0,1,3.353-3.353" transform="translate(-178.031 -42.271)" fill="#60517a" fill-rule="evenodd"/>
          <path id="Path_12740" data-name="Path 12740" d="M311.733,111.793c0-5.017-3.192-9.09-7.123-9.09H290.364c-3.931,0-7.123,4.073-7.123,9.09v44.643h28.492Z" transform="translate(-166.477 -55.935)" fill="#5e9fab" fill-rule="evenodd"/>
        </g>
      </g>
      <g id="Group_7757" data-name="Group 7757" transform="translate(76.864 46.768)">
        <g id="Group_7756" data-name="Group 7756" clip-path="url(#clip-path-15)">
          <path id="Path_12742" data-name="Path 12742" d="M212.524,125.181a11.242,11.242,0,1,0-11.5-11.239,11.377,11.377,0,0,0,11.5,11.239m0-2.659a8.582,8.582,0,1,0-8.781-8.58,8.687,8.687,0,0,0,8.781,8.58" transform="translate(-201.022 -102.703)" fill="#60517a" fill-rule="evenodd"/>
        </g>
      </g>
      <g id="Group_7759" data-name="Group 7759" transform="translate(52.848 56.227)">
        <g id="Group_7758" data-name="Group 7758" clip-path="url(#clip-path-16)">
          <path id="Path_12743" data-name="Path 12743" d="M165.066,93.871c7.473,0,13.539,5.353,13.539,11.945s-6.066,11.945-13.539,11.945-13.539-5.353-13.539-11.945,6.066-11.945,13.539-11.945m0,2.4c5.969,0,10.813,4.275,10.813,9.541s-4.845,9.542-10.813,9.542-10.813-4.275-10.813-9.541,4.845-9.541,10.813-9.541" transform="translate(-151.528 -107.616)" fill="#60517a" fill-rule="evenodd"/>
        </g>
      </g>
      <g id="Group_7761" data-name="Group 7761" transform="translate(0 0)">
        <g id="Group_7760" data-name="Group 7760" clip-path="url(#clip-path-9)">
          <path id="Path_12744" data-name="Path 12744" d="M74.388,70.272a7.869,7.869,0,1,1-7.869,7.869,7.869,7.869,0,0,1,7.869-7.869" transform="translate(-54.924 -39.242)" fill="#5e9fab" fill-rule="evenodd"/>
          <path id="Path_12745" data-name="Path 12745" d="M79.178,76.156a3.353,3.353,0,1,1-3.353,3.353,3.353,3.353,0,0,1,3.353-3.353" transform="translate(-59.714 -42.271)" fill="#60517a" fill-rule="evenodd"/>
          <path id="Path_12746" data-name="Path 12746" d="M81.87,111.793c0-5.017-3.192-9.09-7.123-9.09H60.5c-3.931,0-7.123,4.073-7.123,9.09v44.643H81.87Z" transform="translate(-48.16 -55.935)" fill="#5e9fab" fill-rule="evenodd"/>
        </g>
      </g>
      <g id="Group_7763" data-name="Group 7763" transform="translate(0 35.501)">
        <g id="Group_7762" data-name="Group 7762" clip-path="url(#clip-path-18)">
          <path id="Path_12748" data-name="Path 12748" d="M53.385,51.322c5.938,0,10.759,5.322,10.759,11.878S59.324,75.077,53.385,75.077,42.627,69.755,42.627,63.2s4.821-11.878,10.759-11.878m0,2.81c4.533,0,8.213,4.063,8.213,9.067s-3.68,9.067-8.213,9.067S45.172,68.2,45.172,63.2s3.68-9.067,8.213-9.067" transform="translate(-42.627 -64.989)" fill="#60517a" fill-rule="evenodd"/>
        </g>
      </g>
      <g id="Group_7765" data-name="Group 7765" transform="translate(129.549 36.393)">
        <g id="Group_7764" data-name="Group 7764" clip-path="url(#clip-path-19)">
          <path id="Path_12749" data-name="Path 12749" d="M320.347,53.162c5.938,0,10.759,5.322,10.759,11.878s-4.821,11.878-10.759,11.878S309.588,71.6,309.588,65.04s4.821-11.878,10.759-11.878m0,2.81c4.533,0,8.213,4.063,8.213,9.067s-3.68,9.067-8.213,9.067-8.213-4.063-8.213-9.067,3.68-9.067,8.213-9.067" transform="translate(-309.588 -66.829)" fill="#60517a" fill-rule="evenodd"/>
        </g>
      </g>
      <g id="Group_7767" data-name="Group 7767" transform="translate(10.052 54.357)">
        <g id="Group_7766" data-name="Group 7766" clip-path="url(#clip-path-20)">
          <path id="Path_12751" data-name="Path 12751" d="M74.79,90.017a11.957,11.957,0,1,1-11.446,11.946A11.709,11.709,0,0,1,74.79,90.017m0,2.986a8.967,8.967,0,1,1-8.584,8.959A8.782,8.782,0,0,1,74.79,93" transform="translate(-63.342 -103.762)" fill="#60517a" fill-rule="evenodd"/>
        </g>
      </g>
      <g id="Group_7769" data-name="Group 7769" transform="translate(0 0)">
        <g id="Group_7768" data-name="Group 7768" clip-path="url(#clip-path-9)">
          <path id="Path_12752" data-name="Path 12752" d="M103.745,102.124a7.869,7.869,0,1,1-7.869,7.869v0a7.873,7.873,0,0,1,7.869-7.869" transform="translate(-70.035 -55.636)" fill="#60517a" fill-rule="evenodd"/>
          <path id="Path_12753" data-name="Path 12753" d="M108.535,108.544a3.353,3.353,0,1,1-3.353,3.353h0a3.355,3.355,0,0,1,3.353-3.353" transform="translate(-74.825 -58.942)" fill="#60517a" fill-rule="evenodd"/>
          <path id="Path_12754" data-name="Path 12754" d="M111.227,141.679a7.126,7.126,0,0,0-7.123-7.124H89.858a7.126,7.126,0,0,0-7.123,7.123v31.151h28.492Z" transform="translate(-63.271 -72.331)" fill="#60517a" fill-rule="evenodd"/>
          <path id="Path_12755" data-name="Path 12755" d="M140.976,102.126a7.869,7.869,0,1,1-7.868,7.87v0a7.872,7.872,0,0,1,7.868-7.867" transform="translate(-89.2 -55.638)" fill="#6b9e78" fill-rule="evenodd"/>
          <path id="Path_12756" data-name="Path 12756" d="M145.767,106.414a3.353,3.353,0,1,1-3.353,3.353h0a3.355,3.355,0,0,1,3.353-3.353" transform="translate(-93.99 -57.846)" fill="#60517a" fill-rule="evenodd"/>
          <path id="Path_12757" data-name="Path 12757" d="M148.458,141.679a7.126,7.126,0,0,0-7.121-7.124H127.091a7.126,7.126,0,0,0-7.123,7.123v31.151h28.49Z" transform="translate(-82.436 -72.331)" fill="#6b9e78" fill-rule="evenodd"/>
        </g>
      </g>
      <g id="Group_7771" data-name="Group 7771" transform="translate(30.951 44.923)">
        <g id="Group_7770" data-name="Group 7770" clip-path="url(#clip-path-22)">
          <path id="Path_12759" data-name="Path 12759" d="M117.034,120.943a11.028,11.028,0,1,0-10.627-11.021,10.835,10.835,0,0,0,10.627,11.021m0-2.755a8.271,8.271,0,1,0-7.971-8.266,8.126,8.126,0,0,0,7.971,8.266" transform="translate(-106.407 -98.901)" fill="#60517a" fill-rule="evenodd"/>
        </g>
      </g>
      <g id="Group_7773" data-name="Group 7773" transform="translate(0 0)">
        <g id="Group_7772" data-name="Group 7772" clip-path="url(#clip-path-9)">
          <path id="Path_12760" data-name="Path 12760" d="M125.18,135.093a7.131,7.131,0,0,0-5.212,6.863v31.151h10.424V141.956a7.131,7.131,0,0,0-5.212-6.863" transform="translate(-82.436 -72.607)" fill="#60517a" fill-rule="evenodd"/>
        </g>
      </g>
      <g id="Group_7775" data-name="Group 7775" transform="translate(115.986 43.724)">
        <g id="Group_7774" data-name="Group 7774" clip-path="url(#clip-path-24)">
          <path id="Path_12762" data-name="Path 12762" d="M293.085,119.323a11.446,11.446,0,1,0-11.446-11.446,11.446,11.446,0,0,0,11.446,11.446m0-2.863a8.584,8.584,0,1,0-8.584-8.584,8.584,8.584,0,0,0,8.584,8.584" transform="translate(-281.639 -96.431)" fill="#60517a" fill-rule="evenodd"/>
        </g>
      </g>
      <g id="Group_7777" data-name="Group 7777" transform="translate(0 0)">
        <g id="Group_7776" data-name="Group 7776" clip-path="url(#clip-path-9)">
          <path id="Path_12763" data-name="Path 12763" d="M274.992,102.126A7.869,7.869,0,1,0,282.861,110a7.869,7.869,0,0,0-7.869-7.869" transform="translate(-158.181 -55.638)" fill="#60517a" fill-rule="evenodd"/>
          <path id="Path_12764" data-name="Path 12764" d="M279.783,106.414a3.353,3.353,0,1,0,3.353,3.353h0a3.355,3.355,0,0,0-3.353-3.353" transform="translate(-162.971 -57.846)" fill="#60517a" fill-rule="evenodd"/>
          <path id="Path_12765" data-name="Path 12765" d="M253.983,141.68a7.126,7.126,0,0,1,7.123-7.123h14.246a7.126,7.126,0,0,1,7.123,7.123v31.151H253.983Z" transform="translate(-151.417 -72.332)" fill="#60517a" fill-rule="evenodd"/>
          <path id="Path_12766" data-name="Path 12766" d="M237.76,102.126A7.869,7.869,0,1,0,245.629,110a7.869,7.869,0,0,0-7.869-7.869" transform="translate(-139.017 -55.638)" fill="#6b9e78" fill-rule="evenodd"/>
          <path id="Path_12767" data-name="Path 12767" d="M242.55,106.414a3.353,3.353,0,1,0,3.353,3.353h0a3.355,3.355,0,0,0-3.353-3.353" transform="translate(-143.807 -57.846)" fill="#60517a" fill-rule="evenodd"/>
          <path id="Path_12768" data-name="Path 12768" d="M216.75,141.68a7.126,7.126,0,0,1,7.123-7.123h14.246a7.126,7.126,0,0,1,7.123,7.123v31.151H216.75Z" transform="translate(-132.253 -72.332)" fill="#6b9e78" fill-rule="evenodd"/>
          <path id="Path_12769" data-name="Path 12769" d="M259.195,135.093a7.131,7.131,0,0,1,5.212,6.863v31.151H253.983V141.956a7.131,7.131,0,0,1,5.212-6.863" transform="translate(-151.417 -72.607)" fill="#60517a" fill-rule="evenodd"/>
        </g>
      </g>
      <g id="Group_7779" data-name="Group 7779" transform="translate(96.857 51.881)">
        <g id="Group_7778" data-name="Group 7778" clip-path="url(#clip-path-26)">
          <path id="Path_12771" data-name="Path 12771" d="M253.225,86.1A11.455,11.455,0,1,1,242.22,97.546,11.237,11.237,0,0,1,253.225,86.1m0,2.863a8.591,8.591,0,1,1-8.254,8.584,8.428,8.428,0,0,1,8.254-8.584" transform="translate(-242.22 -99.27)" fill="#60517a" fill-rule="evenodd"/>
        </g>
      </g>
    </g>
  </g>
</svg>
