<svg xmlns="http://www.w3.org/2000/svg" width="35.977" height="39.976" viewBox="0 0 35.977 39.976">
  <g id="WX4ybx" transform="translate(-2423.719 -149.252)">
    <g id="Group_12823" data-name="Group 12823" transform="translate(2423.719 149.252)">
      <path id="Path_18996" data-name="Path 18996" d="M2452.606,279.5a3.328,3.328,0,0,1,5.726,1.829,3.282,3.282,0,0,1-.531,2.315c.229.267.438.51.647.752a5.031,5.031,0,0,1,1.242,3.314,5.754,5.754,0,0,1-.054,1.172,1.95,1.95,0,0,1-1.932,1.558q-2.041.006-4.082,0a.249.249,0,0,0-.274.17,11.969,11.969,0,0,1-16.639,5.731c-.175-.094-.347-.192-.531-.294-.2.247-.395.486-.588.727q-2.573,3.19-5.147,6.378a3.383,3.383,0,0,1-3.7,1.152,4,4,0,0,1-3.018-4.124,3.293,3.293,0,0,1,1.267-2.459q3.494-2.817,6.986-5.635c.1-.081.118-.137.053-.255-.227-.411-.442-.829-.65-1.25a.215.215,0,0,0-.228-.138q-2.024.005-4.049,0a2,2,0,0,1-2.06-2.05,6.871,6.871,0,0,1,.24-2.182,4.94,4.94,0,0,1,1.594-2.376c.038-.031.074-.065.12-.106a3.327,3.327,0,0,1-.512-2.783,3.276,3.276,0,0,1,1.209-1.815,3.338,3.338,0,0,1,4.441.374,12.045,12.045,0,0,1,20.468,0Zm-10.213-4.385a10.663,10.663,0,1,0,10.641,10.721A10.667,10.667,0,0,0,2442.393,275.111Zm-9.524,17.963c-.056.042-.1.071-.134.1l-6.931,5.6a1.939,1.939,0,0,0-.668,1.025,2.664,2.664,0,0,0,2.139,3.259,2.173,2.173,0,0,0,2.2-.829c1.738-2.172,3.491-4.33,5.239-6.495.117-.145.233-.292.358-.45A12.461,12.461,0,0,1,2432.869,293.074Zm-2.456-8.031a.556.556,0,0,0-.075,0,3.373,3.373,0,0,1-2.233-.343.256.256,0,0,0-.216.034,3.53,3.53,0,0,0-1.266,1.662,5.146,5.146,0,0,0-.251,1.976.679.679,0,0,0,.733.735q1.782,0,3.564,0c.057,0,.114-.009.181-.014A11.728,11.728,0,0,1,2430.414,285.044Zm23.92.009a11.693,11.693,0,0,1-.44,4.041c.065.006.107.014.15.014q1.816,0,3.633,0a.663.663,0,0,0,.692-.69,9.177,9.177,0,0,0-.034-1.109,3.6,3.6,0,0,0-1.455-2.563.237.237,0,0,0-.3-.025,3.137,3.137,0,0,1-1.561.382C2454.8,285.095,2454.574,285.07,2454.333,285.052Zm.769-5.277a2.02,2.02,0,0,0-1.738.912.246.246,0,0,0-.02.273,11.074,11.074,0,0,1,.76,2.379.382.382,0,0,0,.3.336,1.917,1.917,0,0,0,2.09-.546,1.871,1.871,0,0,0,.37-2.139A1.929,1.929,0,0,0,2455.1,279.776Zm-25.381,0a2,2,0,1,0,.71,3.862.283.283,0,0,0,.2-.235,11.609,11.609,0,0,1,.78-2.46.223.223,0,0,0-.017-.243A1.981,1.981,0,0,0,2429.721,279.779Z" transform="translate(-2423.719 -264.459)" fill="#939393"/>
      <path id="Path_18997" data-name="Path 18997" d="M2614.823,149.252q.97,0,1.94,0a.649.649,0,0,1,.7.7c0,.58,0,1.161,0,1.741,0,.212,0,.213.22.213.354,0,.708,0,1.062,0a.673.673,0,0,1,.492,1.181q-1.965,1.964-3.929,3.928a.67.67,0,0,1-1,0q-1.965-1.964-3.929-3.928a.662.662,0,0,1-.188-.753.654.654,0,0,1,.667-.423c.371,0,.741-.008,1.111,0,.152,0,.185-.048.183-.189-.007-.575,0-1.15,0-1.725a.67.67,0,0,1,.749-.745Zm2.331,3.984h-.242a.676.676,0,0,1-.767-.761c0-.575,0-1.15,0-1.726,0-.136-.036-.18-.176-.179-.78.006-1.56,0-2.339,0-.048,0-.1.007-.16.012v.19c0,.575,0,1.15,0,1.725a.668.668,0,0,1-.728.734h-.291l2.347,2.345Z" transform="translate(-2596.157 -149.252)" fill="#939393"/>
      <path id="Path_18998" data-name="Path 18998" d="M2762.517,221.248c0,.166.005.332,0,.5a.66.66,0,0,1-1.318,0c-.008-.332-.007-.664,0-1a.659.659,0,0,1,1.318,0C2762.521,220.916,2762.517,221.082,2762.517,221.248Z" transform="translate(-2735.873 -214.789)" fill="#939393"/>
      <path id="Path_18999" data-name="Path 18999" d="M2567.051,221.244c0,.166.007.332,0,.5a.662.662,0,0,1-1.322,0c-.011-.326-.011-.653,0-.979a.661.661,0,0,1,1.322,0c.008.16,0,.321,0,.481Z" transform="translate(-2555.065 -214.79)" fill="#939393"/>
      <path id="Path_19000" data-name="Path 19000" d="M2504.761,283.659c-.155,0-.31,0-.465,0a.658.658,0,0,1-.659-.636.648.648,0,0,1,.608-.682,9.312,9.312,0,0,1,1.061,0,.661.661,0,0,1-.048,1.317C2505.093,283.664,2504.927,283.659,2504.761,283.659Z" transform="translate(-2497.641 -272.342)" fill="#939393"/>
      <path id="Path_19001" data-name="Path 19001" d="M2812.006,283.659c-.16,0-.321,0-.481,0a.637.637,0,0,1-.638-.648.626.626,0,0,1,.6-.67,9.509,9.509,0,0,1,1.061,0,.641.641,0,0,1,.6.686.648.648,0,0,1-.642.632C2812.337,283.664,2812.171,283.659,2812.006,283.659Z" transform="translate(-2781.838 -272.342)" fill="#939393"/>
      <path id="Path_19002" data-name="Path 19002" d="M2524.806,242.182a1.916,1.916,0,0,1-.369-.2,6.064,6.064,0,0,1-.507-.5.663.663,0,0,1-.015-.916.651.651,0,0,1,.912-.047,6.851,6.851,0,0,1,.585.585.586.586,0,0,1,.086.681A.709.709,0,0,1,2524.806,242.182Z" transform="translate(-2516.235 -233.517)" fill="#939393"/>
      <path id="Path_19003" data-name="Path 19003" d="M2798.448,241.056a1.764,1.764,0,0,1-.193.368,4.956,4.956,0,0,1-.488.5.662.662,0,1,1-.935-.937,6.831,6.831,0,0,1,.546-.53.612.612,0,0,1,.7-.076A.7.7,0,0,1,2798.448,241.056Z" transform="translate(-2768.641 -233.47)" fill="#939393"/>
      <path id="Path_19004" data-name="Path 19004" d="M2557.4,309.062a9.326,9.326,0,1,1-9.333,9.177A9.331,9.331,0,0,1,2557.4,309.062Zm-8.011,9.333a8,8,0,1,0,7.987-8.009A8,8,0,0,0,2549.387,318.395Z" transform="translate(-2538.734 -297.072)" fill="#939393"/>
      <path id="Path_19005" data-name="Path 19005" d="M2611.971,349.908a3.338,3.338,0,1,1,5.43,0c.042.037.085.077.13.115a4.933,4.933,0,0,1,1.793,3.52,7.852,7.852,0,0,1,.008,1.259,1.968,1.968,0,0,1-1.993,1.815h-5.226a1.968,1.968,0,0,1-2.081-1.9,6.133,6.133,0,0,1,.235-2.346,4.94,4.94,0,0,1,1.6-2.371C2611.9,349.974,2611.932,349.943,2611.971,349.908Zm2.719,5.39h.431c.724,0,1.449,0,2.174,0a.673.673,0,0,0,.721-.713c0-.249.01-.5,0-.747a3.675,3.675,0,0,0-1.485-2.91.239.239,0,0,0-.3-.025,3.266,3.266,0,0,1-3.12-.012.207.207,0,0,0-.252.022,3.634,3.634,0,0,0-1.264,1.668,5.036,5.036,0,0,0-.249,1.928.7.7,0,0,0,.785.789Zm0-5.335a2,2,0,1,0-2.006-1.987A2.012,2.012,0,0,0,2614.693,349.962Z" transform="translate(-2596.033 -329.974)" fill="#939393"/>
    </g>
  </g>
</svg>
