<svg xmlns="http://www.w3.org/2000/svg" width="36.598" height="40.305" viewBox="0 0 36.598 40.305">
  <g id="Group_12822" data-name="Group 12822" transform="translate(2012.898 -18.57)">
    <path id="Path_18987" data-name="Path 18987" d="M-1859.708,337.828" transform="translate(-137.035 -285.955)" fill="#939393" stroke="#939393" stroke-miterlimit="10" stroke-width="0.75"/>
    <g id="lvBIwi.tif" transform="translate(-2012.523 18.945)">
      <g id="Group_12821" data-name="Group 12821" transform="translate(0 0)">
        <path id="Path_18988" data-name="Path 18988" d="M-1949.506,18.945c.16.043.323.079.48.129a2.317,2.317,0,0,1,1.616,2.3,2.357,2.357,0,0,1-1.845,2.234,2.288,2.288,0,0,1-2.55-1.225c-.075-.141-.133-.29-.212-.462a16.622,16.622,0,0,0-5.346,1.634,17.027,17.027,0,0,0-4.541,3.3l-.653-.681a17.89,17.89,0,0,1,10.48-5.173c.012-.051.025-.1.036-.156a2.288,2.288,0,0,1,1.944-1.865.665.665,0,0,0,.112-.04Zm-.252,3.817a1.47,1.47,0,0,0,1.445-1.464,1.484,1.484,0,0,0-1.456-1.435,1.442,1.442,0,0,0-1.449,1.451A1.469,1.469,0,0,0-1949.758,22.762Z" transform="translate(1967.718 -18.945)" fill="#939393" stroke="#939393" stroke-width="0.75"/>
        <path id="Path_18989" data-name="Path 18989" d="M-1927.453,203.825h-3.018c.043.71.085,1.4.127,2.1h-17.324c.039-.694.078-1.384.117-2.094h-3.078c.016-.289.019-.557.046-.822.123-1.186.214-2.377.392-3.555a3.265,3.265,0,0,1,1.711-2.5,4.769,4.769,0,0,1,.669-.259c.729-.263,1.46-.523,2.21-.791l1.031,1.991,2.531-.9c.048.083.094.157.135.233q1.149,2.134,2.294,4.27a.393.393,0,0,0,.346.221c.479.075.711-.135.923-.552.675-1.325,1.4-2.626,2.1-3.935.041-.076.086-.15.138-.239.76.272,1.514.535,2.261.815.2.076.3.057.4-.151.281-.583.587-1.153.9-1.75.248.084.488.163.726.246.476.166.944.357,1.427.5a3.162,3.162,0,0,1,2.392,2.574c.169.845.269,1.705.371,2.562C-1927.545,202.452-1927.51,203.123-1927.453,203.825Zm-19.307,1.134h15.308c-.067-.7-.121-1.373-.2-2.048a7.539,7.539,0,0,0-.623-2.885,2.132,2.132,0,0,0-1.02-1.007c-.794-.332-1.617-.593-2.437-.887-.057.1-.1.175-.142.251-.726,1.362-1.455,2.723-2.174,4.088a.329.329,0,0,1-.35.207q-.708-.02-1.417,0a.315.315,0,0,1-.331-.2q-1.087-2.058-2.187-4.109c-.04-.075-.087-.146-.135-.226-.653.243-1.284.494-1.926.713a2.884,2.884,0,0,0-1.981,2.558c-.073.5-.142,1-.2,1.5C-1946.641,203.59-1946.7,204.266-1946.761,204.959Zm.738-8.027c-.52.191-1,.388-1.5.545a2.653,2.653,0,0,0-1.9,2.431c-.047.365-.1.729-.136,1.1-.06.586-.11,1.174-.165,1.777h2.234c.067-.482.143-.947.194-1.415a3.847,3.847,0,0,1,1.863-3.126c.019-.011.03-.035.053-.064Zm15.362,5.965h2.225c0-.065,0-.113,0-.16-.1-.97-.167-1.945-.3-2.909a2.358,2.358,0,0,0-1.161-1.889c-.682-.356-1.418-.607-2.141-.908l-.669,1.281a4.006,4.006,0,0,1,1.864,2.953C-1930.782,201.8-1930.725,202.344-1930.662,202.9Z" transform="translate(1957.02 -177.633)" fill="#939393" stroke="#939393" stroke-width="0.75"/>
        <path id="Path_18990" data-name="Path 18990" d="M-1900.394,135.622c-.255-.043-.578-.091-.9-.155a.32.32,0,0,0-.32.074,4.068,4.068,0,0,1-5.416,0,.314.314,0,0,0-.343-.06,3.538,3.538,0,0,1-4.455-2.861,3.4,3.4,0,0,1,1.4-3.44,3.3,3.3,0,0,1,3.642-.315.827.827,0,0,0,.8.023,4.011,4.011,0,0,1,3.545.1.309.309,0,0,0,.344-.014,3.515,3.515,0,0,1,3.928.216,3.571,3.571,0,0,1,1.283,3.75,3.566,3.566,0,0,1-2.964,2.628C-1900,135.585-1900.161,135.6-1900.394,135.622Zm-3.919.037a3.159,3.159,0,0,0,3.137-3.136,3.171,3.171,0,0,0-3.152-3.151,3.175,3.175,0,0,0-3.139,3.142A3.161,3.161,0,0,0-1904.312,135.659Zm2.8-5.919a3.937,3.937,0,0,1,.6,4.886A2.664,2.664,0,0,0-1898,133.31a2.62,2.62,0,0,0-.5-3.189A2.45,2.45,0,0,0-1901.516,129.74Zm-6.191,4.828a3.824,3.824,0,0,1-.569-2.547,4.169,4.169,0,0,1,1.159-2.34,2.6,2.6,0,0,0-3.106.523,2.64,2.64,0,0,0-.4,3.148A2.615,2.615,0,0,0-1907.707,134.568Z" transform="translate(1922.271 -117.15)" fill="#939393" stroke="#939393" stroke-width="0.75"/>
        <path id="Path_18991" data-name="Path 18991" d="M-1789.312,49.634a16.629,16.629,0,0,0-9.484-6.282c.037-.145.073-.288.111-.43s.079-.291.129-.473c.3.083.592.156.879.245a17.782,17.782,0,0,1,8.974,6.243.318.318,0,0,0,.422.14,2.34,2.34,0,0,1,2.921,2.57,2.214,2.214,0,0,1-1.723,1.962,2.244,2.244,0,0,1-2.442-.826,2.386,2.386,0,0,1,.02-2.918C-1789.451,49.8-1789.393,49.73-1789.312,49.634Zm1.69,3.079a1.431,1.431,0,0,0,1.4-1.391,1.455,1.455,0,0,0-1.413-1.435,1.451,1.451,0,0,0-1.429,1.418A1.4,1.4,0,0,0-1787.622,52.713Z" transform="translate(1820.866 -40.021)" fill="#939393" stroke="#939393" stroke-width="0.75"/>
        <path id="Path_18992" data-name="Path 18992" d="M-2010.322,108.057a17.609,17.609,0,0,0-.593,11.261l-.847.244c-.137-.6-.285-1.179-.4-1.765a17.428,17.428,0,0,1-.362-3.456,17.552,17.552,0,0,1,1.279-6.481.353.353,0,0,0-.091-.466,2.3,2.3,0,0,1-.367-2.9,2.416,2.416,0,0,1,2.852-.935,2.39,2.39,0,0,1,1.516,2.512,2.326,2.326,0,0,1-2.128,1.983C-2009.732,108.07-2010,108.057-2010.322,108.057Zm.7-3.8a1.476,1.476,0,0,0-1.479,1.431,1.474,1.474,0,0,0,1.47,1.441,1.426,1.426,0,0,0,1.455-1.385A1.467,1.467,0,0,0-2009.621,104.26Z" transform="translate(2012.523 -94.695)" fill="#939393" stroke="#939393" stroke-width="0.75"/>
        <path id="Path_18993" data-name="Path 18993" d="M-1713.22,166.841l.923-.245c.119.556.257,1.088.344,1.629a17.7,17.7,0,0,1-1.143,9.808c-.049.118-.058.2.055.287a2.479,2.479,0,0,1,.458,2.727,2.358,2.358,0,0,1-2.331,1.324,2.344,2.344,0,0,1-2.132-2.192,2.286,2.286,0,0,1,1.915-2.418,6.908,6.908,0,0,1,1.071-.008A16.832,16.832,0,0,0-1713.22,166.841Zm-1.439,14.652a1.482,1.482,0,0,0,1.5-1.442,1.469,1.469,0,0,0-1.452-1.484,1.484,1.484,0,0,0-1.476,1.489A1.435,1.435,0,0,0-1714.658,181.493Z" transform="translate(1747.56 -151.349)" fill="#939393" stroke="#939393" stroke-width="0.75"/>
        <path id="Path_18994" data-name="Path 18994" d="M-2004.635,274.958A17.209,17.209,0,0,0-1995.76,281l-.238.836a16.282,16.282,0,0,1-2.866-1.071,17.852,17.852,0,0,1-6.3-5.081.386.386,0,0,0-.49-.168,2.368,2.368,0,0,1-2.971-1.964,2.256,2.256,0,0,1,1.9-2.616,2.387,2.387,0,0,1,2.719,1.929A2.418,2.418,0,0,1-2004.635,274.958Zm-1.544-.226a1.411,1.411,0,0,0,1.344-1.463,1.426,1.426,0,0,0-1.434-1.41,1.451,1.451,0,0,0-1.455,1.421A1.516,1.516,0,0,0-2006.179,274.732Z" transform="translate(2009.051 -244.882)" fill="#939393" stroke="#939393" stroke-width="0.75"/>
        <path id="Path_18995" data-name="Path 18995" d="M-1856.87,331.559a16.936,16.936,0,0,0,9.765-4.787l.594.605a17.841,17.841,0,0,1-10.361,5.11,2.326,2.326,0,0,1-1.157,1.744,2.117,2.117,0,0,1-1.432.281,2.389,2.389,0,0,1-2.012-2.348,2.337,2.337,0,0,1,1.835-2.284A2.36,2.36,0,0,1-1856.87,331.559Zm-2.253,2.127a1.47,1.47,0,0,0,1.457-1.449,1.477,1.477,0,0,0-1.462-1.446,1.458,1.458,0,0,0-1.438,1.439A1.443,1.443,0,0,0-1859.123,333.687Z" transform="translate(1877.07 -294.985)" fill="#939393" stroke="#939393" stroke-width="0.75"/>
      </g>
    </g>
  </g>
</svg>
